<?xml version="1.0" encoding="utf-8"?>
<!-- Generator: Adobe Illustrator 27.0.0, SVG Export Plug-In . SVG Version: 6.00 Build 0)  -->
<svg version="1.1" id="Layer_1" xmlns="http://www.w3.org/2000/svg" xmlns:xlink="http://www.w3.org/1999/xlink" x="0px" y="0px"
	 viewBox="0 0 1777.78 1000" style="enable-background:new 0 0 1777.78 1000;" xml:space="preserve">
<style type="text/css">
	.st0{fill-rule:evenodd;clip-rule:evenodd;}
	.st1{clip-path:url(#SVGID_00000164514690384154633690000002335569393982692779_);}
	.st2{fill-rule:evenodd;clip-rule:evenodd;fill:#BC83FB;}
</style>
<rect class="st0" width="1777.78" height="1000"/>
<g>
	<defs>
		<rect id="SVGID_1_" width="1777.78" height="1000"/>
	</defs>
	<clipPath id="SVGID_00000139983628085715557860000012830998319446229147_">
		<use xlink:href="#SVGID_1_"  style="overflow:visible;"/>
	</clipPath>
	<g style="clip-path:url(#SVGID_00000139983628085715557860000012830998319446229147_);">
		<g>
			<path id="inc_00000063610069211178430980000015710093595747418031_" class="st2" d="M444.56,707.37
				c-6.73,2.43-10.47,9.56-8.36,15.89c2.11,6.34,9.29,9.5,16.02,7.07c6.73-2.43,10.47-9.56,8.36-15.89
				C458.47,708.1,451.29,704.93,444.56,707.37L444.56,707.37z"/>
			<g>
				<g>
					<path class="st2" d="M465.79,635.31c-0.67,7.56,3.74,14.5,6.87,17.63c-9.11,0-17.71,11.94-12.22,20.75
						c-5.05,0.02-9.89,4.33-9.21,11.08c0.37,3.72,2.27,6.13,3.8,7.5c0.56,0.5,0.2,1.44-0.56,1.44h-14.26
						c-1.13,0-2.16-0.69-2.58-1.74l0,0c-3.28-6.7-2.11-15.07,1.89-22.25c4.62-8.28,12.56-18.06,18.31-23.4
						c5.37-4.99,6.36-12.37,1.49-17.59c-6.29-6.75-18.18-3.49-21.32,6.31c-0.54,1.69-0.71,3.32-0.51,4.86
						c0.13,1.03-0.61,1.96-1.61,1.96h-16.84c-0.89,0-1.62-0.75-1.63-1.69c-0.02-3.02,0.56-6.13,1.53-9.35
						c7.57-25.08,43.01-31.53,58.36-11.3C471.37,621.32,466.53,627.06,465.79,635.31z"/>
					<line class="st2" x1="436.29" y1="677.78" x2="436.16" y2="677.78"/>
				</g>
				<g>
					<path class="st2" d="M490.55,638.65c-0.23,9.07-8.37,14.52-14.66,9.81c-6.29-4.71-6-16.05,0.52-20.41
						S490.78,629.58,490.55,638.65z"/>
					<path class="st2" d="M476.96,671.81c-4.19,5.28-11.47,4.53-13.1-1.35c-1.63-5.88,3.6-12.49,9.42-11.89
						C479.11,659.17,481.15,666.52,476.96,671.81z"/>
					<path class="st2" d="M465.57,683.83c0.48,4.58-3.26,7.9-6.73,5.98c-3.47-1.92-4.07-7.64-1.08-10.3
						C460.75,676.85,465.09,679.25,465.57,683.83z"/>
				</g>
			</g>
		</g>
		<g>
			<path id="inc_00000119084109532391743130000008890408982850750343_" class="st2" d="M463.1,501.84
				c2.88,8.93,12.03,14.16,20.43,11.68c8.4-2.48,12.88-11.73,10-20.66c-2.88-8.93-12.03-14.16-20.43-11.68
				C464.7,483.66,460.22,492.92,463.1,501.84L463.1,501.84z"/>
			<g>
				<g>
					<path class="st2" d="M369.68,470.69c9.88,1.23,19.17-4.23,23.42-8.18c-0.42,11.93,14.82,23.76,26.62,16.97
						c-0.21,6.61,5.21,13.16,14.08,12.58c4.89-0.32,8.14-2.69,10-4.63c0.69-0.71,1.89-0.19,1.86,0.8l-0.66,18.68
						c-0.05,1.49-1,2.79-2.4,3.3l0,0c-8.93,3.98-19.84,2.07-29.06-3.51c-10.63-6.43-23.08-17.29-29.81-25.07
						c-6.29-7.27-15.91-8.91-22.97-2.77c-9.13,7.93-5.41,23.65,7.28,28.22c2.19,0.79,4.32,1.08,6.34,0.89
						c1.36-0.12,2.54,0.89,2.49,2.2l-0.78,22.06c-0.04,1.17-1.06,2.09-2.29,2.05c-3.96-0.11-8-1.02-12.18-2.44
						c-32.5-11.08-39.32-57.81-12.1-76.97C351.62,462.74,358.9,469.35,369.68,470.69z"/>
					<line class="st2" x1="423.95" y1="511.31" x2="423.95" y2="511.49"/>
				</g>
				<g>
					<path class="st2" d="M375.2,438.42c11.87,0.72,18.63,11.64,12.17,19.66c-6.46,8.02-21.3,7.12-26.71-1.62
						S363.33,437.7,375.2,438.42z"/>
					<path class="st2" d="M418.01,457.75c6.73,5.73,5.41,15.23-2.37,17.1c-7.78,1.87-16.19-5.3-15.14-12.9
						C401.56,454.36,411.29,452.02,418.01,457.75z"/>
					<path class="st2" d="M433.23,473.24c6.02-0.42,10.2,4.63,7.53,9.09c-2.67,4.46-10.2,4.98-13.54,0.94
						C423.87,479.22,427.21,473.65,433.23,473.24z"/>
				</g>
			</g>
		</g>
		<g>
			<path id="inc_00000052804661347577838830000009919699100386791839_" class="st2" d="M169.42,418.71
				c-1.63,10.55,5.01,20.54,14.81,22.31c9.8,1.77,19.09-5.36,20.72-15.9c1.63-10.55-5.01-20.54-14.81-22.31
				C180.34,401.03,171.05,408.16,169.42,418.71L169.42,418.71z"/>
			<g>
				<g>
					<path class="st2" d="M90.34,339.33c9.41,6.29,21.65,5.49,27.99,3.64c-6.52,11.92,2.94,31.73,18.4,30.84
						c-3.59,6.62-1.42,16.04,7.9,19.99c5.14,2.17,9.65,1.42,12.53,0.4c1.06-0.38,2.02,0.77,1.48,1.76l-10.21,18.66
						c-0.81,1.48-2.44,2.33-4.12,2.14h0c-11.12-0.51-21.23-8.03-27.75-18.41c-7.52-11.97-14.64-29.36-17.52-40.71
						c-2.69-10.6-11.63-17.18-21.94-14.54c-13.33,3.41-17.58,21.29-7.01,32.41c1.82,1.92,3.84,3.3,5.99,4.15
						c1.45,0.57,2.12,2.2,1.41,3.5l-12.06,22.04c-0.64,1.17-2.15,1.58-3.37,0.92c-3.96-2.13-7.62-5.12-11.14-8.71
						c-27.39-27.86-10.47-78.86,27-84.44C76.03,322.03,80.06,332.47,90.34,339.33z"/>
					<line class="st2" x1="124.78" y1="408.35" x2="124.69" y2="408.52"/>
				</g>
				<g>
					<path class="st2" d="M112.42,309.34c11.7,6.79,13,21.35,2.33,26.2s-25.3-3.64-26.33-15.29
						C87.39,308.61,100.72,302.54,112.42,309.34z"/>
					<path class="st2" d="M146.09,350.86c3.91,9.26-2.28,18.25-11.14,16.18s-13.76-13.65-8.81-20.84S142.17,341.59,146.09,350.86z"
						/>
					<path class="st2" d="M153.65,374.37c6.33,2.65,8.01,9.92,3.01,13.09c-4.99,3.17-12.91-0.14-14.25-5.96
						S147.32,371.72,153.65,374.37z"/>
				</g>
			</g>
		</g>
		<g>
			<path id="inc_00000096060646230444308380000014433071176252439476_" class="st2" d="M40.85,215.88
				c6.66,7.45,17.85,8.59,24.96,2.54c7.11-6.05,7.47-17,0.81-24.45c-6.66-7.45-17.85-8.59-24.96-2.54
				C34.55,197.47,34.19,208.43,40.85,215.88L40.85,215.88z"/>
			<g>
				<g>
					<path class="st2" d="M-63.62,225.94c10.15-3.07,16.85-12.41,19.27-18.1c4.75,11.81,24.71,16.74,33.27,5.01
						c2.66,6.53,10.77,10.57,19.16,6.17c4.63-2.43,6.76-6.14,7.74-8.83c0.36-0.99,1.76-1,2.15-0.03l7.44,18.48
						c0.59,1.47,0.23,3.15-0.91,4.25h0c-6.98,7.74-18.44,10.6-29.82,9.15c-13.14-1.67-29.96-6.86-39.88-11.52
						c-9.27-4.36-19.35-1.8-23.57,7.24c-5.46,11.68,4.96,25.38,19.3,24.35c2.47-0.18,4.67-0.81,6.56-1.87
						c1.27-0.71,2.86-0.23,3.38,1.06l8.78,21.83c0.47,1.16-0.13,2.49-1.34,2.99c-3.9,1.6-8.23,2.47-12.93,2.89
						c-36.46,3.26-63.31-39.31-45.08-69.75C-84.66,226.01-74.7,229.29-63.62,225.94z"/>
					<line class="st2" x1="6.82" y1="242.04" x2="6.89" y2="242.21"/>
				</g>
				<g>
					<path class="st2" d="M-72.21,192.11c11.88-4.43,23.19,3.28,20.36,13.89c-2.83,10.61-17.68,16.15-26.72,9.98
						S-84.08,196.55-72.21,192.11z"/>
					<path class="st2" d="M-22.13,192.43c9.03,2.67,11.86,12.5,5.08,17.69c-6.77,5.19-18.06,1.85-20.32-6.01
						C-39.63,196.24-31.17,189.76-22.13,192.43z"/>
					<path class="st2" d="M-0.62,200.93c5.68-3.01,11.94,0.1,11.26,5.6c-0.68,5.5-7.78,9.26-12.79,6.77
						C-7.14,210.81-6.3,203.94-0.62,200.93z"/>
				</g>
			</g>
		</g>
		<g>
			<path id="inc_00000132051671511267099350000010135446719522867608_" class="st2" d="M103.02,559.8
				c-4.97-6.79-14.25-8.67-20.71-4.18c-6.46,4.48-7.66,13.63-2.69,20.43c4.97,6.79,14.25,8.67,20.71,4.18
				C106.79,575.74,107.99,566.59,103.02,559.8L103.02,559.8z"/>
			<g>
				<g>
					<path class="st2" d="M191.4,559.95c-8.76,1.74-15.14,9.02-17.64,13.58c-3.01-10.28-19.33-16.06-27.47-6.94
						c-1.69-5.69-8.16-9.74-15.55-6.74c-4.08,1.65-6.17,4.59-7.21,6.77c-0.38,0.8-1.56,0.7-1.81-0.16l-4.71-16.1
						c-0.37-1.28,0.06-2.66,1.11-3.49l0,0c6.49-5.91,16.32-7.36,25.75-5.21c10.87,2.48,24.54,8.21,32.48,12.94
						c7.41,4.42,16.07,3.1,20.35-4.13c5.54-9.34-2.07-21.68-14.17-21.99c-2.08-0.05-3.98,0.3-5.65,1.03
						c-1.12,0.49-2.41-0.04-2.74-1.17l-5.57-19.02c-0.3-1.01,0.31-2.08,1.37-2.39c3.4-1.02,7.1-1.39,11.07-1.36
						c30.82,0.26,49.82,38.15,32.04,62.16C209.04,561.62,200.96,558.05,191.4,559.95z"/>
					<line class="st2" x1="133.69" y1="540.67" x2="133.65" y2="540.52"/>
				</g>
				<g>
					<path class="st2" d="M195.82,589.01c-10.32,2.74-19.16-4.66-15.92-13.31c3.24-8.66,16.14-12.08,23.21-6.16
						C210.19,575.45,206.14,586.27,195.82,589.01z"/>
					<path class="st2" d="M153.88,584.63c-7.35-2.98-8.91-11.45-2.81-15.24c6.1-3.79,15.29-0.06,16.54,6.71
						C168.86,582.87,161.23,587.61,153.88,584.63z"/>
					<path class="st2" d="M136.55,575.73c-5.01,2.05-10-1.07-8.98-5.62c1.02-4.55,7.28-7.12,11.27-4.62
						C142.83,567.99,141.56,573.68,136.55,575.73z"/>
				</g>
			</g>
		</g>
		<g>
			<path id="inc_00000092449468694602529820000010030776463442814337_" class="st2" d="M-82.66,577.89
				c3.91-10.29-0.65-21.8-10.16-25.69c-9.51-3.89-20.41,1.31-24.31,11.6c-3.91,10.29,0.65,21.8,10.16,25.69
				C-97.46,593.38-86.56,588.18-82.66,577.89L-82.66,577.89z"/>
			<g>
				<g>
					<path class="st2" d="M-19.87,674.93c-8.15-8.37-20.67-10.18-27.46-9.67c9.13-10.63,3.84-32.64-11.96-35.06
						c5.04-5.91,4.87-15.88-3.68-21.86c-4.72-3.29-9.43-3.5-12.56-3.09c-1.15,0.15-1.87-1.21-1.12-2.09l14.3-16.64
						c1.14-1.32,2.96-1.83,4.62-1.27h0c11.11,2.9,19.7,12.65,24.06,24.52c5.03,13.69,8.48,32.77,8.95,44.83
						c0.44,11.28,8.05,19.83,19.02,19.38c14.18-0.58,22.3-17.71,14.02-31.21c-1.43-2.32-3.16-4.16-5.16-5.47
						c-1.34-0.88-1.67-2.68-0.67-3.84l16.89-19.65c0.9-1.04,2.5-1.14,3.6-0.2c3.54,3,6.59,6.8,9.38,11.17
						c21.67,33.99-6.34,81.82-45.34,79.42C-9.13,695.46-10.97,684.06-19.87,674.93z"/>
					<line class="st2" x1="-39.83" y1="597.91" x2="-39.7" y2="597.75"/>
				</g>
				<g>
					<path class="st2" d="M-48.59,700.47c-10.35-9.36-8.54-24.33,3.26-26.94c11.8-2.61,24.75,9.1,23.3,21.07
						S-38.23,709.83-48.59,700.47z"/>
					<path class="st2" d="M-73.65,651.36c-1.96-10.19,6.21-17.93,14.71-13.93c8.5,3.99,10.96,16.72,4.42,22.92
						S-71.69,661.54-73.65,651.36z"/>
					<path class="st2" d="M-76.25,626.01c-5.82-4.03-5.95-11.73-0.23-13.85c5.72-2.13,12.99,2.91,13.1,9.07
						S-70.43,630.04-76.25,626.01z"/>
				</g>
			</g>
		</g>
		<g>
			<path id="inc_00000050648096321402019390000002740773883207326627_" class="st2" d="M250.54,992.92
				c-9.63-0.09-17.7,7.13-18.01,16.11c-0.31,8.99,7.25,16.36,16.88,16.45c9.63,0.09,17.7-7.13,18.01-16.11
				C267.74,1000.38,260.17,993.01,250.54,992.92L250.54,992.92z"/>
			<g>
				<g>
					<path class="st2" d="M311.21,912.01c-4.4,9.22-2.1,20.05,0.37,25.47c-11.49-4.28-27.96,6.73-25.17,20.43
						c-6.37-2.35-14.51,0.81-16.83,9.64c-1.28,4.87-0.02,8.8,1.26,11.24c0.47,0.9-0.43,1.91-1.38,1.55l-17.99-6.71
						c-1.43-0.53-2.4-1.88-2.44-3.41l0,0c-0.98-10,4.43-20,12.85-27.17c9.72-8.27,24.34-16.88,34.1-20.91
						c9.12-3.77,13.84-12.61,10.15-21.48c-4.77-11.47-21.29-12.95-29.86-2.07c-1.48,1.87-2.46,3.86-2.93,5.89
						c-0.32,1.36-1.69,2.18-2.95,1.71l-21.24-7.92c-1.13-0.42-1.69-1.71-1.26-2.89c1.39-3.82,3.59-7.47,6.34-11.08
						c21.35-28.07,69.09-19.55,78.92,13.2C324.82,896.99,316.02,901.95,311.21,912.01z"/>
					<line class="st2" x1="254.02" y1="951.71" x2="253.85" y2="951.65"/>
				</g>
				<g>
					<path class="st2" d="M340.87,927.86c-4.55,11.33-17.39,14.37-23.1,5.47c-5.71-8.9-0.02-23.07,10.25-25.5
						C338.28,905.4,345.42,916.53,340.87,927.86z"/>
					<path class="st2" d="M308.13,963.3c-7.77,4.7-16.6,0.33-15.89-7.86c0.7-8.19,10.41-14.06,17.48-10.56
						S315.9,958.61,308.13,963.3z"/>
					<path class="st2" d="M288.11,973.1c-1.55,6-7.83,8.43-11.3,4.38c-3.47-4.05-1.54-11.55,3.48-13.5
						C285.31,962.04,289.66,967.1,288.11,973.1z"/>
				</g>
			</g>
		</g>
		<g>
			<path id="inc_00000064355205436966785520000012026252679472535710_" class="st2" d="M119.46,985.91
				c10.33,5.01,22.7,1.34,27.62-8.18c4.92-9.52,0.52-21.32-9.8-26.33c-10.33-5.01-22.7-1.34-27.62,8.18
				C104.74,969.11,109.13,980.9,119.46,985.91L119.46,985.91z"/>
			<g>
				<g>
					<path class="st2" d="M12.86,1042.15c9.44-7.69,12.49-20.53,12.58-27.63c10.19,10.47,33.55,7,37.52-9.18
						c5.67,5.78,16.05,6.53,23.04-1.8c3.86-4.59,4.51-9.47,4.37-12.76c-0.05-1.21,1.43-1.83,2.28-0.97l15.96,16.39
						c1.27,1.3,1.62,3.25,0.89,4.91l0,0c-4.04,11.27-14.97,19.29-27.69,22.72c-14.68,3.95-34.82,5.77-47.39,5.15
						c-11.75-0.59-21.34,6.53-21.89,17.97c-0.71,14.79,16.33,24.8,31.11,17.45c2.55-1.27,4.61-2.9,6.16-4.85
						c1.04-1.31,2.94-1.49,4.05-0.34l18.85,19.36c1,1.03,0.95,2.71-0.12,3.76c-3.45,3.4-7.67,6.21-12.47,8.71
						c-37.3,19.36-84.39-14.15-78.29-54.44C-9.45,1051.4,2.56,1050.54,12.86,1042.15z"/>
					<line class="st2" x1="94.71" y1="1028.54" x2="94.85" y2="1028.69"/>
				</g>
				<g>
					<path class="st2" d="M-11,1009.96c10.68-9.89,26.06-6.62,27.68,5.88s-11.74,24.86-24.04,22.25S-21.69,1019.85-11,1009.96z"/>
					<path class="st2" d="M42.32,988.47c10.76-1.1,18.05,8.11,13.11,16.57s-18.38,9.84-24.21,2.47S31.56,989.57,42.32,988.47z"/>
					<path class="st2" d="M68.89,988.12c4.72-5.67,12.73-5.1,14.41,1.04c1.68,6.13-4.23,13.23-10.63,12.76
						C66.26,1001.46,64.16,993.79,68.89,988.12z"/>
				</g>
			</g>
		</g>
		<g>
			<path id="inc_00000053519016501348638240000006653289797226377633_" class="st2" d="M-40.03,820.73
				c-1.31-9.54-9.63-16.48-18.57-15.48c-8.94,1-15.13,9.56-13.82,19.1c1.31,9.54,9.63,16.48,18.57,15.48
				C-44.91,838.83-38.72,830.27-40.03,820.73L-40.03,820.73z"/>
			<g>
				<g>
					<path class="st2" d="M48.85,868.97c-9.77-3.01-20.15,0.84-25.15,4.08c2.57-11.99-10.73-26.68-23.87-21.93
						c1.39-6.65-2.91-14.24-11.99-15.25c-5-0.55-8.71,1.26-10.94,2.89c-0.82,0.6-1.95-0.15-1.73-1.14l4.02-18.77
						c0.32-1.49,1.51-2.64,3.02-2.91h0c9.75-2.42,20.44,1.47,28.75,8.76c9.59,8.41,20.24,21.62,25.65,30.69
						c5.06,8.48,14.49,11.86,22.73,6.92c10.65-6.39,9.71-22.95-2.3-29.84c-2.07-1.19-4.17-1.87-6.25-2.04
						c-1.4-0.12-2.4-1.36-2.12-2.67l4.74-22.17c0.25-1.18,1.45-1.92,2.68-1.66c3.98,0.82,7.91,2.46,11.88,4.66
						c30.88,17.03,29.4,65.51-1.57,80C65.69,880.25,59.5,872.26,48.85,868.97z"/>
					<line class="st2" x1="1.25" y1="818.17" x2="1.28" y2="817.99"/>
				</g>
				<g>
					<path class="st2" d="M37.48,900.62c-11.88-2.86-16.75-15.11-8.78-22.06s22.82-3.38,26.72,6.43
						C59.33,894.79,49.36,903.47,37.48,900.62z"/>
					<path class="st2" d="M-2.35,873.39c-5.78-7-2.74-16.37,5.47-16.87s15.42,8.26,13,15.75S3.43,880.39-2.35,873.39z"/>
					<path class="st2" d="M-14.96,855.01c-6.16-0.66-9.48-6.51-5.98-10.54c3.5-4.03,11.2-3.2,13.86,1.48
						C-4.42,850.63-8.8,855.67-14.96,855.01z"/>
				</g>
			</g>
		</g>
		<g>
			<path id="inc_00000078040915135185173340000000938581401306399376_" class="st2" d="M440.16,867.93
				c-10.56-7.45-24.98-5.64-32.18,4.04c-7.2,9.68-4.47,23.59,6.09,31.04c10.56,7.45,24.98,5.64,32.18-4.04
				C453.45,889.29,450.72,875.38,440.16,867.93L440.16,867.93z"/>
			<g>
				<g>
					<path class="st2" d="M568.86,824.92c-11.9,6.82-17.62,20.53-19.02,28.4c-9.41-13.49-35.99-13.91-43.36,3.35
						c-5.24-7.45-16.64-10.18-25.93-2.2c-5.12,4.4-6.73,9.7-7.18,13.37c-0.17,1.35-1.92,1.78-2.71,0.66l-14.74-21.12
						c-1.17-1.68-1.21-3.9-0.09-5.62l0,0c6.55-11.78,20.15-18.7,34.91-20.19c17.03-1.71,39.74-0.06,53.59,2.93
						c12.95,2.8,24.9-3.36,27.6-15.97c3.49-16.3-13.62-30.53-31.38-25.07c-3.06,0.94-5.65,2.38-7.72,4.26
						c-1.4,1.26-3.53,1.12-4.56-0.36l-17.41-24.95c-0.92-1.32-0.56-3.18,0.82-4.15c4.45-3.15,9.66-5.5,15.44-7.39
						c44.98-14.7,91.17,31.13,77.04,74.78C595.33,818.71,581.84,817.47,568.86,824.92z"/>
					<line class="st2" x1="475.44" y1="825.1" x2="475.31" y2="824.9"/>
				</g>
				<g>
					<path class="st2" d="M589.5,865.03c-13.67,9.04-30.16,2.6-29.68-11.58c0.48-14.18,17.58-25.48,30.77-20.33
						S603.17,856,589.5,865.03z"/>
					<path class="st2" d="M526.33,879.18c-12.16-0.74-18.57-12.3-11.54-20.8c7.03-8.5,22.22-7.57,27.35,1.67
						C547.27,869.3,538.48,879.92,526.33,879.18z"/>
					<path class="st2" d="M496.75,874.72c-6.28,5.44-15.07,3.34-15.82-3.78c-0.75-7.12,7.11-13.92,14.14-12.24
						C502.1,860.38,503.03,869.28,496.75,874.72z"/>
				</g>
			</g>
		</g>
		<g>
			<path id="inc_00000177479681372777755820000006521708466095003575_" class="st2" d="M682.71,944c-7.65,0.17-13.88,6.1-13.9,13.25
				c-0.02,7.15,6.17,12.81,13.82,12.64c7.65-0.17,13.88-6.1,13.9-13.25C696.56,949.5,690.37,943.84,682.71,944L682.71,944z"/>
			<g>
				<g>
					<path class="st2" d="M728.88,878.23c-3.27,7.44-1.17,15.98,0.93,20.22c-9.23-3.11-22.04,6.04-19.48,16.85
						c-5.12-1.7-11.51,1-13.13,8.08c-0.89,3.9,0.2,6.99,1.28,8.9c0.4,0.7-0.29,1.52-1.06,1.27l-14.45-4.88
						c-1.15-0.39-1.95-1.43-2.02-2.64l0,0c-1.03-7.92,3.02-16,9.53-21.9c7.51-6.81,18.91-14.01,26.56-17.46
						c7.15-3.22,10.68-10.36,7.53-17.32c-4.07-8.99-17.23-9.75-23.77-0.9c-1.13,1.53-1.85,3.12-2.18,4.75
						c-0.22,1.09-1.29,1.77-2.3,1.43l-17.07-5.76c-0.91-0.31-1.38-1.32-1.07-2.27c1.01-3.07,2.66-6.02,4.75-8.96
						c16.25-22.83,54.38-17.25,63.01,8.51C739.31,865.96,732.44,870.11,728.88,878.23z"/>
					<line class="st2" x1="684.44" y1="911.18" x2="684.31" y2="911.14"/>
				</g>
				<g>
					<path class="st2" d="M752.82,890.07c-3.33,9.12-13.45,11.85-18.21,4.93s-0.59-18.32,7.5-20.51S756.16,880.96,752.82,890.07z"/>
					<path class="st2" d="M727.71,919.04c-6.05,3.92-13.17,0.67-12.82-5.85c0.35-6.52,7.92-11.43,13.62-8.83
						S733.76,915.12,727.71,919.04z"/>
					<path class="st2" d="M712.05,927.32c-1.08,4.8-6,6.89-8.87,3.76c-2.86-3.13-1.51-9.13,2.43-10.81
						C709.56,918.61,713.13,922.52,712.05,927.32z"/>
				</g>
			</g>
		</g>
		<g>
			<path id="inc_00000086684654804819669490000000995170514938160317_" class="st2" d="M832.01,776.57
				c0-10.05-7.62-18.39-16.99-18.63c-9.38-0.23-16.99,7.73-16.99,17.78c0,10.05,7.62,18.39,16.99,18.63
				C824.4,794.59,832.02,786.62,832.01,776.57L832.01,776.57z"/>
			<g>
				<g>
					<path class="st2" d="M917.03,839.03c-9.67-4.5-20.94-1.99-26.57,0.65c4.35-12.03-7.3-29.1-21.56-26.04
						c2.38-6.67-0.99-15.13-10.23-17.46c-5.09-1.28-9.18,0.07-11.71,1.43c-0.93,0.5-1.99-0.43-1.63-1.42l6.81-18.83
						c0.54-1.5,1.94-2.52,3.53-2.58l0,0c10.42-1.12,20.91,4.41,28.47,13.13c8.72,10.05,17.85,25.21,22.16,35.35
						c4.03,9.48,13.29,14.31,22.51,10.37c11.92-5.09,13.29-22.34,1.85-31.17c-1.97-1.52-4.05-2.52-6.17-2.99
						c-1.43-0.32-2.29-1.74-1.82-3.06l8.04-22.24c0.43-1.18,1.77-1.78,3.01-1.34c4,1.41,7.82,3.67,11.62,6.5
						c29.5,21.98,21.1,71.86-12.96,82.46C932.83,853.07,927.57,843.94,917.03,839.03z"/>
					<line class="st2" x1="875.04" y1="779.78" x2="875.1" y2="779.6"/>
				</g>
				<g>
					<path class="st2" d="M900.8,870.12c-11.87-4.64-15.17-17.99-5.95-24.04c9.23-6.05,24.06-0.26,26.7,10.43
						C924.2,867.2,912.67,874.76,900.8,870.12z"/>
					<path class="st2" d="M863.5,836.34c-4.98-8.05-0.51-17.31,8.04-16.66c8.55,0.65,14.77,10.72,11.2,18.12
						C879.16,845.21,868.47,844.4,863.5,836.34z"/>
					<path class="st2" d="M853.07,815.55c-6.27-1.55-8.88-8.08-4.69-11.74c4.19-3.67,12.03-1.72,14.11,3.49
						C864.58,812.53,859.34,817.11,853.07,815.55z"/>
				</g>
			</g>
		</g>
		<g>
			<path id="inc_00000015327902684952681340000003085168232608038538_" class="st2" d="M1246.12,915.99
				c-12.92-6.33-28.45-1.79-34.66,10.12c-6.21,11.91-0.76,26.72,12.16,33.04c12.92,6.33,28.45,1.79,34.66-10.12
				C1264.49,937.12,1259.04,922.32,1246.12,915.99L1246.12,915.99z"/>
			<g>
				<g>
					<path class="st2" d="M1380,846.02c-11.87,9.59-15.75,25.67-15.9,34.57c-12.72-13.17-42.01-8.94-47.07,11.32
						c-7.08-7.27-20.08-8.26-28.89,2.15c-4.86,5.74-5.69,11.85-5.54,15.97c0.06,1.52-1.8,2.29-2.86,1.2l-19.92-20.62
						c-1.58-1.64-2.02-4.08-1.1-6.16l0,0c5.12-14.1,18.85-24.11,34.82-28.34c18.42-4.88,43.67-7.07,59.42-6.22
						c14.73,0.79,26.77-8.08,27.52-22.41c0.96-18.53-20.35-31.16-38.91-22.02c-3.2,1.57-5.79,3.61-7.74,6.05
						c-1.31,1.63-3.69,1.85-5.08,0.41l-23.53-24.36c-1.25-1.29-1.17-3.4,0.17-4.71c4.34-4.25,9.64-7.75,15.67-10.85
						c46.85-24.09,105.7,18.15,97.86,68.61C1408.01,834.54,1392.95,835.55,1380,846.02z"/>
					<line class="st2" x1="1277.35" y1="862.68" x2="1277.17" y2="862.49"/>
				</g>
				<g>
					<path class="st2" d="M1409.75,886.48c-13.44,12.34-32.69,8.17-34.66-7.5c-1.97-15.68,14.83-31.1,30.23-27.77
						C1420.73,854.54,1423.19,874.14,1409.75,886.48z"/>
					<path class="st2" d="M1342.81,913.16c-13.49,1.32-22.58-10.25-16.35-20.83c6.22-10.58,23.09-12.24,30.36-2.98
						C1364.09,898.61,1356.31,911.84,1342.81,913.16z"/>
					<path class="st2" d="M1309.51,913.47c-5.95,7.09-15.98,6.33-18.05-1.37c-2.07-7.7,5.36-16.56,13.39-15.95
						C1312.87,896.76,1315.46,906.38,1309.51,913.47z"/>
				</g>
			</g>
		</g>
		<g>
			<path id="inc_00000126295681175978255550000012760377671700553914_" class="st2" d="M1111.44,800.79
				c10.22-3.16,16.33-13.53,13.62-23.14c-2.71-9.62-13.21-14.86-23.43-11.7c-10.22,3.16-16.33,13.53-13.62,23.14
				C1090.72,798.71,1101.21,803.95,1111.44,800.79L1111.44,800.79z"/>
			<g>
				<g>
					<path class="st2" d="M1074.57,906.93c1.54-11.25-4.55-21.93-9-26.83c13.61,0.65,27.32-16.57,19.73-30.12
						c7.54,0.33,15.09-5.76,14.56-15.89c-0.29-5.58-2.95-9.32-5.14-11.47c-0.8-0.79-0.19-2.16,0.94-2.11l21.3,1.02
						c1.69,0.08,3.17,1.18,3.73,2.78l0,0c4.41,10.25,2.07,22.67-4.42,33.1c-7.49,12.03-20.05,26.09-29.02,33.66
						c-8.38,7.08-10.39,18.02-3.49,26.17c8.92,10.53,26.91,6.51,32.3-7.9c0.93-2.48,1.3-4.91,1.11-7.22
						c-0.12-1.55,1.05-2.88,2.54-2.81l25.16,1.2c1.33,0.06,2.37,1.24,2.31,2.64c-0.18,4.51-1.27,9.11-2.96,13.87
						c-13.1,36.93-66.51,44.04-87.99,12.71C1065.25,927.43,1072.89,919.21,1074.57,906.93z"/>
					<line class="st2" x1="1121.69" y1="845.59" x2="1121.88" y2="845.6"/>
				</g>
				<g>
					<path class="st2" d="M1037.83,900.18c0.99-13.53,13.55-21.09,22.6-13.6c9.06,7.49,7.82,24.41-2.23,30.45
						S1036.84,913.71,1037.83,900.18z"/>
					<path class="st2" d="M1060.5,851.61c6.63-7.59,17.45-5.95,19.48,2.95c2.02,8.91-6.27,18.4-14.93,17.09
						S1053.86,859.2,1060.5,851.61z"/>
					<path class="st2" d="M1078.38,834.47c-0.39-6.87,5.43-11.57,10.48-8.46c5.05,3.11,5.53,11.7,0.88,15.46
						C1085.08,845.23,1078.77,841.34,1078.38,834.47z"/>
				</g>
			</g>
		</g>
		<g>
			<path id="inc_00000106123594921909281140000015789787362115470234_" class="st2" d="M1532.35,961.84
				c-4.96,5.58-4.85,13.97,0.23,18.73c5.09,4.76,13.25,4.1,18.21-1.48c4.96-5.58,4.85-13.97-0.23-18.73
				C1545.46,955.6,1537.3,956.26,1532.35,961.84L1532.35,961.84z"/>
			<g>
				<g>
					<path class="st2" d="M1516,885.2c3.14,7.27,10.64,11.44,15.06,12.76c-8.35,4.53-10.31,19.75-0.89,25.1
						c-4.62,2.53-6.92,8.89-2.94,14.74c2.19,3.23,5.13,4.49,7.21,4.99c0.77,0.18,0.9,1.22,0.2,1.6l-13.08,7.09
						c-1.04,0.56-2.32,0.44-3.23-0.31l0,0c-6.34-4.52-9.43-12.77-9.32-21.34c0.12-9.89,2.54-22.81,5.16-30.56
						c2.44-7.25-0.31-14.5-7.37-16.87c-9.13-3.06-18.4,5.84-16.42,16.38c0.34,1.82,1,3.4,1.95,4.71c0.63,0.88,0.41,2.1-0.5,2.59
						l-15.45,8.37c-0.82,0.44-1.86,0.11-2.33-0.74c-1.52-2.76-2.53-5.9-3.24-9.34c-5.52-26.76,23.77-50.3,47.9-39.36
						C1514.16,869.61,1512.57,877.27,1516,885.2z"/>
					<line class="st2" x1="1510.05" y1="938.82" x2="1509.93" y2="938.88"/>
				</g>
				<g>
					<path class="st2" d="M1540.36,875.96c4.3,8.43-0.46,17.48-8.57,16.28s-13.48-11.74-9.67-18.97
						C1525.93,866.03,1536.06,867.53,1540.36,875.96z"/>
					<path class="st2" d="M1544.38,913.13c-1.21,6.93-8.26,9.86-12.69,5.27c-4.42-4.58-2.9-13.24,2.73-15.59
						C1540.07,900.47,1545.6,906.2,1544.38,913.13z"/>
					<path class="st2" d="M1539.91,929.81c2.71,3.96,0.94,8.87-3.2,8.83s-7.53-4.98-6.11-8.91S1537.19,925.85,1539.91,929.81z"/>
				</g>
			</g>
		</g>
		<g>
			<path id="inc_00000124119245410721727900000002602905818407363260_" class="st2" d="M1290.57,1046.52
				c-5.23-6.96-14.85-8.78-21.47-4.06c-6.62,4.72-7.74,14.2-2.51,21.16c5.23,6.96,14.85,8.78,21.47,4.06
				C1294.68,1062.96,1295.8,1053.48,1290.57,1046.52L1290.57,1046.52z"/>
			<g>
				<g>
					<path class="st2" d="M1381.97,1045.53c-9.04,1.92-15.54,9.52-18.06,14.28c-3.25-10.6-20.2-16.35-28.49-6.81
						c-1.82-5.86-8.56-9.97-16.17-6.77c-4.19,1.76-6.32,4.83-7.37,7.09c-0.39,0.83-1.6,0.74-1.87-0.14l-5.08-16.59
						c-0.4-1.32,0.03-2.75,1.1-3.62l0,0c6.63-6.2,16.78-7.83,26.55-5.73c11.27,2.42,25.49,8.17,33.75,12.95
						c7.72,4.47,16.66,2.99,20.99-4.53c5.6-9.73-2.42-22.39-14.94-22.55c-2.16-0.03-4.12,0.36-5.83,1.14
						c-1.16,0.52-2.49-0.01-2.85-1.17l-6-19.59c-0.32-1.04,0.3-2.15,1.38-2.49c3.5-1.1,7.33-1.53,11.43-1.55
						c31.87-0.13,52.02,38.8,33.94,63.86C1400.22,1047.03,1391.83,1043.44,1381.97,1045.53z"/>
					<line class="st2" x1="1322.04" y1="1026.35" x2="1321.99" y2="1026.19"/>
				</g>
				<g>
					<path class="st2" d="M1386.91,1075.52c-10.63,2.97-19.87-4.57-16.63-13.56c3.24-8.99,16.53-12.7,23.92-6.68
						C1401.59,1061.31,1397.54,1072.55,1386.91,1075.52z"/>
					<path class="st2" d="M1343.49,1071.53c-7.64-2.99-9.36-11.72-3.1-15.72c6.26-4,15.81-0.26,17.19,6.72
						C1358.95,1069.52,1351.13,1074.52,1343.49,1071.53z"/>
					<path class="st2" d="M1325.45,1062.56c-5.15,2.19-10.35-0.97-9.36-5.69c0.99-4.72,7.44-7.46,11.59-4.93
						C1331.84,1054.47,1330.6,1060.37,1325.45,1062.56z"/>
				</g>
			</g>
		</g>
		<g>
			<path id="inc_00000178200035478769289250000005649104290796162730_" class="st2" d="M1717.84,831.26
				c1.55,9.88,10.32,16.91,19.58,15.69c9.25-1.22,15.51-10.22,13.96-20.1c-1.55-9.88-10.32-16.91-19.58-15.69
				C1722.55,812.38,1716.29,821.39,1717.84,831.26L1717.84,831.26z"/>
			<g>
				<g>
					<path class="st2" d="M1624.64,782.97c10.2,2.93,20.89-1.27,26.02-4.73c-2.42,12.49,11.66,27.48,25.21,22.28
						c-1.31,6.93,3.3,14.72,12.74,15.59c5.2,0.48,9.01-1.48,11.3-3.21c0.84-0.64,2.02,0.11,1.82,1.15l-3.79,19.56
						c-0.3,1.56-1.52,2.77-3.07,3.08l0,0c-10.07,2.71-21.24-1.12-30.01-8.52c-10.12-8.54-21.43-22.03-27.23-31.34
						c-5.42-8.7-15.27-12.02-23.73-6.73c-10.93,6.84-9.62,24.01,2.98,30.93c2.17,1.19,4.37,1.86,6.53,1.99
						c1.45,0.1,2.52,1.36,2.26,2.73l-4.48,23.1c-0.24,1.23-1.46,2.02-2.75,1.78c-4.15-0.77-8.26-2.4-12.42-4.59
						c-32.39-17.06-31.82-67.4,0.03-83.06C1606.94,771.6,1613.52,779.77,1624.64,782.97z"/>
					<line class="st2" x1="1675.05" y1="834.75" x2="1675.02" y2="834.92"/>
				</g>
				<g>
					<path class="st2" d="M1635.8,749.9c12.38,2.73,17.69,15.35,9.55,22.72s-23.61,3.96-27.86-6.14S1623.42,747.17,1635.8,749.9z"/>
					<path class="st2" d="M1677.68,777.36c6.13,7.15,3.17,16.94-5.34,17.61c-8.51,0.68-16.17-8.26-13.8-16.09
						C1660.91,771.06,1671.55,770.21,1677.68,777.36z"/>
					<path class="st2" d="M1691.13,796.19c6.41,0.56,9.97,6.57,6.42,10.82s-11.56,3.55-14.41-1.26
						C1680.29,800.94,1684.73,795.63,1691.13,796.19z"/>
				</g>
			</g>
		</g>
		<g>
			<path id="inc_00000145030861526018067720000000372275944015526043_" class="st2" d="M1840.74,613.88
				c7.88,8.34,20.74,9.3,28.71,2.15c7.97-7.16,8.04-19.74,0.17-28.07c-7.88-8.34-20.74-9.3-28.71-2.15
				C1832.94,592.96,1832.86,605.54,1840.74,613.88L1840.74,613.88z"/>
			<g>
				<g>
					<path class="st2" d="M1721.2,628.65c11.55-3.84,18.94-14.76,21.55-21.36c5.81,13.4,28.87,18.43,38.31,4.72
						c3.25,7.41,12.68,11.79,22.17,6.48c5.23-2.93,7.57-7.25,8.6-10.37c0.38-1.15,1.99-1.21,2.47-0.1l9.1,20.97
						c0.72,1.67,0.37,3.61-0.91,4.91l0,0c-7.77,9.1-20.82,12.72-33.93,11.42c-15.12-1.51-34.58-6.94-46.11-11.99
						c-10.77-4.71-22.25-1.46-26.82,9.03c-5.9,13.56,6.48,28.96,22.89,27.33c2.83-0.28,5.34-1.08,7.47-2.35
						c1.44-0.85,3.27-0.35,3.9,1.11l10.75,24.77c0.57,1.31-0.07,2.86-1.45,3.47c-4.43,1.96-9.37,3.09-14.74,3.71
						c-41.72,4.87-73.84-43.13-53.87-78.62C1697.08,629.39,1708.6,632.84,1721.2,628.65z"/>
					<line class="st2" x1="1802.5" y1="644.94" x2="1802.59" y2="645.13"/>
				</g>
				<g>
					<path class="st2" d="M1710.31,590.12c13.49-5.45,26.7,3.05,23.78,15.3c-2.92,12.25-19.78,19.07-30.34,12.27
						S1696.82,595.57,1710.31,590.12z"/>
					<path class="st2" d="M1767.75,588.93c10.44,2.79,13.99,13.97,6.38,20.13s-20.66,2.68-23.5-6.27S1757.31,586.14,1767.75,588.93z
						"/>
					<path class="st2" d="M1792.7,598.02c6.43-3.63,13.7-0.25,13.1,6.08s-8.64,10.86-14.46,8.16
						C1785.52,609.55,1786.28,601.64,1792.7,598.02z"/>
				</g>
			</g>
		</g>
		<g>
			<path id="inc_00000175289314623341332360000015655788507080201370_" class="st2" d="M1748.76,505.8
				c-4.74,6.15-4.01,14.85,1.62,19.41c5.63,4.56,14.05,3.27,18.78-2.88c4.74-6.15,4.01-14.85-1.62-19.41
				C1761.91,498.36,1753.49,499.65,1748.76,505.8L1748.76,505.8z"/>
			<g>
				<g>
					<path class="st2" d="M1726.15,427.49c3.8,7.31,11.88,11.09,16.57,12.13c-8.33,5.31-9.25,21.26,0.92,26.11
						c-4.6,2.96-6.53,9.73-1.97,15.51c2.51,3.19,5.65,4.28,7.85,4.65c0.81,0.13,1.02,1.2,0.33,1.64l-13.05,8.32
						c-1.04,0.66-2.37,0.63-3.38-0.08l0,0c-6.91-4.22-10.72-12.56-11.24-21.46c-0.6-10.27,0.96-23.85,3.1-32.09
						c2-7.7-1.39-15.03-8.89-16.96c-9.69-2.5-18.67,7.41-15.83,18.21c0.49,1.86,1.29,3.45,2.37,4.74c0.72,0.87,0.58,2.15-0.33,2.73
						l-15.41,9.82c-0.82,0.52-1.92,0.26-2.47-0.6c-1.78-2.75-3.06-5.93-4.05-9.45c-7.7-27.37,20.96-53.94,46.81-44.37
						C1723.09,411.44,1722.01,419.51,1726.15,427.49z"/>
					<line class="st2" x1="1723.93" y1="483.56" x2="1723.81" y2="483.64"/>
				</g>
				<g>
					<path class="st2" d="M1750.75,416.1c5.08,8.43,0.81,18.17-7.7,17.52c-8.5-0.64-14.85-11.19-11.43-18.97
						S1745.67,407.67,1750.75,416.1z"/>
					<path class="st2" d="M1757.66,454.37c-0.75,7.28-7.85,10.84-12.77,6.41c-4.93-4.43-3.99-13.53,1.69-16.37
						C1752.25,441.56,1758.41,447.09,1757.66,454.37z"/>
					<path class="st2" d="M1754.24,472.01c3.11,3.91,1.63,9.13-2.67,9.4c-4.29,0.27-8.18-4.62-6.99-8.79
						S1751.14,468.1,1754.24,472.01z"/>
				</g>
			</g>
		</g>
		<g>
			<path id="inc_00000162313831805349782230000000821370090263018897_" class="st2" d="M1705.65,303.5
				c-7.55-5.72-18.16-4.74-23.68,2.17c-5.51,6.92-3.86,17.18,3.7,22.89c7.55,5.72,18.16,4.74,23.68-2.17
				C1714.86,319.47,1713.2,309.22,1705.65,303.5L1705.65,303.5z"/>
			<g>
				<g>
					<path class="st2" d="M1801,275.13c-8.88,4.71-13.42,14.61-14.64,20.34c-6.57-10.12-26.03-11.07-31.86,1.39
						c-3.66-5.59-11.94-7.87-18.95-2.25c-3.86,3.1-5.17,6.94-5.59,9.62c-0.15,0.99-1.45,1.26-2,0.42l-10.28-15.84
						c-0.82-1.26-0.79-2.89,0.07-4.12l0,0c5.09-8.47,15.22-13.21,26.08-13.94c12.52-0.84,29.12,0.93,39.2,3.46
						c9.42,2.37,18.33-1.85,20.61-11.02c2.96-11.86-9.23-22.71-22.38-19.14c-2.27,0.62-4.2,1.61-5.76,2.94
						c-1.05,0.89-2.62,0.73-3.33-0.37l-12.14-18.71c-0.64-0.99-0.33-2.34,0.7-3.02c3.34-2.2,7.21-3.8,11.5-5.04
						c33.32-9.67,66.04,25.05,54.62,56.68C1820.55,271.24,1810.7,269.99,1801,275.13z"/>
					<line class="st2" x1="1732.55" y1="272.97" x2="1732.45" y2="272.83"/>
				</g>
				<g>
					<path class="st2" d="M1815.14,305.03c-10.24,6.29-22.17,1.17-21.46-9.22c0.7-10.38,13.5-18.24,23.04-14.14
						C1826.26,285.77,1825.38,298.75,1815.14,305.03z"/>
					<path class="st2" d="M1768.51,313.85c-8.89-0.84-13.3-9.47-7.95-15.53c5.36-6.06,16.47-5,20,1.9
						C1784.09,307.12,1777.4,314.69,1768.51,313.85z"/>
					<path class="st2" d="M1746.94,309.86c-4.74,3.83-11.13,2.08-11.5-3.16c-0.37-5.24,5.55-10.03,10.66-8.62
						C1751.22,299.48,1751.68,306.02,1746.94,309.86z"/>
				</g>
			</g>
		</g>
		<g>
			<path id="inc_00000034807306433054789270000013852710310539254407_" class="st2" d="M1738.09,100.31
				c7.36,0.42,13.8-4.81,14.37-11.67c0.57-6.86-4.96-12.78-12.32-13.2c-7.36-0.42-13.8,4.81-14.37,11.67
				C1725.21,93.98,1730.73,99.89,1738.09,100.31L1738.09,100.31z"/>
			<g>
				<g>
					<path class="st2" d="M1688.73,160.01c3.7-6.9,2.34-15.27,0.64-19.5c8.63,3.69,21.64-4.13,20-14.71
						c4.79,2.03,11.13-0.09,13.23-6.76c1.15-3.68,0.33-6.73-0.56-8.65c-0.33-0.71,0.4-1.44,1.11-1.14l13.52,5.78
						c1.08,0.46,1.76,1.53,1.74,2.7l0,0c0.39,7.68-4.11,15.14-10.82,20.32c-7.74,5.97-19.23,12.03-26.85,14.76
						c-7.12,2.55-11.05,9.14-8.55,16.07c3.23,8.95,15.82,10.68,22.77,2.67c1.2-1.38,2.02-2.86,2.45-4.4
						c0.29-1.03,1.37-1.61,2.32-1.2l15.97,6.83c0.85,0.36,1.23,1.37,0.86,2.26c-1.2,2.87-3.02,5.58-5.25,8.25
						c-17.35,20.7-53.57,12.45-59.9-12.96C1677.78,171.01,1684.69,167.53,1688.73,160.01z"/>
					<line class="st2" x1="1733.93" y1="131.72" x2="1734.06" y2="131.77"/>
				</g>
				<g>
					<path class="st2" d="M1666.62,146.81c3.9-8.51,13.83-10.37,17.88-3.35c4.05,7.02-0.82,17.65-8.77,19.14
						C1667.79,164.08,1662.73,155.31,1666.62,146.81z"/>
					<path class="st2" d="M1692.95,120.88c6.11-3.31,12.71,0.35,11.87,6.59c-0.84,6.24-8.48,10.38-13.76,7.45
						C1685.8,131.99,1686.84,124.19,1692.95,120.88z"/>
					<path class="st2" d="M1708.63,114.11c1.4-4.53,6.29-6.17,8.81-2.94c2.51,3.23,0.76,8.89-3.15,10.2
						C1710.37,122.67,1707.23,118.64,1708.63,114.11z"/>
				</g>
			</g>
		</g>
		<g>
			<path id="inc_00000083776919587969504070000011420884053134839433_" class="st2" d="M1508.55,193.88
				c-13.46,0.48-24.27,11.08-24.14,23.66c0.14,12.57,11.17,22.39,24.63,21.9c13.46-0.48,24.27-11.08,24.14-23.66
				C1533.04,203.21,1522,193.4,1508.55,193.88L1508.55,193.88z"/>
			<g>
				<g>
					<path class="st2" d="M1588.14,77c-5.56,13.16-1.66,28.14,2.14,35.56c-16.32-5.25-38.63,11.18-33.85,30.13
						c-9.05-2.87-20.22,2.05-22.9,14.54c-1.47,6.88,0.53,12.29,2.48,15.62c0.72,1.23-0.48,2.69-1.83,2.25l-25.55-8.22
						c-2.03-0.65-3.47-2.47-3.63-4.6l0,0c-2-13.9,4.91-28.22,16.22-38.77c13.05-12.17,32.92-25.12,46.3-31.38
						c12.51-5.85,18.53-18.49,12.81-30.65c-7.39-15.72-30.56-16.73-41.84-0.99c-1.94,2.71-3.18,5.54-3.72,8.41
						c-0.36,1.93-2.23,3.15-4.01,2.58l-30.18-9.71c-1.6-0.51-2.47-2.28-1.94-3.96c1.7-5.42,4.54-10.66,8.14-15.88
						c28.03-40.57,95.26-31.7,111.08,13.41C1606.19,55.15,1594.21,62.64,1588.14,77z"/>
					<line class="st2" x1="1510.78" y1="136.09" x2="1510.54" y2="136.02"/>
				</g>
				<g>
					<path class="st2" d="M1630.57,97.25c-5.64,16.12-23.38,21.19-31.92,9.12c-8.55-12.07-1.5-32.22,12.69-36.27
						S1636.21,81.13,1630.57,97.25z"/>
					<path class="st2" d="M1587.1,148.84c-10.55,7.05-23.16,1.51-22.7-9.97c0.46-11.48,13.65-20.3,23.74-15.87
						C1598.23,127.43,1597.66,141.79,1587.1,148.84z"/>
					<path class="st2" d="M1559.76,163.8c-1.78,8.48-10.39,12.28-15.51,6.84c-5.11-5.44-2.89-16.03,4.01-19.07
						C1555.15,148.53,1561.54,155.33,1559.76,163.8z"/>
				</g>
			</g>
		</g>
		<g>
			<path id="inc_00000048468031158891534450000013907404270577938610_" class="st2" d="M1408.15,59.06
				c-3.86,8.64-0.52,18.74,7.45,22.54c7.97,3.8,17.58-0.12,21.44-8.75c3.86-8.64,0.52-18.74-7.45-22.54
				C1421.61,46.51,1412.01,50.43,1408.15,59.06L1408.15,59.06z"/>
			<g>
				<g>
					<path class="st2" d="M1359.08-27.3c6.58,7.58,17.23,9.76,23.08,9.65c-8.36,8.67-4.91,27.82,8.53,30.67
						c-4.61,4.82-4.97,13.39,2.08,18.94c3.88,3.06,7.92,3.47,10.62,3.27c1-0.07,1.55,1.13,0.85,1.85l-13.09,13.57
						c-1.04,1.08-2.63,1.42-4.02,0.86l0,0c-9.39-3.04-16.28-11.83-19.43-22.23c-3.63-11.99-5.65-28.53-5.46-38.91
						c0.18-9.7-5.93-17.41-15.36-17.57c-12.2-0.21-20.01,14.09-13.57,26.08c1.11,2.06,2.51,3.72,4.15,4.95
						c1.1,0.82,1.3,2.38,0.39,3.33l-15.46,16.03c-0.82,0.85-2.2,0.85-3.1,0c-2.89-2.75-5.32-6.16-7.49-10.05
						c-16.91-30.23,9.49-69.88,42.83-65.9C1350.89-45.44,1351.9-35.57,1359.08-27.3z"/>
					<line class="st2" x1="1372.4" y1="39.77" x2="1372.28" y2="39.9"/>
				</g>
				<g>
					<path class="st2" d="M1384.98-47.79c8.42,8.55,6.13,21.3-4.13,22.95c-10.26,1.66-20.78-9.03-18.95-19.23
						S1376.56-56.33,1384.98-47.79z"/>
					<path class="st2" d="M1404.06-4.41c1.18,8.84-6.21,15.07-13.31,11.23s-8.58-14.89-2.66-19.88
						C1394-18.06,1402.88-13.25,1404.06-4.41z"/>
					<path class="st2" d="M1405.03,17.46c4.79,3.75,4.53,10.35-0.48,11.9c-5.01,1.54-11-3.14-10.79-8.43
						S1400.24,13.72,1405.03,17.46z"/>
				</g>
			</g>
		</g>
		<g>
			<path id="inc_00000179639840806001236810000007614590503193455005_" class="st2" d="M1258.17,104.9
				c5.77-7.62,4.8-18.32-2.17-23.89c-6.97-5.57-17.32-3.91-23.1,3.71c-5.77,7.62-4.8,18.32,2.17,23.89
				C1242.05,114.18,1252.4,112.52,1258.17,104.9L1258.17,104.9z"/>
			<g>
				<g>
					<path class="st2" d="M1286.7,201.12c-4.74-8.97-14.73-13.55-20.51-14.78c10.21-6.61,11.19-26.25-1.37-32.14
						c5.64-3.69,7.95-12.04,2.29-19.11c-3.12-3.9-7-5.22-9.7-5.65c-1-0.16-1.26-1.47-0.42-2.02l15.99-10.36
						c1.27-0.82,2.92-0.79,4.16,0.07l0,0c8.54,5.14,13.31,15.37,14.03,26.32c0.83,12.63-0.97,29.37-3.53,39.54
						c-2.4,9.5,1.85,18.49,11.1,20.8c11.96,2.99,22.91-9.29,19.32-22.56c-0.62-2.29-1.62-4.24-2.96-5.82
						c-0.9-1.06-0.73-2.64,0.38-3.36l18.88-12.23c1-0.65,2.36-0.33,3.05,0.71c2.22,3.37,3.82,7.28,5.07,11.6
						c9.72,33.62-25.33,66.6-57.23,55.05C1290.61,220.85,1291.87,210.9,1286.7,201.12z"/>
					<line class="st2" x1="1288.94" y1="132.07" x2="1289.08" y2="131.97"/>
				</g>
				<g>
					<path class="st2" d="M1256.52,215.36c-6.33-10.34-1.15-22.36,9.32-21.64c10.47,0.72,18.38,13.64,14.24,23.26
						S1262.85,225.69,1256.52,215.36z"/>
					<path class="st2" d="M1247.67,168.3c0.86-8.97,9.56-13.41,15.67-8c6.11,5.41,5.03,16.62-1.93,20.17
						S1246.81,177.27,1247.67,168.3z"/>
					<path class="st2" d="M1251.72,146.56c-3.86-4.78-2.08-11.23,3.2-11.6c5.28-0.37,10.11,5.61,8.69,10.76
						C1262.18,150.88,1255.58,151.34,1251.72,146.56z"/>
				</g>
			</g>
		</g>
		<g>
			<path id="inc_00000068658043713350759730000003794814485192794004_" class="st2" d="M957.47,184.85
				c-11.59-7.23-26.7-4.45-33.72,6.2c-7.02,10.65-3.31,25.17,8.29,32.4c11.59,7.23,26.7,4.45,33.72-6.2
				C972.78,206.6,969.06,192.08,957.47,184.85L957.47,184.85z"/>
			<g>
				<g>
					<path class="st2" d="M1090.73,131.72c-12.15,7.91-17.37,22.73-18.38,31.12c-10.75-13.68-38.83-12.52-45.57,6.13
						c-5.98-7.55-18.17-9.75-27.51-0.77c-5.14,4.95-6.53,10.64-6.78,14.55c-0.09,1.44-1.93,1.99-2.82,0.86l-16.82-21.41
						c-1.34-1.7-1.51-4.05-0.44-5.93l0,0c6.2-12.83,20.15-20.95,35.64-23.4c17.88-2.83,41.94-2.45,56.75-0.12
						c13.84,2.18,26.08-5.04,28.17-18.51c2.7-17.41-16.21-31.41-34.63-24.58c-3.17,1.18-5.82,2.85-7.9,4.96
						c-1.4,1.42-3.66,1.39-4.84-0.1l-19.87-25.29c-1.05-1.34-0.78-3.32,0.62-4.43c4.51-3.59,9.86-6.39,15.86-8.73
						c46.6-18.22,98.11,27.39,85.81,74.31C1118.31,123.58,1103.99,123.08,1090.73,131.72z"/>
					<line class="st2" x1="992.14" y1="137.51" x2="991.98" y2="137.32"/>
				</g>
				<g>
					<path class="st2" d="M1114.93,172.82c-13.89,10.36-31.68,4.55-32.02-10.45c-0.34-15,17.02-27.95,31.26-23.31
						C1128.39,143.72,1128.82,162.47,1114.93,172.82z"/>
					<path class="st2" d="M1049.1,191.55c-12.88-0.06-20.34-11.87-13.43-21.27s23-9.33,28.97,0.12
						C1070.61,179.86,1061.97,191.6,1049.1,191.55z"/>
					<path class="st2" d="M1017.61,188.62c-6.31,6.12-15.71,4.43-16.92-3.04c-1.21-7.47,6.67-15.12,14.19-13.77
						C1022.4,173.15,1023.91,182.5,1017.61,188.62z"/>
				</g>
			</g>
		</g>
		<g>
			<path id="inc_00000122692677759673940680000010100982106746163645_" class="st2" d="M998.16-109.59
				c10.52,1.81,20.64-4.65,22.58-14.43c1.94-9.78-5.03-19.19-15.55-21c-10.52-1.81-20.64,4.65-22.58,14.43
				C980.67-120.81,987.64-111.4,998.16-109.59L998.16-109.59z"/>
			<g>
				<g>
					<path class="st2" d="M917.38-31.83c6.46-9.31,5.87-21.57,4.12-27.94c11.81,6.73,31.79-2.39,31.17-17.88
						c6.56,3.7,16.03,1.7,20.13-7.56c2.26-5.1,1.59-9.63,0.62-12.53c-0.36-1.07,0.81-2.01,1.79-1.45l18.49,10.54
						c1.47,0.84,2.29,2.48,2.07,4.16v0c-0.71,11.11-8.4,21.11-18.89,27.45c-12.1,7.32-29.63,14.14-41.03,16.82
						c-10.66,2.51-17.39,11.34-14.93,21.7c3.18,13.4,21,17.95,32.31,7.57c1.95-1.79,3.37-3.78,4.25-5.92
						c0.59-1.44,2.24-2.09,3.53-1.35l21.84,12.44c1.16,0.66,1.54,2.17,0.86,3.39c-2.2,3.93-5.25,7.53-8.9,11
						c-28.35,26.93-79.08,9.11-84.02-28.47C899.82-17.81,910.33-21.67,917.38-31.83z"/>
					<line class="st2" x1="987.03" y1="-65.1" x2="987.2" y2="-65.01"/>
				</g>
				<g>
					<path class="st2" d="M887.75-54.45c7-11.59,21.59-12.64,26.26-1.88c4.67,10.76-4.08,25.25-15.75,26.08
						C886.59-29.41,880.75-42.85,887.75-54.45z"/>
					<path class="st2" d="M929.87-87.41c9.34-3.76,18.22,2.59,15.99,11.43c-2.23,8.84-13.9,13.53-21,8.45
						C917.75-72.61,920.53-83.65,929.87-87.41z"/>
					<path class="st2" d="M953.53-94.58c2.76-6.29,10.06-7.84,13.15-2.79c3.08,5.05-0.37,12.91-6.21,14.15
						C954.62-81.97,950.77-88.29,953.53-94.58z"/>
				</g>
			</g>
		</g>
		<g>
			<path id="inc_00000122680291697296533530000006540153152430934689_" class="st2" d="M799.09,156.67
				c-7.38,1.28-12.54,7.94-11.51,14.86c1.02,6.92,7.85,11.49,15.22,10.21c7.38-1.28,12.54-7.94,11.51-14.86
				C813.29,159.96,806.47,155.39,799.09,156.67L799.09,156.67z"/>
			<g>
				<g>
					<path class="st2" d="M834.13,86.27c-2.07,7.67,1.21,15.63,3.86,19.43c-9.39-1.66-20.44,9.07-16.38,19.16
						c-5.2-0.9-10.99,2.66-11.52,9.74c-0.29,3.9,1.22,6.73,2.55,8.42c0.49,0.62-0.06,1.52-0.84,1.38l-14.7-2.6
						c-1.17-0.21-2.1-1.1-2.35-2.26l0,0c-2.15-7.51,0.58-15.92,6.01-22.59c6.27-7.69,16.24-16.33,23.14-20.78
						c6.45-4.17,8.81-11.59,4.75-17.86c-5.26-8.1-18.1-6.91-23.13,2.61c-0.87,1.64-1.34,3.29-1.41,4.91
						c-0.05,1.09-0.99,1.91-2.01,1.72l-17.36-3.07c-0.92-0.16-1.53-1.07-1.37-2.04c0.53-3.12,1.7-6.21,3.29-9.36
						c12.38-24.47,50.09-24.66,62.22-0.99C842.42,72.87,836.39,77.89,834.13,86.27z"/>
					<line class="st2" x1="795.96" y1="124.66" x2="795.82" y2="124.64"/>
				</g>
				<g>
					<path class="st2" d="M859.03,94.22c-1.89,9.31-11.28,13.44-16.9,7.43c-5.62-6-3.26-17.64,4.26-20.94
						C853.9,77.41,860.92,84.91,859.03,94.22z"/>
					<path class="st2" d="M838.98,125.93c-5.28,4.68-12.65,2.58-13.26-3.78s5.99-12.22,11.88-10.53
						C843.49,113.29,844.26,121.24,838.98,125.93z"/>
					<path class="st2" d="M825.04,136.23c-0.34,4.81-4.8,7.55-8.03,4.94c-3.23-2.61-2.8-8.62,0.77-10.81
						C821.35,128.17,825.38,131.43,825.04,136.23z"/>
				</g>
			</g>
		</g>
		<g>
			<path id="inc_00000112598244363849281950000002784852360649483396_" class="st2" d="M595.51,22.59
				c-0.64-6.78-6.32-11.92-12.66-11.48c-6.34,0.44-10.97,6.31-10.32,13.08c0.64,6.78,6.32,11.92,12.66,11.48
				C591.53,35.23,596.16,29.37,595.51,22.59L595.51,22.59z"/>
			<g>
				<g>
					<path class="st2" d="M656.87,59.28c-6.81-2.42-14.25,0-17.88,2.14c2.16-8.39-6.79-19.16-16.22-16.19
						c1.18-4.65-1.64-10.15-8.02-11.12c-3.52-0.54-6.19,0.64-7.81,1.72c-0.6,0.4-1.37-0.16-1.19-0.86l3.39-13.14
						c0.27-1.05,1.15-1.82,2.22-1.97l0,0c6.96-1.43,14.39,1.64,20.05,7.03c6.53,6.22,13.66,15.87,17.22,22.43
						c3.33,6.14,9.89,8.8,15.85,5.55c7.71-4.2,7.53-15.92-0.75-21.15c-1.43-0.9-2.89-1.44-4.36-1.63c-0.98-0.12-1.66-1.03-1.42-1.95
						l4-15.52c0.21-0.82,1.08-1.31,1.94-1.1c2.79,0.7,5.51,1.97,8.26,3.64c21.31,12.94,18.84,47.13-3.46,56.46
						C668.44,67.74,664.3,61.92,656.87,59.28z"/>
					<line class="st2" x1="624.75" y1="22" x2="624.78" y2="21.88"/>
				</g>
				<g>
					<path class="st2" d="M647.91,81.3c-8.3-2.37-11.39-11.17-5.55-15.84s16.22-1.71,18.68,5.33
						C663.51,77.83,656.22,83.67,647.91,81.3z"/>
					<path class="st2" d="M620.58,60.9c-3.87-5.12-1.45-11.64,4.36-11.75c5.81-0.11,10.65,6.29,8.72,11.51
						C631.72,65.88,624.46,66.01,620.58,60.9z"/>
					<path class="st2" d="M612.22,47.54c-4.33-0.65-6.51-4.88-3.91-7.62c2.59-2.74,8.01-1.93,9.75,1.45
						C619.79,44.76,616.55,48.19,612.22,47.54z"/>
				</g>
			</g>
		</g>
		<g>
			<path id="inc_00000160891773330584579630000015327211583500584349_" class="st2" d="M515.32,121.79
				c0.3,8.66,7.12,15.62,15.2,15.54c8.09-0.08,14.41-7.17,14.11-15.83c-0.3-8.66-7.12-15.62-15.21-15.54
				C521.34,106.03,515.02,113.13,515.32,121.79L515.32,121.79z"/>
			<g>
				<g>
					<path class="st2" d="M440.17,70.51c8.47,3.59,18.11,1.09,22.88-1.36c-3.39,10.5,7.17,24.86,19.37,21.8
						c-1.85,5.82,1.31,13.01,9.34,14.74c4.43,0.95,7.91-0.34,10.05-1.59c0.79-0.46,1.73,0.31,1.45,1.18l-5.31,16.43
						c-0.42,1.31-1.59,2.23-2.96,2.33l0,0c-8.95,1.28-18.16-3.18-24.93-10.46c-7.82-8.4-16.14-21.2-20.16-29.81
						c-3.76-8.05-11.89-11.93-19.71-8.26c-10.12,4.74-10.78,19.65-0.66,26.92c1.74,1.25,3.56,2.05,5.41,2.4
						c1.24,0.23,2.03,1.43,1.66,2.58l-6.27,19.41c-0.33,1.03-1.47,1.59-2.55,1.25c-3.49-1.1-6.85-2.93-10.21-5.25
						c-26.09-18.06-20.34-61.31,8.69-71.46C426.13,58.88,430.93,66.59,440.17,70.51z"/>
					<line class="st2" x1="478.14" y1="120.32" x2="478.09" y2="120.47"/>
				</g>
				<g>
					<path class="st2" d="M453.23,43.22c10.37,3.64,13.62,15.05,5.85,20.54s-20.73,0.94-23.33-8.19
						C433.15,46.45,442.86,39.58,453.23,43.22z"/>
					<path class="st2" d="M486.39,71.22c4.53,6.79,0.96,14.9-6.43,14.6c-7.39-0.3-13.05-8.8-10.19-15.28
						C472.62,64.04,481.86,64.43,486.39,71.22z"/>
					<path class="st2" d="M496,88.82c5.45,1.15,7.89,6.7,4.39,9.98s-10.32,1.85-12.27-2.59C486.17,91.78,490.55,87.67,496,88.82z"/>
				</g>
			</g>
		</g>
		<g>
			<path id="inc_00000034773590944143720600000003604433410233117881_" class="st2" d="M282.38,4.88
				c-5.13,8.08-3.27,18.69,4.15,23.67c7.43,4.98,17.62,2.46,22.75-5.63c5.13-8.08,3.27-18.69-4.15-23.67
				C297.71-5.73,287.52-3.2,282.38,4.88L282.38,4.88z"/>
			<g>
				<g>
					<path class="st2" d="M245.9-88.82c5.48,8.56,15.83,12.3,21.71,13.05c-9.65,7.45-8.99,27.14,4.04,31.97
						c-5.33,4.15-6.94,12.68-0.69,19.27c3.44,3.63,7.42,4.63,10.16,4.83c1.01,0.07,1.38,1.36,0.59,1.98l-15.1,11.67
						c-1.2,0.93-2.85,1.04-4.16,0.27v0c-8.96-4.42-14.57-14.24-16.2-25.11c-1.88-12.55-1.48-29.41,0.24-39.77
						c1.6-9.69-3.38-18.31-12.81-19.85c-12.19-1.99-22.11,11.18-17.42,24.13c0.81,2.23,1.97,4.1,3.44,5.56
						c0.98,0.99,0.95,2.57-0.1,3.39l-17.84,13.78c-0.95,0.73-2.33,0.53-3.1-0.46c-2.49-3.18-4.42-6.95-6.03-11.16
						c-12.51-32.76,19.75-68.6,52.56-59.72C240.35-108.19,239.92-98.16,245.9-88.82z"/>
					<line class="st2" x1="249.4" y1="-19.68" x2="249.26" y2="-19.58"/>
				</g>
				<g>
					<path class="st2" d="M274.84-105.54c7.18,9.79,3.01,22.23-7.5,22.38c-10.52,0.15-19.49-12.09-16.16-22.04
						S267.66-115.34,274.84-105.54z"/>
					<path class="st2" d="M287.59-59.3c-0.11,9.02-8.43,14.19-14.98,9.29c-6.55-4.89-6.41-16.17,0.25-20.3S287.71-68.32,287.59-59.3
						z"/>
					<path class="st2" d="M285.36-37.25c4.25,4.46,3.02,11.04-2.23,11.84c-5.24,0.81-10.56-4.76-9.57-10.02
						S281.11-41.7,285.36-37.25z"/>
				</g>
			</g>
		</g>
		<g>
			<path id="inc_00000057846587120428583240000015377181646956221342_" class="st2" d="M37.39,35.98
				c0.3-8.59-5.96-15.96-13.97-16.45c-8.01-0.48-14.77,6.1-15.07,14.69c-0.3,8.59,5.96,15.96,13.97,16.45
				C30.34,51.16,37.09,44.58,37.39,35.98L37.39,35.98z"/>
			<g>
				<g>
					<path class="st2" d="M108.22,91.99c-8.13-4.14-17.85-2.34-22.75-0.25c4.09-10.16-5.36-25.11-17.66-22.93
						c2.24-5.64-0.39-12.97-8.22-15.24c-4.32-1.25-7.85-0.22-10.06,0.87c-0.81,0.4-1.69-0.42-1.35-1.27l6.4-15.9
						c0.51-1.26,1.73-2.1,3.1-2.1h0c8.95-0.64,17.75,4.41,23.96,12.09c7.16,8.86,14.51,22.11,17.88,30.92
						c3.16,8.23,10.94,12.64,18.94,9.55c10.35-3.99,12.04-18.71,2.53-26.61c-1.64-1.36-3.39-2.28-5.19-2.75
						c-1.21-0.32-1.91-1.56-1.46-2.67l7.56-18.78c0.4-1,1.57-1.47,2.61-1.06c3.38,1.33,6.58,3.37,9.74,5.91
						c24.57,19.7,15.87,62.11-13.59,70.14C121.32,104.48,117.1,96.51,108.22,91.99z"/>
					<line class="st2" x1="74.1" y1="40.03" x2="74.16" y2="39.88"/>
				</g>
				<g>
					<path class="st2" d="M93.4,118.09c-10.01-4.32-12.43-15.85-4.36-20.75c8.08-4.9,20.59,0.51,22.53,9.73
						C113.5,116.3,103.41,122.42,93.4,118.09z"/>
					<path class="st2" d="M62.51,88.07c-4.01-7.04,0.09-14.82,7.38-14c7.29,0.82,12.31,9.62,9.03,15.84
						C75.64,96.13,66.53,95.11,62.51,88.07z"/>
					<path class="st2" d="M54.22,69.97c-5.32-1.52-7.35-7.18-3.65-10.19c3.69-3.01,10.34-1.11,11.97,3.42
						C64.16,67.73,59.54,71.49,54.22,69.97z"/>
				</g>
			</g>
		</g>
		<g>
			<path id="inc_00000139993621972427434260000005011044308420640185_" class="st2" d="M1678.33,960.84
				c4.18-10.01,0.06-21.5-9.19-25.63c-9.25-4.13-20.15,0.64-24.32,10.65c-4.18,10.01-0.06,21.5,9.19,25.63
				C1663.26,975.63,1674.16,970.86,1678.33,960.84L1678.33,960.84z"/>
			<g>
				<g>
					<path class="st2" d="M1737.08,1058.44c-7.76-8.5-20.04-10.69-26.75-10.4c9.34-10.18,4.82-32.03-10.66-34.92
						c5.15-5.66,5.31-15.49-2.93-21.65c-4.54-3.4-9.18-3.75-12.27-3.44c-1.14,0.11-1.81-1.25-1.03-2.1l14.62-15.93
						c1.16-1.27,2.98-1.7,4.59-1.1l0,0c10.85,3.21,19.01,13.09,22.92,24.92c4.51,13.65,7.31,32.55,7.38,44.45
						c0.07,11.12,7.3,19.79,18.12,19.7c13.99-0.12,22.53-16.74,14.81-30.29c-1.33-2.33-2.98-4.2-4.9-5.55
						c-1.29-0.91-1.56-2.69-0.54-3.8l17.27-18.82c0.92-1,2.5-1.04,3.55-0.09c3.39,3.07,6.27,6.91,8.88,11.31
						c20.26,34.17-8.86,80.39-47.2,76.79C1747,1079.01,1745.55,1067.72,1737.08,1058.44z"/>
					<line class="st2" x1="1719.88" y1="981.93" x2="1720.01" y2="981.78"/>
				</g>
				<g>
					<path class="st2" d="M1707.98,1082.68c-9.9-9.55-7.64-24.24,4.07-26.43s24.09,9.75,22.28,21.5
						C1732.52,1089.49,1717.88,1092.24,1707.98,1082.68z"/>
					<path class="st2" d="M1684.85,1033.5c-1.61-10.1,6.69-17.46,14.94-13.26c8.25,4.2,10.26,16.83,3.62,22.72
						C1696.78,1048.85,1686.46,1043.6,1684.85,1033.5z"/>
					<path class="st2" d="M1683.11,1008.45c-5.61-4.16-5.49-11.74,0.21-13.65c5.7-1.91,12.71,3.28,12.61,9.35
						S1688.71,1012.61,1683.11,1008.45z"/>
				</g>
			</g>
		</g>
		<g>
			<path id="inc_00000031181224399483250150000009494258676987640450_" class="st2" d="M772.3,1081.46
				c-11.54-4.39-24.46,0.71-28.83,11.38c-4.37,10.67,1.45,22.9,13,27.3c11.54,4.39,24.46-0.7,28.83-11.38
				C789.67,1098.09,783.85,1085.86,772.3,1081.46L772.3,1081.46z"/>
			<g>
				<g>
					<path class="st2" d="M881.26,1011.11c-9.4,9.14-11.45,23.19-10.88,30.81c-11.92-10.26-36.63-4.34-39.36,13.38
						c-6.62-5.66-17.82-5.48-24.53,4.11c-3.7,5.29-3.93,10.58-3.48,14.09c0.17,1.29-1.36,2.1-2.35,1.25l-18.66-16.06
						c-1.48-1.28-2.05-3.33-1.42-5.18l0,0c3.27-12.46,14.22-22.1,27.54-26.97c15.37-5.63,36.78-9.48,50.32-10
						c12.65-0.48,22.25-9.02,21.76-21.33c-0.64-15.92-19.85-25.04-35-15.76c-2.61,1.6-4.67,3.55-6.14,5.78
						c-0.99,1.5-3.01,1.87-4.31,0.75L812.72,967c-1.17-1.01-1.27-2.81-0.22-4.04c3.37-3.97,7.63-7.39,12.55-10.51
						c38.16-24.28,91.8,7.2,89.07,50.96C904.3,999.08,891.51,1001.13,881.26,1011.11z"/>
					<line class="st2" x1="794.8" y1="1033.43" x2="794.63" y2="1033.29"/>
				</g>
				<g>
					<path class="st2" d="M909.88,1043.36c-10.52,11.61-27.31,9.56-30.23-3.69c-2.92-13.25,10.23-27.76,23.66-26.12
						C916.75,1015.19,920.4,1031.75,909.88,1043.36z"/>
					<path class="st2" d="M854.75,1071.44c-11.43,2.19-20.11-6.99-15.62-16.52c4.49-9.54,18.78-12.28,25.72-4.94
						S866.18,1069.24,854.75,1071.44z"/>
					<path class="st2" d="M826.3,1074.32c-4.53,6.53-13.16,6.67-15.54,0.25c-2.38-6.42,3.28-14.58,10.19-14.69
						C827.86,1059.78,830.83,1067.8,826.3,1074.32z"/>
				</g>
			</g>
		</g>
		<g>
			<path id="inc_00000063601232441685582950000008935753474674484399_" class="st2" d="M600.77,1067.51
				c3.76,11.77,15.8,18.69,26.87,15.46c11.07-3.23,17-15.41,13.25-27.18c-3.76-11.77-15.8-18.69-26.87-15.46
				C602.94,1043.57,597.01,1055.75,600.77,1067.51L600.77,1067.51z"/>
			<g>
				<g>
					<path class="st2" d="M477.84,1026.16c13,1.65,25.27-5.5,30.87-10.69c-0.6,15.71,19.43,31.35,34.99,22.44
						c-0.3,8.71,6.82,17.35,18.51,16.62c6.44-0.4,10.72-3.51,13.18-6.06c0.91-0.94,2.49-0.25,2.44,1.06l-0.94,24.6
						c-0.07,1.96-1.33,3.67-3.17,4.34l0,0c-11.78,5.21-26.14,2.65-38.26-4.73c-13.98-8.51-30.34-22.85-39.18-33.12
						c-8.26-9.6-20.92-11.79-30.24-3.73c-12.05,10.42-7.21,31.13,9.48,37.2c2.88,1.04,5.68,1.44,8.35,1.2
						c1.79-0.16,3.34,1.18,3.27,2.9l-1.1,29.06c-0.06,1.54-1.41,2.75-3.02,2.69c-5.21-0.16-10.53-1.37-16.04-3.26
						c-42.77-14.71-51.58-76.28-15.66-101.42C454.08,1015.63,463.65,1024.35,477.84,1026.16z"/>
					<line class="st2" x1="549.18" y1="1079.85" x2="549.17" y2="1080.08"/>
				</g>
				<g>
					<path class="st2" d="M485.22,983.67c15.63,0.99,24.5,15.4,15.95,25.94c-8.54,10.54-28.08,9.3-35.18-2.23
						C458.91,995.85,469.59,982.68,485.22,983.67z"/>
					<path class="st2" d="M541.54,1009.29c8.84,7.57,7.07,20.08-3.19,22.51c-10.26,2.43-21.31-7.03-19.89-17.04
						C519.88,1004.76,532.7,1001.71,541.54,1009.29z"/>
					<path class="st2" d="M561.53,1029.73c7.93-0.53,13.42,6.14,9.88,12c-3.54,5.86-13.44,6.52-17.84,1.19
						S553.6,1030.26,561.53,1029.73z"/>
				</g>
			</g>
		</g>
		<g>
			<path id="inc_00000070113197474344395600000003770852950450451588_" class="st2" d="M609.58,529.87
				c6.51-13.56,1.65-29.75-10.85-36.14c-12.5-6.39-27.93-0.58-34.44,12.98c-6.51,13.56-1.65,29.75,10.85,36.14
				C587.64,549.24,603.07,543.43,609.58,529.87L609.58,529.87z"/>
			<g>
				<g>
					<path class="st2" d="M683.79,669.24c-10.12-12.33-26.96-16.26-36.26-16.35c13.67-13.41,9.01-43.99-12.21-49.11
						c7.54-7.46,8.47-21.06-2.48-30.18c-6.04-5.03-12.43-5.86-16.73-5.66c-1.59,0.07-2.41-1.87-1.28-2.98l21.39-20.99
						c1.7-1.67,4.25-2.14,6.43-1.19l0,0c14.78,5.24,25.35,19.51,29.91,36.17c5.25,19.22,7.74,45.59,6.98,62.06
						c-0.71,15.4,8.66,27.92,23.65,28.58c19.37,0.86,32.41-21.53,22.7-40.85c-1.67-3.33-3.83-6.03-6.38-8.04
						c-1.72-1.36-1.96-3.84-0.47-5.3l25.27-24.79c1.34-1.31,3.54-1.26,4.92,0.14c4.48,4.5,8.18,10.02,11.47,16.29
						c25.55,48.78-18.12,110.63-70.93,102.85C696.02,698.43,694.84,682.7,683.79,669.24z"/>
					<line class="st2" x1="665.55" y1="562.08" x2="665.74" y2="561.89"/>
				</g>
				<g>
					<path class="st2" d="M641.74,700.67c-13.01-13.95-8.81-34.11,7.56-36.29c16.37-2.18,32.63,15.25,29.27,31.38
						C675.21,711.89,654.75,714.62,641.74,700.67z"/>
					<path class="st2" d="M613.31,630.92c-1.49-14.09,10.53-23.68,21.64-17.26c11.11,6.42,12.98,24.04,3.36,31.71
						C628.7,653.04,614.8,645.01,613.31,630.92z"/>
					<path class="st2" d="M612.72,596.11c-7.46-6.16-6.74-16.65,1.29-18.88c8.03-2.23,17.35,5.47,16.78,13.86
						S620.17,602.28,612.72,596.11z"/>
				</g>
			</g>
		</g>
		<g>
			<path id="inc_00000152972141772840996730000017937411908888297401_" class="st2" d="M299.7,647.88
				c14.68,5.09,30.74-1.8,35.83-15.38c5.1-13.58-2.68-28.74-17.36-33.84c-14.68-5.09-30.74,1.8-35.83,15.38
				C277.24,627.63,285.02,642.79,299.7,647.88L299.7,647.88z"/>
			<g>
				<g>
					<path class="st2" d="M165.33,740.43c11.47-11.84,13.53-29.59,12.53-39.15c15.37,12.46,46.22,4.08,48.99-18.3
						c8.54,6.87,22.61,6.23,30.7-6.09c4.46-6.79,4.55-13.45,3.85-17.84c-0.26-1.62,1.63-2.69,2.91-1.66l24.06,19.5
						c1.91,1.55,2.7,4.11,1.98,6.46v0c-3.64,15.79-17.05,28.32-33.62,34.95c-19.11,7.65-45.89,13.3-62.9,14.45
						c-15.89,1.08-27.65,12.17-26.57,27.63c1.39,19.99,25.9,30.74,44.6,18.52c3.22-2.11,5.74-4.63,7.51-7.5
						c1.19-1.92,3.71-2.47,5.39-1.1l28.42,23.03c1.51,1.22,1.7,3.49,0.43,5.07c-4.09,5.12-9.32,9.57-15.38,13.69
						c-47.08,31.96-115.71-5.62-113.91-60.75C136.8,756.41,152.81,753.35,165.33,740.43z"/>
					<line class="st2" x1="273.2" y1="709.12" x2="273.42" y2="709.3"/>
				</g>
				<g>
					<path class="st2" d="M128.13,700.95c12.79-14.99,33.98-13.04,38.15,3.51c4.16,16.55-11.83,35.29-28.78,33.73
						C120.54,736.62,115.33,715.94,128.13,700.95z"/>
					<path class="st2" d="M196.4,663.57c14.29-3.19,25.55,8.03,20.26,20.19c-5.29,12.16-23.15,16.15-32.16,7.17
						C175.5,681.96,182.11,666.76,196.4,663.57z"/>
					<path class="st2" d="M232.07,658.88c5.45-8.38,16.3-8.87,19.54-0.89s-3.58,18.45-12.26,18.85
						C230.66,677.23,226.62,667.26,232.07,658.88z"/>
				</g>
			</g>
		</g>
		<g>
			<path id="inc_00000152951562831567104440000001860983029941397430_" class="st2" d="M331.08,331.62
				c-11.87,13.71-11.35,34.1,1.17,45.51c12.52,11.4,32.33,9.53,44.2-4.18c11.87-13.71,11.35-34.1-1.17-45.51
				C362.76,316.04,342.95,317.91,331.08,331.62L331.08,331.62z"/>
			<g>
				<g>
					<path class="st2" d="M288.9,145.89c7.87,17.57,26.22,27.47,37.02,30.52c-20.16,11.27-24.43,48.34-1.36,61.03
						c-11.14,6.29-16.54,21.82-6.68,35.91c5.43,7.77,12.61,10.76,17.68,11.89c1.87,0.42,2.21,2.94,0.54,3.87l-31.56,17.64
						c-2.51,1.4-5.62,1.15-7.87-0.65l0,0c-15.54-10.78-23.32-30.74-23.34-51.58c-0.02-24.03,5.45-55.51,11.55-74.45
						c5.71-17.7-1.23-35.24-18.46-40.76c-22.28-7.14-44.54,14.78-39.38,40.34c0.89,4.4,2.54,8.23,4.88,11.38
						c1.57,2.12,1.07,5.09-1.13,6.32l-37.27,20.84c-1.98,1.11-4.52,0.34-5.69-1.72c-3.78-6.65-6.34-14.25-8.18-22.6
						c-14.28-64.87,56.17-123.01,115.16-97.21C283.92,108.04,280.31,126.72,288.9,145.89z"/>
					<line class="st2" x1="276.15" y1="276.39" x2="275.86" y2="276.55"/>
				</g>
				<g>
					<path class="st2" d="M347.81,122.64c10.72,20.36-0.57,42.49-20.31,39.84c-19.74-2.65-33.14-28.09-24.11-45.8
						C312.41,98.97,337.09,102.29,347.81,122.64z"/>
					<path class="st2" d="M358.77,212.84c-2.73,16.87-19.76,24.22-30.66,13.23s-7.48-32.09,6.14-37.97
						C347.88,182.22,361.5,195.96,358.77,212.84z"/>
					<path class="st2" d="M348.43,253.53c6.72,9.54,2.57,21.52-7.49,21.57s-18.46-11.87-15.13-21.45S341.7,244,348.43,253.53z"/>
				</g>
			</g>
		</g>
		<g>
			<path id="inc_00000020357348050481996980000006766905163390451604_" class="st2" d="M542.66,311.47
				c-12.7-4.44-26.61,1.5-31.05,13.25c-4.44,11.75,2.27,24.89,14.96,29.32c12.7,4.44,26.61-1.5,31.05-13.25
				C562.06,329.05,555.35,315.91,542.66,311.47L542.66,311.47z"/>
			<g>
				<g>
					<path class="st2" d="M659.15,231.63c-9.96,10.23-11.77,25.58-10.92,33.86c-13.28-10.81-39.99-3.63-42.44,15.74
						c-7.38-5.96-19.56-5.44-26.58,5.21c-3.87,5.87-3.97,11.63-3.36,15.44c0.22,1.4-1.42,2.33-2.52,1.43l-20.79-16.93
						c-1.65-1.35-2.33-3.56-1.7-5.6l0,0c3.18-13.66,14.82-24.48,29.17-30.18c16.56-6.58,39.75-11.42,54.47-12.38
						c13.76-0.9,23.95-10.48,23.05-23.87c-1.17-17.31-22.36-26.66-38.57-16.11c-2.79,1.82-4.97,4-6.51,6.48
						c-1.04,1.66-3.22,2.13-4.67,0.95l-24.55-19.99c-1.3-1.06-1.47-3.02-0.37-4.39c3.55-4.43,8.09-8.27,13.34-11.82
						c40.81-27.57,100.14,5.09,98.48,52.81C683.87,217.86,670.01,220.47,659.15,231.63z"/>
					<line class="st2" x1="565.72" y1="258.52" x2="565.52" y2="258.36"/>
				</g>
				<g>
					<path class="st2" d="M691.27,265.88c-11.1,12.95-29.44,11.22-33.01-3.11c-3.57-14.33,10.31-30.52,24.98-29.14
						S702.37,252.93,691.27,265.88z"/>
					<path class="st2" d="M632.1,298.09c-12.38,2.73-22.1-7-17.5-17.52c4.6-10.52,20.07-13.93,27.85-6.14
						C650.23,282.22,644.48,295.36,632.1,298.09z"/>
					<path class="st2" d="M601.22,302.09c-4.73,7.24-14.13,7.65-16.91,0.74c-2.78-6.91,3.14-15.96,10.65-16.29
						C602.48,286.2,605.96,294.84,601.22,302.09z"/>
				</g>
			</g>
		</g>
		<g>
			<path id="inc_00000079459506560351929780000010015125576419877034_" class="st2" d="M793.72,482.2
				c-6.6,9.54-4.85,22.47,3.9,28.85c8.75,6.38,21.21,3.81,27.81-5.73c6.6-9.54,4.85-22.47-3.9-28.85
				C812.78,470.09,800.32,472.65,793.72,482.2L793.72,482.2z"/>
			<g>
				<g>
					<path class="st2" d="M754.01,367.03c6.22,10.62,18.58,15.64,25.66,16.84c-12.03,8.57-12.18,32.43,3.37,38.9
						c-6.65,4.77-9,15.02-1.76,23.3c3.99,4.56,8.76,5.96,12.07,6.33c1.22,0.14,1.61,1.71,0.61,2.42l-18.84,13.41
						c-1.5,1.07-3.49,1.12-5.05,0.13l0,0c-10.63-5.78-16.96-17.93-18.42-31.17c-1.68-15.28-0.39-35.67,2.18-48.13
						c2.4-11.65-3.23-22.32-14.57-24.64c-14.66-2.99-27.29,12.49-22.23,28.38c0.87,2.74,2.19,5.05,3.89,6.9
						c1.14,1.24,1.03,3.16-0.28,4.1l-22.25,15.84c-1.18,0.84-2.85,0.53-3.74-0.7c-2.87-3.97-5.02-8.62-6.77-13.8
						c-13.58-40.25,27.17-82.11,66.47-69.8C748.22,343.32,747.22,355.44,754.01,367.03z"/>
					<line class="st2" x1="754.97" y1="450.89" x2="754.79" y2="451.02"/>
				</g>
				<g>
					<path class="st2" d="M789.85,348.16c8.23,12.2,2.59,27.05-10.15,26.74s-23.02-15.56-18.51-27.45S781.62,335.97,789.85,348.16z"
						/>
					<path class="st2" d="M803.08,404.75c-0.56,10.92-10.88,16.77-18.58,10.54s-6.99-19.88,1.27-24.57S803.65,393.83,803.08,404.75z
						"/>
					<path class="st2" d="M799.33,431.34c4.94,5.6,3.13,13.5-3.26,14.23s-12.56-6.26-11.11-12.59S794.39,425.75,799.33,431.34z"/>
				</g>
			</g>
		</g>
	</g>
</g>
<g id="TEXT">
</g>
<g id="QR_code">
</g>
</svg>
