<svg version="1.1" viewBox="0.0 0.0 1227.4645669291338 620.3018372703413" fill="none" stroke="none" stroke-linecap="square" stroke-miterlimit="10" xmlns:xlink="http://www.w3.org/1999/xlink" xmlns="http://www.w3.org/2000/svg"><clipPath id="p.0"><path d="m0 0l1227.4646 0l0 620.3018l-1227.4646 0l0 -620.3018z" clip-rule="nonzero"/></clipPath><g clip-path="url(#p.0)"><path fill="#000000" fill-opacity="0.0" d="m0 0l1227.4646 0l0 620.3018l-1227.4646 0z" fill-rule="evenodd"/><path fill="#07154b" d="m16.61155 14.601049l1200.6929 0l0 596.31494l-1200.6929 0z" fill-rule="evenodd"/><path stroke="#ffffff" stroke-width="1.0" stroke-linejoin="round" stroke-linecap="butt" d="m16.61155 14.601049l1200.6929 0l0 596.31494l-1200.6929 0z" fill-rule="evenodd"/><path fill="#000000" fill-opacity="0.0" d="m616.958 14.601049l0 596.31494" fill-rule="evenodd"/><path stroke="#ffffff" stroke-width="1.0" stroke-linejoin="round" stroke-linecap="butt" stroke-dasharray="1.0,3.0" d="m616.958 14.601049l0 596.31494" fill-rule="evenodd"/><path fill="#000000" fill-opacity="0.0" d="m46.936764 294.2757l0 0c0 -3.276062 2.6557922 -5.9318542 5.931877 -5.9318542l106.05751 0c1.5732269 0 3.0820312 0.6249695 4.1944733 1.7373962c1.112442 1.1124573 1.7373962 2.6212463 1.7373962 4.194458l0 23.726807c0 3.2760925 -2.6557922 5.931885 -5.9318695 5.931885l-106.05751 0c-3.276085 0 -5.931877 -2.6557922 -5.931877 -5.931885z" fill-rule="evenodd"/><path stroke="#8d3aed" stroke-width="1.0" stroke-linejoin="round" stroke-linecap="butt" d="m46.936764 294.2757l0 0c0 -3.276062 2.6557922 -5.9318542 5.931877 -5.9318542l106.05751 0c1.5732269 0 3.0820312 0.6249695 4.1944733 1.7373962c1.112442 1.1124573 1.7373962 2.6212463 1.7373962 4.194458l0 23.726807c0 3.2760925 -2.6557922 5.931885 -5.9318695 5.931885l-106.05751 0c-3.276085 0 -5.931877 -2.6557922 -5.931877 -5.931885z" fill-rule="evenodd"/><path fill="#ffffff" d="m67.8682 310.65912l-3.4375 -3.8125l0 3.8125l-1.09375 0l0 -8.359375l1.09375 0l0 3.875l3.453125 -3.875l1.390625 0l-3.796875 4.1875l3.828125 4.171875l-1.4375 0zm3.2192993 -7.640625q-0.3125 0 -0.53125 -0.21875q-0.203125 -0.21875 -0.203125 -0.53125q0 -0.3125 0.203125 -0.515625q0.21875 -0.21875 0.53125 -0.21875q0.296875 0 0.5 0.21875q0.21875 0.203125 0.21875 0.515625q0 0.3125 -0.21875 0.53125q-0.203125 0.21875 -0.5 0.21875zm0.53125 1.0625l0 6.578125l-1.09375 0l0 -6.578125l1.09375 0zm1.4520264 3.265625q0 -1.0 0.40625 -1.765625q0.40625 -0.765625 1.125 -1.1875q0.71875 -0.421875 1.59375 -0.421875q0.859375 0 1.484375 0.375q0.640625 0.375 0.953125 0.9375l0 -1.203125l1.109375 0l0 6.578125l-1.109375 0l0 -1.21875q-0.3125 0.578125 -0.96875 0.953125q-0.640625 0.375 -1.484375 0.375q-0.875 0 -1.59375 -0.421875q-0.703125 -0.4375 -1.109375 -1.21875q-0.40625 -0.78125 -0.40625 -1.78125zm5.5625 0.015625q0 -0.75 -0.296875 -1.296875q-0.296875 -0.546875 -0.8125 -0.84375q-0.5 -0.296875 -1.109375 -0.296875q-0.625 0 -1.125 0.296875q-0.5 0.28125 -0.8125 0.828125q-0.296875 0.546875 -0.296875 1.296875q0 0.75 0.296875 1.3125q0.3125 0.5625 0.8125 0.859375q0.5 0.28125 1.125 0.28125q0.609375 0 1.109375 -0.28125q0.515625 -0.296875 0.8125 -0.859375q0.296875 -0.5625 0.296875 -1.296875zm6.1589355 -3.40625q1.203125 0 1.9375 0.734375q0.75 0.71875 0.75 2.09375l0 3.875l-1.078125 0l0 -3.71875q0 -0.984375 -0.5 -1.5q-0.484375 -0.53125 -1.328125 -0.53125q-0.875 0 -1.390625 0.546875q-0.5 0.53125 -0.5 1.5625l0 3.640625l-1.09375 0l0 -6.578125l1.09375 0l0 0.9375q0.328125 -0.5 0.875 -0.78125q0.5625 -0.28125 1.234375 -0.28125zm4.6488037 -1.65625l1.203125 0l-1.140625 2.71875l-0.765625 0l0.703125 -2.71875zm4.7842712 8.46875q-0.75 0 -1.359375 -0.25q-0.59375 -0.265625 -0.953125 -0.71875q-0.34375 -0.46875 -0.375 -1.078125l1.125 0q0.046875 0.5 0.453125 0.8125q0.421875 0.3125 1.09375 0.3125q0.625 0 0.984375 -0.28125q0.359375 -0.28125 0.359375 -0.6875q0 -0.4375 -0.390625 -0.640625q-0.375 -0.21875 -1.171875 -0.421875q-0.734375 -0.1875 -1.203125 -0.390625q-0.453125 -0.203125 -0.78125 -0.59375q-0.328125 -0.390625 -0.328125 -1.015625q0 -0.515625 0.296875 -0.921875q0.296875 -0.421875 0.84375 -0.671875q0.5625 -0.25 1.265625 -0.25q1.09375 0 1.765625 0.5625q0.671875 0.546875 0.71875 1.5l-1.09375 0q-0.03125 -0.515625 -0.421875 -0.828125q-0.375 -0.3125 -1.0 -0.3125q-0.59375 0 -0.953125 0.265625q-0.34375 0.25 -0.34375 0.65625q0 0.3125 0.203125 0.53125q0.21875 0.203125 0.53125 0.328125q0.328125 0.125 0.890625 0.28125q0.703125 0.203125 1.140625 0.390625q0.453125 0.1875 0.765625 0.5625q0.328125 0.359375 0.34375 0.96875q0 0.53125 -0.3125 0.96875q-0.296875 0.421875 -0.84375 0.671875q-0.546875 0.25 -1.25 0.25zm11.327438 -4.421875q0.453125 0.078125 0.828125 0.375q0.390625 0.296875 0.609375 0.75q0.21875 0.4375 0.21875 0.9375q0 0.640625 -0.328125 1.15625q-0.3125 0.5 -0.9375 0.796875q-0.609375 0.296875 -1.453125 0.296875l-3.125 0l0 -8.359375l3.0 0q0.859375 0 1.453125 0.28125q0.59375 0.28125 0.890625 0.765625q0.3125 0.46875 0.3125 1.078125q0 0.734375 -0.40625 1.21875q-0.40625 0.484375 -1.0625 0.703125zm-3.09375 -0.4375l1.84375 0q0.765625 0 1.171875 -0.359375q0.421875 -0.359375 0.421875 -1.0q0 -0.640625 -0.421875 -1.0q-0.40625 -0.359375 -1.203125 -0.359375l-1.8125 0l0 2.71875zm1.9375 3.84375q0.8125 0 1.265625 -0.375q0.453125 -0.390625 0.453125 -1.078125q0 -0.6875 -0.484375 -1.09375q-0.46875 -0.40625 -1.28125 -0.40625l-1.890625 0l0 2.953125l1.9375 0zm3.9185486 -2.40625q0 -1.0 0.40625 -1.765625q0.40625 -0.765625 1.125 -1.1875q0.71875 -0.421875 1.59375 -0.421875q0.859375 0 1.484375 0.375q0.640625 0.375 0.953125 0.9375l0 -1.203125l1.109375 0l0 6.578125l-1.109375 0l0 -1.21875q-0.3125 0.578125 -0.96875 0.953125q-0.640625 0.375 -1.484375 0.375q-0.875 0 -1.59375 -0.421875q-0.703125 -0.4375 -1.109375 -1.21875q-0.40625 -0.78125 -0.40625 -1.78125zm5.5625 0.015625q0 -0.75 -0.296875 -1.296875q-0.296875 -0.546875 -0.8125 -0.84375q-0.5 -0.296875 -1.109375 -0.296875q-0.625 0 -1.125 0.296875q-0.5 0.28125 -0.8125 0.828125q-0.296875 0.546875 -0.296875 1.296875q0 0.75 0.296875 1.3125q0.3125 0.5625 0.8125 0.859375q0.5 0.28125 1.125 0.28125q0.609375 0 1.109375 -0.28125q0.515625 -0.296875 0.8125 -0.859375q0.296875 -0.5625 0.296875 -1.296875zm4.0495605 -5.578125l0 8.875l-1.09375 0l0 -8.875l1.09375 0zm1.4520264 5.5625q0 -1.0 0.40625 -1.765625q0.40625 -0.765625 1.125 -1.1875q0.71875 -0.421875 1.59375 -0.421875q0.859375 0 1.484375 0.375q0.640625 0.375 0.953125 0.9375l0 -1.203125l1.109375 0l0 6.578125l-1.109375 0l0 -1.21875q-0.3125 0.578125 -0.96875 0.953125q-0.640625 0.375 -1.484375 0.375q-0.875 0 -1.59375 -0.421875q-0.703125 -0.4375 -1.109375 -1.21875q-0.40625 -0.78125 -0.40625 -1.78125zm5.5625 0.015625q0 -0.75 -0.296875 -1.296875q-0.296875 -0.546875 -0.8125 -0.84375q-0.5 -0.296875 -1.109375 -0.296875q-0.625 0 -1.125 0.296875q-0.5 0.28125 -0.8125 0.828125q-0.296875 0.546875 -0.296875 1.296875q0 0.75 0.296875 1.3125q0.3125 0.5625 0.8125 0.859375q0.5 0.28125 1.125 0.28125q0.609375 0 1.109375 -0.28125q0.515625 -0.296875 0.8125 -0.859375q0.296875 -0.5625 0.296875 -1.296875zm6.158943 -3.40625q1.203125 0 1.9375 0.734375q0.75 0.71875 0.75 2.09375l0 3.875l-1.078125 0l0 -3.71875q0 -0.984375 -0.5 -1.5q-0.484375 -0.53125 -1.328125 -0.53125q-0.875 0 -1.390625 0.546875q-0.5 0.53125 -0.5 1.5625l0 3.640625l-1.0937576 0l0 -6.578125l1.0937576 0l0 0.9375q0.328125 -0.5 0.875 -0.78125q0.5625 -0.28125 1.234375 -0.28125zm4.0706787 3.40625q0 -1.015625 0.40625 -1.78125q0.40625 -0.765625 1.125 -1.1875q0.734375 -0.421875 1.671875 -0.421875q1.21875 0 2.0 0.59375q0.78125 0.578125 1.03125 1.625l-1.171875 0q-0.171875 -0.59375 -0.65625 -0.9375q-0.484375 -0.359375 -1.203125 -0.359375q-0.9375 0 -1.515625 0.65625q-0.578125 0.640625 -0.578125 1.8125q0 1.1875 0.578125 1.84375q0.578125 0.640625 1.515625 0.640625q0.71875 0 1.203125 -0.328125q0.484375 -0.34375 0.65625 -0.96875l1.171875 0q-0.265625 1.0 -1.0625 1.609375q-0.78125 0.609375 -1.96875 0.609375q-0.9375 0 -1.671875 -0.421875q-0.71875 -0.421875 -1.125 -1.1875q-0.40625 -0.765625 -0.40625 -1.796875zm13.690308 -0.25q0 0.3125 -0.03125 0.671875l-5.265625 0q0.0625 0.96875 0.671875 1.515625q0.609375 0.546875 1.46875 0.546875q0.703125 0 1.171875 -0.328125q0.484375 -0.328125 0.671875 -0.890625l1.1875 0q-0.265625 0.953125 -1.0625 1.546875q-0.796875 0.59375 -1.96875 0.59375q-0.9375 0 -1.671875 -0.421875q-0.734375 -0.421875 -1.15625 -1.1875q-0.421875 -0.78125 -0.421875 -1.796875q0 -1.015625 0.40625 -1.78125q0.40625 -0.78125 1.140625 -1.1875q0.75 -0.421875 1.703125 -0.421875q0.9375 0 1.65625 0.40625q0.71875 0.40625 1.109375 1.125q0.390625 0.71875 0.390625 1.609375zm-1.125 -0.21875q0 -0.625 -0.28125 -1.078125q-0.265625 -0.453125 -0.75 -0.6875q-0.46875 -0.234375 -1.046875 -0.234375q-0.828125 0 -1.40625 0.53125q-0.578125 0.53125 -0.671875 1.46875l4.15625 0z" fill-rule="nonzero"/><path fill="#000000" fill-opacity="0.0" d="m251.38321 482.47803l0 0c0 -9.515137 7.7135315 -17.228699 17.228699 -17.228699l178.89694 0c4.569336 0 8.951508 1.8151855 12.182526 5.046173c3.2309875 3.231018 5.0461426 7.6131897 5.0461426 12.182526l0 68.91272c0 9.515137 -7.7135315 17.228699 -17.228668 17.228699l-178.89694 0c-9.515167 0 -17.228699 -7.713562 -17.228699 -17.228699z" fill-rule="evenodd"/><path stroke="#8d3aed" stroke-width="1.0" stroke-linejoin="round" stroke-linecap="butt" d="m251.38321 482.47803l0 0c0 -9.515137 7.7135315 -17.228699 17.228699 -17.228699l178.89694 0c4.569336 0 8.951508 1.8151855 12.182526 5.046173c3.2309875 3.231018 5.0461426 7.6131897 5.0461426 12.182526l0 68.91272c0 9.515137 -7.7135315 17.228699 -17.228668 17.228699l-178.89694 0c-9.515167 0 -17.228699 -7.713562 -17.228699 -17.228699z" fill-rule="evenodd"/><path fill="#ffffff" d="m294.5822 507.1569q3.34375 0 5.78125 1.25q2.453125 1.234375 3.75 3.5625q1.3125 2.3124695 1.3125 5.4530945q0 3.140625 -1.3125 5.4375q-1.296875 2.296875 -3.75 3.515625q-2.4375 1.21875 -5.78125 1.21875l-6.359375 0l0 -20.43747l6.359375 0zm0 18.234344q3.953125 0 6.03125 -2.09375q2.09375 -2.09375 2.09375 -5.875q0 -3.8125 -2.109375 -5.9530945q-2.09375 -2.140625 -6.015625 -2.140625l-3.703125 0l0 16.06247l3.703125 0zm13.37558 -5.890625q0 -2.46875 0.984375 -4.328125q1.0 -1.859375 2.75 -2.875q1.75 -1.0312195 3.890625 -1.0312195q2.109375 0 3.65625 0.9062195q1.5625 0.90625 2.328125 2.28125l0 -2.9374695l2.6875 0l0 16.078094l-2.6875 0l0 -2.984375q-0.796875 1.40625 -2.375 2.328125q-1.5625 0.921875 -3.640625 0.921875q-2.140625 0 -3.875 -1.046875q-1.734375 -1.0625 -2.734375 -2.96875q-0.984375 -1.90625 -0.984375 -4.34375zm13.609375 0.03125q0 -1.828125 -0.734375 -3.171875q-0.734375 -1.34375 -1.984375 -2.0625q-1.25 -0.71875 -2.734375 -0.71875q-1.5 0 -2.734375 0.703125q-1.234375 0.703125 -1.96875 2.0625q-0.734375 1.34375 -0.734375 3.15625q0 1.84375 0.734375 3.21875q0.734375 1.359375 1.96875 2.078125q1.234375 0.71875 2.734375 0.71875q1.484375 0 2.734375 -0.71875q1.25 -0.71875 1.984375 -2.078125q0.734375 -1.375 0.734375 -3.1875zm10.466431 -5.8125l0 9.46875q0 1.1875 0.5 1.671875q0.5 0.46875 1.734375 0.46875l1.953125 0l0 2.265625l-2.40625 0q-2.21875 0 -3.34375 -1.015625q-1.109375 -1.03125 -1.109375 -3.390625l0 -9.46875l-2.078125 0l0 -2.2030945l2.078125 0l0 -4.046875l2.671875 0l0 4.046875l4.1875 0l0 2.2030945l-4.1875 0zm6.4254456 5.78125q0 -2.46875 0.984375 -4.328125q1.0 -1.859375 2.75 -2.875q1.75 -1.0312195 3.890625 -1.0312195q2.109375 0 3.65625 0.9062195q1.5625 0.90625 2.328125 2.28125l0 -2.9374695l2.6875 0l0 16.078094l-2.6875 0l0 -2.984375q-0.796875 1.40625 -2.375 2.328125q-1.5625 0.921875 -3.640625 0.921875q-2.140625 0 -3.875 -1.046875q-1.734375 -1.0625 -2.734375 -2.96875q-0.984375 -1.90625 -0.984375 -4.34375zm13.609375 0.03125q0 -1.828125 -0.734375 -3.171875q-0.734375 -1.34375 -1.984375 -2.0625q-1.25 -0.71875 -2.734375 -0.71875q-1.5 0 -2.734375 0.703125q-1.234375 0.703125 -1.96875 2.0625q-0.734375 1.34375 -0.734375 3.15625q0 1.84375 0.734375 3.21875q0.734375 1.359375 1.96875 2.078125q1.234375 0.71875 2.734375 0.71875q1.484375 0 2.734375 -0.71875q1.25 -0.71875 1.984375 -2.078125q0.734375 -1.375 0.734375 -3.1875zm9.872681 -5.015625q0.828125 -1.4375 2.40625 -2.34375q1.59375 -0.9062195 3.609375 -0.9062195q2.171875 0 3.90625 1.0312195q1.734375 1.015625 2.71875 2.875q1.0 1.859375 1.0 4.328125q0 2.4375 -1.0 4.34375q-0.984375 1.90625 -2.734375 2.96875q-1.75 1.046875 -3.890625 1.046875q-2.078125 0 -3.65625 -0.90625q-1.5625 -0.90625 -2.359375 -2.328125l0 2.96875l-2.65625 0l0 -21.703094l2.65625 0l0 8.6249695zm10.921875 4.984375q0 -1.8125 -0.734375 -3.15625q-0.734375 -1.359375 -1.984375 -2.0625q-1.25 -0.703125 -2.75 -0.703125q-1.453125 0 -2.703125 0.71875q-1.25 0.71875 -2.0 2.078125q-0.75 1.359375 -0.75 3.15625q0 1.8125 0.75 3.1875q0.75 1.359375 2.0 2.078125q1.25 0.71875 2.703125 0.71875q1.5 0 2.75 -0.71875q1.25 -0.71875 1.984375 -2.078125q0.734375 -1.375 0.734375 -3.21875zm5.2476807 0q0 -2.46875 0.984375 -4.328125q1.0 -1.859375 2.75 -2.875q1.75 -1.0312195 3.890625 -1.0312195q2.109375 0 3.65625 0.9062195q1.5625 0.90625 2.328125 2.28125l0 -2.9374695l2.6875 0l0 16.078094l-2.6875 0l0 -2.984375q-0.796875 1.40625 -2.375 2.328125q-1.5625 0.921875 -3.640625 0.921875q-2.140625 0 -3.875 -1.046875q-1.734375 -1.0625 -2.734375 -2.96875q-0.984375 -1.90625 -0.984375 -4.34375zm13.609375 0.03125q0 -1.828125 -0.734375 -3.171875q-0.734375 -1.34375 -1.984375 -2.0625q-1.25 -0.71875 -2.734375 -0.71875q-1.5 0 -2.734375 0.703125q-1.234375 0.703125 -1.96875 2.0625q-0.734375 1.34375 -0.734375 3.15625q0 1.84375 0.734375 3.21875q0.734375 1.359375 1.96875 2.078125q1.234375 0.71875 2.734375 0.71875q1.484375 0 2.734375 -0.71875q1.25 -0.71875 1.984375 -2.078125q0.734375 -1.375 0.734375 -3.1875zm12.903931 8.328125q-1.859375 0 -3.328125 -0.625q-1.453125 -0.640625 -2.3125 -1.765625q-0.84375 -1.125 -0.9375 -2.59375l2.765625 0q0.109375 1.203125 1.125 1.96875q1.015625 0.75 2.65625 0.75q1.515625 0 2.390625 -0.671875q0.890625 -0.671875 0.890625 -1.703125q0 -1.046875 -0.9375 -1.5625q-0.9375 -0.515625 -2.90625 -1.015625q-1.78125 -0.46875 -2.921875 -0.953125q-1.125 -0.484375 -1.9375 -1.4375q-0.796875 -0.953125 -0.796875 -2.5q0 -1.234375 0.734375 -2.265625q0.734375 -1.03125 2.078125 -1.6249695q1.34375 -0.59375 3.078125 -0.59375q2.671875 0 4.3125 1.3437195q1.640625 1.34375 1.765625 3.6875l-2.671875 0q-0.09375 -1.25 -1.015625 -2.015625q-0.921875 -0.765625 -2.46875 -0.765625q-1.4375 0 -2.296875 0.625q-0.84375 0.609375 -0.84375 1.609375q0 0.78125 0.5 1.296875q0.515625 0.515625 1.296875 0.828125q0.78125 0.296875 2.15625 0.6875q1.734375 0.46875 2.8125 0.921875q1.09375 0.453125 1.859375 1.359375q0.78125 0.90625 0.8125 2.375q0 1.328125 -0.734375 2.390625q-0.734375 1.046875 -2.078125 1.65625q-1.328125 0.59375 -3.046875 0.59375zm24.278015 -8.921875q0 0.765625 -0.09375 1.625l-12.84375 0q0.15625 2.375 1.625 3.703125q1.484375 1.328125 3.59375 1.328125q1.734375 0 2.890625 -0.796875q1.15625 -0.8125 1.625 -2.15625l2.875 0q-0.640625 2.3125 -2.578125 3.765625q-1.9375 1.453125 -4.8125 1.453125q-2.28125 0 -4.09375 -1.015625q-1.796875 -1.03125 -2.828125 -2.921875q-1.015625 -1.90625 -1.015625 -4.390625q0 -2.5 0.984375 -4.375q1.0 -1.875 2.796875 -2.875q1.8125 -1.0155945 4.15625 -1.0155945q2.296875 0 4.046875 0.9999695q1.765625 0.984375 2.71875 2.734375q0.953125 1.75 0.953125 3.9375zm-2.75 -0.546875q0 -1.53125 -0.6875 -2.625q-0.671875 -1.109375 -1.828125 -1.671875q-1.15625 -0.578125 -2.5625 -0.578125q-2.03125 0 -3.453125 1.296875q-1.421875 1.28125 -1.625 3.578125l10.15625 0z" fill-rule="nonzero"/><path fill="#000000" fill-opacity="0.0" d="m46.93673 335.4017l0 0c0 -3.2760925 2.6557922 -5.931885 5.931877 -5.931885l106.05751 0c1.5732269 0 3.082016 0.6249695 4.1944733 1.7373962c1.112442 1.1124573 1.7373962 2.6212463 1.7373962 4.1944885l0 23.726776c0 3.2760925 -2.6557922 5.931885 -5.9318695 5.931885l-106.05751 0c-3.276085 0 -5.931877 -2.6557922 -5.931877 -5.931885z" fill-rule="evenodd"/><path stroke="#8d3aed" stroke-width="1.0" stroke-linejoin="round" stroke-linecap="butt" d="m46.93673 335.4017l0 0c0 -3.2760925 2.6557922 -5.931885 5.931877 -5.931885l106.05751 0c1.5732269 0 3.082016 0.6249695 4.1944733 1.7373962c1.112442 1.1124573 1.7373962 2.6212463 1.7373962 4.1944885l0 23.726776c0 3.2760925 -2.6557922 5.931885 -5.9318695 5.931885l-106.05751 0c-3.276085 0 -5.931877 -2.6557922 -5.931877 -5.931885z" fill-rule="evenodd"/><path fill="#ffffff" d="m83.17089 343.42572l-3.15625 8.359375l-1.265625 0l-3.15625 -8.359375l1.15625 0l2.640625 7.203125l2.625 -7.203125l1.15625 0zm0.78393555 5.046875q0 -1.0 0.40625 -1.765625q0.40625 -0.765625 1.125 -1.1875q0.71875 -0.421875 1.59375 -0.421875q0.859375 0 1.484375 0.375q0.640625 0.375 0.953125 0.9375l0 -1.203125l1.109375 0l0 6.578125l-1.109375 0l0 -1.21875q-0.3125 0.578125 -0.96875 0.953125q-0.640625 0.375 -1.484375 0.375q-0.875 0 -1.59375 -0.421875q-0.703125 -0.4375 -1.109375 -1.21875q-0.40625 -0.78125 -0.40625 -1.78125zm5.5625 0.015625q0 -0.75 -0.296875 -1.296875q-0.296875 -0.546875 -0.8125 -0.84375q-0.5 -0.296875 -1.109375 -0.296875q-0.625 0 -1.125 0.296875q-0.5 0.28125 -0.8125 0.828125q-0.296875 0.546875 -0.296875 1.296875q0 0.75 0.296875 1.3125q0.3125 0.5625 0.8125 0.859375q0.5 0.28125 1.125 0.28125q0.609375 0 1.109375 -0.28125q0.515625 -0.296875 0.8125 -0.859375q0.296875 -0.5625 0.296875 -1.296875zm4.0495605 -5.578125l0 8.875l-1.09375 0l0 -8.875l1.09375 0zm2.4207764 1.234375q-0.3125 0 -0.53125 -0.21875q-0.203125 -0.21875 -0.203125 -0.53125q0 -0.3125 0.203125 -0.515625q0.21875 -0.21875 0.53125 -0.21875q0.296875 0 0.5 0.21875q0.21875 0.203125 0.21875 0.515625q0 0.3125 -0.21875 0.53125q-0.203125 0.21875 -0.5 0.21875zm0.53125 1.0625l0 6.578125l-1.09375 0l0 -6.578125l1.09375 0zm1.4520264 3.265625q0 -1.0 0.40625 -1.765625q0.40625 -0.765625 1.125 -1.1875q0.71875 -0.421875 1.59375 -0.421875q0.78125 0 1.4375 0.359375q0.65625 0.359375 1.0 0.921875l0 -3.46875l1.109375 0l0 8.875l-1.109375 0l0 -1.234375q-0.3125 0.59375 -0.953125 0.96875q-0.640625 0.375 -1.484375 0.375q-0.875 0 -1.59375 -0.421875q-0.71875 -0.4375 -1.125 -1.21875q-0.40625 -0.78125 -0.40625 -1.78125zm5.5625 0.015625q0 -0.75 -0.296875 -1.296875q-0.296875 -0.546875 -0.8125 -0.84375q-0.5 -0.296875 -1.109375 -0.296875q-0.625 0 -1.125 0.296875q-0.5 0.28125 -0.8125 0.828125q-0.296875 0.546875 -0.296875 1.296875q0 0.75 0.296875 1.3125q0.3125 0.5625 0.8125 0.859375q0.5 0.28125 1.125 0.28125q0.609375 0 1.109375 -0.28125q0.515625 -0.296875 0.8125 -0.859375q0.296875 -0.5625 0.296875 -1.296875zm2.5495605 -0.015625q0 -1.0 0.40625 -1.765625q0.40625 -0.765625 1.125 -1.1875q0.71875 -0.421875 1.59375 -0.421875q0.859375 0 1.484375 0.375q0.640625 0.375 0.953125 0.9375l0 -1.203125l1.109375 0l0 6.578125l-1.109375 0l0 -1.21875q-0.3125 0.578125 -0.96875 0.953125q-0.640625 0.375 -1.484375 0.375q-0.875 0 -1.59375 -0.421875q-0.703125 -0.4375 -1.109375 -1.21875q-0.40625 -0.78125 -0.40625 -1.78125zm5.5625 0.015625q0 -0.75 -0.296875 -1.296875q-0.296875 -0.546875 -0.8125 -0.84375q-0.5 -0.296875 -1.109375 -0.296875q-0.625 0 -1.125 0.296875q-0.5 0.28125 -0.8125 0.828125q-0.296875 0.546875 -0.296875 1.296875q0 0.75 0.296875 1.3125q0.3125 0.5625 0.8125 0.859375q0.5 0.28125 1.125 0.28125q0.609375 0 1.109375 -0.28125q0.515625 -0.296875 0.8125 -0.859375q0.296875 -0.5625 0.296875 -1.296875zm4.2839355 -2.375l0 3.875q0 0.484375 0.203125 0.6875q0.203125 0.1875 0.71875 0.1875l0.796875 0l0 0.921875l-0.984375 0q-0.90625 0 -1.375 -0.421875q-0.453125 -0.421875 -0.453125 -1.375l0 -3.875l-0.84375 0l0 -0.90625l0.84375 0l0 -1.65625l1.09375 0l0 1.65625l1.71875 0l0 0.90625l-1.71875 0zm5.9149017 5.78125q-0.921875 0 -1.671875 -0.421875q-0.75 -0.421875 -1.1875 -1.1875q-0.421875 -0.78125 -0.421875 -1.796875q0 -1.015625 0.4375 -1.78125q0.4375 -0.78125 1.1875 -1.1875q0.765625 -0.421875 1.703125 -0.421875q0.9375 0 1.6875 0.421875q0.75 0.40625 1.1875 1.1875q0.4375 0.765625 0.4375 1.78125q0 1.015625 -0.453125 1.796875q-0.4375 0.765625 -1.203125 1.1875q-0.765625 0.421875 -1.703125 0.421875zm0 -0.96875q0.578125 0 1.09375 -0.265625q0.515625 -0.28125 0.828125 -0.828125q0.328125 -0.5625 0.328125 -1.34375q0 -0.796875 -0.3125 -1.34375q-0.3125 -0.5625 -0.8125 -0.828125q-0.5 -0.265625 -1.09375 -0.265625q-0.59375 0 -1.09375 0.265625q-0.5 0.265625 -0.8125 0.828125q-0.296875 0.546875 -0.296875 1.34375q0 0.796875 0.296875 1.359375q0.296875 0.546875 0.78125 0.8125q0.5 0.265625 1.09375 0.265625zm5.8988037 -4.65625q0.28124237 -0.5625 0.8124924 -0.875q0.546875 -0.3125 1.3125 -0.3125l0 1.140625l-0.28125 0q-1.8437424 0 -1.8437424 1.984375l0 3.578125l-1.09375 0l0 -6.578125l1.09375 0l0 1.0625zm5.710396 5.625q-0.75 0 -1.359375 -0.25q-0.59375 -0.265625 -0.953125 -0.71875q-0.34375 -0.46875 -0.375 -1.078125l1.125 0q0.046875 0.5 0.453125 0.8125q0.421875 0.3125 1.09375 0.3125q0.625 0 0.984375 -0.28125q0.359375 -0.28125 0.359375 -0.6875q0 -0.4375 -0.390625 -0.640625q-0.375 -0.21875 -1.171875 -0.421875q-0.734375 -0.1875 -1.203125 -0.390625q-0.453125 -0.203125 -0.78125 -0.59375q-0.328125 -0.390625 -0.328125 -1.015625q0 -0.515625 0.296875 -0.921875q0.296875 -0.421875 0.84375 -0.671875q0.5625 -0.25 1.265625 -0.25q1.09375 0 1.765625 0.5625q0.671875 0.546875 0.71875 1.5l-1.09375 0q-0.03125 -0.515625 -0.421875 -0.828125q-0.375 -0.3125 -1.0 -0.3125q-0.59375 0 -0.953125 0.265625q-0.34375 0.25 -0.34375 0.65625q0 0.3125 0.203125 0.53125q0.21875 0.203125 0.53125 0.328125q0.328125 0.125 0.890625 0.28125q0.703125 0.203125 1.140625 0.390625q0.453125 0.1875 0.765625 0.5625q0.328125 0.359375 0.34375 0.96875q0 0.53125 -0.3125 0.96875q-0.296875 0.421875 -0.84375 0.671875q-0.546875 0.25 -1.25 0.25z" fill-rule="nonzero"/><path fill="#000000" fill-opacity="0.0" d="m46.93673 376.52768l0 0c0 -3.2760925 2.6557922 -5.931885 5.931877 -5.931885l106.05751 0c1.5732269 0 3.082016 0.6249695 4.1944733 1.7374268c1.112442 1.1124268 1.7373962 2.6212158 1.7373962 4.194458l0 23.726807c0 3.276062 -2.6557922 5.9318542 -5.9318695 5.9318542l-106.05751 0c-3.276085 0 -5.931877 -2.6557922 -5.931877 -5.9318542z" fill-rule="evenodd"/><path stroke="#8d3aed" stroke-width="1.0" stroke-linejoin="round" stroke-linecap="butt" d="m46.93673 376.52768l0 0c0 -3.2760925 2.6557922 -5.931885 5.931877 -5.931885l106.05751 0c1.5732269 0 3.082016 0.6249695 4.1944733 1.7374268c1.112442 1.1124268 1.7373962 2.6212158 1.7373962 4.194458l0 23.726807c0 3.276062 -2.6557922 5.9318542 -5.9318695 5.9318542l-106.05751 0c-3.276085 0 -5.931877 -2.6557922 -5.931877 -5.9318542z" fill-rule="evenodd"/><path fill="#ffffff" d="m84.85131 385.9892q-0.828125 0 -1.484375 -0.28125q-0.65625 -0.296875 -1.03125 -0.8125q-0.359375 -0.53125 -0.375 -1.21875l1.15625 0q0.0625 0.59375 0.484375 1.0q0.4375 0.390625 1.25 0.390625q0.78125 0 1.21875 -0.390625q0.453125 -0.390625 0.453125 -1.0q0 -0.484375 -0.265625 -0.78125q-0.25 -0.296875 -0.65625 -0.453125q-0.390625 -0.15625 -1.0625 -0.328125q-0.828125 -0.21875 -1.328125 -0.4375q-0.5 -0.21875 -0.859375 -0.671875q-0.34375 -0.46875 -0.34375 -1.25q0 -0.6875 0.34375 -1.203125q0.34375 -0.53125 0.96875 -0.8125q0.640625 -0.296875 1.453125 -0.296875q1.1875 0 1.9375 0.59375q0.75 0.578125 0.84375 1.546875l-1.203125 0q-0.0625 -0.46875 -0.515625 -0.828125q-0.4375 -0.375 -1.171875 -0.375q-0.671875 0 -1.109375 0.359375q-0.4375 0.34375 -0.4375 0.984375q0 0.453125 0.25 0.75q0.265625 0.28125 0.640625 0.4375q0.390625 0.140625 1.0625 0.328125q0.828125 0.234375 1.328125 0.453125q0.515625 0.21875 0.875 0.6875q0.359375 0.453125 0.359375 1.25q0 0.609375 -0.328125 1.15625q-0.3125 0.53125 -0.953125 0.875q-0.640625 0.328125 -1.5 0.328125zm7.653427 -6.78125q0.75 0 1.34375 0.328125q0.59375 0.3125 0.9375 0.953125q0.34375 0.640625 0.34375 1.546875l0 3.875l-1.078125 0l0 -3.71875q0 -0.984375 -0.5 -1.5q-0.484375 -0.53125 -1.328125 -0.53125q-0.875 0 -1.390625 0.546875q-0.5 0.53125 -0.5 1.5625l0 3.640625l-1.09375 0l0 -8.875l1.09375 0l0 3.234375q0.328125 -0.5 0.890625 -0.78125q0.578125 -0.28125 1.28125 -0.28125zm4.0081787 3.390625q0 -1.0 0.40625 -1.765625q0.40625 -0.765625 1.125 -1.1875q0.71875 -0.421875 1.59375 -0.421875q0.859375 0 1.484375 0.375q0.640625 0.375 0.953125 0.9375l0 -1.203125l1.109375 0l0 6.578125l-1.109375 0l0 -1.21875q-0.3125 0.578125 -0.96875 0.953125q-0.640625 0.375 -1.484375 0.375q-0.875 0 -1.59375 -0.421875q-0.703125 -0.4375 -1.109375 -1.21875q-0.40625 -0.78125 -0.40625 -1.78125zm5.5625 0.015625q0 -0.75 -0.296875 -1.296875q-0.296875 -0.546875 -0.8125 -0.84375q-0.5 -0.296875 -1.109375 -0.296875q-0.625 0 -1.125 0.296875q-0.5 0.28125 -0.8125 0.828125q-0.296875 0.546875 -0.296875 1.296875q0 0.75 0.296875 1.3125q0.3125 0.5625 0.8125 0.859375q0.5 0.28125 1.125 0.28125q0.609375 0 1.109375 -0.28125q0.515625 -0.296875 0.8125 -0.859375q0.296875 -0.5625 0.296875 -1.296875zm11.721436 -3.28125l-2.0625 6.578125l-1.125 0l-1.578125 -5.21875l-1.578125 5.21875l-1.140625 0l-2.0625 -6.578125l1.125 0l1.5 5.515625l1.640625 -5.515625l1.109375 0l1.59375 5.53125l1.5 -5.53125l1.078125 0zm4.2775726 -0.125q1.203125 0 1.9375 0.734375q0.75 0.71875 0.75 2.09375l0 3.875l-1.078125 0l0 -3.71875q0 -0.984375 -0.5 -1.5q-0.484375 -0.53125 -1.328125 -0.53125q-0.875 0 -1.390625 0.546875q-0.5 0.53125 -0.5 1.5625l0 3.640625l-1.09375 0l0 -6.578125l1.09375 0l0 0.9375q0.328125 -0.5 0.875 -0.78125q0.5625 -0.28125 1.234375 -0.28125zm4.6488037 -1.65625l1.203125 0l-1.140625 2.71875l-0.765625 0l0.703125 -2.71875zm4.7842712 8.46875q-0.75 0 -1.359375 -0.25q-0.59375 -0.265625 -0.953125 -0.71875q-0.34375 -0.46875 -0.375 -1.078125l1.125 0q0.046875 0.5 0.453125 0.8125q0.421875 0.3125 1.09375 0.3125q0.6249924 0 0.9843674 -0.28125q0.359375 -0.28125 0.359375 -0.6875q0 -0.4375 -0.390625 -0.640625q-0.375 -0.21875 -1.1718674 -0.421875q-0.734375 -0.1875 -1.203125 -0.390625q-0.453125 -0.203125 -0.78125 -0.59375q-0.328125 -0.390625 -0.328125 -1.015625q0 -0.515625 0.296875 -0.921875q0.296875 -0.421875 0.84375 -0.671875q0.5625 -0.25 1.265625 -0.25q1.0937424 0 1.7656174 0.5625q0.671875 0.546875 0.71875 1.5l-1.09375 0q-0.03125 -0.515625 -0.421875 -0.828125q-0.37499237 -0.3125 -0.9999924 -0.3125q-0.59375 0 -0.953125 0.265625q-0.34375 0.25 -0.34375 0.65625q0 0.3125 0.203125 0.53125q0.21875 0.203125 0.53125 0.328125q0.328125 0.125 0.890625 0.28125q0.7031174 0.203125 1.1406174 0.390625q0.453125 0.1875 0.765625 0.5625q0.328125 0.359375 0.34375 0.96875q0 0.53125 -0.3125 0.96875q-0.296875 0.421875 -0.84375 0.671875q-0.546875 0.25 -1.2499924 0.25z" fill-rule="nonzero"/><path fill="#ffffff" d="m83.0668 394.5517q0.34375 -0.578125 0.984375 -0.953125q0.640625 -0.375 1.46875 -0.375q0.890625 0 1.59375 0.421875q0.71875 0.421875 1.125 1.1875q0.40625 0.765625 0.40625 1.765625q0 1.0 -0.40625 1.78125q-0.40625 0.78125 -1.125 1.21875q-0.703125 0.421875 -1.59375 0.421875q-0.84375 0 -1.484375 -0.375q-0.640625 -0.375 -0.96875 -0.953125l0 1.21875l-1.09375 0l0 -8.875l1.09375 0l0 3.515625zm4.46875 2.046875q0 -0.75 -0.3125 -1.296875q-0.296875 -0.546875 -0.8125 -0.828125q-0.5 -0.296875 -1.109375 -0.296875q-0.609375 0 -1.125 0.296875q-0.5 0.296875 -0.8125 0.859375q-0.296875 0.546875 -0.296875 1.28125q0 0.734375 0.296875 1.296875q0.3125 0.5625 0.8125 0.859375q0.515625 0.28125 1.125 0.28125q0.609375 0 1.109375 -0.28125q0.515625 -0.296875 0.8125 -0.859375q0.3125 -0.5625 0.3125 -1.3125zm2.1433105 0q0 -1.0 0.40625 -1.765625q0.40625 -0.765625 1.125 -1.1875q0.71875 -0.421875 1.59375 -0.421875q0.859375 0 1.484375 0.375q0.640625 0.375 0.953125 0.9375l0 -1.203125l1.109375 0l0 6.578125l-1.109375 0l0 -1.21875q-0.3125 0.578125 -0.96875 0.953125q-0.640625 0.375 -1.484375 0.375q-0.875 0 -1.59375 -0.421875q-0.703125 -0.4375 -1.109375 -1.21875q-0.40625 -0.78125 -0.40625 -1.78125zm5.5625 0.015625q0 -0.75 -0.296875 -1.296875q-0.296875 -0.546875 -0.8125 -0.84375q-0.5 -0.296875 -1.109375 -0.296875q-0.625 0 -1.125 0.296875q-0.5 0.28125 -0.8125 0.828125q-0.296875 0.546875 -0.296875 1.296875q0 0.75 0.296875 1.3125q0.3125 0.5625 0.8125 0.859375q0.5 0.28125 1.125 0.28125q0.609375 0 1.109375 -0.28125q0.515625 -0.296875 0.8125 -0.859375q0.296875 -0.5625 0.296875 -1.296875zm4.0495605 -5.578125l0 8.875l-1.09375 0l0 -8.875l1.09375 0zm1.4520264 5.5625q0 -1.0 0.40625 -1.765625q0.40625 -0.765625 1.125 -1.1875q0.71875 -0.421875 1.59375 -0.421875q0.859375 0 1.484375 0.375q0.640625 0.375 0.953125 0.9375l0 -1.203125l1.109375 0l0 6.578125l-1.109375 0l0 -1.21875q-0.3125 0.578125 -0.96875 0.953125q-0.640625 0.375 -1.484375 0.375q-0.875 0 -1.59375 -0.421875q-0.703125 -0.4375 -1.109375 -1.21875q-0.40625 -0.78125 -0.40625 -1.78125zm5.5625 0.015625q0 -0.75 -0.296875 -1.296875q-0.296875 -0.546875 -0.8125 -0.84375q-0.5 -0.296875 -1.109375 -0.296875q-0.625 0 -1.125 0.296875q-0.5 0.28125 -0.8125 0.828125q-0.296875 0.546875 -0.296875 1.296875q0 0.75 0.296875 1.3125q0.3125 0.5625 0.8125 0.859375q0.5 0.28125 1.125 0.28125q0.609375 0 1.109375 -0.28125q0.515625 -0.296875 0.8125 -0.859375q0.296875 -0.5625 0.296875 -1.296875zm6.1589355 -3.40625q1.203125 0 1.9375 0.734375q0.75 0.71875 0.75 2.09375l0 3.875l-1.078125 0l0 -3.71875q0 -0.984375 -0.5 -1.5q-0.484375 -0.53125 -1.328125 -0.53125q-0.875 0 -1.390625 0.546875q-0.5 0.53125 -0.5 1.5625l0 3.640625l-1.09375 0l0 -6.578125l1.09375 0l0 0.9375q0.328125 -0.5 0.875 -0.78125q0.5625 -0.28125 1.234375 -0.28125zm4.0706787 3.40625q0 -1.015625 0.40625 -1.78125q0.40625 -0.765625 1.125 -1.1875q0.734375 -0.421875 1.671875 -0.421875q1.21875 0 2.0 0.59375q0.78125 0.578125 1.03125 1.625l-1.171875 0q-0.171875 -0.59375 -0.65625 -0.9375q-0.484375 -0.359375 -1.203125 -0.359375q-0.9375 0 -1.515625 0.65625q-0.578125 0.640625 -0.578125 1.8125q0 1.1875 0.578125 1.84375q0.578125 0.640625 1.515625 0.640625q0.71875 0 1.203125 -0.328125q0.484375 -0.34375 0.65625 -0.96875l1.171875 0q-0.265625 1.0 -1.0625 1.609375q-0.78125 0.609375 -1.96875 0.609375q-0.9375 0 -1.671875 -0.421875q-0.71875 -0.421875 -1.125 -1.1875q-0.40625 -0.765625 -0.40625 -1.796875zm13.690308 -0.25q0 0.3125 -0.03125 0.671875l-5.265625 0q0.0625 0.96875 0.671875 1.515625q0.609375 0.546875 1.46875 0.546875q0.703125 0 1.171875 -0.328125q0.484375 -0.328125 0.671875 -0.890625l1.1875 0q-0.265625 0.953125 -1.0625 1.546875q-0.796875 0.59375 -1.96875 0.59375q-0.9375 0 -1.671875 -0.421875q-0.734375 -0.421875 -1.15625 -1.1875q-0.421875 -0.78125 -0.421875 -1.796875q0 -1.015625 0.40625 -1.78125q0.40625 -0.78125 1.140625 -1.1875q0.75 -0.421875 1.703125 -0.421875q0.9375 0 1.65625 0.40625q0.71875 0.40625 1.109375 1.125q0.390625 0.71875 0.390625 1.609375zm-1.125 -0.21875q0 -0.625 -0.28125 -1.078125q-0.265625 -0.453125 -0.75 -0.6875q-0.46875 -0.234375 -1.046875 -0.234375q-0.828125 0 -1.40625 0.53125q-0.578125 0.53125 -0.671875 1.46875l4.15625 0z" fill-rule="nonzero"/><path fill="#000000" fill-opacity="0.0" d="m46.93673 491.96338l0 0c0 -3.2760925 2.6557922 -5.931885 5.931877 -5.931885l106.05751 0c1.5732269 0 3.082016 0.6249695 4.1944733 1.7373962c1.112442 1.1124573 1.7373962 2.6212463 1.7373962 4.1944885l0 23.726807c0 3.276062 -2.6557922 5.931885 -5.9318695 5.931885l-106.05751 0c-3.276085 0 -5.931877 -2.6558228 -5.931877 -5.931885z" fill-rule="evenodd"/><path stroke="#8d3aed" stroke-width="1.0" stroke-linejoin="round" stroke-linecap="butt" d="m46.93673 491.96338l0 0c0 -3.2760925 2.6557922 -5.931885 5.931877 -5.931885l106.05751 0c1.5732269 0 3.082016 0.6249695 4.1944733 1.7373962c1.112442 1.1124573 1.7373962 2.6212463 1.7373962 4.1944885l0 23.726807c0 3.276062 -2.6557922 5.931885 -5.9318695 5.931885l-106.05751 0c-3.276085 0 -5.931877 -2.6558228 -5.931877 -5.931885z" fill-rule="evenodd"/><path fill="#000000" fill-opacity="0.0" d="m46.93673 533.08936l0 0c0 -3.276062 2.6557922 -5.931885 5.931877 -5.931885l106.05751 0c1.5732269 0 3.082016 0.625 4.1944733 1.7374268c1.112442 1.1124268 1.7373962 2.6212158 1.7373962 4.194458l0 23.726807c0 3.276062 -2.6557922 5.931885 -5.9318695 5.931885l-106.05751 0c-3.276085 0 -5.931877 -2.6558228 -5.931877 -5.931885z" fill-rule="evenodd"/><path stroke="#8d3aed" stroke-width="1.0" stroke-linejoin="round" stroke-linecap="butt" d="m46.93673 533.08936l0 0c0 -3.276062 2.6557922 -5.931885 5.931877 -5.931885l106.05751 0c1.5732269 0 3.082016 0.625 4.1944733 1.7374268c1.112442 1.1124268 1.7373962 2.6212158 1.7373962 4.194458l0 23.726807c0 3.276062 -2.6557922 5.931885 -5.9318695 5.931885l-106.05751 0c-3.276085 0 -5.931877 -2.6558228 -5.931877 -5.931885z" fill-rule="evenodd"/><path fill="#000000" fill-opacity="0.0" d="m46.937008 426.3099l0 0c0 -5.464966 4.430237 -9.895203 9.89521 -9.895203l98.130844 0c2.6243744 0 5.1412506 1.042511 6.9969635 2.8982239c1.8557129 1.8557129 2.8982391 4.3726196 2.8982391 6.9969788l0 39.57965c0 5.4649963 -4.430237 9.895233 -9.895203 9.895233l-98.130844 0l0 0c-5.4649734 0 -9.89521 -4.430237 -9.89521 -9.895233z" fill-rule="evenodd"/><path stroke="#8d3aed" stroke-width="1.0" stroke-linejoin="round" stroke-linecap="butt" d="m46.937008 426.3099l0 0c0 -5.464966 4.430237 -9.895203 9.89521 -9.895203l98.130844 0c2.6243744 0 5.1412506 1.042511 6.9969635 2.8982239c1.8557129 1.8557129 2.8982391 4.3726196 2.8982391 6.9969788l0 39.57965c0 5.4649963 -4.430237 9.895233 -9.895203 9.895233l-98.130844 0l0 0c-5.4649734 0 -9.89521 -4.430237 -9.89521 -9.895233z" fill-rule="evenodd"/><path fill="#ffffff" d="m80.476875 442.26038l-2.421875 8.359375l-1.234375 0l-1.9375 -6.734375l-2.015625 6.734375l-1.21875 0.015625l-2.328125 -8.375l1.15625 0l1.828125 7.09375l2.015625 -7.09375l1.21875 0l1.921875 7.0625l1.84375 -7.0625l1.171875 0zm6.149582 6.5l-3.65625 0l-0.671875 1.859375l-1.15625 0l3.03125 -8.3125l1.265625 0l3.0 8.3125l-1.140625 0l-0.671875 -1.859375zm-0.3125 -0.890625l-1.515625 -4.21875l-1.515625 4.21875l3.03125 0zm6.1036835 2.828125q-0.828125 0 -1.484375 -0.28125q-0.65625 -0.296875 -1.03125 -0.8125q-0.359375 -0.53125 -0.375 -1.21875l1.15625 0q0.0625 0.59375 0.484375 1.0q0.4375 0.390625 1.25 0.390625q0.78125 0 1.21875 -0.390625q0.453125 -0.390625 0.453125 -1.0q0 -0.484375 -0.265625 -0.78125q-0.25 -0.296875 -0.65625 -0.453125q-0.390625 -0.15625 -1.0625 -0.328125q-0.828125 -0.21875 -1.328125 -0.4375q-0.5 -0.21875 -0.859375 -0.671875q-0.34375 -0.46875 -0.34375 -1.25q0 -0.6875 0.34375 -1.203125q0.34375 -0.53125 0.96875 -0.8125q0.640625 -0.296875 1.453125 -0.296875q1.1875 0 1.9375 0.59375q0.75 0.578125 0.84375 1.546875l-1.203125 0q-0.0625 -0.46875 -0.515625 -0.828125q-0.4375 -0.375 -1.171875 -0.375q-0.671875 0 -1.109375 0.359375q-0.4375 0.34375 -0.4375 0.984375q0 0.453125 0.25 0.75q0.265625 0.28125 0.640625 0.4375q0.390625 0.140625 1.0625 0.328125q0.828125 0.234375 1.328125 0.453125q0.515625 0.21875 0.875 0.6875q0.359375 0.453125 0.359375 1.25q0 0.609375 -0.328125 1.15625q-0.3125 0.53125 -0.953125 0.875q-0.640625 0.328125 -1.5 0.328125zm12.872177 -8.375l0 8.296875l-1.09375 0l0 -6.1875l-2.75 6.1875l-0.78125 0l-2.765625 -6.203125l0 6.203125l-1.09375 0l0 -8.296875l1.171875 0l3.078125 6.859375l3.078125 -6.859375l1.15625 0zm4.6454773 4.109375q0 -1.21875 0.546875 -2.203125q0.5625 -0.984375 1.515625 -1.53125q0.953125 -0.546875 2.109375 -0.546875q1.375 0 2.390625 0.65625q1.015625 0.65625 1.484375 1.875l-1.296875 0q-0.359375 -0.765625 -1.015625 -1.171875q-0.640625 -0.40625 -1.5625 -0.40625q-0.875 0 -1.578125 0.40625q-0.6875 0.40625 -1.09375 1.15625q-0.390625 0.75 -0.390625 1.765625q0 1.0 0.390625 1.75q0.40625 0.75 1.09375 1.15625q0.703125 0.40625 1.578125 0.40625q0.921875 0 1.5625 -0.40625q0.65625 -0.40625 1.015625 -1.15625l1.296875 0q-0.46875 1.203125 -1.484375 1.859375q-1.015625 0.65625 -2.390625 0.65625q-1.15625 0 -2.109375 -0.546875q-0.953125 -0.546875 -1.515625 -1.515625q-0.546875 -0.984375 -0.546875 -2.203125zm13.467194 4.265625q-1.171875 0 -2.140625 -0.546875q-0.953125 -0.546875 -1.515625 -1.515625q-0.546875 -0.984375 -0.546875 -2.203125q0 -1.21875 0.546875 -2.203125q0.5625 -0.984375 1.515625 -1.515625q0.96875 -0.546875 2.140625 -0.546875q1.171875 0 2.125 0.546875q0.96875 0.53125 1.515625 1.515625q0.5625 0.96875 0.5625 2.203125q0 1.234375 -0.5625 2.203125q-0.546875 0.96875 -1.515625 1.515625q-0.953125 0.546875 -2.125 0.546875zm0 -0.9375q0.875 0 1.578125 -0.40625q0.703125 -0.421875 1.09375 -1.171875q0.40625 -0.75 0.40625 -1.75q0 -1.015625 -0.40625 -1.765625q-0.390625 -0.75 -1.09375 -1.15625q-0.6875 -0.40625 -1.578125 -0.40625q-0.890625 0 -1.59375 0.40625q-0.6875 0.40625 -1.09375 1.15625q-0.40625 0.75 -0.40625 1.765625q0 1.0 0.40625 1.75q0.40625 0.75 1.109375 1.171875q0.703125 0.40625 1.578125 0.40625zm8.2445755 -7.5q1.359375 0 2.359375 0.515625q1.015625 0.5 1.546875 1.453125q0.53125 0.9375 0.53125 2.234375q0 1.28125 -0.53125 2.21875q-0.53125 0.9375 -1.546875 1.4375q-1.0 0.5 -2.359375 0.5l-2.609375 0l0 -8.359375l2.609375 0zm0 7.453125q1.609375 0 2.46875 -0.84375q0.859375 -0.859375 0.859375 -2.40625q0 -1.5625 -0.859375 -2.4375q-0.859375 -0.875 -2.46875 -0.875l-1.515625 0l0 6.5625l1.515625 0zm6.9684296 -6.5625l0 2.78125l3.046875 0l0 0.90625l-3.046875 0l0 2.875l3.40625 0l0 0.90625l-4.5 0l0 -8.375l4.5 0l0 0.90625l-3.40625 0z" fill-rule="nonzero"/><path fill="#8d3aed" d="m35.84237 31.69273l554.4882 0l0 42.01575l-554.4882 0z" fill-rule="evenodd"/><path stroke="#8d3aed" stroke-width="1.0" stroke-linejoin="round" stroke-linecap="butt" d="m35.84237 31.69273l554.4882 0l0 42.01575l-554.4882 0z" fill-rule="evenodd"/><path fill="#ffffff" d="m256.91644 52.097103q0 -1.890625 0.859375 -3.40625q0.859375 -1.53125 2.34375 -2.390625q1.484375 -0.859375 3.296875 -0.859375q2.125 0 3.703125 1.03125q1.59375 1.015625 2.328125 2.90625l-2.046875 0q-0.53125 -1.171875 -1.546875 -1.796875q-1.015625 -0.640625 -2.4375 -0.640625q-1.359375 0 -2.453125 0.640625q-1.078125 0.625 -1.703125 1.796875q-0.609375 1.15625 -0.609375 2.71875q0 1.546875 0.609375 2.71875q0.625 1.171875 1.703125 1.8125q1.09375 0.625 2.453125 0.625q1.421875 0 2.4375 -0.625q1.015625 -0.625 1.546875 -1.796875l2.046875 0q-0.734375 1.859375 -2.328125 2.875q-1.578125 1.015625 -3.703125 1.015625q-1.8125 0 -3.296875 -0.84375q-1.484375 -0.84375 -2.34375 -2.359375q-0.859375 -1.515625 -0.859375 -3.421875zm16.746399 -7.296875l0 13.8125l-1.703125 0l0 -13.8125l1.703125 0zm3.7612915 1.921875q-0.484375 0 -0.828125 -0.328125q-0.328125 -0.34375 -0.328125 -0.828125q0 -0.484375 0.328125 -0.8125q0.34375 -0.34375 0.828125 -0.34375q0.46875 0 0.796875 0.34375q0.328125 0.328125 0.328125 0.8125q0 0.484375 -0.328125 0.828125q-0.328125 0.328125 -0.796875 0.328125zm0.828125 1.671875l0 10.21875l-1.703125 0l0 -10.21875l1.703125 0zm12.214447 4.71875q0 0.484375 -0.0625 1.015625l-8.171875 0q0.09375 1.515625 1.03125 2.375q0.953125 0.84375 2.296875 0.84375q1.09375 0 1.828125 -0.515625q0.75 -0.515625 1.046875 -1.375l1.828125 0q-0.40625 1.484375 -1.640625 2.40625q-1.234375 0.921875 -3.0625 0.921875q-1.453125 0 -2.609375 -0.65625q-1.140625 -0.65625 -1.796875 -1.859375q-0.65625 -1.203125 -0.65625 -2.78125q0 -1.59375 0.640625 -2.78125q0.640625 -1.203125 1.78125 -1.84375q1.140625 -0.640625 2.640625 -0.640625q1.453125 0 2.5625 0.640625q1.125 0.625 1.734375 1.734375q0.609375 1.109375 0.609375 2.515625zm-1.75 -0.359375q0 -0.96875 -0.4375 -1.671875q-0.421875 -0.703125 -1.171875 -1.0625q-0.734375 -0.359375 -1.625 -0.359375q-1.28125 0 -2.1875 0.828125q-0.90625 0.8125 -1.03125 2.265625l6.453125 0zm8.973145 -4.546875q1.859375 0 3.015625 1.125q1.15625 1.125 1.15625 3.25l0 6.03125l-1.671875 0l0 -5.78125q0 -1.53125 -0.765625 -2.34375q-0.765625 -0.8125 -2.09375 -0.8125q-1.34375 0 -2.140625 0.84375q-0.78125 0.84375 -0.78125 2.4375l0 5.65625l-1.703125 0l0 -10.21875l1.703125 0l0 1.453125q0.5 -0.78125 1.359375 -1.203125q0.875 -0.4375 1.921875 -0.4375zm9.018127 1.578125l0 6.03125q0 0.75 0.3125 1.0625q0.328125 0.296875 1.109375 0.296875l1.25 0l0 1.4375l-1.53125 0q-1.40625 0 -2.125 -0.65625q-0.703125 -0.65625 -0.703125 -2.140625l0 -6.03125l-1.328125 0l0 -1.390625l1.328125 0l0 -2.578125l1.6875 0l0 2.578125l2.671875 0l0 1.390625l-2.671875 0zm16.803345 1.265625l0 1.4375l-7.4375 0l0 -1.4375l7.4375 0zm15.010803 7.5625l-3.09375 -5.3125l-2.046875 0l0 5.3125l-1.703125 0l0 -13.0l4.203125 0q1.46875 0 2.484375 0.5q1.015625 0.5 1.515625 1.359375q0.515625 0.859375 0.515625 1.96875q0 1.34375 -0.78125 2.375q-0.78125 1.015625 -2.328125 1.34375l3.265625 5.453125l-2.03125 0zm-5.140625 -6.671875l2.5 0q1.375 0 2.0625 -0.6875q0.6875 -0.6875 0.6875 -1.8125q0 -1.15625 -0.6875 -1.796875q-0.671875 -0.640625 -2.0625 -0.640625l-2.5 0l0 4.9375zm18.702393 -3.546875l0 10.21875l-1.6875 0l0 -1.515625q-0.484375 0.78125 -1.359375 1.234375q-0.875 0.4375 -1.90625 0.4375q-1.203125 0 -2.15625 -0.5q-0.953125 -0.5 -1.5 -1.484375q-0.546875 -0.984375 -0.546875 -2.40625l0 -5.984375l1.671875 0l0 5.765625q0 1.5 0.765625 2.3125q0.765625 0.8125 2.09375 0.8125q1.359375 0 2.140625 -0.828125q0.796875 -0.84375 0.796875 -2.453125l0 -5.609375l1.6875 0zm6.5025024 10.390625q-1.1875 0 -2.125 -0.40625q-0.921875 -0.40625 -1.46875 -1.125q-0.53125 -0.71875 -0.59375 -1.640625l1.75 0q0.078125 0.765625 0.71875 1.25q0.65625 0.484375 1.6875 0.484375q0.96875 0 1.53125 -0.421875q0.5625 -0.4375 0.5625 -1.09375q0 -0.671875 -0.59375 -1.0q-0.59375 -0.328125 -1.84375 -0.640625q-1.140625 -0.296875 -1.859375 -0.59375q-0.71875 -0.3125 -1.234375 -0.921875q-0.515625 -0.609375 -0.515625 -1.59375q0 -0.796875 0.46875 -1.4375q0.46875 -0.65625 1.328125 -1.03125q0.859375 -0.390625 1.953125 -0.390625q1.703125 0 2.75 0.859375q1.046875 0.859375 1.109375 2.34375l-1.6875 0q-0.0625 -0.796875 -0.65625 -1.28125q-0.578125 -0.484375 -1.5625 -0.484375q-0.921875 0 -1.46875 0.390625q-0.53125 0.390625 -0.53125 1.03125q0 0.5 0.328125 0.828125q0.328125 0.328125 0.8125 0.53125q0.5 0.1875 1.375 0.421875q1.109375 0.296875 1.796875 0.59375q0.6875 0.28125 1.171875 0.859375q0.5 0.578125 0.515625 1.515625q0 0.84375 -0.46875 1.515625q-0.453125 0.671875 -1.3125 1.0625q-0.84375 0.375 -1.9375 0.375zm8.176056 -9.0l0 6.03125q0 0.75 0.3125 1.0625q0.328125 0.296875 1.109375 0.296875l1.25 0l0 1.4375l-1.53125 0q-1.40625 0 -2.125 -0.65625q-0.703125 -0.65625 -0.703125 -2.140625l0 -6.03125l-1.328125 0l0 -1.390625l1.328125 0l0 -2.578125l1.6875 0l0 2.578125l2.671875 0l0 1.390625l-2.671875 0z" fill-rule="nonzero"/><path fill="#000000" fill-opacity="0.0" d="m27.72441 282.5433l150.77165 0l0 42.015747l-150.77165 0z" fill-rule="evenodd"/><path fill="#bb8ba6" d="m706.1417 31.692913l406.17322 0l0 42.01575l-406.17322 0z" fill-rule="evenodd"/><path stroke="#bb8ba6" stroke-width="1.0" stroke-linejoin="round" stroke-linecap="butt" d="m706.1417 31.692913l406.17322 0l0 42.01575l-406.17322 0z" fill-rule="evenodd"/><path fill="#ffffff" d="m802.2326 58.61291l-3.09375 -5.3125l-2.046875 0l0 5.3125l-1.703125 0l0 -13.0l4.203125 0q1.46875 0 2.484375 0.5q1.015625 0.5 1.515625 1.359375q0.515625 0.859375 0.515625 1.96875q0 1.34375 -0.78125 2.375q-0.78125 1.015625 -2.328125 1.34375l3.265625 5.453125l-2.03125 0zm-5.140625 -6.671875l2.5 0q1.375 0 2.0625 -0.6875q0.6875 -0.6875 0.6875 -1.8125q0 -1.15625 -0.6875 -1.796875q-0.671875 -0.640625 -2.0625 -0.640625l-2.5 0l0 4.9375zm18.702393 -3.546875l0 10.21875l-1.6875 0l0 -1.515625q-0.484375 0.78125 -1.359375 1.234375q-0.875 0.4375 -1.90625 0.4375q-1.203125 0 -2.15625 -0.5q-0.953125 -0.5 -1.5 -1.484375q-0.546875 -0.984375 -0.546875 -2.40625l0 -5.984375l1.671875 0l0 5.765625q0 1.5 0.765625 2.3125q0.765625 0.8125 2.09375 0.8125q1.359375 0 2.140625 -0.828125q0.796875 -0.84375 0.796875 -2.453125l0 -5.609375l1.6875 0zm7.8618774 -0.1875q1.859375 0 3.015625 1.125q1.15625 1.125 1.15625 3.25l0 6.03125l-1.671875 0l0 -5.78125q0 -1.53125 -0.765625 -2.34375q-0.765625 -0.8125 -2.09375 -0.8125q-1.34375 0 -2.140625 0.84375q-0.78125 0.84375 -0.78125 2.4375l0 5.65625l-1.703125 0l0 -10.21875l1.703125 0l0 1.453125q0.5 -0.78125 1.359375 -1.203125q0.875 -0.4375 1.921875 -0.4375zm9.018127 1.578125l0 6.03125q0 0.75 0.3125 1.0625q0.328125 0.296875 1.109375 0.296875l1.25 0l0 1.4375l-1.53125 0q-1.40625 0 -2.125 -0.65625q-0.703125 -0.65625 -0.703125 -2.140625l0 -6.03125l-1.328125 0l0 -1.390625l1.328125 0l0 -2.578125l1.6875 0l0 2.578125l2.671875 0l0 1.390625l-2.671875 0zm5.6033325 -3.0625q-0.484375 0 -0.828125 -0.328125q-0.328125 -0.34375 -0.328125 -0.828125q0 -0.484375 0.328125 -0.8125q0.34375 -0.34375 0.828125 -0.34375q0.46875 0 0.796875 0.34375q0.328125 0.328125 0.328125 0.8125q0 0.484375 -0.328125 0.828125q-0.328125 0.328125 -0.796875 0.328125zm0.828125 1.671875l0 10.21875l-1.703125 0l0 -10.21875l1.703125 0zm15.183228 -0.1875q1.1875 0 2.125 0.5q0.9375 0.484375 1.46875 1.484375q0.546875 0.984375 0.546875 2.390625l0 6.03125l-1.6875 0l0 -5.78125q0 -1.53125 -0.75 -2.34375q-0.75 -0.8125 -2.046875 -0.8125q-1.3125 0 -2.109375 0.859375q-0.78125 0.84375 -0.78125 2.4375l0 5.640625l-1.671875 0l0 -5.78125q0 -1.53125 -0.765625 -2.34375q-0.75 -0.8125 -2.03125 -0.8125q-1.328125 0 -2.109375 0.859375q-0.78125 0.84375 -0.78125 2.4375l0 5.640625l-1.703125 0l0 -10.21875l1.703125 0l0 1.46875q0.5 -0.796875 1.34375 -1.21875q0.84375 -0.4375 1.875 -0.4375q1.296875 0 2.28125 0.578125q0.984375 0.578125 1.46875 1.6875q0.4375 -1.078125 1.421875 -1.671875q0.984375 -0.59375 2.203125 -0.59375zm16.247192 4.90625q0 0.484375 -0.0625 1.015625l-8.171875 0q0.09375 1.515625 1.03125 2.375q0.953125 0.84375 2.296875 0.84375q1.09375 0 1.828125 -0.515625q0.75 -0.515625 1.046875 -1.375l1.828125 0q-0.40625 1.484375 -1.640625 2.40625q-1.234375 0.921875 -3.0625 0.921875q-1.453125 0 -2.609375 -0.65625q-1.140625 -0.65625 -1.796875 -1.859375q-0.65625 -1.203125 -0.65625 -2.78125q0 -1.59375 0.640625 -2.78125q0.640625 -1.203125 1.78125 -1.84375q1.140625 -0.640625 2.640625 -0.640625q1.453125 0 2.5625 0.640625q1.125 0.625 1.734375 1.734375q0.609375 1.109375 0.609375 2.515625zm-1.75 -0.359375q0 -0.96875 -0.4375 -1.671875q-0.421875 -0.703125 -1.171875 -1.0625q-0.734375 -0.359375 -1.625 -0.359375q-1.28125 0 -2.1875 0.828125q-0.90625 0.8125 -1.03125 2.265625l6.453125 0zm16.06372 -1.703125l0 1.4375l-7.4375 0l0 -1.4375l7.4375 0zm24.510803 -5.4375l-3.765625 13.0l-1.90625 0l-3.03125 -10.46875l-3.125 10.46875l-1.890625 0.015625l-3.640625 -13.015625l1.8125 0l2.84375 11.015625l3.125 -11.015625l1.90625 0l2.984375 10.984375l2.859375 -10.984375l1.828125 0zm11.192871 7.5q0 0.484375 -0.0625 1.015625l-8.171875 0q0.09375 1.515625 1.03125 2.375q0.953125 0.84375 2.296875 0.84375q1.09375 0 1.828125 -0.515625q0.75 -0.515625 1.046875 -1.375l1.828125 0q-0.40625 1.484375 -1.640625 2.40625q-1.234375 0.921875 -3.0625 0.921875q-1.453125 0 -2.609375 -0.65625q-1.140625 -0.65625 -1.796875 -1.859375q-0.65625 -1.203125 -0.65625 -2.78125q0 -1.59375 0.640625 -2.78125q0.640625 -1.203125 1.78125 -1.84375q1.140625 -0.640625 2.640625 -0.640625q1.453125 0 2.5625 0.640625q1.125 0.625 1.734375 1.734375q0.609375 1.109375 0.609375 2.515625zm-1.75 -0.359375q0 -0.96875 -0.4375 -1.671875q-0.421875 -0.703125 -1.171875 -1.0625q-0.734375 -0.359375 -1.625 -0.359375q-1.28125 0 -2.1875 0.828125q-0.90625 0.8125 -1.03125 2.265625l6.453125 0zm5.6918945 -2.46875q0.515625 -0.90625 1.515625 -1.484375q1.015625 -0.578125 2.296875 -0.578125q1.390625 0 2.484375 0.65625q1.109375 0.65625 1.734375 1.84375q0.640625 1.171875 0.640625 2.734375q0 1.5625 -0.640625 2.78125q-0.625 1.203125 -1.734375 1.875q-1.109375 0.671875 -2.484375 0.671875q-1.3125 0 -2.3125 -0.578125q-1.0 -0.578125 -1.5 -1.484375l0 1.890625l-1.703125 0l0 -13.8125l1.703125 0l0 5.484375zm6.9375 3.171875q0 -1.15625 -0.46875 -2.0q-0.46875 -0.859375 -1.265625 -1.3125q-0.78125 -0.453125 -1.734375 -0.453125q-0.9375 0 -1.734375 0.46875q-0.796875 0.453125 -1.265625 1.328125q-0.46875 0.859375 -0.46875 2.0q0 1.15625 0.46875 2.03125q0.46875 0.859375 1.265625 1.3125q0.796875 0.453125 1.734375 0.453125q0.953125 0 1.734375 -0.453125q0.796875 -0.453125 1.265625 -1.3125q0.46875 -0.875 0.46875 -2.0625zm11.658508 2.265625l-5.671875 0l-1.046875 2.890625l-1.796875 0l4.703125 -12.921875l1.96875 0l4.671875 12.921875l-1.78125 0l-1.046875 -2.890625zm-0.484375 -1.375l-2.359375 -6.578125l-2.34375 6.578125l4.703125 0zm8.996155 4.4375q-1.1875 0 -2.125 -0.40625q-0.921875 -0.40625 -1.46875 -1.125q-0.53125 -0.71875 -0.59375 -1.640625l1.75 0q0.078125 0.765625 0.71875 1.25q0.65625 0.484375 1.6875 0.484375q0.96875 0 1.53125 -0.421875q0.5625 -0.4375 0.5625 -1.09375q0 -0.671875 -0.59375 -1.0q-0.59375 -0.328125 -1.84375 -0.640625q-1.140625 -0.296875 -1.859375 -0.59375q-0.71875 -0.3125 -1.234375 -0.921875q-0.515625 -0.609375 -0.515625 -1.59375q0 -0.796875 0.46875 -1.4375q0.46875 -0.65625 1.328125 -1.03125q0.859375 -0.390625 1.953125 -0.390625q1.703125 0 2.75 0.859375q1.046875 0.859375 1.109375 2.34375l-1.6875 0q-0.0625 -0.796875 -0.65625 -1.28125q-0.578125 -0.484375 -1.5625 -0.484375q-0.921875 0 -1.46875 0.390625q-0.53125 0.390625 -0.53125 1.03125q0 0.5 0.328125 0.828125q0.328125 0.328125 0.8125 0.53125q0.5 0.1875 1.375 0.421875q1.109375 0.296875 1.796875 0.59375q0.6875 0.28125 1.171875 0.859375q0.5 0.578125 0.515625 1.515625q0 0.84375 -0.46875 1.515625q-0.453125 0.671875 -1.3125 1.0625q-0.84375 0.375 -1.9375 0.375zm9.738586 0q-1.1875 0 -2.125 -0.40625q-0.921875 -0.40625 -1.46875 -1.125q-0.53125 -0.71875 -0.59375 -1.640625l1.75 0q0.078125 0.765625 0.71875 1.25q0.65625 0.484375 1.6875 0.484375q0.96875 0 1.53125 -0.421875q0.5625 -0.4375 0.5625 -1.09375q0 -0.671875 -0.59375 -1.0q-0.59375 -0.328125 -1.84375 -0.640625q-1.140625 -0.296875 -1.859375 -0.59375q-0.71875 -0.3125 -1.234375 -0.921875q-0.515625 -0.609375 -0.515625 -1.59375q0 -0.796875 0.46875 -1.4375q0.46875 -0.65625 1.328125 -1.03125q0.859375 -0.390625 1.953125 -0.390625q1.703125 0 2.75 0.859375q1.046875 0.859375 1.109375 2.34375l-1.6875 0q-0.0625 -0.796875 -0.65625 -1.28125q-0.578125 -0.484375 -1.5625 -0.484375q-0.921875 0 -1.46875 0.390625q-0.53125 0.390625 -0.53125 1.03125q0 0.5 0.328125 0.828125q0.328125 0.328125 0.8125 0.53125q0.5 0.1875 1.375 0.421875q1.109375 0.296875 1.796875 0.59375q0.6875 0.28125 1.171875 0.859375q0.5 0.578125 0.515625 1.515625q0 0.84375 -0.46875 1.515625q-0.453125 0.671875 -1.3125 1.0625q-0.84375 0.375 -1.9375 0.375zm15.441711 -5.671875q0 0.484375 -0.0625 1.015625l-8.171875 0q0.09375 1.515625 1.03125 2.375q0.953125 0.84375 2.296875 0.84375q1.09375 0 1.828125 -0.515625q0.75 -0.515625 1.046875 -1.375l1.828125 0q-0.40625 1.484375 -1.640625 2.40625q-1.234375 0.921875 -3.0625 0.921875q-1.453125 0 -2.609375 -0.65625q-1.140625 -0.65625 -1.796875 -1.859375q-0.65625 -1.203125 -0.65625 -2.78125q0 -1.59375 0.640625 -2.78125q0.640625 -1.203125 1.78125 -1.84375q1.140625 -0.640625 2.640625 -0.640625q1.453125 0 2.5625 0.640625q1.125 0.625 1.734375 1.734375q0.609375 1.109375 0.609375 2.515625zm-1.75 -0.359375q0 -0.96875 -0.4375 -1.671875q-0.421875 -0.703125 -1.171875 -1.0625q-0.734375 -0.359375 -1.625 -0.359375q-1.28125 0 -2.1875 0.828125q-0.90625 0.8125 -1.03125 2.265625l6.453125 0zm16.285645 -4.546875q1.1875 0 2.125 0.5q0.9375 0.484375 1.46875 1.484375q0.546875 0.984375 0.546875 2.390625l0 6.03125l-1.6875 0l0 -5.78125q0 -1.53125 -0.75 -2.34375q-0.75 -0.8125 -2.046875 -0.8125q-1.3125 0 -2.109375 0.859375q-0.78125 0.84375 -0.78125 2.4375l0 5.640625l-1.671875 0l0 -5.78125q0 -1.53125 -0.765625 -2.34375q-0.75 -0.8125 -2.03125 -0.8125q-1.328125 0 -2.109375 0.859375q-0.78125 0.84375 -0.78125 2.4375l0 5.640625l-1.703125 0l0 -10.21875l1.703125 0l0 1.46875q0.5 -0.796875 1.34375 -1.21875q0.84375 -0.4375 1.875 -0.4375q1.296875 0 2.28125 0.578125q0.984375 0.578125 1.46875 1.6875q0.4375 -1.078125 1.421875 -1.671875q0.984375 -0.59375 2.203125 -0.59375zm8.622192 2.078125q0.515625 -0.90625 1.515625 -1.484375q1.015625 -0.578125 2.296875 -0.578125q1.390625 0 2.484375 0.65625q1.109375 0.65625 1.734375 1.84375q0.640625 1.171875 0.640625 2.734375q0 1.5625 -0.640625 2.78125q-0.625 1.203125 -1.734375 1.875q-1.109375 0.671875 -2.484375 0.671875q-1.3125 0 -2.3125 -0.578125q-1.0 -0.578125 -1.5 -1.484375l0 1.890625l-1.703125 0l0 -13.8125l1.703125 0l0 5.484375zm6.9375 3.171875q0 -1.15625 -0.46875 -2.0q-0.46875 -0.859375 -1.265625 -1.3125q-0.78125 -0.453125 -1.734375 -0.453125q-0.9375 0 -1.734375 0.46875q-0.796875 0.453125 -1.265625 1.328125q-0.46875 0.859375 -0.46875 2.0q0 1.15625 0.46875 2.03125q0.46875 0.859375 1.265625 1.3125q0.796875 0.453125 1.734375 0.453125q0.953125 0 1.734375 -0.453125q0.796875 -0.453125 1.265625 -1.3125q0.46875 -0.875 0.46875 -2.0625zm5.6741333 -8.65625l0 13.8125l-1.703125 0l0 -13.8125l1.703125 0zm11.69873 3.59375l-6.171814 15.03125l-1.75 0l2.015625 -4.921875l-4.125 -10.109375l1.890625 0l3.203125 8.28125l3.171875 -8.28125l1.765564 0z" fill-rule="nonzero"/><path fill="#000000" fill-opacity="0.0" d="m251.38321 516.9344l-43.259857 0l0 -70.834656l-43.259842 0" fill-rule="evenodd"/><path stroke="#ffffff" stroke-width="1.0" stroke-linejoin="round" stroke-linecap="butt" d="m251.38321 516.9344l-43.259857 0l0 -70.834656l-39.83275 0" fill-rule="evenodd"/><path fill="#ffffff" stroke="#ffffff" stroke-width="1.0" stroke-linecap="butt" d="m168.2906 446.09973l1.124588 -1.1245728l-3.0897675 1.1245728l3.0897675 1.1246033z" fill-rule="evenodd"/><path fill="#000000" fill-opacity="0.0" d="m34.527557 106.69857l0 0c0 -11.245964 9.116653 -20.36261 20.362614 -20.36261l138.48738 0c5.4004974 0 10.579803 2.14534 14.398544 5.9640656c3.8187256 3.8187332 5.9640656 8.998047 5.9640656 14.398544l0 81.448006c0 11.245956 -9.116653 20.36261 -20.36261 20.36261l-138.48738 0c-11.24596 0 -20.362614 -9.116653 -20.362614 -20.36261z" fill-rule="evenodd"/><path stroke="#8d3aed" stroke-width="1.0" stroke-linejoin="round" stroke-linecap="butt" d="m34.527557 106.69857l0 0c0 -11.245964 9.116653 -20.36261 20.362614 -20.36261l138.48738 0c5.4004974 0 10.579803 2.14534 14.398544 5.9640656c3.8187256 3.8187332 5.9640656 8.998047 5.9640656 14.398544l0 81.448006c0 11.245956 -9.116653 20.36261 -20.36261 20.36261l-138.48738 0c-11.24596 0 -20.362614 -9.116653 -20.362614 -20.36261z" fill-rule="evenodd"/><path fill="#ffffff" d="m92.27443 152.50256l-1.328125 0l-5.359375 -8.140625l0 8.140625l-1.34375 0l0 -10.234375l1.34375 0l5.359375 8.125l0 -8.125l1.328125 0l0 10.234375zm9.60025 -4.328125q0 0.390625 -0.046875 0.8125l-6.40625 0q0.0625 1.1875 0.796875 1.859375q0.75 0.65625 1.8125 0.65625q0.859375 0 1.4375 -0.390625q0.578125 -0.40625 0.8125 -1.09375l1.4375 0q-0.328125 1.171875 -1.296875 1.890625q-0.96875 0.71875 -2.390625 0.71875q-1.15625 0 -2.0625 -0.5q-0.890625 -0.515625 -1.40625 -1.453125q-0.515625 -0.953125 -0.515625 -2.203125q0 -1.25 0.5 -2.1875q0.5 -0.9375 1.390625 -1.4375q0.90625 -0.5 2.09375 -0.5q1.140625 0 2.015625 0.5q0.875 0.484375 1.34375 1.359375q0.484375 0.875 0.484375 1.96875zm-1.375 -0.28125q0 -0.75 -0.34375 -1.296875q-0.328125 -0.5625 -0.90625 -0.84375q-0.578125 -0.28125 -1.28125 -0.28125q-1.015625 0 -1.734375 0.640625q-0.703125 0.640625 -0.796875 1.78125l5.0625 0zm4.758789 -2.328125l0 4.734375q0 0.59375 0.25 0.84375q0.25 0.234375 0.875 0.234375l0.96875 0l0 1.125l-1.1875 0q-1.125 0 -1.6875 -0.515625q-0.546875 -0.515625 -0.546875 -1.6875l0 -4.734375l-1.046875 0l0 -1.09375l1.046875 0l0 -2.015625l1.328125 0l0 2.015625l2.09375 0l0 1.09375l-2.09375 0zm14.413025 -1.09375l-2.5 8.03125l-1.390625 0l-1.921875 -6.375l-1.9375 6.375l-1.375 0l-2.53125 -8.03125l1.359375 0l1.859375 6.734375l1.984375 -6.734375l1.359375 0l1.953125 6.75l1.828125 -6.75l1.3125 0zm4.815048 8.15625q-1.125 0 -2.046875 -0.5q-0.90625 -0.515625 -1.4375 -1.453125q-0.515625 -0.953125 -0.515625 -2.203125q0 -1.234375 0.53125 -2.171875q0.546875 -0.953125 1.46875 -1.453125q0.921875 -0.5 2.0625 -0.5q1.140625 0 2.0625 0.5q0.9375 0.5 1.46875 1.4375q0.53125 0.9375 0.53125 2.1875q0 1.25 -0.546875 2.203125q-0.546875 0.9375 -1.484375 1.453125q-0.9375 0.5 -2.09375 0.5zm0 -1.171875q0.71875 0 1.34375 -0.328125q0.640625 -0.34375 1.03125 -1.015625q0.390625 -0.671875 0.390625 -1.640625q0 -0.96875 -0.390625 -1.640625q-0.375 -0.671875 -1.0 -1.0q-0.609375 -0.328125 -1.328125 -0.328125q-0.734375 0 -1.34375 0.328125q-0.609375 0.328125 -0.96875 1.0q-0.359375 0.671875 -0.359375 1.640625q0 0.984375 0.359375 1.65625q0.359375 0.671875 0.953125 1.0q0.59375 0.328125 1.3125 0.328125zm7.2237854 -5.6875q0.34375 -0.6875 1.0 -1.0625q0.65625 -0.375 1.59375 -0.375l0 1.375l-0.359375 0q-2.234375 0 -2.234375 2.421875l0 4.375l-1.34375 0l0 -8.03125l1.34375 0l0 1.296875zm8.607422 6.734375l-3.140625 -3.546875l0 3.546875l-1.34375 0l0 -10.84375l1.34375 0l0 6.375l3.09375 -3.5625l1.859375 0l-3.78125 4.0l3.796875 4.03125l-1.828125 0zm3.7511292 -9.34375q-0.375 0 -0.640625 -0.25q-0.265625 -0.265625 -0.265625 -0.65625q0 -0.375 0.265625 -0.640625q0.265625 -0.265625 0.640625 -0.265625q0.375 0 0.625 0.265625q0.265625 0.265625 0.265625 0.640625q0 0.390625 -0.265625 0.65625q-0.25 0.25 -0.625 0.25zm0.65625 1.3125l0 8.03125l-1.34375 0l0 -8.03125l1.34375 0zm6.1835785 -0.140625q1.453125 0 2.359375 0.890625q0.921875 0.875 0.921875 2.546875l0 4.734375l-1.328125 0l0 -4.546875q0 -1.203125 -0.609375 -1.828125q-0.59375 -0.640625 -1.625 -0.640625q-1.0625 0 -1.6875 0.65625q-0.609375 0.65625 -0.609375 1.921875l0 4.4375l-1.34375 0l0 -8.03125l1.34375 0l0 1.140625q0.390625 -0.609375 1.0625 -0.9375q0.6875 -0.34375 1.515625 -0.34375zm8.77066 0.015625q1.046875 0 1.828125 0.453125q0.78125 0.453125 1.171875 1.140625l0 -1.46875l1.34375 0l0 8.203125q0 1.109375 -0.46875 1.953125q-0.46875 0.859375 -1.34375 1.34375q-0.875 0.484375 -2.03125 0.484375q-1.578125 0 -2.640625 -0.75q-1.046875 -0.734375 -1.234375 -2.03125l1.3125 0q0.21875 0.734375 0.90625 1.171875q0.6875 0.453125 1.65625 0.453125q1.09375 0 1.796875 -0.6875q0.703125 -0.6875 0.703125 -1.9375l0 -1.6875q-0.40625 0.703125 -1.1875 1.171875q-0.765625 0.46875 -1.8125 0.46875q-1.0625 0 -1.9375 -0.515625q-0.875 -0.53125 -1.375 -1.484375q-0.5 -0.953125 -0.5 -2.171875q0 -1.234375 0.5 -2.15625q0.5 -0.9375 1.375 -1.4375q0.875 -0.515625 1.9375 -0.515625zm3.0 4.125q0 -0.90625 -0.375 -1.578125q-0.359375 -0.671875 -0.984375 -1.03125q-0.625 -0.359375 -1.375 -0.359375q-0.75 0 -1.375 0.359375q-0.609375 0.34375 -0.96875 1.015625q-0.359375 0.671875 -0.359375 1.578125q0 0.921875 0.359375 1.609375q0.359375 0.671875 0.96875 1.03125q0.625 0.359375 1.375 0.359375q0.75 0 1.375 -0.359375q0.625 -0.359375 0.984375 -1.03125q0.375 -0.6875 0.375 -1.59375z" fill-rule="nonzero"/><path fill="#000000" fill-opacity="0.0" d="m242.15486 196.61963l0 0c0 -5.8505554 4.742813 -10.593384 10.593384 -10.593384l65.3329 0c2.8095398 0 5.5040283 1.1160889 7.4906616 3.1027374c1.9866333 1.9866486 3.1027222 4.6811066 3.1027222 7.4906464l0 42.372284c0 5.8505707 -4.742798 10.593384 -10.593384 10.593384l-65.3329 0c-5.8505707 0 -10.593384 -4.742813 -10.593384 -10.593384z" fill-rule="evenodd"/><path stroke="#8d3aed" stroke-width="1.0" stroke-linejoin="round" stroke-linecap="butt" d="m242.15486 196.61963l0 0c0 -5.8505554 4.742813 -10.593384 10.593384 -10.593384l65.3329 0c2.8095398 0 5.5040283 1.1160889 7.4906616 3.1027374c1.9866333 1.9866486 3.1027222 4.6811066 3.1027222 7.4906464l0 42.372284c0 5.8505707 -4.742798 10.593384 -10.593384 10.593384l-65.3329 0c-5.8505707 0 -10.593384 -4.742813 -10.593384 -10.593384z" fill-rule="evenodd"/><path fill="#ffffff" d="m267.72034 217.81827q0.765625 0.125 1.390625 0.625q0.640625 0.5 1.0 1.25q0.375 0.734375 0.375 1.578125q0 1.046875 -0.546875 1.90625q-0.53125 0.84375 -1.5625 1.34375q-1.03125 0.484375 -2.4375 0.484375l-5.1875 0l0 -13.9375l5.0 0q1.40625 0 2.40625 0.46875q1.0 0.46875 1.5 1.265625q0.5 0.796875 0.5 1.796875q0 1.25 -0.671875 2.0625q-0.65625 0.796875 -1.765625 1.15625zm-5.15625 -0.734375l3.0625 0q1.28125 0 1.96875 -0.59375q0.703125 -0.609375 0.703125 -1.671875q0 -1.046875 -0.703125 -1.640625q-0.6875 -0.609375 -2.015625 -0.609375l-3.015625 0l0 4.515625zm3.21875 6.421875q1.359375 0 2.109375 -0.640625q0.765625 -0.640625 0.765625 -1.78125q0 -1.15625 -0.796875 -1.828125q-0.796875 -0.671875 -2.140625 -0.671875l-3.15625 0l0 4.921875l3.21875 0zm9.04126 -13.296875l0 14.796875l-1.8125 0l0 -14.796875l1.8125 0zm7.873108 14.984375q-1.53125 0 -2.78125 -0.703125q-1.25 -0.703125 -1.96875 -1.984375q-0.703125 -1.296875 -0.703125 -3.0q0 -1.6875 0.71875 -2.96875q0.734375 -1.296875 2.0 -1.984375q1.265625 -0.6875 2.828125 -0.6875q1.546875 0 2.8125 0.6875q1.265625 0.6875 1.984375 1.96875q0.734375 1.28125 0.734375 2.984375q0 1.703125 -0.75 3.0q-0.75 1.28125 -2.03125 1.984375q-1.28125 0.703125 -2.84375 0.703125zm0 -1.609375q0.984375 0 1.84375 -0.453125q0.859375 -0.46875 1.390625 -1.390625q0.53125 -0.921875 0.53125 -2.234375q0 -1.3125 -0.515625 -2.234375q-0.515625 -0.921875 -1.359375 -1.375q-0.84375 -0.453125 -1.828125 -0.453125q-1.0 0 -1.828125 0.453125q-0.828125 0.453125 -1.328125 1.375q-0.5 0.921875 -0.5 2.234375q0 1.34375 0.484375 2.265625q0.5 0.921875 1.3125 1.375q0.828125 0.4375 1.796875 0.4375zm7.346863 -4.078125q0 -1.703125 0.671875 -2.96875q0.6875 -1.265625 1.890625 -1.96875q1.21875 -0.703125 2.78125 -0.703125q2.015625 0 3.328125 0.984375q1.3125 0.96875 1.734375 2.71875l-1.96875 0q-0.28125 -1.0 -1.09375 -1.578125q-0.796875 -0.578125 -2.0 -0.578125q-1.5625 0 -2.53125 1.078125q-0.953125 1.0625 -0.953125 3.015625q0 1.984375 0.953125 3.0625q0.96875 1.078125 2.53125 1.078125q1.203125 0 2.0 -0.5625q0.796875 -0.5625 1.09375 -1.59375l1.96875 0q-0.453125 1.671875 -1.765625 2.6875q-1.3125 1.015625 -3.296875 1.015625q-1.5625 0 -2.78125 -0.703125q-1.203125 -0.703125 -1.890625 -1.984375q-0.671875 -1.28125 -0.671875 -3.0zm18.93686 5.5l-4.296875 -4.84375l0 4.84375l-1.8125 0l0 -14.796875l1.8125 0l0 8.703125l4.21875 -4.859375l2.546875 0l-5.171875 5.453125l5.1875 5.5l-2.484375 0z" fill-rule="nonzero"/><path fill="#000000" fill-opacity="0.0" d="m213.74016 147.42258l14.207275 0l0 70.39369l14.202179 0" fill-rule="evenodd"/><path stroke="#ffffff" stroke-width="1.0" stroke-linejoin="round" stroke-linecap="butt" d="m213.74016 147.42258l14.207291 0l0 70.39369l10.77507 0" fill-rule="evenodd"/><path fill="#ffffff" stroke="#ffffff" stroke-width="1.0" stroke-linecap="butt" d="m238.72252 217.81627l-1.124588 1.124588l3.0897675 -1.124588l-3.0897675 -1.1245728z" fill-rule="evenodd"/></g></svg>