<svg version="1.1" viewBox="0.0 0.0 1230.2230971128608 607.8871391076116" fill="none" stroke="none" stroke-linecap="square" stroke-miterlimit="10" xmlns:xlink="http://www.w3.org/1999/xlink" xmlns="http://www.w3.org/2000/svg"><clipPath id="p.0"><path d="m0 0l1230.2231 0l0 607.88715l-1230.2231 0l0 -607.88715z" clip-rule="nonzero"/></clipPath><g clip-path="url(#p.0)"><path fill="#000000" fill-opacity="0.0" d="m0 0l1230.2231 0l0 607.88715l-1230.2231 0z" fill-rule="evenodd"/><path fill="#07154b" d="m24.288713 18.674541l1191.2441 0l0 561.98425l-1191.2441 0z" fill-rule="evenodd"/><path stroke="#07154b" stroke-width="1.0" stroke-linejoin="round" stroke-linecap="butt" d="m24.288713 18.674541l1191.2441 0l0 561.98425l-1191.2441 0z" fill-rule="evenodd"/><path fill="#000000" fill-opacity="0.0" d="m619.91077 18.674541l0 561.98425" fill-rule="evenodd"/><path stroke="#ffffff" stroke-width="1.0" stroke-linejoin="round" stroke-linecap="butt" stroke-dasharray="1.0,3.0" d="m619.91077 18.674541l0 561.98425" fill-rule="evenodd"/><path fill="#8d3aed" d="m43.51953 35.76622l554.4882 0l0 42.015747l-554.4882 0z" fill-rule="evenodd"/><path stroke="#8d3aed" stroke-width="1.0" stroke-linejoin="round" stroke-linecap="butt" d="m43.51953 35.76622l554.4882 0l0 42.015747l-554.4882 0z" fill-rule="evenodd"/><path fill="#ffffff" d="m230.47134 56.170593q0 -1.890625 0.859375 -3.40625q0.859375 -1.53125 2.34375 -2.390625q1.484375 -0.859375 3.296875 -0.859375q2.125 0 3.703125 1.03125q1.59375 1.015625 2.328125 2.90625l-2.046875 0q-0.53125 -1.171875 -1.546875 -1.796875q-1.015625 -0.640625 -2.4375 -0.640625q-1.359375 0 -2.453125 0.640625q-1.078125 0.625 -1.703125 1.796875q-0.609375 1.15625 -0.609375 2.71875q0 1.546875 0.609375 2.71875q0.625 1.171875 1.703125 1.8125q1.09375 0.625 2.453125 0.625q1.421875 0 2.4375 -0.625q1.015625 -0.625 1.546875 -1.796875l2.046875 0q-0.734375 1.859375 -2.328125 2.875q-1.578125 1.015625 -3.703125 1.015625q-1.8125 0 -3.296875 -0.84375q-1.484375 -0.84375 -2.34375 -2.359375q-0.859375 -1.515625 -0.859375 -3.421875zm16.746384 -7.296875l0 13.8125l-1.703125 0l0 -13.8125l1.703125 0zm3.7613068 1.921875q-0.484375 0 -0.828125 -0.328125q-0.328125 -0.34375 -0.328125 -0.828125q0 -0.484375 0.328125 -0.8125q0.34375 -0.34375 0.828125 -0.34375q0.46875 0 0.796875 0.34375q0.328125 0.328125 0.328125 0.8125q0 0.484375 -0.328125 0.828125q-0.328125 0.328125 -0.796875 0.328125zm0.828125 1.671875l0 10.21875l-1.703125 0l0 -10.21875l1.703125 0zm12.214447 4.71875q0 0.484375 -0.0625 1.015625l-8.17189 0q0.09375 1.515625 1.0312653 2.375q0.953125 0.84375 2.296875 0.84375q1.09375 0 1.828125 -0.515625q0.75 -0.515625 1.046875 -1.375l1.828125 0q-0.40625 1.484375 -1.640625 2.40625q-1.234375 0.921875 -3.0625 0.921875q-1.453125 0 -2.609375 -0.65625q-1.1406403 -0.65625 -1.7968903 -1.859375q-0.65625 -1.203125 -0.65625 -2.78125q0 -1.59375 0.640625 -2.78125q0.640625 -1.203125 1.7812653 -1.84375q1.140625 -0.640625 2.640625 -0.640625q1.453125 0 2.5625 0.640625q1.125 0.625 1.734375 1.734375q0.609375 1.109375 0.609375 2.515625zm-1.75 -0.359375q0 -0.96875 -0.4375 -1.671875q-0.421875 -0.703125 -1.171875 -1.0625q-0.734375 -0.359375 -1.625 -0.359375q-1.28125 0 -2.1875 0.828125q-0.90626526 0.8125 -1.0312653 2.265625l6.4531403 0zm8.973114 -4.546875q1.859375 0 3.015625 1.125q1.15625 1.125 1.15625 3.25l0 6.03125l-1.671875 0l0 -5.78125q0 -1.53125 -0.765625 -2.34375q-0.765625 -0.8125 -2.09375 -0.8125q-1.34375 0 -2.140625 0.84375q-0.78125 0.84375 -0.78125 2.4375l0 5.65625l-1.703125 0l0 -10.21875l1.703125 0l0 1.453125q0.5 -0.78125 1.359375 -1.203125q0.875 -0.4375 1.921875 -0.4375zm9.018127 1.578125l0 6.03125q0 0.75 0.3125 1.0625q0.328125 0.296875 1.109375 0.296875l1.25 0l0 1.4375l-1.53125 0q-1.40625 0 -2.125 -0.65625q-0.703125 -0.65625 -0.703125 -2.140625l0 -6.03125l-1.328125 0l0 -1.390625l1.328125 0l0 -2.578125l1.6875 0l0 2.578125l2.671875 0l0 1.390625l-2.671875 0zm16.053345 -8.75l-5.109375 20.75l-1.6875 0l5.09375 -20.75l1.703125 0zm17.533478 4.578125l0 13.0l-1.703125 0l0 -5.890625l-6.609375 0l0 5.890625l-1.703125 0l0 -13.0l1.703125 0l0 5.703125l6.609375 0l0 -5.703125l1.703125 0zm7.347595 13.171875q-1.4375 0 -2.609375 -0.65625q-1.15625 -0.65625 -1.828125 -1.859375q-0.65625 -1.203125 -0.65625 -2.78125q0 -1.578125 0.6875 -2.78125q0.6875 -1.203125 1.859375 -1.84375q1.171875 -0.640625 2.625 -0.640625q1.453125 0 2.625 0.640625q1.1875 0.640625 1.859375 1.84375q0.6875 1.1875 0.6875 2.78125q0 1.578125 -0.703125 2.78125q-0.703125 1.203125 -1.90625 1.859375q-1.1875 0.65625 -2.640625 0.65625zm0 -1.5q0.921875 0 1.71875 -0.421875q0.796875 -0.4375 1.296875 -1.296875q0.5 -0.859375 0.5 -2.078125q0 -1.234375 -0.484375 -2.09375q-0.484375 -0.859375 -1.28125 -1.28125q-0.78125 -0.421875 -1.6875 -0.421875q-0.9375 0 -1.71875 0.421875q-0.765625 0.421875 -1.234375 1.28125q-0.46875 0.859375 -0.46875 2.09375q0 1.25 0.453125 2.109375q0.46875 0.84375 1.234375 1.265625q0.765625 0.421875 1.671875 0.421875zm11.111877 1.5q-1.1875 0 -2.125 -0.40625q-0.921875 -0.40625 -1.46875 -1.125q-0.53125 -0.71875 -0.59375 -1.640625l1.75 0q0.078125 0.765625 0.71875 1.25q0.65625 0.484375 1.6875 0.484375q0.96875 0 1.53125 -0.421875q0.5625 -0.4375 0.5625 -1.09375q0 -0.671875 -0.59375 -1.0q-0.59375 -0.328125 -1.84375 -0.640625q-1.140625 -0.296875 -1.859375 -0.59375q-0.71875 -0.3125 -1.234375 -0.921875q-0.515625 -0.609375 -0.515625 -1.59375q0 -0.796875 0.46875 -1.4375q0.46875 -0.65625 1.328125 -1.03125q0.859375 -0.390625 1.953125 -0.390625q1.703125 0 2.75 0.859375q1.046875 0.859375 1.109375 2.34375l-1.6875 0q-0.0625 -0.796875 -0.65625 -1.28125q-0.578125 -0.484375 -1.5625 -0.484375q-0.921875 0 -1.46875 0.390625q-0.53125 0.390625 -0.53125 1.03125q0 0.5 0.328125 0.828125q0.328125 0.328125 0.8125 0.53125q0.5 0.1875 1.375 0.421875q1.109375 0.296875 1.796875 0.59375q0.6875 0.28125 1.171875 0.859375q0.5 0.578125 0.515625 1.515625q0 0.84375 -0.46875 1.515625q-0.453125 0.671875 -1.3125 1.0625q-0.84375 0.375 -1.9375 0.375zm8.176086 -9.0l0 6.03125q0 0.75 0.3125 1.0625q0.328125 0.296875 1.109375 0.296875l1.25 0l0 1.4375l-1.53125 0q-1.40625 0 -2.125 -0.65625q-0.703125 -0.65625 -0.703125 -2.140625l0 -6.03125l-1.328125 0l0 -1.390625l1.328125 0l0 -2.578125l1.6875 0l0 2.578125l2.671875 0l0 1.390625l-2.671875 0zm16.053345 -8.75l-5.109375 20.75l-1.6875 0l5.09375 -20.75l1.703125 0zm17.736572 17.578125l-1.6875 0l-6.828125 -10.359375l0 10.359375l-1.703125 0l0 -13.015625l1.703125 0l6.828125 10.328125l0 -10.328125l1.6875 0l0 13.015625zm7.3497314 0.171875q-1.4375 0 -2.609375 -0.65625q-1.15625 -0.65625 -1.828125 -1.859375q-0.65625 -1.203125 -0.65625 -2.78125q0 -1.578125 0.6875 -2.78125q0.6875 -1.203125 1.859375 -1.84375q1.171875 -0.640625 2.625 -0.640625q1.453125 0 2.625 0.640625q1.1875 0.640625 1.859375 1.84375q0.6875 1.1875 0.6875 2.78125q0 1.578125 -0.703125 2.78125q-0.703125 1.203125 -1.90625 1.859375q-1.1875 0.65625 -2.640625 0.65625zm0 -1.5q0.921875 0 1.71875 -0.421875q0.796875 -0.4375 1.296875 -1.296875q0.5 -0.859375 0.5 -2.078125q0 -1.234375 -0.484375 -2.09375q-0.484375 -0.859375 -1.28125 -1.28125q-0.78125 -0.421875 -1.6875 -0.421875q-0.9375 0 -1.71875 0.421875q-0.765625 0.421875 -1.234375 1.28125q-0.46875 0.859375 -0.46875 2.09375q0 1.25 0.453125 2.109375q0.46875 0.84375 1.234375 1.265625q0.765625 0.421875 1.671875 0.421875zm6.8462524 -3.828125q0 -1.5625 0.640625 -2.734375q0.640625 -1.1875 1.75 -1.84375q1.109375 -0.65625 2.484375 -0.65625q1.1875 0 2.21875 0.546875q1.03125 0.546875 1.5625 1.453125l0 -5.421875l1.71875 0l0 13.8125l-1.71875 0l0 -1.921875q-0.5 0.921875 -1.484375 1.515625q-0.984375 0.578125 -2.3125 0.578125q-1.359375 0 -2.46875 -0.671875q-1.109375 -0.671875 -1.75 -1.875q-0.640625 -1.21875 -0.640625 -2.78125zm8.65625 0.03125q0 -1.15625 -0.46875 -2.015625q-0.453125 -0.859375 -1.25 -1.3125q-0.796875 -0.46875 -1.75 -0.46875q-0.953125 0 -1.734375 0.453125q-0.78125 0.453125 -1.25 1.3125q-0.46875 0.84375 -0.46875 2.0q0 1.1875 0.46875 2.0625q0.46875 0.859375 1.25 1.3125q0.78125 0.453125 1.734375 0.453125q0.953125 0 1.75 -0.453125q0.796875 -0.453125 1.25 -1.3125q0.46875 -0.875 0.46875 -2.03125zm13.924133 -0.375q0 0.484375 -0.0625 1.015625l-8.171875 0q0.09375 1.515625 1.03125 2.375q0.953125 0.84375 2.296875 0.84375q1.09375 0 1.828125 -0.515625q0.75 -0.515625 1.046875 -1.375l1.828125 0q-0.40625 1.484375 -1.640625 2.40625q-1.234375 0.921875 -3.0625 0.921875q-1.453125 0 -2.609375 -0.65625q-1.140625 -0.65625 -1.796875 -1.859375q-0.65625 -1.203125 -0.65625 -2.78125q0 -1.59375 0.640625 -2.78125q0.640625 -1.203125 1.78125 -1.84375q1.140625 -0.640625 2.640625 -0.640625q1.453125 0 2.5625 0.640625q1.125 0.625 1.734375 1.734375q0.609375 1.109375 0.609375 2.515625zm-1.75 -0.359375q0 -0.96875 -0.4375 -1.671875q-0.421875 -0.703125 -1.171875 -1.0625q-0.734375 -0.359375 -1.625 -0.359375q-1.28125 0 -2.1875 0.828125q-0.90625 0.8125 -1.03125 2.265625l6.453125 0z" fill-rule="nonzero"/><path fill="#bb8ba6" d="m640.4453 35.76622l554.48816 0l0 42.015747l-554.48816 0z" fill-rule="evenodd"/><path stroke="#bb8ba6" stroke-width="1.0" stroke-linejoin="round" stroke-linecap="butt" d="m640.4453 35.76622l554.48816 0l0 42.015747l-554.48816 0z" fill-rule="evenodd"/><path fill="#ffffff" d="m887.2775 62.68622l-3.09375 -5.3125l-2.046875 0l0 5.3125l-1.703125 0l0 -13.0l4.203125 0q1.46875 0 2.484375 0.5q1.015625 0.5 1.515625 1.359375q0.515625 0.859375 0.515625 1.96875q0 1.34375 -0.78125 2.375q-0.78125 1.015625 -2.328125 1.34375l3.265625 5.453125l-2.03125 0zm-5.140625 -6.671875l2.5 0q1.375 0 2.0625 -0.6875q0.6875 -0.6875 0.6875 -1.8125q0 -1.15625 -0.6875 -1.796875q-0.671875 -0.640625 -2.0625 -0.640625l-2.5 0l0 4.9375zm18.702393 -3.546875l0 10.21875l-1.6875 0l0 -1.515625q-0.484375 0.78125 -1.359375 1.234375q-0.875 0.4375 -1.90625 0.4375q-1.203125 0 -2.15625 -0.5q-0.953125 -0.5 -1.5 -1.484375q-0.546875 -0.984375 -0.546875 -2.40625l0 -5.984375l1.671875 0l0 5.765625q0 1.5 0.765625 2.3125q0.765625 0.8125 2.09375 0.8125q1.359375 0 2.140625 -0.828125q0.796875 -0.84375 0.796875 -2.453125l0 -5.609375l1.6875 0zm7.8618774 -0.1875q1.859375 0 3.015625 1.125q1.15625 1.125 1.15625 3.25l0 6.03125l-1.671875 0l0 -5.78125q0 -1.53125 -0.765625 -2.34375q-0.765625 -0.8125 -2.09375 -0.8125q-1.34375 0 -2.140625 0.84375q-0.78125 0.84375 -0.78125 2.4375l0 5.65625l-1.703125 0l0 -10.21875l1.703125 0l0 1.453125q0.5 -0.78125 1.359375 -1.203125q0.875 -0.4375 1.921875 -0.4375zm9.018127 1.578125l0 6.03125q0 0.75 0.3125 1.0625q0.328125 0.296875 1.109375 0.296875l1.25 0l0 1.4375l-1.53125 0q-1.40625 0 -2.125 -0.65625q-0.703125 -0.65625 -0.703125 -2.140625l0 -6.03125l-1.328125 0l0 -1.390625l1.328125 0l0 -2.578125l1.6875 0l0 2.578125l2.671875 0l0 1.390625l-2.671875 0zm5.6033936 -3.0625q-0.484375 0 -0.828125 -0.328125q-0.328125 -0.34375 -0.328125 -0.828125q0 -0.484375 0.328125 -0.8125q0.34375 -0.34375 0.828125 -0.34375q0.46875 0 0.796875 0.34375q0.328125 0.328125 0.328125 0.8125q0 0.484375 -0.328125 0.828125q-0.328125 0.328125 -0.796875 0.328125zm0.828125 1.671875l0 10.21875l-1.703125 0l0 -10.21875l1.703125 0zm15.1831665 -0.1875q1.1875 0 2.125 0.5q0.9375 0.484375 1.46875 1.484375q0.546875 0.984375 0.546875 2.390625l0 6.03125l-1.6875 0l0 -5.78125q0 -1.53125 -0.75 -2.34375q-0.75 -0.8125 -2.046875 -0.8125q-1.3125 0 -2.109375 0.859375q-0.78125 0.84375 -0.78125 2.4375l0 5.640625l-1.671875 0l0 -5.78125q0 -1.53125 -0.765625 -2.34375q-0.75 -0.8125 -2.03125 -0.8125q-1.328125 0 -2.109375 0.859375q-0.78125 0.84375 -0.78125 2.4375l0 5.640625l-1.703125 0l0 -10.21875l1.703125 0l0 1.46875q0.5 -0.796875 1.34375 -1.21875q0.84375 -0.4375 1.875 -0.4375q1.296875 0 2.28125 0.578125q0.984375 0.578125 1.46875 1.6875q0.4375 -1.078125 1.421875 -1.671875q0.984375 -0.59375 2.203125 -0.59375zm16.247192 4.90625q0 0.484375 -0.0625 1.015625l-8.171875 0q0.09375 1.515625 1.03125 2.375q0.953125 0.84375 2.296875 0.84375q1.09375 0 1.828125 -0.515625q0.75 -0.515625 1.046875 -1.375l1.828125 0q-0.40625 1.484375 -1.640625 2.40625q-1.234375 0.921875 -3.0625 0.921875q-1.453125 0 -2.609375 -0.65625q-1.140625 -0.65625 -1.796875 -1.859375q-0.65625 -1.203125 -0.65625 -2.78125q0 -1.59375 0.640625 -2.78125q0.640625 -1.203125 1.78125 -1.84375q1.140625 -0.640625 2.640625 -0.640625q1.453125 0 2.5625 0.640625q1.125 0.625 1.734375 1.734375q0.609375 1.109375 0.609375 2.515625zm-1.75 -0.359375q0 -0.96875 -0.4375 -1.671875q-0.421875 -0.703125 -1.171875 -1.0625q-0.734375 -0.359375 -1.625 -0.359375q-1.28125 0 -2.1875 0.828125q-0.90625 0.8125 -1.03125 2.265625l6.453125 0z" fill-rule="nonzero"/><path fill="#000000" fill-opacity="0.0" d="m43.51983 127.05812l0 0c0 -10.425491 8.45153 -18.877022 18.877018 -18.877022l342.05698 0c5.0065002 0 9.807953 1.9888229 13.3480835 5.5289536c3.5401306 3.5401306 5.5289307 8.341568 5.5289307 13.348068l0 75.50581c0 10.425476 -8.451508 18.877014 -18.877014 18.877014l-342.05698 0c-10.4254875 0 -18.877018 -8.451538 -18.877018 -18.877014z" fill-rule="evenodd"/><path stroke="#8d3aed" stroke-width="1.0" stroke-linejoin="round" stroke-linecap="butt" d="m43.51983 127.05812l0 0c0 -10.425491 8.45153 -18.877022 18.877018 -18.877022l342.05698 0c5.0065002 0 9.807953 1.9888229 13.3480835 5.5289536c3.5401306 3.5401306 5.5289307 8.341568 5.5289307 13.348068l0 75.50581c0 10.425476 -8.451508 18.877014 -18.877014 18.877014l-342.05698 0c-10.4254875 0 -18.877018 -8.451538 -18.877018 -18.877014z" fill-rule="evenodd"/><path fill="#ffffff" d="m185.1739 157.27415l0 11.671875q0 1.953125 -1.203125 3.125q-1.203125 1.15625 -3.171875 1.15625q-2.0 0 -3.203125 -1.1875q-1.203125 -1.1875 -1.203125 -3.25l2.0625 0q0.03125 1.15625 0.609375 1.890625q0.578125 0.71875 1.734375 0.71875q1.15625 0 1.71875 -0.6875q0.5625 -0.703125 0.5625 -1.765625l0 -11.671875l2.09375 0zm9.054657 15.953125q-1.5625 0 -2.796875 -0.546875q-1.234375 -0.5625 -1.9375 -1.546875q-0.703125 -0.984375 -0.71875 -2.28125l2.1875 0q0.125 1.109375 0.921875 1.875q0.796875 0.765625 2.34375 0.765625q1.46875 0 2.3125 -0.734375q0.859375 -0.75 0.859375 -1.90625q0 -0.90625 -0.5 -1.46875q-0.5 -0.5625 -1.25 -0.859375q-0.734375 -0.296875 -2.015625 -0.640625q-1.5625 -0.40625 -2.5 -0.8125q-0.9375 -0.40625 -1.609375 -1.28125q-0.671875 -0.875 -0.671875 -2.34375q0 -1.28125 0.65625 -2.28125q0.671875 -1.0 1.859375 -1.546875q1.1875 -0.546875 2.71875 -0.546875q2.21875 0 3.640625 1.109375q1.421875 1.109375 1.59375 2.953125l-2.265625 0q-0.109375 -0.90625 -0.953125 -1.59375q-0.828125 -0.703125 -2.21875 -0.703125q-1.28125 0 -2.109375 0.671875q-0.8125 0.671875 -0.8125 1.875q0 0.859375 0.484375 1.40625q0.5 0.546875 1.203125 0.828125q0.71875 0.28125 2.015625 0.640625q1.5625 0.4375 2.5 0.859375q0.953125 0.40625 1.625 1.28125q0.6875 0.875 0.6875 2.375q0 1.140625 -0.609375 2.171875q-0.609375 1.015625 -1.8125 1.65625q-1.203125 0.625 -2.828125 0.625zm15.455444 0q-2.203125 0 -4.015625 -1.03125q-1.8125 -1.03125 -2.875 -2.875q-1.046875 -1.84375 -1.046875 -4.15625q0 -2.3125 1.046875 -4.15625q1.0625 -1.84375 2.875 -2.875q1.8125 -1.03125 4.015625 -1.03125q2.21875 0 4.03125 1.03125q1.8125 1.03125 2.84375 2.875q1.046875 1.828125 1.046875 4.15625q0 2.328125 -1.046875 4.171875q-1.03125 1.828125 -2.84375 2.859375q-1.8125 1.03125 -4.03125 1.03125zm0 -1.78125q1.65625 0 2.96875 -0.765625q1.328125 -0.78125 2.078125 -2.203125q0.765625 -1.4375 0.765625 -3.3125q0 -1.90625 -0.765625 -3.3125q-0.75 -1.421875 -2.0625 -2.1875q-1.3125 -0.78125 -2.984375 -0.78125q-1.671875 0 -3.0 0.78125q-1.3125 0.765625 -2.078125 2.1875q-0.75 1.40625 -0.75 3.3125q0 1.875 0.75 3.3125q0.765625 1.421875 2.09375 2.203125q1.328125 0.765625 2.984375 0.765625zm23.05777 1.625l-2.0625 0l-8.28125 -12.578125l0 12.578125l-2.0625 0l0 -15.8125l2.0625 0l8.28125 12.546875l0 -12.546875l2.0625 0l0 15.8125zm12.130432 -9.171875l0 1.734375l-9.046875 0l0 -1.734375l9.046875 0zm12.186691 9.171875l-3.765625 -6.453125l-2.484375 0l0 6.453125l-2.0625 0l0 -15.796875l5.09375 0q1.78125 0 3.015625 0.625q1.234375 0.609375 1.84375 1.65625q0.625 1.03125 0.625 2.375q0 1.625 -0.953125 2.875q-0.9375 1.25 -2.8125 1.65625l3.96875 6.609375l-2.46875 0zm-6.25 -8.109375l3.03125 0q1.671875 0 2.5 -0.828125q0.84375 -0.828125 0.84375 -2.203125q0 -1.40625 -0.828125 -2.171875q-0.8125 -0.78125 -2.515625 -0.78125l-3.03125 0l0 5.984375zm22.259338 -3.0625q0 1.96875 -1.34375 3.28125q-1.34375 1.296875 -4.109375 1.296875l-3.03125 0l0 6.59375l-2.0625 0l0 -15.796875l5.09375 0q2.671875 0 4.0625 1.296875q1.390625 1.296875 1.390625 3.328125zm-5.453125 2.875q1.71875 0 2.53125 -0.734375q0.8125 -0.75 0.8125 -2.140625q0 -2.921875 -3.34375 -2.921875l-3.03125 0l0 5.796875l3.03125 0zm7.2429504 0.390625q0 -2.3125 1.046875 -4.15625q1.046875 -1.84375 2.84375 -2.890625q1.796875 -1.046875 4.0 -1.046875q2.578125 0 4.5 1.25q1.9375 1.25 2.8125 3.53125l-2.46875 0q-0.65625 -1.421875 -1.890625 -2.1875q-1.234375 -0.78125 -2.953125 -0.78125q-1.65625 0 -2.96875 0.78125q-1.3125 0.765625 -2.0625 2.1875q-0.75 1.40625 -0.75 3.3125q0 1.875 0.75 3.296875q0.75 1.421875 2.0625 2.1875q1.3125 0.765625 2.96875 0.765625q1.71875 0 2.953125 -0.75q1.234375 -0.765625 1.890625 -2.1875l2.46875 0q-0.875 2.265625 -2.8125 3.5q-1.921875 1.234375 -4.5 1.234375q-2.203125 0 -4.0 -1.03125q-1.796875 -1.03125 -2.84375 -2.859375q-1.046875 -1.84375 -1.046875 -4.15625z" fill-rule="nonzero"/><path fill="#000000" fill-opacity="0.0" d="m43.51953 258.21713l0 0c0 -11.996841 9.7253685 -21.722214 21.722221 -21.722214l86.88627 0l0 0c5.761093 0 11.286224 2.2885895 15.359924 6.3622894c4.073715 4.0737 6.3622894 9.598831 6.3622894 15.359924l0 274.00436c0 11.996887 -9.725357 21.722229 -21.722214 21.722229l-86.88627 0c-11.996853 0 -21.722221 -9.725342 -21.722221 -21.722229z" fill-rule="evenodd"/><path stroke="#8d3aed" stroke-width="1.0" stroke-linejoin="round" stroke-linecap="butt" d="m43.51953 258.21713l0 0c0 -11.996841 9.7253685 -21.722214 21.722221 -21.722214l86.88627 0l0 0c5.761093 0 11.286224 2.2885895 15.359924 6.3622894c4.073715 4.0737 6.3622894 9.598831 6.3622894 15.359924l0 274.00436c0 11.996887 -9.725357 21.722229 -21.722214 21.722229l-86.88627 0c-11.996853 0 -21.722221 -9.725342 -21.722221 -21.722229z" fill-rule="evenodd"/><path fill="#ffffff" d="m75.32989 401.80743l5.515625 0l0 1.671875l-7.578125 0l0 -15.796875l2.0625 0l0 14.125zm8.787476 -12.765625q-0.59375 0 -1.0 -0.40625q-0.40625 -0.40625 -0.40625 -1.0q0 -0.578125 0.40625 -0.984375q0.40625 -0.40625 1.0 -0.40625q0.5625 0 0.953125 0.40625q0.40625 0.40625 0.40625 0.984375q0 0.59375 -0.40625 1.0q-0.390625 0.40625 -0.953125 0.40625zm1.0 2.015625l0 12.421875l-2.0625 0l0 -12.421875l2.0625 0zm5.5734253 2.3125q0.625 -1.109375 1.84375 -1.8125q1.234375 -0.703125 2.796875 -0.703125q1.671875 0 3.0 0.796875q1.34375 0.796875 2.109375 2.234375q0.78125 1.4375 0.78125 3.34375q0 1.875 -0.78125 3.359375q-0.765625 1.46875 -2.109375 2.28125q-1.34375 0.8125 -3.0 0.8125q-1.609375 0 -2.828125 -0.703125q-1.203125 -0.703125 -1.8125 -1.78125l0 2.28125l-2.0625 0l0 -16.765625l2.0625 0l0 6.65625zm8.421875 3.859375q0 -1.40625 -0.578125 -2.4375q-0.5625 -1.046875 -1.53125 -1.59375q-0.953125 -0.546875 -2.109375 -0.546875q-1.125 0 -2.09375 0.5625q-0.953125 0.546875 -1.53125 1.609375q-0.578125 1.046875 -0.578125 2.421875q0 1.40625 0.578125 2.46875q0.578125 1.046875 1.53125 1.609375q0.96875 0.546875 2.09375 0.546875q1.15625 0 2.109375 -0.546875q0.96875 -0.5625 1.53125 -1.609375q0.578125 -1.0625 0.578125 -2.484375zm6.8937225 -3.875q0.609375 -1.0625 1.8125 -1.78125q1.21875 -0.71875 2.828125 -0.71875q1.65625 0 3.0 0.796875q1.34375 0.796875 2.109375 2.234375q0.78125 1.4375 0.78125 3.34375q0 1.875 -0.78125 3.359375q-0.765625 1.46875 -2.109375 2.28125q-1.34375 0.8125 -3.0 0.8125q-1.59375 0 -2.8125 -0.703125q-1.203125 -0.71875 -1.828125 -1.78125l0 8.171875l-2.0625 0l0 -18.3125l2.0625 0l0 2.296875zm8.421875 3.875q0 -1.40625 -0.578125 -2.4375q-0.5625 -1.046875 -1.53125 -1.59375q-0.953125 -0.546875 -2.109375 -0.546875q-1.125 0 -2.09375 0.5625q-0.953125 0.546875 -1.53125 1.609375q-0.578125 1.046875 -0.578125 2.421875q0 1.40625 0.578125 2.46875q0.578125 1.046875 1.53125 1.609375q0.96875 0.546875 2.09375 0.546875q1.15625 0 2.109375 -0.546875q0.96875 -0.5625 1.53125 -1.609375q0.578125 -1.0625 0.578125 -2.484375zm4.2374725 4.59375q2.875 -2.3125 4.5 -3.796875q1.640625 -1.484375 2.75 -3.09375q1.125 -1.625 1.125 -3.1875q0 -1.46875 -0.71875 -2.3125q-0.703125 -0.859375 -2.28125 -0.859375q-1.546875 0 -2.40625 0.96875q-0.84375 0.953125 -0.90625 2.5625l-2.0 0q0.09375 -2.53125 1.546875 -3.90625q1.453125 -1.390625 3.734375 -1.390625q2.328125 0 3.703125 1.296875q1.3750076 1.28125 1.3750076 3.546875q0 1.875 -1.1250076 3.65625q-1.125 1.78125 -2.546875 3.140625q-1.421875 1.34375 -3.640625 3.125l7.7812576 0l0 1.71875l-10.890633 0l0 -1.46875zm15.683571 -8.46875q0.609375 -1.0625 1.8125 -1.78125q1.21875 -0.71875 2.828125 -0.71875q1.65625 0 3.0 0.796875q1.34375 0.796875 2.109375 2.234375q0.78125 1.4375 0.78125 3.34375q0 1.875 -0.78125 3.359375q-0.765625 1.46875 -2.109375 2.28125q-1.34375 0.8125 -3.0 0.8125q-1.59375 0 -2.8125 -0.703125q-1.203125 -0.71875 -1.828125 -1.78125l0 8.171875l-2.0625 0l0 -18.3125l2.0625 0l0 2.296875zm8.421875 3.875q0 -1.40625 -0.578125 -2.4375q-0.5625 -1.046875 -1.53125 -1.59375q-0.953125 -0.546875 -2.109375 -0.546875q-1.125 0 -2.09375 0.5625q-0.953125 0.546875 -1.53125 1.609375q-0.578125 1.046875 -0.578125 2.421875q0 1.40625 0.578125 2.46875q0.578125 1.046875 1.53125 1.609375q0.96875 0.546875 2.09375 0.546875q1.15625 0 2.109375 -0.546875q0.96875 -0.5625 1.53125 -1.609375q0.578125 -1.0625 0.578125 -2.484375z" fill-rule="nonzero"/><path fill="#000000" fill-opacity="0.0" d="m197.34816 474.08035l0 0c0 -8.822235 7.15184 -15.97406 15.974075 -15.97406l160.61877 0c4.236603 0 8.299683 1.6829529 11.29538 4.6786804c2.9957275 2.9957275 4.678711 7.058777 4.678711 11.29538l0 63.89438c0 8.822205 -7.1518555 15.97406 -15.974091 15.97406l-160.61877 0l0 0c-8.822235 0 -15.974075 -7.1518555 -15.974075 -15.97406z" fill-rule="evenodd"/><path stroke="#8d3aed" stroke-width="1.0" stroke-linejoin="round" stroke-linecap="butt" d="m197.34816 474.08035l0 0c0 -8.822235 7.15184 -15.97406 15.974075 -15.97406l160.61877 0c4.236603 0 8.299683 1.6829529 11.29538 4.6786804c2.9957275 2.9957275 4.678711 7.058777 4.678711 11.29538l0 63.89438c0 8.822205 -7.1518555 15.97406 -15.974091 15.97406l-160.61877 0l0 0c-8.822235 0 -15.974075 -7.1518555 -15.974075 -15.97406z" fill-rule="evenodd"/><path fill="#ffffff" d="m250.33667 499.29004q2.28125 0 3.953125 0.859375q1.671875 0.84375 2.5625 2.421875q0.890625 1.578125 0.890625 3.71875q0 2.140625 -0.890625 3.71875q-0.890625 1.5625 -2.5625 2.390625q-1.671875 0.828125 -3.953125 0.828125l-4.328125 0l0 -13.9375l4.328125 0zm0 12.4375q2.703125 0 4.125 -1.421875q1.421875 -1.4375 1.421875 -4.015625q0 -2.609375 -1.4375 -4.0625q-1.421875 -1.453125 -4.109375 -1.453125l-2.515625 0l0 10.953125l2.515625 0zm9.124359 -4.015625q0 -1.6875 0.671875 -2.953125q0.6875 -1.265625 1.875 -1.96875q1.1875 -0.703125 2.65625 -0.703125q1.4375 0 2.5 0.625q1.0625 0.609375 1.578125 1.5625l0 -2.0l1.84375 0l0 10.953125l-1.84375 0l0 -2.046875q-0.546875 0.96875 -1.625 1.609375q-1.0625 0.625 -2.46875 0.625q-1.46875 0 -2.65625 -0.71875q-1.171875 -0.734375 -1.859375 -2.03125q-0.671875 -1.296875 -0.671875 -2.953125zm9.28125 0.015625q0 -1.234375 -0.5 -2.15625q-0.5 -0.921875 -1.359375 -1.40625q-0.84375 -0.5 -1.859375 -0.5q-1.015625 0 -1.859375 0.484375q-0.84375 0.484375 -1.34375 1.40625q-0.5 0.90625 -0.5 2.15625q0 1.25 0.5 2.1875q0.5 0.921875 1.34375 1.421875q0.84375 0.484375 1.859375 0.484375q1.015625 0 1.859375 -0.484375q0.859375 -0.5 1.359375 -1.421875q0.5 -0.9375 0.5 -2.171875zm7.144989 -3.953125l0 6.453125q0 0.796875 0.328125 1.125q0.34375 0.328125 1.1875 0.328125l1.34375 0l0 1.546875l-1.640625 0q-1.53125 0 -2.296875 -0.703125q-0.75 -0.703125 -0.75 -2.296875l0 -6.453125l-1.421875 0l0 -1.5l1.421875 0l0 -2.765625l1.828125 0l0 2.765625l2.859375 0l0 1.5l-2.859375 0zm4.373749 3.9375q0 -1.6875 0.671875 -2.953125q0.6875 -1.265625 1.875 -1.96875q1.1875 -0.703125 2.65625 -0.703125q1.4375 0 2.5 0.625q1.0625 0.609375 1.578125 1.5625l0 -2.0l1.84375 0l0 10.953125l-1.84375 0l0 -2.046875q-0.546875 0.96875 -1.625 1.609375q-1.0625 0.625 -2.46875 0.625q-1.46875 0 -2.65625 -0.71875q-1.171875 -0.734375 -1.859375 -2.03125q-0.671875 -1.296875 -0.671875 -2.953125zm9.28125 0.015625q0 -1.234375 -0.5 -2.15625q-0.5 -0.921875 -1.359375 -1.40625q-0.84375 -0.5 -1.859375 -0.5q-1.015625 0 -1.859375 0.484375q-0.84375 0.484375 -1.34375 1.40625q-0.5 0.90625 -0.5 2.15625q0 1.25 0.5 2.1875q0.5 0.921875 1.34375 1.421875q0.84375 0.484375 1.859375 0.484375q1.015625 0 1.859375 -0.484375q0.859375 -0.5 1.359375 -1.421875q0.5 -0.9375 0.5 -2.171875zm6.738739 -3.421875q0.5625 -0.984375 1.640625 -1.59375q1.078125 -0.625 2.453125 -0.625q1.484375 0 2.65625 0.703125q1.1875 0.703125 1.859375 1.96875q0.6875 1.265625 0.6875 2.953125q0 1.65625 -0.6875 2.953125q-0.671875 1.296875 -1.859375 2.03125q-1.1875 0.71875 -2.65625 0.71875q-1.40625 0 -2.484375 -0.625q-1.0625 -0.625 -1.609375 -1.578125l0 2.015625l-1.8125 0l0 -14.796875l1.8125 0l0 5.875zm7.4375 3.40625q0 -1.25 -0.5 -2.15625q-0.5 -0.921875 -1.359375 -1.40625q-0.84375 -0.484375 -1.859375 -0.484375q-1.0 0 -1.859375 0.5q-0.84375 0.484375 -1.359375 1.421875q-0.5 0.921875 -0.5 2.140625q0 1.234375 0.5 2.171875q0.515625 0.921875 1.359375 1.421875q0.859375 0.484375 1.859375 0.484375q1.015625 0 1.859375 -0.484375q0.859375 -0.5 1.359375 -1.421875q0.5 -0.9375 0.5 -2.1875zm3.582489 0q0 -1.6875 0.671875 -2.953125q0.6875 -1.265625 1.875 -1.96875q1.1875 -0.703125 2.65625 -0.703125q1.4375 0 2.5 0.625q1.0625 0.609375 1.578125 1.5625l0 -2.0l1.84375 0l0 10.953125l-1.84375 0l0 -2.046875q-0.546875 0.96875 -1.625 1.609375q-1.0625 0.625 -2.46875 0.625q-1.46875 0 -2.65625 -0.71875q-1.171875 -0.734375 -1.859375 -2.03125q-0.671875 -1.296875 -0.671875 -2.953125zm9.28125 0.015625q0 -1.234375 -0.5 -2.15625q-0.5 -0.921875 -1.359375 -1.40625q-0.84375 -0.5 -1.859375 -0.5q-1.015625 0 -1.859375 0.484375q-0.84375 0.484375 -1.34375 1.40625q-0.5 0.90625 -0.5 2.15625q0 1.25 0.5 2.1875q0.5 0.921875 1.34375 1.421875q0.84375 0.484375 1.859375 0.484375q1.015625 0 1.859375 -0.484375q0.859375 -0.5 1.359375 -1.421875q0.5 -0.9375 0.5 -2.171875zm8.801239 5.6875q-1.265625 0 -2.265625 -0.4375q-1.0 -0.4375 -1.578125 -1.203125q-0.578125 -0.765625 -0.640625 -1.765625l1.875 0q0.09375 0.8125 0.78125 1.34375q0.6875 0.515625 1.8125 0.515625q1.03125 0 1.625 -0.453125q0.609375 -0.46875 0.609375 -1.171875q0 -0.71875 -0.640625 -1.0625q-0.640625 -0.359375 -1.984375 -0.6875q-1.21875 -0.328125 -1.984375 -0.65625q-0.765625 -0.328125 -1.328125 -0.96875q-0.546875 -0.65625 -0.546875 -1.71875q0 -0.84375 0.5 -1.53125q0.5 -0.703125 1.421875 -1.109375q0.921875 -0.421875 2.109375 -0.421875q1.8125 0 2.921875 0.921875q1.125 0.921875 1.203125 2.515625l-1.8125 0q-0.0625 -0.859375 -0.6875 -1.375q-0.625 -0.515625 -1.6875 -0.515625q-0.984375 0 -1.5625 0.421875q-0.578125 0.40625 -0.578125 1.09375q0 0.53125 0.34375 0.890625q0.359375 0.34375 0.875 0.5625q0.53125 0.203125 1.484375 0.46875q1.171875 0.3125 1.90625 0.625q0.75 0.3125 1.28125 0.9375q0.53125 0.609375 0.546875 1.609375q0 0.90625 -0.5 1.625q-0.5 0.71875 -1.421875 1.140625q-0.90625 0.40625 -2.078125 0.40625zm16.565002 -6.09375q0 0.53125 -0.0625 1.109375l-8.765625 0q0.09375 1.609375 1.109375 2.53125q1.015625 0.90625 2.453125 0.90625q1.171875 0 1.96875 -0.546875q0.796875 -0.546875 1.109375 -1.46875l1.953125 0q-0.4375 1.578125 -1.765625 2.578125q-1.3125 0.984375 -3.265625 0.984375q-1.5625 0 -2.796875 -0.703125q-1.21875 -0.703125 -1.921875 -1.984375q-0.703125 -1.296875 -0.703125 -3.0q0 -1.703125 0.671875 -2.984375q0.6875 -1.28125 1.921875 -1.96875q1.234375 -0.6875 2.828125 -0.6875q1.5625 0 2.75 0.6875q1.203125 0.671875 1.859375 1.859375q0.65625 1.1875 0.65625 2.6875zm-1.890625 -0.375q0 -1.03125 -0.46875 -1.78125q-0.453125 -0.75 -1.25 -1.140625q-0.78125 -0.390625 -1.734375 -0.390625q-1.390625 0 -2.359375 0.875q-0.96875 0.875 -1.109375 2.4375l6.921875 0z" fill-rule="nonzero"/><path fill="#000000" fill-opacity="0.0" d="m194.38077 276.18436l0 0c0 -17.673462 14.327164 -32.000626 32.00064 -32.000626l164.9436 0c8.487091 0 16.626587 3.3714905 22.627869 9.372772c6.0012817 6.0012665 9.372772 14.140762 9.372772 22.627853l0 127.99872c0 17.673492 -14.327179 32.00064 -32.00064 32.00064l-164.9436 0l0 0c-17.673477 0 -32.00064 -14.327148 -32.00064 -32.00064z" fill-rule="evenodd"/><path stroke="#8d3aed" stroke-width="1.0" stroke-linejoin="round" stroke-linecap="butt" d="m194.38077 276.18436l0 0c0 -17.673462 14.327164 -32.000626 32.00064 -32.000626l164.9436 0c8.487091 0 16.626587 3.3714905 22.627869 9.372772c6.0012817 6.0012665 9.372772 14.140762 9.372772 22.627853l0 127.99872c0 17.673492 -14.327179 32.00064 -32.00064 32.00064l-164.9436 0l0 0c-17.673477 0 -32.00064 -14.327148 -32.00064 -32.00064z" fill-rule="evenodd"/><path fill="#ffffff" d="m245.73352 334.2456l0 1.28125l-3.296875 0l0 10.796875l-1.5625 0l0 -10.796875l-3.3125 0l0 -1.28125l8.171875 0zm3.515091 4.125q0.421875 -0.8125 1.1875 -1.265625q0.78125 -0.453125 1.890625 -0.453125l0 1.625l-0.421875 0q-2.65625 0 -2.65625 2.890625l0 5.15625l-1.578125 0l0 -9.5l1.578125 0l0 1.546875zm4.3070984 3.171875q0 -1.453125 0.578125 -2.546875q0.59375 -1.109375 1.625 -1.71875q1.0312347 -0.609375 2.2968597 -0.609375q1.25 0 2.15625 0.546875q0.921875 0.53125 1.375 1.34375l0 -1.734375l1.59375 0l0 9.5l-1.59375 0l0 -1.765625q-0.46875 0.828125 -1.390625 1.375q-0.921875 0.546875 -2.15625 0.546875q-1.265625 0 -2.2968597 -0.625q-1.015625 -0.625 -1.609375 -1.75q-0.578125 -1.125 -0.578125 -2.5625zm8.031235 0.015625q0 -1.078125 -0.4375 -1.875q-0.421875 -0.796875 -1.15625 -1.21875q-0.734375 -0.421875 -1.625 -0.421875q-0.890625 0 -1.625 0.421875q-0.71875 0.40625 -1.1562347 1.203125q-0.421875 0.796875 -0.421875 1.875q0 1.09375 0.421875 1.90625q0.43748474 0.796875 1.1562347 1.21875q0.734375 0.421875 1.625 0.421875q0.890625 0 1.625 -0.421875q0.734375 -0.421875 1.15625 -1.21875q0.4375 -0.8125 0.4375 -1.890625zm8.88562 -4.90625q1.734375 0 2.8125 1.046875q1.078125 1.046875 1.078125 3.03125l0 5.59375l-1.5625 0l0 -5.375q0 -1.421875 -0.71875 -2.171875q-0.703125 -0.75 -1.9375 -0.75q-1.234375 0 -1.984375 0.78125q-0.734375 0.78125 -0.734375 2.265625l0 5.25l-1.578125 0l0 -9.5l1.578125 0l0 1.359375q0.46875 -0.734375 1.265625 -1.125q0.8125 -0.40625 1.78125 -0.40625zm9.839935 9.828125q-1.09375 0 -1.96875 -0.375q-0.859375 -0.375 -1.375 -1.03125q-0.5 -0.671875 -0.546875 -1.546875l1.625 0q0.078125 0.71875 0.671875 1.171875q0.59375 0.453125 1.5625 0.453125q0.90625 0 1.421875 -0.390625q0.53125 -0.40625 0.53125 -1.015625q0 -0.625 -0.5625 -0.921875q-0.546875 -0.3125 -1.71875 -0.609375q-1.046875 -0.28125 -1.71875 -0.5625q-0.671875 -0.28125 -1.15625 -0.84375q-0.46875 -0.5625 -0.46875 -1.484375q0 -0.734375 0.4375 -1.328125q0.4375 -0.609375 1.234375 -0.96875q0.796875 -0.359375 1.8125 -0.359375q1.578125 0 2.546875 0.796875q0.96875 0.796875 1.046875 2.1875l-1.578125 0q-0.046875 -0.75 -0.59375 -1.1875q-0.546875 -0.453125 -1.46875 -0.453125q-0.84375 0 -1.359375 0.359375q-0.5 0.359375 -0.5 0.953125q0 0.46875 0.296875 0.78125q0.3125 0.296875 0.765625 0.484375q0.46875 0.171875 1.28125 0.390625q1.015625 0.28125 1.65625 0.5625q0.640625 0.265625 1.09375 0.796875q0.46875 0.53125 0.484375 1.40625q0 0.78125 -0.4375 1.40625q-0.421875 0.625 -1.21875 0.984375q-0.78125 0.34375 -1.796875 0.34375zm5.092102 -4.9375q0 -1.453125 0.578125 -2.546875q0.59375 -1.109375 1.625 -1.71875q1.03125 -0.609375 2.296875 -0.609375q1.25 0 2.15625 0.546875q0.921875 0.53125 1.375 1.34375l0 -1.734375l1.59375 0l0 9.5l-1.59375 0l0 -1.765625q-0.46875 0.828125 -1.390625 1.375q-0.921875 0.546875 -2.15625 0.546875q-1.265625 0 -2.296875 -0.625q-1.015625 -0.625 -1.609375 -1.75q-0.578125 -1.125 -0.578125 -2.5625zm8.03125 0.015625q0 -1.078125 -0.4375 -1.875q-0.421875 -0.796875 -1.15625 -1.21875q-0.734375 -0.421875 -1.625 -0.421875q-0.890625 0 -1.625 0.421875q-0.71875 0.40625 -1.15625 1.203125q-0.421875 0.796875 -0.421875 1.875q0 1.09375 0.421875 1.90625q0.4375 0.796875 1.15625 1.21875q0.734375 0.421875 1.625 0.421875q0.890625 0 1.625 -0.421875q0.734375 -0.421875 1.15625 -1.21875q0.4375 -0.8125 0.4375 -1.890625zm3.682495 0q0 -1.46875 0.578125 -2.5625q0.59375 -1.109375 1.640625 -1.71875q1.046875 -0.609375 2.40625 -0.609375q1.75 0 2.875 0.859375q1.140625 0.84375 1.5 2.34375l-1.6875 0q-0.25 -0.859375 -0.953125 -1.359375q-0.703125 -0.5 -1.734375 -0.5q-1.359375 0 -2.1875 0.921875q-0.828125 0.921875 -0.828125 2.625q0 1.71875 0.828125 2.65625q0.828125 0.9375 2.1875 0.9375q1.03125 0 1.71875 -0.484375q0.703125 -0.5 0.96875 -1.390625l1.6875 0q-0.375 1.453125 -1.515625 2.328125q-1.140625 0.875 -2.859375 0.875q-1.359375 0 -2.40625 -0.609375q-1.046875 -0.609375 -1.640625 -1.71875q-0.578125 -1.109375 -0.578125 -2.59375zm13.018127 -3.4375l0 5.609375q0 0.6875 0.296875 0.984375q0.296875 0.28125 1.03125 0.28125l1.15625 0l0 1.328125l-1.421875 0q-1.3125 0 -1.96875 -0.609375q-0.65625 -0.609375 -0.65625 -1.984375l0 -5.609375l-1.234375 0l0 -1.296875l1.234375 0l0 -2.390625l1.5625 0l0 2.390625l2.484375 0l0 1.296875l-2.484375 0zm5.2136536 -2.828125q-0.453125 0 -0.765625 -0.3125q-0.3125 -0.3125 -0.3125 -0.765625q0 -0.453125 0.3125 -0.765625q0.3125 -0.3125 0.765625 -0.3125q0.421875 0 0.71875 0.3125q0.3125 0.3125 0.3125 0.765625q0 0.453125 -0.3125 0.765625q-0.296875 0.3125 -0.71875 0.3125zm0.75 1.53125l0 9.5l-1.578125 0l0 -9.5l1.578125 0zm6.8251953 9.65625q-1.328125 0 -2.421875 -0.609375q-1.078125 -0.609375 -1.6875 -1.71875q-0.609375 -1.125 -0.609375 -2.59375q0 -1.453125 0.625 -2.5625q0.640625 -1.125 1.71875 -1.71875q1.09375 -0.609375 2.453125 -0.609375q1.34375 0 2.4375 0.609375q1.09375 0.59375 1.71875 1.703125q0.640625 1.109375 0.640625 2.578125q0 1.46875 -0.65625 2.59375q-0.640625 1.109375 -1.75 1.71875q-1.109375 0.609375 -2.46875 0.609375zm0 -1.390625q0.859375 0 1.59375 -0.390625q0.75 -0.40625 1.203125 -1.203125q0.46875 -0.796875 0.46875 -1.9375q0 -1.140625 -0.453125 -1.9375q-0.453125 -0.796875 -1.1875 -1.1875q-0.71875 -0.390625 -1.5625 -0.390625q-0.875 0 -1.59375 0.390625q-0.71875 0.390625 -1.15625 1.1875q-0.421875 0.796875 -0.421875 1.9375q0 1.15625 0.421875 1.953125q0.421875 0.796875 1.125 1.1875q0.71875 0.390625 1.5625 0.390625zm11.57431 -8.4375q1.734375 0 2.8125 1.046875q1.078125 1.046875 1.078125 3.03125l0 5.59375l-1.5625 0l0 -5.375q0 -1.421875 -0.71875 -2.171875q-0.703125 -0.75 -1.9375 -0.75q-1.234375 0 -1.984375 0.78125q-0.734375 0.78125 -0.734375 2.265625l0 5.25l-1.578125 0l0 -9.5l1.578125 0l0 1.359375q0.46875 -0.734375 1.265625 -1.125q0.8125 -0.40625 1.78125 -0.40625zm19.169647 1.125q0 1.515625 -1.03125 2.515625q-1.03125 0.984375 -3.140625 0.984375l-2.328125 0l0 5.046875l-1.578125 0l0 -12.078125l3.90625 0q2.046875 0 3.109375 0.984375q1.0625 0.984375 1.0625 2.546875zm-4.171875 2.203125q1.3125 0 1.9375 -0.5625q0.625 -0.578125 0.625 -1.640625q0 -2.234375 -2.5625 -2.234375l-2.328125 0l0 4.4375l2.328125 0zm10.267303 6.5q-1.328125 0 -2.421875 -0.609375q-1.078125 -0.609375 -1.6875 -1.71875q-0.609375 -1.125 -0.609375 -2.59375q0 -1.453125 0.625 -2.5625q0.640625 -1.125 1.71875 -1.71875q1.09375 -0.609375 2.453125 -0.609375q1.34375 0 2.4375 0.609375q1.09375 0.59375 1.71875 1.703125q0.640625 1.109375 0.640625 2.578125q0 1.46875 -0.65625 2.59375q-0.640625 1.109375 -1.75 1.71875q-1.109375 0.609375 -2.46875 0.609375zm0 -1.390625q0.859375 0 1.59375 -0.390625q0.75 -0.40625 1.203125 -1.203125q0.46875 -0.796875 0.46875 -1.9375q0 -1.140625 -0.453125 -1.9375q-0.453125 -0.796875 -1.1875 -1.1875q-0.71875 -0.390625 -1.5625 -0.390625q-0.875 0 -1.59375 0.390625q-0.71875 0.390625 -1.15625 1.1875q-0.421875 0.796875 -0.421875 1.9375q0 1.15625 0.421875 1.953125q0.421875 0.796875 1.125 1.1875q0.71875 0.390625 1.5625 0.390625zm11.089935 1.390625q-1.328125 0 -2.421875 -0.609375q-1.078125 -0.609375 -1.6875 -1.71875q-0.609375 -1.125 -0.609375 -2.59375q0 -1.453125 0.625 -2.5625q0.640625 -1.125 1.71875 -1.71875q1.09375 -0.609375 2.453125 -0.609375q1.34375 0 2.4375 0.609375q1.09375 0.59375 1.71875 1.703125q0.640625 1.109375 0.640625 2.578125q0 1.46875 -0.65625 2.59375q-0.640625 1.109375 -1.75 1.71875q-1.109375 0.609375 -2.46875 0.609375zm0 -1.390625q0.859375 0 1.59375 -0.390625q0.75 -0.40625 1.203125 -1.203125q0.46875 -0.796875 0.46875 -1.9375q0 -1.140625 -0.453125 -1.9375q-0.453125 -0.796875 -1.1875 -1.1875q-0.71875 -0.390625 -1.5625 -0.390625q-0.875 0 -1.59375 0.390625q-0.71875 0.390625 -1.15625 1.1875q-0.421875 0.796875 -0.421875 1.9375q0 1.15625 0.421875 1.953125q0.421875 0.796875 1.125 1.1875q0.71875 0.390625 1.5625 0.390625zm8.527435 -11.59375l0 12.828125l-1.578125 0l0 -12.828125l1.578125 0z" fill-rule="nonzero"/><path fill="#000000" fill-opacity="0.0" d="m640.44586 193.79143l0 0c0 -38.567932 31.265503 -69.83342 69.833435 -69.83342l407.82922 0c18.520996 0 36.283447 7.357422 49.37964 20.453735c13.096313 13.096298 20.453735 30.858704 20.453735 49.379684l0 279.32526c0 38.567932 -31.26538 69.833435 -69.833374 69.833435l-407.82922 0l0 0c-38.567932 0 -69.833435 -31.265503 -69.833435 -69.833435z" fill-rule="evenodd"/><path stroke="#bb8ba6" stroke-width="1.0" stroke-linejoin="round" stroke-linecap="butt" d="m640.44586 193.79143l0 0c0 -38.567932 31.265503 -69.83342 69.833435 -69.83342l407.82922 0c18.520996 0 36.283447 7.357422 49.37964 20.453735c13.096313 13.096298 20.453735 30.858704 20.453735 49.379684l0 279.32526c0 38.567932 -31.26538 69.833435 -69.833374 69.833435l-407.82922 0l0 0c-38.567932 0 -69.833435 -31.265503 -69.833435 -69.833435z" fill-rule="evenodd"/><path fill="#ffffff" d="m811.3644 278.42032l-7.28125 25.09375l-3.671875 0l-5.828125 -20.203125l-6.046875 20.203125l-3.640625 0.03125l-7.015625 -25.125l3.484375 0l5.484375 21.28125l6.046875 -21.28125l3.671875 0l5.75 21.203125l5.515625 -21.203125l3.53125 0zm2.3703613 15.15625q0 -3.015625 1.21875 -5.296875q1.234375 -2.296875 3.375 -3.546875q2.140625 -1.265625 4.765625 -1.265625q2.59375 0 4.5 1.125q1.90625 1.109375 2.84375 2.796875l0 -3.609375l3.3125 0l0 19.734375l-3.3125 0l0 -3.671875q-0.96875 1.734375 -2.90625 2.875q-1.921875 1.125 -4.46875 1.125q-2.625 0 -4.75 -1.296875q-2.125 -1.296875 -3.359375 -3.640625q-1.21875 -2.34375 -1.21875 -5.328125zm16.703125 0.03125q0 -2.21875 -0.90625 -3.875q-0.890625 -1.65625 -2.421875 -2.53125q-1.53125 -0.890625 -3.359375 -0.890625q-1.84375 0 -3.359375 0.859375q-1.5 0.859375 -2.40625 2.515625q-0.90625 1.65625 -0.90625 3.890625q0 2.265625 0.90625 3.953125q0.90625 1.671875 2.40625 2.546875q1.515625 0.875 3.359375 0.875q1.828125 0 3.359375 -0.875q1.53125 -0.875 2.421875 -2.546875q0.90625 -1.6875 0.90625 -3.921875zm15.835999 10.234375q-2.265625 0 -4.0625 -0.765625q-1.796875 -0.78125 -2.84375 -2.171875q-1.046875 -1.390625 -1.15625 -3.1875l3.390625 0q0.140625 1.484375 1.375 2.421875q1.25 0.921875 3.265625 0.921875q1.875 0 2.953125 -0.828125q1.078125 -0.828125 1.078125 -2.078125q0 -1.296875 -1.15625 -1.921875q-1.140625 -0.640625 -3.5625 -1.25q-2.1875 -0.578125 -3.578125 -1.171875q-1.390625 -0.59375 -2.375 -1.765625q-0.984375 -1.171875 -0.984375 -3.078125q0 -1.515625 0.890625 -2.765625q0.90625 -1.265625 2.5625 -2.0q1.65625 -0.734375 3.78125 -0.734375q3.265625 0 5.28125 1.65625q2.015625 1.65625 2.171875 4.53125l-3.28125 0q-0.109375 -1.546875 -1.25 -2.484375q-1.125 -0.9375 -3.03125 -0.9375q-1.765625 0 -2.8125 0.765625q-1.046875 0.75 -1.046875 1.96875q0 0.96875 0.625 1.609375q0.640625 0.625 1.59375 1.0q0.953125 0.375 2.640625 0.84375q2.125 0.578125 3.453125 1.140625q1.34375 0.5625 2.296875 1.6875q0.953125 1.109375 0.984375 2.90625q0 1.609375 -0.90625 2.90625q-0.890625 1.296875 -2.53125 2.046875q-1.640625 0.734375 -3.765625 0.734375zm35.542053 -20.421875q2.296875 0 4.09375 0.953125q1.8125 0.953125 2.84375 2.875q1.046875 1.90625 1.046875 4.640625l0 11.625l-3.234375 0l0 -11.15625q0 -2.953125 -1.46875 -4.515625q-1.453125 -1.578125 -3.9375 -1.578125q-2.546875 0 -4.0625 1.640625q-1.515625 1.640625 -1.515625 4.734375l0 10.875l-3.234375 0l0 -11.15625q0 -2.953125 -1.46875 -4.515625q-1.453125 -1.578125 -3.9375 -1.578125q-2.546875 0 -4.0625 1.640625q-1.515625 1.640625 -1.515625 4.734375l0 10.875l-3.28125 0l0 -19.734375l3.28125 0l0 2.84375q0.96875 -1.546875 2.609375 -2.375q1.640625 -0.828125 3.625 -0.828125q2.484375 0 4.390625 1.125q1.90625 1.109375 2.84375 3.265625q0.828125 -2.078125 2.734375 -3.234375q1.90625 -1.15625 4.25 -1.15625zm36.17639 20.09375l-5.96875 -10.265625l-3.96875 0l0 10.265625l-3.28125 0l0 -25.09375l8.109375 0q2.84375 0 4.796875 0.984375q1.96875 0.96875 2.9375 2.625q0.96875 1.640625 0.96875 3.765625q0 2.59375 -1.5 4.578125q-1.484375 1.984375 -4.46875 2.625l6.296875 10.515625l-3.921875 0zm-9.9375 -12.890625l4.828125 0q2.65625 0 3.984375 -1.3125q1.34375 -1.3125 1.34375 -3.515625q0 -2.21875 -1.3125 -3.4375q-1.3125 -1.234375 -4.015625 -1.234375l-4.828125 0l0 9.5zm36.10675 -6.84375l0 19.734375l-3.28125 0l0 -2.921875q-0.921875 1.515625 -2.609375 2.359375q-1.671875 0.84375 -3.6875 0.84375q-2.296875 0 -4.140625 -0.953125q-1.828125 -0.953125 -2.890625 -2.859375q-1.0625 -1.90625 -1.0625 -4.640625l0 -11.5625l3.234375 0l0 11.125q0 2.921875 1.46875 4.484375q1.484375 1.5625 4.046875 1.5625q2.625 0 4.125 -1.609375q1.515625 -1.625 1.515625 -4.71875l0 -10.84375l3.28125 0zm15.165039 -0.359375q3.59375 0 5.828125 2.1875q2.234375 2.171875 2.234375 6.28125l0 11.625l-3.25 0l0 -11.15625q0 -2.953125 -1.484375 -4.515625q-1.46875 -1.578125 -4.015625 -1.578125q-2.59375 0 -4.125 1.625q-1.53125 1.625 -1.53125 4.71875l0 10.90625l-3.28125 0l0 -19.734375l3.28125 0l0 2.8125q0.96875 -1.515625 2.640625 -2.34375q1.6875 -0.828125 3.703125 -0.828125zm17.414978 3.0625l0 11.625q0 1.453125 0.609375 2.046875q0.609375 0.59375 2.125 0.59375l2.421875 0l0 2.765625l-2.953125 0q-2.734375 0 -4.109375 -1.25q-1.375 -1.265625 -1.375 -4.15625l0 -11.625l-2.546875 0l0 -2.703125l2.546875 0l0 -4.96875l3.28125 0l0 4.96875l5.15625 0l0 2.703125l-5.15625 0zm10.807129 -5.90625q-0.9375 0 -1.59375 -0.640625q-0.640625 -0.65625 -0.640625 -1.578125q0 -0.9375 0.640625 -1.578125q0.65625 -0.65625 1.59375 -0.65625q0.890625 0 1.515625 0.65625q0.640625 0.640625 0.640625 1.578125q0 0.921875 -0.640625 1.578125q-0.625 0.640625 -1.515625 0.640625zm1.578125 3.203125l0 19.734375l-3.28125 0l0 -19.734375l3.28125 0zm29.309143 -0.359375q2.296875 0 4.09375 0.953125q1.812439 0.953125 2.843689 2.875q1.046875 1.90625 1.046875 4.640625l0 11.625l-3.234314 0l0 -11.15625q0 -2.953125 -1.46875 -4.515625q-1.453125 -1.578125 -3.9375 -1.578125q-2.546875 0 -4.0625 1.640625q-1.515625 1.640625 -1.515625 4.734375l0 10.875l-3.234375 0l0 -11.15625q0 -2.953125 -1.46875 -4.515625q-1.453125 -1.578125 -3.9375 -1.578125q-2.546875 0 -4.0625 1.640625q-1.515625 1.640625 -1.515625 4.734375l0 10.875l-3.28125 0l0 -19.734375l3.28125 0l0 2.84375q0.96875 -1.546875 2.609375 -2.375q1.640625 -0.828125 3.625 -0.828125q2.484375 0 4.390625 1.125q1.90625 1.109375 2.84375 3.265625q0.828125 -2.078125 2.734375 -3.234375q1.90625 -1.15625 4.25 -1.15625zm31.345642 9.46875q0 0.9375 -0.109375 1.984375l-15.765625 0q0.1875 2.921875 2.0 4.5625q1.828125 1.625 4.40625 1.625q2.125 0 3.546875 -0.984375q1.421875 -0.984375 2.0 -2.640625l3.53125 0q-0.796875 2.84375 -3.171875 4.625q-2.375 1.78125 -5.90625 1.78125q-2.796875 0 -5.015625 -1.265625q-2.21875 -1.265625 -3.484375 -3.578125q-1.25 -2.328125 -1.25 -5.390625q0 -3.046875 1.21875 -5.34375q1.234375 -2.3125 3.4375 -3.546875q2.21875 -1.25 5.09375 -1.25q2.8125 0 4.96875 1.21875q2.171875 1.21875 3.328125 3.375q1.171875 2.140625 1.171875 4.828125zm-3.375 -0.671875q0 -1.875 -0.828125 -3.21875q-0.828125 -1.359375 -2.25 -2.0625q-1.421875 -0.703125 -3.15625 -0.703125q-2.484375 0 -4.234375 1.59375q-1.734375 1.578125 -1.984375 4.390625l12.453125 0z" fill-rule="nonzero"/><path fill="#ffffff" d="m906.18005 337.5922q0.9375 -5.265625 5.078125 -5.265625q0.96875 0 1.734375 0.34375q0.78125 0.34375 1.765625 0.984375q0.859375 0.546875 1.40625 0.796875q0.5625 0.25 1.171875 0.25q0.9375 0 1.609375 -0.625q0.671875 -0.625 0.8125 -1.703125l2.453125 0q-0.90625 5.25 -5.125 5.25q-0.9375 0 -1.65625 -0.328125q-0.71875 -0.328125 -1.765625 -0.96875q-0.859375 -0.546875 -1.40625 -0.8125q-0.53125 -0.265625 -1.21875 -0.265625q-0.9375 0 -1.625 0.625q-0.671875 0.625 -0.8125 1.71875l-2.421875 0z" fill-rule="nonzero"/><path fill="#ffffff" d="m785.14026 389.76407q-2.484375 0 -4.453125 -0.875q-1.96875 -0.890625 -3.078125 -2.453125q-1.109375 -1.5625 -1.15625 -3.625l3.5 0q0.171875 1.765625 1.453125 2.984375q1.28125 1.203125 3.734375 1.203125q2.328125 0 3.671875 -1.171875q1.359375 -1.171875 1.359375 -3.015625q0 -1.4375 -0.796875 -2.328125q-0.78125 -0.90625 -1.96875 -1.375q-1.1875 -0.46875 -3.203125 -1.0q-2.484375 -0.65625 -3.984375 -1.296875q-1.5 -0.65625 -2.5625 -2.03125q-1.046875 -1.390625 -1.046875 -3.734375q0 -2.046875 1.03125 -3.625q1.046875 -1.59375 2.9375 -2.453125q1.890625 -0.875 4.34375 -0.875q3.53125 0 5.78125 1.765625q2.25 1.765625 2.53125 4.6875l-3.59375 0q-0.1875 -1.4375 -1.515625 -2.53125q-1.328125 -1.109375 -3.53125 -1.109375q-2.046875 0 -3.34375 1.0625q-1.296875 1.0625 -1.296875 2.96875q0 1.375 0.765625 2.234375q0.78125 0.859375 1.90625 1.3125q1.140625 0.453125 3.1875 1.03125q2.484375 0.6875 4.0 1.359375q1.515625 0.65625 2.59375 2.046875q1.078125 1.375 1.078125 3.75q0 1.84375 -0.96875 3.46875q-0.96875 1.609375 -2.890625 2.625q-1.90625 1.0 -4.484375 1.0zm17.163208 -17.28125l0 11.625q0 1.453125 0.609375 2.046875q0.609375 0.59375 2.125 0.59375l2.421875 0l0 2.765625l-2.953125 0q-2.734375 0 -4.109375 -1.25q-1.375 -1.265625 -1.375 -4.15625l0 -11.625l-2.546875 0l0 -2.703125l2.546875 0l0 -4.96875l3.28125 0l0 4.96875l5.15625 0l0 2.703125l-5.15625 0zm7.885254 7.09375q0 -3.015625 1.21875 -5.296875q1.234375 -2.296875 3.375 -3.546875q2.140625 -1.265625 4.765625 -1.265625q2.59375 0 4.5 1.125q1.90625 1.109375 2.84375 2.796875l0 -3.609375l3.3125 0l0 19.734375l-3.3125 0l0 -3.671875q-0.96875 1.734375 -2.90625 2.875q-1.921875 1.125 -4.46875 1.125q-2.625 0 -4.75 -1.296875q-2.125 -1.296875 -3.359375 -3.640625q-1.21875 -2.34375 -1.21875 -5.328125zm16.703125 0.03125q0 -2.21875 -0.90625 -3.875q-0.890625 -1.65625 -2.421875 -2.53125q-1.53125 -0.890625 -3.359375 -0.890625q-1.84375 0 -3.359375 0.859375q-1.5 0.859375 -2.40625 2.515625q-0.90625 1.65625 -0.90625 3.890625q0 2.265625 0.90625 3.953125q0.90625 1.671875 2.40625 2.546875q1.515625 0.875 3.359375 0.875q1.828125 0 3.359375 -0.875q1.53125 -0.875 2.421875 -2.546875q0.90625 -1.6875 0.90625 -3.921875zm12.851685 -7.125l0 11.625q0 1.453125 0.609375 2.046875q0.609375 0.59375 2.125 0.59375l2.421875 0l0 2.765625l-2.953125 0q-2.734375 0 -4.109375 -1.25q-1.375 -1.265625 -1.375 -4.15625l0 -11.625l-2.546875 0l0 -2.703125l2.546875 0l0 -4.96875l3.28125 0l0 4.96875l5.15625 0l0 2.703125l-5.15625 0zm27.104004 6.40625q0 0.9375 -0.109375 1.984375l-15.765625 0q0.1875 2.921875 2.0 4.5625q1.828125 1.625 4.40625 1.625q2.125 0 3.546875 -0.984375q1.421875 -0.984375 2.0 -2.640625l3.53125 0q-0.796875 2.84375 -3.171875 4.625q-2.375 1.78125 -5.90625 1.78125q-2.796875 0 -5.015625 -1.265625q-2.21875 -1.265625 -3.484375 -3.578125q-1.25 -2.328125 -1.25 -5.390625q0 -3.046875 1.21875 -5.34375q1.234375 -2.3125 3.4375 -3.546875q2.21875 -1.25 5.09375 -1.25q2.8125 0 4.96875 1.21875q2.171875 1.21875 3.328125 3.375q1.171875 2.140625 1.171875 4.828125zm-3.375 -0.671875q0 -1.875 -0.828125 -3.21875q-0.828125 -1.359375 -2.25 -2.0625q-1.421875 -0.703125 -3.15625 -0.703125q-2.484375 0 -4.234375 1.59375q-1.734375 1.578125 -1.984375 4.390625l12.453125 0zm32.76013 -13.796875l0 2.671875l-6.84375 0l0 22.421875l-3.28125 0l0 -22.421875l-6.875 0l0 -2.671875l17.0 0zm7.304138 8.5625q0.859375 -1.6875 2.453125 -2.625q1.609375 -0.9375 3.921875 -0.9375l0 3.390625l-0.859375 0q-5.515625 0 -5.515625 5.96875l0 10.734375l-3.28125 0l0 -19.734375l3.28125 0l0 3.203125zm8.9279785 6.59375q0 -3.015625 1.21875 -5.296875q1.234375 -2.296875 3.375 -3.546875q2.140625 -1.265625 4.765625 -1.265625q2.59375 0 4.5 1.125q1.90625 1.109375 2.84375 2.796875l0 -3.609375l3.3125 0l0 19.734375l-3.3125 0l0 -3.671875q-0.96875 1.734375 -2.90625 2.875q-1.921875 1.125 -4.46875 1.125q-2.625 0 -4.75 -1.296875q-2.125 -1.296875 -3.359375 -3.640625q-1.21875 -2.34375 -1.21875 -5.328125zm16.703125 0.03125q0 -2.21875 -0.90625 -3.875q-0.890625 -1.65625 -2.421875 -2.53125q-1.53125 -0.890625 -3.359375 -0.890625q-1.84375 0 -3.359375 0.859375q-1.5 0.859375 -2.40625 2.515625q-0.90625 1.65625 -0.90625 3.890625q0 2.265625 0.90625 3.953125q0.90625 1.671875 2.40625 2.546875q1.515625 0.875 3.359375 0.875q1.828125 0 3.359375 -0.875q1.53125 -0.875 2.421875 -2.546875q0.90625 -1.6875 0.90625 -3.921875zm18.476685 -10.1875q3.59375 0 5.828125 2.1875q2.234375 2.171875 2.234375 6.28125l0 11.625l-3.25 0l0 -11.15625q0 -2.953125 -1.484375 -4.515625q-1.46875 -1.578125 -4.015625 -1.578125q-2.59375 0 -4.125 1.625q-1.53125 1.625 -1.53125 4.71875l0 10.90625l-3.28125 0l0 -19.734375l3.28125 0l0 2.8125q0.96875 -1.515625 2.640625 -2.34375q1.6875 -0.828125 3.703125 -0.828125zm20.399353 20.421875q-2.265625 0 -4.0625 -0.765625q-1.796875 -0.78125 -2.84375 -2.171875q-1.046875 -1.390625 -1.15625 -3.1875l3.390625 0q0.140625 1.484375 1.375 2.421875q1.25 0.921875 3.265625 0.921875q1.875 0 2.953125 -0.828125q1.078125 -0.828125 1.078125 -2.078125q0 -1.296875 -1.15625 -1.921875q-1.140625 -0.640625 -3.5625 -1.25q-2.1875 -0.578125 -3.578125 -1.171875q-1.390625 -0.59375 -2.375 -1.765625q-0.984375 -1.171875 -0.984375 -3.078125q0 -1.515625 0.890625 -2.765625q0.90625 -1.265625 2.5625 -2.0q1.65625 -0.734375 3.78125 -0.734375q3.265625 0 5.28125 1.65625q2.015625 1.65625 2.171875 4.53125l-3.28125 0q-0.109375 -1.546875 -1.25 -2.484375q-1.125 -0.9375 -3.03125 -0.9375q-1.765625 0 -2.8125 0.765625q-1.046875 0.75 -1.046875 1.96875q0 0.96875 0.625 1.609375q0.640625 0.625 1.59375 1.0q0.953125 0.375 2.640625 0.84375q2.125 0.578125 3.453125 1.140625q1.34375 0.5625 2.296875 1.6875q0.953125 1.109375 0.984375 2.90625q0 1.609375 -0.90625 2.90625q-0.890625 1.296875 -2.53125 2.046875q-1.640625 0.734375 -3.765625 0.734375zm13.510742 -23.265625q-0.9375 0 -1.59375 -0.640625q-0.640625 -0.65625 -0.640625 -1.578125q0 -0.9375 0.640625 -1.578125q0.65625 -0.65625 1.59375 -0.65625q0.890625 0 1.515625 0.65625q0.640625 0.640625 0.640625 1.578125q0 0.921875 -0.640625 1.578125q-0.625 0.640625 -1.515625 0.640625zm1.578125 3.203125l0 19.734375l-3.28125 0l0 -19.734375l3.28125 0zm9.574768 2.703125l0 11.625q0 1.453125 0.609375 2.046875q0.609375 0.59375 2.125 0.59375l2.421875 0l0 2.765625l-2.953125 0q-2.734375 0 -4.109375 -1.25q-1.375 -1.265625 -1.375 -4.15625l0 -11.625l-2.546875 0l0 -2.703125l2.546875 0l0 -4.96875l3.28125 0l0 4.96875l5.15625 0l0 2.703125l-5.15625 0zm10.807129 -5.90625q-0.9375 0 -1.59375 -0.640625q-0.640625 -0.65625 -0.640625 -1.578125q0 -0.9375 0.640625 -1.578125q0.65625 -0.65625 1.59375 -0.65625q0.890625 0 1.515625 0.65625q0.640625 0.640625 0.640625 1.578125q0 0.921875 -0.640625 1.578125q-0.625 0.640625 -1.515625 0.640625zm1.578125 3.203125l0 19.734375l-3.28125 0l0 -19.734375l3.28125 0zm14.184143 20.0625q-2.765625 0 -5.015625 -1.265625q-2.25 -1.265625 -3.53125 -3.578125q-1.28125 -2.328125 -1.28125 -5.390625q0 -3.015625 1.3125 -5.328125q1.3125 -2.328125 3.578125 -3.5625q2.28125 -1.25 5.078125 -1.25q2.8125 0 5.078125 1.25q2.265625 1.234375 3.578125 3.546875q1.3125 2.296875 1.3125 5.34375q0 3.0625 -1.34375 5.390625q-1.34375 2.3125 -3.65625 3.578125q-2.296875 1.265625 -5.109375 1.265625zm0 -2.890625q1.765625 0 3.3125 -0.828125q1.546875 -0.828125 2.5 -2.484375q0.953125 -1.65625 0.953125 -4.03125q0 -2.375 -0.9375 -4.03125q-0.9375 -1.65625 -2.453125 -2.453125q-1.5 -0.8125 -3.265625 -0.8125q-1.796875 0 -3.296875 0.8125q-1.484375 0.796875 -2.390625 2.453125q-0.90625 1.65625 -0.90625 4.03125q0 2.421875 0.875 4.078125q0.890625 1.65625 2.359375 2.46875q1.484375 0.796875 3.25 0.796875zm24.055664 -17.53125q3.59375 0 5.828125 2.1875q2.234375 2.171875 2.234375 6.28125l0 11.625l-3.25 0l0 -11.15625q0 -2.953125 -1.484375 -4.515625q-1.46875 -1.578125 -4.015625 -1.578125q-2.59375 0 -4.125 1.625q-1.53125 1.625 -1.53125 4.71875l0 10.90625l-3.28125 0l0 -19.734375l3.28125 0l0 2.8125q0.96875 -1.515625 2.640625 -2.34375q1.6875 -0.828125 3.703125 -0.828125z" fill-rule="nonzero"/><path fill="#000000" fill-opacity="0.0" d="m443.85535 133.60965l0 0c0 -14.043686 11.384644 -25.428337 25.428314 -25.428337l101.7103 0l0 0c6.7439575 0 13.211792 2.6790466 17.98053 7.4477844c4.768738 4.768738 7.447754 11.236534 7.447754 17.980553l0 277.14334c0 14.043671 -11.384644 25.428314 -25.428284 25.428314l-101.7103 0c-14.043671 0 -25.428314 -11.384644 -25.428314 -25.428314z" fill-rule="evenodd"/><path stroke="#8d3aed" stroke-width="1.0" stroke-linejoin="round" stroke-linecap="butt" d="m443.85535 133.60965l0 0c0 -14.043686 11.384644 -25.428337 25.428314 -25.428337l101.7103 0l0 0c6.7439575 0 13.211792 2.6790466 17.98053 7.4477844c4.768738 4.768738 7.447754 11.236534 7.447754 17.980553l0 277.14334c0 14.043671 -11.384644 25.428314 -25.428284 25.428314l-101.7103 0c-14.043671 0 -25.428314 -11.384644 -25.428314 -25.428314z" fill-rule="evenodd"/><path fill="#ffffff" d="m496.56528 256.2188q1.015625 0.15625 1.84375 0.828125q0.84375 0.65625 1.328125 1.640625q0.5 0.984375 0.5 2.109375q0 1.40625 -0.71875 2.546875q-0.71875 1.125 -2.09375 1.78125q-1.375 0.65625 -3.234375 0.65625l-6.9375 0l0 -18.578125l6.671875 0q1.890625 0 3.21875 0.625q1.34375 0.625 2.0 1.703125q0.671875 1.0625 0.671875 2.390625q0 1.65625 -0.890625 2.734375q-0.890625 1.078125 -2.359375 1.5625zm-6.875 -1.0l4.078125 0q1.703125 0 2.625 -0.796875q0.9375 -0.796875 0.9375 -2.203125q0 -1.421875 -0.9375 -2.21875q-0.921875 -0.796875 -2.6875 -0.796875l-4.015625 0l0 6.015625zm4.28125 8.5625q1.8125 0 2.828125 -0.84375q1.015625 -0.859375 1.015625 -2.375q0 -1.546875 -1.078125 -2.4375q-1.0625 -0.90625 -2.84375 -0.90625l-4.203125 0l0 6.5625l4.28125 0zm12.0589905 -17.71875l0 19.71875l-2.4375 0l0 -19.71875l2.4375 0zm10.494934 19.953125q-2.046875 0 -3.71875 -0.921875q-1.6719055 -0.9375 -2.6250305 -2.65625q-0.9375 -1.71875 -0.9375 -3.984375q0 -2.234375 0.96875 -3.953125q0.984375 -1.734375 2.6562805 -2.640625q1.6875 -0.921875 3.765625 -0.921875q2.078125 0 3.75 0.921875q1.6875 0.90625 2.65625 2.625q0.96875 1.703125 0.96875 3.96875q0 2.265625 -1.0 3.984375q-0.984375 1.71875 -2.703125 2.65625q-1.703125 0.921875 -3.78125 0.921875zm0 -2.125q1.3125 0 2.453125 -0.609375q1.140625 -0.625 1.84375 -1.84375q0.71875 -1.234375 0.71875 -2.984375q0 -1.765625 -0.703125 -2.984375q-0.6875 -1.234375 -1.8125 -1.828125q-1.109375 -0.59375 -2.421875 -0.59375q-1.328125 0 -2.4375 0.59375q-1.109375 0.59375 -1.78125 1.828125q-0.6562805 1.21875 -0.6562805 2.984375q0 1.78125 0.6562805 3.015625q0.65625 1.21875 1.75 1.828125q1.09375 0.59375 2.390625 0.59375zm9.778687 -5.4375q0 -2.265625 0.90625 -3.953125q0.90625 -1.703125 2.515625 -2.625q1.625 -0.9375 3.703125 -0.9375q2.6875 0 4.4375 1.3125q1.75 1.296875 2.296875 3.609375l-2.609375 0q-0.375 -1.328125 -1.453125 -2.09375q-1.078125 -0.78125 -2.671875 -0.78125q-2.078125 0 -3.359375 1.4375q-1.28125 1.421875 -1.28125 4.03125q0 2.640625 1.28125 4.078125q1.28125 1.4375 3.359375 1.4375q1.59375 0 2.65625 -0.75q1.078125 -0.75 1.46875 -2.125l2.609375 0q-0.578125 2.234375 -2.34375 3.578125q-1.75 1.34375 -4.390625 1.34375q-2.078125 0 -3.703125 -0.921875q-1.609375 -0.9375 -2.515625 -2.640625q-0.90625 -1.703125 -0.90625 -4.0zm25.242737 7.328125l-5.71875 -6.453125l0 6.453125l-2.4375 0l0 -19.71875l2.4375 0l0 11.59375l5.625 -6.484375l3.375 0l-6.875 7.28125l6.90625 7.328125l-3.3125 0z" fill-rule="nonzero"/><path fill="#ffffff" d="m485.99612 288.21884q1.015625 0.15625 1.84375 0.828125q0.84375 0.65625 1.328125 1.640625q0.5 0.984375 0.5 2.109375q0 1.40625 -0.71875 2.546875q-0.71875 1.125 -2.09375 1.78125q-1.375 0.65625 -3.234375 0.65625l-6.9375 0l0 -18.578125l6.671875 0q1.890625 0 3.21875 0.625q1.34375 0.625 2.0 1.703125q0.671875 1.0625 0.671875 2.390625q0 1.65625 -0.890625 2.734375q-0.890625 1.078125 -2.359375 1.5625zm-6.875 -1.0l4.078125 0q1.703125 0 2.625 -0.796875q0.9375 -0.796875 0.9375 -2.203125q0 -1.421875 -0.9375 -2.21875q-0.921875 -0.796875 -2.6875 -0.796875l-4.015625 0l0 6.015625zm4.28125 8.5625q1.8125 0 2.828125 -0.84375q1.015625 -0.859375 1.015625 -2.375q0 -1.546875 -1.078125 -2.4375q-1.0625 -0.90625 -2.84375 -0.90625l-4.203125 0l0 6.5625l4.28125 0zm22.574585 -12.609375l0 14.609375l-2.421875 0l0 -2.15625q-0.6875 1.109375 -1.9375 1.75q-1.234375 0.625 -2.71875 0.625q-1.71875 0 -3.078125 -0.703125q-1.359375 -0.71875 -2.140625 -2.125q-0.78125 -1.421875 -0.78125 -3.4375l0 -8.5625l2.390625 0l0 8.234375q0 2.15625 1.09375 3.328125q1.09375 1.15625 2.984375 1.15625q1.953125 0 3.0625 -1.203125q1.125 -1.203125 1.125 -3.484375l0 -8.03125l2.421875 0zm5.3724365 -2.375q-0.703125 0 -1.1875 -0.46875q-0.46875 -0.484375 -0.46875 -1.171875q0 -0.703125 0.46875 -1.171875q0.484375 -0.484375 1.1875 -0.484375q0.6562805 0 1.1250305 0.484375q0.46875 0.46875 0.46875 1.171875q0 0.6875 -0.46875 1.171875q-0.46875 0.46875 -1.1250305 0.46875zm1.1719055 2.375l0 14.609375l-2.4375305 0l0 -14.609375l2.4375305 0zm6.557373 -5.109375l0 19.71875l-2.4375 0l0 -19.71875l2.4375 0zm3.213684 12.359375q0 -2.234375 0.90625 -3.921875q0.90625 -1.703125 2.484375 -2.625q1.59375 -0.9375 3.578125 -0.9375q1.703125 0 3.15625 0.78125q1.46875 0.78125 2.25 2.0625l0 -7.71875l2.453125 0l0 19.71875l-2.453125 0l0 -2.75q-0.71875 1.3125 -2.140625 2.15625q-1.40625 0.828125 -3.296875 0.828125q-1.953125 0 -3.546875 -0.953125q-1.578125 -0.953125 -2.484375 -2.6875q-0.90625 -1.734375 -0.90625 -3.953125zm12.375 0.03125q0 -1.65625 -0.671875 -2.875q-0.65625 -1.234375 -1.796875 -1.875q-1.125 -0.65625 -2.484375 -0.65625q-1.359375 0 -2.484375 0.640625q-1.125 0.625 -1.796875 1.859375q-0.65625 1.21875 -0.65625 2.875q0 1.6875 0.65625 2.921875q0.671875 1.234375 1.796875 1.890625q1.125 0.65625 2.484375 0.65625q1.359375 0 2.484375 -0.65625q1.140625 -0.65625 1.796875 -1.890625q0.671875 -1.234375 0.671875 -2.890625zm19.878967 -0.53125q0 0.6875 -0.078125 1.46875l-11.671875 0q0.140625 2.15625 1.484375 3.375q1.34375 1.203125 3.265625 1.203125q1.5625 0 2.609375 -0.734375q1.0625 -0.734375 1.484375 -1.953125l2.625 0q-0.59375 2.09375 -2.359375 3.421875q-1.75 1.3125 -4.359375 1.3125q-2.078125 0 -3.71875 -0.921875q-1.640625 -0.9375 -2.578125 -2.65625q-0.9375 -1.71875 -0.9375 -3.984375q0 -2.265625 0.90625 -3.96875q0.90625 -1.71875 2.546875 -2.625q1.640625 -0.921875 3.78125 -0.921875q2.078125 0 3.671875 0.90625q1.59375 0.90625 2.453125 2.5q0.875 1.578125 0.875 3.578125zm-2.5 -0.515625q0 -1.375 -0.609375 -2.375q-0.609375 -1.0 -1.671875 -1.515625q-1.046875 -0.53125 -2.328125 -0.53125q-1.84375 0 -3.140625 1.171875q-1.28125 1.171875 -1.46875 3.25l9.21875 0zm8.136169 -3.859375q0.640625 -1.25 1.8125 -1.9375q1.1875 -0.703125 2.90625 -0.703125l0 2.5l-0.640625 0q-4.078125 0 -4.078125 4.4375l0 7.9375l-2.4375 0l0 -14.609375l2.4375 0l0 2.375z" fill-rule="nonzero"/><path fill="#000000" fill-opacity="0.0" d="m405.40433 474.08035l0 0c0 -8.822235 7.1518555 -15.97406 15.974091 -15.97406l160.61877 0c4.2365723 0 8.299683 1.6829529 11.295349 4.6786804c2.9957275 2.9957275 4.678711 7.058777 4.678711 11.29538l0 63.89438c0 8.822205 -7.1517944 15.97406 -15.97406 15.97406l-160.61877 0l0 0c-8.822235 0 -15.974091 -7.1518555 -15.974091 -15.97406z" fill-rule="evenodd"/><path stroke="#8d3aed" stroke-width="1.0" stroke-linejoin="round" stroke-linecap="butt" d="m405.40433 474.08035l0 0c0 -8.822235 7.1518555 -15.97406 15.974091 -15.97406l160.61877 0c4.2365723 0 8.299683 1.6829529 11.295349 4.6786804c2.9957275 2.9957275 4.678711 7.058777 4.678711 11.29538l0 63.89438c0 8.822205 -7.1517944 15.97406 -15.97406 15.97406l-160.61877 0l0 0c-8.822235 0 -15.974091 -7.1518555 -15.974091 -15.97406z" fill-rule="evenodd"/><path fill="#ffffff" d="m446.79938 512.16754l-1.578125 0l-6.34375 -9.609375l0 9.609375l-1.578125 0l0 -12.09375l1.578125 0l6.34375 9.59375l0 -9.59375l1.578125 0l0 12.09375zm2.103485 -4.78125q0 -1.453125 0.578125 -2.546875q0.59375 -1.109375 1.625 -1.71875q1.03125 -0.609375 2.296875 -0.609375q1.25 0 2.15625 0.546875q0.921875 0.53125 1.375 1.34375l0 -1.734375l1.59375 0l0 9.5l-1.59375 0l0 -1.765625q-0.46875 0.828125 -1.390625 1.375q-0.921875 0.546875 -2.15625 0.546875q-1.265625 0 -2.296875 -0.625q-1.015625 -0.625 -1.609375 -1.75q-0.578125 -1.125 -0.578125 -2.5625zm8.03125 0.015625q0 -1.078125 -0.4375 -1.875q-0.421875 -0.796875 -1.15625 -1.21875q-0.734375 -0.421875 -1.625 -0.421875q-0.890625 0 -1.625 0.421875q-0.71875 0.40625 -1.15625 1.203125q-0.421875 0.796875 -0.421875 1.875q0 1.09375 0.421875 1.90625q0.4375 0.796875 1.15625 1.21875q0.734375 0.421875 1.625 0.421875q0.890625 0 1.625 -0.421875q0.734375 -0.421875 1.15625 -1.21875q0.4375 -0.8125 0.4375 -1.890625zm6.182495 -3.4375l0 5.609375q0 0.6875 0.296875 0.984375q0.296875 0.28125 1.03125 0.28125l1.15625 0l0 1.328125l-1.421875 0q-1.3125 0 -1.96875 -0.609375q-0.65625 -0.609375 -0.65625 -1.984375l0 -5.609375l-1.234375 0l0 -1.296875l1.234375 0l0 -2.390625l1.5625 0l0 2.390625l2.484375 0l0 1.296875l-2.484375 0zm5.2136536 -2.828125q-0.453125 0 -0.765625 -0.3125q-0.3125 -0.3125 -0.3125 -0.765625q0 -0.453125 0.3125 -0.765625q0.3125 -0.3125 0.765625 -0.3125q0.421875 0 0.71875 0.3125q0.3125 0.3125 0.3125 0.765625q0 0.453125 -0.3125 0.765625q-0.296875 0.3125 -0.71875 0.3125zm0.75 1.53125l0 9.5l-1.578125 0l0 -9.5l1.578125 0zm6.2314453 8.046875l2.9375 -8.046875l1.6875 0l-3.734375 9.5l-1.828125 0l-3.734375 -9.5l1.703125 0l2.96875 8.046875zm14.846008 -3.65625q0 0.453125 -0.046875 0.953125l-7.59375 0q0.078125 1.40625 0.953125 2.203125q0.875 0.78125 2.125 0.78125q1.03125 0 1.703125 -0.46875q0.6875 -0.484375 0.96875 -1.28125l1.703125 0q-0.390625 1.359375 -1.53125 2.21875q-1.140625 0.859375 -2.84375 0.859375q-1.34375 0 -2.421875 -0.609375q-1.0625 -0.609375 -1.671875 -1.71875q-0.59375 -1.125 -0.59375 -2.59375q0 -1.46875 0.578125 -2.578125q0.59375 -1.109375 1.65625 -1.703125q1.078125 -0.609375 2.453125 -0.609375q1.359375 0 2.390625 0.59375q1.046875 0.59375 1.609375 1.625q0.5625 1.03125 0.5625 2.328125zm-1.625 -0.328125q0 -0.90625 -0.40625 -1.546875q-0.390625 -0.65625 -1.078125 -0.984375q-0.6875 -0.34375 -1.515625 -0.34375q-1.203125 0 -2.046875 0.765625q-0.828125 0.75 -0.953125 2.109375l6.0 0zm14.682465 5.4375l-2.875 -4.9375l-1.90625 0l0 4.9375l-1.578125 0l0 -12.078125l3.90625 0q1.375 0 2.3125 0.46875q0.9375 0.46875 1.40625 1.265625q0.46875 0.796875 0.46875 1.8125q0 1.25 -0.71875 2.203125q-0.71875 0.953125 -2.15625 1.265625l3.03125 5.0625l-1.890625 0zm-4.78125 -6.203125l2.328125 0q1.28125 0 1.921875 -0.625q0.640625 -0.640625 0.640625 -1.703125q0 -1.0625 -0.640625 -1.65625q-0.625 -0.59375 -1.921875 -0.59375l-2.328125 0l0 4.578125zm17.37918 -3.296875l0 9.5l-1.578125 0l0 -1.40625q-0.4375 0.734375 -1.25 1.140625q-0.8125 0.40625 -1.7812195 0.40625q-1.109375 0 -2.0 -0.453125q-0.875 -0.46875 -1.390625 -1.375q-0.5 -0.921875 -0.5 -2.25l0 -5.5625l1.5625 0l0 5.359375q0 1.40625 0.703125 2.15625q0.71875 0.75 1.9375 0.75q1.2655945 0 1.9843445 -0.78125q0.734375 -0.78125 0.734375 -2.265625l0 -5.21875l1.578125 0zm7.293091 -0.171875q1.734375 0 2.8125 1.046875q1.078125 1.046875 1.078125 3.03125l0 5.59375l-1.5625 0l0 -5.375q0 -1.421875 -0.71875 -2.171875q-0.703125 -0.75 -1.9375 -0.75q-1.234375 0 -1.984375 0.78125q-0.734375 0.78125 -0.734375 2.265625l0 5.25l-1.578125 0l0 -9.5l1.578125 0l0 1.359375q0.46875 -0.734375 1.265625 -1.125q0.8125 -0.40625 1.78125 -0.40625zm8.38678 1.46875l0 5.609375q0 0.6875 0.296875 0.984375q0.296875 0.28125 1.03125 0.28125l1.15625 0l0 1.328125l-1.421875 0q-1.3125 0 -1.96875 -0.609375q-0.65625 -0.609375 -0.65625 -1.984375l0 -5.609375l-1.234375 0l0 -1.296875l1.234375 0l0 -2.390625l1.5625 0l0 2.390625l2.484375 0l0 1.296875l-2.484375 0zm5.213684 -2.828125q-0.453125 0 -0.765625 -0.3125q-0.3125 -0.3125 -0.3125 -0.765625q0 -0.453125 0.3125 -0.765625q0.3125 -0.3125 0.765625 -0.3125q0.421875 0 0.71875 0.3125q0.3125 0.3125 0.3125 0.765625q0 0.453125 -0.3125 0.765625q-0.296875 0.3125 -0.71875 0.3125zm0.75 1.53125l0 9.5l-1.578125 0l0 -9.5l1.578125 0zm14.106445 -0.171875q1.109375 0 1.96875 0.46875q0.875 0.453125 1.375 1.375q0.5 0.921875 0.5 2.234375l0 5.59375l-1.546875 0l0 -5.375q0 -1.421875 -0.703125 -2.171875q-0.703125 -0.75 -1.90625 -0.75q-1.21875 0 -1.953125 0.796875q-0.734375 0.78125 -0.734375 2.265625l0 5.234375l-1.546875 0l0 -5.375q0 -1.421875 -0.703125 -2.171875q-0.703125 -0.75 -1.90625 -0.75q-1.234375 0 -1.96875 0.796875q-0.71875 0.78125 -0.71875 2.265625l0 5.234375l-1.578125 0l0 -9.5l1.578125 0l0 1.375q0.46875 -0.75 1.25 -1.140625q0.796875 -0.40625 1.75 -0.40625q1.203125 0 2.109375 0.546875q0.921875 0.53125 1.375 1.5625q0.40625 -1.0 1.3125 -1.546875q0.921875 -0.5625 2.046875 -0.5625zm15.097839 4.5625q0 0.453125 -0.046875 0.953125l-7.59375 0q0.078125 1.40625 0.953125 2.203125q0.875 0.78125 2.125 0.78125q1.03125 0 1.703125 -0.46875q0.6875 -0.484375 0.96875 -1.28125l1.703125 0q-0.390625 1.359375 -1.53125 2.21875q-1.140625 0.859375 -2.84375 0.859375q-1.34375 0 -2.421875 -0.609375q-1.0625 -0.609375 -1.671875 -1.71875q-0.59375 -1.125 -0.59375 -2.59375q0 -1.46875 0.578125 -2.578125q0.59375 -1.109375 1.65625 -1.703125q1.078125 -0.609375 2.453125 -0.609375q1.359375 0 2.390625 0.59375q1.046875 0.59375 1.609375 1.625q0.5625 1.03125 0.5625 2.328125zm-1.625 -0.328125q0 -0.90625 -0.40625 -1.546875q-0.390625 -0.65625 -1.078125 -0.984375q-0.6875 -0.34375 -1.515625 -0.34375q-1.203125 0 -2.046875 0.765625q-0.828125 0.75 -0.953125 2.109375l6.0 0z" fill-rule="nonzero"/></g></svg>