<svg version="1.1" viewBox="0.0 0.0 1250.4881889763778 599.2519685039371" fill="none" stroke="none" stroke-linecap="square" stroke-miterlimit="10" xmlns:xlink="http://www.w3.org/1999/xlink" xmlns="http://www.w3.org/2000/svg"><clipPath id="p.0"><path d="m0 0l1250.4882 0l0 599.25195l-1250.4882 0l0 -599.25195z" clip-rule="nonzero"/></clipPath><g clip-path="url(#p.0)"><path fill="#000000" fill-opacity="0.0" d="m0 0l1250.4882 0l0 599.25195l-1250.4882 0z" fill-rule="evenodd"/><path fill="#07154b" d="m33.619423 11.989501l1191.2441 0l0 561.98425l-1191.2441 0z" fill-rule="evenodd"/><path stroke="#07154b" stroke-width="1.0" stroke-linejoin="round" stroke-linecap="butt" d="m33.619423 11.989501l1191.2441 0l0 561.98425l-1191.2441 0z" fill-rule="evenodd"/><path fill="#000000" fill-opacity="0.0" d="m629.24146 11.989501l0 561.98425" fill-rule="evenodd"/><path stroke="#ffffff" stroke-width="1.0" stroke-linejoin="round" stroke-linecap="butt" stroke-dasharray="1.0,3.0" d="m629.24146 11.989501l0 561.98425" fill-rule="evenodd"/><path fill="#8d3aed" d="m52.850243 29.08118l554.4882 0l0 42.01575l-554.4882 0z" fill-rule="evenodd"/><path stroke="#8d3aed" stroke-width="1.0" stroke-linejoin="round" stroke-linecap="butt" d="m52.850243 29.08118l554.4882 0l0 42.01575l-554.4882 0z" fill-rule="evenodd"/><path fill="#ffffff" d="m273.8404 49.485554q0 -1.890625 0.859375 -3.40625q0.859375 -1.53125 2.34375 -2.390625q1.484375 -0.859375 3.296875 -0.859375q2.125 0 3.703125 1.03125q1.59375 1.015625 2.328125 2.90625l-2.046875 0q-0.53125 -1.171875 -1.546875 -1.796875q-1.015625 -0.640625 -2.4375 -0.640625q-1.359375 0 -2.453125 0.640625q-1.078125 0.625 -1.703125 1.796875q-0.609375 1.15625 -0.609375 2.71875q0 1.546875 0.609375 2.71875q0.625 1.171875 1.703125 1.8125q1.09375 0.625 2.453125 0.625q1.421875 0 2.4375 -0.625q1.015625 -0.625 1.546875 -1.796875l2.046875 0q-0.734375 1.859375 -2.328125 2.875q-1.578125 1.015625 -3.703125 1.015625q-1.8125 0 -3.296875 -0.84375q-1.484375 -0.84375 -2.34375 -2.359375q-0.859375 -1.515625 -0.859375 -3.421875zm16.746368 -7.296875l0 13.8125l-1.703125 0l0 -13.8125l1.703125 0zm3.761322 1.921875q-0.484375 0 -0.828125 -0.328125q-0.328125 -0.34375 -0.328125 -0.828125q0 -0.484375 0.328125 -0.8125q0.34375 -0.34375 0.828125 -0.34375q0.46875 0 0.796875 0.34375q0.328125 0.328125 0.328125 0.8125q0 0.484375 -0.328125 0.828125q-0.328125 0.328125 -0.796875 0.328125zm0.828125 1.671875l0 10.21875l-1.703125 0l0 -10.21875l1.703125 0zm12.2144165 4.71875q0 0.484375 -0.0625 1.015625l-8.171875 0q0.09375 1.515625 1.03125 2.375q0.953125 0.84375 2.296875 0.84375q1.09375 0 1.828125 -0.515625q0.75 -0.515625 1.046875 -1.375l1.828125 0q-0.40625 1.484375 -1.640625 2.40625q-1.234375 0.921875 -3.0625 0.921875q-1.453125 0 -2.609375 -0.65625q-1.140625 -0.65625 -1.796875 -1.859375q-0.65625 -1.203125 -0.65625 -2.78125q0 -1.59375 0.640625 -2.78125q0.640625 -1.203125 1.78125 -1.84375q1.140625 -0.640625 2.640625 -0.640625q1.453125 0 2.5625 0.640625q1.125 0.625 1.734375 1.734375q0.609375 1.109375 0.609375 2.515625zm-1.75 -0.359375q0 -0.96875 -0.4375 -1.671875q-0.421875 -0.703125 -1.171875 -1.0625q-0.734375 -0.359375 -1.625 -0.359375q-1.28125 0 -2.1875 0.828125q-0.90625 0.8125 -1.03125 2.265625l6.453125 0zm8.973145 -4.546875q1.859375 0 3.015625 1.125q1.15625 1.125 1.15625 3.25l0 6.03125l-1.671875 0l0 -5.78125q0 -1.53125 -0.765625 -2.34375q-0.765625 -0.8125 -2.09375 -0.8125q-1.34375 0 -2.140625 0.84375q-0.78125 0.84375 -0.78125 2.4375l0 5.65625l-1.703125 0l0 -10.21875l1.703125 0l0 1.453125q0.5 -0.78125 1.359375 -1.203125q0.875 -0.4375 1.921875 -0.4375zm9.018127 1.578125l0 6.03125q0 0.75 0.3125 1.0625q0.328125 0.296875 1.109375 0.296875l1.25 0l0 1.4375l-1.53125 0q-1.40625 0 -2.125 -0.65625q-0.703125 -0.65625 -0.703125 -2.140625l0 -6.03125l-1.328125 0l0 -1.390625l1.328125 0l0 -2.578125l1.6875 0l0 2.578125l2.671875 0l0 1.390625l-2.671875 0zm16.053345 -8.75l-5.109375 20.75l-1.6875 0l5.09375 -20.75l1.703125 0zm17.533478 4.578125l0 13.0l-1.703125 0l0 -5.890625l-6.609375 0l0 5.890625l-1.703125 0l0 -13.0l1.703125 0l0 5.703125l6.609375 0l0 -5.703125l1.703125 0zm7.347595 13.171875q-1.4375 0 -2.609375 -0.65625q-1.15625 -0.65625 -1.828125 -1.859375q-0.65625 -1.203125 -0.65625 -2.78125q0 -1.578125 0.6875 -2.78125q0.6875 -1.203125 1.859375 -1.84375q1.171875 -0.640625 2.625 -0.640625q1.453125 0 2.625 0.640625q1.1875 0.640625 1.859375 1.84375q0.6875 1.1875 0.6875 2.78125q0 1.578125 -0.703125 2.78125q-0.703125 1.203125 -1.90625 1.859375q-1.1875 0.65625 -2.640625 0.65625zm0 -1.5q0.921875 0 1.71875 -0.421875q0.796875 -0.4375 1.296875 -1.296875q0.5 -0.859375 0.5 -2.078125q0 -1.234375 -0.484375 -2.09375q-0.484375 -0.859375 -1.28125 -1.28125q-0.78125 -0.421875 -1.6875 -0.421875q-0.9375 0 -1.71875 0.421875q-0.765625 0.421875 -1.234375 1.28125q-0.46875 0.859375 -0.46875 2.09375q0 1.25 0.453125 2.109375q0.46875 0.84375 1.234375 1.265625q0.765625 0.421875 1.671875 0.421875zm11.111877 1.5q-1.1875 0 -2.125 -0.40625q-0.921875 -0.40625 -1.46875 -1.125q-0.53125 -0.71875 -0.59375 -1.640625l1.75 0q0.078125 0.765625 0.71875 1.25q0.65625 0.484375 1.6875 0.484375q0.96875 0 1.53125 -0.421875q0.5625 -0.4375 0.5625 -1.09375q0 -0.671875 -0.59375 -1.0q-0.59375 -0.328125 -1.84375 -0.640625q-1.140625 -0.296875 -1.859375 -0.59375q-0.71875 -0.3125 -1.234375 -0.921875q-0.515625 -0.609375 -0.515625 -1.59375q0 -0.796875 0.46875 -1.4375q0.46875 -0.65625 1.328125 -1.03125q0.859375 -0.390625 1.953125 -0.390625q1.703125 0 2.75 0.859375q1.046875 0.859375 1.109375 2.34375l-1.6875 0q-0.0625 -0.796875 -0.65625 -1.28125q-0.578125 -0.484375 -1.5625 -0.484375q-0.921875 0 -1.46875 0.390625q-0.53125 0.390625 -0.53125 1.03125q0 0.5 0.328125 0.828125q0.328125 0.328125 0.8125 0.53125q0.5 0.1875 1.375 0.421875q1.109375 0.296875 1.796875 0.59375q0.6875 0.28125 1.171875 0.859375q0.5 0.578125 0.515625 1.515625q0 0.84375 -0.46875 1.515625q-0.453125 0.671875 -1.3125 1.0625q-0.84375 0.375 -1.9375 0.375zm8.176086 -9.0l0 6.03125q0 0.75 0.3125 1.0625q0.328125 0.296875 1.109375 0.296875l1.25 0l0 1.4375l-1.53125 0q-1.40625 0 -2.125 -0.65625q-0.703125 -0.65625 -0.703125 -2.140625l0 -6.03125l-1.328125 0l0 -1.390625l1.328125 0l0 -2.578125l1.6875 0l0 2.578125l2.671875 0l0 1.390625l-2.671875 0z" fill-rule="nonzero"/><path fill="#bb8ba6" d="m649.776 29.08118l554.48816 0l0 42.01575l-554.48816 0z" fill-rule="evenodd"/><path stroke="#bb8ba6" stroke-width="1.0" stroke-linejoin="round" stroke-linecap="butt" d="m649.776 29.08118l554.48816 0l0 42.01575l-554.48816 0z" fill-rule="evenodd"/><path fill="#ffffff" d="m896.6083 56.00118l-3.09375 -5.3125l-2.046875 0l0 5.3125l-1.703125 0l0 -13.0l4.203125 0q1.46875 0 2.484375 0.5q1.015625 0.5 1.515625 1.359375q0.515625 0.859375 0.515625 1.96875q0 1.34375 -0.78125 2.375q-0.78125 1.015625 -2.328125 1.34375l3.265625 5.453125l-2.03125 0zm-5.140625 -6.671875l2.5 0q1.375 0 2.0625 -0.6875q0.6875 -0.6875 0.6875 -1.8125q0 -1.15625 -0.6875 -1.796875q-0.671875 -0.640625 -2.0625 -0.640625l-2.5 0l0 4.9375zm18.702332 -3.546875l0 10.21875l-1.6875 0l0 -1.515625q-0.484375 0.78125 -1.359375 1.234375q-0.875 0.4375 -1.90625 0.4375q-1.203125 0 -2.15625 -0.5q-0.953125 -0.5 -1.5 -1.484375q-0.546875 -0.984375 -0.546875 -2.40625l0 -5.984375l1.671875 0l0 5.765625q0 1.5 0.765625 2.3125q0.765625 0.8125 2.09375 0.8125q1.359375 0 2.140625 -0.828125q0.796875 -0.84375 0.796875 -2.453125l0 -5.609375l1.6875 0zm7.8618774 -0.1875q1.859375 0 3.015625 1.125q1.15625 1.125 1.15625 3.25l0 6.03125l-1.671875 0l0 -5.78125q0 -1.53125 -0.765625 -2.34375q-0.765625 -0.8125 -2.09375 -0.8125q-1.34375 0 -2.140625 0.84375q-0.78125 0.84375 -0.78125 2.4375l0 5.65625l-1.703125 0l0 -10.21875l1.703125 0l0 1.453125q0.5 -0.78125 1.359375 -1.203125q0.875 -0.4375 1.921875 -0.4375zm9.018127 1.578125l0 6.03125q0 0.75 0.3125 1.0625q0.328125 0.296875 1.109375 0.296875l1.25 0l0 1.4375l-1.53125 0q-1.40625 0 -2.125 -0.65625q-0.703125 -0.65625 -0.703125 -2.140625l0 -6.03125l-1.328125 0l0 -1.390625l1.328125 0l0 -2.578125l1.6875 0l0 2.578125l2.671875 0l0 1.390625l-2.671875 0zm5.6033936 -3.0625q-0.484375 0 -0.828125 -0.328125q-0.328125 -0.34375 -0.328125 -0.828125q0 -0.484375 0.328125 -0.8125q0.34375 -0.34375 0.828125 -0.34375q0.46875 0 0.796875 0.34375q0.328125 0.328125 0.328125 0.8125q0 0.484375 -0.328125 0.828125q-0.328125 0.328125 -0.796875 0.328125zm0.828125 1.671875l0 10.21875l-1.703125 0l0 -10.21875l1.703125 0zm15.1831665 -0.1875q1.1875 0 2.125 0.5q0.9375 0.484375 1.46875 1.484375q0.546875 0.984375 0.546875 2.390625l0 6.03125l-1.6875 0l0 -5.78125q0 -1.53125 -0.75 -2.34375q-0.75 -0.8125 -2.046875 -0.8125q-1.3125 0 -2.109375 0.859375q-0.78125 0.84375 -0.78125 2.4375l0 5.640625l-1.671875 0l0 -5.78125q0 -1.53125 -0.765625 -2.34375q-0.75 -0.8125 -2.03125 -0.8125q-1.328125 0 -2.109375 0.859375q-0.78125 0.84375 -0.78125 2.4375l0 5.640625l-1.703125 0l0 -10.21875l1.703125 0l0 1.46875q0.5 -0.796875 1.34375 -1.21875q0.84375 -0.4375 1.875 -0.4375q1.296875 0 2.28125 0.578125q0.984375 0.578125 1.46875 1.6875q0.4375 -1.078125 1.421875 -1.671875q0.984375 -0.59375 2.203125 -0.59375zm16.247192 4.90625q0 0.484375 -0.0625 1.015625l-8.171875 0q0.09375 1.515625 1.03125 2.375q0.953125 0.84375 2.296875 0.84375q1.09375 0 1.828125 -0.515625q0.75 -0.515625 1.046875 -1.375l1.828125 0q-0.40625 1.484375 -1.640625 2.40625q-1.234375 0.921875 -3.0625 0.921875q-1.453125 0 -2.609375 -0.65625q-1.140625 -0.65625 -1.796875 -1.859375q-0.65625 -1.203125 -0.65625 -2.78125q0 -1.59375 0.640625 -2.78125q0.640625 -1.203125 1.78125 -1.84375q1.140625 -0.640625 2.640625 -0.640625q1.453125 0 2.5625 0.640625q1.125 0.625 1.734375 1.734375q0.609375 1.109375 0.609375 2.515625zm-1.75 -0.359375q0 -0.96875 -0.4375 -1.671875q-0.421875 -0.703125 -1.171875 -1.0625q-0.734375 -0.359375 -1.625 -0.359375q-1.28125 0 -2.1875 0.828125q-0.90625 0.8125 -1.03125 2.265625l6.453125 0z" fill-rule="nonzero"/><path fill="#000000" fill-opacity="0.0" d="m52.850395 123.218285l0 0c0 -11.996849 9.7253685 -21.722221 21.722221 -21.722221l86.88626 0l0 0c5.761093 0 11.286224 2.2885818 15.35994 6.3622894c4.0737 4.0737076 6.3622894 9.598839 6.3622894 15.359932l0 173.40594c0 11.996857 -9.725372 21.722229 -21.722229 21.722229l-86.88626 0c-11.996853 0 -21.722221 -9.725372 -21.722221 -21.722229z" fill-rule="evenodd"/><path stroke="#8d3aed" stroke-width="1.0" stroke-linejoin="round" stroke-linecap="butt" d="m52.850395 123.218285l0 0c0 -11.996849 9.7253685 -21.722221 21.722221 -21.722221l86.88626 0l0 0c5.761093 0 11.286224 2.2885818 15.35994 6.3622894c4.0737 4.0737076 6.3622894 9.598839 6.3622894 15.359932l0 173.40594c0 11.996857 -9.725372 21.722229 -21.722229 21.722229l-86.88626 0c-11.996853 0 -21.722221 -9.725372 -21.722221 -21.722229z" fill-rule="evenodd"/><path fill="#ffffff" d="m81.11253 203.98312l0 8.921875q0 1.5 -0.921875 2.390625q-0.921875 0.890625 -2.421875 0.890625q-1.53125 0 -2.453125 -0.90625q-0.921875 -0.921875 -0.921875 -2.5l1.578125 0q0.015625 0.890625 0.453125 1.453125q0.453125 0.546875 1.34375 0.546875q0.875 0 1.3125 -0.53125q0.4375 -0.53125 0.4375 -1.34375l0 -8.921875l1.59375 0zm6.918228 12.203125q-1.1875 0 -2.140625 -0.421875q-0.9375 -0.4375 -1.484375 -1.1875q-0.53125 -0.75 -0.546875 -1.734375l1.6875 0q0.078125 0.84375 0.6875 1.421875q0.625 0.578125 1.796875 0.578125q1.140625 0 1.78125 -0.5625q0.65625 -0.5625 0.65625 -1.4375q0 -0.703125 -0.390625 -1.125q-0.375 -0.4375 -0.953125 -0.65625q-0.5625 -0.234375 -1.53125 -0.5q-1.203125 -0.3125 -1.921875 -0.609375q-0.71875 -0.3125 -1.234375 -0.984375q-0.5 -0.671875 -0.5 -1.796875q0 -0.984375 0.5 -1.75q0.5 -0.765625 1.40625 -1.171875q0.90625 -0.421875 2.09375 -0.421875q1.703125 0 2.78125 0.859375q1.078125 0.84375 1.21875 2.25l-1.734375 0q-0.078125 -0.703125 -0.734375 -1.21875q-0.640625 -0.53125 -1.6875 -0.53125q-0.984375 0 -1.609375 0.515625q-0.625 0.5 -0.625 1.421875q0 0.65625 0.359375 1.078125q0.375 0.40625 0.921875 0.625q0.546875 0.21875 1.546875 0.5q1.1875 0.328125 1.90625 0.65625q0.734375 0.3125 1.25 0.984375q0.53125 0.65625 0.53125 1.796875q0 0.890625 -0.46875 1.671875q-0.46875 0.78125 -1.390625 1.265625q-0.921875 0.484375 -2.171875 0.484375zm11.827805 0q-1.6875 0 -3.078125 -0.78125q-1.375 -0.796875 -2.1875 -2.203125q-0.796875 -1.421875 -0.796875 -3.1875q0 -1.765625 0.796875 -3.171875q0.8125 -1.421875 2.1875 -2.203125q1.390625 -0.796875 3.078125 -0.796875q1.703125 0 3.078125 0.796875q1.390625 0.78125 2.1875 2.1875q0.796875 1.40625 0.796875 3.1875q0 1.78125 -0.796875 3.1875q-0.796875 1.40625 -2.1875 2.203125q-1.375 0.78125 -3.078125 0.78125zm0 -1.375q1.265625 0 2.28125 -0.578125q1.015625 -0.59375 1.59375 -1.6875q0.578125 -1.09375 0.578125 -2.53125q0 -1.453125 -0.578125 -2.53125q-0.578125 -1.09375 -1.59375 -1.671875q-1.0 -0.59375 -2.28125 -0.59375q-1.28125 0 -2.296875 0.59375q-1.0 0.578125 -1.578125 1.671875q-0.578125 1.078125 -0.578125 2.53125q0 1.4375 0.578125 2.53125q0.578125 1.09375 1.59375 1.6875q1.015625 0.578125 2.28125 0.578125zm17.635452 1.25l-1.578125 0l-6.34375 -9.609375l0 9.609375l-1.578125 0l0 -12.09375l1.578125 0l6.34375 9.59375l0 -9.59375l1.578125 0l0 12.09375zm9.275345 -7.015625l0 1.328125l-6.921875 0l0 -1.328125l6.921875 0zm9.31337 7.015625l-2.875 -4.9375l-1.90625 0l0 4.9375l-1.578125 0l0 -12.078125l3.90625 0q1.375 0 2.3125 0.46875q0.9375 0.46875 1.40625 1.265625q0.46875 0.796875 0.46875 1.8125q0 1.25 -0.71875 2.203125q-0.71875 0.953125 -2.15625 1.265625l3.03125 5.0625l-1.890625 0zm-4.78125 -6.203125l2.328125 0q1.28125 0 1.921875 -0.625q0.640625 -0.640625 0.640625 -1.703125q0 -1.0625 -0.640625 -1.65625q-0.625 -0.59375 -1.921875 -0.59375l-2.328125 0l0 4.578125zm17.035446 -2.34375q0 1.515625 -1.03125 2.515625q-1.03125 0.984375 -3.140625 0.984375l-2.328125 0l0 5.046875l-1.578125 0l0 -12.078125l3.90625 0q2.046875 0 3.109375 0.984375q1.0625 0.984375 1.0625 2.546875zm-4.171875 2.203125q1.3125 0 1.9375 -0.5625q0.625 -0.578125 0.625 -1.640625q0 -2.234375 -2.5625 -2.234375l-2.328125 0l0 4.4375l2.328125 0zm5.5485535 0.296875q0 -1.765625 0.796875 -3.171875q0.796875 -1.421875 2.171875 -2.21875q1.375 -0.796875 3.0625 -0.796875q1.96875 0 3.4375 0.953125q1.484375 0.953125 2.15625 2.703125l-1.890625 0q-0.5 -1.09375 -1.453125 -1.671875q-0.9375 -0.59375 -2.25 -0.59375q-1.265625 0 -2.28125 0.59375q-1.0 0.578125 -1.578125 1.671875q-0.5625 1.078125 -0.5625 2.53125q0 1.4375 0.5625 2.53125q0.578125 1.078125 1.578125 1.671875q1.015625 0.578125 2.28125 0.578125q1.3125 0 2.25 -0.578125q0.953125 -0.578125 1.453125 -1.671875l1.890625 0q-0.671875 1.734375 -2.15625 2.6875q-1.46875 0.9375 -3.4375 0.9375q-1.6875 0 -3.0625 -0.78125q-1.375 -0.796875 -2.171875 -2.203125q-0.796875 -1.40625 -0.796875 -3.171875z" fill-rule="nonzero"/><path fill="#000000" fill-opacity="0.0" d="m52.850395 363.43835l0 0c0 -11.996857 9.7253685 -21.722229 21.722221 -21.722229l86.88626 0l0 0c5.761093 0 11.286224 2.2885742 15.35994 6.362274c4.0737 4.0737305 6.3622894 9.598846 6.3622894 15.359955l0 162.09888c0 11.996826 -9.725372 21.722168 -21.722229 21.722168l-86.88626 0c-11.996853 0 -21.722221 -9.725342 -21.722221 -21.722168z" fill-rule="evenodd"/><path stroke="#8d3aed" stroke-width="1.0" stroke-linejoin="round" stroke-linecap="butt" d="m52.850395 363.43835l0 0c0 -11.996857 9.7253685 -21.722229 21.722221 -21.722229l86.88626 0l0 0c5.761093 0 11.286224 2.2885742 15.35994 6.362274c4.0737 4.0737305 6.3622894 9.598846 6.3622894 15.359955l0 162.09888c0 11.996826 -9.725372 21.722168 -21.722229 21.722168l-86.88626 0c-11.996853 0 -21.722221 -9.725342 -21.722221 -21.722168z" fill-rule="evenodd"/><path fill="#ffffff" d="m84.66074 451.0759l5.515625 0l0 1.671875l-7.578125 0l0 -15.796875l2.0625 0l0 14.125zm8.787476 -12.765625q-0.59375 0 -1.0 -0.40625q-0.40625 -0.40625 -0.40625 -1.0q0 -0.578125 0.40625 -0.984375q0.40625 -0.40625 1.0 -0.40625q0.5625 0 0.953125 0.40625q0.40625 0.40625 0.40625 0.984375q0 0.59375 -0.40625 1.0q-0.390625 0.40625 -0.953125 0.40625zm1.0 2.015625l0 12.421875l-2.0625 0l0 -12.421875l2.0625 0zm5.5734253 2.3125q0.625 -1.109375 1.84375 -1.8125q1.234375 -0.703125 2.796875 -0.703125q1.671875 0 3.0 0.796875q1.34375 0.796875 2.109375 2.234375q0.78125 1.4375 0.78125 3.34375q0 1.875 -0.78125 3.359375q-0.765625 1.46875 -2.109375 2.28125q-1.34375 0.8125 -3.0 0.8125q-1.609375 0 -2.828125 -0.703125q-1.203125 -0.703125 -1.8125 -1.78125l0 2.28125l-2.0625 0l0 -16.765625l2.0625 0l0 6.65625zm8.421875 3.859375q0 -1.40625 -0.578125 -2.4375q-0.5625 -1.046875 -1.53125 -1.59375q-0.953125 -0.546875 -2.109375 -0.546875q-1.125 0 -2.09375 0.5625q-0.953125 0.546875 -1.53125 1.609375q-0.578125 1.046875 -0.578125 2.421875q0 1.40625 0.578125 2.46875q0.578125 1.046875 1.53125 1.609375q0.96875 0.546875 2.09375 0.546875q1.15625 0 2.109375 -0.546875q0.96875 -0.5625 1.53125 -1.609375q0.578125 -1.0625 0.578125 -2.484375zm6.8937225 -3.875q0.609375 -1.0625 1.8125 -1.78125q1.21875 -0.71875 2.828125 -0.71875q1.65625 0 3.0 0.796875q1.3437576 0.796875 2.1093826 2.234375q0.78125 1.4375 0.78125 3.34375q0 1.875 -0.78125 3.359375q-0.765625 1.46875 -2.1093826 2.28125q-1.34375 0.8125 -3.0 0.8125q-1.59375 0 -2.8125 -0.703125q-1.203125 -0.71875 -1.828125 -1.78125l0 8.171875l-2.0625 0l0 -18.3125l2.0625 0l0 2.296875zm8.421883 3.875q0 -1.40625 -0.5781326 -2.4375q-0.5625 -1.046875 -1.53125 -1.59375q-0.953125 -0.546875 -2.109375 -0.546875q-1.125 0 -2.09375 0.5625q-0.953125 0.546875 -1.53125 1.609375q-0.578125 1.046875 -0.578125 2.421875q0 1.40625 0.578125 2.46875q0.578125 1.046875 1.53125 1.609375q0.96875 0.546875 2.09375 0.546875q1.15625 0 2.109375 -0.546875q0.96875 -0.5625 1.53125 -1.609375q0.5781326 -1.0625 0.5781326 -2.484375zm4.2374725 4.59375q2.875 -2.3125 4.5 -3.796875q1.640625 -1.484375 2.75 -3.09375q1.125 -1.625 1.125 -3.1875q0 -1.46875 -0.71875 -2.3125q-0.703125 -0.859375 -2.28125 -0.859375q-1.546875 0 -2.40625 0.96875q-0.84375 0.953125 -0.90625 2.5625l-2.0 0q0.09375 -2.53125 1.546875 -3.90625q1.453125 -1.390625 3.734375 -1.390625q2.328125 0 3.703125 1.296875q1.375 1.28125 1.375 3.546875q0 1.875 -1.125 3.65625q-1.125 1.78125 -2.546875 3.140625q-1.421875 1.34375 -3.640625 3.125l7.78125 0l0 1.71875l-10.890625 0l0 -1.46875zm15.683563 -8.46875q0.609375 -1.0625 1.8125 -1.78125q1.21875 -0.71875 2.828125 -0.71875q1.65625 0 3.0 0.796875q1.34375 0.796875 2.109375 2.234375q0.78125 1.4375 0.78125 3.34375q0 1.875 -0.78125 3.359375q-0.765625 1.46875 -2.109375 2.28125q-1.34375 0.8125 -3.0 0.8125q-1.59375 0 -2.8125 -0.703125q-1.203125 -0.71875 -1.828125 -1.78125l0 8.171875l-2.0625 0l0 -18.3125l2.0625 0l0 2.296875zm8.421875 3.875q0 -1.40625 -0.578125 -2.4375q-0.5625 -1.046875 -1.53125 -1.59375q-0.953125 -0.546875 -2.109375 -0.546875q-1.125 0 -2.09375 0.5625q-0.953125 0.546875 -1.53125 1.609375q-0.578125 1.046875 -0.578125 2.421875q0 1.40625 0.578125 2.46875q0.578125 1.046875 1.53125 1.609375q0.96875 0.546875 2.09375 0.546875q1.15625 0 2.109375 -0.546875q0.96875 -0.5625 1.53125 -1.609375q0.578125 -1.0625 0.578125 -2.484375z" fill-rule="nonzero"/><path fill="#000000" fill-opacity="0.0" d="m203.71129 185.12663l0 0c0 -17.998169 14.590408 -32.588577 32.588577 -32.588577l130.3504 0l0 0c8.643036 0 16.932068 3.433426 23.04361 9.544983c6.1115417 6.1115417 9.544952 14.400574 9.544952 23.043594l0 277.24805c0 17.9982 -14.590393 32.588593 -32.588562 32.588593l-130.3504 0c-17.998169 0 -32.588577 -14.590393 -32.588577 -32.588593z" fill-rule="evenodd"/><path stroke="#8d3aed" stroke-width="1.0" stroke-linejoin="round" stroke-linecap="butt" d="m203.71129 185.12663l0 0c0 -17.998169 14.590408 -32.588577 32.588577 -32.588577l130.3504 0l0 0c8.643036 0 16.932068 3.433426 23.04361 9.544983c6.1115417 6.1115417 9.544952 14.400574 9.544952 23.043594l0 277.24805c0 17.9982 -14.590393 32.588593 -32.588562 32.588593l-130.3504 0c-17.998169 0 -32.588577 -14.590393 -32.588577 -32.588593z" fill-rule="evenodd"/><path fill="#ffffff" d="m242.51588 301.05627l0 1.78125l-4.5625 0l0 14.953125l-2.171875 0l0 -14.953125l-4.59375 0l0 -1.78125l11.328125 0zm4.874588 5.71875q0.578125 -1.125 1.640625 -1.75q1.078125 -0.625 2.609375 -0.625l0 2.25l-0.578125 0q-3.671875 0 -3.671875 3.984375l0 7.15625l-2.1875 0l0 -13.15625l2.1875 0l0 2.140625zm5.9519806 4.390625q0 -2.015625 0.8125 -3.53125q0.8125 -1.53125 2.2343903 -2.375q1.4375 -0.84375 3.1875 -0.84375q1.734375 0 3.0 0.75q1.28125 0.75 1.90625 1.875l0 -2.40625l2.203125 0l0 13.15625l-2.203125 0l0 -2.453125q-0.65625 1.15625 -1.9375 1.921875q-1.28125 0.75 -2.984375 0.75q-1.75 0 -3.171875 -0.859375q-1.4218903 -0.875 -2.2343903 -2.421875q-0.8125 -1.5625 -0.8125 -3.5625zm11.14064 0.03125q0 -1.5 -0.609375 -2.59375q-0.59375 -1.109375 -1.625 -1.6875q-1.015625 -0.59375 -2.234375 -0.59375q-1.21875 0 -2.234375 0.578125q-1.0 0.578125 -1.609375 1.6875q-0.59376526 1.09375 -0.59376526 2.578125q0 1.515625 0.59376526 2.640625q0.609375 1.109375 1.609375 1.703125q1.015625 0.578125 2.234375 0.578125q1.21875 0 2.234375 -0.578125q1.03125 -0.59375 1.625 -1.703125q0.609375 -1.125 0.609375 -2.609375zm12.302063 -6.796875q2.40625 0 3.890625 1.453125q1.484375 1.453125 1.484375 4.1875l0 7.75l-2.15625 0l0 -7.4375q0 -1.96875 -0.984375 -3.015625q-0.984375 -1.046875 -2.6875 -1.046875q-1.71875 0 -2.75 1.078125q-1.015625 1.078125 -1.015625 3.15625l0 7.265625l-2.1875 0l0 -13.15625l2.1875 0l0 1.875q0.65625 -1.0 1.765625 -1.546875q1.109375 -0.5625 2.453125 -0.5625zm13.609955 13.609375q-1.515625 0 -2.71875 -0.515625q-1.1875 -0.515625 -1.890625 -1.4375q-0.6875 -0.921875 -0.765625 -2.125l2.265625 0q0.09375 0.984375 0.921875 1.609375q0.828125 0.625 2.171875 0.625q1.25 0 1.96875 -0.546875q0.71875 -0.5625 0.71875 -1.40625q0 -0.859375 -0.78125 -1.28125q-0.765625 -0.421875 -2.359375 -0.828125q-1.46875 -0.390625 -2.390625 -0.78125q-0.921875 -0.390625 -1.59375 -1.171875q-0.65625 -0.78125 -0.65625 -2.0625q0 -1.0 0.59375 -1.84375q0.609375 -0.84375 1.703125 -1.328125q1.109375 -0.5 2.53125 -0.5q2.1875 0 3.53125 1.109375q1.34375 1.109375 1.4375 3.03125l-2.1875 0q-0.078125 -1.03125 -0.828125 -1.65625q-0.75 -0.625 -2.03125 -0.625q-1.171875 0 -1.875 0.5q-0.6875 0.5 -0.6875 1.3125q0 0.65625 0.421875 1.078125q0.421875 0.421875 1.046875 0.671875q0.640625 0.25 1.765625 0.5625q1.421875 0.375 2.3125 0.75q0.890625 0.375 1.515625 1.125q0.640625 0.734375 0.65625 1.9375q0 1.078125 -0.59375 1.953125q-0.59375 0.859375 -1.6875 1.359375q-1.09375 0.484375 -2.515625 0.484375zm7.0592346 -6.84375q0 -2.015625 0.8125 -3.53125q0.8125 -1.53125 2.234375 -2.375q1.4375 -0.84375 3.1875 -0.84375q1.734375 0 3.0 0.75q1.28125 0.75 1.90625 1.875l0 -2.40625l2.203125 0l0 13.15625l-2.203125 0l0 -2.453125q-0.65625 1.15625 -1.9375 1.921875q-1.28125 0.75 -2.984375 0.75q-1.75 0 -3.171875 -0.859375q-1.421875 -0.875 -2.234375 -2.421875q-0.8125 -1.5625 -0.8125 -3.5625zm11.140625 0.03125q0 -1.5 -0.609375 -2.59375q-0.59375 -1.109375 -1.625 -1.6875q-1.015625 -0.59375 -2.234375 -0.59375q-1.21875 0 -2.234375 0.578125q-1.0 0.578125 -1.609375 1.6875q-0.59375 1.09375 -0.59375 2.578125q0 1.515625 0.59375 2.640625q0.609375 1.109375 1.609375 1.703125q1.015625 0.578125 2.234375 0.578125q1.21875 0 2.234375 -0.578125q1.03125 -0.59375 1.625 -1.703125q0.609375 -1.125 0.609375 -2.609375zm5.083313 0q0 -2.046875 0.8125 -3.5625q0.8125 -1.53125 2.265625 -2.375q1.453125 -0.84375 3.328125 -0.84375q2.421875 0 4.0 1.1875q1.578125 1.171875 2.078125 3.265625l-2.359375 0q-0.328125 -1.203125 -1.3125 -1.890625q-0.96875 -0.703125 -2.40625 -0.703125q-1.875 0 -3.03125 1.28125q-1.140625 1.28125 -1.140625 3.640625q0 2.375 1.140625 3.671875q1.15625 1.296875 3.03125 1.296875q1.4375 0 2.390625 -0.671875q0.96875 -0.671875 1.328125 -1.921875l2.359375 0q-0.53125 2.015625 -2.125 3.234375q-1.578125 1.203125 -3.953125 1.203125q-1.875 0 -3.328125 -0.84375q-1.453125 -0.84375 -2.265625 -2.375q-0.8125 -1.53125 -0.8125 -3.59375zm18.052338 -4.765625l0 7.765625q0 0.953125 0.40625 1.359375q0.40625 0.390625 1.421875 0.390625l1.59375 0l0 1.84375l-1.96875 0q-1.8125 0 -2.734375 -0.84375q-0.90625 -0.84375 -0.90625 -2.75l0 -7.765625l-1.703125 0l0 -1.796875l1.703125 0l0 -3.3125l2.1875 0l0 3.3125l3.421875 0l0 1.796875l-3.421875 0zm7.1891174 -3.921875q-0.609375 0 -1.046875 -0.4375q-0.4375 -0.4375 -0.4375 -1.0625q0 -0.625 0.4375 -1.046875q0.4375 -0.4375 1.046875 -0.4375q0.609375 0 1.03125 0.4375q0.421875 0.421875 0.421875 1.046875q0 0.625 -0.421875 1.0625q-0.421875 0.4375 -1.03125 0.4375zm1.0625 2.125l0 13.15625l-2.1875 0l0 -13.15625l2.1875 0zm9.450836 13.375q-1.84375 0 -3.34375 -0.84375q-1.5 -0.84375 -2.359375 -2.390625q-0.84375 -1.546875 -0.84375 -3.578125q0 -2.015625 0.875 -3.5625q0.875 -1.5625 2.390625 -2.390625q1.515625 -0.828125 3.390625 -0.828125q1.859375 0 3.375 0.828125q1.515625 0.828125 2.390625 2.375q0.875 1.53125 0.875 3.578125q0 2.03125 -0.90625 3.578125q-0.890625 1.546875 -2.4375 2.390625q-1.53125 0.84375 -3.40625 0.84375zm0 -1.921875q1.1875 0 2.21875 -0.546875q1.03125 -0.5625 1.65625 -1.65625q0.640625 -1.109375 0.640625 -2.6875q0 -1.59375 -0.625 -2.6875q-0.625 -1.109375 -1.640625 -1.640625q-1.0 -0.546875 -2.171875 -0.546875q-1.203125 0 -2.203125 0.546875q-0.984375 0.53125 -1.59375 1.640625q-0.59375 1.09375 -0.59375 2.6875q0 1.609375 0.578125 2.71875q0.59375 1.09375 1.578125 1.640625q0.984375 0.53125 2.15625 0.53125zm16.03183 -11.6875q2.40625 0 3.890625 1.453125q1.484375 1.453125 1.484375 4.1875l0 7.75l-2.15625 0l0 -7.4375q0 -1.96875 -0.984375 -3.015625q-0.984375 -1.046875 -2.6875 -1.046875q-1.71875 0 -2.75 1.078125q-1.015625 1.078125 -1.015625 3.15625l0 7.265625l-2.1875 0l0 -13.15625l2.1875 0l0 1.875q0.65625 -1.0 1.765625 -1.546875q1.109375 -0.5625 2.453125 -0.5625z" fill-rule="nonzero"/><path fill="#ffffff" d="m289.2464 334.96252q0 2.078125 -1.4375 3.46875q-1.421875 1.375 -4.34375 1.375l-3.21875 0l0 6.984375l-2.1875 0l0 -16.734375l5.40625 0q2.828125 0 4.296875 1.375q1.484375 1.375 1.484375 3.53125zm-5.78125 3.046875q1.828125 0 2.6875 -0.796875q0.859375 -0.796875 0.859375 -2.25q0 -3.09375 -3.546875 -3.09375l-3.21875 0l0 6.140625l3.21875 0zm14.224091 9.0q-1.84375 0 -3.34375 -0.84375q-1.5 -0.84375 -2.359375 -2.390625q-0.84375 -1.546875 -0.84375 -3.578125q0 -2.015625 0.875 -3.5625q0.875 -1.5625 2.390625 -2.390625q1.515625 -0.828125 3.390625 -0.828125q1.859375 0 3.375 0.828125q1.515625 0.828125 2.390625 2.375q0.875 1.53125 0.875 3.578125q0 2.03125 -0.90625 3.578125q-0.890625 1.546875 -2.4375 2.390625q-1.53125 0.84375 -3.40625 0.84375zm0 -1.921875q1.1875 0 2.21875 -0.546875q1.03125 -0.5625 1.65625 -1.65625q0.640625 -1.109375 0.640625 -2.6875q0 -1.59375 -0.625 -2.6875q-0.625 -1.109375 -1.640625 -1.640625q-1.0 -0.546875 -2.171875 -0.546875q-1.203125 0 -2.203125 0.546875q-0.984375 0.53125 -1.59375 1.640625q-0.59375 1.09375 -0.59375 2.6875q0 1.609375 0.578125 2.71875q0.59375 1.09375 1.578125 1.640625q0.984375 0.53125 2.15625 0.53125zm15.359955 1.921875q-1.84375 0 -3.34375 -0.84375q-1.5 -0.84375 -2.359375 -2.390625q-0.84375 -1.546875 -0.84375 -3.578125q0 -2.015625 0.875 -3.5625q0.875 -1.5625 2.390625 -2.390625q1.515625 -0.828125 3.390625 -0.828125q1.859375 0 3.375 0.828125q1.515625 0.828125 2.390625 2.375q0.875 1.53125 0.875 3.578125q0 2.03125 -0.90625 3.578125q-0.890625 1.546875 -2.4375 2.390625q-1.53125 0.84375 -3.40625 0.84375zm0 -1.921875q1.1875 0 2.21875 -0.546875q1.03125 -0.5625 1.65625 -1.65625q0.640625 -1.109375 0.640625 -2.6875q0 -1.59375 -0.625 -2.6875q-0.625 -1.109375 -1.640625 -1.640625q-1.0 -0.546875 -2.171875 -0.546875q-1.203125 0 -2.203125 0.546875q-0.984375 0.53125 -1.59375 1.640625q-0.59375 1.09375 -0.59375 2.6875q0 1.609375 0.578125 2.71875q0.59375 1.09375 1.578125 1.640625q0.984375 0.53125 2.15625 0.53125zm11.81308 -16.0625l0 17.765625l-2.1875 0l0 -17.765625l2.1875 0z" fill-rule="nonzero"/><path fill="#000000" fill-opacity="0.0" d="m890.91595 168.33435l0 0c0 -28.200424 22.860962 -51.061386 51.0614 -51.061386l204.23944 0l0 0c13.542358 0 26.529907 5.379669 36.105835 14.955536c9.575806 9.575867 14.955566 22.563538 14.955566 36.10585l0 316.86935c0 28.200409 -22.860962 51.06137 -51.0614 51.06137l-204.23944 0c-28.20044 0 -51.0614 -22.860962 -51.0614 -51.06137z" fill-rule="evenodd"/><path stroke="#bb8ba6" stroke-width="1.0" stroke-linejoin="round" stroke-linecap="butt" d="m890.91595 168.33435l0 0c0 -28.200424 22.860962 -51.061386 51.0614 -51.061386l204.23944 0l0 0c13.542358 0 26.529907 5.379669 36.105835 14.955536c9.575806 9.575867 14.955566 22.563538 14.955566 36.10585l0 316.86935c0 28.200409 -22.860962 51.06137 -51.0614 51.06137l-204.23944 0c-28.20044 0 -51.0614 -22.860962 -51.0614 -51.06137z" fill-rule="evenodd"/><path fill="#ffffff" d="m952.6928 316.19217l-6.46875 22.296875l-3.265625 0l-5.1875 -17.953125l-5.375 17.953125l-3.234375 0.03125l-6.234375 -22.328125l3.109375 0l4.859375 18.90625l5.375 -18.90625l3.265625 0l5.125 18.84375l4.890625 -18.84375l3.140625 0zm2.1070557 13.46875q0 -2.6875 1.078125 -4.71875q1.09375 -2.03125 3.0 -3.15625q1.90625 -1.125 4.25 -1.125q2.296875 0 3.984375 1.0q1.703125 0.984375 2.53125 2.484375l0 -3.1875l2.953125 0l0 17.53125l-2.953125 0l0 -3.265625q-0.859375 1.53125 -2.578125 2.546875q-1.703125 1.0 -3.984375 1.0q-2.328125 0 -4.21875 -1.140625q-1.890625 -1.15625 -2.984375 -3.234375q-1.078125 -2.078125 -1.078125 -4.734375zm14.84375 0.03125q0 -1.984375 -0.796875 -3.453125q-0.796875 -1.484375 -2.15625 -2.265625q-1.359375 -0.78125 -3.0 -0.78125q-1.625 0 -2.96875 0.765625q-1.34375 0.765625 -2.140625 2.25q-0.796875 1.46875 -0.796875 3.453125q0 2.015625 0.796875 3.5q0.796875 1.484375 2.140625 2.28125q1.34375 0.78125 2.96875 0.78125q1.640625 0 3.0 -0.78125q1.359375 -0.796875 2.15625 -2.28125q0.796875 -1.484375 0.796875 -3.46875zm14.085205 9.078125q-2.015625 0 -3.625 -0.6875q-1.59375 -0.6875 -2.53125 -1.90625q-0.921875 -1.234375 -1.015625 -2.84375l3.015625 0q0.125 1.3125 1.21875 2.15625q1.109375 0.828125 2.90625 0.828125q1.65625 0 2.609375 -0.734375q0.96875 -0.734375 0.96875 -1.859375q0 -1.15625 -1.03125 -1.71875q-1.015625 -0.5625 -3.15625 -1.09375q-1.953125 -0.515625 -3.1875 -1.046875q-1.234375 -0.53125 -2.109375 -1.5625q-0.875 -1.046875 -0.875 -2.734375q0 -1.34375 0.796875 -2.46875q0.796875 -1.125 2.265625 -1.78125q1.484375 -0.65625 3.359375 -0.65625q2.921875 0 4.703125 1.484375q1.796875 1.46875 1.921875 4.03125l-2.90625 0q-0.09375 -1.390625 -1.109375 -2.21875q-1.0 -0.828125 -2.703125 -0.828125q-1.5625 0 -2.5 0.671875q-0.921875 0.671875 -0.921875 1.765625q0 0.859375 0.5625 1.421875q0.5625 0.5625 1.40625 0.90625q0.84375 0.328125 2.359375 0.734375q1.875 0.515625 3.0625 1.015625q1.1875 0.484375 2.03125 1.484375q0.859375 0.984375 0.890625 2.59375q0 1.4375 -0.8125 2.59375q-0.796875 1.140625 -2.25 1.796875q-1.453125 0.65625 -3.34375 0.65625zm31.57904 -18.140625q2.046875 0 3.640625 0.859375q1.609375 0.84375 2.53125 2.546875q0.9375 1.6875 0.9375 4.109375l0 10.34375l-2.875 0l0 -9.921875q0 -2.625 -1.296875 -4.015625q-1.296875 -1.390625 -3.515625 -1.390625q-2.265625 0 -3.609375 1.453125q-1.34375 1.453125 -1.34375 4.21875l0 9.65625l-2.875 0l0 -9.921875q0 -2.625 -1.296875 -4.015625q-1.296875 -1.390625 -3.5 -1.390625q-2.28125 0 -3.625 1.453125q-1.34375 1.453125 -1.34375 4.21875l0 9.65625l-2.90625 0l0 -17.53125l2.90625 0l0 2.515625q0.859375 -1.375 2.3125 -2.109375q1.46875 -0.734375 3.21875 -0.734375q2.21875 0 3.90625 1.0q1.703125 0.984375 2.53125 2.90625q0.734375 -1.859375 2.421875 -2.875q1.703125 -1.03125 3.78125 -1.03125zm32.16028 17.859375l-5.3125 -9.125l-3.515625 0l0 9.125l-2.90625 0l0 -22.296875l7.1875 0q2.53125 0 4.28125 0.859375q1.75 0.859375 2.609375 2.34375q0.859375 1.46875 0.859375 3.34375q0 2.3125 -1.328125 4.078125q-1.328125 1.75 -3.984375 2.328125l5.609375 9.34375l-3.5 0zm-8.828125 -11.453125l4.28125 0q2.375 0 3.5625 -1.171875q1.1875 -1.171875 1.1875 -3.125q0 -1.984375 -1.171875 -3.0625q-1.171875 -1.09375 -3.578125 -1.09375l-4.28125 0l0 8.453125zm32.09668 -6.078125l0 17.53125l-2.90625 0l0 -2.59375q-0.84375 1.34375 -2.328125 2.09375q-1.484375 0.75 -3.28125 0.75q-2.046875 0 -3.6875 -0.84375q-1.625 -0.84375 -2.578125 -2.53125q-0.9375 -1.703125 -0.9375 -4.140625l0 -10.265625l2.890625 0l0 9.890625q0 2.578125 1.3125 3.984375q1.3125 1.390625 3.578125 1.390625q2.34375 0 3.6875 -1.4375q1.34375 -1.453125 1.34375 -4.203125l0 -9.625l2.90625 0zm13.480103 -0.328125q3.1875 0 5.171875 1.9375q1.984375 1.9375 1.984375 5.578125l0 10.34375l-2.875 0l0 -9.921875q0 -2.625 -1.3125 -4.015625q-1.3125 -1.390625 -3.578125 -1.390625q-2.3125 0 -3.671875 1.4375q-1.359375 1.4375 -1.359375 4.1875l0 9.703125l-2.90625 0l0 -17.53125l2.90625 0l0 2.484375q0.859375 -1.34375 2.34375 -2.078125q1.5 -0.734375 3.296875 -0.734375zm15.47998 2.71875l0 10.34375q0 1.28125 0.546875 1.8125q0.546875 0.515625 1.890625 0.515625l2.140625 0l0 2.46875l-2.625 0q-2.4375 0 -3.65625 -1.109375q-1.203125 -1.125 -1.203125 -3.6875l0 -10.34375l-2.28125 0l0 -2.390625l2.28125 0l0 -4.421875l2.90625 0l0 4.421875l4.578125 0l0 2.390625l-4.578125 0zm9.601196 -5.25q-0.828125 0 -1.40625 -0.5625q-0.578125 -0.578125 -0.578125 -1.421875q0 -0.828125 0.578125 -1.40625q0.578125 -0.578125 1.40625 -0.578125q0.796875 0 1.359375 0.578125q0.5625 0.578125 0.5625 1.40625q0 0.84375 -0.5625 1.421875q-0.5625 0.5625 -1.359375 0.5625zm1.40625 2.859375l0 17.53125l-2.90625 0l0 -17.53125l2.90625 0zm26.043823 -0.328125q2.046875 0 3.640625 0.859375q1.609375 0.84375 2.53125 2.546875q0.9375 1.6875 0.9375 4.109375l0 10.34375l-2.875 0l0 -9.921875q0 -2.625 -1.296875 -4.015625q-1.296875 -1.390625 -3.515625 -1.390625q-2.265625 0 -3.609375 1.453125q-1.34375 1.453125 -1.34375 4.21875l0 9.65625l-2.875 0l0 -9.921875q0 -2.625 -1.296875 -4.015625q-1.296875 -1.390625 -3.5 -1.390625q-2.28125 0 -3.625 1.453125q-1.34375 1.453125 -1.34375 4.21875l0 9.65625l-2.90625 0l0 -17.53125l2.90625 0l0 2.515625q0.859375 -1.375 2.3125 -2.109375q1.46875 -0.734375 3.21875 -0.734375q2.21875 0 3.90625 1.0q1.703125 0.984375 2.53125 2.90625q0.734375 -1.859375 2.421875 -2.875q1.703125 -1.03125 3.78125 -1.03125zm27.881958 8.421875q0 0.828125 -0.09375 1.75l-14.015625 0q0.15625 2.59375 1.765625 4.0625q1.625 1.453125 3.921875 1.453125q1.890625 0 3.15625 -0.875q1.265625 -0.890625 1.765625 -2.359375l3.140625 0q-0.703125 2.53125 -2.8125 4.109375q-2.109375 1.578125 -5.25 1.578125q-2.5 0 -4.46875 -1.109375q-1.96875 -1.125 -3.09375 -3.1875q-1.109375 -2.0625 -1.109375 -4.78125q0 -2.71875 1.078125 -4.765625q1.09375 -2.046875 3.0625 -3.15625q1.96875 -1.109375 4.53125 -1.109375q2.5 0 4.421875 1.09375q1.921875 1.09375 2.953125 3.0q1.046875 1.890625 1.046875 4.296875zm-3.015625 -0.609375q0 -1.671875 -0.734375 -2.859375q-0.734375 -1.203125 -2.0 -1.828125q-1.265625 -0.625 -2.796875 -0.625q-2.203125 0 -3.765625 1.40625q-1.546875 1.40625 -1.765625 3.90625l11.0625 0z" fill-rule="nonzero"/><path fill="#000000" fill-opacity="0.0" d="m419.80008 253.09511l0 0c0 -15.116379 12.254242 -27.37062 27.370636 -27.37062l109.47919 0l0 0c7.2591553 0 14.221008 2.8836823 19.354004 8.016663c5.1329346 5.1329956 8.016663 12.094818 8.016663 19.353958l0 150.80205c0 15.116394 -12.254272 27.370636 -27.370667 27.370636l-109.47919 0c-15.116394 0 -27.370636 -12.254242 -27.370636 -27.370636z" fill-rule="evenodd"/><path stroke="#8d3aed" stroke-width="1.0" stroke-linejoin="round" stroke-linecap="butt" d="m419.80008 253.09511l0 0c0 -15.116379 12.254242 -27.37062 27.370636 -27.37062l109.47919 0l0 0c7.2591553 0 14.221008 2.8836823 19.354004 8.016663c5.1329346 5.1329956 8.016663 12.094818 8.016663 19.353958l0 150.80205c0 15.116394 -12.254272 27.370636 -27.370667 27.370636l-109.47919 0c-15.116394 0 -27.370636 -12.254242 -27.370636 -27.370636z" fill-rule="evenodd"/><path fill="#ffffff" d="m474.7977 309.93613q1.15625 0.171875 2.125 0.953125q0.96875 0.765625 1.53125 1.90625q0.578125 1.125 0.578125 2.40625q0 1.625 -0.828125 2.9375q-0.828125 1.296875 -2.40625 2.046875q-1.578125 0.75 -3.734375 0.75l-7.96875 0l0 -21.375l7.671875 0q2.171875 0 3.703125 0.734375q1.53125 0.71875 2.296875 1.953125q0.765625 1.21875 0.765625 2.75q0 1.890625 -1.03125 3.140625q-1.015625 1.234375 -2.703125 1.796875zm-7.90625 -1.140625l4.6875 0q1.953125 0 3.03125 -0.921875q1.078125 -0.921875 1.078125 -2.546875q0 -1.625 -1.078125 -2.53125q-1.078125 -0.921875 -3.09375 -0.921875l-4.625 0l0 6.921875zm4.921875 9.84375q2.09375 0 3.25 -0.984375q1.171875 -0.984375 1.171875 -2.734375q0 -1.765625 -1.234375 -2.796875q-1.21875 -1.03125 -3.265625 -1.03125l-4.84375 0l0 7.546875l4.921875 0zm13.870453 -20.390625l0 22.6875l-2.796875 0l0 -22.6875l2.796875 0zm12.072693 22.96875q-2.359375 0 -4.28125 -1.078125q-1.90625 -1.078125 -3.0 -3.046875q-1.09375 -1.984375 -1.09375 -4.59375q0 -2.5625 1.125 -4.53125q1.125 -1.984375 3.046875 -3.046875q1.9375 -1.0625 4.328125 -1.0625q2.390625 0 4.3125 1.0625q1.9375 1.0625 3.046875 3.03125q1.125 1.953125 1.125 4.546875q0 2.609375 -1.15625 4.59375q-1.140625 1.96875 -3.109375 3.046875q-1.953125 1.078125 -4.34375 1.078125zm0 -2.453125q1.5 0 2.8125 -0.703125q1.328125 -0.71875 2.140625 -2.125q0.8125 -1.40625 0.8125 -3.4375q0 -2.015625 -0.796875 -3.421875q-0.796875 -1.421875 -2.09375 -2.109375q-1.28125 -0.6875 -2.78125 -0.6875q-1.53125 0 -2.8125 0.6875q-1.265625 0.6875 -2.03125 2.109375q-0.765625 1.40625 -0.765625 3.421875q0 2.0625 0.75 3.46875q0.75 1.40625 2.0 2.109375q1.265625 0.6875 2.765625 0.6875zm11.245056 -6.265625q0 -2.59375 1.046875 -4.53125q1.046875 -1.953125 2.890625 -3.03125q1.859375 -1.078125 4.25 -1.078125q3.09375 0 5.09375 1.5q2.015625 1.5 2.671875 4.171875l-3.015625 0q-0.421875 -1.53125 -1.671875 -2.421875q-1.234375 -0.890625 -3.078125 -0.890625q-2.390625 0 -3.859375 1.640625q-1.46875 1.640625 -1.46875 4.640625q0 3.046875 1.46875 4.703125q1.46875 1.65625 3.859375 1.65625q1.84375 0 3.0625 -0.859375q1.234375 -0.859375 1.6875 -2.453125l3.015625 0q-0.6875 2.5625 -2.71875 4.125q-2.015625 1.546875 -5.046875 1.546875q-2.390625 0 -4.25 -1.078125q-1.84375 -1.078125 -2.890625 -3.03125q-1.046875 -1.96875 -1.046875 -4.609375zm29.030273 8.4375l-6.578125 -7.421875l0 7.421875l-2.796875 0l0 -22.6875l2.796875 0l0 13.34375l6.46875 -7.453125l3.890625 0l-7.90625 8.359375l7.9375 8.4375l-3.8125 0z" fill-rule="nonzero"/><path fill="#ffffff" d="m462.64246 346.93613q1.15625 0.171875 2.125 0.953125q0.96875 0.765625 1.53125 1.90625q0.578125 1.125 0.578125 2.40625q0 1.625 -0.828125 2.9375q-0.828125 1.296875 -2.40625 2.046875q-1.578125 0.75 -3.734375 0.75l-7.96875 0l0 -21.375l7.671875 0q2.171875 0 3.703125 0.734375q1.53125 0.71875 2.296875 1.953125q0.765625 1.21875 0.765625 2.75q0 1.890625 -1.03125 3.140625q-1.015625 1.234375 -2.703125 1.796875zm-7.90625 -1.140625l4.6875 0q1.953125 0 3.03125 -0.921875q1.078125 -0.921875 1.078125 -2.546875q0 -1.625 -1.078125 -2.53125q-1.078125 -0.921875 -3.09375 -0.921875l-4.625 0l0 6.921875zm4.921875 9.84375q2.09375 0 3.25 -0.984375q1.171875 -0.984375 1.171875 -2.734375q0 -1.765625 -1.234375 -2.796875q-1.21875 -1.03125 -3.265625 -1.03125l-4.84375 0l0 7.546875l4.921875 0zm25.979828 -14.5l0 16.796875l-2.796875 0l0 -2.484375q-0.796875 1.28125 -2.21875 2.015625q-1.421875 0.71875 -3.140625 0.71875q-1.96875 0 -3.53125 -0.8125q-1.5625 -0.8125 -2.46875 -2.4375q-0.90625 -1.625 -0.90625 -3.953125l0 -9.84375l2.765625 0l0 9.46875q0 2.484375 1.25 3.828125q1.265625 1.328125 3.4375 1.328125q2.234375 0 3.515625 -1.375q1.296875 -1.390625 1.296875 -4.03125l0 -9.21875l2.796875 0zm6.151306 -2.734375q-0.796875 0 -1.34375 -0.546875q-0.546875 -0.546875 -0.546875 -1.34375q0 -0.796875 0.546875 -1.34375q0.546875 -0.5625 1.34375 -0.5625q0.765625 0 1.296875 0.5625q0.546875 0.546875 0.546875 1.34375q0 0.796875 -0.546875 1.34375q-0.53125 0.546875 -1.296875 0.546875zm1.359375 2.734375l0 16.796875l-2.796875 0l0 -16.796875l2.796875 0zm7.541443 -5.890625l0 22.6875l-2.796875 0l0 -22.6875l2.796875 0zm3.6977234 14.21875q0 -2.5625 1.046875 -4.5q1.046875 -1.953125 2.859375 -3.03125q1.828125 -1.078125 4.09375 -1.078125q1.96875 0 3.65625 0.90625q1.6875 0.90625 2.578125 2.375l0 -8.890625l2.8125 0l0 22.6875l-2.8125 0l0 -3.15625q-0.828125 1.5 -2.453125 2.46875q-1.625 0.96875 -3.8125 0.96875q-2.234375 0 -4.0625 -1.109375q-1.8125 -1.109375 -2.859375 -3.09375q-1.046875 -2.0 -1.046875 -4.546875zm14.234375 0.03125q0 -1.890625 -0.765625 -3.296875q-0.765625 -1.421875 -2.078125 -2.171875q-1.296875 -0.75 -2.859375 -0.75q-1.5625 0 -2.859375 0.734375q-1.28125 0.734375 -2.046875 2.15625q-0.765625 1.40625 -0.765625 3.296875q0 1.9375 0.765625 3.375q0.765625 1.421875 2.046875 2.171875q1.296875 0.75 2.859375 0.75q1.5625 0 2.859375 -0.75q1.3125 -0.75 2.078125 -2.171875q0.765625 -1.4375 0.765625 -3.34375zm22.864319 -0.609375q0 0.796875 -0.09375 1.6875l-13.421875 0q0.15625 2.484375 1.703125 3.890625q1.546875 1.390625 3.75 1.390625q1.8125 0 3.015625 -0.84375q1.21875 -0.84375 1.703125 -2.265625l3.0 0q-0.671875 2.421875 -2.703125 3.953125q-2.015625 1.515625 -5.015625 1.515625q-2.390625 0 -4.28125 -1.078125q-1.875 -1.078125 -2.953125 -3.046875q-1.078125 -1.984375 -1.078125 -4.59375q0 -2.59375 1.046875 -4.546875q1.046875 -1.96875 2.921875 -3.03125q1.890625 -1.0625 4.34375 -1.0625q2.390625 0 4.234375 1.046875q1.84375 1.046875 2.828125 2.875q1.0 1.8125 1.0 4.109375zm-2.875 -0.578125q0 -1.59375 -0.71875 -2.734375q-0.703125 -1.15625 -1.921875 -1.75q-1.203125 -0.609375 -2.671875 -0.609375q-2.109375 0 -3.59375 1.359375q-1.484375 1.34375 -1.703125 3.734375l10.609375 0zm9.350647 -4.453125q0.734375 -1.4375 2.09375 -2.234375q1.359375 -0.796875 3.328125 -0.796875l0 2.890625l-0.734375 0q-4.6875 0 -4.6875 5.078125l0 9.140625l-2.796875 0l0 -16.796875l2.796875 0l0 2.71875z" fill-rule="nonzero"/><path fill="#000000" fill-opacity="0.0" d="m654.494 234.42137l0 0c0 -23.486343 19.039429 -42.525787 42.525757 -42.525787l170.09802 0l0 0c11.278564 0 22.095154 4.480377 30.070312 12.455521c7.9750977 7.975128 12.455505 18.791718 12.455505 30.070267l0 227.29488c0 23.486359 -19.039429 42.525787 -42.525818 42.525787l-170.09802 0c-23.486328 0 -42.525757 -19.039429 -42.525757 -42.525787z" fill-rule="evenodd"/><path stroke="#bb8ba6" stroke-width="1.0" stroke-linejoin="round" stroke-linecap="butt" d="m654.494 234.42137l0 0c0 -23.486343 19.039429 -42.525787 42.525757 -42.525787l170.09802 0l0 0c11.278564 0 22.095154 4.480377 30.070312 12.455521c7.9750977 7.975128 12.455505 18.791718 12.455505 30.070267l0 227.29488c0 23.486359 -19.039429 42.525787 -42.525818 42.525787l-170.09802 0c-23.486328 0 -42.525757 -19.039429 -42.525757 -42.525787z" fill-rule="evenodd"/><path fill="#ffffff" d="m710.0514 325.66882l-3.90625 -7.0625l-1.09375 0l0 7.0625l-4.546875 0l0 -18.71875l7.640625 0q2.21875 0 3.78125 0.78125q1.5625 0.765625 2.328125 2.125q0.78125 1.34375 0.78125 2.984375q0 1.875 -1.0625 3.34375q-1.046875 1.453125 -3.109375 2.078125l4.328125 7.40625l-5.140625 0zm-5.0 -10.296875l2.828125 0q1.265625 0 1.890625 -0.609375q0.625 -0.609375 0.625 -1.734375q0 -1.0625 -0.625 -1.671875q-0.625 -0.609375 -1.890625 -0.609375l-2.828125 0l0 4.625zm27.520447 -4.578125l0 14.875l-4.5625 0l0 -2.03125q-0.6875 0.984375 -1.875 1.59375q-1.1875 0.59375 -2.625 0.59375q-1.703125 0 -3.015625 -0.75q-1.3125 -0.765625 -2.03125 -2.203125q-0.71875 -1.4375 -0.71875 -3.390625l0 -8.6875l4.53125 0l0 8.078125q0 1.5 0.765625 2.328125q0.78125 0.8125 2.09375 0.8125q1.328125 0 2.09375 -0.8125q0.78125 -0.828125 0.78125 -2.328125l0 -8.078125l4.5625 0zm12.341248 -0.15625q2.609375 0 4.171875 1.6875q1.5625 1.6875 1.5625 4.65625l0 8.6875l-4.53125 0l0 -8.078125q0 -1.484375 -0.78125 -2.3125q-0.765625 -0.828125 -2.078125 -0.828125q-1.3125 0 -2.09375 0.828125q-0.765625 0.828125 -0.765625 2.3125l0 8.078125l-4.546875 0l0 -14.875l4.546875 0l0 1.96875q0.703125 -0.984375 1.875 -1.546875q1.171875 -0.578125 2.640625 -0.578125zm17.184998 11.171875l0 3.859375l-2.3125 0q-2.484375 0 -3.875 -1.203125q-1.375 -1.21875 -1.375 -3.96875l0 -5.921875l-1.8125 0l0 -3.78125l1.8125 0l0 -3.625l4.5625 0l0 3.625l2.984375 0l0 3.78125l-2.984375 0l0 5.96875q0 0.671875 0.3125 0.96875q0.328125 0.296875 1.0625 0.296875l1.625 0zm4.8223877 -12.5625q-1.1875 0 -1.953125 -0.703125q-0.765625 -0.703125 -0.765625 -1.75q0 -1.0625 0.765625 -1.765625q0.765625 -0.71875 1.953125 -0.71875q1.1875 0 1.9375 0.71875q0.765625 0.703125 0.765625 1.765625q0 1.046875 -0.765625 1.75q-0.75 0.703125 -1.9375 0.703125zm2.265625 1.546875l0 14.875l-4.546875 0l0 -14.875l4.546875 0zm22.285461 -0.15625q2.78125 0 4.421875 1.6875q1.640625 1.671875 1.640625 4.65625l0 8.6875l-4.53125 0l0 -8.078125q0 -1.4375 -0.765625 -2.21875q-0.765625 -0.796875 -2.09375 -0.796875q-1.328125 0 -2.09375 0.796875q-0.75 0.78125 -0.75 2.21875l0 8.078125l-4.53125 0l0 -8.078125q0 -1.4375 -0.765625 -2.21875q-0.765625 -0.796875 -2.09375 -0.796875q-1.328125 0 -2.09375 0.796875q-0.765625 0.78125 -0.765625 2.21875l0 8.078125l-4.546875 0l0 -14.875l4.546875 0l0 1.859375q0.703125 -0.921875 1.8125 -1.46875q1.125 -0.546875 2.546875 -0.546875q1.671875 0 2.984375 0.71875q1.328125 0.71875 2.078125 2.046875q0.765625 -1.21875 2.09375 -1.984375q1.34375 -0.78125 2.90625 -0.78125zm23.275757 7.359375q0 0.640625 -0.078125 1.328125l-10.3125 0q0.109375 1.390625 0.890625 2.125q0.78125 0.734375 1.9375 0.734375q1.703125 0 2.359375 -1.453125l4.859375 0q-0.375 1.46875 -1.34375 2.640625q-0.96875 1.171875 -2.4375 1.84375q-1.46875 0.671875 -3.28125 0.671875q-2.1875 0 -3.890625 -0.9375q-1.703125 -0.9375 -2.671875 -2.671875q-0.953125 -1.734375 -0.953125 -4.046875q0 -2.3125 0.9375 -4.046875q0.953125 -1.734375 2.65625 -2.671875q1.703125 -0.9375 3.921875 -0.9375q2.15625 0 3.828125 0.90625q1.6875 0.90625 2.625 2.59375q0.953125 1.671875 0.953125 3.921875zm-4.65625 -1.203125q0 -1.171875 -0.8125 -1.859375q-0.796875 -0.703125 -2.0 -0.703125q-1.140625 0 -1.9375 0.671875q-0.78125 0.65625 -0.96875 1.890625l5.71875 0zm24.35254 5.5625l-6.984375 0l-1.109375 3.3125l-4.78125 0l6.78125 -18.71875l5.265625 0l6.78125 18.71875l-4.828125 0l-1.125 -3.3125zm-1.171875 -3.515625l-2.3125 -6.84375l-2.296875 6.84375l4.609375 0zm23.426819 -5.859375q0 1.625 -0.75 2.96875q-0.734375 1.34375 -2.28125 2.171875q-1.546875 0.828125 -3.84375 0.828125l-2.828125 0l0 6.71875l-4.546875 0l0 -18.71875l7.375 0q2.25 0 3.796875 0.78125q1.546875 0.765625 2.3125 2.125q0.765625 1.359375 0.765625 3.125zm-7.21875 2.34375q1.3125 0 1.953125 -0.609375q0.640625 -0.609375 0.640625 -1.734375q0 -1.125 -0.640625 -1.734375q-0.640625 -0.609375 -1.953125 -0.609375l-2.484375 0l0 4.6875l2.484375 0zm14.149109 -8.375l0 18.71875l-4.546875 0l0 -18.71875l4.546875 0z" fill-rule="nonzero"/><path fill="#ffffff" d="m682.09 370.7088l-2.765625 0l-3.375 -11.0625l2.359375 0l1.875 6.65625l0.59375 2.1875l0.625 -2.3125l1.859375 -6.53125l2.21875 0l-3.390625 11.0625zm9.948914 0l-0.046875 -1.125q-0.265625 0.28125 -0.5625 0.53125q-0.296875 0.234375 -0.65625 0.421875q-0.359375 0.171875 -0.78125 0.265625q-0.40625 0.09375 -0.90625 0.09375q-0.671875 0 -1.171875 -0.1875q-0.484375 -0.1875 -0.828125 -0.53125q-0.34375 -0.359375 -0.515625 -0.84375q-0.171875 -0.5 -0.171875 -1.09375q0 -0.609375 0.25 -1.125q0.265625 -0.515625 0.796875 -0.875q0.53125 -0.375 1.3125 -0.578125q0.796875 -0.21875 1.859375 -0.21875l1.125 0l0 -0.515625q0 -0.34375 -0.09375 -0.609375q-0.09375 -0.265625 -0.296875 -0.4375q-0.203125 -0.1875 -0.53125 -0.28125q-0.328125 -0.109375 -0.8125 -0.109375q-0.765625 0 -1.515625 0.171875q-0.734375 0.171875 -1.421875 0.484375l0 -1.65625q0.609375 -0.25 1.421875 -0.40625q0.8125 -0.15625 1.6875 -0.15625q0.953125 0 1.625 0.1875q0.6875 0.171875 1.125 0.546875q0.453125 0.359375 0.65625 0.90625q0.21875 0.546875 0.21875 1.265625l0 5.875l-1.765625 0zm-0.296875 -3.796875l-1.25 0q-0.53125 0 -0.90625 0.109375q-0.359375 0.09375 -0.59375 0.28125q-0.21875 0.171875 -0.328125 0.40625q-0.09375 0.21875 -0.09375 0.484375q0 0.53125 0.328125 0.8125q0.34375 0.265625 0.921875 0.265625q0.4375 0 0.90625 -0.3125q0.46875 -0.3125 1.015625 -0.890625l0 -1.15625zm7.2145996 -6.546875l-2.4375 0l0 -1.609375l4.546875 0l0 10.34375l2.484375 0l0 1.609375l-7.3125 0l0 -1.609375l2.71875 0l0 -8.734375zm11.80835 -0.609375q0 0.28125 -0.109375 0.53125q-0.09375 0.25 -0.28125 0.4375q-0.171875 0.171875 -0.421875 0.28125q-0.25 0.09375 -0.53125 0.09375q-0.28125 0 -0.53125 -0.09375q-0.25 -0.109375 -0.4375 -0.28125q-0.1875 -0.1875 -0.296875 -0.4375q-0.09375 -0.25 -0.09375 -0.53125q0 -0.28125 0.09375 -0.515625q0.109375 -0.25 0.296875 -0.4375q0.1875 -0.1875 0.4375 -0.28125q0.25 -0.109375 0.53125 -0.109375q0.28125 0 0.53125 0.109375q0.25 0.09375 0.421875 0.28125q0.1875 0.1875 0.28125 0.4375q0.109375 0.234375 0.109375 0.515625zm-2.28125 3.96875l-2.4375 0l0 -1.609375l4.546875 0l0 6.984375l2.484375 0l0 1.609375l-7.3125 0l0 -1.609375l2.71875 0l0 -5.375zm12.1521 6.984375l-0.046875 -1.265625q-0.265625 0.328125 -0.5625 0.609375q-0.28125 0.265625 -0.609375 0.453125q-0.328125 0.1875 -0.71875 0.28125q-0.375 0.109375 -0.828125 0.109375q-0.765625 0 -1.359375 -0.296875q-0.578125 -0.3125 -0.984375 -0.875q-0.40625 -0.5625 -0.625 -1.359375q-0.203125 -0.796875 -0.203125 -1.796875q0 -1.1875 0.328125 -2.046875q0.34375 -0.875 0.9375 -1.4375q0.59375 -0.578125 1.40625 -0.84375q0.8125 -0.28125 1.765625 -0.28125q0.3125 0 0.640625 0.046875q0.328125 0.03125 0.578125 0.109375l0 -3.359375l2.078125 0l0 11.953125l-1.796875 0zm-3.765625 -4.234375q0 0.71875 0.09375 1.21875q0.09375 0.5 0.28125 0.828125q0.203125 0.3125 0.46875 0.46875q0.28125 0.140625 0.640625 0.140625q0.53125 0 1.0 -0.421875q0.46875 -0.421875 1.0 -1.15625l0 -3.75q-0.234375 -0.09375 -0.59375 -0.15625q-0.359375 -0.0625 -0.734375 -0.0625q-0.5 0 -0.890625 0.203125q-0.390625 0.203125 -0.6875 0.578125q-0.28125 0.375 -0.4375 0.90625q-0.140625 0.53125 -0.140625 1.203125zm13.277039 4.234375l-0.046875 -1.125q-0.265625 0.28125 -0.5625 0.53125q-0.296875 0.234375 -0.65625 0.421875q-0.359375 0.171875 -0.78125 0.265625q-0.40625 0.09375 -0.90625 0.09375q-0.671875 0 -1.171875 -0.1875q-0.484375 -0.1875 -0.828125 -0.53125q-0.34375 -0.359375 -0.515625 -0.84375q-0.171875 -0.5 -0.171875 -1.09375q0 -0.609375 0.25 -1.125q0.265625 -0.515625 0.796875 -0.875q0.53125 -0.375 1.3125 -0.578125q0.796875 -0.21875 1.859375 -0.21875l1.125 0l0 -0.515625q0 -0.34375 -0.09375 -0.609375q-0.09375 -0.265625 -0.296875 -0.4375q-0.203125 -0.1875 -0.53125 -0.28125q-0.328125 -0.109375 -0.8125 -0.109375q-0.765625 0 -1.515625 0.171875q-0.734375 0.171875 -1.421875 0.484375l0 -1.65625q0.609375 -0.25 1.421875 -0.40625q0.8125 -0.15625 1.6875 -0.15625q0.953125 0 1.625 0.1875q0.6875 0.171875 1.125 0.546875q0.453125 0.359375 0.65625 0.90625q0.21875 0.546875 0.21875 1.265625l0 5.875l-1.765625 0zm-0.296875 -3.796875l-1.25 0q-0.53125 0 -0.90625 0.109375q-0.359375 0.09375 -0.59375 0.28125q-0.21875 0.171875 -0.328125 0.40625q-0.09375 0.21875 -0.09375 0.484375q0 0.53125 0.328125 0.8125q0.34375 0.265625 0.921875 0.265625q0.4375 0 0.90625 -0.3125q0.46875 -0.3125 1.015625 -0.890625l0 -1.15625zm11.5271 3.71875q-0.5625 0.125 -1.125 0.1875q-0.5625 0.078125 -1.078125 0.078125q-0.84375 0 -1.453125 -0.171875q-0.609375 -0.171875 -1.015625 -0.53125q-0.40625 -0.375 -0.59375 -0.9375q-0.1875 -0.5625 -0.1875 -1.34375l0 -4.1875l-2.3125 0l0 -1.609375l2.3125 0l0 -2.203125l2.109375 -0.546875l0 2.75l3.34375 0l0 1.609375l-3.34375 0l0 4.046875q0 0.734375 0.328125 1.109375q0.34375 0.375 1.140625 0.375q0.515625 0 1.0 -0.078125q0.484375 -0.09375 0.875 -0.203125l0 1.65625zm9.93335 -4.875q0 0.203125 -0.015625 0.546875q-0.015625 0.34375 -0.046875 0.625l-5.640625 0q0 0.578125 0.171875 1.015625q0.171875 0.421875 0.484375 0.71875q0.3125 0.28125 0.75 0.4375q0.453125 0.15625 1.0 0.15625q0.625 0 1.328125 -0.09375q0.71875 -0.109375 1.5 -0.328125l0 1.640625q-0.328125 0.09375 -0.71875 0.171875q-0.390625 0.078125 -0.796875 0.140625q-0.40625 0.0625 -0.828125 0.078125q-0.40625 0.03125 -0.796875 0.03125q-0.984375 0 -1.765625 -0.265625q-0.78125 -0.28125 -1.328125 -0.828125q-0.53125 -0.546875 -0.828125 -1.34375q-0.28125 -0.8125 -0.28125 -1.875q0 -1.046875 0.28125 -1.90625q0.296875 -0.859375 0.8125 -1.46875q0.53125 -0.609375 1.28125 -0.9375q0.75 -0.34375 1.671875 -0.34375q0.921875 0 1.609375 0.28125q0.703125 0.28125 1.171875 0.796875q0.484375 0.5 0.734375 1.203125q0.25 0.703125 0.25 1.546875zm-2.109375 -0.296875q0.015625 -0.515625 -0.125 -0.890625q-0.140625 -0.375 -0.375 -0.609375q-0.21875 -0.25 -0.53125 -0.375q-0.3125 -0.125 -0.671875 -0.125q-0.765625 0 -1.265625 0.53125q-0.5 0.515625 -0.59375 1.46875l3.5625 0zm2.9645996 8.71875l0 -1.625l9.53125 0l0 1.625l-9.53125 0zm17.792664 -3.546875q-0.5625 0.125 -1.125 0.1875q-0.5625 0.078125 -1.078125 0.078125q-0.84375 0 -1.453125 -0.171875q-0.609375 -0.171875 -1.015625 -0.53125q-0.40625 -0.375 -0.59375 -0.9375q-0.1875 -0.5625 -0.1875 -1.34375l0 -4.1875l-2.3125 0l0 -1.609375l2.3125 0l0 -2.203125l2.109375 -0.546875l0 2.75l3.34375 0l0 1.609375l-3.34375 0l0 4.046875q0 0.734375 0.328125 1.109375q0.34375 0.375 1.140625 0.375q0.515625 0 1.0 -0.078125q0.484375 -0.09375 0.875 -0.203125l0 1.65625zm7.9645996 -5.171875q0.015625 -0.484375 -0.046875 -0.8125q-0.0625 -0.34375 -0.203125 -0.5625q-0.125 -0.234375 -0.328125 -0.328125q-0.203125 -0.109375 -0.46875 -0.109375q-0.46875 0 -0.953125 0.390625q-0.484375 0.375 -1.0625 1.234375l0 5.4375l-2.125 0l0 -8.59375l1.875 0l0.078125 1.25q0.21875 -0.328125 0.484375 -0.59375q0.265625 -0.265625 0.578125 -0.453125q0.328125 -0.1875 0.71875 -0.28125q0.40625 -0.109375 0.890625 -0.109375q0.640625 0 1.140625 0.234375q0.515625 0.21875 0.859375 0.65625q0.34375 0.4375 0.5 1.109375q0.171875 0.65625 0.140625 1.53125l-2.078125 0zm9.386475 5.25l-0.046875 -1.125q-0.265625 0.28125 -0.5625 0.53125q-0.296875 0.234375 -0.65625 0.421875q-0.359375 0.171875 -0.78125 0.265625q-0.40625 0.09375 -0.90625 0.09375q-0.671875 0 -1.171875 -0.1875q-0.484375 -0.1875 -0.828125 -0.53125q-0.34375 -0.359375 -0.515625 -0.84375q-0.171875 -0.5 -0.171875 -1.09375q0 -0.609375 0.25 -1.125q0.265625 -0.515625 0.796875 -0.875q0.53125 -0.375 1.3125 -0.578125q0.796875 -0.21875 1.859375 -0.21875l1.125 0l0 -0.515625q0 -0.34375 -0.09375 -0.609375q-0.09375 -0.265625 -0.296875 -0.4375q-0.203125 -0.1875 -0.53125 -0.28125q-0.328125 -0.109375 -0.8125 -0.109375q-0.765625 0 -1.515625 0.171875q-0.734375 0.171875 -1.421875 0.484375l0 -1.65625q0.609375 -0.25 1.421875 -0.40625q0.8125 -0.15625 1.6875 -0.15625q0.953125 0 1.625 0.1875q0.6875 0.171875 1.125 0.546875q0.453125 0.359375 0.65625 0.90625q0.21875 0.546875 0.21875 1.265625l0 5.875l-1.765625 0zm-0.296875 -3.796875l-1.25 0q-0.53125 0 -0.90625 0.109375q-0.359375 0.09375 -0.59375 0.28125q-0.21875 0.171875 -0.328125 0.40625q-0.09375 0.21875 -0.09375 0.484375q0 0.53125 0.328125 0.8125q0.34375 0.265625 0.921875 0.265625q0.4375 0 0.90625 -0.3125q0.46875 -0.3125 1.015625 -0.890625l0 -1.15625zm9.55835 3.796875l0 -5.59375q0 -1.421875 -1.046875 -1.421875q-0.515625 0 -1.0 0.421875q-0.46875 0.421875 -1.015625 1.15625l0 5.4375l-2.0625 0l0 -8.59375l1.796875 0l0.046875 1.265625q0.265625 -0.328125 0.546875 -0.59375q0.28125 -0.28125 0.609375 -0.46875q0.328125 -0.1875 0.703125 -0.28125q0.390625 -0.109375 0.859375 -0.109375q0.65625 0 1.140625 0.21875q0.5 0.21875 0.828125 0.609375q0.328125 0.390625 0.5 0.953125q0.171875 0.546875 0.171875 1.234375l0 5.765625l-2.078125 0zm11.495789 -2.53125q0 0.734375 -0.328125 1.265625q-0.328125 0.515625 -0.859375 0.84375q-0.53125 0.328125 -1.21875 0.46875q-0.6875 0.140625 -1.390625 0.140625q-0.953125 0 -1.71875 -0.09375q-0.75 -0.078125 -1.4375 -0.25l0 -1.859375q0.796875 0.328125 1.59375 0.484375q0.796875 0.140625 1.5 0.140625q0.8125 0 1.203125 -0.25q0.40625 -0.265625 0.40625 -0.671875q0 -0.203125 -0.09375 -0.359375q-0.078125 -0.15625 -0.3125 -0.296875q-0.234375 -0.15625 -0.65625 -0.3125q-0.421875 -0.15625 -1.109375 -0.359375q-0.625 -0.171875 -1.109375 -0.390625q-0.46875 -0.234375 -0.78125 -0.53125q-0.3125 -0.3125 -0.484375 -0.703125q-0.15625 -0.40625 -0.15625 -0.953125q0 -0.53125 0.234375 -0.984375q0.25 -0.46875 0.71875 -0.8125q0.46875 -0.359375 1.171875 -0.5625q0.703125 -0.203125 1.640625 -0.203125q0.8125 0 1.4375 0.09375q0.625 0.078125 1.109375 0.171875l0 1.6875q-0.734375 -0.234375 -1.390625 -0.328125q-0.640625 -0.109375 -1.28125 -0.109375q-0.625 0 -1.015625 0.234375q-0.390625 0.234375 -0.390625 0.640625q0 0.1875 0.078125 0.34375q0.078125 0.15625 0.296875 0.296875q0.234375 0.140625 0.625 0.296875q0.40625 0.15625 1.078125 0.34375q0.734375 0.203125 1.234375 0.453125q0.515625 0.234375 0.828125 0.546875q0.3125 0.296875 0.4375 0.6875q0.140625 0.390625 0.140625 0.890625zm7.8239746 2.53125l-0.046875 -1.125q-0.265625 0.28125 -0.5625 0.53125q-0.296875 0.234375 -0.65625 0.421875q-0.359375 0.171875 -0.78125 0.265625q-0.40625 0.09375 -0.90625 0.09375q-0.671875 0 -1.171875 -0.1875q-0.484375 -0.1875 -0.828125 -0.53125q-0.34375 -0.359375 -0.515625 -0.84375q-0.171875 -0.5 -0.171875 -1.09375q0 -0.609375 0.25 -1.125q0.265625 -0.515625 0.796875 -0.875q0.53125 -0.375 1.3125 -0.578125q0.796875 -0.21875 1.859375 -0.21875l1.125 0l0 -0.515625q0 -0.34375 -0.09375 -0.609375q-0.09375 -0.265625 -0.296875 -0.4375q-0.203125 -0.1875 -0.53125 -0.28125q-0.328125 -0.109375 -0.8125 -0.109375q-0.765625 0 -1.515625 0.171875q-0.734375 0.171875 -1.421875 0.484375l0 -1.65625q0.609375 -0.25 1.421875 -0.40625q0.8125 -0.15625 1.6875 -0.15625q0.953125 0 1.625 0.1875q0.6875 0.171875 1.125 0.546875q0.453125 0.359375 0.65625 0.90625q0.21875 0.546875 0.21875 1.265625l0 5.875l-1.765625 0zm-0.296875 -3.796875l-1.25 0q-0.53125 0 -0.90625 0.109375q-0.359375 0.09375 -0.59375 0.28125q-0.21875 0.171875 -0.328125 0.40625q-0.09375 0.21875 -0.09375 0.484375q0 0.53125 0.328125 0.8125q0.34375 0.265625 0.921875 0.265625q0.4375 0 0.90625 -0.3125q0.46875 -0.3125 1.015625 -0.890625l0 -1.15625zm11.386475 3.46875q-0.609375 0.25 -1.265625 0.359375q-0.640625 0.125 -1.34375 0.125q-1.03125 0 -1.84375 -0.28125q-0.8125 -0.28125 -1.390625 -0.828125q-0.5625 -0.546875 -0.859375 -1.359375q-0.296875 -0.8125 -0.296875 -1.890625q0 -1.03125 0.328125 -1.859375q0.328125 -0.84375 0.921875 -1.4375q0.59375 -0.59375 1.421875 -0.90625q0.828125 -0.328125 1.859375 -0.328125q0.828125 0 1.390625 0.09375q0.578125 0.09375 1.046875 0.21875l0 2.015625q-0.53125 -0.265625 -1.140625 -0.40625q-0.609375 -0.15625 -1.171875 -0.15625q-0.5625 0 -1.03125 0.203125q-0.453125 0.1875 -0.765625 0.546875q-0.3125 0.34375 -0.484375 0.84375q-0.15625 0.484375 -0.15625 1.078125q0 0.609375 0.171875 1.109375q0.1875 0.484375 0.5 0.828125q0.328125 0.34375 0.78125 0.53125q0.46875 0.171875 1.03125 0.171875q0.265625 0 0.5625 -0.03125q0.296875 -0.03125 0.59375 -0.109375q0.3125 -0.078125 0.59375 -0.171875q0.296875 -0.09375 0.546875 -0.203125l0 1.84375zm9.667725 0.25q-0.5625 0.125 -1.125 0.1875q-0.5625 0.078125 -1.078125 0.078125q-0.84375 0 -1.453125 -0.171875q-0.609375 -0.171875 -1.015625 -0.53125q-0.40625 -0.375 -0.59375 -0.9375q-0.1875 -0.5625 -0.1875 -1.34375l0 -4.1875l-2.3125 0l0 -1.609375l2.3125 0l0 -2.203125l2.109375 -0.546875l0 2.75l3.34375 0l0 1.609375l-3.34375 0l0 4.046875q0 0.734375 0.328125 1.109375q0.34375 0.375 1.140625 0.375q0.515625 0 1.0 -0.078125q0.484375 -0.09375 0.875 -0.203125l0 1.65625zm7.4957886 -10.875q0 0.28125 -0.109375 0.53125q-0.09375 0.25 -0.28125 0.4375q-0.171875 0.171875 -0.421875 0.28125q-0.25 0.09375 -0.53125 0.09375q-0.28125 0 -0.53125 -0.09375q-0.25 -0.109375 -0.4375 -0.28125q-0.1875 -0.1875 -0.296875 -0.4375q-0.09375 -0.25 -0.09375 -0.53125q0 -0.28125 0.09375 -0.515625q0.109375 -0.25 0.296875 -0.4375q0.1875 -0.1875 0.4375 -0.28125q0.25 -0.109375 0.53125 -0.109375q0.28125 0 0.53125 0.109375q0.25 0.09375 0.421875 0.28125q0.1875 0.1875 0.28125 0.4375q0.109375 0.234375 0.109375 0.515625zm-2.28125 3.96875l-2.4375 0l0 -1.609375l4.546875 0l0 6.984375l2.484375 0l0 1.609375l-7.3125 0l0 -1.609375l2.71875 0l0 -5.375zm14.49585 2.625q0 1.015625 -0.296875 1.859375q-0.28125 0.828125 -0.828125 1.4375q-0.53125 0.59375 -1.328125 0.921875q-0.78125 0.328125 -1.796875 0.328125q-0.953125 0 -1.703125 -0.265625q-0.75 -0.28125 -1.28125 -0.828125q-0.515625 -0.5625 -0.796875 -1.390625q-0.28125 -0.84375 -0.28125 -1.953125q0 -1.015625 0.28125 -1.859375q0.296875 -0.84375 0.84375 -1.421875q0.546875 -0.59375 1.328125 -0.921875q0.796875 -0.328125 1.78125 -0.328125q0.96875 0 1.71875 0.28125q0.75 0.28125 1.28125 0.84375q0.53125 0.5625 0.796875 1.390625q0.28125 0.8125 0.28125 1.90625zm-2.15625 0.046875q0 -1.34375 -0.5 -2.015625q-0.5 -0.671875 -1.484375 -0.671875q-0.546875 0 -0.921875 0.21875q-0.375 0.203125 -0.625 0.578125q-0.25 0.359375 -0.359375 0.859375q-0.109375 0.484375 -0.109375 1.046875q0 1.34375 0.53125 2.03125q0.546875 0.671875 1.484375 0.671875q0.515625 0 0.890625 -0.203125q0.390625 -0.203125 0.625 -0.5625q0.234375 -0.375 0.34375 -0.875q0.125 -0.5 0.125 -1.078125zm9.05835 4.3125l0 -5.59375q0 -1.421875 -1.046875 -1.421875q-0.515625 0 -1.0 0.421875q-0.46875 0.421875 -1.015625 1.15625l0 5.4375l-2.0625 0l0 -8.59375l1.796875 0l0.046875 1.265625q0.265625 -0.328125 0.546875 -0.59375q0.28125 -0.28125 0.609375 -0.46875q0.328125 -0.1875 0.703125 -0.28125q0.390625 -0.109375 0.859375 -0.109375q0.65625 0 1.140625 0.21875q0.5 0.21875 0.828125 0.609375q0.328125 0.390625 0.5 0.953125q0.171875 0.546875 0.171875 1.234375l0 5.765625l-2.078125 0zm9.636475 3.546875q-2.046875 -1.734375 -3.078125 -3.734375q-1.03125 -2.0 -1.03125 -4.296875q0 -1.28125 0.296875 -2.421875q0.3125 -1.15625 0.859375 -2.15625q0.5625 -1.015625 1.328125 -1.890625q0.765625 -0.890625 1.6875 -1.65625l1.171875 1.171875q-1.65625 1.484375 -2.484375 3.203125q-0.828125 1.71875 -0.828125 3.609375q0 1.921875 0.828125 3.703125q0.828125 1.765625 2.484375 3.21875l-1.234375 1.25zm6.2770386 -16.15625q2.078125 1.71875 3.09375 3.71875q1.015625 2.0 1.015625 4.3125q0 1.28125 -0.3125 2.4375q-0.296875 1.140625 -0.84375 2.15625q-0.546875 1.015625 -1.3125 1.890625q-0.765625 0.890625 -1.671875 1.640625l-1.1875 -1.171875q1.65625 -1.484375 2.484375 -3.203125q0.828125 -1.734375 0.828125 -3.625q0 -1.90625 -0.828125 -3.6875q-0.828125 -1.78125 -2.484375 -3.25l1.21875 -1.21875z" fill-rule="nonzero"/><path fill="#000000" fill-opacity="0.0" d="m587.36566 388.06384l63.768555 0" fill-rule="evenodd"/><path stroke="#ffffff" stroke-width="1.0" stroke-linejoin="round" stroke-linecap="butt" d="m587.36566 388.06384l57.768555 0" fill-rule="evenodd"/><path fill="#ffffff" stroke="#ffffff" stroke-width="1.0" stroke-linecap="butt" d="m645.1342 389.71558l4.538086 -1.6517334l-4.538086 -1.6517334z" fill-rule="evenodd"/><path fill="#000000" fill-opacity="0.0" d="m587.36566 356.11664l63.768555 0" fill-rule="evenodd"/><path stroke="#ffffff" stroke-width="1.0" stroke-linejoin="round" stroke-linecap="butt" d="m587.36566 356.11664l57.768555 0" fill-rule="evenodd"/><path fill="#ffffff" stroke="#ffffff" stroke-width="1.0" stroke-linecap="butt" d="m645.1342 357.76837l4.538086 -1.6517334l-4.538086 -1.6517334z" fill-rule="evenodd"/><path fill="#000000" fill-opacity="0.0" d="m587.36566 324.16943l63.768555 0" fill-rule="evenodd"/><path stroke="#ffffff" stroke-width="1.0" stroke-linejoin="round" stroke-linecap="butt" d="m587.36566 324.16943l57.768555 0" fill-rule="evenodd"/><path fill="#ffffff" stroke="#ffffff" stroke-width="1.0" stroke-linecap="butt" d="m645.1342 325.82117l4.538086 -1.6517334l-4.538086 -1.6517334z" fill-rule="evenodd"/><path fill="#000000" fill-opacity="0.0" d="m587.36566 292.22223l63.768555 0" fill-rule="evenodd"/><path stroke="#ffffff" stroke-width="1.0" stroke-linejoin="round" stroke-linecap="butt" d="m587.36566 292.22223l57.768555 0" fill-rule="evenodd"/><path fill="#ffffff" stroke="#ffffff" stroke-width="1.0" stroke-linecap="butt" d="m645.1342 293.87396l4.538086 -1.6517334l-4.538086 -1.6517334z" fill-rule="evenodd"/><path fill="#000000" fill-opacity="0.0" d="m236.32545 399.6302l0 0c0 -8.381561 6.7946014 -15.176147 15.176163 -15.176147l93.647675 0c4.0249634 0 7.8851013 1.5989075 10.731171 4.444977c2.8460999 2.8460999 4.4450073 6.7062073 4.4450073 10.731171l0 60.70279c0 8.381561 -6.7946167 15.176178 -15.176178 15.176178l-93.647675 0c-8.381561 0 -15.176163 -6.7946167 -15.176163 -15.176178z" fill-rule="evenodd"/><path stroke="#8d3aed" stroke-width="1.0" stroke-linejoin="round" stroke-linecap="butt" d="m236.32545 399.6302l0 0c0 -8.381561 6.7946014 -15.176147 15.176163 -15.176147l93.647675 0c4.0249634 0 7.8851013 1.5989075 10.731171 4.444977c2.8460999 2.8460999 4.4450073 6.7062073 4.4450073 10.731171l0 60.70279c0 8.381561 -6.7946167 15.176178 -15.176178 15.176178l-93.647675 0c-8.381561 0 -15.176163 -6.7946167 -15.176163 -15.176178z" fill-rule="evenodd"/><path fill="#ffffff" d="m270.9341 438.24158l-3.3125 -6.0l-0.921875 0l0 6.0l-3.875 0l0 -15.90625l6.5 0q1.875 0 3.203125 0.65625q1.328125 0.65625 1.984375 1.8125q0.65625 1.140625 0.65625 2.546875q0 1.578125 -0.890625 2.828125q-0.890625 1.25 -2.640625 1.765625l3.671875 6.296875l-4.375 0zm-4.234375 -8.75l2.40625 0q1.0625 0 1.59375 -0.515625q0.53125 -0.515625 0.53125 -1.46875q0 -0.90625 -0.53125 -1.421875q-0.53125 -0.53125 -1.59375 -0.53125l-2.40625 0l0 3.9375zm22.818726 2.21875q0 0.546875 -0.078125 1.140625l-8.765625 0q0.09375 1.171875 0.75 1.796875q0.671875 0.625 1.65625 0.625q1.453125 0 2.015625 -1.21875l4.125 0q-0.328125 1.25 -1.15625 2.25q-0.8125 0.984375 -2.0625 1.5625q-1.25 0.5625 -2.796875 0.5625q-1.84375 0 -3.296875 -0.796875q-1.453125 -0.796875 -2.265625 -2.265625q-0.8125 -1.46875 -0.8125 -3.453125q0 -1.96875 0.796875 -3.4375q0.8125 -1.46875 2.25 -2.265625q1.453125 -0.796875 3.328125 -0.796875q1.84375 0 3.265625 0.78125q1.4375 0.765625 2.234375 2.203125q0.8125 1.421875 0.8125 3.3125zm-3.96875 -1.015625q0 -1.0 -0.6875 -1.578125q-0.671875 -0.59375 -1.6875 -0.59375q-0.984375 0 -1.65625 0.5625q-0.65625 0.5625 -0.8125 1.609375l4.84375 0zm5.237488 1.203125q0 -1.953125 0.734375 -3.421875q0.734375 -1.46875 2.0 -2.265625q1.265625 -0.796875 2.828125 -0.796875q1.34375 0 2.34375 0.546875q1.015625 0.546875 1.5625 1.421875l0 -1.78125l3.875 0l0 12.640625l-3.875 0l0 -1.796875q-0.578125 0.890625 -1.59375 1.4375q-1.0 0.546875 -2.328125 0.546875q-1.546875 0 -2.8125 -0.796875q-1.265625 -0.8125 -2.0 -2.296875q-0.734375 -1.484375 -0.734375 -3.4375zm9.46875 0.015625q0 -1.4375 -0.8125 -2.28125q-0.796875 -0.84375 -1.953125 -0.84375q-1.15625 0 -1.96875 0.828125q-0.796875 0.828125 -0.796875 2.28125q0 1.453125 0.796875 2.3125q0.8125 0.84375 1.96875 0.84375q1.15625 0 1.953125 -0.84375q0.8125 -0.84375 0.8125 -2.296875zm5.914795 -0.015625q0 -1.953125 0.734375 -3.421875q0.734375 -1.46875 2.0 -2.265625q1.265625 -0.796875 2.828125 -0.796875q1.25 0 2.28125 0.53125q1.03125 0.515625 1.625 1.40625l0 -5.875l3.875 0l0 16.765625l-3.875 0l0 -1.8125q-0.546875 0.90625 -1.5625 1.453125q-1.0 0.546875 -2.34375 0.546875q-1.5625 0 -2.828125 -0.796875q-1.265625 -0.8125 -2.0 -2.296875q-0.734375 -1.484375 -0.734375 -3.4375zm9.46875 0.015625q0 -1.4375 -0.8125 -2.28125q-0.796875 -0.84375 -1.953125 -0.84375q-1.15625 0 -1.96875 0.828125q-0.796875 0.828125 -0.796875 2.28125q0 1.453125 0.796875 2.3125q0.8125 0.84375 1.96875 0.84375q1.15625 0 1.953125 -0.84375q0.8125 -0.84375 0.8125 -2.296875zm19.5867 -6.3125l-7.921875 18.640625l-4.171875 0l2.90625 -6.4375l-5.140625 -12.203125l4.3125 0l2.9375 7.90625l2.890625 -7.90625l4.1875 0z" fill-rule="nonzero"/><path fill="#000000" fill-opacity="0.0" d="m236.32545 197.42415l0 0c0 -8.381561 6.7946014 -15.176163 15.176163 -15.176163l93.647675 0c4.0249634 0 7.8851013 1.5989227 10.731171 4.4450073c2.8460999 2.8460693 4.4450073 6.706192 4.4450073 10.731155l0 60.702805c0 8.381561 -6.7946167 15.176147 -15.176178 15.176147l-93.647675 0c-8.381561 0 -15.176163 -6.794586 -15.176163 -15.176147z" fill-rule="evenodd"/><path stroke="#8d3aed" stroke-width="1.0" stroke-linejoin="round" stroke-linecap="butt" d="m236.32545 197.42415l0 0c0 -8.381561 6.7946014 -15.176163 15.176163 -15.176163l93.647675 0c4.0249634 0 7.8851013 1.5989227 10.731171 4.4450073c2.8460999 2.8460693 4.4450073 6.706192 4.4450073 10.731155l0 60.702805c0 8.381561 -6.7946167 15.176147 -15.176178 15.176147l-93.647675 0c-8.381561 0 -15.176163 -6.794586 -15.176163 -15.176147z" fill-rule="evenodd"/><path fill="#ffffff" d="m272.19858 220.1293l0 3.109375l-6.484375 0l0 3.34375l4.84375 0l0 3.015625l-4.84375 0l0 6.4375l-3.875 0l0 -15.90625l10.359375 0zm14.517944 3.265625l0 12.640625l-3.875 0l0 -1.71875q-0.59375 0.828125 -1.609375 1.34375q-1.0 0.515625 -2.21875 0.515625q-1.453125 0 -2.5625 -0.640625q-1.109375 -0.65625 -1.71875 -1.875q-0.609375 -1.234375 -0.609375 -2.875l0 -7.390625l3.84375 0l0 6.859375q0 1.265625 0.65625 1.96875q0.65625 0.703125 1.765625 0.703125q1.140625 0 1.796875 -0.703125q0.65625 -0.703125 0.65625 -1.96875l0 -6.859375l3.875 0zm9.832794 9.359375l0 3.28125l-1.96875 0q-2.109375 0 -3.296875 -1.03125q-1.171875 -1.03125 -1.171875 -3.359375l0 -5.03125l-1.546875 0l0 -3.21875l1.546875 0l0 -3.078125l3.875 0l0 3.078125l2.53125 0l0 3.21875l-2.53125 0l0 5.078125q0 0.5625 0.265625 0.8125q0.28125 0.25 0.90625 0.25l1.390625 0zm14.635925 -9.359375l0 12.640625l-3.875 0l0 -1.71875q-0.59375 0.828125 -1.609375 1.34375q-1.0 0.515625 -2.21875 0.515625q-1.453125 0 -2.5625 -0.640625q-1.109375 -0.65625 -1.71875 -1.875q-0.609375 -1.234375 -0.609375 -2.875l0 -7.390625l3.84375 0l0 6.859375q0 1.265625 0.65625 1.96875q0.65625 0.703125 1.765625 0.703125q1.140625 0 1.796875 -0.703125q0.65625 -0.703125 0.65625 -1.96875l0 -6.859375l3.875 0zm6.6608887 2.109375q0.671875 -1.046875 1.6875 -1.640625q1.03125 -0.609375 2.28125 -0.609375l0 4.109375l-1.078125 0q-1.4375 0 -2.171875 0.625q-0.71875 0.609375 -0.71875 2.171875l0 5.875l-3.875 0l0 -12.640625l3.875 0l0 2.109375zm17.743744 4.0q0 0.546875 -0.078125 1.140625l-8.765625 0q0.09375 1.171875 0.75 1.796875q0.671875 0.625 1.65625 0.625q1.453125 0 2.015625 -1.21875l4.125 0q-0.328125 1.25 -1.15625 2.25q-0.8125 0.984375 -2.0625 1.5625q-1.25 0.5625 -2.796875 0.5625q-1.84375 0 -3.296875 -0.796875q-1.453125 -0.796875 -2.265625 -2.265625q-0.8125 -1.46875 -0.8125 -3.453125q0 -1.96875 0.796875 -3.4375q0.8125 -1.46875 2.25 -2.265625q1.453125 -0.796875 3.328125 -0.796875q1.84375 0 3.265625 0.78125q1.4375 0.765625 2.234375 2.203125q0.8125 1.421875 0.8125 3.3125zm-3.96875 -1.015625q0 -1.0 -0.6875 -1.578125q-0.671875 -0.59375 -1.6875 -0.59375q-0.984375 0 -1.65625 0.5625q-0.65625 0.5625 -0.8125 1.609375l4.84375 0z" fill-rule="nonzero"/><path fill="#000000" fill-opacity="0.0" d="m360.32547 429.9816l29.73703 0l0 -101.480316l29.72754 0" fill-rule="evenodd"/><path stroke="#ffffff" stroke-width="1.0" stroke-linejoin="round" stroke-linecap="butt" d="m360.32547 429.9816l29.73703 0l0 -101.480316l23.72754 0" fill-rule="evenodd"/><path fill="#ffffff" stroke="#ffffff" stroke-width="1.0" stroke-linecap="butt" d="m413.79004 330.153l4.538086 -1.6517334l-4.538086 -1.6517334z" fill-rule="evenodd"/></g></svg>