<svg version="1.1" viewBox="0.0 0.0 599.1207349081365 564.4383202099738" fill="none" stroke="none" stroke-linecap="square" stroke-miterlimit="10" xmlns:xlink="http://www.w3.org/1999/xlink" xmlns="http://www.w3.org/2000/svg"><clipPath id="p.0"><path d="m0 0l599.1207 0l0 564.4383l-599.1207 0l0 -564.4383z" clip-rule="nonzero"/></clipPath><g clip-path="url(#p.0)"><path fill="#000000" fill-opacity="0.0" d="m0 0l599.1207 0l0 564.4383l-599.1207 0z" fill-rule="evenodd"/><path fill="#07154b" d="m1.1036745 1.2270341l596.9134 0l0 561.98425l-596.9134 0z" fill-rule="evenodd"/><path stroke="#07154b" stroke-width="1.0" stroke-linejoin="round" stroke-linecap="butt" d="m1.1036745 1.2270341l596.9134 0l0 561.98425l-596.9134 0z" fill-rule="evenodd"/><path fill="#8d3aed" d="m20.334494 10.318713l554.4882 0l0 42.015747l-554.4882 0z" fill-rule="evenodd"/><path stroke="#8d3aed" stroke-width="1.0" stroke-linejoin="round" stroke-linecap="butt" d="m20.334494 10.318713l554.4882 0l0 42.015747l-554.4882 0z" fill-rule="evenodd"/><path fill="#ffffff" d="m241.32463 30.723087q0 -1.890625 0.859375 -3.40625q0.859375 -1.53125 2.34375 -2.390625q1.484375 -0.859375 3.296875 -0.859375q2.125 0 3.703125 1.03125q1.59375 1.015625 2.328125 2.90625l-2.046875 0q-0.53125 -1.171875 -1.546875 -1.796875q-1.015625 -0.640625 -2.4375 -0.640625q-1.359375 0 -2.453125 0.640625q-1.078125 0.625 -1.703125 1.796875q-0.609375 1.15625 -0.609375 2.71875q0 1.546875 0.609375 2.71875q0.625 1.171875 1.703125 1.8125q1.09375 0.625 2.453125 0.625q1.421875 0 2.4375 -0.625q1.015625 -0.625 1.546875 -1.796875l2.046875 0q-0.734375 1.859375 -2.328125 2.875q-1.578125 1.015625 -3.703125 1.015625q-1.8125 0 -3.296875 -0.84375q-1.484375 -0.84375 -2.34375 -2.359375q-0.859375 -1.515625 -0.859375 -3.421875zm16.746384 -7.296875l0 13.8125l-1.703125 0l0 -13.8125l1.703125 0zm3.761322 1.921875q-0.484375 0 -0.828125 -0.328125q-0.328125 -0.34375 -0.328125 -0.828125q0 -0.484375 0.328125 -0.8125q0.34375 -0.34375 0.828125 -0.34375q0.46875 0 0.796875 0.34375q0.328125 0.328125 0.328125 0.8125q0 0.484375 -0.328125 0.828125q-0.328125 0.328125 -0.796875 0.328125zm0.828125 1.671875l0 10.21875l-1.703125 0l0 -10.21875l1.703125 0zm12.2144165 4.71875q0 0.484375 -0.0625 1.015625l-8.171875 0q0.09375 1.515625 1.03125 2.375q0.953125 0.84375 2.296875 0.84375q1.09375 0 1.828125 -0.515625q0.75 -0.515625 1.046875 -1.375l1.828125 0q-0.40625 1.484375 -1.640625 2.40625q-1.234375 0.921875 -3.0625 0.921875q-1.453125 0 -2.609375 -0.65625q-1.140625 -0.65625 -1.796875 -1.859375q-0.65625 -1.203125 -0.65625 -2.78125q0 -1.59375 0.640625 -2.78125q0.640625 -1.203125 1.78125 -1.84375q1.140625 -0.640625 2.640625 -0.640625q1.453125 0 2.5625 0.640625q1.125 0.625 1.734375 1.734375q0.609375 1.109375 0.609375 2.515625zm-1.75 -0.359375q0 -0.96875 -0.4375 -1.671875q-0.421875 -0.703125 -1.171875 -1.0625q-0.734375 -0.359375 -1.625 -0.359375q-1.28125 0 -2.1875 0.828125q-0.90625 0.8125 -1.03125 2.265625l6.453125 0zm8.973145 -4.546875q1.859375 0 3.015625 1.125q1.15625 1.125 1.15625 3.25l0 6.03125l-1.671875 0l0 -5.78125q0 -1.53125 -0.765625 -2.34375q-0.765625 -0.8125 -2.09375 -0.8125q-1.34375 0 -2.140625 0.84375q-0.78125 0.84375 -0.78125 2.4375l0 5.65625l-1.703125 0l0 -10.21875l1.703125 0l0 1.453125q0.5 -0.78125 1.359375 -1.203125q0.875 -0.4375 1.921875 -0.4375zm9.018127 1.578125l0 6.03125q0 0.75 0.3125 1.0625q0.328125 0.296875 1.109375 0.296875l1.25 0l0 1.4375l-1.53125 0q-1.40625 0 -2.125 -0.65625q-0.703125 -0.65625 -0.703125 -2.140625l0 -6.03125l-1.328125 0l0 -1.390625l1.328125 0l0 -2.578125l1.6875 0l0 2.578125l2.671875 0l0 1.390625l-2.671875 0zm16.053345 -8.75l-5.109375 20.75l-1.6875 0l5.09375 -20.75l1.703125 0zm17.533478 4.578125l0 13.0l-1.703125 0l0 -5.890625l-6.609375 0l0 5.890625l-1.703125 0l0 -13.0l1.703125 0l0 5.703125l6.609375 0l0 -5.703125l1.703125 0zm7.347595 13.171875q-1.4375 0 -2.609375 -0.65625q-1.15625 -0.65625 -1.828125 -1.859375q-0.65625 -1.203125 -0.65625 -2.78125q0 -1.578125 0.6875 -2.78125q0.6875 -1.203125 1.859375 -1.84375q1.171875 -0.640625 2.625 -0.640625q1.453125 0 2.625 0.640625q1.1875 0.640625 1.859375 1.84375q0.6875 1.1875 0.6875 2.78125q0 1.578125 -0.703125 2.78125q-0.703125 1.203125 -1.90625 1.859375q-1.1875 0.65625 -2.640625 0.65625zm0 -1.5q0.921875 0 1.71875 -0.421875q0.796875 -0.4375 1.296875 -1.296875q0.5 -0.859375 0.5 -2.078125q0 -1.234375 -0.484375 -2.09375q-0.484375 -0.859375 -1.28125 -1.28125q-0.78125 -0.421875 -1.6875 -0.421875q-0.9375 0 -1.71875 0.421875q-0.765625 0.421875 -1.234375 1.28125q-0.46875 0.859375 -0.46875 2.09375q0 1.25 0.453125 2.109375q0.46875 0.84375 1.234375 1.265625q0.765625 0.421875 1.671875 0.421875zm11.111877 1.5q-1.1875 0 -2.125 -0.40625q-0.921875 -0.40625 -1.46875 -1.125q-0.53125 -0.71875 -0.59375 -1.640625l1.75 0q0.078125 0.765625 0.71875 1.25q0.65625 0.484375 1.6875 0.484375q0.96875 0 1.53125 -0.421875q0.5625 -0.4375 0.5625 -1.09375q0 -0.671875 -0.59375 -1.0q-0.59375 -0.328125 -1.84375 -0.640625q-1.140625 -0.296875 -1.859375 -0.59375q-0.71875 -0.3125 -1.234375 -0.921875q-0.515625 -0.609375 -0.515625 -1.59375q0 -0.796875 0.46875 -1.4375q0.46875 -0.65625 1.328125 -1.03125q0.859375 -0.390625 1.953125 -0.390625q1.703125 0 2.75 0.859375q1.046875 0.859375 1.109375 2.34375l-1.6875 0q-0.0625 -0.796875 -0.65625 -1.28125q-0.578125 -0.484375 -1.5625 -0.484375q-0.921875 0 -1.46875 0.390625q-0.53125 0.390625 -0.53125 1.03125q0 0.5 0.328125 0.828125q0.328125 0.328125 0.8125 0.53125q0.5 0.1875 1.375 0.421875q1.109375 0.296875 1.796875 0.59375q0.6875 0.28125 1.171875 0.859375q0.5 0.578125 0.515625 1.515625q0 0.84375 -0.46875 1.515625q-0.453125 0.671875 -1.3125 1.0625q-0.84375 0.375 -1.9375 0.375zm8.176086 -9.0l0 6.03125q0 0.75 0.3125 1.0625q0.328125 0.296875 1.109375 0.296875l1.25 0l0 1.4375l-1.53125 0q-1.40625 0 -2.125 -0.65625q-0.703125 -0.65625 -0.703125 -2.140625l0 -6.03125l-1.328125 0l0 -1.390625l1.328125 0l0 -2.578125l1.6875 0l0 2.578125l2.671875 0l0 1.390625l-2.671875 0z" fill-rule="nonzero"/><path fill="#000000" fill-opacity="0.0" d="m20.303244 97.70484l0 0c0 -16.66745 13.511637 -30.179085 30.179083 -30.179085l150.19301 0c8.003998 0 15.6801605 3.179573 21.339844 8.839249c5.659668 5.6596756 8.839249 13.335846 8.839249 21.339836l0 120.7127c0 16.66745 -13.511642 30.179077 -30.179092 30.179077l-150.19301 0c-16.667446 0 -30.179083 -13.511627 -30.179083 -30.179077z" fill-rule="evenodd"/><path stroke="#8d3aed" stroke-width="1.0" stroke-linejoin="round" stroke-linecap="butt" d="m20.303244 97.70484l0 0c0 -16.66745 13.511637 -30.179085 30.179083 -30.179085l150.19301 0c8.003998 0 15.6801605 3.179573 21.339844 8.839249c5.659668 5.6596756 8.839249 13.335846 8.839249 21.339836l0 120.7127c0 16.66745 -13.511642 30.179077 -30.179092 30.179077l-150.19301 0c-16.667446 0 -30.179083 -13.511627 -30.179083 -30.179077z" fill-rule="evenodd"/><path fill="#ffffff" d="m72.32223 153.23369l3.90625 0l0 1.1875l-5.359375 0l0 -11.15625l1.453125 0l0 9.96875zm6.208893 -9.0q-0.421875 0 -0.71875 -0.28125q-0.28125 -0.296875 -0.28125 -0.71875q0 -0.40625 0.28125 -0.6875q0.296875 -0.296875 0.71875 -0.296875q0.40625 0 0.671875 0.296875q0.28125 0.28125 0.28125 0.6875q0 0.421875 -0.28125 0.71875q-0.265625 0.28125 -0.671875 0.28125zm0.703125 1.421875l0 8.765625l-1.453125 0l0 -8.765625l1.453125 0zm3.9360046 1.625q0.453125 -0.78125 1.3125 -1.265625q0.859375 -0.5 1.96875 -0.5q1.1875 0 2.125 0.5625q0.953125 0.546875 1.484375 1.5625q0.546875 1.015625 0.546875 2.359375q0 1.328125 -0.546875 2.375q-0.53125 1.03125 -1.484375 1.609375q-0.953125 0.578125 -2.125 0.578125q-1.140625 0 -2.0 -0.484375q-0.84375 -0.5 -1.28125 -1.265625l0 1.609375l-1.453125 0l0 -11.84375l1.453125 0l0 4.703125zm5.953125 2.71875q0 -0.984375 -0.40625 -1.71875q-0.390625 -0.734375 -1.078125 -1.109375q-0.671875 -0.390625 -1.5 -0.390625q-0.796875 0 -1.484375 0.390625q-0.671875 0.390625 -1.078125 1.140625q-0.40625 0.734375 -0.40625 1.703125q0 1.0 0.40625 1.75q0.40625 0.734375 1.078125 1.125q0.6875 0.390625 1.484375 0.390625q0.828125 0 1.5 -0.390625q0.6875 -0.390625 1.078125 -1.125q0.40625 -0.75 0.40625 -1.765625zm4.8629 -2.734375q0.4375 -0.75 1.28125 -1.25q0.859375 -0.5 2.0 -0.5q1.171875 0 2.125 0.5625q0.953125 0.546875 1.484375 1.5625q0.546875 1.015625 0.546875 2.359375q0 1.328125 -0.546875 2.375q-0.53125 1.03125 -1.484375 1.609375q-0.953125 0.578125 -2.125 0.578125q-1.125 0 -1.984375 -0.5q-0.84375 -0.5 -1.296875 -1.25l0 5.765625l-1.453125 0l0 -12.921875l1.453125 0l0 1.609375zm5.953125 2.734375q0 -0.984375 -0.40625 -1.71875q-0.390625 -0.734375 -1.078125 -1.109375q-0.671875 -0.390625 -1.5 -0.390625q-0.796875 0 -1.484375 0.390625q-0.671875 0.390625 -1.078125 1.140625q-0.40625 0.734375 -0.40625 1.703125q0 1.0 0.40625 1.75q0.40625 0.734375 1.078125 1.125q0.6875 0.390625 1.484375 0.390625q0.828125 0 1.5 -0.390625q0.6875 -0.390625 1.078125 -1.125q0.40625 -0.75 0.40625 -1.765625zm2.9878998 3.25q2.03125 -1.625 3.1875 -2.671875q1.15625 -1.046875 1.9375 -2.1875q0.796875 -1.15625 0.796875 -2.25q0 -1.046875 -0.5 -1.640625q-0.5 -0.609375 -1.625 -0.609375q-1.09375 0 -1.703125 0.6875q-0.59375 0.671875 -0.640625 1.8125l-1.40625 0q0.0625 -1.796875 1.078125 -2.765625q1.03125 -0.984375 2.65625 -0.984375q1.640625 0 2.609375 0.921875q0.96875 0.90625 0.96875 2.5q0 1.328125 -0.796875 2.59375q-0.78125 1.25 -1.796875 2.203125q-1.0 0.953125 -2.5625 2.21875l5.5 0l0 1.21875l-7.703125 0l0 -1.046875zm11.075012 -5.984375q0.4375 -0.75 1.28125 -1.25q0.859375 -0.5 2.0 -0.5q1.171875 0 2.125 0.5625q0.953125 0.546875 1.484375 1.5625q0.546875 1.015625 0.546875 2.359375q0 1.328125 -0.546875 2.375q-0.53125 1.03125 -1.484375 1.609375q-0.953125 0.578125 -2.125 0.578125q-1.125 0 -1.984375 -0.5q-0.84375 -0.5 -1.296875 -1.25l0 5.765625l-1.453125 0l0 -12.921875l1.453125 0l0 1.609375zm5.953125 2.734375q0 -0.984375 -0.40625 -1.71875q-0.390625 -0.734375 -1.078125 -1.109375q-0.671875 -0.390625 -1.5 -0.390625q-0.796875 0 -1.484375 0.390625q-0.671875 0.390625 -1.078125 1.140625q-0.40625 0.734375 -0.40625 1.703125q0 1.0 0.40625 1.75q0.40625 0.734375 1.078125 1.125q0.6875 0.390625 1.484375 0.390625q0.828125 0 1.5 -0.390625q0.6875 -0.390625 1.078125 -1.125q0.40625 -0.75 0.40625 -1.765625zm13.11927 -10.65625l-4.390625 17.796875l-1.4374924 0l4.3749924 -17.796875l1.453125 0zm12.325516 15.078125l-2.65625 -4.5625l-1.765625 0l0 4.5625l-1.453125 0l0 -11.15625l3.59375 0q1.265625 0 2.140625 0.4375q0.875 0.4375 1.296875 1.171875q0.4375 0.734375 0.4375 1.671875q0 1.15625 -0.671875 2.046875q-0.65625 0.875 -1.984375 1.15625l2.796875 4.671875l-1.734375 0zm-4.421875 -5.734375l2.140625 0q1.1875 0 1.78125 -0.578125q0.59375 -0.578125 0.59375 -1.5625q0 -0.984375 -0.59375 -1.53125q-0.578125 -0.546875 -1.78125 -0.546875l-2.140625 0l0 4.21875zm15.728027 -2.15625q0 1.390625 -0.953125 2.3125q-0.953125 0.921875 -2.90625 0.921875l-2.140625 0l0 4.65625l-1.453125 0l0 -11.15625l3.59375 0q1.890625 0 2.875 0.921875q0.984375 0.90625 0.984375 2.34375zm-3.859375 2.03125q1.21875 0 1.796875 -0.515625q0.578125 -0.53125 0.578125 -1.515625q0 -2.0625 -2.375 -2.0625l-2.140625 0l0 4.09375l2.140625 0zm5.123398 0.28125q0 -1.640625 0.734375 -2.9375q0.734375 -1.3125 2.0 -2.046875q1.28125 -0.734375 2.828125 -0.734375q1.828125 0 3.1875 0.890625q1.359375 0.875 1.984375 2.484375l-1.734375 0q-0.46875 -1.0 -1.34375 -1.546875q-0.875 -0.546875 -2.09375 -0.546875q-1.15625 0 -2.09375 0.546875q-0.921875 0.546875 -1.453125 1.546875q-0.53125 1.0 -0.53125 2.34375q0 1.328125 0.53125 2.328125q0.53125 1.0 1.453125 1.546875q0.9375 0.53125 2.09375 0.53125q1.21875 0 2.09375 -0.53125q0.875 -0.53125 1.34375 -1.546875l1.734375 0q-0.625 1.609375 -1.984375 2.484375q-1.359375 0.859375 -3.1875 0.859375q-1.546875 0 -2.828125 -0.71875q-1.265625 -0.734375 -2.0 -2.03125q-0.734375 -1.296875 -0.734375 -2.921875zm22.608398 -9.5l-4.390625 17.796875l-1.4375 0l4.375 -17.796875l1.453125 0z" fill-rule="nonzero"/><path fill="#ffffff" d="m103.298775 173.42119l-1.453125 0l-5.859375 -8.875l0 8.875l-1.453125 0l0 -11.171875l1.453125 0l5.859375 8.875l0 -8.875l1.453125 0l0 11.171875zm10.482391 -4.71875q0 0.421875 -0.046875 0.875l-7.015625 0q0.078125 1.296875 0.890625 2.03125q0.8125 0.71875 1.96875 0.71875q0.9375 0 1.5625 -0.4375q0.640625 -0.4375 0.890625 -1.171875l1.578125 0q-0.359375 1.265625 -1.421875 2.0625q-1.046875 0.78125 -2.609375 0.78125q-1.25 0 -2.234375 -0.546875q-0.984375 -0.5625 -1.546875 -1.59375q-0.5625 -1.046875 -0.5625 -2.40625q0 -1.359375 0.546875 -2.375q0.546875 -1.03125 1.53125 -1.578125q0.984375 -0.546875 2.265625 -0.546875q1.234375 0 2.1875 0.546875q0.96875 0.53125 1.484375 1.484375q0.53125 0.953125 0.53125 2.15625zm-1.5 -0.3125q0 -0.828125 -0.375 -1.421875q-0.375 -0.609375 -1.0 -0.921875q-0.625 -0.3125 -1.40625 -0.3125q-1.09375 0 -1.875 0.71875q-0.78125 0.703125 -0.890625 1.9375l5.546875 0zm5.2012634 -2.53125l0 5.15625q0 0.640625 0.265625 0.90625q0.265625 0.265625 0.9375 0.265625l1.078125 0l0 1.234375l-1.3125 0q-1.21875 0 -1.828125 -0.5625q-0.609375 -0.5625 -0.609375 -1.84375l0 -5.15625l-1.125 0l0 -1.203125l1.125 0l0 -2.203125l1.46875 0l0 2.203125l2.28125 0l0 1.203125l-2.28125 0zm15.7146225 -1.203125l-2.734375 8.765625l-1.5 0l-2.1093674 -6.953125l-2.109375 6.953125l-1.515625 0l-2.75 -8.765625l1.5 0l2.015625 7.359375l2.171875 -7.359375l1.484375 0l2.1249924 7.375l1.984375 -7.375l1.4375 0zm5.2762756 8.90625q-1.234375 0 -2.234375 -0.546875q-1.0 -0.5625 -1.578125 -1.59375q-0.5625 -1.046875 -0.5625 -2.40625q0 -1.34375 0.578125 -2.375q0.59375 -1.03125 1.59375 -1.578125q1.015625 -0.546875 2.265625 -0.546875q1.25 0 2.25 0.546875q1.015625 0.546875 1.59375 1.578125q0.578125 1.015625 0.578125 2.375q0 1.359375 -0.59375 2.40625q-0.59375 1.03125 -1.625 1.59375q-1.03125 0.546875 -2.265625 0.546875zm0 -1.28125q0.78125 0 1.46875 -0.359375q0.6875 -0.375 1.109375 -1.109375q0.421875 -0.734375 0.421875 -1.796875q0 -1.046875 -0.421875 -1.78125q-0.40625 -0.734375 -1.078125 -1.09375q-0.671875 -0.359375 -1.453125 -0.359375q-0.8125 0 -1.484375 0.359375q-0.65625 0.359375 -1.0625 1.09375q-0.390625 0.734375 -0.390625 1.78125q0 1.078125 0.390625 1.8125q0.390625 0.734375 1.046875 1.09375q0.65625 0.359375 1.453125 0.359375zm7.8650208 -6.203125q0.390625 -0.75 1.09375 -1.15625q0.71875 -0.421875 1.734375 -0.421875l0 1.5l-0.375 0q-2.453125 0 -2.453125 2.65625l0 4.765625l-1.453125 0l0 -8.765625l1.453125 0l0 1.421875zm9.405518 7.34375l-3.4375 -3.875l0 3.875l-1.453125 0l0 -11.84375l1.453125 0l0 6.96875l3.375 -3.890625l2.03125 0l-4.125 4.359375l4.140625 4.40625l-1.984375 0z" fill-rule="nonzero"/><path fill="#000000" fill-opacity="0.0" d="m21.814045 448.63022l0 0c0 -8.822235 7.1518345 -15.97406 15.9740715 -15.97406l160.61879 0c4.2365875 0 8.299652 1.6829529 11.295364 4.6786804c2.9957275 2.9957275 4.6786957 7.0588074 4.6786957 11.29538l0 63.89438c0 8.822205 -7.151825 15.97406 -15.97406 15.97406l-160.61879 0l0 0c-8.822237 0 -15.9740715 -7.1518555 -15.9740715 -15.97406z" fill-rule="evenodd"/><path stroke="#8d3aed" stroke-width="1.0" stroke-linejoin="round" stroke-linecap="butt" d="m21.814045 448.63022l0 0c0 -8.822235 7.1518345 -15.97406 15.9740715 -15.97406l160.61879 0c4.2365875 0 8.299652 1.6829529 11.295364 4.6786804c2.9957275 2.9957275 4.6786957 7.0588074 4.6786957 11.29538l0 63.89438c0 8.822205 -7.151825 15.97406 -15.97406 15.97406l-160.61879 0l0 0c-8.822237 0 -15.9740715 -7.1518555 -15.9740715 -15.97406z" fill-rule="evenodd"/><path fill="#ffffff" d="m83.464554 475.28116q1.828125 0 3.15625 0.6875q1.34375 0.671875 2.046875 1.9375q0.71875 1.265625 0.71875 2.984375q0 1.703125 -0.71875 2.96875q-0.703125 1.25 -2.046875 1.921875q-1.328125 0.65625 -3.15625 0.65625l-3.46875 0l0 -11.15625l3.46875 0zm0 9.953125q2.15625 0 3.296875 -1.140625q1.140625 -1.140625 1.140625 -3.203125q0 -2.078125 -1.15625 -3.25q-1.140625 -1.171875 -3.28125 -1.171875l-2.015625 0l0 8.765625l2.015625 0zm7.296402 -3.21875q0 -1.34375 0.546875 -2.359375q0.546875 -1.015625 1.5 -1.5625q0.953125 -0.5625 2.109375 -0.5625q1.15625 0 2.0 0.5q0.859375 0.484375 1.265625 1.234375l0 -1.59375l1.46875 0l0 8.765625l-1.46875 0l0 -1.625q-0.421875 0.765625 -1.28125 1.265625q-0.859375 0.5 -2.0 0.5q-1.171875 0 -2.109375 -0.578125q-0.9375 -0.578125 -1.484375 -1.609375q-0.546875 -1.046875 -0.546875 -2.375zm7.421875 0.015625q0 -0.984375 -0.40625 -1.71875q-0.390625 -0.734375 -1.078125 -1.125q-0.671875 -0.390625 -1.484375 -0.390625q-0.828125 0 -1.5 0.390625q-0.671875 0.375 -1.078125 1.109375q-0.390625 0.734375 -0.390625 1.71875q0 1.015625 0.390625 1.765625q0.40625 0.734375 1.078125 1.125q0.671875 0.390625 1.5 0.390625q0.8125 0 1.484375 -0.390625q0.6875 -0.390625 1.078125 -1.125q0.40625 -0.75 0.40625 -1.75zm5.722275 -3.15625l0 5.15625q0 0.640625 0.265625 0.90625q0.265625 0.265625 0.9375 0.265625l1.078125 0l0 1.234375l-1.3125 0q-1.21875 0 -1.828125 -0.5625q-0.609375 -0.5625 -0.609375 -1.84375l0 -5.15625l-1.125 0l0 -1.203125l1.125 0l0 -2.203125l1.46875 0l0 2.203125l2.28125 0l0 1.203125l-2.28125 0zm3.4958801 3.140625q0 -1.34375 0.546875 -2.359375q0.546875 -1.015625 1.5 -1.5625q0.953125 -0.5625 2.109375 -0.5625q1.15625 0 2.0 0.5q0.859375 0.484375 1.265625 1.234375l0 -1.59375l1.46875 0l0 8.765625l-1.46875 0l0 -1.625q-0.421875 0.765625 -1.28125 1.265625q-0.859375 0.5 -2.0 0.5q-1.171875 0 -2.109375 -0.578125q-0.9375 -0.578125 -1.484375 -1.609375q-0.546875 -1.046875 -0.546875 -2.375zm7.421875 0.015625q0 -0.984375 -0.40625 -1.71875q-0.390625 -0.734375 -1.078125 -1.125q-0.671875 -0.390625 -1.484375 -0.390625q-0.828125 0 -1.5 0.390625q-0.671875 0.375 -1.078125 1.109375q-0.390625 0.734375 -0.390625 1.71875q0 1.015625 0.390625 1.765625q0.40625 0.734375 1.078125 1.125q0.671875 0.390625 1.5 0.390625q0.8125 0 1.484375 -0.390625q0.6875 -0.390625 1.078125 -1.125q0.40625 -0.75 0.40625 -1.75zm5.39415 -2.734375q0.453125 -0.78125 1.3125 -1.265625q0.859375 -0.5 1.96875 -0.5q1.1875 0 2.125 0.5625q0.953125 0.546875 1.484375 1.5625q0.546875 1.015625 0.546875 2.359375q0 1.328125 -0.546875 2.375q-0.53125 1.03125 -1.484375 1.609375q-0.953125 0.578125 -2.125 0.578125q-1.140625 0 -2.0 -0.484375q-0.84375 -0.5 -1.28125 -1.265625l0 1.609375l-1.453125 0l0 -11.84375l1.453125 0l0 4.703125zm5.953125 2.71875q0 -0.984375 -0.40625 -1.71875q-0.390625 -0.734375 -1.078125 -1.109375q-0.671875 -0.390625 -1.5 -0.390625q-0.796875 0 -1.484375 0.390625q-0.671875 0.390625 -1.078125 1.140625q-0.40625 0.734375 -0.40625 1.703125q0 1.0 0.40625 1.75q0.40625 0.734375 1.078125 1.125q0.6875 0.390625 1.484375 0.390625q0.828125 0 1.5 -0.390625q0.6875 -0.390625 1.078125 -1.125q0.40625 -0.75 0.40625 -1.765625zm2.8628998 0q0 -1.34375 0.546875 -2.359375q0.546875 -1.015625 1.5 -1.5625q0.953125 -0.5625 2.109375 -0.5625q1.15625 0 2.0 0.5q0.859375 0.484375 1.265625 1.234375l0 -1.59375l1.46875 0l0 8.765625l-1.46875 0l0 -1.625q-0.421875 0.765625 -1.28125 1.265625q-0.859375 0.5 -2.0 0.5q-1.171875 0 -2.109375 -0.578125q-0.9375 -0.578125 -1.484375 -1.609375q-0.546875 -1.046875 -0.546875 -2.375zm7.421875 0.015625q0 -0.984375 -0.40625 -1.71875q-0.390625 -0.734375 -1.078125 -1.125q-0.671875 -0.390625 -1.484375 -0.390625q-0.828125 0 -1.5 0.390625q-0.671875 0.375 -1.078125 1.109375q-0.390625 0.734375 -0.390625 1.71875q0 1.015625 0.390625 1.765625q0.40625 0.734375 1.078125 1.125q0.671875 0.390625 1.5 0.390625q0.8125 0 1.484375 -0.390625q0.6875 -0.390625 1.078125 -1.125q0.40625 -0.75 0.40625 -1.75zm7.0504 4.546875q-1.015625 0 -1.8125 -0.34375q-0.796875 -0.34375 -1.265625 -0.953125q-0.46875 -0.625 -0.515625 -1.421875l1.5 0q0.0625 0.65625 0.609375 1.078125q0.5625 0.40625 1.453125 0.40625q0.84375 0 1.3125 -0.359375q0.484375 -0.375 0.484375 -0.9375q0 -0.5625 -0.515625 -0.84375q-0.5 -0.28125 -1.578125 -0.5625q-0.96875 -0.25 -1.59375 -0.515625q-0.609375 -0.265625 -1.0625 -0.78125q-0.4375 -0.515625 -0.4375 -1.375q0 -0.671875 0.40625 -1.21875q0.40625 -0.5625 1.140625 -0.890625q0.734375 -0.328125 1.671875 -0.328125q1.453125 0 2.34375 0.734375q0.90625 0.734375 0.96875 2.015625l-1.453125 0q-0.046875 -0.6875 -0.5625 -1.109375q-0.5 -0.421875 -1.34375 -0.421875q-0.78125 0 -1.25 0.34375q-0.453125 0.328125 -0.453125 0.875q0 0.4375 0.265625 0.71875q0.28125 0.28125 0.703125 0.453125q0.4375 0.15625 1.1875 0.375q0.9375 0.25 1.53125 0.5q0.59375 0.25 1.015625 0.75q0.421875 0.484375 0.4375 1.28125q0 0.734375 -0.40625 1.3125q-0.390625 0.5625 -1.125 0.890625q-0.71875 0.328125 -1.65625 0.328125zm13.242645 -4.859375q0 0.421875 -0.046875 0.875l-7.015625 0q0.078125 1.296875 0.890625 2.03125q0.8125 0.71875 1.96875 0.71875q0.9375 0 1.5625 -0.4375q0.640625 -0.4375 0.890625 -1.171875l1.578125 0q-0.359375 1.265625 -1.421875 2.0625q-1.046875 0.78125 -2.609375 0.78125q-1.25 0 -2.234375 -0.546875q-0.984375 -0.5625 -1.546875 -1.59375q-0.5625 -1.046875 -0.5625 -2.40625q0 -1.359375 0.546875 -2.375q0.546875 -1.03125 1.53125 -1.578125q0.984375 -0.546875 2.265625 -0.546875q1.234375 0 2.1875 0.546875q0.96875 0.53125 1.484375 1.484375q0.53125 0.953125 0.53125 2.15625zm-1.5 -0.3125q0 -0.828125 -0.375 -1.421875q-0.375 -0.609375 -1.0 -0.921875q-0.625 -0.3125 -1.40625 -0.3125q-1.09375 0 -1.875 0.71875q-0.78125 0.703125 -0.890625 1.9375l5.546875 0z" fill-rule="nonzero"/><path fill="#000000" fill-opacity="0.0" d="m20.333586 292.70126l0 0c0 -13.234802 10.7289295 -23.963745 23.963736 -23.963745l147.6001 0c6.3555756 0 12.450836 2.5247498 16.944916 7.0188293c4.4940643 4.4940796 7.018814 10.589325 7.018814 16.944916l0 95.85205c0 13.234802 -10.728928 23.963745 -23.96373 23.963745l-147.6001 0c-13.234806 0 -23.963736 -10.728943 -23.963736 -23.963745z" fill-rule="evenodd"/><path stroke="#8d3aed" stroke-width="1.0" stroke-linejoin="round" stroke-linecap="butt" d="m20.333586 292.70126l0 0c0 -13.234802 10.7289295 -23.963745 23.963736 -23.963745l147.6001 0c6.3555756 0 12.450836 2.5247498 16.944916 7.0188293c4.4940643 4.4940796 7.018814 10.589325 7.018814 16.944916l0 95.85205c0 13.234802 -10.728928 23.963745 -23.96373 23.963745l-147.6001 0c-13.234806 0 -23.963736 -10.728943 -23.963736 -23.963745z" fill-rule="evenodd"/><path fill="#ffffff" d="m59.81498 335.33105l0 1.1875l-3.03125 0l0 9.96875l-1.46875 0l0 -9.96875l-3.046875 0l0 -1.1875l7.546875 0zm3.249771 3.8125q0.390625 -0.75 1.09375 -1.15625q0.71875 -0.421875 1.734375 -0.421875l0 1.5l-0.375 0q-2.453125 0 -2.453125 2.65625l0 4.765625l-1.453125 0l0 -8.765625l1.453125 0l0 1.421875zm3.9680176 2.921875q0 -1.34375 0.546875 -2.359375q0.546875 -1.015625 1.5 -1.5625q0.953125 -0.5625 2.109375 -0.5625q1.15625 0 2.0 0.5q0.859375 0.484375 1.265625 1.234375l0 -1.59375l1.46875 0l0 8.765625l-1.46875 0l0 -1.625q-0.421875 0.765625 -1.28125 1.265625q-0.859375 0.5 -2.0 0.5q-1.171875 0 -2.109375 -0.578125q-0.9375 -0.578125 -1.484375 -1.609375q-0.546875 -1.046875 -0.546875 -2.375zm7.421875 0.015625q0 -0.984375 -0.40625 -1.71875q-0.390625 -0.734375 -1.078125 -1.125q-0.671875 -0.390625 -1.484375 -0.390625q-0.828125 0 -1.5 0.390625q-0.671875 0.375 -1.078125 1.109375q-0.390625 0.734375 -0.390625 1.71875q0 1.015625 0.390625 1.765625q0.40625 0.734375 1.078125 1.125q0.671875 0.390625 1.5 0.390625q0.8125 0 1.484375 -0.390625q0.6875 -0.390625 1.078125 -1.125q0.40625 -0.75 0.40625 -1.75zm8.20665 -4.515625q1.609375 0 2.59375 0.96875q1.0 0.96875 1.0 2.78125l0 5.171875l-1.453125 0l0 -4.953125q0 -1.3125 -0.65625 -2.0q-0.640625 -0.703125 -1.78125 -0.703125q-1.15625 0 -1.84375 0.71875q-0.671875 0.71875 -0.671875 2.09375l0 4.84375l-1.453125 0l0 -8.765625l1.453125 0l0 1.25q0.4375 -0.671875 1.171875 -1.03125q0.75 -0.375 1.640625 -0.375zm9.083771 9.0625q-1.015625 0 -1.8125 -0.34375q-0.796875 -0.34375 -1.265625 -0.953125q-0.46875 -0.625 -0.515625 -1.421875l1.5 0q0.0625 0.65625 0.609375 1.078125q0.5625 0.40625 1.453125 0.40625q0.84375 0 1.3125 -0.359375q0.484375 -0.375 0.484375 -0.9375q0 -0.5625 -0.515625 -0.84375q-0.5 -0.28125 -1.578125 -0.5625q-0.96875 -0.25 -1.59375 -0.515625q-0.609375 -0.265625 -1.0625 -0.78125q-0.4375 -0.515625 -0.4375 -1.375q0 -0.671875 0.40625 -1.21875q0.40625 -0.5625 1.140625 -0.890625q0.734375 -0.328125 1.671875 -0.328125q1.453125 0 2.34375 0.734375q0.90625 0.734375 0.96875 2.015625l-1.453125 0q-0.046875 -0.6875 -0.5625 -1.109375q-0.5 -0.421875 -1.34375 -0.421875q-0.78125 0 -1.25 0.34375q-0.453125 0.328125 -0.453125 0.875q0 0.4375 0.265625 0.71875q0.28125 0.28125 0.703125 0.453125q0.4375 0.15625 1.1875 0.375q0.9375 0.25 1.53125 0.5q0.59375 0.25 1.015625 0.75q0.421875 0.484375 0.4375 1.28125q0 0.734375 -0.40625 1.3125q-0.390625 0.5625 -1.125 0.890625q-0.71875 0.328125 -1.65625 0.328125zm4.6957703 -4.5625q0 -1.34375 0.546875 -2.359375q0.546875 -1.015625 1.5 -1.5625q0.953125 -0.5625 2.109375 -0.5625q1.15625 0 2.0 0.5q0.859375 0.484375 1.265625 1.234375l0 -1.59375l1.46875 0l0 8.765625l-1.46875 0l0 -1.625q-0.421875 0.765625 -1.28125 1.265625q-0.859375 0.5 -2.0 0.5q-1.171875 0 -2.109375 -0.578125q-0.9375 -0.578125 -1.484375 -1.609375q-0.546875 -1.046875 -0.546875 -2.375zm7.421875 0.015625q0 -0.984375 -0.40625 -1.71875q-0.390625 -0.734375 -1.078125 -1.125q-0.671875 -0.390625 -1.484375 -0.390625q-0.828125 0 -1.5 0.390625q-0.671875 0.375 -1.078125 1.109375q-0.390625 0.734375 -0.390625 1.71875q0 1.015625 0.390625 1.765625q0.40625 0.734375 1.078125 1.125q0.671875 0.390625 1.5 0.390625q0.8125 0 1.484375 -0.390625q0.6875 -0.390625 1.078125 -1.125q0.40625 -0.75 0.40625 -1.75zm3.3941498 0q0 -1.359375 0.546875 -2.375q0.546875 -1.015625 1.515625 -1.5625q0.96875 -0.5625 2.203125 -0.5625q1.625 0 2.671875 0.78125q1.046875 0.78125 1.390625 2.171875l-1.578125 0q-0.21875 -0.796875 -0.875 -1.265625q-0.640625 -0.46875 -1.609375 -0.46875q-1.234375 0 -2.015625 0.859375q-0.765625 0.859375 -0.765625 2.421875q0 1.59375 0.765625 2.453125q0.78125 0.859375 2.015625 0.859375q0.96875 0 1.609375 -0.4375q0.640625 -0.453125 0.875 -1.28125l1.578125 0q-0.359375 1.34375 -1.421875 2.15625q-1.046875 0.796875 -2.640625 0.796875q-1.234375 0 -2.203125 -0.546875q-0.96875 -0.5625 -1.515625 -1.59375q-0.546875 -1.03125 -0.546875 -2.40625zm12.040146 -3.15625l0 5.15625q0 0.640625 0.265625 0.90625q0.265625 0.265625 0.9375 0.265625l1.078125 0l0 1.234375l-1.3125 0q-1.21875 0 -1.828125 -0.5625q-0.609375 -0.5625 -0.609375 -1.84375l0 -5.15625l-1.125 0l0 -1.203125l1.125 0l0 -2.203125l1.46875 0l0 2.203125l2.28125 0l0 1.203125l-2.28125 0zm4.792755 -2.625q-0.421875 0 -0.71875 -0.28125q-0.28125 -0.296875 -0.28125 -0.71875q0 -0.40625 0.28125 -0.6875q0.296875 -0.296875 0.71875 -0.296875q0.40625 0 0.671875 0.296875q0.28125 0.28125 0.28125 0.6875q0 0.421875 -0.28125 0.71875q-0.265625 0.28125 -0.671875 0.28125zm0.703125 1.421875l0 8.765625l-1.453125 0l0 -8.765625l1.453125 0zm6.310997 8.90625q-1.234375 0 -2.234375 -0.546875q-0.9999924 -0.5625 -1.5781174 -1.59375q-0.5625 -1.046875 -0.5625 -2.40625q0 -1.34375 0.578125 -2.375q0.59375 -1.03125 1.5937424 -1.578125q1.015625 -0.546875 2.265625 -0.546875q1.25 0 2.25 0.546875q1.015625 0.546875 1.59375 1.578125q0.578125 1.015625 0.578125 2.375q0 1.359375 -0.59375 2.40625q-0.59375 1.03125 -1.625 1.59375q-1.03125 0.546875 -2.265625 0.546875zm0 -1.28125q0.78125 0 1.46875 -0.359375q0.6875 -0.375 1.109375 -1.109375q0.421875 -0.734375 0.421875 -1.796875q0 -1.046875 -0.421875 -1.78125q-0.40625 -0.734375 -1.078125 -1.09375q-0.671875 -0.359375 -1.453125 -0.359375q-0.8125 0 -1.484375 0.359375q-0.65625 0.359375 -1.0625 1.09375q-0.390625 0.734375 -0.390625 1.78125q0 1.078125 0.390625 1.8125q0.390625 0.734375 1.046875 1.09375q0.65625 0.359375 1.453125 0.359375zm10.677521 -7.78125q1.609375 0 2.59375 0.96875q1.0 0.96875 1.0 2.78125l0 5.171875l-1.453125 0l0 -4.953125q0 -1.3125 -0.65625 -2.0q-0.640625 -0.703125 -1.78125 -0.703125q-1.15625 0 -1.84375 0.71875q-0.671875 0.71875 -0.671875 2.09375l0 4.84375l-1.453125 0l0 -8.765625l1.453125 0l0 1.25q0.4375 -0.671875 1.171875 -1.03125q0.75 -0.375 1.640625 -0.375zm17.699524 1.03125q0 1.390625 -0.953125 2.3125q-0.953125 0.921875 -2.90625 0.921875l-2.140625 0l0 4.65625l-1.453125 0l0 -11.15625l3.59375 0q1.890625 0 2.875 0.921875q0.984375 0.90625 0.984375 2.34375zm-3.859375 2.03125q1.21875 0 1.796875 -0.515625q0.578125 -0.53125 0.578125 -1.515625q0 -2.0625 -2.375 -2.0625l-2.140625 0l0 4.09375l2.140625 0zm9.498413 6.0q-1.234375 0 -2.234375 -0.546875q-1.0 -0.5625 -1.578125 -1.59375q-0.5625 -1.046875 -0.5625 -2.40625q0 -1.34375 0.578125 -2.375q0.59375 -1.03125 1.59375 -1.578125q1.015625 -0.546875 2.265625 -0.546875q1.25 0 2.25 0.546875q1.015625 0.546875 1.59375 1.578125q0.578125 1.015625 0.578125 2.375q0 1.359375 -0.59375 2.40625q-0.59375 1.03125 -1.625 1.59375q-1.03125 0.546875 -2.265625 0.546875zm0 -1.28125q0.78125 0 1.46875 -0.359375q0.6875 -0.375 1.109375 -1.109375q0.421875 -0.734375 0.421875 -1.796875q0 -1.046875 -0.421875 -1.78125q-0.40625 -0.734375 -1.078125 -1.09375q-0.671875 -0.359375 -1.453125 -0.359375q-0.8125 0 -1.484375 0.359375q-0.65625 0.359375 -1.0625 1.09375q-0.390625 0.734375 -0.390625 1.78125q0 1.078125 0.390625 1.8125q0.390625 0.734375 1.046875 1.09375q0.65625 0.359375 1.453125 0.359375zm10.240021 1.28125q-1.234375 0 -2.234375 -0.546875q-1.0 -0.5625 -1.578125 -1.59375q-0.5625 -1.046875 -0.5625 -2.40625q0 -1.34375 0.578125 -2.375q0.59375 -1.03125 1.59375 -1.578125q1.015625 -0.546875 2.265625 -0.546875q1.25 0 2.25 0.546875q1.015625 0.546875 1.59375 1.578125q0.578125 1.015625 0.578125 2.375q0 1.359375 -0.59375 2.40625q-0.59375 1.03125 -1.625 1.59375q-1.03125 0.546875 -2.265625 0.546875zm0 -1.28125q0.78125 0 1.46875 -0.359375q0.6875 -0.375 1.109375 -1.109375q0.421875 -0.734375 0.421875 -1.796875q0 -1.046875 -0.421875 -1.78125q-0.40625 -0.734375 -1.078125 -1.09375q-0.671875 -0.359375 -1.453125 -0.359375q-0.8125 0 -1.484375 0.359375q-0.65625 0.359375 -1.0625 1.09375q-0.390625 0.734375 -0.390625 1.78125q0 1.078125 0.390625 1.8125q0.390625 0.734375 1.046875 1.09375q0.65625 0.359375 1.453125 0.359375zm7.8650208 -10.703125l0 11.84375l-1.453125 0l0 -11.84375l1.453125 0z" fill-rule="nonzero"/><path fill="#000000" fill-opacity="0.0" d="m241.92783 101.31691l0 0c0 -10.263138 8.319916 -18.583046 18.583038 -18.583046l295.7788 0c4.928528 0 9.655212 1.9578476 13.140198 5.442848c3.4849854 3.484993 5.44281 8.21167 5.44281 13.140198l0 74.32997c0 10.263123 -8.319885 18.583038 -18.583008 18.583038l-295.7788 0c-10.263123 0 -18.583038 -8.319916 -18.583038 -18.583038z" fill-rule="evenodd"/><path stroke="#8d3aed" stroke-width="1.0" stroke-linejoin="round" stroke-linecap="butt" d="m241.92783 101.31691l0 0c0 -10.263138 8.319916 -18.583046 18.583038 -18.583046l295.7788 0c4.928528 0 9.655212 1.9578476 13.140198 5.442848c3.4849854 3.484993 5.44281 8.21167 5.44281 13.140198l0 74.32997c0 10.263123 -8.319885 18.583038 -18.583008 18.583038l-295.7788 0c-10.263123 0 -18.583038 -8.319916 -18.583038 -18.583038z" fill-rule="evenodd"/><path fill="#ffffff" d="m355.89755 132.54376l0 12.078125l-1.578125 0l0 -5.46875l-6.15625 0l0 5.46875l-1.578125 0l0 -12.078125l1.578125 0l0 5.296875l6.15625 0l0 -5.296875l1.578125 0zm6.8191223 12.234375q-1.328125 0 -2.421875 -0.609375q-1.078125 -0.609375 -1.6875 -1.71875q-0.609375 -1.125 -0.609375 -2.59375q0 -1.453125 0.625 -2.5625q0.640625 -1.125 1.71875 -1.71875q1.09375 -0.609375 2.453125 -0.609375q1.34375 0 2.4375 0.609375q1.09375 0.59375 1.71875 1.703125q0.640625 1.109375 0.640625 2.578125q0 1.46875 -0.65625 2.59375q-0.640625 1.109375 -1.75 1.71875q-1.109375 0.609375 -2.46875 0.609375zm0 -1.390625q0.859375 0 1.59375 -0.390625q0.75 -0.40625 1.203125 -1.203125q0.46875 -0.796875 0.46875 -1.9375q0 -1.140625 -0.453125 -1.9375q-0.453125 -0.796875 -1.1875 -1.1875q-0.71875 -0.390625 -1.5625 -0.390625q-0.875 0 -1.59375 0.390625q-0.71875 0.390625 -1.15625 1.1875q-0.421875 0.796875 -0.421875 1.9375q0 1.15625 0.421875 1.953125q0.421875 0.796875 1.125 1.1875q0.71875 0.390625 1.5625 0.390625zm10.32431 1.390625q-1.09375 0 -1.96875 -0.375q-0.859375 -0.375 -1.375 -1.03125q-0.5 -0.671875 -0.546875 -1.546875l1.625 0q0.078125 0.71875 0.671875 1.171875q0.59375 0.453125 1.5625 0.453125q0.90625 0 1.421875 -0.390625q0.53125 -0.40625 0.53125 -1.015625q0 -0.625 -0.5625 -0.921875q-0.546875 -0.3125 -1.71875 -0.609375q-1.046875 -0.28125 -1.71875 -0.5625q-0.671875 -0.28125 -1.15625 -0.84375q-0.46875 -0.5625 -0.46875 -1.484375q0 -0.734375 0.4375 -1.328125q0.4375 -0.609375 1.234375 -0.96875q0.796875 -0.359375 1.8125 -0.359375q1.578125 0 2.546875 0.796875q0.96875 0.796875 1.046875 2.1875l-1.578125 0q-0.046875 -0.75 -0.59375 -1.1875q-0.546875 -0.453125 -1.46875 -0.453125q-0.84375 0 -1.359375 0.359375q-0.5 0.359375 -0.5 0.953125q0 0.46875 0.296875 0.78125q0.3125 0.296875 0.765625 0.484375q0.46875 0.171875 1.28125 0.390625q1.015625 0.28125 1.65625 0.5625q0.640625 0.265625 1.09375 0.796875q0.46875 0.53125 0.484375 1.40625q0 0.78125 -0.4375 1.40625q-0.421875 0.625 -1.21875 0.984375q-0.78125 0.34375 -1.796875 0.34375zm7.592102 -8.359375l0 5.609375q0 0.6875 0.296875 0.984375q0.296875 0.28125 1.03125 0.28125l1.15625 0l0 1.328125l-1.421875 0q-1.3125 0 -1.96875 -0.609375q-0.65625 -0.609375 -0.65625 -1.984375l0 -5.609375l-1.234375 0l0 -1.296875l1.234375 0l0 -2.390625l1.5625 0l0 2.390625l2.484375 0l0 1.296875l-2.484375 0zm15.8402405 -3.875l0 1.28125l-5.25 0l0 4.078125l4.265625 0l0 1.28125l-4.265625 0l0 5.4375l-1.578125 0l0 -12.078125l6.828125 0zm10.327087 2.578125l0 9.5l-1.578125 0l0 -1.40625q-0.4375 0.734375 -1.25 1.140625q-0.8125 0.40625 -1.78125 0.40625q-1.109375 0 -2.0 -0.453125q-0.875 -0.46875 -1.390625 -1.375q-0.5 -0.921875 -0.5 -2.25l0 -5.5625l1.5625 0l0 5.359375q0 1.40625 0.703125 2.15625q0.71875 0.75 1.9375 0.75q1.265625 0 1.984375 -0.78125q0.734375 -0.78125 0.734375 -2.265625l0 -5.21875l1.578125 0zm7.2930603 -0.171875q1.734375 0 2.8125 1.046875q1.078125 1.046875 1.078125 3.03125l0 5.59375l-1.5625 0l0 -5.375q0 -1.421875 -0.71875 -2.171875q-0.703125 -0.75 -1.9375 -0.75q-1.234375 0 -1.984375 0.78125q-0.734375 0.78125 -0.734375 2.265625l0 5.25l-1.578125 0l0 -9.5l1.578125 0l0 1.359375q0.46875 -0.734375 1.265625 -1.125q0.8125 -0.40625 1.78125 -0.40625zm5.8868103 4.90625q0 -1.46875 0.578125 -2.5625q0.59375 -1.109375 1.640625 -1.71875q1.046875 -0.609375 2.40625 -0.609375q1.75 0 2.875 0.859375q1.140625 0.84375 1.5 2.34375l-1.6875 0q-0.25 -0.859375 -0.953125 -1.359375q-0.703125 -0.5 -1.734375 -0.5q-1.359375 0 -2.1875 0.921875q-0.828125 0.921875 -0.828125 2.625q0 1.71875 0.828125 2.65625q0.828125 0.9375 2.1875 0.9375q1.03125 0 1.71875 -0.484375q0.703125 -0.5 0.96875 -1.390625l1.6875 0q-0.375 1.453125 -1.515625 2.328125q-1.140625 0.875 -2.859375 0.875q-1.359375 0 -2.40625 -0.609375q-1.046875 -0.609375 -1.640625 -1.71875q-0.578125 -1.109375 -0.578125 -2.59375zm13.018097 -3.4375l0 5.609375q0 0.6875 0.296875 0.984375q0.296875 0.28125 1.03125 0.28125l1.15625 0l0 1.328125l-1.421875 0q-1.3125 0 -1.96875 -0.609375q-0.65625 -0.609375 -0.65625 -1.984375l0 -5.609375l-1.234375 0l0 -1.296875l1.234375 0l0 -2.390625l1.5625 0l0 2.390625l2.484375 0l0 1.296875l-2.484375 0zm5.2136536 -2.828125q-0.453125 0 -0.765625 -0.3125q-0.3125 -0.3125 -0.3125 -0.765625q0 -0.453125 0.3125 -0.765625q0.3125 -0.3125 0.765625 -0.3125q0.421875 0 0.71875 0.3125q0.3125 0.3125 0.3125 0.765625q0 0.453125 -0.3125 0.765625q-0.296875 0.3125 -0.71875 0.3125zm0.75 1.53125l0 9.5l-1.578125 0l0 -9.5l1.578125 0zm6.8251953 9.65625q-1.328125 0 -2.421875 -0.609375q-1.078125 -0.609375 -1.6875 -1.71875q-0.609375 -1.125 -0.609375 -2.59375q0 -1.453125 0.625 -2.5625q0.640625 -1.125 1.71875 -1.71875q1.09375 -0.609375 2.453125 -0.609375q1.34375 0 2.4375 0.609375q1.09375 0.59375 1.71875 1.703125q0.640625 1.109375 0.640625 2.578125q0 1.46875 -0.65625 2.59375q-0.640625 1.109375 -1.75 1.71875q-1.109375 0.609375 -2.46875 0.609375zm0 -1.390625q0.859375 0 1.59375 -0.390625q0.75 -0.40625 1.203125 -1.203125q0.46875 -0.796875 0.46875 -1.9375q0 -1.140625 -0.453125 -1.9375q-0.453125 -0.796875 -1.1875 -1.1875q-0.71875 -0.390625 -1.5625 -0.390625q-0.875 0 -1.59375 0.390625q-0.71875 0.390625 -1.15625 1.1875q-0.421875 0.796875 -0.421875 1.9375q0 1.15625 0.421875 1.953125q0.421875 0.796875 1.125 1.1875q0.71875 0.390625 1.5625 0.390625zm11.57431 -8.4375q1.734375 0 2.8125 1.046875q1.078125 1.046875 1.078125 3.03125l0 5.59375l-1.5625 0l0 -5.375q0 -1.421875 -0.71875 -2.171875q-0.703125 -0.75 -1.9375 -0.75q-1.234375 0 -1.984375 0.78125q-0.734375 0.78125 -0.734375 2.265625l0 5.25l-1.578125 0l0 -9.5l1.578125 0l0 1.359375q0.46875 -0.734375 1.265625 -1.125q0.8125 -0.40625 1.78125 -0.40625zm9.839935 9.828125q-1.09375 0 -1.96875 -0.375q-0.859375 -0.375 -1.375 -1.03125q-0.5 -0.671875 -0.546875 -1.546875l1.625 0q0.078125 0.71875 0.671875 1.171875q0.59375 0.453125 1.5625 0.453125q0.90625 0 1.421875 -0.390625q0.53125 -0.40625 0.53125 -1.015625q0 -0.625 -0.5625 -0.921875q-0.546875 -0.3125 -1.71875 -0.609375q-1.046875 -0.28125 -1.71875 -0.5625q-0.671875 -0.28125 -1.15625 -0.84375q-0.46875 -0.5625 -0.46875 -1.484375q0 -0.734375 0.4375 -1.328125q0.4375 -0.609375 1.234375 -0.96875q0.796875 -0.359375 1.8125 -0.359375q1.578125 0 2.546875 0.796875q0.96875 0.796875 1.046875 2.1875l-1.578125 0q-0.046875 -0.75 -0.59375 -1.1875q-0.546875 -0.453125 -1.46875 -0.453125q-0.84375 0 -1.359375 0.359375q-0.5 0.359375 -0.5 0.953125q0 0.46875 0.296875 0.78125q0.3125 0.296875 0.765625 0.484375q0.46875 0.171875 1.28125 0.390625q1.015625 0.28125 1.65625 0.5625q0.640625 0.265625 1.09375 0.796875q0.46875 0.53125 0.484375 1.40625q0 0.78125 -0.4375 1.40625q-0.421875 0.625 -1.21875 0.984375q-0.78125 0.34375 -1.796875 0.34375z" fill-rule="nonzero"/><path fill="#000000" fill-opacity="0.0" d="m239.12204 224.6838l0 0c0 -10.761795 8.724167 -19.485947 19.485962 -19.485947l77.94147 0l0 0c5.1679993 0 10.124329 2.0529785 13.778656 5.707306c3.6543274 3.6543274 5.707306 8.610657 5.707306 13.778641l0 284.33517c0 10.76178 -8.724152 19.485962 -19.485962 19.485962l-77.94147 0c-10.761795 0 -19.485962 -8.724182 -19.485962 -19.485962z" fill-rule="evenodd"/><path stroke="#8d3aed" stroke-width="1.0" stroke-linejoin="round" stroke-linecap="butt" d="m239.12204 224.6838l0 0c0 -10.761795 8.724167 -19.485947 19.485962 -19.485947l77.94147 0l0 0c5.1679993 0 10.124329 2.0529785 13.778656 5.707306c3.6543274 3.6543274 5.707306 8.610657 5.707306 13.778641l0 284.33517c0 10.76178 -8.724152 19.485962 -19.485962 19.485962l-77.94147 0c-10.761795 0 -19.485962 -8.724182 -19.485962 -19.485962z" fill-rule="evenodd"/><path fill="#ffffff" d="m261.25385 366.87015q0.515625 0.078125 0.9375 0.421875q0.421875 0.328125 0.65625 0.828125q0.25 0.484375 0.25 1.03125q0 0.71875 -0.359375 1.28125q-0.359375 0.5625 -1.046875 0.890625q-0.6875 0.328125 -1.625 0.328125l-3.453125 0l0 -9.296875l3.328125 0q0.9375 0 1.609375 0.328125q0.671875 0.3125 1.0 0.84375q0.328125 0.53125 0.328125 1.1875q0 0.828125 -0.453125 1.375q-0.4375 0.53125 -1.171875 0.78125zm-3.4375 -0.5l2.046875 0q0.84375 0 1.3125 -0.390625q0.46875 -0.40625 0.46875 -1.109375q0 -0.703125 -0.46875 -1.109375q-0.46875 -0.40625 -1.34375 -0.40625l-2.015625 0l0 3.015625zm2.15625 4.28125q0.90625 0 1.40625 -0.421875q0.5 -0.4375 0.5 -1.1875q0 -0.78125 -0.53125 -1.21875q-0.53125 -0.453125 -1.421875 -0.453125l-2.109375 0l0 3.28125l2.15625 0zm6.013855 -8.859375l0 9.859375l-1.203125 0l0 -9.859375l1.203125 0zm5.263092 9.984375q-1.03125 0 -1.875 -0.46875q-0.828125 -0.46875 -1.296875 -1.328125q-0.46875 -0.859375 -0.46875 -2.0q0 -1.109375 0.484375 -1.96875q0.484375 -0.859375 1.3125 -1.3125q0.84375 -0.46875 1.890625 -0.46875q1.03125 0 1.875 0.46875q0.84375 0.453125 1.328125 1.3125q0.484375 0.84375 0.484375 1.96875q0 1.140625 -0.5 2.0q-0.5 0.859375 -1.359375 1.328125q-0.84375 0.46875 -1.875 0.46875zm0 -1.078125q0.640625 0 1.21875 -0.296875q0.578125 -0.3125 0.921875 -0.921875q0.359375 -0.609375 0.359375 -1.5q0 -0.875 -0.34375 -1.484375q-0.34375 -0.609375 -0.90625 -0.90625q-0.5625 -0.3125 -1.21875 -0.3125q-0.671875 0 -1.21875 0.3125q-0.546875 0.296875 -0.890625 0.90625q-0.328125 0.609375 -0.328125 1.484375q0 0.90625 0.328125 1.515625q0.328125 0.609375 0.875 0.90625q0.546875 0.296875 1.203125 0.296875zm4.8893433 -2.71875q0 -1.125 0.453125 -1.96875q0.453125 -0.84375 1.25 -1.3125q0.8125 -0.46875 1.84375 -0.46875q1.359375 0 2.21875 0.65625q0.875 0.640625 1.15625 1.8125l-1.296875 0q-0.1875 -0.671875 -0.734375 -1.046875q-0.53125 -0.390625 -1.34375 -0.390625q-1.03125 0 -1.671875 0.71875q-0.640625 0.703125 -0.640625 2.0q0 1.328125 0.640625 2.046875q0.640625 0.71875 1.671875 0.71875q0.8125 0 1.34375 -0.375q0.53125 -0.375 0.734375 -1.0625l1.296875 0q-0.296875 1.125 -1.171875 1.796875q-0.875 0.671875 -2.203125 0.671875q-1.03125 0 -1.84375 -0.46875q-0.796875 -0.46875 -1.25 -1.3125q-0.453125 -0.859375 -0.453125 -2.015625zm12.621399 3.671875l-2.875 -3.21875l0 3.21875l-1.203125 0l0 -9.859375l1.203125 0l0 5.796875l2.8125 -3.234375l1.703125 0l-3.4375 3.625l3.4375 3.671875l-1.640625 0zm10.985046 -4.78125q0.515625 0.078125 0.9375 0.421875q0.421875 0.328125 0.65625 0.828125q0.25 0.484375 0.25 1.03125q0 0.71875 -0.359375 1.28125q-0.359375 0.5625 -1.046875 0.890625q-0.6875 0.328125 -1.625 0.328125l-3.453125 0l0 -9.296875l3.328125 0q0.9375 0 1.609375 0.328125q0.671875 0.3125 1.0 0.84375q0.328125 0.53125 0.328125 1.1875q0 0.828125 -0.453125 1.375q-0.4375 0.53125 -1.171875 0.78125zm-3.4375 -0.5l2.046875 0q0.84375 0 1.3125 -0.390625q0.46875 -0.40625 0.46875 -1.109375q0 -0.703125 -0.46875 -1.109375q-0.46875 -0.40625 -1.34375 -0.40625l-2.015625 0l0 3.015625zm2.15625 4.28125q0.90625 0 1.40625 -0.421875q0.5 -0.4375 0.5 -1.1875q0 -0.78125 -0.53125 -1.21875q-0.53125 -0.453125 -1.421875 -0.453125l-2.109375 0l0 3.28125l2.15625 0zm11.27948 -6.296875l0 7.296875l-1.203125 0l0 -1.078125q-0.359375 0.5625 -0.984375 0.875q-0.609375 0.3125 -1.359375 0.3125q-0.84375 0 -1.53125 -0.34375q-0.671875 -0.359375 -1.078125 -1.0625q-0.390625 -0.71875 -0.390625 -1.734375l0 -4.265625l1.203125 0l0 4.109375q0 1.078125 0.546875 1.65625q0.546875 0.578125 1.5 0.578125q0.96875 0 1.53125 -0.59375q0.5625 -0.59375 0.5625 -1.75l0 -4.0l1.203125 0zm2.6862183 -1.1875q-0.34375 0 -0.59375 -0.234375q-0.234375 -0.25 -0.234375 -0.59375q0 -0.34375 0.234375 -0.578125q0.25 -0.25 0.59375 -0.25q0.328125 0 0.5625 0.25q0.234375 0.234375 0.234375 0.578125q0 0.34375 -0.234375 0.59375q-0.234375 0.234375 -0.5625 0.234375zm0.578125 1.1875l0 7.296875l-1.203125 0l0 -7.296875l1.203125 0zm3.2786865 -2.5625l0 9.859375l-1.203125 0l0 -9.859375l1.203125 0zm1.622467 6.1875q0 -1.125 0.453125 -1.96875q0.453125 -0.84375 1.234375 -1.3125q0.796875 -0.46875 1.78125 -0.46875q0.859375 0 1.59375 0.390625q0.734375 0.390625 1.109375 1.03125l0 -3.859375l1.234375 0l0 9.859375l-1.234375 0l0 -1.375q-0.359375 0.65625 -1.0625 1.078125q-0.703125 0.421875 -1.65625 0.421875q-0.96875 0 -1.765625 -0.484375q-0.78125 -0.484375 -1.234375 -1.34375q-0.453125 -0.875 -0.453125 -1.96875zm6.171875 0q0 -0.8125 -0.328125 -1.421875q-0.328125 -0.625 -0.90625 -0.953125q-0.5625 -0.328125 -1.234375 -0.328125q-0.6875 0 -1.25 0.328125q-0.546875 0.3125 -0.890625 0.9375q-0.328125 0.609375 -0.328125 1.4375q0 0.828125 0.328125 1.453125q0.34375 0.625 0.890625 0.953125q0.5625 0.3125 1.25 0.3125q0.671875 0 1.234375 -0.3125q0.578125 -0.328125 0.90625 -0.953125q0.328125 -0.625 0.328125 -1.453125zm9.947266 -0.265625q0 0.359375 -0.03125 0.734375l-5.84375 0q0.0625 1.078125 0.734375 1.6875q0.671875 0.609375 1.640625 0.609375q0.78125 0 1.3125 -0.359375q0.53125 -0.375 0.734375 -0.984375l1.3125 0q-0.296875 1.046875 -1.1875 1.71875q-0.875 0.65625 -2.171875 0.65625q-1.046875 0 -1.875 -0.46875q-0.8125 -0.46875 -1.28125 -1.328125q-0.453125 -0.859375 -0.453125 -2.0q0 -1.125 0.453125 -1.96875q0.453125 -0.859375 1.265625 -1.3125q0.828125 -0.46875 1.890625 -0.46875q1.03125 0 1.828125 0.453125q0.8125 0.453125 1.234375 1.25q0.4375 0.78125 0.4375 1.78125zm-1.25 -0.25q0 -0.6875 -0.3125 -1.1875q-0.296875 -0.5 -0.828125 -0.75q-0.53125 -0.265625 -1.171875 -0.265625q-0.90625 0 -1.5625 0.59375q-0.640625 0.578125 -0.734375 1.609375l4.609375 0zm4.0603027 -1.9375q0.328125 -0.625 0.921875 -0.96875q0.59375 -0.34375 1.4375 -0.34375l0 1.25l-0.3125 0q-2.046875 0 -2.046875 2.21875l0 3.96875l-1.203125 0l0 -7.296875l1.203125 0l0 1.171875z" fill-rule="nonzero"/><path fill="#000000" fill-opacity="0.0" d="m371.33466 239.1072l0 0c0 -18.728775 15.182648 -33.911438 33.911438 -33.911438l135.64166 0l0 0c8.9938965 0 17.619385 3.5727997 23.979004 9.932434c6.35968 6.359619 9.932434 14.985138 9.932434 23.979004l0 255.4842c0 18.72879 -15.182678 33.91147 -33.911438 33.91147l-135.64166 0c-18.72879 0 -33.911438 -15.182678 -33.911438 -33.91147z" fill-rule="evenodd"/><path stroke="#8d3aed" stroke-width="1.0" stroke-linejoin="round" stroke-linecap="butt" d="m371.33466 239.1072l0 0c0 -18.728775 15.182648 -33.911438 33.911438 -33.911438l135.64166 0l0 0c8.9938965 0 17.619385 3.5727997 23.979004 9.932434c6.35968 6.359619 9.932434 14.985138 9.932434 23.979004l0 255.4842c0 18.72879 -15.182678 33.91147 -33.911438 33.91147l-135.64166 0c-18.72879 0 -33.911438 -15.182678 -33.911438 -33.91147z" fill-rule="evenodd"/><path fill="#ffffff" d="m418.1785 372.9893l-1.578125 0l-6.34375 -9.609375l0 9.609375l-1.578125 0l0 -12.09375l1.578125 0l6.34375 9.59375l0 -9.59375l1.578125 0l0 12.09375zm2.103485 -4.78125q0 -1.453125 0.578125 -2.546875q0.59375 -1.109375 1.625 -1.71875q1.03125 -0.609375 2.296875 -0.609375q1.25 0 2.15625 0.546875q0.921875 0.53125 1.375 1.34375l0 -1.734375l1.59375 0l0 9.5l-1.59375 0l0 -1.765625q-0.46875 0.828125 -1.390625 1.375q-0.921875 0.546875 -2.15625 0.546875q-1.265625 0 -2.296875 -0.625q-1.015625 -0.625 -1.609375 -1.75q-0.578125 -1.125 -0.578125 -2.5625zm8.03125 0.015625q0 -1.078125 -0.4375 -1.875q-0.421875 -0.796875 -1.15625 -1.21875q-0.734375 -0.421875 -1.625 -0.421875q-0.890625 0 -1.625 0.421875q-0.71875 0.40625 -1.15625 1.203125q-0.421875 0.796875 -0.421875 1.875q0 1.09375 0.421875 1.90625q0.4375 0.796875 1.15625 1.21875q0.734375 0.421875 1.625 0.421875q0.890625 0 1.625 -0.421875q0.734375 -0.421875 1.15625 -1.21875q0.4375 -0.8125 0.4375 -1.890625zm6.182495 -3.4375l0 5.609375q0 0.6875 0.296875 0.984375q0.296875 0.28125 1.03125 0.28125l1.15625 0l0 1.328125l-1.421875 0q-1.3125 0 -1.96875 -0.609375q-0.65625 -0.609375 -0.65625 -1.984375l0 -5.609375l-1.234375 0l0 -1.296875l1.234375 0l0 -2.390625l1.5625 0l0 2.390625l2.484375 0l0 1.296875l-2.484375 0zm5.2136536 -2.828125q-0.453125 0 -0.765625 -0.3125q-0.3125 -0.3125 -0.3125 -0.765625q0 -0.453125 0.3125 -0.765625q0.3125 -0.3125 0.765625 -0.3125q0.421875 0 0.71875 0.3125q0.3125 0.3125 0.3125 0.765625q0 0.453125 -0.3125 0.765625q-0.296875 0.3125 -0.71875 0.3125zm0.75 1.53125l0 9.5l-1.578125 0l0 -9.5l1.578125 0zm6.2314453 8.046875l2.9375 -8.046875l1.6875 0l-3.734375 9.5l-1.828125 0l-3.734375 -9.5l1.703125 0l2.96875 8.046875zm14.846008 -3.65625q0 0.453125 -0.046875 0.953125l-7.59375 0q0.078125 1.40625 0.953125 2.203125q0.875 0.78125 2.125 0.78125q1.03125 0 1.703125 -0.46875q0.6875 -0.484375 0.96875 -1.28125l1.703125 0q-0.390625 1.359375 -1.53125 2.21875q-1.140625 0.859375 -2.84375 0.859375q-1.34375 0 -2.421875 -0.609375q-1.0625 -0.609375 -1.671875 -1.71875q-0.59375 -1.125 -0.59375 -2.59375q0 -1.46875 0.578125 -2.578125q0.59375 -1.109375 1.65625 -1.703125q1.078125 -0.609375 2.453125 -0.609375q1.359375 0 2.390625 0.59375q1.046875 0.59375 1.609375 1.625q0.5625 1.03125 0.5625 2.328125zm-1.625 -0.328125q0 -0.90625 -0.40625 -1.546875q-0.390625 -0.65625 -1.078125 -0.984375q-0.6875 -0.34375 -1.515625 -0.34375q-1.203125 0 -2.046875 0.765625q-0.828125 0.75 -0.953125 2.109375l6.0 0zm14.682465 5.4375l-2.875 -4.9375l-1.90625 0l0 4.9375l-1.578125 0l0 -12.078125l3.90625 0q1.375 0 2.3125 0.46875q0.9375 0.46875 1.40625 1.265625q0.46875 0.796875 0.46875 1.8125q0 1.25 -0.71875 2.203125q-0.71875 0.953125 -2.15625 1.265625l3.03125 5.0625l-1.890625 0zm-4.78125 -6.203125l2.328125 0q1.28125 0 1.921875 -0.625q0.640625 -0.640625 0.640625 -1.703125q0 -1.0625 -0.640625 -1.65625q-0.625 -0.59375 -1.921875 -0.59375l-2.328125 0l0 4.578125zm17.379211 -3.296875l0 9.5l-1.578125 0l0 -1.40625q-0.4375 0.734375 -1.25 1.140625q-0.8125 0.40625 -1.78125 0.40625q-1.109375 0 -2.0 -0.453125q-0.875 -0.46875 -1.390625 -1.375q-0.5 -0.921875 -0.5 -2.25l0 -5.5625l1.5625 0l0 5.359375q0 1.40625 0.703125 2.15625q0.71875 0.75 1.9375 0.75q1.265625 0 1.984375 -0.78125q0.734375 -0.78125 0.734375 -2.265625l0 -5.21875l1.578125 0zm7.2930603 -0.171875q1.734375 0 2.8125 1.046875q1.078125 1.046875 1.078125 3.03125l0 5.59375l-1.5625 0l0 -5.375q0 -1.421875 -0.71875 -2.171875q-0.703125 -0.75 -1.9375 -0.75q-1.234375 0 -1.984375 0.78125q-0.734375 0.78125 -0.734375 2.265625l0 5.25l-1.578125 0l0 -9.5l1.578125 0l0 1.359375q0.46875 -0.734375 1.265625 -1.125q0.8125 -0.40625 1.78125 -0.40625zm8.38681 1.46875l0 5.609375q0 0.6875 0.296875 0.984375q0.296875 0.28125 1.03125 0.28125l1.15625 0l0 1.328125l-1.421875 0q-1.3125 0 -1.96875 -0.609375q-0.65625 -0.609375 -0.65625 -1.984375l0 -5.609375l-1.234375 0l0 -1.296875l1.234375 0l0 -2.390625l1.5625 0l0 2.390625l2.484375 0l0 1.296875l-2.484375 0zm5.2136536 -2.828125q-0.453125 0 -0.765625 -0.3125q-0.3125 -0.3125 -0.3125 -0.765625q0 -0.453125 0.3125 -0.765625q0.3125 -0.3125 0.765625 -0.3125q0.421875 0 0.71875 0.3125q0.3125 0.3125 0.3125 0.765625q0 0.453125 -0.3125 0.765625q-0.296875 0.3125 -0.71875 0.3125zm0.75 1.53125l0 9.5l-1.578125 0l0 -9.5l1.578125 0zm14.106415 -0.171875q1.109375 0 1.96875 0.46875q0.875 0.453125 1.375 1.375q0.5 0.921875 0.5 2.234375l0 5.59375l-1.546875 0l0 -5.375q0 -1.421875 -0.703125 -2.171875q-0.703125 -0.75 -1.90625 -0.75q-1.21875 0 -1.953125 0.796875q-0.734375 0.78125 -0.734375 2.265625l0 5.234375l-1.546875 0l0 -5.375q0 -1.421875 -0.703125 -2.171875q-0.703125 -0.75 -1.90625 -0.75q-1.234375 0 -1.96875 0.796875q-0.71875 0.78125 -0.71875 2.265625l0 5.234375l-1.5780945 0l0 -9.5l1.5780945 0l0 1.375q0.46875 -0.75 1.25 -1.140625q0.796875 -0.40625 1.75 -0.40625q1.203125 0 2.109375 0.546875q0.921875 0.53125 1.375 1.5625q0.40625 -1.0 1.3125 -1.546875q0.921875 -0.5625 2.046875 -0.5625zm15.0979 4.5625q0 0.453125 -0.046875 0.953125l-7.59375 0q0.078125 1.40625 0.953125 2.203125q0.875 0.78125 2.125 0.78125q1.03125 0 1.703125 -0.46875q0.6875 -0.484375 0.96875 -1.28125l1.703125 0q-0.390625 1.359375 -1.53125 2.21875q-1.140625 0.859375 -2.84375 0.859375q-1.34375 0 -2.421875 -0.609375q-1.0625 -0.609375 -1.671875 -1.71875q-0.59375 -1.125 -0.59375 -2.59375q0 -1.46875 0.578125 -2.578125q0.59375 -1.109375 1.65625 -1.703125q1.078125 -0.609375 2.453125 -0.609375q1.359375 0 2.390625 0.59375q1.046875 0.59375 1.609375 1.625q0.5625 1.03125 0.5625 2.328125zm-1.625 -0.328125q0 -0.90625 -0.40625 -1.546875q-0.390625 -0.65625 -1.078125 -0.984375q-0.6875 -0.34375 -1.515625 -0.34375q-1.203125 0 -2.046875 0.765625q-0.828125 0.75 -0.953125 2.109375l6.0 0z" fill-rule="nonzero"/><path fill="#010000" fill-opacity="0.0" d="m538.78345 347.78937l0 0l0 35.99991l0 0l0 -35.99991z" fill-rule="nonzero"/></g></svg>