<svg version="1.1" viewBox="0.0 0.0 842.0 332.0" fill="none" stroke="none" stroke-linecap="square" stroke-miterlimit="10" xmlns:xlink="http://www.w3.org/1999/xlink" xmlns="http://www.w3.org/2000/svg"><clipPath id="p.0"><path d="m0 0l842.0 0l0 332.0l-842.0 0l0 -332.0z" clip-rule="nonzero"/></clipPath><g clip-path="url(#p.0)"><path fill="#000000" fill-opacity="0.0" d="m0 0l842.0 0l0 332.0l-842.0 0z" fill-rule="evenodd"/><path fill="#ffffff" d="m28.31402 7.8790226l118.45985 0l0 130.55707l-118.45985 0z" fill-rule="evenodd"/><path stroke="#595959" stroke-width="1.0" stroke-linejoin="round" stroke-linecap="butt" d="m28.31402 7.8790226l118.45985 0l0 130.55707l-118.45985 0z" fill-rule="evenodd"/><path fill="#666666" d="m32.494038 11.413022l110.01575 0l0 23.113987l-110.01575 0z" fill-rule="evenodd"/><path fill="#b4b5b1" d="m32.489532 38.593906l110.01575 0l0 95.748886l-110.01575 0z" fill-rule="evenodd"/><path fill="#ffffff" d="m78.10678 68.32898q0 3.359375 -1.1875 5.890625q-1.1875 2.53125 -3.40625 3.90625q-2.203125 1.375 -5.0625 1.375q-2.828125 0 -5.046875 -1.359375q-2.21875 -1.359375 -3.4375 -3.875q-1.21875 -2.53125 -1.234375 -5.8125l0 -1.125q0 -3.3593788 1.203125 -5.906254q1.21875 -2.5625 3.421875 -3.921875q2.21875 -1.375 5.0625 -1.375q2.84375 0 5.046875 1.375q2.21875 1.359375 3.421875 3.921875q1.21875 2.546875 1.21875 5.890629l0 1.015625zm-4.75 -1.03125q0 -3.5781288 -1.28125 -5.437504q-1.28125 -1.859375 -3.65625 -1.859375q-2.359375 0 -3.640625 1.84375q-1.28125 1.828125 -1.296875 5.375004l0 1.109375q0 3.484375 1.28125 5.40625q1.28125 1.921875 3.6875 1.921875q2.359375 0 3.625 -1.84375q1.265625 -1.859375 1.28125 -5.40625l0 -1.109375zm12.84375 8.125l9.953125 0l0 3.765625l-14.640625 0l0 -22.750004l4.6875 0l0 18.984379zm12.640625 3.765625l0 -22.750004l7.0 0q3.0 0 5.359375 1.359375q2.375 1.34375 3.703125 3.84375q1.328125 2.4843788 1.328125 5.656254l0 1.046875q0 3.171875 -1.3125 5.640625q-1.296875 2.46875 -3.671875 3.828125q-2.375 1.359375 -5.359375 1.375l-7.046875 0zm4.6875 -18.953129l0 15.187504l2.265625 0q2.75 0 4.203125 -1.796875q1.453125 -1.796875 1.484375 -5.140625l0 -1.203125q0 -3.4687538 -1.4375 -5.250004q-1.4375 -1.796875 -4.203125 -1.796875l-2.3125 0z" fill-rule="nonzero"/><path fill="#ffffff" d="m48.97397 113.42273l9.953125 0l0 3.765625l-14.640625 0l0 -22.75l4.6875 0l0 18.984375zm30.328125 -7.09375q0 3.359375 -1.1875 5.890625q-1.1875 2.53125 -3.40625 3.90625q-2.203125 1.375 -5.0625 1.375q-2.828125 0 -5.046875 -1.359375q-2.21875 -1.359375 -3.4375 -3.875q-1.21875 -2.53125 -1.234375 -5.8125l0 -1.125q0 -3.359375 1.203125 -5.90625q1.21875 -2.5625 3.421875 -3.921875q2.21875 -1.375 5.0625 -1.375q2.84375 0 5.046875 1.375q2.21875 1.359375 3.421875 3.921875q1.21875 2.546875 1.21875 5.890625l0 1.015625zm-4.75 -1.03125q0 -3.578125 -1.28125 -5.4375q-1.28125 -1.859375 -3.65625 -1.859375q-2.359375 0 -3.640625 1.84375q-1.28125 1.828125 -1.296875 5.375l0 1.109375q0 3.484375 1.28125 5.40625q1.28125 1.921875 3.6875 1.921875q2.359375 0 3.625 -1.84375q1.265625 -1.859375 1.28125 -5.40625l0 -1.109375zm26.15625 9.015625q-1.265625 1.515625 -3.578125 2.359375q-2.3125 0.828125 -5.125 0.828125q-2.953125 0 -5.1875 -1.28125q-2.21875 -1.296875 -3.4375 -3.75q-1.203125 -2.453125 -1.234375 -5.765625l0 -1.546875q0 -3.40625 1.140625 -5.890625q1.15625 -2.5 3.3125 -3.8125q2.171875 -1.328125 5.078125 -1.328125q4.046875 0 6.328125 1.9375q2.28125 1.921875 2.703125 5.609375l-4.5625 0q-0.3125 -1.953125 -1.390625 -2.859375q-1.0625 -0.90625 -2.9375 -0.90625q-2.390625 0 -3.640625 1.796875q-1.25 1.796875 -1.265625 5.34375l0 1.453125q0 3.578125 1.359375 5.40625q1.359375 1.828125 3.984375 1.828125q2.640625 0 3.765625 -1.125l0 -3.921875l-4.265625 0l0 -3.453125l8.953125 0l0 9.078125zm8.78125 2.875l-4.6875 0l0 -22.75l4.6875 0l0 22.75zm22.203125 -7.578125q-0.265625 3.671875 -2.71875 5.78125q-2.4375 2.109375 -6.4375 2.109375q-4.375 0 -6.890625 -2.9375q-2.5 -2.953125 -2.5 -8.09375l0 -1.390625q0 -3.28125 1.15625 -5.78125q1.15625 -2.5 3.296875 -3.828125q2.15625 -1.34375 5.0 -1.34375q3.9375 0 6.34375 2.109375q2.40625 2.109375 2.78125 5.921875l-4.6875 0q-0.171875 -2.203125 -1.234375 -3.1875q-1.046875 -1.0 -3.203125 -1.0q-2.34375 0 -3.515625 1.6875q-1.15625 1.671875 -1.1875 5.203125l0 1.71875q0 3.6875 1.109375 5.390625q1.125 1.703125 3.53125 1.703125q2.171875 0 3.234375 -0.984375q1.078125 -1.0 1.234375 -3.078125l4.6875 0z" fill-rule="nonzero"/><path fill="#666666" d="m8.647657 67.93132l16.360662 0l0 -5.224392l10.448788 10.448788l-10.448788 10.448784l0 -5.224388l-16.360662 0z" fill-rule="evenodd"/><path stroke="#ffffff" stroke-width="1.0" stroke-linejoin="round" stroke-linecap="butt" d="m8.647657 67.93132l16.360662 0l0 -5.224392l10.448788 10.448788l-10.448788 10.448784l0 -5.224388l-16.360662 0z" fill-rule="evenodd"/><path fill="#ffffff" d="m165.6295 7.8790226l118.459854 0l0 130.55707l-118.459854 0z" fill-rule="evenodd"/><path stroke="#595959" stroke-width="1.0" stroke-linejoin="round" stroke-linecap="butt" d="m165.6295 7.8790226l118.459854 0l0 130.55707l-118.459854 0z" fill-rule="evenodd"/><path fill="#666666" d="m169.80952 11.413022l110.01576 0l0 23.113987l-110.01576 0z" fill-rule="evenodd"/><path fill="#b4b5b1" d="m169.80502 38.593906l110.01575 0l0 95.748886l-110.01575 0z" fill-rule="evenodd"/><path fill="#ffffff" d="m215.42227 68.32898q0 3.359375 -1.1875 5.890625q-1.1875 2.53125 -3.40625 3.90625q-2.203125 1.375 -5.0625 1.375q-2.828125 0 -5.046875 -1.359375q-2.21875 -1.359375 -3.4375 -3.875q-1.21875 -2.53125 -1.234375 -5.8125l0 -1.125q0 -3.3593788 1.203125 -5.906254q1.21875 -2.5625 3.421875 -3.921875q2.21875 -1.375 5.0625 -1.375q2.84375 0 5.046875 1.375q2.21875 1.359375 3.421875 3.921875q1.21875 2.546875 1.21875 5.890629l0 1.015625zm-4.75 -1.03125q0 -3.5781288 -1.28125 -5.437504q-1.28125 -1.859375 -3.65625 -1.859375q-2.359375 0 -3.640625 1.84375q-1.28125 1.828125 -1.296875 5.375004l0 1.109375q0 3.484375 1.28125 5.40625q1.28125 1.921875 3.6875 1.921875q2.359375 0 3.625 -1.84375q1.265625 -1.859375 1.28125 -5.40625l0 -1.109375zm12.84375 8.125l9.953125 0l0 3.765625l-14.640625 0l0 -22.750004l4.6875 0l0 18.984379zm12.640625 3.765625l0 -22.750004l7.0 0q3.0 0 5.359375 1.359375q2.375 1.34375 3.703125 3.84375q1.328125 2.4843788 1.328125 5.656254l0 1.046875q0 3.171875 -1.3125 5.640625q-1.296875 2.46875 -3.671875 3.828125q-2.375 1.359375 -5.359375 1.375l-7.046875 0zm4.6875 -18.953129l0 15.187504l2.265625 0q2.75 0 4.203125 -1.796875q1.453125 -1.796875 1.484375 -5.140625l0 -1.203125q0 -3.4687538 -1.4375 -5.250004q-1.4375 -1.796875 -4.203125 -1.796875l-2.3125 0z" fill-rule="nonzero"/><path fill="#ffffff" d="m186.28946 113.42273l9.953125 0l0 3.765625l-14.640625 0l0 -22.75l4.6875 0l0 18.984375zm30.328125 -7.09375q0 3.359375 -1.1875 5.890625q-1.1875 2.53125 -3.40625 3.90625q-2.203125 1.375 -5.0625 1.375q-2.828125 0 -5.046875 -1.359375q-2.21875 -1.359375 -3.4375 -3.875q-1.21875 -2.53125 -1.234375 -5.8125l0 -1.125q0 -3.359375 1.203125 -5.90625q1.21875 -2.5625 3.421875 -3.921875q2.21875 -1.375 5.0625 -1.375q2.84375 0 5.046875 1.375q2.21875 1.359375 3.421875 3.921875q1.21875 2.546875 1.21875 5.890625l0 1.015625zm-4.75 -1.03125q0 -3.578125 -1.28125 -5.4375q-1.28125 -1.859375 -3.65625 -1.859375q-2.359375 0 -3.640625 1.84375q-1.28125 1.828125 -1.296875 5.375l0 1.109375q0 3.484375 1.28125 5.40625q1.28125 1.921875 3.6875 1.921875q2.359375 0 3.625 -1.84375q1.265625 -1.859375 1.28125 -5.40625l0 -1.109375zm26.15625 9.015625q-1.265625 1.515625 -3.578125 2.359375q-2.3125 0.828125 -5.125 0.828125q-2.953125 0 -5.1875 -1.28125q-2.21875 -1.296875 -3.4375 -3.75q-1.203125 -2.453125 -1.234375 -5.765625l0 -1.546875q0 -3.40625 1.140625 -5.890625q1.15625 -2.5 3.3125 -3.8125q2.171875 -1.328125 5.078125 -1.328125q4.046875 0 6.328125 1.9375q2.28125 1.921875 2.703125 5.609375l-4.5625 0q-0.3125 -1.953125 -1.390625 -2.859375q-1.0625 -0.90625 -2.9375 -0.90625q-2.390625 0 -3.640625 1.796875q-1.25 1.796875 -1.265625 5.34375l0 1.453125q0 3.578125 1.359375 5.40625q1.359375 1.828125 3.984375 1.828125q2.640625 0 3.765625 -1.125l0 -3.921875l-4.265625 0l0 -3.453125l8.953125 0l0 9.078125zm8.78125 2.875l-4.6875 0l0 -22.75l4.6875 0l0 22.75zm22.203125 -7.578125q-0.265625 3.671875 -2.71875 5.78125q-2.4375 2.109375 -6.4375 2.109375q-4.375 0 -6.890625 -2.9375q-2.5 -2.953125 -2.5 -8.09375l0 -1.390625q0 -3.28125 1.15625 -5.78125q1.15625 -2.5 3.296875 -3.828125q2.15625 -1.34375 5.0 -1.34375q3.9375 0 6.34375 2.109375q2.40625 2.109375 2.78125 5.921875l-4.6875 0q-0.171875 -2.203125 -1.234375 -3.1875q-1.046875 -1.0 -3.203125 -1.0q-2.34375 0 -3.515625 1.6875q-1.15625 1.671875 -1.1875 5.203125l0 1.71875q0 3.6875 1.109375 5.390625q1.125 1.703125 3.53125 1.703125q2.171875 0 3.234375 -0.984375q1.078125 -1.0 1.234375 -3.078125l4.6875 0z" fill-rule="nonzero"/><path fill="#666666" d="m145.96315 67.93132l16.360657 0l0 -5.224392l10.4487915 10.448788l-10.4487915 10.448784l0 -5.224388l-16.360657 0z" fill-rule="evenodd"/><path stroke="#ffffff" stroke-width="1.0" stroke-linejoin="round" stroke-linecap="butt" d="m145.96315 67.93132l16.360657 0l0 -5.224392l10.4487915 10.448788l-10.4487915 10.448784l0 -5.224388l-16.360657 0z" fill-rule="evenodd"/><path fill="#ffffff" d="m302.94498 7.8790226l118.45987 0l0 130.55707l-118.45987 0z" fill-rule="evenodd"/><path stroke="#595959" stroke-width="1.0" stroke-linejoin="round" stroke-linecap="butt" d="m302.94498 7.8790226l118.45987 0l0 130.55707l-118.45987 0z" fill-rule="evenodd"/><path fill="#666666" d="m307.125 11.413022l110.01575 0l0 23.113987l-110.01575 0z" fill-rule="evenodd"/><path fill="#b4b5b1" d="m307.1205 38.593906l110.01575 0l0 95.748886l-110.01575 0z" fill-rule="evenodd"/><path fill="#ffffff" d="m352.73776 68.32898q0 3.359375 -1.1875 5.890625q-1.1875 2.53125 -3.40625 3.90625q-2.203125 1.375 -5.0625 1.375q-2.828125 0 -5.046875 -1.359375q-2.21875 -1.359375 -3.4375 -3.875q-1.21875 -2.53125 -1.234375 -5.8125l0 -1.125q0 -3.3593788 1.203125 -5.906254q1.21875 -2.5625 3.421875 -3.921875q2.21875 -1.375 5.0625 -1.375q2.84375 0 5.046875 1.375q2.21875 1.359375 3.421875 3.921875q1.21875 2.546875 1.21875 5.890629l0 1.015625zm-4.75 -1.03125q0 -3.5781288 -1.28125 -5.437504q-1.28125 -1.859375 -3.65625 -1.859375q-2.359375 0 -3.640625 1.84375q-1.28125 1.828125 -1.296875 5.375004l0 1.109375q0 3.484375 1.28125 5.40625q1.28125 1.921875 3.6875 1.921875q2.359375 0 3.625 -1.84375q1.265625 -1.859375 1.28125 -5.40625l0 -1.109375zm12.84375 8.125l9.953125 0l0 3.765625l-14.640625 0l0 -22.750004l4.6875 0l0 18.984379zm12.640625 3.765625l0 -22.750004l7.0 0q3.0 0 5.359375 1.359375q2.375 1.34375 3.703125 3.84375q1.328125 2.4843788 1.328125 5.656254l0 1.046875q0 3.171875 -1.3125 5.640625q-1.296875 2.46875 -3.671875 3.828125q-2.375 1.359375 -5.359375 1.375l-7.046875 0zm4.6875 -18.953129l0 15.187504l2.265625 0q2.75 0 4.203125 -1.796875q1.453125 -1.796875 1.484375 -5.140625l0 -1.203125q0 -3.4687538 -1.4375 -5.250004q-1.4375 -1.796875 -4.203125 -1.796875l-2.3125 0z" fill-rule="nonzero"/><path fill="#ffffff" d="m323.60495 113.42273l9.953125 0l0 3.765625l-14.640625 0l0 -22.75l4.6875 0l0 18.984375zm30.328125 -7.09375q0 3.359375 -1.1875 5.890625q-1.1875 2.53125 -3.40625 3.90625q-2.203125 1.375 -5.0625 1.375q-2.828125 0 -5.046875 -1.359375q-2.21875 -1.359375 -3.4375 -3.875q-1.21875 -2.53125 -1.234375 -5.8125l0 -1.125q0 -3.359375 1.203125 -5.90625q1.21875 -2.5625 3.421875 -3.921875q2.21875 -1.375 5.0625 -1.375q2.84375 0 5.046875 1.375q2.21875 1.359375 3.421875 3.921875q1.21875 2.546875 1.21875 5.890625l0 1.015625zm-4.75 -1.03125q0 -3.578125 -1.28125 -5.4375q-1.28125 -1.859375 -3.65625 -1.859375q-2.359375 0 -3.640625 1.84375q-1.28125 1.828125 -1.296875 5.375l0 1.109375q0 3.484375 1.28125 5.40625q1.28125 1.921875 3.6875 1.921875q2.359375 0 3.625 -1.84375q1.265625 -1.859375 1.28125 -5.40625l0 -1.109375zm26.15625 9.015625q-1.265625 1.515625 -3.578125 2.359375q-2.3125 0.828125 -5.125 0.828125q-2.953125 0 -5.1875 -1.28125q-2.21875 -1.296875 -3.4375 -3.75q-1.203125 -2.453125 -1.234375 -5.765625l0 -1.546875q0 -3.40625 1.140625 -5.890625q1.15625 -2.5 3.3125 -3.8125q2.171875 -1.328125 5.078125 -1.328125q4.046875 0 6.328125 1.9375q2.28125 1.921875 2.703125 5.609375l-4.5625 0q-0.3125 -1.953125 -1.390625 -2.859375q-1.0625 -0.90625 -2.9375 -0.90625q-2.390625 0 -3.640625 1.796875q-1.25 1.796875 -1.265625 5.34375l0 1.453125q0 3.578125 1.359375 5.40625q1.359375 1.828125 3.984375 1.828125q2.640625 0 3.765625 -1.125l0 -3.921875l-4.265625 0l0 -3.453125l8.953125 0l0 9.078125zm8.78125 2.875l-4.6875 0l0 -22.75l4.6875 0l0 22.75zm22.203125 -7.578125q-0.265625 3.671875 -2.71875 5.78125q-2.4375 2.109375 -6.4375 2.109375q-4.375 0 -6.890625 -2.9375q-2.5 -2.953125 -2.5 -8.09375l0 -1.390625q0 -3.28125 1.15625 -5.78125q1.15625 -2.5 3.296875 -3.828125q2.15625 -1.34375 5.0 -1.34375q3.9375 0 6.34375 2.109375q2.40625 2.109375 2.78125 5.921875l-4.6875 0q-0.171875 -2.203125 -1.234375 -3.1875q-1.046875 -1.0 -3.203125 -1.0q-2.34375 0 -3.515625 1.6875q-1.15625 1.671875 -1.1875 5.203125l0 1.71875q0 3.6875 1.109375 5.390625q1.125 1.703125 3.53125 1.703125q2.171875 0 3.234375 -0.984375q1.078125 -1.0 1.234375 -3.078125l4.6875 0z" fill-rule="nonzero"/><path fill="#666666" d="m283.27863 67.93132l16.360657 0l0 -5.224392l10.4487915 10.448788l-10.4487915 10.448784l0 -5.224388l-16.360657 0z" fill-rule="evenodd"/><path stroke="#ffffff" stroke-width="1.0" stroke-linejoin="round" stroke-linecap="butt" d="m283.27863 67.93132l16.360657 0l0 -5.224392l10.4487915 10.448788l-10.4487915 10.448784l0 -5.224388l-16.360657 0z" fill-rule="evenodd"/><path fill="#ffffff" d="m440.26047 7.8790226l118.45987 0l0 130.55707l-118.45987 0z" fill-rule="evenodd"/><path stroke="#595959" stroke-width="1.0" stroke-linejoin="round" stroke-linecap="butt" d="m440.26047 7.8790226l118.45987 0l0 130.55707l-118.45987 0z" fill-rule="evenodd"/><path fill="#666666" d="m444.4405 11.413022l110.01575 0l0 23.113987l-110.01575 0z" fill-rule="evenodd"/><path fill="#b4b5b1" d="m444.43597 38.593906l110.01575 0l0 95.748886l-110.01575 0z" fill-rule="evenodd"/><path fill="#ffffff" d="m490.05322 68.32898q0 3.359375 -1.1875 5.890625q-1.1875 2.53125 -3.40625 3.90625q-2.203125 1.375 -5.0625 1.375q-2.828125 0 -5.046875 -1.359375q-2.21875 -1.359375 -3.4375 -3.875q-1.21875 -2.53125 -1.234375 -5.8125l0 -1.125q0 -3.3593788 1.203125 -5.906254q1.21875 -2.5625 3.421875 -3.921875q2.21875 -1.375 5.0625 -1.375q2.84375 0 5.046875 1.375q2.21875 1.359375 3.421875 3.921875q1.21875 2.546875 1.21875 5.890629l0 1.015625zm-4.75 -1.03125q0 -3.5781288 -1.28125 -5.437504q-1.28125 -1.859375 -3.65625 -1.859375q-2.359375 0 -3.640625 1.84375q-1.28125 1.828125 -1.296875 5.375004l0 1.109375q0 3.484375 1.28125 5.40625q1.28125 1.921875 3.6875 1.921875q2.359375 0 3.625 -1.84375q1.265625 -1.859375 1.28125 -5.40625l0 -1.109375zm12.84375 8.125l9.953125 0l0 3.765625l-14.640625 0l0 -22.750004l4.6875 0l0 18.984379zm12.640625 3.765625l0 -22.750004l7.0 0q3.0 0 5.359375 1.359375q2.375 1.34375 3.703125 3.84375q1.328125 2.4843788 1.328125 5.656254l0 1.046875q0 3.171875 -1.3125 5.640625q-1.296875 2.46875 -3.671875 3.828125q-2.375 1.359375 -5.359375 1.375l-7.046875 0zm4.6875 -18.953129l0 15.187504l2.265625 0q2.75 0 4.203125 -1.796875q1.453125 -1.796875 1.484375 -5.140625l0 -1.203125q0 -3.4687538 -1.4375 -5.250004q-1.4375 -1.796875 -4.203125 -1.796875l-2.3125 0z" fill-rule="nonzero"/><path fill="#ffffff" d="m460.9204 113.42273l9.953125 0l0 3.765625l-14.640625 0l0 -22.75l4.6875 0l0 18.984375zm30.328125 -7.09375q0 3.359375 -1.1875 5.890625q-1.1875 2.53125 -3.40625 3.90625q-2.203125 1.375 -5.0625 1.375q-2.828125 0 -5.046875 -1.359375q-2.21875 -1.359375 -3.4375 -3.875q-1.21875 -2.53125 -1.234375 -5.8125l0 -1.125q0 -3.359375 1.203125 -5.90625q1.21875 -2.5625 3.421875 -3.921875q2.21875 -1.375 5.0625 -1.375q2.84375 0 5.046875 1.375q2.21875 1.359375 3.421875 3.921875q1.21875 2.546875 1.21875 5.890625l0 1.015625zm-4.75 -1.03125q0 -3.578125 -1.28125 -5.4375q-1.28125 -1.859375 -3.65625 -1.859375q-2.359375 0 -3.640625 1.84375q-1.28125 1.828125 -1.296875 5.375l0 1.109375q0 3.484375 1.28125 5.40625q1.28125 1.921875 3.6875 1.921875q2.359375 0 3.625 -1.84375q1.265625 -1.859375 1.28125 -5.40625l0 -1.109375zm26.15625 9.015625q-1.265625 1.515625 -3.578125 2.359375q-2.3125 0.828125 -5.125 0.828125q-2.953125 0 -5.1875 -1.28125q-2.21875 -1.296875 -3.4375 -3.75q-1.203125 -2.453125 -1.234375 -5.765625l0 -1.546875q0 -3.40625 1.140625 -5.890625q1.15625 -2.5 3.3125 -3.8125q2.171875 -1.328125 5.078125 -1.328125q4.046875 0 6.328125 1.9375q2.28125 1.921875 2.703125 5.609375l-4.5625 0q-0.3125 -1.953125 -1.390625 -2.859375q-1.0625 -0.90625 -2.9375 -0.90625q-2.390625 0 -3.640625 1.796875q-1.25 1.796875 -1.265625 5.34375l0 1.453125q0 3.578125 1.359375 5.40625q1.359375 1.828125 3.984375 1.828125q2.640625 0 3.765625 -1.125l0 -3.921875l-4.265625 0l0 -3.453125l8.953125 0l0 9.078125zm8.78125 2.875l-4.6875 0l0 -22.75l4.6875 0l0 22.75zm22.203125 -7.578125q-0.265625 3.671875 -2.71875 5.78125q-2.4375 2.109375 -6.4375 2.109375q-4.375 0 -6.890625 -2.9375q-2.5 -2.953125 -2.5 -8.09375l0 -1.390625q0 -3.28125 1.15625 -5.78125q1.15625 -2.5 3.296875 -3.828125q2.15625 -1.34375 5.0 -1.34375q3.9375 0 6.34375 2.109375q2.40625 2.109375 2.78125 5.921875l-4.6875 0q-0.171875 -2.203125 -1.234375 -3.1875q-1.046875 -1.0 -3.203125 -1.0q-2.34375 0 -3.515625 1.6875q-1.15625 1.671875 -1.1875 5.203125l0 1.71875q0 3.6875 1.109375 5.390625q1.125 1.703125 3.53125 1.703125q2.171875 0 3.234375 -0.984375q1.078125 -1.0 1.234375 -3.078125l4.6875 0z" fill-rule="nonzero"/><path fill="#666666" d="m420.59412 67.93132l16.360657 0l0 -5.224392l10.4487915 10.448788l-10.4487915 10.448784l0 -5.224388l-16.360657 0z" fill-rule="evenodd"/><path stroke="#ffffff" stroke-width="1.0" stroke-linejoin="round" stroke-linecap="butt" d="m420.59412 67.93132l16.360657 0l0 -5.224392l10.4487915 10.448788l-10.4487915 10.448784l0 -5.224388l-16.360657 0z" fill-rule="evenodd"/><path fill="#ffffff" d="m577.576 7.8790226l118.45984 0l0 130.55707l-118.45984 0z" fill-rule="evenodd"/><path stroke="#595959" stroke-width="1.0" stroke-linejoin="round" stroke-linecap="butt" d="m577.576 7.8790226l118.45984 0l0 130.55707l-118.45984 0z" fill-rule="evenodd"/><path fill="#666666" d="m581.756 11.413022l110.01575 0l0 23.113987l-110.01575 0z" fill-rule="evenodd"/><path fill="#b4b5b1" d="m581.75146 38.593906l110.01575 0l0 95.748886l-110.01575 0z" fill-rule="evenodd"/><path fill="#ffffff" d="m627.3687 68.32898q0 3.359375 -1.1875 5.890625q-1.1875 2.53125 -3.40625 3.90625q-2.203125 1.375 -5.0625 1.375q-2.828125 0 -5.046875 -1.359375q-2.21875 -1.359375 -3.4375 -3.875q-1.21875 -2.53125 -1.234375 -5.8125l0 -1.125q0 -3.3593788 1.203125 -5.906254q1.21875 -2.5625 3.421875 -3.921875q2.21875 -1.375 5.0625 -1.375q2.84375 0 5.046875 1.375q2.21875 1.359375 3.421875 3.921875q1.21875 2.546875 1.21875 5.890629l0 1.015625zm-4.75 -1.03125q0 -3.5781288 -1.28125 -5.437504q-1.28125 -1.859375 -3.65625 -1.859375q-2.359375 0 -3.640625 1.84375q-1.28125 1.828125 -1.296875 5.375004l0 1.109375q0 3.484375 1.28125 5.40625q1.28125 1.921875 3.6875 1.921875q2.359375 0 3.625 -1.84375q1.265625 -1.859375 1.28125 -5.40625l0 -1.109375zm12.84375 8.125l9.953125 0l0 3.765625l-14.640625 0l0 -22.750004l4.6875 0l0 18.984379zm12.640625 3.765625l0 -22.750004l7.0 0q3.0 0 5.359375 1.359375q2.375 1.34375 3.703125 3.84375q1.328125 2.4843788 1.328125 5.656254l0 1.046875q0 3.171875 -1.3125 5.640625q-1.296875 2.46875 -3.671875 3.828125q-2.375 1.359375 -5.359375 1.375l-7.046875 0zm4.6875 -18.953129l0 15.187504l2.265625 0q2.75 0 4.203125 -1.796875q1.453125 -1.796875 1.484375 -5.140625l0 -1.203125q0 -3.4687538 -1.4375 -5.250004q-1.4375 -1.796875 -4.203125 -1.796875l-2.3125 0z" fill-rule="nonzero"/><path fill="#ffffff" d="m598.2359 113.42273l9.953125 0l0 3.765625l-14.640625 0l0 -22.75l4.6875 0l0 18.984375zm30.328125 -7.09375q0 3.359375 -1.1875 5.890625q-1.1875 2.53125 -3.40625 3.90625q-2.203125 1.375 -5.0625 1.375q-2.828125 0 -5.046875 -1.359375q-2.21875 -1.359375 -3.4375 -3.875q-1.21875 -2.53125 -1.234375 -5.8125l0 -1.125q0 -3.359375 1.203125 -5.90625q1.21875 -2.5625 3.421875 -3.921875q2.21875 -1.375 5.0625 -1.375q2.84375 0 5.046875 1.375q2.21875 1.359375 3.421875 3.921875q1.21875 2.546875 1.21875 5.890625l0 1.015625zm-4.75 -1.03125q0 -3.578125 -1.28125 -5.4375q-1.28125 -1.859375 -3.65625 -1.859375q-2.359375 0 -3.640625 1.84375q-1.28125 1.828125 -1.296875 5.375l0 1.109375q0 3.484375 1.28125 5.40625q1.28125 1.921875 3.6875 1.921875q2.359375 0 3.625 -1.84375q1.265625 -1.859375 1.28125 -5.40625l0 -1.109375zm26.15625 9.015625q-1.265625 1.515625 -3.578125 2.359375q-2.3125 0.828125 -5.125 0.828125q-2.953125 0 -5.1875 -1.28125q-2.21875 -1.296875 -3.4375 -3.75q-1.203125 -2.453125 -1.234375 -5.765625l0 -1.546875q0 -3.40625 1.140625 -5.890625q1.15625 -2.5 3.3125 -3.8125q2.171875 -1.328125 5.078125 -1.328125q4.046875 0 6.328125 1.9375q2.28125 1.921875 2.703125 5.609375l-4.5625 0q-0.3125 -1.953125 -1.390625 -2.859375q-1.0625 -0.90625 -2.9375 -0.90625q-2.390625 0 -3.640625 1.796875q-1.25 1.796875 -1.265625 5.34375l0 1.453125q0 3.578125 1.359375 5.40625q1.359375 1.828125 3.984375 1.828125q2.640625 0 3.765625 -1.125l0 -3.921875l-4.265625 0l0 -3.453125l8.953125 0l0 9.078125zm8.78125 2.875l-4.6875 0l0 -22.75l4.6875 0l0 22.75zm22.203125 -7.578125q-0.265625 3.671875 -2.71875 5.78125q-2.4375 2.109375 -6.4375 2.109375q-4.375 0 -6.890625 -2.9375q-2.5 -2.953125 -2.5 -8.09375l0 -1.390625q0 -3.28125 1.15625 -5.78125q1.15625 -2.5 3.296875 -3.828125q2.15625 -1.34375 5.0 -1.34375q3.9375 0 6.34375 2.109375q2.40625 2.109375 2.78125 5.921875l-4.6875 0q-0.171875 -2.203125 -1.234375 -3.1875q-1.046875 -1.0 -3.203125 -1.0q-2.34375 0 -3.515625 1.6875q-1.15625 1.671875 -1.1875 5.203125l0 1.71875q0 3.6875 1.109375 5.390625q1.125 1.703125 3.53125 1.703125q2.171875 0 3.234375 -0.984375q1.078125 -1.0 1.234375 -3.078125l4.6875 0z" fill-rule="nonzero"/><path fill="#666666" d="m557.9096 67.93132l16.360657 0l0 -5.224392l10.4487915 10.448788l-10.4487915 10.448784l0 -5.224388l-16.360657 0z" fill-rule="evenodd"/><path stroke="#ffffff" stroke-width="1.0" stroke-linejoin="round" stroke-linecap="butt" d="m557.9096 67.93132l16.360657 0l0 -5.224392l10.4487915 10.448788l-10.4487915 10.448784l0 -5.224388l-16.360657 0z" fill-rule="evenodd"/><path fill="#ffffff" d="m714.8914 7.8790226l118.4599 0l0 130.55707l-118.4599 0z" fill-rule="evenodd"/><path stroke="#595959" stroke-width="1.0" stroke-linejoin="round" stroke-linecap="butt" d="m714.8914 7.8790226l118.4599 0l0 130.55707l-118.4599 0z" fill-rule="evenodd"/><path fill="#666666" d="m719.0715 11.413022l110.01575 0l0 23.113987l-110.01575 0z" fill-rule="evenodd"/><path fill="#b4b5b1" d="m719.06696 38.593906l110.01575 0l0 95.748886l-110.01575 0z" fill-rule="evenodd"/><path fill="#ffffff" d="m764.6842 68.32898q0 3.359375 -1.1875 5.890625q-1.1875 2.53125 -3.40625 3.90625q-2.203125 1.375 -5.0625 1.375q-2.828125 0 -5.046875 -1.359375q-2.21875 -1.359375 -3.4375 -3.875q-1.21875 -2.53125 -1.234375 -5.8125l0 -1.125q0 -3.3593788 1.203125 -5.906254q1.21875 -2.5625 3.421875 -3.921875q2.21875 -1.375 5.0625 -1.375q2.84375 0 5.046875 1.375q2.21875 1.359375 3.421875 3.921875q1.21875 2.546875 1.21875 5.890629l0 1.015625zm-4.75 -1.03125q0 -3.5781288 -1.28125 -5.437504q-1.28125 -1.859375 -3.65625 -1.859375q-2.359375 0 -3.640625 1.84375q-1.28125 1.828125 -1.296875 5.375004l0 1.109375q0 3.484375 1.28125 5.40625q1.28125 1.921875 3.6875 1.921875q2.359375 0 3.625 -1.84375q1.265625 -1.859375 1.28125 -5.40625l0 -1.109375zm12.84375 8.125l9.953125 0l0 3.765625l-14.640625 0l0 -22.750004l4.6875 0l0 18.984379zm12.640625 3.765625l0 -22.750004l7.0 0q3.0 0 5.359375 1.359375q2.375 1.34375 3.703125 3.84375q1.328125 2.4843788 1.328125 5.656254l0 1.046875q0 3.171875 -1.3125 5.640625q-1.296875 2.46875 -3.671875 3.828125q-2.375 1.359375 -5.359375 1.375l-7.046875 0zm4.6875 -18.953129l0 15.187504l2.265625 0q2.75 0 4.203125 -1.796875q1.453125 -1.796875 1.484375 -5.140625l0 -1.203125q0 -3.4687538 -1.4375 -5.250004q-1.4375 -1.796875 -4.203125 -1.796875l-2.3125 0z" fill-rule="nonzero"/><path fill="#ffffff" d="m735.5514 113.42273l9.953125 0l0 3.765625l-14.640625 0l0 -22.75l4.6875 0l0 18.984375zm30.328125 -7.09375q0 3.359375 -1.1875 5.890625q-1.1875 2.53125 -3.40625 3.90625q-2.203125 1.375 -5.0625 1.375q-2.828125 0 -5.046875 -1.359375q-2.21875 -1.359375 -3.4375 -3.875q-1.21875 -2.53125 -1.234375 -5.8125l0 -1.125q0 -3.359375 1.203125 -5.90625q1.21875 -2.5625 3.421875 -3.921875q2.21875 -1.375 5.0625 -1.375q2.84375 0 5.046875 1.375q2.21875 1.359375 3.421875 3.921875q1.21875 2.546875 1.21875 5.890625l0 1.015625zm-4.75 -1.03125q0 -3.578125 -1.28125 -5.4375q-1.28125 -1.859375 -3.65625 -1.859375q-2.359375 0 -3.640625 1.84375q-1.28125 1.828125 -1.296875 5.375l0 1.109375q0 3.484375 1.28125 5.40625q1.28125 1.921875 3.6875 1.921875q2.359375 0 3.625 -1.84375q1.265625 -1.859375 1.28125 -5.40625l0 -1.109375zm26.15625 9.015625q-1.265625 1.515625 -3.578125 2.359375q-2.3125 0.828125 -5.125 0.828125q-2.953125 0 -5.1875 -1.28125q-2.21875 -1.296875 -3.4375 -3.75q-1.203125 -2.453125 -1.234375 -5.765625l0 -1.546875q0 -3.40625 1.140625 -5.890625q1.15625 -2.5 3.3125 -3.8125q2.171875 -1.328125 5.078125 -1.328125q4.046875 0 6.328125 1.9375q2.28125 1.921875 2.703125 5.609375l-4.5625 0q-0.3125 -1.953125 -1.390625 -2.859375q-1.0625 -0.90625 -2.9375 -0.90625q-2.390625 0 -3.640625 1.796875q-1.25 1.796875 -1.265625 5.34375l0 1.453125q0 3.578125 1.359375 5.40625q1.359375 1.828125 3.984375 1.828125q2.640625 0 3.765625 -1.125l0 -3.921875l-4.265625 0l0 -3.453125l8.953125 0l0 9.078125zm8.78125 2.875l-4.6875 0l0 -22.75l4.6875 0l0 22.75zm22.203125 -7.578125q-0.265625 3.671875 -2.71875 5.78125q-2.4375 2.109375 -6.4375 2.109375q-4.375 0 -6.890625 -2.9375q-2.5 -2.953125 -2.5 -8.09375l0 -1.390625q0 -3.28125 1.15625 -5.78125q1.15625 -2.5 3.296875 -3.828125q2.15625 -1.34375 5.0 -1.34375q3.9375 0 6.34375 2.109375q2.40625 2.109375 2.78125 5.921875l-4.6875 0q-0.171875 -2.203125 -1.234375 -3.1875q-1.046875 -1.0 -3.203125 -1.0q-2.34375 0 -3.515625 1.6875q-1.15625 1.671875 -1.1875 5.203125l0 1.71875q0 3.6875 1.109375 5.390625q1.125 1.703125 3.53125 1.703125q2.171875 0 3.234375 -0.984375q1.078125 -1.0 1.234375 -3.078125l4.6875 0z" fill-rule="nonzero"/><path fill="#666666" d="m695.2251 67.93132l16.360657 0l0 -5.224392l10.4487915 10.448788l-10.4487915 10.448784l0 -5.224388l-16.360657 0z" fill-rule="evenodd"/><path stroke="#ffffff" stroke-width="1.0" stroke-linejoin="round" stroke-linecap="butt" d="m695.2251 67.93132l16.360657 0l0 -5.224392l10.4487915 10.448788l-10.4487915 10.448784l0 -5.224388l-16.360657 0z" fill-rule="evenodd"/><path fill="#ffffff" d="m302.94498 193.56406l118.45987 0l0 130.55707l-118.45987 0z" fill-rule="evenodd"/><path stroke="#595959" stroke-width="1.0" stroke-linejoin="round" stroke-linecap="butt" d="m302.94498 193.56406l118.45987 0l0 130.55707l-118.45987 0z" fill-rule="evenodd"/><path fill="#ff1864" d="m307.125 197.09807l110.01575 0l0 23.113983l-110.01575 0z" fill-rule="evenodd"/><path fill="#b4b5b1" d="m307.1205 224.27895l110.01575 0l0 95.748886l-110.01575 0z" fill-rule="evenodd"/><path fill="#ffffff" d="m348.37057 264.87338l-4.6875 0l-9.125 -14.968735l0 14.968735l-4.6875 0l0 -22.749985l4.6875 0l9.140625 14.999985l0 -14.999985l4.671875 0l0 22.749985zm17.78125 -9.85936l-9.0 0l0 6.0937347l10.5625 0l0 3.765625l-15.25 0l0 -22.749985l15.21875 0l0 3.796875l-10.53125 0l0 5.421875l9.0 0l0 3.671875zm22.03125 3.2968597l3.0625 -16.187485l4.671875 0l-5.046875 22.749985l-4.71875 0l-3.703125 -15.218735l-3.703125 15.218735l-4.71875 0l-5.046875 -22.749985l4.671875 0l3.078125 16.156235l3.75 -16.156235l3.96875 0l3.734375 16.187485z" fill-rule="nonzero"/><path fill="#ffffff" d="m323.60495 299.10776l9.953125 0l0 3.765625l-14.640625 0l0 -22.75l4.6875 0l0 18.984375zm30.328125 -7.09375q0 3.359375 -1.1875 5.890625q-1.1875 2.53125 -3.40625 3.90625q-2.203125 1.375 -5.0625 1.375q-2.828125 0 -5.046875 -1.359375q-2.21875 -1.359375 -3.4375 -3.875q-1.21875 -2.53125 -1.234375 -5.8125l0 -1.125q0 -3.359375 1.203125 -5.90625q1.21875 -2.5625 3.421875 -3.921875q2.21875 -1.375 5.0625 -1.375q2.84375 0 5.046875 1.375q2.21875 1.359375 3.421875 3.921875q1.21875 2.546875 1.21875 5.890625l0 1.015625zm-4.75 -1.03125q0 -3.578125 -1.28125 -5.4375q-1.28125 -1.859375 -3.65625 -1.859375q-2.359375 0 -3.640625 1.84375q-1.28125 1.828125 -1.296875 5.375l0 1.109375q0 3.484375 1.28125 5.40625q1.28125 1.921875 3.6875 1.921875q2.359375 0 3.625 -1.84375q1.265625 -1.859375 1.28125 -5.40625l0 -1.109375zm26.15625 9.015625q-1.265625 1.515625 -3.578125 2.359375q-2.3125 0.828125 -5.125 0.828125q-2.953125 0 -5.1875 -1.28125q-2.21875 -1.296875 -3.4375 -3.75q-1.203125 -2.453125 -1.234375 -5.765625l0 -1.546875q0 -3.40625 1.140625 -5.890625q1.15625 -2.5 3.3125 -3.8125q2.171875 -1.328125 5.078125 -1.328125q4.046875 0 6.328125 1.9375q2.28125 1.921875 2.703125 5.609375l-4.5625 0q-0.3125 -1.953125 -1.390625 -2.859375q-1.0625 -0.90625 -2.9375 -0.90625q-2.390625 0 -3.640625 1.796875q-1.25 1.796875 -1.265625 5.34375l0 1.453125q0 3.578125 1.359375 5.40625q1.359375 1.828125 3.984375 1.828125q2.640625 0 3.765625 -1.125l0 -3.921875l-4.265625 0l0 -3.453125l8.953125 0l0 9.078125zm8.78125 2.875l-4.6875 0l0 -22.75l4.6875 0l0 22.75zm22.203125 -7.578125q-0.265625 3.671875 -2.71875 5.78125q-2.4375 2.109375 -6.4375 2.109375q-4.375 0 -6.890625 -2.9375q-2.5 -2.953125 -2.5 -8.09375l0 -1.390625q0 -3.28125 1.15625 -5.78125q1.15625 -2.5 3.296875 -3.828125q2.15625 -1.34375 5.0 -1.34375q3.9375 0 6.34375 2.109375q2.40625 2.109375 2.78125 5.921875l-4.6875 0q-0.171875 -2.203125 -1.234375 -3.1875q-1.046875 -1.0 -3.203125 -1.0q-2.34375 0 -3.515625 1.6875q-1.15625 1.671875 -1.1875 5.203125l0 1.71875q0 3.6875 1.109375 5.390625q1.125 1.703125 3.53125 1.703125q2.171875 0 3.234375 -0.984375q1.078125 -1.0 1.234375 -3.078125l4.6875 0z" fill-rule="nonzero"/><path fill="#ffffff" d="m440.26047 193.56406l118.45987 0l0 130.55707l-118.45987 0z" fill-rule="evenodd"/><path stroke="#595959" stroke-width="1.0" stroke-linejoin="round" stroke-linecap="butt" d="m440.26047 193.56406l118.45987 0l0 130.55707l-118.45987 0z" fill-rule="evenodd"/><path fill="#ff1864" d="m444.4405 197.09807l110.01575 0l0 23.113983l-110.01575 0z" fill-rule="evenodd"/><path fill="#b4b5b1" d="m444.43597 224.27895l110.01575 0l0 95.748886l-110.01575 0z" fill-rule="evenodd"/><path fill="#ffffff" d="m485.68604 264.87338l-4.6875 0l-9.125 -14.968735l0 14.968735l-4.6875 0l0 -22.749985l4.6875 0l9.140625 14.999985l0 -14.999985l4.671875 0l0 22.749985zm17.78125 -9.85936l-9.0 0l0 6.0937347l10.5625 0l0 3.765625l-15.25 0l0 -22.749985l15.21875 0l0 3.796875l-10.53125 0l0 5.421875l9.0 0l0 3.671875zm22.03125 3.2968597l3.0625 -16.187485l4.671875 0l-5.046875 22.749985l-4.71875 0l-3.703125 -15.218735l-3.703125 15.218735l-4.71875 0l-5.046875 -22.749985l4.671875 0l3.078125 16.156235l3.75 -16.156235l3.96875 0l3.734375 16.187485z" fill-rule="nonzero"/><path fill="#ffffff" d="m460.9204 299.10776l9.953125 0l0 3.765625l-14.640625 0l0 -22.75l4.6875 0l0 18.984375zm30.328125 -7.09375q0 3.359375 -1.1875 5.890625q-1.1875 2.53125 -3.40625 3.90625q-2.203125 1.375 -5.0625 1.375q-2.828125 0 -5.046875 -1.359375q-2.21875 -1.359375 -3.4375 -3.875q-1.21875 -2.53125 -1.234375 -5.8125l0 -1.125q0 -3.359375 1.203125 -5.90625q1.21875 -2.5625 3.421875 -3.921875q2.21875 -1.375 5.0625 -1.375q2.84375 0 5.046875 1.375q2.21875 1.359375 3.421875 3.921875q1.21875 2.546875 1.21875 5.890625l0 1.015625zm-4.75 -1.03125q0 -3.578125 -1.28125 -5.4375q-1.28125 -1.859375 -3.65625 -1.859375q-2.359375 0 -3.640625 1.84375q-1.28125 1.828125 -1.296875 5.375l0 1.109375q0 3.484375 1.28125 5.40625q1.28125 1.921875 3.6875 1.921875q2.359375 0 3.625 -1.84375q1.265625 -1.859375 1.28125 -5.40625l0 -1.109375zm26.15625 9.015625q-1.265625 1.515625 -3.578125 2.359375q-2.3125 0.828125 -5.125 0.828125q-2.953125 0 -5.1875 -1.28125q-2.21875 -1.296875 -3.4375 -3.75q-1.203125 -2.453125 -1.234375 -5.765625l0 -1.546875q0 -3.40625 1.140625 -5.890625q1.15625 -2.5 3.3125 -3.8125q2.171875 -1.328125 5.078125 -1.328125q4.046875 0 6.328125 1.9375q2.28125 1.921875 2.703125 5.609375l-4.5625 0q-0.3125 -1.953125 -1.390625 -2.859375q-1.0625 -0.90625 -2.9375 -0.90625q-2.390625 0 -3.640625 1.796875q-1.25 1.796875 -1.265625 5.34375l0 1.453125q0 3.578125 1.359375 5.40625q1.359375 1.828125 3.984375 1.828125q2.640625 0 3.765625 -1.125l0 -3.921875l-4.265625 0l0 -3.453125l8.953125 0l0 9.078125zm8.78125 2.875l-4.6875 0l0 -22.75l4.6875 0l0 22.75zm22.203125 -7.578125q-0.265625 3.671875 -2.71875 5.78125q-2.4375 2.109375 -6.4375 2.109375q-4.375 0 -6.890625 -2.9375q-2.5 -2.953125 -2.5 -8.09375l0 -1.390625q0 -3.28125 1.15625 -5.78125q1.15625 -2.5 3.296875 -3.828125q2.15625 -1.34375 5.0 -1.34375q3.9375 0 6.34375 2.109375q2.40625 2.109375 2.78125 5.921875l-4.6875 0q-0.171875 -2.203125 -1.234375 -3.1875q-1.046875 -1.0 -3.203125 -1.0q-2.34375 0 -3.515625 1.6875q-1.15625 1.671875 -1.1875 5.203125l0 1.71875q0 3.6875 1.109375 5.390625q1.125 1.703125 3.53125 1.703125q2.171875 0 3.234375 -0.984375q1.078125 -1.0 1.234375 -3.078125l4.6875 0z" fill-rule="nonzero"/><path fill="#ff1864" d="m420.59412 253.61636l16.360657 0l0 -5.2243958l10.4487915 10.4487915l-10.4487915 10.4487915l0 -5.2243958l-16.360657 0z" fill-rule="evenodd"/><path fill="#ffffff" d="m577.576 193.56406l118.45984 0l0 130.55707l-118.45984 0z" fill-rule="evenodd"/><path stroke="#595959" stroke-width="1.0" stroke-linejoin="round" stroke-linecap="butt" d="m577.576 193.56406l118.45984 0l0 130.55707l-118.45984 0z" fill-rule="evenodd"/><path fill="#ff1864" d="m581.756 197.09807l110.01575 0l0 23.113983l-110.01575 0z" fill-rule="evenodd"/><path fill="#b4b5b1" d="m581.75146 224.27895l110.01575 0l0 95.748886l-110.01575 0z" fill-rule="evenodd"/><path fill="#ffffff" d="m623.0015 264.87338l-4.6875 0l-9.125 -14.968735l0 14.968735l-4.6875 0l0 -22.749985l4.6875 0l9.140625 14.999985l0 -14.999985l4.671875 0l0 22.749985zm17.78125 -9.85936l-9.0 0l0 6.0937347l10.5625 0l0 3.765625l-15.25 0l0 -22.749985l15.21875 0l0 3.796875l-10.53125 0l0 5.421875l9.0 0l0 3.671875zm22.03125 3.2968597l3.0625 -16.187485l4.671875 0l-5.046875 22.749985l-4.71875 0l-3.703125 -15.218735l-3.703125 15.218735l-4.71875 0l-5.046875 -22.749985l4.671875 0l3.078125 16.156235l3.75 -16.156235l3.96875 0l3.734375 16.187485z" fill-rule="nonzero"/><path fill="#ffffff" d="m598.2359 299.10776l9.953125 0l0 3.765625l-14.640625 0l0 -22.75l4.6875 0l0 18.984375zm30.328125 -7.09375q0 3.359375 -1.1875 5.890625q-1.1875 2.53125 -3.40625 3.90625q-2.203125 1.375 -5.0625 1.375q-2.828125 0 -5.046875 -1.359375q-2.21875 -1.359375 -3.4375 -3.875q-1.21875 -2.53125 -1.234375 -5.8125l0 -1.125q0 -3.359375 1.203125 -5.90625q1.21875 -2.5625 3.421875 -3.921875q2.21875 -1.375 5.0625 -1.375q2.84375 0 5.046875 1.375q2.21875 1.359375 3.421875 3.921875q1.21875 2.546875 1.21875 5.890625l0 1.015625zm-4.75 -1.03125q0 -3.578125 -1.28125 -5.4375q-1.28125 -1.859375 -3.65625 -1.859375q-2.359375 0 -3.640625 1.84375q-1.28125 1.828125 -1.296875 5.375l0 1.109375q0 3.484375 1.28125 5.40625q1.28125 1.921875 3.6875 1.921875q2.359375 0 3.625 -1.84375q1.265625 -1.859375 1.28125 -5.40625l0 -1.109375zm26.15625 9.015625q-1.265625 1.515625 -3.578125 2.359375q-2.3125 0.828125 -5.125 0.828125q-2.953125 0 -5.1875 -1.28125q-2.21875 -1.296875 -3.4375 -3.75q-1.203125 -2.453125 -1.234375 -5.765625l0 -1.546875q0 -3.40625 1.140625 -5.890625q1.15625 -2.5 3.3125 -3.8125q2.171875 -1.328125 5.078125 -1.328125q4.046875 0 6.328125 1.9375q2.28125 1.921875 2.703125 5.609375l-4.5625 0q-0.3125 -1.953125 -1.390625 -2.859375q-1.0625 -0.90625 -2.9375 -0.90625q-2.390625 0 -3.640625 1.796875q-1.25 1.796875 -1.265625 5.34375l0 1.453125q0 3.578125 1.359375 5.40625q1.359375 1.828125 3.984375 1.828125q2.640625 0 3.765625 -1.125l0 -3.921875l-4.265625 0l0 -3.453125l8.953125 0l0 9.078125zm8.78125 2.875l-4.6875 0l0 -22.75l4.6875 0l0 22.75zm22.203125 -7.578125q-0.265625 3.671875 -2.71875 5.78125q-2.4375 2.109375 -6.4375 2.109375q-4.375 0 -6.890625 -2.9375q-2.5 -2.953125 -2.5 -8.09375l0 -1.390625q0 -3.28125 1.15625 -5.78125q1.15625 -2.5 3.296875 -3.828125q2.15625 -1.34375 5.0 -1.34375q3.9375 0 6.34375 2.109375q2.40625 2.109375 2.78125 5.921875l-4.6875 0q-0.171875 -2.203125 -1.234375 -3.1875q-1.046875 -1.0 -3.203125 -1.0q-2.34375 0 -3.515625 1.6875q-1.15625 1.671875 -1.1875 5.203125l0 1.71875q0 3.6875 1.109375 5.390625q1.125 1.703125 3.53125 1.703125q2.171875 0 3.234375 -0.984375q1.078125 -1.0 1.234375 -3.078125l4.6875 0z" fill-rule="nonzero"/><path fill="#ff1864" d="m557.9096 253.61636l16.360657 0l0 -5.2243958l10.4487915 10.4487915l-10.4487915 10.4487915l0 -5.2243958l-16.360657 0z" fill-rule="evenodd"/><path fill="#ffffff" d="m714.8914 193.56406l118.4599 0l0 130.55707l-118.4599 0z" fill-rule="evenodd"/><path stroke="#595959" stroke-width="1.0" stroke-linejoin="round" stroke-linecap="butt" d="m714.8914 193.56406l118.4599 0l0 130.55707l-118.4599 0z" fill-rule="evenodd"/><path fill="#ff1864" d="m719.0715 197.09807l110.01575 0l0 23.113983l-110.01575 0z" fill-rule="evenodd"/><path fill="#b4b5b1" d="m719.06696 224.27895l110.01575 0l0 95.748886l-110.01575 0z" fill-rule="evenodd"/><path fill="#ffffff" d="m760.317 264.87338l-4.6875 0l-9.125 -14.968735l0 14.968735l-4.6875 0l0 -22.749985l4.6875 0l9.140625 14.999985l0 -14.999985l4.671875 0l0 22.749985zm17.78125 -9.85936l-9.0 0l0 6.0937347l10.5625 0l0 3.765625l-15.25 0l0 -22.749985l15.21875 0l0 3.796875l-10.53125 0l0 5.421875l9.0 0l0 3.671875zm22.03125 3.2968597l3.0625 -16.187485l4.671875 0l-5.046875 22.749985l-4.71875 0l-3.703125 -15.218735l-3.703125 15.218735l-4.71875 0l-5.046875 -22.749985l4.671875 0l3.078125 16.156235l3.75 -16.156235l3.96875 0l3.734375 16.187485z" fill-rule="nonzero"/><path fill="#ffffff" d="m735.5514 299.10776l9.953125 0l0 3.765625l-14.640625 0l0 -22.75l4.6875 0l0 18.984375zm30.328125 -7.09375q0 3.359375 -1.1875 5.890625q-1.1875 2.53125 -3.40625 3.90625q-2.203125 1.375 -5.0625 1.375q-2.828125 0 -5.046875 -1.359375q-2.21875 -1.359375 -3.4375 -3.875q-1.21875 -2.53125 -1.234375 -5.8125l0 -1.125q0 -3.359375 1.203125 -5.90625q1.21875 -2.5625 3.421875 -3.921875q2.21875 -1.375 5.0625 -1.375q2.84375 0 5.046875 1.375q2.21875 1.359375 3.421875 3.921875q1.21875 2.546875 1.21875 5.890625l0 1.015625zm-4.75 -1.03125q0 -3.578125 -1.28125 -5.4375q-1.28125 -1.859375 -3.65625 -1.859375q-2.359375 0 -3.640625 1.84375q-1.28125 1.828125 -1.296875 5.375l0 1.109375q0 3.484375 1.28125 5.40625q1.28125 1.921875 3.6875 1.921875q2.359375 0 3.625 -1.84375q1.265625 -1.859375 1.28125 -5.40625l0 -1.109375zm26.15625 9.015625q-1.265625 1.515625 -3.578125 2.359375q-2.3125 0.828125 -5.125 0.828125q-2.953125 0 -5.1875 -1.28125q-2.21875 -1.296875 -3.4375 -3.75q-1.203125 -2.453125 -1.234375 -5.765625l0 -1.546875q0 -3.40625 1.140625 -5.890625q1.15625 -2.5 3.3125 -3.8125q2.171875 -1.328125 5.078125 -1.328125q4.046875 0 6.328125 1.9375q2.28125 1.921875 2.703125 5.609375l-4.5625 0q-0.3125 -1.953125 -1.390625 -2.859375q-1.0625 -0.90625 -2.9375 -0.90625q-2.390625 0 -3.640625 1.796875q-1.25 1.796875 -1.265625 5.34375l0 1.453125q0 3.578125 1.359375 5.40625q1.359375 1.828125 3.984375 1.828125q2.640625 0 3.765625 -1.125l0 -3.921875l-4.265625 0l0 -3.453125l8.953125 0l0 9.078125zm8.78125 2.875l-4.6875 0l0 -22.75l4.6875 0l0 22.75zm22.203125 -7.578125q-0.265625 3.671875 -2.71875 5.78125q-2.4375 2.109375 -6.4375 2.109375q-4.375 0 -6.890625 -2.9375q-2.5 -2.953125 -2.5 -8.09375l0 -1.390625q0 -3.28125 1.15625 -5.78125q1.15625 -2.5 3.296875 -3.828125q2.15625 -1.34375 5.0 -1.34375q3.9375 0 6.34375 2.109375q2.40625 2.109375 2.78125 5.921875l-4.6875 0q-0.171875 -2.203125 -1.234375 -3.1875q-1.046875 -1.0 -3.203125 -1.0q-2.34375 0 -3.515625 1.6875q-1.15625 1.671875 -1.1875 5.203125l0 1.71875q0 3.6875 1.109375 5.390625q1.125 1.703125 3.53125 1.703125q2.171875 0 3.234375 -0.984375q1.078125 -1.0 1.234375 -3.078125l4.6875 0z" fill-rule="nonzero"/><path fill="#ff1864" d="m695.2251 253.61636l16.360657 0l0 -5.2243958l10.4487915 10.4487915l-10.4487915 10.4487915l0 -5.2243958l-16.360657 0z" fill-rule="evenodd"/><path fill="#ff1864" d="m221.2106 154.44882l0 84.34891c0 16.655106 13.501633 30.156738 30.156738 30.156738l24.321106 0l0 9.242371l15.569397 -16.538147l-15.569397 -16.538147l0 9.242386l-24.321106 0l0 0c-8.59642 0 -15.565201 -6.9687805 -15.565201 -15.565201l0 -84.34891z" fill-rule="evenodd"/><path stroke="#303030" stroke-width="1.0" stroke-linejoin="round" stroke-linecap="butt" d="m221.2106 154.44882l0 84.34891c0 16.655106 13.501633 30.156738 30.156738 30.156738l24.321106 0l0 9.242371l15.569397 -16.538147l-15.569397 -16.538147l0 9.242386l-24.321106 0l0 0c-8.59642 0 -15.565201 -6.9687805 -15.565201 -15.565201l0 -84.34891z" fill-rule="evenodd"/></g></svg>