<svg version="1.1" viewBox="0.0 0.0 892.0 388.0" fill="none" stroke="none" stroke-linecap="square" stroke-miterlimit="10" xmlns:xlink="http://www.w3.org/1999/xlink" xmlns="http://www.w3.org/2000/svg"><clipPath id="p.0"><path d="m0 0l892.0 0l0 388.0l-892.0 0l0 -388.0z" clip-rule="nonzero"/></clipPath><g clip-path="url(#p.0)"><path fill="#000000" fill-opacity="0.0" d="m0 0l892.0 0l0 388.0l-892.0 0z" fill-rule="evenodd"/><path fill="#434343" d="m137.18927 285.05106l24.913391 0l0 24.913391l-24.913391 0z" fill-rule="evenodd"/><path stroke="#434343" stroke-width="1.0" stroke-linejoin="round" stroke-linecap="butt" d="m137.18927 285.05106l24.913391 0l0 24.913391l-24.913391 0z" fill-rule="evenodd"/><path fill="#434343" d="m169.12344 285.05106l24.913391 0l0 24.913391l-24.913391 0z" fill-rule="evenodd"/><path stroke="#434343" stroke-width="1.0" stroke-linejoin="round" stroke-linecap="butt" d="m169.12344 285.05106l24.913391 0l0 24.913391l-24.913391 0z" fill-rule="evenodd"/><path fill="#434343" d="m201.05762 285.05106l24.913391 0l0 24.913391l-24.913391 0z" fill-rule="evenodd"/><path stroke="#434343" stroke-width="1.0" stroke-linejoin="round" stroke-linecap="butt" d="m201.05762 285.05106l24.913391 0l0 24.913391l-24.913391 0z" fill-rule="evenodd"/><path fill="#434343" d="m232.99179 285.05106l24.913391 0l0 24.913391l-24.913391 0z" fill-rule="evenodd"/><path stroke="#434343" stroke-width="1.0" stroke-linejoin="round" stroke-linecap="butt" d="m232.99179 285.05106l24.913391 0l0 24.913391l-24.913391 0z" fill-rule="evenodd"/><path fill="#434343" d="m264.92596 285.05106l24.913391 0l0 24.913391l-24.913391 0z" fill-rule="evenodd"/><path stroke="#434343" stroke-width="1.0" stroke-linejoin="round" stroke-linecap="butt" d="m264.92596 285.05106l24.913391 0l0 24.913391l-24.913391 0z" fill-rule="evenodd"/><path fill="#434343" d="m296.86014 285.05106l24.913391 0l0 24.913391l-24.913391 0z" fill-rule="evenodd"/><path stroke="#434343" stroke-width="1.0" stroke-linejoin="round" stroke-linecap="butt" d="m296.86014 285.05106l24.913391 0l0 24.913391l-24.913391 0z" fill-rule="evenodd"/><path fill="#434343" d="m328.7943 285.05106l24.913391 0l0 24.913391l-24.913391 0z" fill-rule="evenodd"/><path stroke="#434343" stroke-width="1.0" stroke-linejoin="round" stroke-linecap="butt" d="m328.7943 285.05106l24.913391 0l0 24.913391l-24.913391 0z" fill-rule="evenodd"/><path fill="#434343" d="m360.7285 285.05106l24.91336 0l0 24.913391l-24.91336 0z" fill-rule="evenodd"/><path stroke="#434343" stroke-width="1.0" stroke-linejoin="round" stroke-linecap="butt" d="m360.7285 285.05106l24.91336 0l0 24.913391l-24.91336 0z" fill-rule="evenodd"/><path fill="#434343" d="m392.66266 285.05106l24.91336 0l0 24.913391l-24.91336 0z" fill-rule="evenodd"/><path stroke="#434343" stroke-width="1.0" stroke-linejoin="round" stroke-linecap="butt" d="m392.66266 285.05106l24.91336 0l0 24.913391l-24.91336 0z" fill-rule="evenodd"/><path fill="#434343" d="m424.59683 285.05106l24.91336 0l0 24.913391l-24.91336 0z" fill-rule="evenodd"/><path stroke="#434343" stroke-width="1.0" stroke-linejoin="round" stroke-linecap="butt" d="m424.59683 285.05106l24.91336 0l0 24.913391l-24.91336 0z" fill-rule="evenodd"/><path fill="#434343" d="m456.53098 285.05106l24.913391 0l0 24.913391l-24.913391 0z" fill-rule="evenodd"/><path stroke="#434343" stroke-width="1.0" stroke-linejoin="round" stroke-linecap="butt" d="m456.53098 285.05106l24.913391 0l0 24.913391l-24.913391 0z" fill-rule="evenodd"/><path fill="#434343" d="m488.46515 285.05106l24.913391 0l0 24.913391l-24.913391 0z" fill-rule="evenodd"/><path stroke="#434343" stroke-width="1.0" stroke-linejoin="round" stroke-linecap="butt" d="m488.46515 285.05106l24.913391 0l0 24.913391l-24.913391 0z" fill-rule="evenodd"/><path fill="#434343" d="m520.39935 285.05106l24.913391 0l0 24.913391l-24.913391 0z" fill-rule="evenodd"/><path stroke="#434343" stroke-width="1.0" stroke-linejoin="round" stroke-linecap="butt" d="m520.39935 285.05106l24.913391 0l0 24.913391l-24.913391 0z" fill-rule="evenodd"/><path fill="#434343" d="m552.3335 285.05106l24.913391 0l0 24.913391l-24.913391 0z" fill-rule="evenodd"/><path stroke="#434343" stroke-width="1.0" stroke-linejoin="round" stroke-linecap="butt" d="m552.3335 285.05106l24.913391 0l0 24.913391l-24.913391 0z" fill-rule="evenodd"/><path fill="#434343" d="m584.2677 285.05106l24.913391 0l0 24.913391l-24.913391 0z" fill-rule="evenodd"/><path stroke="#434343" stroke-width="1.0" stroke-linejoin="round" stroke-linecap="butt" d="m584.2677 285.05106l24.913391 0l0 24.913391l-24.913391 0z" fill-rule="evenodd"/><path fill="#adadad" d="m616.20184 285.05106l24.913391 0l0 24.913391l-24.913391 0z" fill-rule="evenodd"/><path stroke="#ffffff" stroke-width="1.0" stroke-linejoin="round" stroke-linecap="butt" d="m616.20184 285.05106l24.913391 0l0 24.913391l-24.913391 0z" fill-rule="evenodd"/><path fill="#434343" d="m153.3802 219.75972l24.913376 0l0 24.913376l-24.913376 0z" fill-rule="evenodd"/><path stroke="#434343" stroke-width="1.0" stroke-linejoin="round" stroke-linecap="butt" d="m153.3802 219.75972l24.913376 0l0 24.913376l-24.913376 0z" fill-rule="evenodd"/><path fill="#434343" d="m217.24854 219.75972l24.913391 0l0 24.913376l-24.913391 0z" fill-rule="evenodd"/><path stroke="#434343" stroke-width="1.0" stroke-linejoin="round" stroke-linecap="butt" d="m217.24854 219.75972l24.913391 0l0 24.913376l-24.913391 0z" fill-rule="evenodd"/><path fill="#434343" d="m281.11688 219.75972l24.913391 0l0 24.913376l-24.913391 0z" fill-rule="evenodd"/><path stroke="#434343" stroke-width="1.0" stroke-linejoin="round" stroke-linecap="butt" d="m281.11688 219.75972l24.913391 0l0 24.913376l-24.913391 0z" fill-rule="evenodd"/><path fill="#434343" d="m344.98523 219.75972l24.913391 0l0 24.913376l-24.913391 0z" fill-rule="evenodd"/><path stroke="#434343" stroke-width="1.0" stroke-linejoin="round" stroke-linecap="butt" d="m344.98523 219.75972l24.913391 0l0 24.913376l-24.913391 0z" fill-rule="evenodd"/><path fill="#434343" d="m408.85358 219.75972l24.913391 0l0 24.913376l-24.913391 0z" fill-rule="evenodd"/><path stroke="#434343" stroke-width="1.0" stroke-linejoin="round" stroke-linecap="butt" d="m408.85358 219.75972l24.913391 0l0 24.913376l-24.913391 0z" fill-rule="evenodd"/><path fill="#434343" d="m472.72192 219.75972l24.913391 0l0 24.913376l-24.913391 0z" fill-rule="evenodd"/><path stroke="#434343" stroke-width="1.0" stroke-linejoin="round" stroke-linecap="butt" d="m472.72192 219.75972l24.913391 0l0 24.913376l-24.913391 0z" fill-rule="evenodd"/><path fill="#434343" d="m536.5903 219.75972l24.913391 0l0 24.913376l-24.913391 0z" fill-rule="evenodd"/><path stroke="#434343" stroke-width="1.0" stroke-linejoin="round" stroke-linecap="butt" d="m536.5903 219.75972l24.913391 0l0 24.913376l-24.913391 0z" fill-rule="evenodd"/><path fill="#adadad" d="m600.4586 219.75972l24.913391 0l0 24.913376l-24.913391 0z" fill-rule="evenodd"/><path stroke="#ffffff" stroke-width="1.0" stroke-linejoin="round" stroke-linecap="butt" d="m600.4586 219.75972l24.913391 0l0 24.913376l-24.913391 0z" fill-rule="evenodd"/><path fill="#434343" d="m186.29185 142.65997l24.913376 0l0 24.913391l-24.913376 0z" fill-rule="evenodd"/><path stroke="#434343" stroke-width="1.0" stroke-linejoin="round" stroke-linecap="butt" d="m186.29185 142.65997l24.913376 0l0 24.913391l-24.913376 0z" fill-rule="evenodd"/><path fill="#434343" d="m314.02853 142.65997l24.913391 0l0 24.913391l-24.913391 0z" fill-rule="evenodd"/><path stroke="#434343" stroke-width="1.0" stroke-linejoin="round" stroke-linecap="butt" d="m314.02853 142.65997l24.913391 0l0 24.913391l-24.913391 0z" fill-rule="evenodd"/><path fill="#434343" d="m441.76523 142.65997l24.913391 0l0 24.913391l-24.913391 0z" fill-rule="evenodd"/><path stroke="#434343" stroke-width="1.0" stroke-linejoin="round" stroke-linecap="butt" d="m441.76523 142.65997l24.913391 0l0 24.913391l-24.913391 0z" fill-rule="evenodd"/><path fill="#adadad" d="m569.5019 142.65997l24.913391 0l0 24.913391l-24.913391 0z" fill-rule="evenodd"/><path stroke="#ffffff" stroke-width="1.0" stroke-linejoin="round" stroke-linecap="butt" d="m569.5019 142.65997l24.913391 0l0 24.913391l-24.913391 0z" fill-rule="evenodd"/><path fill="#434343" d="m250.16193 83.91982l24.913391 0l0 24.913383l-24.913391 0z" fill-rule="evenodd"/><path stroke="#434343" stroke-width="1.0" stroke-linejoin="round" stroke-linecap="butt" d="m250.16193 83.91982l24.913391 0l0 24.913383l-24.913391 0z" fill-rule="evenodd"/><path fill="#adadad" d="m505.6353 83.91982l24.913391 0l0 24.913383l-24.913391 0z" fill-rule="evenodd"/><path stroke="#ffffff" stroke-width="1.0" stroke-linejoin="round" stroke-linecap="butt" d="m505.6353 83.91982l24.913391 0l0 24.913383l-24.913391 0z" fill-rule="evenodd"/><path fill="#adadad" d="m380.20602 16.328083l24.913391 0l0 24.913387l-24.913391 0z" fill-rule="evenodd"/><path stroke="#ffffff" stroke-width="1.0" stroke-linejoin="round" stroke-linecap="butt" d="m380.20602 16.328083l24.913391 0l0 24.913387l-24.913391 0z" fill-rule="evenodd"/><path fill="#000000" fill-opacity="0.0" d="m262.61862 83.91982l130.04724 -42.677166" fill-rule="evenodd"/><path stroke="#434343" stroke-width="1.0" stroke-linejoin="round" stroke-linecap="butt" d="m262.61862 83.91982l130.04724 -42.677166" fill-rule="evenodd"/><path fill="#000000" fill-opacity="0.0" d="m505.6353 96.37651l-112.97638 -55.149605" fill-rule="evenodd"/><path stroke="#ffffff" stroke-width="1.0" stroke-linejoin="round" stroke-linecap="butt" d="m500.24344 93.74446l-107.58453 -52.517555" fill-rule="evenodd"/><path fill="#ffffff" stroke="#ffffff" stroke-width="1.0" stroke-linecap="butt" d="m499.51886 95.22879l4.802704 0.50642395l-3.3535767 -3.4750748z" fill-rule="evenodd"/><path fill="#000000" fill-opacity="0.0" d="m198.74854 142.65997l63.874023 -33.826767" fill-rule="evenodd"/><path stroke="#434343" stroke-width="1.0" stroke-linejoin="round" stroke-linecap="butt" d="m198.74854 142.65997l63.874023 -33.826767" fill-rule="evenodd"/><path fill="#000000" fill-opacity="0.0" d="m326.48523 142.65997l-63.874023 -33.826767" fill-rule="evenodd"/><path stroke="#434343" stroke-width="1.0" stroke-linejoin="round" stroke-linecap="butt" d="m326.48523 142.65997l-63.874023 -33.826767" fill-rule="evenodd"/><path fill="#000000" fill-opacity="0.0" d="m165.83688 219.75972l32.91339 -52.18898" fill-rule="evenodd"/><path stroke="#434343" stroke-width="1.0" stroke-linejoin="round" stroke-linecap="butt" d="m165.83688 219.75972l32.91339 -52.18898" fill-rule="evenodd"/><path fill="#000000" fill-opacity="0.0" d="m229.70523 219.75972l-30.960632 -52.18898" fill-rule="evenodd"/><path stroke="#434343" stroke-width="1.0" stroke-linejoin="round" stroke-linecap="butt" d="m229.70523 219.75972l-30.960632 -52.18898" fill-rule="evenodd"/><path fill="#000000" fill-opacity="0.0" d="m293.57358 219.75972l32.91339 -52.18898" fill-rule="evenodd"/><path stroke="#434343" stroke-width="1.0" stroke-linejoin="round" stroke-linecap="butt" d="m293.57358 219.75972l32.91339 -52.18898" fill-rule="evenodd"/><path fill="#000000" fill-opacity="0.0" d="m357.44193 219.75972l-30.960632 -52.18898" fill-rule="evenodd"/><path stroke="#434343" stroke-width="1.0" stroke-linejoin="round" stroke-linecap="butt" d="m357.44193 219.75972l-30.960632 -52.18898" fill-rule="evenodd"/><path fill="#000000" fill-opacity="0.0" d="m421.31027 219.75972l32.91339 -52.18898" fill-rule="evenodd"/><path stroke="#434343" stroke-width="1.0" stroke-linejoin="round" stroke-linecap="butt" d="m421.31027 219.75972l32.91339 -52.18898" fill-rule="evenodd"/><path fill="#000000" fill-opacity="0.0" d="m485.17862 219.75972l-30.960632 -52.18898" fill-rule="evenodd"/><path stroke="#434343" stroke-width="1.0" stroke-linejoin="round" stroke-linecap="butt" d="m485.17862 219.75972l-30.960632 -52.18898" fill-rule="evenodd"/><path fill="#000000" fill-opacity="0.0" d="m549.04694 219.75972l32.91339 -52.18898" fill-rule="evenodd"/><path stroke="#434343" stroke-width="1.0" stroke-linejoin="round" stroke-linecap="butt" d="m549.04694 219.75972l32.91339 -52.18898" fill-rule="evenodd"/><path fill="#000000" fill-opacity="0.0" d="m600.4586 232.21642l-18.48822 -64.62993" fill-rule="evenodd"/><path stroke="#ffffff" stroke-width="1.0" stroke-linejoin="round" stroke-linecap="butt" d="m598.8084 226.4478l-16.837952 -58.861313" fill-rule="evenodd"/><path fill="#ffffff" stroke="#ffffff" stroke-width="1.0" stroke-linecap="butt" d="m597.2204 226.90207l2.8361816 3.9088135l0.3399048 -4.8173523z" fill-rule="evenodd"/><path fill="#000000" fill-opacity="0.0" d="m569.5019 155.11667l-51.40155 -46.29921" fill-rule="evenodd"/><path stroke="#ffffff" stroke-width="1.0" stroke-linejoin="round" stroke-linecap="butt" d="m565.0438 151.10107l-46.94348 -42.283615" fill-rule="evenodd"/><path fill="#ffffff" stroke="#ffffff" stroke-width="1.0" stroke-linecap="butt" d="m563.93835 152.32835l4.477356 1.8099213l-2.2664795 -4.2644806z" fill-rule="evenodd"/><path fill="#000000" fill-opacity="0.0" d="m454.22192 142.65997l63.874023 -33.826767" fill-rule="evenodd"/><path stroke="#434343" stroke-width="1.0" stroke-linejoin="round" stroke-linecap="butt" d="m454.22192 142.65997l63.874023 -33.826767" fill-rule="evenodd"/><path fill="#000000" fill-opacity="0.0" d="m149.64597 285.05106l16.18898 -40.37796" fill-rule="evenodd"/><path stroke="#434343" stroke-width="1.0" stroke-linejoin="round" stroke-linecap="butt" d="m149.64597 285.05106l16.18898 -40.37796" fill-rule="evenodd"/><path fill="#000000" fill-opacity="0.0" d="m181.58014 285.05106l-15.748032 -40.37796" fill-rule="evenodd"/><path stroke="#434343" stroke-width="1.0" stroke-linejoin="round" stroke-linecap="butt" d="m181.58014 285.05106l-15.748032 -40.37796" fill-rule="evenodd"/><path fill="#000000" fill-opacity="0.0" d="m213.51431 285.05106l16.188965 -40.37796" fill-rule="evenodd"/><path stroke="#434343" stroke-width="1.0" stroke-linejoin="round" stroke-linecap="butt" d="m213.51431 285.05106l16.188965 -40.37796" fill-rule="evenodd"/><path fill="#000000" fill-opacity="0.0" d="m245.44849 285.05106l-15.748032 -40.37796" fill-rule="evenodd"/><path stroke="#434343" stroke-width="1.0" stroke-linejoin="round" stroke-linecap="butt" d="m245.44849 285.05106l-15.748032 -40.37796" fill-rule="evenodd"/><path fill="#000000" fill-opacity="0.0" d="m277.38266 285.05106l16.188965 -40.37796" fill-rule="evenodd"/><path stroke="#434343" stroke-width="1.0" stroke-linejoin="round" stroke-linecap="butt" d="m277.38266 285.05106l16.188965 -40.37796" fill-rule="evenodd"/><path fill="#000000" fill-opacity="0.0" d="m309.31683 285.05106l-15.748047 -40.37796" fill-rule="evenodd"/><path stroke="#434343" stroke-width="1.0" stroke-linejoin="round" stroke-linecap="butt" d="m309.31683 285.05106l-15.748047 -40.37796" fill-rule="evenodd"/><path fill="#000000" fill-opacity="0.0" d="m341.251 285.05106l16.188965 -40.37796" fill-rule="evenodd"/><path stroke="#434343" stroke-width="1.0" stroke-linejoin="round" stroke-linecap="butt" d="m341.251 285.05106l16.188965 -40.37796" fill-rule="evenodd"/><path fill="#000000" fill-opacity="0.0" d="m373.18518 285.05106l-15.748047 -40.37796" fill-rule="evenodd"/><path stroke="#434343" stroke-width="1.0" stroke-linejoin="round" stroke-linecap="butt" d="m373.18518 285.05106l-15.748047 -40.37796" fill-rule="evenodd"/><path fill="#000000" fill-opacity="0.0" d="m405.11932 285.05106l16.188995 -40.37796" fill-rule="evenodd"/><path stroke="#434343" stroke-width="1.0" stroke-linejoin="round" stroke-linecap="butt" d="m405.11932 285.05106l16.188995 -40.37796" fill-rule="evenodd"/><path fill="#000000" fill-opacity="0.0" d="m437.0535 285.05106l-15.748016 -40.37796" fill-rule="evenodd"/><path stroke="#434343" stroke-width="1.0" stroke-linejoin="round" stroke-linecap="butt" d="m437.0535 285.05106l-15.748016 -40.37796" fill-rule="evenodd"/><path fill="#000000" fill-opacity="0.0" d="m468.98767 285.05106l16.188995 -40.37796" fill-rule="evenodd"/><path stroke="#434343" stroke-width="1.0" stroke-linejoin="round" stroke-linecap="butt" d="m468.98767 285.05106l16.188995 -40.37796" fill-rule="evenodd"/><path fill="#000000" fill-opacity="0.0" d="m500.92184 285.05106l-15.748016 -40.37796" fill-rule="evenodd"/><path stroke="#434343" stroke-width="1.0" stroke-linejoin="round" stroke-linecap="butt" d="m500.92184 285.05106l-15.748016 -40.37796" fill-rule="evenodd"/><path fill="#000000" fill-opacity="0.0" d="m532.856 285.05106l16.188965 -40.37796" fill-rule="evenodd"/><path stroke="#434343" stroke-width="1.0" stroke-linejoin="round" stroke-linecap="butt" d="m532.856 285.05106l16.188965 -40.37796" fill-rule="evenodd"/><path fill="#000000" fill-opacity="0.0" d="m564.7902 285.05106l-15.748047 -40.37796" fill-rule="evenodd"/><path stroke="#434343" stroke-width="1.0" stroke-linejoin="round" stroke-linecap="butt" d="m564.7902 285.05106l-15.748047 -40.37796" fill-rule="evenodd"/><path fill="#000000" fill-opacity="0.0" d="m596.72437 285.05106l16.188965 -40.37796" fill-rule="evenodd"/><path stroke="#434343" stroke-width="1.0" stroke-linejoin="round" stroke-linecap="butt" d="m596.72437 285.05106l16.188965 -40.37796" fill-rule="evenodd"/><path fill="#000000" fill-opacity="0.0" d="m616.20184 297.50775l-3.2755737 -52.81891" fill-rule="evenodd"/><path stroke="#ffffff" stroke-width="1.0" stroke-linejoin="round" stroke-linecap="butt" d="m615.83044 291.51926l-2.9041748 -46.8304" fill-rule="evenodd"/><path fill="#ffffff" stroke="#ffffff" stroke-width="1.0" stroke-linecap="butt" d="m614.1819 291.6215l1.9295044 4.4271545l1.3676758 -4.6316223z" fill-rule="evenodd"/><path fill="#434343" d="m385.64203 359.62848l24.913391 0l0 24.913391l-24.913391 0z" fill-rule="evenodd"/><path stroke="#434343" stroke-width="1.0" stroke-linejoin="round" stroke-linecap="butt" d="m385.64203 359.62848l24.913391 0l0 24.913391l-24.913391 0z" fill-rule="evenodd"/><path fill="#434343" d="m417.5762 359.62848l24.913391 0l0 24.913391l-24.913391 0z" fill-rule="evenodd"/><path stroke="#434343" stroke-width="1.0" stroke-linejoin="round" stroke-linecap="butt" d="m417.5762 359.62848l24.913391 0l0 24.913391l-24.913391 0z" fill-rule="evenodd"/><path fill="#434343" d="m449.51038 359.62848l24.913391 0l0 24.913391l-24.913391 0z" fill-rule="evenodd"/><path stroke="#434343" stroke-width="1.0" stroke-linejoin="round" stroke-linecap="butt" d="m449.51038 359.62848l24.913391 0l0 24.913391l-24.913391 0z" fill-rule="evenodd"/><path fill="#434343" d="m481.44455 359.62848l24.913391 0l0 24.913391l-24.913391 0z" fill-rule="evenodd"/><path stroke="#434343" stroke-width="1.0" stroke-linejoin="round" stroke-linecap="butt" d="m481.44455 359.62848l24.913391 0l0 24.913391l-24.913391 0z" fill-rule="evenodd"/><path fill="#434343" d="m513.3787 359.62848l24.913391 0l0 24.913391l-24.913391 0z" fill-rule="evenodd"/><path stroke="#434343" stroke-width="1.0" stroke-linejoin="round" stroke-linecap="butt" d="m513.3787 359.62848l24.913391 0l0 24.913391l-24.913391 0z" fill-rule="evenodd"/><path fill="#434343" d="m545.31287 359.62848l24.913391 0l0 24.913391l-24.913391 0z" fill-rule="evenodd"/><path stroke="#434343" stroke-width="1.0" stroke-linejoin="round" stroke-linecap="butt" d="m545.31287 359.62848l24.913391 0l0 24.913391l-24.913391 0z" fill-rule="evenodd"/><path fill="#434343" d="m577.2471 359.62848l24.913391 0l0 24.913391l-24.913391 0z" fill-rule="evenodd"/><path stroke="#434343" stroke-width="1.0" stroke-linejoin="round" stroke-linecap="butt" d="m577.2471 359.62848l24.913391 0l0 24.913391l-24.913391 0z" fill-rule="evenodd"/><path fill="#434343" d="m609.1812 359.62848l24.913391 0l0 24.913391l-24.913391 0z" fill-rule="evenodd"/><path stroke="#434343" stroke-width="1.0" stroke-linejoin="round" stroke-linecap="butt" d="m609.1812 359.62848l24.913391 0l0 24.913391l-24.913391 0z" fill-rule="evenodd"/><path fill="#434343" d="m641.1154 359.62848l24.913391 0l0 24.913391l-24.913391 0z" fill-rule="evenodd"/><path stroke="#434343" stroke-width="1.0" stroke-linejoin="round" stroke-linecap="butt" d="m641.1154 359.62848l24.913391 0l0 24.913391l-24.913391 0z" fill-rule="evenodd"/><path fill="#434343" d="m673.04956 359.62848l24.913391 0l0 24.913391l-24.913391 0z" fill-rule="evenodd"/><path stroke="#434343" stroke-width="1.0" stroke-linejoin="round" stroke-linecap="butt" d="m673.04956 359.62848l24.913391 0l0 24.913391l-24.913391 0z" fill-rule="evenodd"/><path fill="#434343" d="m704.98376 359.62848l24.913391 0l0 24.913391l-24.913391 0z" fill-rule="evenodd"/><path stroke="#434343" stroke-width="1.0" stroke-linejoin="round" stroke-linecap="butt" d="m704.98376 359.62848l24.913391 0l0 24.913391l-24.913391 0z" fill-rule="evenodd"/><path fill="#434343" d="m736.9179 359.62848l24.913391 0l0 24.913391l-24.913391 0z" fill-rule="evenodd"/><path stroke="#434343" stroke-width="1.0" stroke-linejoin="round" stroke-linecap="butt" d="m736.9179 359.62848l24.913391 0l0 24.913391l-24.913391 0z" fill-rule="evenodd"/><path fill="#434343" d="m768.8521 359.62848l24.913391 0l0 24.913391l-24.913391 0z" fill-rule="evenodd"/><path stroke="#434343" stroke-width="1.0" stroke-linejoin="round" stroke-linecap="butt" d="m768.8521 359.62848l24.913391 0l0 24.913391l-24.913391 0z" fill-rule="evenodd"/><path fill="#434343" d="m800.78625 359.62848l24.913391 0l0 24.913391l-24.913391 0z" fill-rule="evenodd"/><path stroke="#434343" stroke-width="1.0" stroke-linejoin="round" stroke-linecap="butt" d="m800.78625 359.62848l24.913391 0l0 24.913391l-24.913391 0z" fill-rule="evenodd"/><path fill="#434343" d="m832.72046 359.62848l24.91333 0l0 24.913391l-24.91333 0z" fill-rule="evenodd"/><path stroke="#434343" stroke-width="1.0" stroke-linejoin="round" stroke-linecap="butt" d="m832.72046 359.62848l24.91333 0l0 24.913391l-24.91333 0z" fill-rule="evenodd"/><path fill="#adadad" d="m864.6546 359.62848l24.913391 0l0 24.913391l-24.913391 0z" fill-rule="evenodd"/><path stroke="#ffffff" stroke-width="1.0" stroke-linejoin="round" stroke-linecap="butt" d="m864.6546 359.62848l24.913391 0l0 24.913391l-24.913391 0z" fill-rule="evenodd"/><path fill="#434343" d="m2.4312081 359.62848l24.913385 0l0 24.913391l-24.913385 0z" fill-rule="evenodd"/><path stroke="#434343" stroke-width="1.0" stroke-linejoin="round" stroke-linecap="butt" d="m2.4312081 359.62848l24.913385 0l0 24.913391l-24.913385 0z" fill-rule="evenodd"/><path fill="#434343" d="m34.36538 359.62848l24.913387 0l0 24.913391l-24.913387 0z" fill-rule="evenodd"/><path stroke="#434343" stroke-width="1.0" stroke-linejoin="round" stroke-linecap="butt" d="m34.36538 359.62848l24.913387 0l0 24.913391l-24.913387 0z" fill-rule="evenodd"/><path fill="#434343" d="m66.29955 359.62848l24.913383 0l0 24.913391l-24.913383 0z" fill-rule="evenodd"/><path stroke="#434343" stroke-width="1.0" stroke-linejoin="round" stroke-linecap="butt" d="m66.29955 359.62848l24.913383 0l0 24.913391l-24.913383 0z" fill-rule="evenodd"/><path fill="#434343" d="m98.23373 359.62848l24.913383 0l0 24.913391l-24.913383 0z" fill-rule="evenodd"/><path stroke="#434343" stroke-width="1.0" stroke-linejoin="round" stroke-linecap="butt" d="m98.23373 359.62848l24.913383 0l0 24.913391l-24.913383 0z" fill-rule="evenodd"/><path fill="#434343" d="m130.1679 359.62848l24.913391 0l0 24.913391l-24.913391 0z" fill-rule="evenodd"/><path stroke="#434343" stroke-width="1.0" stroke-linejoin="round" stroke-linecap="butt" d="m130.1679 359.62848l24.913391 0l0 24.913391l-24.913391 0z" fill-rule="evenodd"/><path fill="#434343" d="m162.10207 359.62848l24.913391 0l0 24.913391l-24.913391 0z" fill-rule="evenodd"/><path stroke="#434343" stroke-width="1.0" stroke-linejoin="round" stroke-linecap="butt" d="m162.10207 359.62848l24.913391 0l0 24.913391l-24.913391 0z" fill-rule="evenodd"/><path fill="#434343" d="m194.03624 359.62848l24.913391 0l0 24.913391l-24.913391 0z" fill-rule="evenodd"/><path stroke="#434343" stroke-width="1.0" stroke-linejoin="round" stroke-linecap="butt" d="m194.03624 359.62848l24.913391 0l0 24.913391l-24.913391 0z" fill-rule="evenodd"/><path fill="#434343" d="m225.97041 359.62848l24.913376 0l0 24.913391l-24.913376 0z" fill-rule="evenodd"/><path stroke="#434343" stroke-width="1.0" stroke-linejoin="round" stroke-linecap="butt" d="m225.97041 359.62848l24.913376 0l0 24.913391l-24.913376 0z" fill-rule="evenodd"/><path fill="#434343" d="m257.90457 359.62848l24.913391 0l0 24.913391l-24.913391 0z" fill-rule="evenodd"/><path stroke="#434343" stroke-width="1.0" stroke-linejoin="round" stroke-linecap="butt" d="m257.90457 359.62848l24.913391 0l0 24.913391l-24.913391 0z" fill-rule="evenodd"/><path fill="#434343" d="m289.83875 359.62848l24.913391 0l0 24.913391l-24.913391 0z" fill-rule="evenodd"/><path stroke="#434343" stroke-width="1.0" stroke-linejoin="round" stroke-linecap="butt" d="m289.83875 359.62848l24.913391 0l0 24.913391l-24.913391 0z" fill-rule="evenodd"/><path fill="#434343" d="m321.77292 359.62848l24.913391 0l0 24.913391l-24.913391 0z" fill-rule="evenodd"/><path stroke="#434343" stroke-width="1.0" stroke-linejoin="round" stroke-linecap="butt" d="m321.77292 359.62848l24.913391 0l0 24.913391l-24.913391 0z" fill-rule="evenodd"/><path fill="#434343" d="m353.7071 359.62848l24.913391 0l0 24.913391l-24.913391 0z" fill-rule="evenodd"/><path stroke="#434343" stroke-width="1.0" stroke-linejoin="round" stroke-linecap="butt" d="m353.7071 359.62848l24.913391 0l0 24.913391l-24.913391 0z" fill-rule="evenodd"/><path fill="#000000" fill-opacity="0.0" d="m845.1771 359.62848l-216.50397 -49.66928" fill-rule="evenodd"/><path stroke="#434343" stroke-width="1.0" stroke-linejoin="round" stroke-linecap="butt" d="m845.1771 359.62848l-216.50397 -49.66928" fill-rule="evenodd"/><path fill="#000000" fill-opacity="0.0" d="m813.243 359.62848l-216.50397 -49.66928" fill-rule="evenodd"/><path stroke="#434343" stroke-width="1.0" stroke-linejoin="round" stroke-linecap="butt" d="m813.243 359.62848l-216.50397 -49.66928" fill-rule="evenodd"/><path fill="#000000" fill-opacity="0.0" d="m781.3088 359.62848l-184.59845 -49.66928" fill-rule="evenodd"/><path stroke="#434343" stroke-width="1.0" stroke-linejoin="round" stroke-linecap="butt" d="m781.3088 359.62848l-184.59845 -49.66928" fill-rule="evenodd"/><path fill="#000000" fill-opacity="0.0" d="m749.37463 359.62848l-184.59845 -49.66928" fill-rule="evenodd"/><path stroke="#434343" stroke-width="1.0" stroke-linejoin="round" stroke-linecap="butt" d="m749.37463 359.62848l-184.59845 -49.66928" fill-rule="evenodd"/><path fill="#000000" fill-opacity="0.0" d="m717.4404 359.62848l-152.66144 -49.66928" fill-rule="evenodd"/><path stroke="#434343" stroke-width="1.0" stroke-linejoin="round" stroke-linecap="butt" d="m717.4404 359.62848l-152.66144 -49.66928" fill-rule="evenodd"/><path fill="#000000" fill-opacity="0.0" d="m685.5063 359.62848l-152.66144 -49.66928" fill-rule="evenodd"/><path stroke="#434343" stroke-width="1.0" stroke-linejoin="round" stroke-linecap="butt" d="m685.5063 359.62848l-152.66144 -49.66928" fill-rule="evenodd"/><path fill="#000000" fill-opacity="0.0" d="m653.5721 359.62848l-120.72443 -49.66928" fill-rule="evenodd"/><path stroke="#434343" stroke-width="1.0" stroke-linejoin="round" stroke-linecap="butt" d="m653.5721 359.62848l-120.72443 -49.66928" fill-rule="evenodd"/><path fill="#000000" fill-opacity="0.0" d="m621.63794 359.62848l-120.72443 -49.66928" fill-rule="evenodd"/><path stroke="#434343" stroke-width="1.0" stroke-linejoin="round" stroke-linecap="butt" d="m621.63794 359.62848l-120.72443 -49.66928" fill-rule="evenodd"/><path fill="#000000" fill-opacity="0.0" d="m589.70374 359.62848l-88.787384 -49.66928" fill-rule="evenodd"/><path stroke="#434343" stroke-width="1.0" stroke-linejoin="round" stroke-linecap="butt" d="m589.70374 359.62848l-88.787384 -49.66928" fill-rule="evenodd"/><path fill="#000000" fill-opacity="0.0" d="m557.7696 359.62848l-88.787415 -49.66928" fill-rule="evenodd"/><path stroke="#434343" stroke-width="1.0" stroke-linejoin="round" stroke-linecap="butt" d="m557.7696 359.62848l-88.787415 -49.66928" fill-rule="evenodd"/><path fill="#000000" fill-opacity="0.0" d="m525.8354 359.62848l-56.850372 -49.66928" fill-rule="evenodd"/><path stroke="#434343" stroke-width="1.0" stroke-linejoin="round" stroke-linecap="butt" d="m525.8354 359.62848l-56.850372 -49.66928" fill-rule="evenodd"/><path fill="#000000" fill-opacity="0.0" d="m493.90125 359.62848l-56.850403 -49.66928" fill-rule="evenodd"/><path stroke="#434343" stroke-width="1.0" stroke-linejoin="round" stroke-linecap="butt" d="m493.90125 359.62848l-56.850403 -49.66928" fill-rule="evenodd"/><path fill="#000000" fill-opacity="0.0" d="m461.96707 359.62848l-24.913391 -49.66928" fill-rule="evenodd"/><path stroke="#434343" stroke-width="1.0" stroke-linejoin="round" stroke-linecap="butt" d="m461.96707 359.62848l-24.913391 -49.66928" fill-rule="evenodd"/><path fill="#000000" fill-opacity="0.0" d="m430.0329 359.62848l-24.913391 -49.66928" fill-rule="evenodd"/><path stroke="#434343" stroke-width="1.0" stroke-linejoin="round" stroke-linecap="butt" d="m430.0329 359.62848l-24.913391 -49.66928" fill-rule="evenodd"/><path fill="#000000" fill-opacity="0.0" d="m398.09872 359.62848l7.0236206 -49.66928" fill-rule="evenodd"/><path stroke="#434343" stroke-width="1.0" stroke-linejoin="round" stroke-linecap="butt" d="m398.09872 359.62848l7.0236206 -49.66928" fill-rule="evenodd"/><path fill="#000000" fill-opacity="0.0" d="m366.1638 359.62848l7.0236206 -49.66928" fill-rule="evenodd"/><path stroke="#434343" stroke-width="1.0" stroke-linejoin="round" stroke-linecap="butt" d="m366.1638 359.62848l7.0236206 -49.66928" fill-rule="evenodd"/><path fill="#000000" fill-opacity="0.0" d="m334.2296 359.62848l38.960632 -49.66928" fill-rule="evenodd"/><path stroke="#434343" stroke-width="1.0" stroke-linejoin="round" stroke-linecap="butt" d="m334.2296 359.62848l38.960632 -49.66928" fill-rule="evenodd"/><path fill="#000000" fill-opacity="0.0" d="m302.29544 359.62848l38.960632 -49.66928" fill-rule="evenodd"/><path stroke="#434343" stroke-width="1.0" stroke-linejoin="round" stroke-linecap="butt" d="m302.29544 359.62848l38.960632 -49.66928" fill-rule="evenodd"/><path fill="#000000" fill-opacity="0.0" d="m270.36127 359.62848l70.897644 -49.66928" fill-rule="evenodd"/><path stroke="#434343" stroke-width="1.0" stroke-linejoin="round" stroke-linecap="butt" d="m270.36127 359.62848l70.897644 -49.66928" fill-rule="evenodd"/><path fill="#000000" fill-opacity="0.0" d="m238.42711 359.62848l70.89763 -49.66928" fill-rule="evenodd"/><path stroke="#434343" stroke-width="1.0" stroke-linejoin="round" stroke-linecap="butt" d="m238.42711 359.62848l70.89763 -49.66928" fill-rule="evenodd"/><path fill="#000000" fill-opacity="0.0" d="m206.49294 359.62848l102.83464 -49.66928" fill-rule="evenodd"/><path stroke="#434343" stroke-width="1.0" stroke-linejoin="round" stroke-linecap="butt" d="m206.49294 359.62848l102.83464 -49.66928" fill-rule="evenodd"/><path fill="#000000" fill-opacity="0.0" d="m174.55876 359.62848l102.83464 -49.66928" fill-rule="evenodd"/><path stroke="#434343" stroke-width="1.0" stroke-linejoin="round" stroke-linecap="butt" d="m174.55876 359.62848l102.83464 -49.66928" fill-rule="evenodd"/><path fill="#000000" fill-opacity="0.0" d="m142.62459 359.62848l134.77165 -49.66928" fill-rule="evenodd"/><path stroke="#434343" stroke-width="1.0" stroke-linejoin="round" stroke-linecap="butt" d="m142.62459 359.62848l134.77165 -49.66928" fill-rule="evenodd"/><path fill="#000000" fill-opacity="0.0" d="m110.690414 359.62848l134.77165 -49.66928" fill-rule="evenodd"/><path stroke="#434343" stroke-width="1.0" stroke-linejoin="round" stroke-linecap="butt" d="m110.690414 359.62848l134.77165 -49.66928" fill-rule="evenodd"/><path fill="#000000" fill-opacity="0.0" d="m78.75624 359.62848l166.67717 -49.66928" fill-rule="evenodd"/><path stroke="#434343" stroke-width="1.0" stroke-linejoin="round" stroke-linecap="butt" d="m78.75624 359.62848l166.67717 -49.66928" fill-rule="evenodd"/><path fill="#000000" fill-opacity="0.0" d="m46.82207 359.62848l166.67717 -49.66928" fill-rule="evenodd"/><path stroke="#434343" stroke-width="1.0" stroke-linejoin="round" stroke-linecap="butt" d="m46.82207 359.62848l166.67717 -49.66928" fill-rule="evenodd"/><path fill="#000000" fill-opacity="0.0" d="m14.887901 359.62848l198.61417 -49.66928" fill-rule="evenodd"/><path stroke="#434343" stroke-width="1.0" stroke-linejoin="round" stroke-linecap="butt" d="m14.887901 359.62848l198.61417 -49.66928" fill-rule="evenodd"/><path fill="#000000" fill-opacity="0.0" d="m48.51126 3.4599953l145.73228 0l0 33.82677l-145.73228 0z" fill-rule="evenodd"/><path fill="#ffffff" d="m66.69876 24.027754q0 -1.09375 -0.78125 -1.734375q-0.765625 -0.640625 -2.828125 -1.21875q-2.0625 -0.59375 -3.015625 -1.265625q-1.34375 -0.96875 -1.34375 -2.53125q0 -1.53125 1.25 -2.484375q1.25 -0.953125 3.203125 -0.953125q1.328125 0 2.359375 0.515625q1.046875 0.515625 1.625 1.421875q0.578125 0.90625 0.578125 2.03125l-1.140625 0q0 -1.359375 -0.9375 -2.171875q-0.921875 -0.828125 -2.484375 -0.828125q-1.515625 0 -2.421875 0.6875q-0.90625 0.671875 -0.90625 1.765625q0 1.0 0.8125 1.640625q0.8125 0.640625 2.59375 1.125q1.796875 0.484375 2.703125 1.015625q0.921875 0.515625 1.390625 1.25q0.46875 0.734375 0.46875 1.71875q0 1.5625 -1.25 2.515625q-1.25 0.953125 -3.3125 0.953125q-1.390625 0 -2.5625 -0.5q-1.171875 -0.5 -1.78125 -1.40625q-0.609375 -0.90625 -0.609375 -2.078125l1.125 0q0 1.40625 1.046875 2.21875q1.046875 0.8125 2.78125 0.8125q1.5625 0 2.5 -0.671875q0.9375 -0.6875 0.9375 -1.828125zm4.971695 -9.109375l0 2.515625l2.046875 0l0 0.890625l-2.046875 0l0 6.578125q0 0.8125 0.296875 1.21875q0.296875 0.390625 1.0 0.390625q0.265625 0 0.875 -0.078125l0.046875 0.890625q-0.421875 0.15625 -1.171875 0.15625q-1.109375 0 -1.625 -0.65625q-0.515625 -0.65625 -0.515625 -1.921875l0 -6.578125l-1.8125 0l0 -0.890625l1.8125 0l0 -2.515625l1.09375 0zm3.5148773 7.296875q0 -1.421875 0.546875 -2.546875q0.5625 -1.140625 1.5625 -1.765625q1.015625 -0.640625 2.28125 -0.640625q1.96875 0 3.1875 1.375q1.234375 1.375 1.234375 3.65625l0 0.234375q0 1.421875 -0.5625 2.5625q-0.546875 1.140625 -1.546875 1.765625q-1.0 0.625 -2.28125 0.625q-1.96875 0 -3.203125 -1.375q-1.21875 -1.390625 -1.21875 -3.671875l0 -0.21875zm1.09375 0.3125q0 1.765625 0.921875 2.90625q0.921875 1.125 2.40625 1.125q1.46875 0 2.375 -1.125q0.921875 -1.140625 0.921875 -3.0l0 -0.21875q0 -1.125 -0.421875 -2.0625q-0.40625 -0.9375 -1.171875 -1.453125q-0.75 -0.515625 -1.734375 -0.515625q-1.453125 0 -2.375 1.140625q-0.921875 1.140625 -0.921875 3.0l0 0.203125zm14.511093 -4.15625q-0.34375 -0.0625 -0.734375 -0.0625q-1.015625 0 -1.71875 0.5625q-0.703125 0.5625 -1.015625 1.65625l0 6.765625l-1.078125 0l0 -9.859375l1.0625 0l0.015625 1.5625q0.875 -1.734375 2.78125 -1.734375q0.453125 0 0.71875 0.109375l-0.03125 1.0zm7.58374 8.921875q-0.15625 -0.46875 -0.203125 -1.375q-0.578125 0.75 -1.46875 1.15625q-0.890625 0.40625 -1.875 0.40625q-1.421875 0 -2.3125 -0.796875q-0.875 -0.796875 -0.875 -2.0q0 -1.4375 1.203125 -2.28125q1.203125 -0.84375 3.34375 -0.84375l1.96875 0l0 -1.109375q0 -1.0625 -0.65625 -1.671875q-0.640625 -0.609375 -1.890625 -0.609375q-1.140625 0 -1.890625 0.59375q-0.75 0.578125 -0.75 1.40625l-1.09375 -0.015625q0 -1.171875 1.09375 -2.03125q1.09375 -0.859375 2.6875 -0.859375q1.65625 0 2.609375 0.828125q0.953125 0.8125 0.984375 2.28125l0 4.671875q0 1.4375 0.296875 2.140625l0 0.109375l-1.171875 0zm-3.421875 -0.78125q1.09375 0 1.953125 -0.53125q0.859375 -0.53125 1.25 -1.40625l0 -2.171875l-1.953125 0q-1.625 0.015625 -2.546875 0.59375q-0.921875 0.578125 -0.921875 1.59375q0 0.828125 0.609375 1.375q0.625 0.546875 1.609375 0.546875zm6.7587433 -4.234375q0 -2.3125 1.015625 -3.65625q1.03125 -1.359375 2.796875 -1.359375q2.015625 0 3.0625 1.59375l0.046875 -1.421875l1.015625 0l0 9.65625q0 1.90625 -1.0625 3.015625q-1.0625 1.109375 -2.890625 1.109375q-1.03125 0 -1.96875 -0.46875q-0.921875 -0.453125 -1.453125 -1.21875l0.609375 -0.65625q1.15625 1.421875 2.75 1.421875q1.359375 0 2.125 -0.8125q0.765625 -0.796875 0.796875 -2.21875l0 -1.25q-1.046875 1.46875 -3.0625 1.46875q-1.703125 0 -2.75 -1.359375q-1.03125 -1.375 -1.03125 -3.703125l0 -0.140625zm1.109375 0.1875q0 1.890625 0.75 2.984375q0.75 1.078125 2.125 1.078125q2.015625 0 2.859375 -1.796875l0 -4.59375q-0.390625 -0.9375 -1.109375 -1.4375q-0.71875 -0.5 -1.734375 -0.5q-1.375 0 -2.140625 1.078125q-0.75 1.078125 -0.75 3.1875zm13.489014 5.015625q-1.25 0 -2.265625 -0.625q-1.015625 -0.625 -1.59375 -1.71875q-0.5625 -1.109375 -0.5625 -2.484375l0 -0.390625q0 -1.421875 0.546875 -2.5625q0.5625 -1.140625 1.546875 -1.78125q0.984375 -0.65625 2.125 -0.65625q1.796875 0 2.84375 1.21875q1.0625 1.21875 1.0625 3.34375l0 0.609375l-7.03125 0l0 0.21875q0 1.671875 0.953125 2.796875q0.96875 1.109375 2.421875 1.109375q0.875 0 1.546875 -0.3125q0.671875 -0.328125 1.21875 -1.03125l0.6875 0.515625q-1.203125 1.75 -3.5 1.75zm-0.203125 -9.296875q-1.21875 0 -2.0625 0.90625q-0.84375 0.890625 -1.03125 2.421875l5.921875 0l0 -0.125q-0.046875 -1.421875 -0.8125 -2.3125q-0.765625 -0.890625 -2.015625 -0.890625zm15.768127 3.59375l-3.84375 0l0 5.515625l-1.125 0l0 -13.265625l4.296875 0q2.125 0 3.3125 1.03125q1.203125 1.03125 1.203125 2.875q0 1.28125 -0.75 2.265625q-0.75 0.96875 -2.0 1.34375l3.3125 5.625l0 0.125l-1.1875 0l-3.21875 -5.515625zm-3.84375 -0.96875l3.4375 0q1.40625 0 2.265625 -0.796875q0.859375 -0.796875 0.859375 -2.078125q0 -1.40625 -0.90625 -2.171875q-0.890625 -0.78125 -2.5 -0.78125l-3.15625 0l0 5.828125zm14.295471 6.671875q-1.25 0 -2.265625 -0.625q-1.015625 -0.625 -1.59375 -1.71875q-0.5625 -1.109375 -0.5625 -2.484375l0 -0.390625q0 -1.421875 0.546875 -2.5625q0.5625 -1.140625 1.546875 -1.78125q0.984375 -0.65625 2.125 -0.65625q1.796875 0 2.84375 1.21875q1.0625 1.21875 1.0625 3.34375l0 0.609375l-7.03125 0l0 0.21875q0 1.671875 0.953125 2.796875q0.96875 1.109375 2.421875 1.109375q0.875 0 1.546875 -0.3125q0.671875 -0.328125 1.21875 -1.03125l0.6875 0.515625q-1.203125 1.75 -3.5 1.75zm-0.203125 -9.296875q-1.21875 0 -2.0625 0.90625q-0.84375 0.890625 -1.03125 2.421875l5.921875 0l0 -0.125q-0.046875 -1.421875 -0.8125 -2.3125q-0.765625 -0.890625 -2.015625 -0.890625zm12.247223 9.109375q-0.15625 -0.46875 -0.203125 -1.375q-0.578125 0.75 -1.46875 1.15625q-0.890625 0.40625 -1.875 0.40625q-1.421875 0 -2.3125 -0.796875q-0.875 -0.796875 -0.875 -2.0q0 -1.4375 1.203125 -2.28125q1.203125 -0.84375 3.34375 -0.84375l1.96875 0l0 -1.109375q0 -1.0625 -0.65625 -1.671875q-0.640625 -0.609375 -1.890625 -0.609375q-1.140625 0 -1.890625 0.59375q-0.75 0.578125 -0.75 1.40625l-1.09375 -0.015625q0 -1.171875 1.09375 -2.03125q1.09375 -0.859375 2.6875 -0.859375q1.65625 0 2.609375 0.828125q0.953125 0.8125 0.984375 2.28125l0 4.671875q0 1.4375 0.296875 2.140625l0 0.109375l-1.171875 0zm-3.421875 -0.78125q1.09375 0 1.953125 -0.53125q0.859375 -0.53125 1.25 -1.40625l0 -2.171875l-1.953125 0q-1.625 0.015625 -2.546875 0.59375q-0.921875 0.578125 -0.921875 1.59375q0 0.828125 0.609375 1.375q0.625 0.546875 1.609375 0.546875zm6.7587433 -4.234375q0 -2.296875 1.015625 -3.65625q1.03125 -1.359375 2.796875 -1.359375q1.984375 0 3.03125 1.5625l0 -5.53125l1.09375 0l0 14.0l-1.03125 0l-0.03125 -1.3125q-1.046875 1.5 -3.09375 1.5q-1.703125 0 -2.75 -1.375q-1.03125 -1.375 -1.03125 -3.703125l0 -0.125zm1.109375 0.1875q0 1.890625 0.75 2.984375q0.75 1.078125 2.125 1.078125q2.015625 0 2.859375 -1.78125l0 -4.625q-0.84375 -1.921875 -2.84375 -1.921875q-1.375 0 -2.140625 1.078125q-0.75 1.078125 -0.75 3.1875z" fill-rule="nonzero"/><path fill="#000000" fill-opacity="0.0" d="m864.6546 372.08517l-236.0 -62.11023" fill-rule="evenodd"/><path stroke="#ffffff" stroke-width="1.0" stroke-linejoin="round" stroke-linecap="butt" d="m858.8522 370.5581l-230.19757 -60.58316" fill-rule="evenodd"/><path fill="#ffffff" stroke="#ffffff" stroke-width="1.0" stroke-linecap="butt" d="m858.4318 372.15546l4.809021 -0.4423523l-3.9682617 -2.7523499z" fill-rule="evenodd"/><path fill="#000000" fill-opacity="0.0" d="m21.720472 20.409449l25.102362 0" fill-rule="evenodd"/><path stroke="#ffffff" stroke-width="1.0" stroke-linejoin="round" stroke-linecap="butt" d="m21.720472 20.409449l25.102362 0" fill-rule="evenodd"/></g></svg>