<svg version="1.1" viewBox="0.0 0.0 910.0 404.0" fill="none" stroke="none" stroke-linecap="square" stroke-miterlimit="10" xmlns:xlink="http://www.w3.org/1999/xlink" xmlns="http://www.w3.org/2000/svg"><clipPath id="p.0"><path d="m0 0l910.0 0l0 404.0l-910.0 0l0 -404.0z" clip-rule="nonzero"/></clipPath><g clip-path="url(#p.0)"><path fill="#000000" fill-opacity="0.0" d="m0 0l910.0 0l0 404.0l-910.0 0z" fill-rule="evenodd"/><path fill="#434343" d="m146.18927 293.05106l24.913391 0l0 24.913391l-24.913391 0z" fill-rule="evenodd"/><path stroke="#434343" stroke-width="1.0" stroke-linejoin="round" stroke-linecap="butt" d="m146.18927 293.05106l24.913391 0l0 24.913391l-24.913391 0z" fill-rule="evenodd"/><path fill="#434343" d="m178.12344 293.05106l24.913391 0l0 24.913391l-24.913391 0z" fill-rule="evenodd"/><path stroke="#434343" stroke-width="1.0" stroke-linejoin="round" stroke-linecap="butt" d="m178.12344 293.05106l24.913391 0l0 24.913391l-24.913391 0z" fill-rule="evenodd"/><path fill="#434343" d="m210.05762 293.05106l24.913391 0l0 24.913391l-24.913391 0z" fill-rule="evenodd"/><path stroke="#434343" stroke-width="1.0" stroke-linejoin="round" stroke-linecap="butt" d="m210.05762 293.05106l24.913391 0l0 24.913391l-24.913391 0z" fill-rule="evenodd"/><path fill="#434343" d="m241.99179 293.05106l24.913391 0l0 24.913391l-24.913391 0z" fill-rule="evenodd"/><path stroke="#434343" stroke-width="1.0" stroke-linejoin="round" stroke-linecap="butt" d="m241.99179 293.05106l24.913391 0l0 24.913391l-24.913391 0z" fill-rule="evenodd"/><path fill="#434343" d="m273.92596 293.05106l24.913391 0l0 24.913391l-24.913391 0z" fill-rule="evenodd"/><path stroke="#434343" stroke-width="1.0" stroke-linejoin="round" stroke-linecap="butt" d="m273.92596 293.05106l24.913391 0l0 24.913391l-24.913391 0z" fill-rule="evenodd"/><path fill="#434343" d="m305.86014 293.05106l24.913391 0l0 24.913391l-24.913391 0z" fill-rule="evenodd"/><path stroke="#434343" stroke-width="1.0" stroke-linejoin="round" stroke-linecap="butt" d="m305.86014 293.05106l24.913391 0l0 24.913391l-24.913391 0z" fill-rule="evenodd"/><path fill="#434343" d="m337.7943 293.05106l24.913391 0l0 24.913391l-24.913391 0z" fill-rule="evenodd"/><path stroke="#434343" stroke-width="1.0" stroke-linejoin="round" stroke-linecap="butt" d="m337.7943 293.05106l24.913391 0l0 24.913391l-24.913391 0z" fill-rule="evenodd"/><path fill="#434343" d="m369.7285 293.05106l24.91336 0l0 24.913391l-24.91336 0z" fill-rule="evenodd"/><path stroke="#434343" stroke-width="1.0" stroke-linejoin="round" stroke-linecap="butt" d="m369.7285 293.05106l24.91336 0l0 24.913391l-24.91336 0z" fill-rule="evenodd"/><path fill="#434343" d="m401.66266 293.05106l24.91336 0l0 24.913391l-24.91336 0z" fill-rule="evenodd"/><path stroke="#434343" stroke-width="1.0" stroke-linejoin="round" stroke-linecap="butt" d="m401.66266 293.05106l24.91336 0l0 24.913391l-24.91336 0z" fill-rule="evenodd"/><path fill="#434343" d="m433.59683 293.05106l24.91336 0l0 24.913391l-24.91336 0z" fill-rule="evenodd"/><path stroke="#434343" stroke-width="1.0" stroke-linejoin="round" stroke-linecap="butt" d="m433.59683 293.05106l24.91336 0l0 24.913391l-24.91336 0z" fill-rule="evenodd"/><path fill="#434343" d="m465.53098 293.05106l24.913391 0l0 24.913391l-24.913391 0z" fill-rule="evenodd"/><path stroke="#434343" stroke-width="1.0" stroke-linejoin="round" stroke-linecap="butt" d="m465.53098 293.05106l24.913391 0l0 24.913391l-24.913391 0z" fill-rule="evenodd"/><path fill="#434343" d="m497.46515 293.05106l24.913391 0l0 24.913391l-24.913391 0z" fill-rule="evenodd"/><path stroke="#434343" stroke-width="1.0" stroke-linejoin="round" stroke-linecap="butt" d="m497.46515 293.05106l24.913391 0l0 24.913391l-24.913391 0z" fill-rule="evenodd"/><path fill="#434343" d="m529.39935 293.05106l24.913391 0l0 24.913391l-24.913391 0z" fill-rule="evenodd"/><path stroke="#434343" stroke-width="1.0" stroke-linejoin="round" stroke-linecap="butt" d="m529.39935 293.05106l24.913391 0l0 24.913391l-24.913391 0z" fill-rule="evenodd"/><path fill="#434343" d="m561.3335 293.05106l24.913391 0l0 24.913391l-24.913391 0z" fill-rule="evenodd"/><path stroke="#434343" stroke-width="1.0" stroke-linejoin="round" stroke-linecap="butt" d="m561.3335 293.05106l24.913391 0l0 24.913391l-24.913391 0z" fill-rule="evenodd"/><path fill="#434343" d="m593.2677 293.05106l24.913391 0l0 24.913391l-24.913391 0z" fill-rule="evenodd"/><path stroke="#434343" stroke-width="1.0" stroke-linejoin="round" stroke-linecap="butt" d="m593.2677 293.05106l24.913391 0l0 24.913391l-24.913391 0z" fill-rule="evenodd"/><path fill="#adadad" d="m625.20184 293.05106l24.913391 0l0 24.913391l-24.913391 0z" fill-rule="evenodd"/><path stroke="#ffffff" stroke-width="1.0" stroke-linejoin="round" stroke-linecap="butt" d="m625.20184 293.05106l24.913391 0l0 24.913391l-24.913391 0z" fill-rule="evenodd"/><path fill="#434343" d="m162.3802 227.75972l24.913376 0l0 24.913376l-24.913376 0z" fill-rule="evenodd"/><path stroke="#434343" stroke-width="1.0" stroke-linejoin="round" stroke-linecap="butt" d="m162.3802 227.75972l24.913376 0l0 24.913376l-24.913376 0z" fill-rule="evenodd"/><path fill="#434343" d="m226.24854 227.75972l24.913391 0l0 24.913376l-24.913391 0z" fill-rule="evenodd"/><path stroke="#434343" stroke-width="1.0" stroke-linejoin="round" stroke-linecap="butt" d="m226.24854 227.75972l24.913391 0l0 24.913376l-24.913391 0z" fill-rule="evenodd"/><path fill="#434343" d="m290.11688 227.75972l24.913391 0l0 24.913376l-24.913391 0z" fill-rule="evenodd"/><path stroke="#434343" stroke-width="1.0" stroke-linejoin="round" stroke-linecap="butt" d="m290.11688 227.75972l24.913391 0l0 24.913376l-24.913391 0z" fill-rule="evenodd"/><path fill="#434343" d="m353.98523 227.75972l24.913391 0l0 24.913376l-24.913391 0z" fill-rule="evenodd"/><path stroke="#434343" stroke-width="1.0" stroke-linejoin="round" stroke-linecap="butt" d="m353.98523 227.75972l24.913391 0l0 24.913376l-24.913391 0z" fill-rule="evenodd"/><path fill="#434343" d="m417.85358 227.75972l24.913391 0l0 24.913376l-24.913391 0z" fill-rule="evenodd"/><path stroke="#434343" stroke-width="1.0" stroke-linejoin="round" stroke-linecap="butt" d="m417.85358 227.75972l24.913391 0l0 24.913376l-24.913391 0z" fill-rule="evenodd"/><path fill="#434343" d="m481.72192 227.75972l24.913391 0l0 24.913376l-24.913391 0z" fill-rule="evenodd"/><path stroke="#434343" stroke-width="1.0" stroke-linejoin="round" stroke-linecap="butt" d="m481.72192 227.75972l24.913391 0l0 24.913376l-24.913391 0z" fill-rule="evenodd"/><path fill="#434343" d="m545.5903 227.75972l24.913391 0l0 24.913376l-24.913391 0z" fill-rule="evenodd"/><path stroke="#434343" stroke-width="1.0" stroke-linejoin="round" stroke-linecap="butt" d="m545.5903 227.75972l24.913391 0l0 24.913376l-24.913391 0z" fill-rule="evenodd"/><path fill="#adadad" d="m609.4586 227.75972l24.913391 0l0 24.913376l-24.913391 0z" fill-rule="evenodd"/><path stroke="#ffffff" stroke-width="1.0" stroke-linejoin="round" stroke-linecap="butt" d="m609.4586 227.75972l24.913391 0l0 24.913376l-24.913391 0z" fill-rule="evenodd"/><path fill="#434343" d="m195.29185 150.65997l24.913376 0l0 24.913391l-24.913376 0z" fill-rule="evenodd"/><path stroke="#434343" stroke-width="1.0" stroke-linejoin="round" stroke-linecap="butt" d="m195.29185 150.65997l24.913376 0l0 24.913391l-24.913376 0z" fill-rule="evenodd"/><path fill="#434343" d="m323.02853 150.65997l24.913391 0l0 24.913391l-24.913391 0z" fill-rule="evenodd"/><path stroke="#434343" stroke-width="1.0" stroke-linejoin="round" stroke-linecap="butt" d="m323.02853 150.65997l24.913391 0l0 24.913391l-24.913391 0z" fill-rule="evenodd"/><path fill="#434343" d="m450.76523 150.65997l24.913391 0l0 24.913391l-24.913391 0z" fill-rule="evenodd"/><path stroke="#434343" stroke-width="1.0" stroke-linejoin="round" stroke-linecap="butt" d="m450.76523 150.65997l24.913391 0l0 24.913391l-24.913391 0z" fill-rule="evenodd"/><path fill="#adadad" d="m578.5019 150.65997l24.913391 0l0 24.913391l-24.913391 0z" fill-rule="evenodd"/><path stroke="#ffffff" stroke-width="1.0" stroke-linejoin="round" stroke-linecap="butt" d="m578.5019 150.65997l24.913391 0l0 24.913391l-24.913391 0z" fill-rule="evenodd"/><path fill="#434343" d="m259.16193 91.91982l24.913391 0l0 24.913383l-24.913391 0z" fill-rule="evenodd"/><path stroke="#434343" stroke-width="1.0" stroke-linejoin="round" stroke-linecap="butt" d="m259.16193 91.91982l24.913391 0l0 24.913383l-24.913391 0z" fill-rule="evenodd"/><path fill="#adadad" d="m514.6353 91.91982l24.913391 0l0 24.913383l-24.913391 0z" fill-rule="evenodd"/><path stroke="#ffffff" stroke-width="1.0" stroke-linejoin="round" stroke-linecap="butt" d="m514.6353 91.91982l24.913391 0l0 24.913383l-24.913391 0z" fill-rule="evenodd"/><path fill="#adadad" d="m389.20602 24.328083l24.913391 0l0 24.913387l-24.913391 0z" fill-rule="evenodd"/><path stroke="#ffffff" stroke-width="1.0" stroke-linejoin="round" stroke-linecap="butt" d="m389.20602 24.328083l24.913391 0l0 24.913387l-24.913391 0z" fill-rule="evenodd"/><path fill="#000000" fill-opacity="0.0" d="m271.61862 91.91982l130.04724 -42.677166" fill-rule="evenodd"/><path stroke="#434343" stroke-width="1.0" stroke-linejoin="round" stroke-linecap="butt" d="m271.61862 91.91982l130.04724 -42.677166" fill-rule="evenodd"/><path fill="#000000" fill-opacity="0.0" d="m514.6353 104.37651l-112.97638 -55.149605" fill-rule="evenodd"/><path stroke="#ffffff" stroke-width="1.0" stroke-linejoin="round" stroke-linecap="butt" d="m509.24344 101.74446l-107.58453 -52.517555" fill-rule="evenodd"/><path fill="#ffffff" stroke="#ffffff" stroke-width="1.0" stroke-linecap="butt" d="m508.51886 103.22879l4.8026733 0.50642395l-3.3535461 -3.4750748z" fill-rule="evenodd"/><path fill="#000000" fill-opacity="0.0" d="m207.74854 150.65997l63.874023 -33.826767" fill-rule="evenodd"/><path stroke="#434343" stroke-width="1.0" stroke-linejoin="round" stroke-linecap="butt" d="m207.74854 150.65997l63.874023 -33.826767" fill-rule="evenodd"/><path fill="#000000" fill-opacity="0.0" d="m335.48523 150.65997l-63.874023 -33.826767" fill-rule="evenodd"/><path stroke="#434343" stroke-width="1.0" stroke-linejoin="round" stroke-linecap="butt" d="m335.48523 150.65997l-63.874023 -33.826767" fill-rule="evenodd"/><path fill="#000000" fill-opacity="0.0" d="m174.83688 227.75972l32.91339 -52.18898" fill-rule="evenodd"/><path stroke="#434343" stroke-width="1.0" stroke-linejoin="round" stroke-linecap="butt" d="m174.83688 227.75972l32.91339 -52.18898" fill-rule="evenodd"/><path fill="#000000" fill-opacity="0.0" d="m238.70523 227.75972l-30.960632 -52.18898" fill-rule="evenodd"/><path stroke="#434343" stroke-width="1.0" stroke-linejoin="round" stroke-linecap="butt" d="m238.70523 227.75972l-30.960632 -52.18898" fill-rule="evenodd"/><path fill="#000000" fill-opacity="0.0" d="m302.57358 227.75972l32.91339 -52.18898" fill-rule="evenodd"/><path stroke="#434343" stroke-width="1.0" stroke-linejoin="round" stroke-linecap="butt" d="m302.57358 227.75972l32.91339 -52.18898" fill-rule="evenodd"/><path fill="#000000" fill-opacity="0.0" d="m366.44193 227.75972l-30.960632 -52.18898" fill-rule="evenodd"/><path stroke="#434343" stroke-width="1.0" stroke-linejoin="round" stroke-linecap="butt" d="m366.44193 227.75972l-30.960632 -52.18898" fill-rule="evenodd"/><path fill="#000000" fill-opacity="0.0" d="m430.31027 227.75972l32.91339 -52.18898" fill-rule="evenodd"/><path stroke="#434343" stroke-width="1.0" stroke-linejoin="round" stroke-linecap="butt" d="m430.31027 227.75972l32.91339 -52.18898" fill-rule="evenodd"/><path fill="#000000" fill-opacity="0.0" d="m494.17862 227.75972l-30.960632 -52.18898" fill-rule="evenodd"/><path stroke="#434343" stroke-width="1.0" stroke-linejoin="round" stroke-linecap="butt" d="m494.17862 227.75972l-30.960632 -52.18898" fill-rule="evenodd"/><path fill="#000000" fill-opacity="0.0" d="m558.04694 227.75972l32.91339 -52.18898" fill-rule="evenodd"/><path stroke="#434343" stroke-width="1.0" stroke-linejoin="round" stroke-linecap="butt" d="m558.04694 227.75972l32.91339 -52.18898" fill-rule="evenodd"/><path fill="#000000" fill-opacity="0.0" d="m609.4586 240.21642l-18.48822 -64.62993" fill-rule="evenodd"/><path stroke="#ffffff" stroke-width="1.0" stroke-linejoin="round" stroke-linecap="butt" d="m607.8084 234.4478l-16.837952 -58.861313" fill-rule="evenodd"/><path fill="#ffffff" stroke="#ffffff" stroke-width="1.0" stroke-linecap="butt" d="m606.2204 234.90207l2.8361816 3.9088135l0.3399048 -4.8173523z" fill-rule="evenodd"/><path fill="#000000" fill-opacity="0.0" d="m578.5019 163.11667l-51.40155 -46.267715" fill-rule="evenodd"/><path stroke="#ffffff" stroke-width="1.0" stroke-linejoin="round" stroke-linecap="butt" d="m574.0424 159.10258l-46.942078 -42.253624" fill-rule="evenodd"/><path fill="#ffffff" stroke="#ffffff" stroke-width="1.0" stroke-linecap="butt" d="m572.9374 160.33023l4.4779663 1.8084106l-2.2678833 -4.2637024z" fill-rule="evenodd"/><path fill="#000000" fill-opacity="0.0" d="m463.22192 150.65997l63.874023 -33.826767" fill-rule="evenodd"/><path stroke="#434343" stroke-width="1.0" stroke-linejoin="round" stroke-linecap="butt" d="m463.22192 150.65997l63.874023 -33.826767" fill-rule="evenodd"/><path fill="#000000" fill-opacity="0.0" d="m158.64597 293.05106l16.18898 -40.37796" fill-rule="evenodd"/><path stroke="#434343" stroke-width="1.0" stroke-linejoin="round" stroke-linecap="butt" d="m158.64597 293.05106l16.18898 -40.37796" fill-rule="evenodd"/><path fill="#000000" fill-opacity="0.0" d="m190.58014 293.05106l-15.748032 -40.37796" fill-rule="evenodd"/><path stroke="#434343" stroke-width="1.0" stroke-linejoin="round" stroke-linecap="butt" d="m190.58014 293.05106l-15.748032 -40.37796" fill-rule="evenodd"/><path fill="#000000" fill-opacity="0.0" d="m222.51431 293.05106l16.188965 -40.37796" fill-rule="evenodd"/><path stroke="#434343" stroke-width="1.0" stroke-linejoin="round" stroke-linecap="butt" d="m222.51431 293.05106l16.188965 -40.37796" fill-rule="evenodd"/><path fill="#000000" fill-opacity="0.0" d="m254.44849 293.05106l-15.748032 -40.37796" fill-rule="evenodd"/><path stroke="#434343" stroke-width="1.0" stroke-linejoin="round" stroke-linecap="butt" d="m254.44849 293.05106l-15.748032 -40.37796" fill-rule="evenodd"/><path fill="#000000" fill-opacity="0.0" d="m286.38266 293.05106l16.188965 -40.37796" fill-rule="evenodd"/><path stroke="#434343" stroke-width="1.0" stroke-linejoin="round" stroke-linecap="butt" d="m286.38266 293.05106l16.188965 -40.37796" fill-rule="evenodd"/><path fill="#000000" fill-opacity="0.0" d="m318.31683 293.05106l-15.748047 -40.37796" fill-rule="evenodd"/><path stroke="#434343" stroke-width="1.0" stroke-linejoin="round" stroke-linecap="butt" d="m318.31683 293.05106l-15.748047 -40.37796" fill-rule="evenodd"/><path fill="#000000" fill-opacity="0.0" d="m350.251 293.05106l16.188965 -40.37796" fill-rule="evenodd"/><path stroke="#434343" stroke-width="1.0" stroke-linejoin="round" stroke-linecap="butt" d="m350.251 293.05106l16.188965 -40.37796" fill-rule="evenodd"/><path fill="#000000" fill-opacity="0.0" d="m382.18518 293.05106l-15.748047 -40.37796" fill-rule="evenodd"/><path stroke="#434343" stroke-width="1.0" stroke-linejoin="round" stroke-linecap="butt" d="m382.18518 293.05106l-15.748047 -40.37796" fill-rule="evenodd"/><path fill="#000000" fill-opacity="0.0" d="m414.11932 293.05106l16.188995 -40.37796" fill-rule="evenodd"/><path stroke="#434343" stroke-width="1.0" stroke-linejoin="round" stroke-linecap="butt" d="m414.11932 293.05106l16.188995 -40.37796" fill-rule="evenodd"/><path fill="#000000" fill-opacity="0.0" d="m446.0535 293.05106l-15.748016 -40.37796" fill-rule="evenodd"/><path stroke="#434343" stroke-width="1.0" stroke-linejoin="round" stroke-linecap="butt" d="m446.0535 293.05106l-15.748016 -40.37796" fill-rule="evenodd"/><path fill="#000000" fill-opacity="0.0" d="m477.98767 293.05106l16.188995 -40.37796" fill-rule="evenodd"/><path stroke="#434343" stroke-width="1.0" stroke-linejoin="round" stroke-linecap="butt" d="m477.98767 293.05106l16.188995 -40.37796" fill-rule="evenodd"/><path fill="#000000" fill-opacity="0.0" d="m509.92184 293.05106l-15.748016 -40.37796" fill-rule="evenodd"/><path stroke="#434343" stroke-width="1.0" stroke-linejoin="round" stroke-linecap="butt" d="m509.92184 293.05106l-15.748016 -40.37796" fill-rule="evenodd"/><path fill="#000000" fill-opacity="0.0" d="m541.856 293.05106l16.188965 -40.37796" fill-rule="evenodd"/><path stroke="#434343" stroke-width="1.0" stroke-linejoin="round" stroke-linecap="butt" d="m541.856 293.05106l16.188965 -40.37796" fill-rule="evenodd"/><path fill="#000000" fill-opacity="0.0" d="m573.7902 293.05106l-15.748047 -40.37796" fill-rule="evenodd"/><path stroke="#434343" stroke-width="1.0" stroke-linejoin="round" stroke-linecap="butt" d="m573.7902 293.05106l-15.748047 -40.37796" fill-rule="evenodd"/><path fill="#000000" fill-opacity="0.0" d="m605.72437 293.05106l16.188965 -40.37796" fill-rule="evenodd"/><path stroke="#434343" stroke-width="1.0" stroke-linejoin="round" stroke-linecap="butt" d="m605.72437 293.05106l16.188965 -40.37796" fill-rule="evenodd"/><path fill="#000000" fill-opacity="0.0" d="m625.20184 305.50775l-3.2755737 -52.81891" fill-rule="evenodd"/><path stroke="#ffffff" stroke-width="1.0" stroke-linejoin="round" stroke-linecap="butt" d="m624.83044 299.51926l-2.9041748 -46.8304" fill-rule="evenodd"/><path fill="#ffffff" stroke="#ffffff" stroke-width="1.0" stroke-linecap="butt" d="m623.1819 299.6215l1.9295044 4.4271545l1.3676758 -4.6316223z" fill-rule="evenodd"/><path fill="#434343" d="m394.64203 367.62848l24.913391 0l0 24.913391l-24.913391 0z" fill-rule="evenodd"/><path stroke="#434343" stroke-width="1.0" stroke-linejoin="round" stroke-linecap="butt" d="m394.64203 367.62848l24.913391 0l0 24.913391l-24.913391 0z" fill-rule="evenodd"/><path fill="#434343" d="m426.5762 367.62848l24.913391 0l0 24.913391l-24.913391 0z" fill-rule="evenodd"/><path stroke="#434343" stroke-width="1.0" stroke-linejoin="round" stroke-linecap="butt" d="m426.5762 367.62848l24.913391 0l0 24.913391l-24.913391 0z" fill-rule="evenodd"/><path fill="#434343" d="m458.51038 367.62848l24.913391 0l0 24.913391l-24.913391 0z" fill-rule="evenodd"/><path stroke="#434343" stroke-width="1.0" stroke-linejoin="round" stroke-linecap="butt" d="m458.51038 367.62848l24.913391 0l0 24.913391l-24.913391 0z" fill-rule="evenodd"/><path fill="#434343" d="m490.44455 367.62848l24.91336 0l0 24.913391l-24.91336 0z" fill-rule="evenodd"/><path stroke="#434343" stroke-width="1.0" stroke-linejoin="round" stroke-linecap="butt" d="m490.44455 367.62848l24.91336 0l0 24.913391l-24.91336 0z" fill-rule="evenodd"/><path fill="#434343" d="m522.3787 367.62848l24.913391 0l0 24.913391l-24.913391 0z" fill-rule="evenodd"/><path stroke="#434343" stroke-width="1.0" stroke-linejoin="round" stroke-linecap="butt" d="m522.3787 367.62848l24.913391 0l0 24.913391l-24.913391 0z" fill-rule="evenodd"/><path fill="#434343" d="m554.31287 367.62848l24.913391 0l0 24.913391l-24.913391 0z" fill-rule="evenodd"/><path stroke="#434343" stroke-width="1.0" stroke-linejoin="round" stroke-linecap="butt" d="m554.31287 367.62848l24.913391 0l0 24.913391l-24.913391 0z" fill-rule="evenodd"/><path fill="#434343" d="m586.2471 367.62848l24.913391 0l0 24.913391l-24.913391 0z" fill-rule="evenodd"/><path stroke="#434343" stroke-width="1.0" stroke-linejoin="round" stroke-linecap="butt" d="m586.2471 367.62848l24.913391 0l0 24.913391l-24.913391 0z" fill-rule="evenodd"/><path fill="#434343" d="m618.1812 367.62848l24.913391 0l0 24.913391l-24.913391 0z" fill-rule="evenodd"/><path stroke="#434343" stroke-width="1.0" stroke-linejoin="round" stroke-linecap="butt" d="m618.1812 367.62848l24.913391 0l0 24.913391l-24.913391 0z" fill-rule="evenodd"/><path fill="#434343" d="m650.1154 367.62848l24.913391 0l0 24.913391l-24.913391 0z" fill-rule="evenodd"/><path stroke="#434343" stroke-width="1.0" stroke-linejoin="round" stroke-linecap="butt" d="m650.1154 367.62848l24.913391 0l0 24.913391l-24.913391 0z" fill-rule="evenodd"/><path fill="#434343" d="m682.04956 367.62848l24.913391 0l0 24.913391l-24.913391 0z" fill-rule="evenodd"/><path stroke="#434343" stroke-width="1.0" stroke-linejoin="round" stroke-linecap="butt" d="m682.04956 367.62848l24.913391 0l0 24.913391l-24.913391 0z" fill-rule="evenodd"/><path fill="#434343" d="m713.98376 367.62848l24.913391 0l0 24.913391l-24.913391 0z" fill-rule="evenodd"/><path stroke="#434343" stroke-width="1.0" stroke-linejoin="round" stroke-linecap="butt" d="m713.98376 367.62848l24.913391 0l0 24.913391l-24.913391 0z" fill-rule="evenodd"/><path fill="#434343" d="m745.9179 367.62848l24.913391 0l0 24.913391l-24.913391 0z" fill-rule="evenodd"/><path stroke="#434343" stroke-width="1.0" stroke-linejoin="round" stroke-linecap="butt" d="m745.9179 367.62848l24.913391 0l0 24.913391l-24.913391 0z" fill-rule="evenodd"/><path fill="#434343" d="m777.8521 367.62848l24.913391 0l0 24.913391l-24.913391 0z" fill-rule="evenodd"/><path stroke="#434343" stroke-width="1.0" stroke-linejoin="round" stroke-linecap="butt" d="m777.8521 367.62848l24.913391 0l0 24.913391l-24.913391 0z" fill-rule="evenodd"/><path fill="#434343" d="m809.78625 367.62848l24.913391 0l0 24.913391l-24.913391 0z" fill-rule="evenodd"/><path stroke="#434343" stroke-width="1.0" stroke-linejoin="round" stroke-linecap="butt" d="m809.78625 367.62848l24.913391 0l0 24.913391l-24.913391 0z" fill-rule="evenodd"/><path fill="#434343" d="m841.72046 367.62848l24.91333 0l0 24.913391l-24.91333 0z" fill-rule="evenodd"/><path stroke="#434343" stroke-width="1.0" stroke-linejoin="round" stroke-linecap="butt" d="m841.72046 367.62848l24.91333 0l0 24.913391l-24.91333 0z" fill-rule="evenodd"/><path fill="#adadad" d="m873.6546 367.62848l24.913391 0l0 24.913391l-24.913391 0z" fill-rule="evenodd"/><path stroke="#ffffff" stroke-width="1.0" stroke-linejoin="round" stroke-linecap="butt" d="m873.6546 367.62848l24.913391 0l0 24.913391l-24.913391 0z" fill-rule="evenodd"/><path fill="#434343" d="m11.431209 367.62848l24.913383 0l0 24.913391l-24.913383 0z" fill-rule="evenodd"/><path stroke="#434343" stroke-width="1.0" stroke-linejoin="round" stroke-linecap="butt" d="m11.431209 367.62848l24.913383 0l0 24.913391l-24.913383 0z" fill-rule="evenodd"/><path fill="#434343" d="m43.36538 367.62848l24.913383 0l0 24.913391l-24.913383 0z" fill-rule="evenodd"/><path stroke="#434343" stroke-width="1.0" stroke-linejoin="round" stroke-linecap="butt" d="m43.36538 367.62848l24.913383 0l0 24.913391l-24.913383 0z" fill-rule="evenodd"/><path fill="#434343" d="m75.29955 367.62848l24.913383 0l0 24.913391l-24.913383 0z" fill-rule="evenodd"/><path stroke="#434343" stroke-width="1.0" stroke-linejoin="round" stroke-linecap="butt" d="m75.29955 367.62848l24.913383 0l0 24.913391l-24.913383 0z" fill-rule="evenodd"/><path fill="#434343" d="m107.23373 367.62848l24.913383 0l0 24.913391l-24.913383 0z" fill-rule="evenodd"/><path stroke="#434343" stroke-width="1.0" stroke-linejoin="round" stroke-linecap="butt" d="m107.23373 367.62848l24.913383 0l0 24.913391l-24.913383 0z" fill-rule="evenodd"/><path fill="#434343" d="m139.1679 367.62848l24.913391 0l0 24.913391l-24.913391 0z" fill-rule="evenodd"/><path stroke="#434343" stroke-width="1.0" stroke-linejoin="round" stroke-linecap="butt" d="m139.1679 367.62848l24.913391 0l0 24.913391l-24.913391 0z" fill-rule="evenodd"/><path fill="#434343" d="m171.10207 367.62848l24.913391 0l0 24.913391l-24.913391 0z" fill-rule="evenodd"/><path stroke="#434343" stroke-width="1.0" stroke-linejoin="round" stroke-linecap="butt" d="m171.10207 367.62848l24.913391 0l0 24.913391l-24.913391 0z" fill-rule="evenodd"/><path fill="#434343" d="m203.03624 367.62848l24.913391 0l0 24.913391l-24.913391 0z" fill-rule="evenodd"/><path stroke="#434343" stroke-width="1.0" stroke-linejoin="round" stroke-linecap="butt" d="m203.03624 367.62848l24.913391 0l0 24.913391l-24.913391 0z" fill-rule="evenodd"/><path fill="#434343" d="m234.97041 367.62848l24.913376 0l0 24.913391l-24.913376 0z" fill-rule="evenodd"/><path stroke="#434343" stroke-width="1.0" stroke-linejoin="round" stroke-linecap="butt" d="m234.97041 367.62848l24.913376 0l0 24.913391l-24.913376 0z" fill-rule="evenodd"/><path fill="#434343" d="m266.90457 367.62848l24.913391 0l0 24.913391l-24.913391 0z" fill-rule="evenodd"/><path stroke="#434343" stroke-width="1.0" stroke-linejoin="round" stroke-linecap="butt" d="m266.90457 367.62848l24.913391 0l0 24.913391l-24.913391 0z" fill-rule="evenodd"/><path fill="#434343" d="m298.83875 367.62848l24.913391 0l0 24.913391l-24.913391 0z" fill-rule="evenodd"/><path stroke="#434343" stroke-width="1.0" stroke-linejoin="round" stroke-linecap="butt" d="m298.83875 367.62848l24.913391 0l0 24.913391l-24.913391 0z" fill-rule="evenodd"/><path fill="#434343" d="m330.77292 367.62848l24.913391 0l0 24.913391l-24.913391 0z" fill-rule="evenodd"/><path stroke="#434343" stroke-width="1.0" stroke-linejoin="round" stroke-linecap="butt" d="m330.77292 367.62848l24.913391 0l0 24.913391l-24.913391 0z" fill-rule="evenodd"/><path fill="#434343" d="m362.7071 367.62848l24.913391 0l0 24.913391l-24.913391 0z" fill-rule="evenodd"/><path stroke="#434343" stroke-width="1.0" stroke-linejoin="round" stroke-linecap="butt" d="m362.7071 367.62848l24.913391 0l0 24.913391l-24.913391 0z" fill-rule="evenodd"/><path fill="#000000" fill-opacity="0.0" d="m854.1771 367.62848l-216.50397 -49.66928" fill-rule="evenodd"/><path stroke="#434343" stroke-width="1.0" stroke-linejoin="round" stroke-linecap="butt" d="m854.1771 367.62848l-216.50397 -49.66928" fill-rule="evenodd"/><path fill="#000000" fill-opacity="0.0" d="m822.243 367.62848l-216.50397 -49.66928" fill-rule="evenodd"/><path stroke="#434343" stroke-width="1.0" stroke-linejoin="round" stroke-linecap="butt" d="m822.243 367.62848l-216.50397 -49.66928" fill-rule="evenodd"/><path fill="#000000" fill-opacity="0.0" d="m790.3088 367.62848l-184.59845 -49.66928" fill-rule="evenodd"/><path stroke="#434343" stroke-width="1.0" stroke-linejoin="round" stroke-linecap="butt" d="m790.3088 367.62848l-184.59845 -49.66928" fill-rule="evenodd"/><path fill="#000000" fill-opacity="0.0" d="m758.37463 367.62848l-184.59845 -49.66928" fill-rule="evenodd"/><path stroke="#434343" stroke-width="1.0" stroke-linejoin="round" stroke-linecap="butt" d="m758.37463 367.62848l-184.59845 -49.66928" fill-rule="evenodd"/><path fill="#000000" fill-opacity="0.0" d="m726.4404 367.62848l-152.66144 -49.66928" fill-rule="evenodd"/><path stroke="#434343" stroke-width="1.0" stroke-linejoin="round" stroke-linecap="butt" d="m726.4404 367.62848l-152.66144 -49.66928" fill-rule="evenodd"/><path fill="#000000" fill-opacity="0.0" d="m694.5063 367.62848l-152.66144 -49.66928" fill-rule="evenodd"/><path stroke="#434343" stroke-width="1.0" stroke-linejoin="round" stroke-linecap="butt" d="m694.5063 367.62848l-152.66144 -49.66928" fill-rule="evenodd"/><path fill="#000000" fill-opacity="0.0" d="m662.5721 367.62848l-120.72443 -49.66928" fill-rule="evenodd"/><path stroke="#434343" stroke-width="1.0" stroke-linejoin="round" stroke-linecap="butt" d="m662.5721 367.62848l-120.72443 -49.66928" fill-rule="evenodd"/><path fill="#000000" fill-opacity="0.0" d="m630.63794 367.62848l-120.72443 -49.66928" fill-rule="evenodd"/><path stroke="#434343" stroke-width="1.0" stroke-linejoin="round" stroke-linecap="butt" d="m630.63794 367.62848l-120.72443 -49.66928" fill-rule="evenodd"/><path fill="#000000" fill-opacity="0.0" d="m598.70374 367.62848l-88.787384 -49.66928" fill-rule="evenodd"/><path stroke="#434343" stroke-width="1.0" stroke-linejoin="round" stroke-linecap="butt" d="m598.70374 367.62848l-88.787384 -49.66928" fill-rule="evenodd"/><path fill="#000000" fill-opacity="0.0" d="m566.7696 367.62848l-88.787415 -49.66928" fill-rule="evenodd"/><path stroke="#434343" stroke-width="1.0" stroke-linejoin="round" stroke-linecap="butt" d="m566.7696 367.62848l-88.787415 -49.66928" fill-rule="evenodd"/><path fill="#000000" fill-opacity="0.0" d="m534.8354 367.62848l-56.850372 -49.66928" fill-rule="evenodd"/><path stroke="#434343" stroke-width="1.0" stroke-linejoin="round" stroke-linecap="butt" d="m534.8354 367.62848l-56.850372 -49.66928" fill-rule="evenodd"/><path fill="#000000" fill-opacity="0.0" d="m502.90125 367.62848l-56.850403 -49.66928" fill-rule="evenodd"/><path stroke="#434343" stroke-width="1.0" stroke-linejoin="round" stroke-linecap="butt" d="m502.90125 367.62848l-56.850403 -49.66928" fill-rule="evenodd"/><path fill="#000000" fill-opacity="0.0" d="m470.96707 367.62848l-24.913391 -49.66928" fill-rule="evenodd"/><path stroke="#434343" stroke-width="1.0" stroke-linejoin="round" stroke-linecap="butt" d="m470.96707 367.62848l-24.913391 -49.66928" fill-rule="evenodd"/><path fill="#000000" fill-opacity="0.0" d="m439.0329 367.62848l-24.913391 -49.66928" fill-rule="evenodd"/><path stroke="#434343" stroke-width="1.0" stroke-linejoin="round" stroke-linecap="butt" d="m439.0329 367.62848l-24.913391 -49.66928" fill-rule="evenodd"/><path fill="#000000" fill-opacity="0.0" d="m407.09872 367.62848l7.0236206 -49.66928" fill-rule="evenodd"/><path stroke="#434343" stroke-width="1.0" stroke-linejoin="round" stroke-linecap="butt" d="m407.09872 367.62848l7.0236206 -49.66928" fill-rule="evenodd"/><path fill="#000000" fill-opacity="0.0" d="m375.1638 367.62848l7.0236206 -49.66928" fill-rule="evenodd"/><path stroke="#434343" stroke-width="1.0" stroke-linejoin="round" stroke-linecap="butt" d="m375.1638 367.62848l7.0236206 -49.66928" fill-rule="evenodd"/><path fill="#000000" fill-opacity="0.0" d="m343.2296 367.62848l38.960632 -49.66928" fill-rule="evenodd"/><path stroke="#434343" stroke-width="1.0" stroke-linejoin="round" stroke-linecap="butt" d="m343.2296 367.62848l38.960632 -49.66928" fill-rule="evenodd"/><path fill="#000000" fill-opacity="0.0" d="m311.29544 367.62848l38.960632 -49.66928" fill-rule="evenodd"/><path stroke="#434343" stroke-width="1.0" stroke-linejoin="round" stroke-linecap="butt" d="m311.29544 367.62848l38.960632 -49.66928" fill-rule="evenodd"/><path fill="#000000" fill-opacity="0.0" d="m279.36127 367.62848l70.897644 -49.66928" fill-rule="evenodd"/><path stroke="#434343" stroke-width="1.0" stroke-linejoin="round" stroke-linecap="butt" d="m279.36127 367.62848l70.897644 -49.66928" fill-rule="evenodd"/><path fill="#000000" fill-opacity="0.0" d="m247.42711 367.62848l70.89763 -49.66928" fill-rule="evenodd"/><path stroke="#434343" stroke-width="1.0" stroke-linejoin="round" stroke-linecap="butt" d="m247.42711 367.62848l70.89763 -49.66928" fill-rule="evenodd"/><path fill="#000000" fill-opacity="0.0" d="m215.49294 367.62848l102.83464 -49.66928" fill-rule="evenodd"/><path stroke="#434343" stroke-width="1.0" stroke-linejoin="round" stroke-linecap="butt" d="m215.49294 367.62848l102.83464 -49.66928" fill-rule="evenodd"/><path fill="#000000" fill-opacity="0.0" d="m183.55876 367.62848l102.83464 -49.66928" fill-rule="evenodd"/><path stroke="#434343" stroke-width="1.0" stroke-linejoin="round" stroke-linecap="butt" d="m183.55876 367.62848l102.83464 -49.66928" fill-rule="evenodd"/><path fill="#000000" fill-opacity="0.0" d="m151.62459 367.62848l134.77165 -49.66928" fill-rule="evenodd"/><path stroke="#434343" stroke-width="1.0" stroke-linejoin="round" stroke-linecap="butt" d="m151.62459 367.62848l134.77165 -49.66928" fill-rule="evenodd"/><path fill="#000000" fill-opacity="0.0" d="m119.690414 367.62848l134.77165 -49.66928" fill-rule="evenodd"/><path stroke="#434343" stroke-width="1.0" stroke-linejoin="round" stroke-linecap="butt" d="m119.690414 367.62848l134.77165 -49.66928" fill-rule="evenodd"/><path fill="#000000" fill-opacity="0.0" d="m87.75624 367.62848l166.67717 -49.66928" fill-rule="evenodd"/><path stroke="#434343" stroke-width="1.0" stroke-linejoin="round" stroke-linecap="butt" d="m87.75624 367.62848l166.67717 -49.66928" fill-rule="evenodd"/><path fill="#000000" fill-opacity="0.0" d="m55.82207 367.62848l166.67717 -49.66928" fill-rule="evenodd"/><path stroke="#434343" stroke-width="1.0" stroke-linejoin="round" stroke-linecap="butt" d="m55.82207 367.62848l166.67717 -49.66928" fill-rule="evenodd"/><path fill="#000000" fill-opacity="0.0" d="m23.887901 367.62848l198.61417 -49.66928" fill-rule="evenodd"/><path stroke="#434343" stroke-width="1.0" stroke-linejoin="round" stroke-linecap="butt" d="m23.887901 367.62848l198.61417 -49.66928" fill-rule="evenodd"/><path fill="#000000" fill-opacity="0.0" d="m57.51126 11.459995l145.73228 0l0 33.82677l-145.73228 0z" fill-rule="evenodd"/><path fill="#ffffff" d="m75.69876 32.027756q0 -1.0937519 -0.78125 -1.7343769q-0.765625 -0.640625 -2.828125 -1.21875q-2.0625 -0.59375 -3.015625 -1.265625q-1.34375 -0.96875 -1.34375 -2.53125q0 -1.53125 1.25 -2.484375q1.25 -0.953125 3.203125 -0.953125q1.328125 0 2.359375 0.515625q1.046875 0.515625 1.625 1.421875q0.578125 0.90625 0.578125 2.03125l-1.140625 0q0 -1.359375 -0.9375 -2.171875q-0.921875 -0.828125 -2.484375 -0.828125q-1.515625 0 -2.421875 0.6875q-0.90625 0.671875 -0.90625 1.765625q0 1.0 0.8125 1.640625q0.8125 0.640625 2.59375 1.125q1.796875 0.484375 2.703125 1.015625q0.921875 0.515625 1.390625 1.25q0.46875 0.734375 0.46875 1.7187519q0 1.5625 -1.25 2.515625q-1.25 0.953125 -3.3125 0.953125q-1.390625 0 -2.5625 -0.5q-1.171875 -0.5 -1.78125 -1.40625q-0.609375 -0.90625 -0.609375 -2.078127l1.125 0q0 1.4062519 1.046875 2.218752q1.046875 0.8125 2.78125 0.8125q1.5625 0 2.5 -0.671875q0.9375 -0.6875 0.9375 -1.828125zm4.971695 -9.109377l0 2.515625l2.046875 0l0 0.890625l-2.046875 0l0 6.578127q0 0.8125 0.296875 1.21875q0.296875 0.390625 1.0 0.390625q0.265625 0 0.875 -0.078125l0.046875 0.890625q-0.421875 0.15625 -1.171875 0.15625q-1.109375 0 -1.625 -0.65625q-0.515625 -0.65625 -0.515625 -1.921875l0 -6.578127l-1.8125 0l0 -0.890625l1.8125 0l0 -2.515625l1.09375 0zm3.5148773 7.296875q0 -1.421875 0.546875 -2.546875q0.5625 -1.140625 1.5625 -1.765625q1.015625 -0.640625 2.28125 -0.640625q1.96875 0 3.1875 1.375q1.234375 1.375 1.234375 3.65625l0 0.234375q0 1.421875 -0.5625 2.562502q-0.546875 1.140625 -1.546875 1.765625q-1.0 0.625 -2.28125 0.625q-1.96875 0 -3.203125 -1.375q-1.21875 -1.390625 -1.21875 -3.671877l0 -0.21875zm1.09375 0.3125q0 1.7656269 0.921875 2.906252q0.921875 1.125 2.40625 1.125q1.46875 0 2.375 -1.125q0.921875 -1.140625 0.921875 -3.000002l0 -0.21875q0 -1.125 -0.421875 -2.0625q-0.40625 -0.9375 -1.171875 -1.453125q-0.75 -0.515625 -1.734375 -0.515625q-1.453125 0 -2.375 1.140625q-0.921875 1.140625 -0.921875 3.0l0 0.203125zm14.511093 -4.15625q-0.34375 -0.0625 -0.734375 -0.0625q-1.015625 0 -1.71875 0.5625q-0.703125 0.5625 -1.015625 1.65625l0 6.765627l-1.078125 0l0 -9.859377l1.0625 0l0.015625 1.5625q0.875 -1.734375 2.78125 -1.734375q0.453125 0 0.71875 0.109375l-0.03125 1.0zm7.58374 8.921877q-0.15625 -0.46875 -0.203125 -1.375q-0.578125 0.75 -1.46875 1.15625q-0.890625 0.40625 -1.875 0.40625q-1.421875 0 -2.3125 -0.796875q-0.875 -0.796875 -0.875 -2.0q0 -1.4375019 1.203125 -2.281252q1.203125 -0.84375 3.34375 -0.84375l1.96875 0l0 -1.109375q0 -1.0625 -0.65625 -1.671875q-0.640625 -0.609375 -1.890625 -0.609375q-1.140625 0 -1.890625 0.59375q-0.75 0.578125 -0.75 1.40625l-1.09375 -0.015625q0 -1.171875 1.09375 -2.03125q1.09375 -0.859375 2.6875 -0.859375q1.65625 0 2.609375 0.828125q0.953125 0.8125 0.984375 2.28125l0 4.671877q0 1.4375 0.296875 2.140625l0 0.109375l-1.171875 0zm-3.421875 -0.78125q1.09375 0 1.953125 -0.53125q0.859375 -0.53125 1.25 -1.40625l0 -2.171877l-1.953125 0q-1.625 0.015625 -2.546875 0.59375q-0.921875 0.578125 -0.921875 1.5937519q0 0.828125 0.609375 1.375q0.625 0.546875 1.609375 0.546875zm6.7587433 -4.234377q0 -2.3125 1.015625 -3.65625q1.03125 -1.359375 2.796875 -1.359375q2.015625 0 3.0625 1.59375l0.046875 -1.421875l1.015625 0l0 9.656252q0 1.90625 -1.0625 3.015625q-1.0625 1.109375 -2.890625 1.109375q-1.03125 0 -1.96875 -0.46875q-0.921875 -0.453125 -1.453125 -1.21875l0.609375 -0.65625q1.15625 1.421875 2.75 1.421875q1.359375 0 2.125 -0.8125q0.765625 -0.796875 0.796875 -2.21875l0 -1.25q-1.046875 1.46875 -3.0625 1.46875q-1.703125 0 -2.75 -1.359375q-1.03125 -1.375 -1.03125 -3.703127l0 -0.140625zm1.109375 0.1875q0 1.8906269 0.75 2.984377q0.75 1.078125 2.125 1.078125q2.015625 0 2.859375 -1.796875l0 -4.593752q-0.390625 -0.9375 -1.109375 -1.4375q-0.71875 -0.5 -1.734375 -0.5q-1.375 0 -2.140625 1.078125q-0.75 1.078125 -0.75 3.1875zm13.489014 5.015627q-1.25 0 -2.265625 -0.625q-1.015625 -0.625 -1.59375 -1.71875q-0.5625 -1.109375 -0.5625 -2.484377l0 -0.390625q0 -1.421875 0.546875 -2.5625q0.5625 -1.140625 1.546875 -1.78125q0.984375 -0.65625 2.125 -0.65625q1.796875 0 2.84375 1.21875q1.0625 1.21875 1.0625 3.34375l0 0.609375l-7.03125 0l0 0.21875q0 1.6718769 0.953125 2.796877q0.96875 1.109375 2.421875 1.109375q0.875 0 1.546875 -0.3125q0.671875 -0.328125 1.21875 -1.03125l0.6875 0.515625q-1.203125 1.75 -3.5 1.75zm-0.203125 -9.296877q-1.21875 0 -2.0625 0.90625q-0.84375 0.890625 -1.03125 2.421875l5.921875 0l0 -0.125q-0.046875 -1.421875 -0.8125 -2.3125q-0.765625 -0.890625 -2.015625 -0.890625zm15.768127 3.59375l-3.84375 0l0 5.515627l-1.125 0l0 -13.265627l4.296875 0q2.125 0 3.3125 1.03125q1.203125 1.03125 1.203125 2.875q0 1.28125 -0.75 2.265625q-0.75 0.96875 -2.0 1.34375l3.3125 5.625002l0 0.125l-1.1875 0l-3.21875 -5.515627zm-3.84375 -0.96875l3.4375 0q1.40625 0 2.265625 -0.796875q0.859375 -0.796875 0.859375 -2.078125q0 -1.40625 -0.90625 -2.171875q-0.890625 -0.78125 -2.5 -0.78125l-3.15625 0l0 5.828125zm14.295471 6.671877q-1.25 0 -2.265625 -0.625q-1.015625 -0.625 -1.59375 -1.71875q-0.5625 -1.109375 -0.5625 -2.484377l0 -0.390625q0 -1.421875 0.546875 -2.5625q0.5625 -1.140625 1.546875 -1.78125q0.984375 -0.65625 2.125 -0.65625q1.796875 0 2.84375 1.21875q1.0625 1.21875 1.0625 3.34375l0 0.609375l-7.03125 0l0 0.21875q0 1.6718769 0.953125 2.796877q0.96875 1.109375 2.421875 1.109375q0.875 0 1.546875 -0.3125q0.671875 -0.328125 1.21875 -1.03125l0.6875 0.515625q-1.203125 1.75 -3.5 1.75zm-0.203125 -9.296877q-1.21875 0 -2.0625 0.90625q-0.84375 0.890625 -1.03125 2.421875l5.921875 0l0 -0.125q-0.046875 -1.421875 -0.8125 -2.3125q-0.765625 -0.890625 -2.015625 -0.890625zm12.247223 9.109377q-0.15625 -0.46875 -0.203125 -1.375q-0.578125 0.75 -1.46875 1.15625q-0.890625 0.40625 -1.875 0.40625q-1.421875 0 -2.3125 -0.796875q-0.875 -0.796875 -0.875 -2.0q0 -1.4375019 1.203125 -2.281252q1.203125 -0.84375 3.34375 -0.84375l1.96875 0l0 -1.109375q0 -1.0625 -0.65625 -1.671875q-0.640625 -0.609375 -1.890625 -0.609375q-1.140625 0 -1.890625 0.59375q-0.75 0.578125 -0.75 1.40625l-1.09375 -0.015625q0 -1.171875 1.09375 -2.03125q1.09375 -0.859375 2.6875 -0.859375q1.65625 0 2.609375 0.828125q0.953125 0.8125 0.984375 2.28125l0 4.671877q0 1.4375 0.296875 2.140625l0 0.109375l-1.171875 0zm-3.421875 -0.78125q1.09375 0 1.953125 -0.53125q0.859375 -0.53125 1.25 -1.40625l0 -2.171877l-1.953125 0q-1.625 0.015625 -2.546875 0.59375q-0.921875 0.578125 -0.921875 1.5937519q0 0.828125 0.609375 1.375q0.625 0.546875 1.609375 0.546875zm6.7587433 -4.234377q0 -2.296875 1.015625 -3.65625q1.03125 -1.359375 2.796875 -1.359375q1.984375 0 3.03125 1.5625l0 -5.53125l1.09375 0l0 14.000002l-1.03125 0l-0.03125 -1.3125q-1.046875 1.5 -3.09375 1.5q-1.703125 0 -2.75 -1.375q-1.03125 -1.375 -1.03125 -3.703127l0 -0.125zm1.109375 0.1875q0 1.8906269 0.75 2.984377q0.75 1.078125 2.125 1.078125q2.015625 0 2.859375 -1.78125l0 -4.625002q-0.84375 -1.921875 -2.84375 -1.921875q-1.375 0 -2.140625 1.078125q-0.75 1.078125 -0.75 3.1875z" fill-rule="nonzero"/><path fill="#000000" fill-opacity="0.0" d="m873.6546 380.08517l-236.0 -62.11023" fill-rule="evenodd"/><path stroke="#ffffff" stroke-width="1.0" stroke-linejoin="round" stroke-linecap="butt" d="m867.8522 378.5581l-230.19757 -60.58316" fill-rule="evenodd"/><path fill="#ffffff" stroke="#ffffff" stroke-width="1.0" stroke-linecap="butt" d="m867.4318 380.15546l4.809021 -0.4423523l-3.9682617 -2.7523499z" fill-rule="evenodd"/><path fill="#000000" fill-opacity="0.0" d="m30.720472 28.409449l25.102362 0" fill-rule="evenodd"/><path stroke="#ffffff" stroke-width="1.0" stroke-linejoin="round" stroke-linecap="butt" d="m30.720472 28.409449l25.102362 0" fill-rule="evenodd"/></g></svg>