<svg version="1.1" viewBox="0.0 0.0 910.0 404.0" fill="none" stroke="none" stroke-linecap="square" stroke-miterlimit="10" xmlns:xlink="http://www.w3.org/1999/xlink" xmlns="http://www.w3.org/2000/svg"><clipPath id="p.0"><path d="m0 0l910.0 0l0 404.0l-910.0 0l0 -404.0z" clip-rule="nonzero"/></clipPath><g clip-path="url(#p.0)"><path fill="#000000" fill-opacity="0.0" d="m0 0l910.0 0l0 404.0l-910.0 0z" fill-rule="evenodd"/><path fill="#434343" d="m146.18927 293.05106l24.913391 0l0 24.913391l-24.913391 0z" fill-rule="evenodd"/><path stroke="#434343" stroke-width="1.0" stroke-linejoin="round" stroke-linecap="butt" d="m146.18927 293.05106l24.913391 0l0 24.913391l-24.913391 0z" fill-rule="evenodd"/><path fill="#434343" d="m178.12344 293.05106l24.913391 0l0 24.913391l-24.913391 0z" fill-rule="evenodd"/><path stroke="#434343" stroke-width="1.0" stroke-linejoin="round" stroke-linecap="butt" d="m178.12344 293.05106l24.913391 0l0 24.913391l-24.913391 0z" fill-rule="evenodd"/><path fill="#434343" d="m210.05762 293.05106l24.913391 0l0 24.913391l-24.913391 0z" fill-rule="evenodd"/><path stroke="#434343" stroke-width="1.0" stroke-linejoin="round" stroke-linecap="butt" d="m210.05762 293.05106l24.913391 0l0 24.913391l-24.913391 0z" fill-rule="evenodd"/><path fill="#434343" d="m241.99179 293.05106l24.913391 0l0 24.913391l-24.913391 0z" fill-rule="evenodd"/><path stroke="#434343" stroke-width="1.0" stroke-linejoin="round" stroke-linecap="butt" d="m241.99179 293.05106l24.913391 0l0 24.913391l-24.913391 0z" fill-rule="evenodd"/><path fill="#434343" d="m273.92596 293.05106l24.913391 0l0 24.913391l-24.913391 0z" fill-rule="evenodd"/><path stroke="#434343" stroke-width="1.0" stroke-linejoin="round" stroke-linecap="butt" d="m273.92596 293.05106l24.913391 0l0 24.913391l-24.913391 0z" fill-rule="evenodd"/><path fill="#434343" d="m305.86014 293.05106l24.913391 0l0 24.913391l-24.913391 0z" fill-rule="evenodd"/><path stroke="#434343" stroke-width="1.0" stroke-linejoin="round" stroke-linecap="butt" d="m305.86014 293.05106l24.913391 0l0 24.913391l-24.913391 0z" fill-rule="evenodd"/><path fill="#434343" d="m337.7943 293.05106l24.913391 0l0 24.913391l-24.913391 0z" fill-rule="evenodd"/><path stroke="#434343" stroke-width="1.0" stroke-linejoin="round" stroke-linecap="butt" d="m337.7943 293.05106l24.913391 0l0 24.913391l-24.913391 0z" fill-rule="evenodd"/><path fill="#434343" d="m369.7285 293.05106l24.91336 0l0 24.913391l-24.91336 0z" fill-rule="evenodd"/><path stroke="#434343" stroke-width="1.0" stroke-linejoin="round" stroke-linecap="butt" d="m369.7285 293.05106l24.91336 0l0 24.913391l-24.91336 0z" fill-rule="evenodd"/><path fill="#434343" d="m401.66266 293.05106l24.91336 0l0 24.913391l-24.91336 0z" fill-rule="evenodd"/><path stroke="#434343" stroke-width="1.0" stroke-linejoin="round" stroke-linecap="butt" d="m401.66266 293.05106l24.91336 0l0 24.913391l-24.91336 0z" fill-rule="evenodd"/><path fill="#434343" d="m433.59683 293.05106l24.91336 0l0 24.913391l-24.91336 0z" fill-rule="evenodd"/><path stroke="#434343" stroke-width="1.0" stroke-linejoin="round" stroke-linecap="butt" d="m433.59683 293.05106l24.91336 0l0 24.913391l-24.91336 0z" fill-rule="evenodd"/><path fill="#434343" d="m465.53098 293.05106l24.913391 0l0 24.913391l-24.913391 0z" fill-rule="evenodd"/><path stroke="#434343" stroke-width="1.0" stroke-linejoin="round" stroke-linecap="butt" d="m465.53098 293.05106l24.913391 0l0 24.913391l-24.913391 0z" fill-rule="evenodd"/><path fill="#434343" d="m497.46515 293.05106l24.913391 0l0 24.913391l-24.913391 0z" fill-rule="evenodd"/><path stroke="#434343" stroke-width="1.0" stroke-linejoin="round" stroke-linecap="butt" d="m497.46515 293.05106l24.913391 0l0 24.913391l-24.913391 0z" fill-rule="evenodd"/><path fill="#434343" d="m529.39935 293.05106l24.913391 0l0 24.913391l-24.913391 0z" fill-rule="evenodd"/><path stroke="#434343" stroke-width="1.0" stroke-linejoin="round" stroke-linecap="butt" d="m529.39935 293.05106l24.913391 0l0 24.913391l-24.913391 0z" fill-rule="evenodd"/><path fill="#434343" d="m561.3335 293.05106l24.913391 0l0 24.913391l-24.913391 0z" fill-rule="evenodd"/><path stroke="#434343" stroke-width="1.0" stroke-linejoin="round" stroke-linecap="butt" d="m561.3335 293.05106l24.913391 0l0 24.913391l-24.913391 0z" fill-rule="evenodd"/><path fill="#434343" d="m593.2677 293.05106l24.913391 0l0 24.913391l-24.913391 0z" fill-rule="evenodd"/><path stroke="#434343" stroke-width="1.0" stroke-linejoin="round" stroke-linecap="butt" d="m593.2677 293.05106l24.913391 0l0 24.913391l-24.913391 0z" fill-rule="evenodd"/><path fill="#434343" d="m162.3802 227.75972l24.913376 0l0 24.913376l-24.913376 0z" fill-rule="evenodd"/><path stroke="#434343" stroke-width="1.0" stroke-linejoin="round" stroke-linecap="butt" d="m162.3802 227.75972l24.913376 0l0 24.913376l-24.913376 0z" fill-rule="evenodd"/><path fill="#434343" d="m226.24854 227.75972l24.913391 0l0 24.913376l-24.913391 0z" fill-rule="evenodd"/><path stroke="#434343" stroke-width="1.0" stroke-linejoin="round" stroke-linecap="butt" d="m226.24854 227.75972l24.913391 0l0 24.913376l-24.913391 0z" fill-rule="evenodd"/><path fill="#434343" d="m290.11688 227.75972l24.913391 0l0 24.913376l-24.913391 0z" fill-rule="evenodd"/><path stroke="#434343" stroke-width="1.0" stroke-linejoin="round" stroke-linecap="butt" d="m290.11688 227.75972l24.913391 0l0 24.913376l-24.913391 0z" fill-rule="evenodd"/><path fill="#434343" d="m353.98523 227.75972l24.913391 0l0 24.913376l-24.913391 0z" fill-rule="evenodd"/><path stroke="#434343" stroke-width="1.0" stroke-linejoin="round" stroke-linecap="butt" d="m353.98523 227.75972l24.913391 0l0 24.913376l-24.913391 0z" fill-rule="evenodd"/><path fill="#434343" d="m417.85358 227.75972l24.913391 0l0 24.913376l-24.913391 0z" fill-rule="evenodd"/><path stroke="#434343" stroke-width="1.0" stroke-linejoin="round" stroke-linecap="butt" d="m417.85358 227.75972l24.913391 0l0 24.913376l-24.913391 0z" fill-rule="evenodd"/><path fill="#434343" d="m481.72192 227.75972l24.913391 0l0 24.913376l-24.913391 0z" fill-rule="evenodd"/><path stroke="#434343" stroke-width="1.0" stroke-linejoin="round" stroke-linecap="butt" d="m481.72192 227.75972l24.913391 0l0 24.913376l-24.913391 0z" fill-rule="evenodd"/><path fill="#434343" d="m545.5903 227.75972l24.913391 0l0 24.913376l-24.913391 0z" fill-rule="evenodd"/><path stroke="#434343" stroke-width="1.0" stroke-linejoin="round" stroke-linecap="butt" d="m545.5903 227.75972l24.913391 0l0 24.913376l-24.913391 0z" fill-rule="evenodd"/><path fill="#ff1864" d="m609.4586 227.75972l24.913391 0l0 24.913376l-24.913391 0z" fill-rule="evenodd"/><path stroke="#ffffff" stroke-width="1.0" stroke-linejoin="round" stroke-linecap="butt" d="m609.4586 227.75972l24.913391 0l0 24.913376l-24.913391 0z" fill-rule="evenodd"/><path fill="#434343" d="m195.29185 150.65997l24.913376 0l0 24.913391l-24.913376 0z" fill-rule="evenodd"/><path stroke="#434343" stroke-width="1.0" stroke-linejoin="round" stroke-linecap="butt" d="m195.29185 150.65997l24.913376 0l0 24.913391l-24.913376 0z" fill-rule="evenodd"/><path fill="#434343" d="m323.02853 150.65997l24.913391 0l0 24.913391l-24.913391 0z" fill-rule="evenodd"/><path stroke="#434343" stroke-width="1.0" stroke-linejoin="round" stroke-linecap="butt" d="m323.02853 150.65997l24.913391 0l0 24.913391l-24.913391 0z" fill-rule="evenodd"/><path fill="#434343" d="m450.76523 150.65997l24.913391 0l0 24.913391l-24.913391 0z" fill-rule="evenodd"/><path stroke="#434343" stroke-width="1.0" stroke-linejoin="round" stroke-linecap="butt" d="m450.76523 150.65997l24.913391 0l0 24.913391l-24.913391 0z" fill-rule="evenodd"/><path fill="#ff1864" d="m578.5019 150.65997l24.913391 0l0 24.913391l-24.913391 0z" fill-rule="evenodd"/><path stroke="#ffffff" stroke-width="1.0" stroke-linejoin="round" stroke-linecap="butt" d="m578.5019 150.65997l24.913391 0l0 24.913391l-24.913391 0z" fill-rule="evenodd"/><path fill="#434343" d="m259.16193 91.91982l24.913391 0l0 24.913383l-24.913391 0z" fill-rule="evenodd"/><path stroke="#434343" stroke-width="1.0" stroke-linejoin="round" stroke-linecap="butt" d="m259.16193 91.91982l24.913391 0l0 24.913383l-24.913391 0z" fill-rule="evenodd"/><path fill="#ff1864" d="m514.6353 91.91982l24.913391 0l0 24.913383l-24.913391 0z" fill-rule="evenodd"/><path stroke="#ffffff" stroke-width="1.0" stroke-linejoin="round" stroke-linecap="butt" d="m514.6353 91.91982l24.913391 0l0 24.913383l-24.913391 0z" fill-rule="evenodd"/><path fill="#000000" fill-opacity="0.0" d="m271.61862 91.91982l130.04724 -42.677166" fill-rule="evenodd"/><path stroke="#434343" stroke-width="1.0" stroke-linejoin="round" stroke-linecap="butt" d="m271.61862 91.91982l124.346344 -40.80633" fill-rule="evenodd"/><path fill="#434343" stroke="#434343" stroke-width="1.0" stroke-linecap="butt" d="m396.47998 52.682877l3.7968445 -2.984394l-4.826874 -0.15437698z" fill-rule="evenodd"/><path fill="#000000" fill-opacity="0.0" d="m527.092 91.91982l-112.97638 -55.14961" fill-rule="evenodd"/><path stroke="#ffffff" stroke-width="1.0" stroke-linejoin="round" stroke-linecap="butt" stroke-dasharray="4.0,3.0" d="m527.092 91.91982l-107.5845 -52.51756" fill-rule="evenodd"/><path fill="#ffffff" stroke="#ffffff" stroke-width="1.0" stroke-linecap="butt" d="m420.23206 37.917942l-4.802704 -0.50642776l3.3535461 3.4750748z" fill-rule="evenodd"/><path fill="#000000" fill-opacity="0.0" d="m207.74854 150.65997l63.874023 -33.826767" fill-rule="evenodd"/><path stroke="#434343" stroke-width="1.0" stroke-linejoin="round" stroke-linecap="butt" d="m207.74855 150.65999l58.57167 -31.01873" fill-rule="evenodd"/><path fill="#434343" stroke="#434343" stroke-width="1.0" stroke-linecap="butt" d="m267.09323 121.10094l3.2373962 -3.5835419l-4.7834473 0.6641846z" fill-rule="evenodd"/><path fill="#000000" fill-opacity="0.0" d="m335.48523 150.65997l-63.874023 -33.826767" fill-rule="evenodd"/><path stroke="#434343" stroke-width="1.0" stroke-linejoin="round" stroke-linecap="butt" d="m335.48523 150.65999l-58.571655 -31.01873" fill-rule="evenodd"/><path fill="#434343" stroke="#434343" stroke-width="1.0" stroke-linecap="butt" d="m277.68658 118.18158l-4.7834473 -0.6641846l3.2373962 3.5835419z" fill-rule="evenodd"/><path fill="#000000" fill-opacity="0.0" d="m174.83688 227.75972l32.91339 -52.18898" fill-rule="evenodd"/><path stroke="#434343" stroke-width="1.0" stroke-linejoin="round" stroke-linecap="butt" d="m174.83688 227.75972l29.712753 -47.113922" fill-rule="evenodd"/><path fill="#434343" stroke="#434343" stroke-width="1.0" stroke-linecap="butt" d="m205.94675 181.52689l1.0236816 -4.7196045l-3.8178864 2.9574127z" fill-rule="evenodd"/><path fill="#000000" fill-opacity="0.0" d="m238.70523 227.75972l-30.960632 -52.18898" fill-rule="evenodd"/><path stroke="#434343" stroke-width="1.0" stroke-linejoin="round" stroke-linecap="butt" d="m238.70523 227.75972l-27.899338 -47.028687" fill-rule="evenodd"/><path fill="#434343" stroke="#434343" stroke-width="1.0" stroke-linecap="butt" d="m212.22647 179.88829l-3.7359772 -3.0602417l0.8948364 4.7457123z" fill-rule="evenodd"/><path fill="#000000" fill-opacity="0.0" d="m302.57358 227.75972l32.91339 -52.18898" fill-rule="evenodd"/><path stroke="#434343" stroke-width="1.0" stroke-linejoin="round" stroke-linecap="butt" d="m302.57358 227.75972l29.712769 -47.113922" fill-rule="evenodd"/><path fill="#434343" stroke="#434343" stroke-width="1.0" stroke-linecap="butt" d="m333.68344 181.52689l1.0236816 -4.7196045l-3.817871 2.9574127z" fill-rule="evenodd"/><path fill="#000000" fill-opacity="0.0" d="m366.44193 227.75972l-30.960632 -52.18898" fill-rule="evenodd"/><path stroke="#434343" stroke-width="1.0" stroke-linejoin="round" stroke-linecap="butt" d="m366.44193 227.75972l-27.899323 -47.028687" fill-rule="evenodd"/><path fill="#434343" stroke="#434343" stroke-width="1.0" stroke-linecap="butt" d="m339.96317 179.88829l-3.7359924 -3.0602417l0.8948364 4.7457123z" fill-rule="evenodd"/><path fill="#000000" fill-opacity="0.0" d="m430.31027 227.75972l32.91339 -52.18898" fill-rule="evenodd"/><path stroke="#434343" stroke-width="1.0" stroke-linejoin="round" stroke-linecap="butt" d="m430.31024 227.75972l29.712769 -47.113922" fill-rule="evenodd"/><path fill="#434343" stroke="#434343" stroke-width="1.0" stroke-linecap="butt" d="m461.4201 181.52689l1.0236816 -4.7196045l-3.817871 2.9574127z" fill-rule="evenodd"/><path fill="#000000" fill-opacity="0.0" d="m494.17862 227.75972l-30.960632 -52.18898" fill-rule="evenodd"/><path stroke="#434343" stroke-width="1.0" stroke-linejoin="round" stroke-linecap="butt" d="m494.1786 227.75972l-27.899353 -47.028687" fill-rule="evenodd"/><path fill="#434343" stroke="#434343" stroke-width="1.0" stroke-linecap="butt" d="m467.69983 179.88829l-3.735962 -3.0602417l0.8948364 4.7457123z" fill-rule="evenodd"/><path fill="#000000" fill-opacity="0.0" d="m558.04694 227.75972l32.91339 -52.18898" fill-rule="evenodd"/><path stroke="#434343" stroke-width="1.0" stroke-linejoin="round" stroke-linecap="butt" d="m558.04694 227.75972l29.712769 -47.113922" fill-rule="evenodd"/><path fill="#434343" stroke="#434343" stroke-width="1.0" stroke-linecap="butt" d="m589.1568 181.52689l1.0237427 -4.7196045l-3.8179321 2.9574127z" fill-rule="evenodd"/><path fill="#000000" fill-opacity="0.0" d="m621.9153 227.75972l-18.48816 -64.62993" fill-rule="evenodd"/><path stroke="#ffffff" stroke-width="1.0" stroke-linejoin="round" stroke-linecap="butt" stroke-dasharray="4.0,3.0" d="m621.9153 227.75972l-16.837952 -58.861313" fill-rule="evenodd"/><path fill="#ffffff" stroke="#ffffff" stroke-width="1.0" stroke-linecap="butt" d="m606.66534 168.44414l-2.8361816 -3.9088135l-0.3399048 4.8173676z" fill-rule="evenodd"/><path fill="#000000" fill-opacity="0.0" d="m590.9586 150.65997l-51.40161 -46.267715" fill-rule="evenodd"/><path stroke="#ffffff" stroke-width="1.0" stroke-linejoin="round" stroke-linecap="butt" stroke-dasharray="4.0,3.0" d="m590.9586 150.65999l-46.942078 -42.25364" fill-rule="evenodd"/><path fill="#ffffff" stroke="#ffffff" stroke-width="1.0" stroke-linecap="butt" d="m545.1216 107.17871l-4.4779663 -1.8084106l2.2678833 4.2637024z" fill-rule="evenodd"/><path fill="#000000" fill-opacity="0.0" d="m463.22192 150.65997l63.874023 -33.826767" fill-rule="evenodd"/><path stroke="#434343" stroke-width="1.0" stroke-linejoin="round" stroke-linecap="butt" d="m463.2219 150.65999l58.571686 -31.01873" fill-rule="evenodd"/><path fill="#434343" stroke="#434343" stroke-width="1.0" stroke-linecap="butt" d="m522.5666 121.10094l3.2374268 -3.5835419l-4.7834473 0.6641846z" fill-rule="evenodd"/><path fill="#000000" fill-opacity="0.0" d="m158.64597 293.05106l16.18898 -40.37796" fill-rule="evenodd"/><path stroke="#434343" stroke-width="1.0" stroke-linejoin="round" stroke-linecap="butt" d="m158.64597 293.05106l13.956131 -34.8089" fill-rule="evenodd"/><path fill="#434343" stroke="#434343" stroke-width="1.0" stroke-linecap="butt" d="m174.1352 258.85684l0.15571594 -4.826828l-3.2219086 3.5974884z" fill-rule="evenodd"/><path fill="#000000" fill-opacity="0.0" d="m190.58014 293.05106l-15.748032 -40.37796" fill-rule="evenodd"/><path stroke="#434343" stroke-width="1.0" stroke-linejoin="round" stroke-linecap="butt" d="m190.58014 293.05106l-13.567902 -34.788055" fill-rule="evenodd"/><path fill="#434343" stroke="#434343" stroke-width="1.0" stroke-linecap="butt" d="m178.55109 257.66284l-3.18779 -3.6277618l0.11012268 4.828079z" fill-rule="evenodd"/><path fill="#000000" fill-opacity="0.0" d="m222.51431 293.05106l16.188965 -40.37796" fill-rule="evenodd"/><path stroke="#434343" stroke-width="1.0" stroke-linejoin="round" stroke-linecap="butt" d="m222.51431 293.05106l13.956146 -34.8089" fill-rule="evenodd"/><path fill="#434343" stroke="#434343" stroke-width="1.0" stroke-linecap="butt" d="m238.00356 258.85684l0.15570068 -4.826828l-3.2219086 3.5974884z" fill-rule="evenodd"/><path fill="#000000" fill-opacity="0.0" d="m254.44849 293.05106l-15.748032 -40.37796" fill-rule="evenodd"/><path stroke="#434343" stroke-width="1.0" stroke-linejoin="round" stroke-linecap="butt" d="m254.44847 293.05106l-13.567886 -34.788055" fill-rule="evenodd"/><path fill="#434343" stroke="#434343" stroke-width="1.0" stroke-linecap="butt" d="m242.41942 257.66284l-3.18779 -3.6277618l0.11012268 4.828079z" fill-rule="evenodd"/><path fill="#000000" fill-opacity="0.0" d="m286.38266 293.05106l16.188965 -40.37796" fill-rule="evenodd"/><path stroke="#434343" stroke-width="1.0" stroke-linejoin="round" stroke-linecap="butt" d="m286.38266 293.05106l13.956116 -34.8089" fill-rule="evenodd"/><path fill="#434343" stroke="#434343" stroke-width="1.0" stroke-linecap="butt" d="m301.8719 258.85684l0.15570068 -4.826828l-3.2218933 3.5974884z" fill-rule="evenodd"/><path fill="#000000" fill-opacity="0.0" d="m318.31683 293.05106l-15.748047 -40.37796" fill-rule="evenodd"/><path stroke="#434343" stroke-width="1.0" stroke-linejoin="round" stroke-linecap="butt" d="m318.31683 293.05106l-13.567902 -34.788055" fill-rule="evenodd"/><path fill="#434343" stroke="#434343" stroke-width="1.0" stroke-linecap="butt" d="m306.28778 257.66284l-3.1878052 -3.6277618l0.11013794 4.828079z" fill-rule="evenodd"/><path fill="#000000" fill-opacity="0.0" d="m350.251 293.05106l16.188965 -40.37796" fill-rule="evenodd"/><path stroke="#434343" stroke-width="1.0" stroke-linejoin="round" stroke-linecap="butt" d="m350.25098 293.05106l13.956177 -34.8089" fill-rule="evenodd"/><path fill="#434343" stroke="#434343" stroke-width="1.0" stroke-linecap="butt" d="m365.74023 258.85684l0.15570068 -4.826828l-3.2219238 3.5974884z" fill-rule="evenodd"/><path fill="#000000" fill-opacity="0.0" d="m382.18518 293.05106l-15.748047 -40.37796" fill-rule="evenodd"/><path stroke="#434343" stroke-width="1.0" stroke-linejoin="round" stroke-linecap="butt" d="m382.18515 293.05106l-13.567871 -34.788055" fill-rule="evenodd"/><path fill="#434343" stroke="#434343" stroke-width="1.0" stroke-linecap="butt" d="m370.15613 257.66284l-3.1878052 -3.6277618l0.11010742 4.828079z" fill-rule="evenodd"/><path fill="#000000" fill-opacity="0.0" d="m414.11932 293.05106l16.188995 -40.37796" fill-rule="evenodd"/><path stroke="#434343" stroke-width="1.0" stroke-linejoin="round" stroke-linecap="butt" d="m414.11935 293.05106l13.956146 -34.8089" fill-rule="evenodd"/><path fill="#434343" stroke="#434343" stroke-width="1.0" stroke-linecap="butt" d="m429.60858 258.85684l0.15570068 -4.826828l-3.2218933 3.5974884z" fill-rule="evenodd"/><path fill="#000000" fill-opacity="0.0" d="m446.0535 293.05106l-15.748016 -40.37796" fill-rule="evenodd"/><path stroke="#434343" stroke-width="1.0" stroke-linejoin="round" stroke-linecap="butt" d="m446.05353 293.05106l-13.567871 -34.788055" fill-rule="evenodd"/><path fill="#434343" stroke="#434343" stroke-width="1.0" stroke-linecap="butt" d="m434.02448 257.66284l-3.1878052 -3.6277618l0.11013794 4.828079z" fill-rule="evenodd"/><path fill="#000000" fill-opacity="0.0" d="m477.98767 293.05106l16.188995 -40.37796" fill-rule="evenodd"/><path stroke="#434343" stroke-width="1.0" stroke-linejoin="round" stroke-linecap="butt" d="m477.9877 293.05106l13.956146 -34.8089" fill-rule="evenodd"/><path fill="#434343" stroke="#434343" stroke-width="1.0" stroke-linecap="butt" d="m493.47693 258.85684l0.15570068 -4.826828l-3.2218933 3.5974884z" fill-rule="evenodd"/><path fill="#000000" fill-opacity="0.0" d="m509.92184 293.05106l-15.748016 -40.37796" fill-rule="evenodd"/><path stroke="#434343" stroke-width="1.0" stroke-linejoin="round" stroke-linecap="butt" d="m509.92184 293.05106l-13.567871 -34.788055" fill-rule="evenodd"/><path fill="#434343" stroke="#434343" stroke-width="1.0" stroke-linecap="butt" d="m497.8928 257.66284l-3.1878052 -3.6277618l0.11013794 4.828079z" fill-rule="evenodd"/><path fill="#000000" fill-opacity="0.0" d="m541.856 293.05106l16.188965 -40.37796" fill-rule="evenodd"/><path stroke="#434343" stroke-width="1.0" stroke-linejoin="round" stroke-linecap="butt" d="m541.856 293.05106l13.956177 -34.8089" fill-rule="evenodd"/><path fill="#434343" stroke="#434343" stroke-width="1.0" stroke-linecap="butt" d="m557.3453 258.85684l0.15570068 -4.826828l-3.2219238 3.5974884z" fill-rule="evenodd"/><path fill="#000000" fill-opacity="0.0" d="m573.7902 293.05106l-15.748047 -40.37796" fill-rule="evenodd"/><path stroke="#434343" stroke-width="1.0" stroke-linejoin="round" stroke-linecap="butt" d="m573.79016 293.05106l-13.567871 -34.788055" fill-rule="evenodd"/><path fill="#434343" stroke="#434343" stroke-width="1.0" stroke-linecap="butt" d="m561.76117 257.66284l-3.1878052 -3.6277618l0.11010742 4.828079z" fill-rule="evenodd"/><path fill="#000000" fill-opacity="0.0" d="m605.72437 293.05106l16.188965 -40.37796" fill-rule="evenodd"/><path stroke="#434343" stroke-width="1.0" stroke-linejoin="round" stroke-linecap="butt" d="m605.72437 293.05106l13.956177 -34.8089" fill-rule="evenodd"/><path fill="#434343" stroke="#434343" stroke-width="1.0" stroke-linecap="butt" d="m621.2136 258.85684l0.15570068 -4.826828l-3.2219238 3.5974884z" fill-rule="evenodd"/><path fill="#000000" fill-opacity="0.0" d="m637.65857 293.05106l-3.2756348 -52.818893" fill-rule="evenodd"/><path stroke="#ffffff" stroke-width="1.0" stroke-linejoin="round" stroke-linecap="butt" stroke-dasharray="4.0,3.0" d="m637.65857 293.05106l-2.9042358 -46.8304" fill-rule="evenodd"/><path fill="#ffffff" stroke="#ffffff" stroke-width="1.0" stroke-linecap="butt" d="m636.4029 246.11842l-1.9294434 -4.42717l-1.3676758 4.6316376z" fill-rule="evenodd"/><path fill="#434343" d="m394.64203 367.62848l24.913391 0l0 24.913391l-24.913391 0z" fill-rule="evenodd"/><path stroke="#434343" stroke-width="1.0" stroke-linejoin="round" stroke-linecap="butt" d="m394.64203 367.62848l24.913391 0l0 24.913391l-24.913391 0z" fill-rule="evenodd"/><path fill="#434343" d="m426.5762 367.62848l24.913391 0l0 24.913391l-24.913391 0z" fill-rule="evenodd"/><path stroke="#434343" stroke-width="1.0" stroke-linejoin="round" stroke-linecap="butt" d="m426.5762 367.62848l24.913391 0l0 24.913391l-24.913391 0z" fill-rule="evenodd"/><path fill="#434343" d="m458.51038 367.62848l24.913391 0l0 24.913391l-24.913391 0z" fill-rule="evenodd"/><path stroke="#434343" stroke-width="1.0" stroke-linejoin="round" stroke-linecap="butt" d="m458.51038 367.62848l24.913391 0l0 24.913391l-24.913391 0z" fill-rule="evenodd"/><path fill="#434343" d="m490.44455 367.62848l24.91336 0l0 24.913391l-24.91336 0z" fill-rule="evenodd"/><path stroke="#434343" stroke-width="1.0" stroke-linejoin="round" stroke-linecap="butt" d="m490.44455 367.62848l24.91336 0l0 24.913391l-24.91336 0z" fill-rule="evenodd"/><path fill="#434343" d="m522.3787 367.62848l24.913391 0l0 24.913391l-24.913391 0z" fill-rule="evenodd"/><path stroke="#434343" stroke-width="1.0" stroke-linejoin="round" stroke-linecap="butt" d="m522.3787 367.62848l24.913391 0l0 24.913391l-24.913391 0z" fill-rule="evenodd"/><path fill="#434343" d="m554.31287 367.62848l24.913391 0l0 24.913391l-24.913391 0z" fill-rule="evenodd"/><path stroke="#434343" stroke-width="1.0" stroke-linejoin="round" stroke-linecap="butt" d="m554.31287 367.62848l24.913391 0l0 24.913391l-24.913391 0z" fill-rule="evenodd"/><path fill="#434343" d="m586.2471 367.62848l24.913391 0l0 24.913391l-24.913391 0z" fill-rule="evenodd"/><path stroke="#434343" stroke-width="1.0" stroke-linejoin="round" stroke-linecap="butt" d="m586.2471 367.62848l24.913391 0l0 24.913391l-24.913391 0z" fill-rule="evenodd"/><path fill="#434343" d="m618.1812 367.62848l24.913391 0l0 24.913391l-24.913391 0z" fill-rule="evenodd"/><path stroke="#434343" stroke-width="1.0" stroke-linejoin="round" stroke-linecap="butt" d="m618.1812 367.62848l24.913391 0l0 24.913391l-24.913391 0z" fill-rule="evenodd"/><path fill="#434343" d="m650.1154 367.62848l24.913391 0l0 24.913391l-24.913391 0z" fill-rule="evenodd"/><path stroke="#434343" stroke-width="1.0" stroke-linejoin="round" stroke-linecap="butt" d="m650.1154 367.62848l24.913391 0l0 24.913391l-24.913391 0z" fill-rule="evenodd"/><path fill="#434343" d="m682.04956 367.62848l24.913391 0l0 24.913391l-24.913391 0z" fill-rule="evenodd"/><path stroke="#434343" stroke-width="1.0" stroke-linejoin="round" stroke-linecap="butt" d="m682.04956 367.62848l24.913391 0l0 24.913391l-24.913391 0z" fill-rule="evenodd"/><path fill="#434343" d="m713.98376 367.62848l24.913391 0l0 24.913391l-24.913391 0z" fill-rule="evenodd"/><path stroke="#434343" stroke-width="1.0" stroke-linejoin="round" stroke-linecap="butt" d="m713.98376 367.62848l24.913391 0l0 24.913391l-24.913391 0z" fill-rule="evenodd"/><path fill="#434343" d="m745.9179 367.62848l24.913391 0l0 24.913391l-24.913391 0z" fill-rule="evenodd"/><path stroke="#434343" stroke-width="1.0" stroke-linejoin="round" stroke-linecap="butt" d="m745.9179 367.62848l24.913391 0l0 24.913391l-24.913391 0z" fill-rule="evenodd"/><path fill="#434343" d="m777.8521 367.62848l24.913391 0l0 24.913391l-24.913391 0z" fill-rule="evenodd"/><path stroke="#434343" stroke-width="1.0" stroke-linejoin="round" stroke-linecap="butt" d="m777.8521 367.62848l24.913391 0l0 24.913391l-24.913391 0z" fill-rule="evenodd"/><path fill="#434343" d="m809.78625 367.62848l24.913391 0l0 24.913391l-24.913391 0z" fill-rule="evenodd"/><path stroke="#434343" stroke-width="1.0" stroke-linejoin="round" stroke-linecap="butt" d="m809.78625 367.62848l24.913391 0l0 24.913391l-24.913391 0z" fill-rule="evenodd"/><path fill="#434343" d="m841.72046 367.62848l24.91333 0l0 24.913391l-24.91333 0z" fill-rule="evenodd"/><path stroke="#434343" stroke-width="1.0" stroke-linejoin="round" stroke-linecap="butt" d="m841.72046 367.62848l24.91333 0l0 24.913391l-24.91333 0z" fill-rule="evenodd"/><path fill="#ff1864" d="m873.6546 367.62848l24.913391 0l0 24.913391l-24.913391 0z" fill-rule="evenodd"/><path stroke="#ffffff" stroke-width="1.0" stroke-linejoin="round" stroke-linecap="butt" d="m873.6546 367.62848l24.913391 0l0 24.913391l-24.913391 0z" fill-rule="evenodd"/><path fill="#434343" d="m11.431209 367.62848l24.913383 0l0 24.913391l-24.913383 0z" fill-rule="evenodd"/><path stroke="#434343" stroke-width="1.0" stroke-linejoin="round" stroke-linecap="butt" d="m11.431209 367.62848l24.913383 0l0 24.913391l-24.913383 0z" fill-rule="evenodd"/><path fill="#434343" d="m43.36538 367.62848l24.913383 0l0 24.913391l-24.913383 0z" fill-rule="evenodd"/><path stroke="#434343" stroke-width="1.0" stroke-linejoin="round" stroke-linecap="butt" d="m43.36538 367.62848l24.913383 0l0 24.913391l-24.913383 0z" fill-rule="evenodd"/><path fill="#434343" d="m75.29955 367.62848l24.913383 0l0 24.913391l-24.913383 0z" fill-rule="evenodd"/><path stroke="#434343" stroke-width="1.0" stroke-linejoin="round" stroke-linecap="butt" d="m75.29955 367.62848l24.913383 0l0 24.913391l-24.913383 0z" fill-rule="evenodd"/><path fill="#434343" d="m107.23373 367.62848l24.913383 0l0 24.913391l-24.913383 0z" fill-rule="evenodd"/><path stroke="#434343" stroke-width="1.0" stroke-linejoin="round" stroke-linecap="butt" d="m107.23373 367.62848l24.913383 0l0 24.913391l-24.913383 0z" fill-rule="evenodd"/><path fill="#434343" d="m139.1679 367.62848l24.913391 0l0 24.913391l-24.913391 0z" fill-rule="evenodd"/><path stroke="#434343" stroke-width="1.0" stroke-linejoin="round" stroke-linecap="butt" d="m139.1679 367.62848l24.913391 0l0 24.913391l-24.913391 0z" fill-rule="evenodd"/><path fill="#434343" d="m171.10207 367.62848l24.913391 0l0 24.913391l-24.913391 0z" fill-rule="evenodd"/><path stroke="#434343" stroke-width="1.0" stroke-linejoin="round" stroke-linecap="butt" d="m171.10207 367.62848l24.913391 0l0 24.913391l-24.913391 0z" fill-rule="evenodd"/><path fill="#434343" d="m203.03624 367.62848l24.913391 0l0 24.913391l-24.913391 0z" fill-rule="evenodd"/><path stroke="#434343" stroke-width="1.0" stroke-linejoin="round" stroke-linecap="butt" d="m203.03624 367.62848l24.913391 0l0 24.913391l-24.913391 0z" fill-rule="evenodd"/><path fill="#434343" d="m234.97041 367.62848l24.913376 0l0 24.913391l-24.913376 0z" fill-rule="evenodd"/><path stroke="#434343" stroke-width="1.0" stroke-linejoin="round" stroke-linecap="butt" d="m234.97041 367.62848l24.913376 0l0 24.913391l-24.913376 0z" fill-rule="evenodd"/><path fill="#434343" d="m266.90457 367.62848l24.913391 0l0 24.913391l-24.913391 0z" fill-rule="evenodd"/><path stroke="#434343" stroke-width="1.0" stroke-linejoin="round" stroke-linecap="butt" d="m266.90457 367.62848l24.913391 0l0 24.913391l-24.913391 0z" fill-rule="evenodd"/><path fill="#434343" d="m298.83875 367.62848l24.913391 0l0 24.913391l-24.913391 0z" fill-rule="evenodd"/><path stroke="#434343" stroke-width="1.0" stroke-linejoin="round" stroke-linecap="butt" d="m298.83875 367.62848l24.913391 0l0 24.913391l-24.913391 0z" fill-rule="evenodd"/><path fill="#434343" d="m330.77292 367.62848l24.913391 0l0 24.913391l-24.913391 0z" fill-rule="evenodd"/><path stroke="#434343" stroke-width="1.0" stroke-linejoin="round" stroke-linecap="butt" d="m330.77292 367.62848l24.913391 0l0 24.913391l-24.913391 0z" fill-rule="evenodd"/><path fill="#434343" d="m362.7071 367.62848l24.913391 0l0 24.913391l-24.913391 0z" fill-rule="evenodd"/><path stroke="#434343" stroke-width="1.0" stroke-linejoin="round" stroke-linecap="butt" d="m362.7071 367.62848l24.913391 0l0 24.913391l-24.913391 0z" fill-rule="evenodd"/><path fill="#000000" fill-opacity="0.0" d="m854.1771 367.62848l-216.50397 -49.66928" fill-rule="evenodd"/><path stroke="#434343" stroke-width="1.0" stroke-linejoin="round" stroke-linecap="butt" d="m854.17706 367.62848l-210.65576 -48.327637" fill-rule="evenodd"/><path fill="#434343" stroke="#434343" stroke-width="1.0" stroke-linecap="butt" d="m643.8906 317.69092l-4.7925415 0.5951538l4.053833 2.6246643z" fill-rule="evenodd"/><path fill="#000000" fill-opacity="0.0" d="m822.243 367.62848l-216.50397 -49.66928" fill-rule="evenodd"/><path stroke="#434343" stroke-width="1.0" stroke-linejoin="round" stroke-linecap="butt" d="m822.2429 367.62848l-210.65582 -48.327637" fill-rule="evenodd"/><path fill="#434343" stroke="#434343" stroke-width="1.0" stroke-linecap="butt" d="m611.9564 317.69092l-4.7925415 0.5951538l4.053894 2.6246643z" fill-rule="evenodd"/><path fill="#000000" fill-opacity="0.0" d="m790.3088 367.62848l-184.59845 -49.66928" fill-rule="evenodd"/><path stroke="#434343" stroke-width="1.0" stroke-linejoin="round" stroke-linecap="butt" d="m790.30884 367.62848l-178.80457 -48.11032" fill-rule="evenodd"/><path fill="#434343" stroke="#434343" stroke-width="1.0" stroke-linecap="butt" d="m611.9334 317.92316l-4.8114014 0.41586304l3.953125 2.7741394z" fill-rule="evenodd"/><path fill="#000000" fill-opacity="0.0" d="m758.37463 367.62848l-184.59845 -49.66928" fill-rule="evenodd"/><path stroke="#434343" stroke-width="1.0" stroke-linejoin="round" stroke-linecap="butt" d="m758.3746 367.62848l-178.8045 -48.11032" fill-rule="evenodd"/><path fill="#434343" stroke="#434343" stroke-width="1.0" stroke-linecap="butt" d="m579.99927 317.92316l-4.8114014 0.41586304l3.953064 2.7741394z" fill-rule="evenodd"/><path fill="#000000" fill-opacity="0.0" d="m726.4404 367.62848l-152.66144 -49.66928" fill-rule="evenodd"/><path stroke="#434343" stroke-width="1.0" stroke-linejoin="round" stroke-linecap="butt" d="m726.4404 367.62848l-146.95575 -47.812927" fill-rule="evenodd"/><path fill="#434343" stroke="#434343" stroke-width="1.0" stroke-linecap="butt" d="m579.99567 318.24487l-4.826477 0.16662598l3.8044434 2.9747314z" fill-rule="evenodd"/><path fill="#000000" fill-opacity="0.0" d="m694.5063 367.62848l-152.66144 -49.66928" fill-rule="evenodd"/><path stroke="#434343" stroke-width="1.0" stroke-linejoin="round" stroke-linecap="butt" d="m694.5062 367.62848l-146.95575 -47.812927" fill-rule="evenodd"/><path fill="#434343" stroke="#434343" stroke-width="1.0" stroke-linecap="butt" d="m548.0615 318.24487l-4.826477 0.16662598l3.8043823 2.9747314z" fill-rule="evenodd"/><path fill="#000000" fill-opacity="0.0" d="m662.5721 367.62848l-120.72443 -49.66928" fill-rule="evenodd"/><path stroke="#434343" stroke-width="1.0" stroke-linejoin="round" stroke-linecap="butt" d="m662.5721 367.62848l-115.17566 -47.386383" fill-rule="evenodd"/><path fill="#434343" stroke="#434343" stroke-width="1.0" stroke-linecap="butt" d="m548.02484 318.7146l-4.8251953 -0.19918823l3.5682983 3.254181z" fill-rule="evenodd"/><path fill="#000000" fill-opacity="0.0" d="m630.63794 367.62848l-120.72443 -49.66928" fill-rule="evenodd"/><path stroke="#434343" stroke-width="1.0" stroke-linejoin="round" stroke-linecap="butt" d="m630.63794 367.62848l-115.17572 -47.386383" fill-rule="evenodd"/><path fill="#434343" stroke="#434343" stroke-width="1.0" stroke-linecap="butt" d="m516.0907 318.7146l-4.825226 -0.19918823l3.5683289 3.254181z" fill-rule="evenodd"/><path fill="#000000" fill-opacity="0.0" d="m598.70374 367.62848l-88.787384 -49.66928" fill-rule="evenodd"/><path stroke="#434343" stroke-width="1.0" stroke-linejoin="round" stroke-linecap="butt" d="m598.70374 367.62848l-83.551025 -46.73999" fill-rule="evenodd"/><path fill="#434343" stroke="#434343" stroke-width="1.0" stroke-linecap="butt" d="m515.9591 319.447l-4.7669373 -0.77407837l3.1540833 3.657074z" fill-rule="evenodd"/><path fill="#000000" fill-opacity="0.0" d="m566.7696 367.62848l-88.787415 -49.66928" fill-rule="evenodd"/><path stroke="#434343" stroke-width="1.0" stroke-linejoin="round" stroke-linecap="butt" d="m566.7696 367.62848l-83.55109 -46.73999" fill-rule="evenodd"/><path fill="#434343" stroke="#434343" stroke-width="1.0" stroke-linecap="butt" d="m484.0249 319.447l-4.7669067 -0.77407837l3.1540833 3.657074z" fill-rule="evenodd"/><path fill="#000000" fill-opacity="0.0" d="m534.8354 367.62848l-56.850372 -49.66928" fill-rule="evenodd"/><path stroke="#434343" stroke-width="1.0" stroke-linejoin="round" stroke-linecap="butt" d="m534.83545 367.62848l-52.332 -45.72165" fill-rule="evenodd"/><path fill="#434343" stroke="#434343" stroke-width="1.0" stroke-linecap="butt" d="m483.59018 320.663l-4.504242 -1.7419434l2.3307495 4.2296753z" fill-rule="evenodd"/><path fill="#000000" fill-opacity="0.0" d="m502.90125 367.62848l-56.850403 -49.66928" fill-rule="evenodd"/><path stroke="#434343" stroke-width="1.0" stroke-linejoin="round" stroke-linecap="butt" d="m502.90125 367.62848l-52.33197 -45.72165" fill-rule="evenodd"/><path fill="#434343" stroke="#434343" stroke-width="1.0" stroke-linecap="butt" d="m451.656 320.663l-4.504242 -1.7419434l2.3307495 4.2296753z" fill-rule="evenodd"/><path fill="#000000" fill-opacity="0.0" d="m470.96707 367.62848l-24.913391 -49.66928" fill-rule="evenodd"/><path stroke="#434343" stroke-width="1.0" stroke-linejoin="round" stroke-linecap="butt" d="m470.96707 367.62848l-22.223297 -44.30612" fill-rule="evenodd"/><path fill="#434343" stroke="#434343" stroke-width="1.0" stroke-linecap="butt" d="m450.22018 322.58182l-3.5110474 -3.3158875l0.558197 4.7969666z" fill-rule="evenodd"/><path fill="#000000" fill-opacity="0.0" d="m439.0329 367.62848l-24.913391 -49.66928" fill-rule="evenodd"/><path stroke="#434343" stroke-width="1.0" stroke-linejoin="round" stroke-linecap="butt" d="m439.0329 367.62848l-22.223297 -44.30612" fill-rule="evenodd"/><path fill="#434343" stroke="#434343" stroke-width="1.0" stroke-linecap="butt" d="m418.286 322.58182l-3.511078 -3.3158875l0.55822754 4.7969666z" fill-rule="evenodd"/><path fill="#000000" fill-opacity="0.0" d="m407.09872 367.62848l7.0236206 -49.66928" fill-rule="evenodd"/><path stroke="#434343" stroke-width="1.0" stroke-linejoin="round" stroke-linecap="butt" d="m407.09872 367.62848l6.183502 -43.728394" fill-rule="evenodd"/><path fill="#434343" stroke="#434343" stroke-width="1.0" stroke-linecap="butt" d="m414.9177 324.13135l-1.000061 -4.72464l-2.2708435 4.2621155z" fill-rule="evenodd"/><path fill="#000000" fill-opacity="0.0" d="m375.1638 367.62848l7.0236206 -49.66928" fill-rule="evenodd"/><path stroke="#434343" stroke-width="1.0" stroke-linejoin="round" stroke-linecap="butt" d="m375.1638 367.62848l6.1835327 -43.728394" fill-rule="evenodd"/><path fill="#434343" stroke="#434343" stroke-width="1.0" stroke-linecap="butt" d="m382.9828 324.13135l-1.000061 -4.72464l-2.270874 4.2621155z" fill-rule="evenodd"/><path fill="#000000" fill-opacity="0.0" d="m343.2296 367.62848l38.960632 -49.66928" fill-rule="evenodd"/><path stroke="#434343" stroke-width="1.0" stroke-linejoin="round" stroke-linecap="butt" d="m343.2296 367.62848l35.257538 -44.948364" fill-rule="evenodd"/><path fill="#434343" stroke="#434343" stroke-width="1.0" stroke-linecap="butt" d="m379.78677 323.69952l1.5012207 -4.590088l-4.100464 2.5512695z" fill-rule="evenodd"/><path fill="#000000" fill-opacity="0.0" d="m311.29544 367.62848l38.960632 -49.66928" fill-rule="evenodd"/><path stroke="#434343" stroke-width="1.0" stroke-linejoin="round" stroke-linecap="butt" d="m311.29544 367.62848l35.257538 -44.948364" fill-rule="evenodd"/><path fill="#434343" stroke="#434343" stroke-width="1.0" stroke-linecap="butt" d="m347.8526 323.69952l1.5012207 -4.590088l-4.100464 2.5512695z" fill-rule="evenodd"/><path fill="#000000" fill-opacity="0.0" d="m279.36127 367.62848l70.897644 -49.66928" fill-rule="evenodd"/><path stroke="#434343" stroke-width="1.0" stroke-linejoin="round" stroke-linecap="butt" d="m279.36127 367.62848l65.98358 -46.226593" fill-rule="evenodd"/><path fill="#434343" stroke="#434343" stroke-width="1.0" stroke-linecap="butt" d="m346.29257 322.75467l2.7690125 -3.956665l-4.664459 1.2510986z" fill-rule="evenodd"/><path fill="#000000" fill-opacity="0.0" d="m247.42711 367.62848l70.89763 -49.66928" fill-rule="evenodd"/><path stroke="#434343" stroke-width="1.0" stroke-linejoin="round" stroke-linecap="butt" d="m247.42711 367.62848l65.98357 -46.226593" fill-rule="evenodd"/><path fill="#434343" stroke="#434343" stroke-width="1.0" stroke-linecap="butt" d="m314.35843 322.75467l2.7690125 -3.956665l-4.6644897 1.2510986z" fill-rule="evenodd"/><path fill="#000000" fill-opacity="0.0" d="m215.49294 367.62848l102.83464 -49.66928" fill-rule="evenodd"/><path stroke="#434343" stroke-width="1.0" stroke-linejoin="round" stroke-linecap="butt" d="m215.49292 367.62848l97.431854 -47.059723" fill-rule="evenodd"/><path fill="#434343" stroke="#434343" stroke-width="1.0" stroke-linecap="butt" d="m313.64316 322.0561l3.3680115 -3.46109l-4.804779 0.48641968z" fill-rule="evenodd"/><path fill="#000000" fill-opacity="0.0" d="m183.55876 367.62848l102.83464 -49.66928" fill-rule="evenodd"/><path stroke="#434343" stroke-width="1.0" stroke-linejoin="round" stroke-linecap="butt" d="m183.55876 367.62848l97.43184 -47.059723" fill-rule="evenodd"/><path fill="#434343" stroke="#434343" stroke-width="1.0" stroke-linecap="butt" d="m281.709 322.0561l3.3680115 -3.46109l-4.804779 0.48641968z" fill-rule="evenodd"/><path fill="#000000" fill-opacity="0.0" d="m151.62459 367.62848l134.77165 -49.66928" fill-rule="evenodd"/><path stroke="#434343" stroke-width="1.0" stroke-linejoin="round" stroke-linecap="butt" d="m151.62459 367.62848l129.14183 -47.59445" fill-rule="evenodd"/><path fill="#434343" stroke="#434343" stroke-width="1.0" stroke-linecap="butt" d="m281.3376 321.58386l3.6869507 -3.1191406l-4.829315 0.019470215z" fill-rule="evenodd"/><path fill="#000000" fill-opacity="0.0" d="m119.690414 367.62848l134.77165 -49.66928" fill-rule="evenodd"/><path stroke="#434343" stroke-width="1.0" stroke-linejoin="round" stroke-linecap="butt" d="m119.690414 367.62848l129.14182 -47.59445" fill-rule="evenodd"/><path fill="#434343" stroke="#434343" stroke-width="1.0" stroke-linecap="butt" d="m249.40341 321.58386l3.6869354 -3.1191406l-4.8293 0.019470215z" fill-rule="evenodd"/><path fill="#000000" fill-opacity="0.0" d="m87.75624 367.62848l166.67717 -49.66928" fill-rule="evenodd"/><path stroke="#434343" stroke-width="1.0" stroke-linejoin="round" stroke-linecap="butt" d="m87.75624 367.62848l160.92706 -47.95575" fill-rule="evenodd"/><path fill="#434343" stroke="#434343" stroke-width="1.0" stroke-linecap="butt" d="m249.15501 321.25565l3.8773804 -2.8789368l-4.820801 -0.28692627z" fill-rule="evenodd"/><path fill="#000000" fill-opacity="0.0" d="m55.82207 367.62848l166.67717 -49.66928" fill-rule="evenodd"/><path stroke="#434343" stroke-width="1.0" stroke-linejoin="round" stroke-linecap="butt" d="m55.82207 367.62848l160.92705 -47.95575" fill-rule="evenodd"/><path fill="#434343" stroke="#434343" stroke-width="1.0" stroke-linecap="butt" d="m217.22084 321.25565l3.8773804 -2.8789368l-4.820816 -0.28692627z" fill-rule="evenodd"/><path fill="#000000" fill-opacity="0.0" d="m23.887901 367.62848l198.61417 -49.66928" fill-rule="evenodd"/><path stroke="#434343" stroke-width="1.0" stroke-linejoin="round" stroke-linecap="butt" d="m23.887901 367.62848l192.79343 -48.213623" fill-rule="evenodd"/><path fill="#434343" stroke="#434343" stroke-width="1.0" stroke-linecap="butt" d="m217.08205 321.01724l4.0018005 -2.7033691l-4.803253 -0.5014038z" fill-rule="evenodd"/><path fill="#000000" fill-opacity="0.0" d="m886.11127 367.62848l-236.0 -62.11023" fill-rule="evenodd"/><path stroke="#ffffff" stroke-width="1.0" stroke-linejoin="round" stroke-linecap="butt" stroke-dasharray="4.0,3.0" d="m886.1113 367.62848l-230.19763 -60.58316" fill-rule="evenodd"/><path fill="#ffffff" stroke="#ffffff" stroke-width="1.0" stroke-linecap="butt" d="m656.3341 305.448l-4.809021 0.44232178l3.9682617 2.7523499z" fill-rule="evenodd"/><path fill="#000000" fill-opacity="0.0" d="m401.66272 49.24147l112.97638 55.149605" fill-rule="evenodd"/><path stroke="#ffffff" stroke-width="1.0" stroke-linejoin="round" stroke-linecap="butt" d="m401.66272 49.24147l107.58453 52.517555" fill-rule="evenodd"/><path fill="#ffffff" stroke="#ffffff" stroke-width="1.0" stroke-linecap="butt" d="m508.52267 103.24335l4.802704 0.5064316l-3.3535767 -3.4750748z" fill-rule="evenodd"/><path fill="#000000" fill-opacity="0.0" d="m527.092 116.833206l51.40161 46.29921" fill-rule="evenodd"/><path stroke="#ffffff" stroke-width="1.0" stroke-linejoin="round" stroke-linecap="butt" d="m527.092 116.83321l46.94348 42.283607" fill-rule="evenodd"/><path fill="#ffffff" stroke="#ffffff" stroke-width="1.0" stroke-linecap="butt" d="m572.93 160.3441l4.477356 1.8099213l-2.2664795 -4.2644653z" fill-rule="evenodd"/><path fill="#000000" fill-opacity="0.0" d="m590.9586 175.57336l18.48816 64.62991" fill-rule="evenodd"/><path stroke="#ffffff" stroke-width="1.0" stroke-linejoin="round" stroke-linecap="butt" d="m590.9586 175.57336l16.838013 58.861313" fill-rule="evenodd"/><path fill="#ffffff" stroke="#ffffff" stroke-width="1.0" stroke-linecap="butt" d="m606.2086 234.88895l2.8361206 3.9088135l0.3399048 -4.8173676z" fill-rule="evenodd"/><path fill="#ff1864" d="m625.20184 293.05106l24.913391 0l0 24.913391l-24.913391 0z" fill-rule="evenodd"/><path stroke="#ffffff" stroke-width="1.0" stroke-linejoin="round" stroke-linecap="butt" d="m625.20184 293.05106l24.913391 0l0 24.913391l-24.913391 0z" fill-rule="evenodd"/><path fill="#ff1864" d="m389.20602 24.328083l24.913391 0l0 24.913387l-24.913391 0z" fill-rule="evenodd"/><path stroke="#ffffff" stroke-width="1.0" stroke-linejoin="round" stroke-linecap="butt" d="m389.20602 24.328083l24.913391 0l0 24.913387l-24.913391 0z" fill-rule="evenodd"/><path fill="#000000" fill-opacity="0.0" d="m621.9153 252.6731l3.2755737 52.850403" fill-rule="evenodd"/><path stroke="#ffffff" stroke-width="1.0" stroke-linejoin="round" stroke-linecap="butt" d="m621.9153 252.67311l2.90448 46.861862" fill-rule="evenodd"/><path fill="#ffffff" stroke="#ffffff" stroke-width="1.0" stroke-linecap="butt" d="m623.1712 299.63718l1.9292603 4.4272156l1.3678589 -4.631592z" fill-rule="evenodd"/><path fill="#000000" fill-opacity="0.0" d="m637.65857 317.96445l236.0 62.11023" fill-rule="evenodd"/><path stroke="#ffffff" stroke-width="1.0" stroke-linejoin="round" stroke-linecap="butt" d="m637.65857 317.96445l230.19757 60.58316" fill-rule="evenodd"/><path fill="#ffffff" stroke="#ffffff" stroke-width="1.0" stroke-linecap="butt" d="m867.4357 380.14496l4.809082 -0.4423523l-3.9683228 -2.7523499z" fill-rule="evenodd"/><path fill="#ff1864" d="m33.665863 58.804337l19.2126 0l0 19.212593l-19.2126 0z" fill-rule="evenodd"/><path stroke="#ffffff" stroke-width="1.0" stroke-linejoin="round" stroke-linecap="butt" d="m33.665863 58.804337l19.2126 0l0 19.212593l-19.2126 0z" fill-rule="evenodd"/><path fill="#000000" fill-opacity="0.0" d="m57.51038 51.459316l166.67717 0l0 33.82677l-166.67717 0z" fill-rule="evenodd"/><path fill="#ffffff" d="m78.010376 75.2927l-1.125 0l0 -6.359375l-7.578125 0l0 6.359375l-1.125 0l0 -13.265625l1.125 0l0 5.953125l7.578125 0l0 -5.953125l1.125 0l0 13.265625zm9.340286 0q-0.15625 -0.46875 -0.203125 -1.375q-0.578125 0.75 -1.46875 1.15625q-0.890625 0.40625 -1.875 0.40625q-1.421875 0 -2.3125 -0.796875q-0.875 -0.796875 -0.875 -2.0q0 -1.4375 1.203125 -2.28125q1.203125 -0.84375 3.34375 -0.84375l1.96875 0l0 -1.109375q0 -1.0625 -0.65625 -1.671875q-0.640625 -0.609375 -1.890625 -0.609375q-1.140625 0 -1.890625 0.59375q-0.75 0.578125 -0.75 1.40625l-1.09375 -0.015625q0 -1.171875 1.09375 -2.03125q1.09375 -0.859375 2.6875 -0.859375q1.65625 0 2.609375 0.828125q0.953125 0.8125 0.984375 2.28125l0 4.671875q0 1.4375 0.296875 2.140625l0 0.109375l-1.171875 0zm-3.421875 -0.78125q1.09375 0 1.953125 -0.53125q0.859375 -0.53125 1.25 -1.40625l0 -2.171875l-1.953125 0q-1.625 0.015625 -2.546875 0.59375q-0.921875 0.578125 -0.921875 1.59375q0 0.828125 0.609375 1.375q0.625 0.546875 1.609375 0.546875zm13.102493 -1.71875q0 -0.8125 -0.65625 -1.296875q-0.65625 -0.5 -1.96875 -0.78125q-1.3125 -0.28125 -2.03125 -0.640625q-0.71875 -0.359375 -1.078125 -0.875q-0.34375 -0.515625 -0.34375 -1.25q0 -1.171875 0.96875 -1.921875q0.984375 -0.765625 2.5 -0.765625q1.65625 0 2.640625 0.8125q1.0 0.8125 1.0 2.125l-1.09375 0q0 -0.875 -0.71875 -1.4375q-0.71875 -0.578125 -1.828125 -0.578125q-1.078125 0 -1.734375 0.484375q-0.640625 0.46875 -0.640625 1.234375q0 0.734375 0.53125 1.140625q0.546875 0.40625 1.984375 0.75q1.4375 0.328125 2.140625 0.71875q0.71875 0.375 1.0625 0.921875q0.359375 0.53125 0.359375 1.296875q0 1.25 -1.015625 2.0q-1.0 0.75 -2.625 0.75q-1.71875 0 -2.796875 -0.828125q-1.0625 -0.84375 -1.0625 -2.125l1.09375 0q0.0625 0.96875 0.796875 1.5q0.75 0.53125 1.96875 0.53125q1.140625 0 1.84375 -0.5q0.703125 -0.5 0.703125 -1.265625zm4.6184235 -5.6875q0.546875 -0.890625 1.375 -1.359375q0.84375 -0.484375 1.84375 -0.484375q1.578125 0 2.34375 0.890625q0.78125 0.890625 0.796875 2.671875l0 6.46875l-1.09375 0l0 -6.484375q0 -1.3125 -0.5625 -1.953125q-0.546875 -0.65625 -1.75 -0.65625q-1.015625 0 -1.796875 0.640625q-0.78125 0.625 -1.15625 1.703125l0 6.75l-1.078125 0l0 -14.0l1.078125 0l0 5.8125zm23.338104 4.046875q-0.21875 2.09375 -1.5 3.21875q-1.265625 1.109375 -3.375 1.109375q-1.484375 0 -2.625 -0.734375q-1.125 -0.75 -1.75 -2.09375q-0.609375 -1.359375 -0.625 -3.09375l0 -1.71875q0 -1.78125 0.625 -3.140625q0.625 -1.359375 1.78125 -2.109375q1.15625 -0.75 2.671875 -0.75q2.140625 0 3.375 1.15625q1.234375 1.15625 1.421875 3.1875l-1.125 0q-0.421875 -3.375 -3.671875 -3.375q-1.796875 0 -2.875 1.34375q-1.0625 1.34375 -1.0625 3.71875l0 1.625q0 2.296875 1.03125 3.671875q1.046875 1.359375 2.828125 1.359375q1.75 0 2.640625 -0.84375q0.90625 -0.84375 1.109375 -2.53125l1.125 0zm8.693756 4.140625q-0.15625 -0.46875 -0.203125 -1.375q-0.578125 0.75 -1.46875 1.15625q-0.890625 0.40625 -1.875 0.40625q-1.421875 0 -2.3125 -0.796875q-0.875 -0.796875 -0.875 -2.0q0 -1.4375 1.203125 -2.28125q1.203125 -0.84375 3.34375 -0.84375l1.96875 0l0 -1.109375q0 -1.0625 -0.65625 -1.671875q-0.640625 -0.609375 -1.890625 -0.609375q-1.140625 0 -1.890625 0.59375q-0.75 0.578125 -0.75 1.40625l-1.09375 -0.015625q0 -1.171875 1.09375 -2.03125q1.09375 -0.859375 2.6875 -0.859375q1.65625 0 2.609375 0.828125q0.953125 0.8125 0.984375 2.28125l0 4.671875q0 1.4375 0.296875 2.140625l0 0.109375l-1.171875 0zm-3.421875 -0.78125q1.09375 0 1.953125 -0.53125q0.859375 -0.53125 1.25 -1.40625l0 -2.171875l-1.953125 0q-1.625 0.015625 -2.546875 0.59375q-0.921875 0.578125 -0.921875 1.59375q0 0.828125 0.609375 1.375q0.625 0.546875 1.609375 0.546875zm8.414993 0.78125l-1.09375 0l0 -14.0l1.09375 0l0 14.0zm6.603134 -0.734375q1.140625 0 1.90625 -0.640625q0.78125 -0.640625 0.84375 -1.671875l1.046875 0q-0.046875 0.90625 -0.578125 1.65625q-0.515625 0.734375 -1.375 1.15625q-0.859375 0.421875 -1.84375 0.421875q-1.9375 0 -3.078125 -1.34375q-1.125 -1.359375 -1.125 -3.640625l0 -0.328125q0 -1.453125 0.5 -2.5625q0.515625 -1.125 1.46875 -1.734375q0.953125 -0.609375 2.234375 -0.609375q1.609375 0 2.65625 0.96875q1.0625 0.953125 1.140625 2.53125l-1.046875 0q-0.078125 -1.15625 -0.84375 -1.859375q-0.75 -0.71875 -1.90625 -0.71875q-1.484375 0 -2.296875 1.0625q-0.8125 1.0625 -0.8125 2.984375l0 0.328125q0 1.890625 0.8125 2.953125q0.8125 1.046875 2.296875 1.046875zm12.313644 -0.515625q-0.984375 1.4375 -3.140625 1.4375q-1.578125 0 -2.40625 -0.921875q-0.8125 -0.921875 -0.828125 -2.703125l0 -6.421875l1.078125 0l0 6.28125q0 2.8125 2.28125 2.8125q2.359375 0 3.0 -1.953125l0 -7.140625l1.09375 0l0 9.859375l-1.0625 0l-0.015625 -1.25zm5.123184 1.25l-1.09375 0l0 -14.0l1.09375 0l0 14.0zm9.181259 0q-0.15625 -0.46875 -0.203125 -1.375q-0.578125 0.75 -1.46875 1.15625q-0.890625 0.40625 -1.875 0.40625q-1.421875 0 -2.3125 -0.796875q-0.875 -0.796875 -0.875 -2.0q0 -1.4375 1.203125 -2.28125q1.203125 -0.84375 3.34375 -0.84375l1.96875 0l0 -1.109375q0 -1.0625 -0.65625 -1.671875q-0.640625 -0.609375 -1.890625 -0.609375q-1.140625 0 -1.890625 0.59375q-0.75 0.578125 -0.75 1.40625l-1.09375 -0.015625q0 -1.171875 1.09375 -2.03125q1.09375 -0.859375 2.6875 -0.859375q1.65625 0 2.609375 0.828125q0.953125 0.8125 0.984375 2.28125l0 4.671875q0 1.4375 0.296875 2.140625l0 0.109375l-1.171875 0zm-3.421875 -0.78125q1.09375 0 1.953125 -0.53125q0.859375 -0.53125 1.25 -1.40625l0 -2.171875l-1.953125 0q-1.625 0.015625 -2.546875 0.59375q-0.921875 0.578125 -0.921875 1.59375q0 0.828125 0.609375 1.375q0.625 0.546875 1.609375 0.546875zm8.883743 -11.59375l0 2.515625l2.046875 0l0 0.890625l-2.046875 0l0 6.578125q0 0.8125 0.296875 1.21875q0.296875 0.390625 1.0 0.390625q0.265625 0 0.875 -0.078125l0.046875 0.890625q-0.421875 0.15625 -1.171875 0.15625q-1.109375 0 -1.625 -0.65625q-0.515625 -0.65625 -0.515625 -1.921875l0 -6.578125l-1.8125 0l0 -0.890625l1.8125 0l0 -2.515625l1.09375 0zm5.525299 12.375l-1.09375 0l0 -9.859375l1.09375 0l0 9.859375zm-1.28125 -12.703125q0 -0.3125 0.203125 -0.53125q0.203125 -0.21875 0.546875 -0.21875q0.34375 0 0.546875 0.21875q0.203125 0.21875 0.203125 0.53125q0 0.3125 -0.203125 0.515625q-0.203125 0.203125 -0.546875 0.203125q-0.34375 0 -0.546875 -0.203125q-0.203125 -0.203125 -0.203125 -0.515625zm3.6343842 7.625q0 -1.421875 0.546875 -2.546875q0.5625 -1.140625 1.5625 -1.765625q1.015625 -0.640625 2.28125 -0.640625q1.96875 0 3.1875 1.375q1.234375 1.375 1.234375 3.65625l0 0.234375q0 1.421875 -0.5625 2.5625q-0.546875 1.140625 -1.546875 1.765625q-1.0 0.625 -2.28125 0.625q-1.96875 0 -3.203125 -1.375q-1.21875 -1.390625 -1.21875 -3.671875l0 -0.21875zm1.09375 0.3125q0 1.765625 0.921875 2.90625q0.921875 1.125 2.40625 1.125q1.46875 0 2.375 -1.125q0.921875 -1.140625 0.921875 -3.0l0 -0.21875q0 -1.125 -0.421875 -2.0625q-0.40625 -0.9375 -1.171875 -1.453125q-0.75 -0.515625 -1.734375 -0.515625q-1.453125 0 -2.375 1.140625q-0.921875 1.140625 -0.921875 3.0l0 0.203125zm10.995468 -5.09375l0.046875 1.6875q0.546875 -0.90625 1.375 -1.375q0.828125 -0.484375 1.84375 -0.484375q1.578125 0 2.34375 0.890625q0.78125 0.890625 0.796875 2.671875l0 6.46875l-1.09375 0l0 -6.484375q0 -1.3125 -0.5625 -1.953125q-0.546875 -0.65625 -1.75 -0.65625q-1.015625 0 -1.796875 0.640625q-0.78125 0.625 -1.15625 1.703125l0 6.75l-1.078125 0l0 -9.859375l1.03125 0z" fill-rule="nonzero"/><path fill="#000000" fill-opacity="0.0" d="m57.51126 11.459995l145.73228 0l0 33.82677l-145.73228 0z" fill-rule="evenodd"/><path fill="#ffffff" d="m75.69876 32.027756q0 -1.0937519 -0.78125 -1.7343769q-0.765625 -0.640625 -2.828125 -1.21875q-2.0625 -0.59375 -3.015625 -1.265625q-1.34375 -0.96875 -1.34375 -2.53125q0 -1.53125 1.25 -2.484375q1.25 -0.953125 3.203125 -0.953125q1.328125 0 2.359375 0.515625q1.046875 0.515625 1.625 1.421875q0.578125 0.90625 0.578125 2.03125l-1.140625 0q0 -1.359375 -0.9375 -2.171875q-0.921875 -0.828125 -2.484375 -0.828125q-1.515625 0 -2.421875 0.6875q-0.90625 0.671875 -0.90625 1.765625q0 1.0 0.8125 1.640625q0.8125 0.640625 2.59375 1.125q1.796875 0.484375 2.703125 1.015625q0.921875 0.515625 1.390625 1.25q0.46875 0.734375 0.46875 1.7187519q0 1.5625 -1.25 2.515625q-1.25 0.953125 -3.3125 0.953125q-1.390625 0 -2.5625 -0.5q-1.171875 -0.5 -1.78125 -1.40625q-0.609375 -0.90625 -0.609375 -2.078127l1.125 0q0 1.4062519 1.046875 2.218752q1.046875 0.8125 2.78125 0.8125q1.5625 0 2.5 -0.671875q0.9375 -0.6875 0.9375 -1.828125zm4.971695 -9.109377l0 2.515625l2.046875 0l0 0.890625l-2.046875 0l0 6.578127q0 0.8125 0.296875 1.21875q0.296875 0.390625 1.0 0.390625q0.265625 0 0.875 -0.078125l0.046875 0.890625q-0.421875 0.15625 -1.171875 0.15625q-1.109375 0 -1.625 -0.65625q-0.515625 -0.65625 -0.515625 -1.921875l0 -6.578127l-1.8125 0l0 -0.890625l1.8125 0l0 -2.515625l1.09375 0zm3.5148773 7.296875q0 -1.421875 0.546875 -2.546875q0.5625 -1.140625 1.5625 -1.765625q1.015625 -0.640625 2.28125 -0.640625q1.96875 0 3.1875 1.375q1.234375 1.375 1.234375 3.65625l0 0.234375q0 1.421875 -0.5625 2.562502q-0.546875 1.140625 -1.546875 1.765625q-1.0 0.625 -2.28125 0.625q-1.96875 0 -3.203125 -1.375q-1.21875 -1.390625 -1.21875 -3.671877l0 -0.21875zm1.09375 0.3125q0 1.7656269 0.921875 2.906252q0.921875 1.125 2.40625 1.125q1.46875 0 2.375 -1.125q0.921875 -1.140625 0.921875 -3.000002l0 -0.21875q0 -1.125 -0.421875 -2.0625q-0.40625 -0.9375 -1.171875 -1.453125q-0.75 -0.515625 -1.734375 -0.515625q-1.453125 0 -2.375 1.140625q-0.921875 1.140625 -0.921875 3.0l0 0.203125zm14.511093 -4.15625q-0.34375 -0.0625 -0.734375 -0.0625q-1.015625 0 -1.71875 0.5625q-0.703125 0.5625 -1.015625 1.65625l0 6.765627l-1.078125 0l0 -9.859377l1.0625 0l0.015625 1.5625q0.875 -1.734375 2.78125 -1.734375q0.453125 0 0.71875 0.109375l-0.03125 1.0zm7.58374 8.921877q-0.15625 -0.46875 -0.203125 -1.375q-0.578125 0.75 -1.46875 1.15625q-0.890625 0.40625 -1.875 0.40625q-1.421875 0 -2.3125 -0.796875q-0.875 -0.796875 -0.875 -2.0q0 -1.4375019 1.203125 -2.281252q1.203125 -0.84375 3.34375 -0.84375l1.96875 0l0 -1.109375q0 -1.0625 -0.65625 -1.671875q-0.640625 -0.609375 -1.890625 -0.609375q-1.140625 0 -1.890625 0.59375q-0.75 0.578125 -0.75 1.40625l-1.09375 -0.015625q0 -1.171875 1.09375 -2.03125q1.09375 -0.859375 2.6875 -0.859375q1.65625 0 2.609375 0.828125q0.953125 0.8125 0.984375 2.28125l0 4.671877q0 1.4375 0.296875 2.140625l0 0.109375l-1.171875 0zm-3.421875 -0.78125q1.09375 0 1.953125 -0.53125q0.859375 -0.53125 1.25 -1.40625l0 -2.171877l-1.953125 0q-1.625 0.015625 -2.546875 0.59375q-0.921875 0.578125 -0.921875 1.5937519q0 0.828125 0.609375 1.375q0.625 0.546875 1.609375 0.546875zm6.7587433 -4.234377q0 -2.3125 1.015625 -3.65625q1.03125 -1.359375 2.796875 -1.359375q2.015625 0 3.0625 1.59375l0.046875 -1.421875l1.015625 0l0 9.656252q0 1.90625 -1.0625 3.015625q-1.0625 1.109375 -2.890625 1.109375q-1.03125 0 -1.96875 -0.46875q-0.921875 -0.453125 -1.453125 -1.21875l0.609375 -0.65625q1.15625 1.421875 2.75 1.421875q1.359375 0 2.125 -0.8125q0.765625 -0.796875 0.796875 -2.21875l0 -1.25q-1.046875 1.46875 -3.0625 1.46875q-1.703125 0 -2.75 -1.359375q-1.03125 -1.375 -1.03125 -3.703127l0 -0.140625zm1.109375 0.1875q0 1.8906269 0.75 2.984377q0.75 1.078125 2.125 1.078125q2.015625 0 2.859375 -1.796875l0 -4.593752q-0.390625 -0.9375 -1.109375 -1.4375q-0.71875 -0.5 -1.734375 -0.5q-1.375 0 -2.140625 1.078125q-0.75 1.078125 -0.75 3.1875zm13.489014 5.015627q-1.25 0 -2.265625 -0.625q-1.015625 -0.625 -1.59375 -1.71875q-0.5625 -1.109375 -0.5625 -2.484377l0 -0.390625q0 -1.421875 0.546875 -2.5625q0.5625 -1.140625 1.546875 -1.78125q0.984375 -0.65625 2.125 -0.65625q1.796875 0 2.84375 1.21875q1.0625 1.21875 1.0625 3.34375l0 0.609375l-7.03125 0l0 0.21875q0 1.6718769 0.953125 2.796877q0.96875 1.109375 2.421875 1.109375q0.875 0 1.546875 -0.3125q0.671875 -0.328125 1.21875 -1.03125l0.6875 0.515625q-1.203125 1.75 -3.5 1.75zm-0.203125 -9.296877q-1.21875 0 -2.0625 0.90625q-0.84375 0.890625 -1.03125 2.421875l5.921875 0l0 -0.125q-0.046875 -1.421875 -0.8125 -2.3125q-0.765625 -0.890625 -2.015625 -0.890625zm15.768127 3.59375l-3.84375 0l0 5.515627l-1.125 0l0 -13.265627l4.296875 0q2.125 0 3.3125 1.03125q1.203125 1.03125 1.203125 2.875q0 1.28125 -0.75 2.265625q-0.75 0.96875 -2.0 1.34375l3.3125 5.625002l0 0.125l-1.1875 0l-3.21875 -5.515627zm-3.84375 -0.96875l3.4375 0q1.40625 0 2.265625 -0.796875q0.859375 -0.796875 0.859375 -2.078125q0 -1.40625 -0.90625 -2.171875q-0.890625 -0.78125 -2.5 -0.78125l-3.15625 0l0 5.828125zm14.295471 6.671877q-1.25 0 -2.265625 -0.625q-1.015625 -0.625 -1.59375 -1.71875q-0.5625 -1.109375 -0.5625 -2.484377l0 -0.390625q0 -1.421875 0.546875 -2.5625q0.5625 -1.140625 1.546875 -1.78125q0.984375 -0.65625 2.125 -0.65625q1.796875 0 2.84375 1.21875q1.0625 1.21875 1.0625 3.34375l0 0.609375l-7.03125 0l0 0.21875q0 1.6718769 0.953125 2.796877q0.96875 1.109375 2.421875 1.109375q0.875 0 1.546875 -0.3125q0.671875 -0.328125 1.21875 -1.03125l0.6875 0.515625q-1.203125 1.75 -3.5 1.75zm-0.203125 -9.296877q-1.21875 0 -2.0625 0.90625q-0.84375 0.890625 -1.03125 2.421875l5.921875 0l0 -0.125q-0.046875 -1.421875 -0.8125 -2.3125q-0.765625 -0.890625 -2.015625 -0.890625zm12.247223 9.109377q-0.15625 -0.46875 -0.203125 -1.375q-0.578125 0.75 -1.46875 1.15625q-0.890625 0.40625 -1.875 0.40625q-1.421875 0 -2.3125 -0.796875q-0.875 -0.796875 -0.875 -2.0q0 -1.4375019 1.203125 -2.281252q1.203125 -0.84375 3.34375 -0.84375l1.96875 0l0 -1.109375q0 -1.0625 -0.65625 -1.671875q-0.640625 -0.609375 -1.890625 -0.609375q-1.140625 0 -1.890625 0.59375q-0.75 0.578125 -0.75 1.40625l-1.09375 -0.015625q0 -1.171875 1.09375 -2.03125q1.09375 -0.859375 2.6875 -0.859375q1.65625 0 2.609375 0.828125q0.953125 0.8125 0.984375 2.28125l0 4.671877q0 1.4375 0.296875 2.140625l0 0.109375l-1.171875 0zm-3.421875 -0.78125q1.09375 0 1.953125 -0.53125q0.859375 -0.53125 1.25 -1.40625l0 -2.171877l-1.953125 0q-1.625 0.015625 -2.546875 0.59375q-0.921875 0.578125 -0.921875 1.5937519q0 0.828125 0.609375 1.375q0.625 0.546875 1.609375 0.546875zm6.7587433 -4.234377q0 -2.296875 1.015625 -3.65625q1.03125 -1.359375 2.796875 -1.359375q1.984375 0 3.03125 1.5625l0 -5.53125l1.09375 0l0 14.000002l-1.03125 0l-0.03125 -1.3125q-1.046875 1.5 -3.09375 1.5q-1.703125 0 -2.75 -1.375q-1.03125 -1.375 -1.03125 -3.703127l0 -0.125zm1.109375 0.1875q0 1.8906269 0.75 2.984377q0.75 1.078125 2.125 1.078125q2.015625 0 2.859375 -1.78125l0 -4.625002q-0.84375 -1.921875 -2.84375 -1.921875q-1.375 0 -2.140625 1.078125q-0.75 1.078125 -0.75 3.1875z" fill-rule="nonzero"/><path fill="#000000" fill-opacity="0.0" d="m57.51126 91.46l145.73228 0l0 33.826767l-145.73228 0z" fill-rule="evenodd"/><path fill="#ffffff" d="m75.69876 112.027756q0 -1.09375 -0.78125 -1.734375q-0.765625 -0.640625 -2.828125 -1.21875q-2.0625 -0.59375 -3.015625 -1.265625q-1.34375 -0.96875 -1.34375 -2.53125q0 -1.53125 1.25 -2.484375q1.25 -0.953125 3.203125 -0.953125q1.328125 0 2.359375 0.515625q1.046875 0.515625 1.625 1.421875q0.578125 0.90625 0.578125 2.03125l-1.140625 0q0 -1.359375 -0.9375 -2.171875q-0.921875 -0.828125 -2.484375 -0.828125q-1.515625 0 -2.421875 0.6875q-0.90625 0.671875 -0.90625 1.765625q0 1.0 0.8125 1.640625q0.8125 0.640625 2.59375 1.125q1.796875 0.484375 2.703125 1.015625q0.921875 0.515625 1.390625 1.25q0.46875 0.734375 0.46875 1.71875q0 1.5625 -1.25 2.515625q-1.25 0.953125 -3.3125 0.953125q-1.390625 0 -2.5625 -0.5q-1.171875 -0.5 -1.78125 -1.40625q-0.609375 -0.90625 -0.609375 -2.078125l1.125 0q0 1.40625 1.046875 2.21875q1.046875 0.8125 2.78125 0.8125q1.5625 0 2.5 -0.671875q0.9375 -0.6875 0.9375 -1.828125zm4.971695 -9.109375l0 2.515625l2.046875 0l0 0.890625l-2.046875 0l0 6.578125q0 0.8125 0.296875 1.21875q0.296875 0.390625 1.0 0.390625q0.265625 0 0.875 -0.078125l0.046875 0.890625q-0.421875 0.15625 -1.171875 0.15625q-1.109375 0 -1.625 -0.65625q-0.515625 -0.65625 -0.515625 -1.921875l0 -6.578125l-1.8125 0l0 -0.890625l1.8125 0l0 -2.515625l1.09375 0zm3.5148773 7.296875q0 -1.421875 0.546875 -2.546875q0.5625 -1.140625 1.5625 -1.765625q1.015625 -0.640625 2.28125 -0.640625q1.96875 0 3.1875 1.375q1.234375 1.375 1.234375 3.65625l0 0.234375q0 1.421875 -0.5625 2.5625q-0.546875 1.140625 -1.546875 1.765625q-1.0 0.625 -2.28125 0.625q-1.96875 0 -3.203125 -1.375q-1.21875 -1.390625 -1.21875 -3.671875l0 -0.21875zm1.09375 0.3125q0 1.765625 0.921875 2.90625q0.921875 1.125 2.40625 1.125q1.46875 0 2.375 -1.125q0.921875 -1.140625 0.921875 -3.0l0 -0.21875q0 -1.125 -0.421875 -2.0625q-0.40625 -0.9375 -1.171875 -1.453125q-0.75 -0.515625 -1.734375 -0.515625q-1.453125 0 -2.375 1.140625q-0.921875 1.140625 -0.921875 3.0l0 0.203125zm14.511093 -4.15625q-0.34375 -0.0625 -0.734375 -0.0625q-1.015625 0 -1.71875 0.5625q-0.703125 0.5625 -1.015625 1.65625l0 6.765625l-1.078125 0l0 -9.859375l1.0625 0l0.015625 1.5625q0.875 -1.734375 2.78125 -1.734375q0.453125 0 0.71875 0.109375l-0.03125 1.0zm7.58374 8.921875q-0.15625 -0.46875 -0.203125 -1.375q-0.578125 0.75 -1.46875 1.15625q-0.890625 0.40625 -1.875 0.40625q-1.421875 0 -2.3125 -0.796875q-0.875 -0.796875 -0.875 -2.0q0 -1.4375 1.203125 -2.28125q1.203125 -0.84375 3.34375 -0.84375l1.96875 0l0 -1.109375q0 -1.0625 -0.65625 -1.671875q-0.640625 -0.609375 -1.890625 -0.609375q-1.140625 0 -1.890625 0.59375q-0.75 0.578125 -0.75 1.40625l-1.09375 -0.015625q0 -1.171875 1.09375 -2.03125q1.09375 -0.859375 2.6875 -0.859375q1.65625 0 2.609375 0.828125q0.953125 0.8125 0.984375 2.28125l0 4.671875q0 1.4375 0.296875 2.140625l0 0.109375l-1.171875 0zm-3.421875 -0.78125q1.09375 0 1.953125 -0.53125q0.859375 -0.53125 1.25 -1.40625l0 -2.171875l-1.953125 0q-1.625 0.015625 -2.546875 0.59375q-0.921875 0.578125 -0.921875 1.59375q0 0.828125 0.609375 1.375q0.625 0.546875 1.609375 0.546875zm6.7587433 -4.234375q0 -2.3125 1.015625 -3.65625q1.03125 -1.359375 2.796875 -1.359375q2.015625 0 3.0625 1.59375l0.046875 -1.421875l1.015625 0l0 9.65625q0 1.90625 -1.0625 3.015625q-1.0625 1.109375 -2.890625 1.109375q-1.03125 0 -1.96875 -0.46875q-0.921875 -0.453125 -1.453125 -1.21875l0.609375 -0.65625q1.15625 1.421875 2.75 1.421875q1.359375 0 2.125 -0.8125q0.765625 -0.796875 0.796875 -2.21875l0 -1.25q-1.046875 1.46875 -3.0625 1.46875q-1.703125 0 -2.75 -1.359375q-1.03125 -1.375 -1.03125 -3.703125l0 -0.140625zm1.109375 0.1875q0 1.890625 0.75 2.984375q0.75 1.078125 2.125 1.078125q2.015625 0 2.859375 -1.796875l0 -4.59375q-0.390625 -0.9375 -1.109375 -1.4375q-0.71875 -0.5 -1.734375 -0.5q-1.375 0 -2.140625 1.078125q-0.75 1.078125 -0.75 3.1875zm13.489014 5.015625q-1.25 0 -2.265625 -0.625q-1.015625 -0.625 -1.59375 -1.71875q-0.5625 -1.109375 -0.5625 -2.484375l0 -0.390625q0 -1.421875 0.546875 -2.5625q0.5625 -1.140625 1.546875 -1.78125q0.984375 -0.65625 2.125 -0.65625q1.796875 0 2.84375 1.21875q1.0625 1.21875 1.0625 3.34375l0 0.609375l-7.03125 0l0 0.21875q0 1.671875 0.953125 2.796875q0.96875 1.109375 2.421875 1.109375q0.875 0 1.546875 -0.3125q0.671875 -0.328125 1.21875 -1.03125l0.6875 0.515625q-1.203125 1.75 -3.5 1.75zm-0.203125 -9.296875q-1.21875 0 -2.0625 0.90625q-0.84375 0.890625 -1.03125 2.421875l5.921875 0l0 -0.125q-0.046875 -1.421875 -0.8125 -2.3125q-0.765625 -0.890625 -2.015625 -0.890625zm13.268127 5.53125l0.40625 2.0625l0.5 -1.96875l2.890625 -9.78125l1.0 0l2.84375 9.78125l0.5 1.984375l0.4375 -2.078125l2.390625 -9.6875l1.15625 0l-3.40625 13.265625l-1.078125 0l-3.0 -10.375l-0.34375 -1.3125l-0.328125 1.3125l-3.078125 10.375l-1.078125 0l-3.375 -13.265625l1.140625 0l2.421875 9.6875zm18.37738 -5.34375q-0.34375 -0.0625 -0.734375 -0.0625q-1.015625 0 -1.71875 0.5625q-0.703125 0.5625 -1.015625 1.65625l0 6.765625l-1.078125 0l0 -9.859375l1.0625 0l0.015625 1.5625q0.875 -1.734375 2.78125 -1.734375q0.453125 0 0.71875 0.109375l-0.03125 1.0zm2.9483185 8.921875l-1.09375 0l0 -9.859375l1.09375 0l0 9.859375zm-1.28125 -12.703125q0 -0.3125 0.203125 -0.53125q0.203125 -0.21875 0.546875 -0.21875q0.34375 0 0.546875 0.21875q0.203125 0.21875 0.203125 0.53125q0 0.3125 -0.203125 0.515625q-0.203125 0.203125 -0.546875 0.203125q-0.34375 0 -0.546875 -0.203125q-0.203125 -0.203125 -0.203125 -0.515625zm5.931259 0.328125l0 2.515625l2.046875 0l0 0.890625l-2.046875 0l0 6.578125q0 0.8125 0.296875 1.21875q0.296875 0.390625 1.0 0.390625q0.265625 0 0.875 -0.078125l0.046875 0.890625q-0.421875 0.15625 -1.171875 0.15625q-1.109375 0 -1.625 -0.65625q-0.515625 -0.65625 -0.515625 -1.921875l0 -6.578125l-1.8125 0l0 -0.890625l1.8125 0l0 -2.515625l1.09375 0zm8.119049 12.5625q-1.25 0 -2.265625 -0.625q-1.015625 -0.625 -1.59375 -1.71875q-0.5625 -1.109375 -0.5625 -2.484375l0 -0.390625q0 -1.421875 0.546875 -2.5625q0.5625 -1.140625 1.546875 -1.78125q0.984375 -0.65625 2.125 -0.65625q1.796875 0 2.84375 1.21875q1.0625 1.21875 1.0625 3.34375l0 0.609375l-7.03125 0l0 0.21875q0 1.671875 0.953125 2.796875q0.96875 1.109375 2.421875 1.109375q0.875 0 1.546875 -0.3125q0.671875 -0.328125 1.21875 -1.03125l0.6875 0.515625q-1.203125 1.75 -3.5 1.75zm-0.203125 -9.296875q-1.21875 0 -2.0625 0.90625q-0.84375 0.890625 -1.03125 2.421875l5.921875 0l0 -0.125q-0.046875 -1.421875 -0.8125 -2.3125q-0.765625 -0.890625 -2.015625 -0.890625z" fill-rule="nonzero"/><path fill="#000000" fill-opacity="0.0" d="m30.720472 28.409449l25.102362 0" fill-rule="evenodd"/><path stroke="#ffffff" stroke-width="1.0" stroke-linejoin="round" stroke-linecap="butt" d="m30.720472 28.409449l25.102362 0" fill-rule="evenodd"/><path fill="#000000" fill-opacity="0.0" d="m30.720472 108.40945l25.102362 0" fill-rule="evenodd"/><path stroke="#ffffff" stroke-width="1.0" stroke-linejoin="round" stroke-linecap="butt" stroke-dasharray="4.0,3.0" d="m30.720472 108.40945l25.102362 0" fill-rule="evenodd"/></g></svg>