<svg version="1.1" viewBox="0.0 0.0 232.0 170.0" fill="none" stroke="none" stroke-linecap="square" stroke-miterlimit="10" xmlns:xlink="http://www.w3.org/1999/xlink" xmlns="http://www.w3.org/2000/svg"><clipPath id="p.0"><path d="m0 0l232.0 0l0 170.0l-232.0 0l0 -170.0z" clip-rule="nonzero"/></clipPath><g clip-path="url(#p.0)"><path fill="#000000" fill-opacity="0.0" d="m0 0l232.0 0l0 170.0l-232.0 0z" fill-rule="evenodd"/><path fill="#b7b7b7" d="m3.9392524 138.25972l24.913385 0l0 24.913376l-24.913385 0z" fill-rule="evenodd"/><path stroke="#ffffff" stroke-width="1.0" stroke-linejoin="round" stroke-linecap="butt" d="m3.9392524 138.25972l24.913385 0l0 24.913376l-24.913385 0z" fill-rule="evenodd"/><path fill="#b7b7b7" d="m43.675938 138.25972l24.913387 0l0 24.913376l-24.913387 0z" fill-rule="evenodd"/><path stroke="#ffffff" stroke-width="1.0" stroke-linejoin="round" stroke-linecap="butt" d="m43.675938 138.25972l24.913387 0l0 24.913376l-24.913387 0z" fill-rule="evenodd"/><path fill="#b7b7b7" d="m83.54428 138.25972l24.913383 0l0 24.913376l-24.913383 0z" fill-rule="evenodd"/><path stroke="#ffffff" stroke-width="1.0" stroke-linejoin="round" stroke-linecap="butt" d="m83.54428 138.25972l24.913383 0l0 24.913376l-24.913383 0z" fill-rule="evenodd"/><path fill="#b7b7b7" d="m123.41263 138.25972l24.913376 0l0 24.913376l-24.913376 0z" fill-rule="evenodd"/><path stroke="#ffffff" stroke-width="1.0" stroke-linejoin="round" stroke-linecap="butt" d="m123.41263 138.25972l24.913376 0l0 24.913376l-24.913376 0z" fill-rule="evenodd"/><path fill="#b7b7b7" d="m163.28098 138.25972l24.913376 0l0 24.913376l-24.913376 0z" fill-rule="evenodd"/><path stroke="#ffffff" stroke-width="1.0" stroke-linejoin="round" stroke-linecap="butt" d="m163.28098 138.25972l24.913376 0l0 24.913376l-24.913376 0z" fill-rule="evenodd"/><path fill="#b7b7b7" d="m203.1493 138.25972l24.913391 0l0 24.913376l-24.913391 0z" fill-rule="evenodd"/><path stroke="#ffffff" stroke-width="1.0" stroke-linejoin="round" stroke-linecap="butt" d="m203.1493 138.25972l24.913391 0l0 24.913376l-24.913391 0z" fill-rule="evenodd"/><path fill="#b7b7b7" d="m28.850903 93.15998l24.913387 0l0 24.913383l-24.913387 0z" fill-rule="evenodd"/><path stroke="#ffffff" stroke-width="1.0" stroke-linejoin="round" stroke-linecap="butt" d="m28.850903 93.15998l24.913387 0l0 24.913383l-24.913387 0z" fill-rule="evenodd"/><path fill="#b7b7b7" d="m68.58759 93.15998l24.913383 0l0 24.913383l-24.913383 0z" fill-rule="evenodd"/><path stroke="#ffffff" stroke-width="1.0" stroke-linejoin="round" stroke-linecap="butt" d="m68.58759 93.15998l24.913383 0l0 24.913383l-24.913383 0z" fill-rule="evenodd"/><path fill="#b7b7b7" d="m163.27966 93.16129l24.913376 0l0 24.913383l-24.913376 0z" fill-rule="evenodd"/><path stroke="#ffffff" stroke-width="1.0" stroke-linejoin="round" stroke-linecap="butt" d="m163.27966 93.16129l24.913376 0l0 24.913383l-24.913376 0z" fill-rule="evenodd"/><path fill="#b7b7b7" d="m60.72098 50.41982l24.913387 0l0 24.913387l-24.913387 0z" fill-rule="evenodd"/><path stroke="#ffffff" stroke-width="1.0" stroke-linejoin="round" stroke-linecap="butt" d="m60.72098 50.41982l24.913387 0l0 24.913387l-24.913387 0z" fill-rule="evenodd"/><path fill="#b7b7b7" d="m148.19435 50.41982l24.913391 0l0 24.913387l-24.913391 0z" fill-rule="evenodd"/><path stroke="#ffffff" stroke-width="1.0" stroke-linejoin="round" stroke-linecap="butt" d="m148.19435 50.41982l24.913391 0l0 24.913387l-24.913391 0z" fill-rule="evenodd"/><path fill="#b7b7b7" d="m102.76509 6.828084l24.913383 0l0 24.913387l-24.913383 0z" fill-rule="evenodd"/><path stroke="#ffffff" stroke-width="1.0" stroke-linejoin="round" stroke-linecap="butt" d="m102.76509 6.828084l24.913383 0l0 24.913387l-24.913383 0z" fill-rule="evenodd"/><path fill="#000000" fill-opacity="0.0" d="m73.17767 50.41982l42.04725 -18.677164" fill-rule="evenodd"/><path stroke="#ffffff" stroke-width="1.0" stroke-linejoin="round" stroke-linecap="butt" d="m73.17767 50.41982l36.563866 -16.241478" fill-rule="evenodd"/><path fill="#ffffff" stroke="#ffffff" stroke-width="1.0" stroke-linecap="butt" d="m110.41206 35.687855l3.4768295 -3.3517456l-4.8178635 0.3327217z" fill-rule="evenodd"/><path fill="#000000" fill-opacity="0.0" d="m160.65105 50.41982l-45.41732 -18.677164" fill-rule="evenodd"/><path stroke="#ffffff" stroke-width="1.0" stroke-linejoin="round" stroke-linecap="butt" d="m160.65105 50.41982l-39.868217 -16.395184" fill-rule="evenodd"/><path fill="#ffffff" stroke="#ffffff" stroke-width="1.0" stroke-linecap="butt" d="m121.41103 32.497032l-4.825264 -0.19837189l3.568863 3.253582z" fill-rule="evenodd"/><path fill="#000000" fill-opacity="0.0" d="m41.307594 93.15998l31.874016 -17.826775" fill-rule="evenodd"/><path stroke="#ffffff" stroke-width="1.0" stroke-linejoin="round" stroke-linecap="butt" d="m41.3076 93.15998l26.637386 -14.897987" fill-rule="evenodd"/><path fill="#ffffff" stroke="#ffffff" stroke-width="1.0" stroke-linecap="butt" d="m68.75125 79.703575l3.154457 -3.6567688l-4.766983 0.7735977z" fill-rule="evenodd"/><path fill="#000000" fill-opacity="0.0" d="m81.04428 93.15998l-7.874016 -17.826775" fill-rule="evenodd"/><path stroke="#ffffff" stroke-width="1.0" stroke-linejoin="round" stroke-linecap="butt" d="m81.04428 93.15998l-5.449791 -12.338318" fill-rule="evenodd"/><path fill="#ffffff" stroke="#ffffff" stroke-width="1.0" stroke-linecap="butt" d="m77.1054 80.1543l-3.3444672 -3.4838257l0.3226471 4.81855z" fill-rule="evenodd"/><path fill="#000000" fill-opacity="0.0" d="m16.395945 138.25972l24.913385 -20.18898" fill-rule="evenodd"/><path stroke="#ffffff" stroke-width="1.0" stroke-linejoin="round" stroke-linecap="butt" d="m16.395945 138.25972l20.25184 -16.411415" fill-rule="evenodd"/><path fill="#ffffff" stroke="#ffffff" stroke-width="1.0" stroke-linecap="butt" d="m37.687706 123.13158l2.4858398 -4.1404266l-4.5656815 1.573883z" fill-rule="evenodd"/><path fill="#000000" fill-opacity="0.0" d="m56.132633 138.25972l24.913387 -20.18898" fill-rule="evenodd"/><path stroke="#ffffff" stroke-width="1.0" stroke-linejoin="round" stroke-linecap="butt" d="m56.132633 138.25972l20.251842 -16.411415" fill-rule="evenodd"/><path fill="#ffffff" stroke="#ffffff" stroke-width="1.0" stroke-linecap="butt" d="m77.42439 123.13158l2.4858398 -4.1404266l-4.5656815 1.573883z" fill-rule="evenodd"/><path fill="#000000" fill-opacity="0.0" d="m96.00098 138.25972l-14.960632 -20.18898" fill-rule="evenodd"/><path stroke="#ffffff" stroke-width="1.0" stroke-linejoin="round" stroke-linecap="butt" d="m96.00098 138.25972l-11.388367 -15.368294" fill-rule="evenodd"/><path fill="#ffffff" stroke="#ffffff" stroke-width="1.0" stroke-linecap="butt" d="m85.93969 121.90801l-4.028961 -2.662712l1.3748016 4.629524z" fill-rule="evenodd"/><path fill="#000000" fill-opacity="0.0" d="m135.86932 138.25972l39.87401 -20.18898" fill-rule="evenodd"/><path stroke="#ffffff" stroke-width="1.0" stroke-linejoin="round" stroke-linecap="butt" d="m135.86932 138.25972l34.52104 -17.478668" fill-rule="evenodd"/><path fill="#ffffff" stroke="#ffffff" stroke-width="1.0" stroke-linecap="butt" d="m171.13649 122.25466l3.302597 -3.523552l-4.7948303 0.5763321z" fill-rule="evenodd"/><path fill="#000000" fill-opacity="0.0" d="m175.73766 138.25972l0 -20.18898" fill-rule="evenodd"/><path stroke="#ffffff" stroke-width="1.0" stroke-linejoin="round" stroke-linecap="butt" d="m175.73766 138.25972l0 -14.18898" fill-rule="evenodd"/><path fill="#ffffff" stroke="#ffffff" stroke-width="1.0" stroke-linecap="butt" d="m177.38939 124.07074l-1.6517334 -4.5380936l-1.6517334 4.5380936z" fill-rule="evenodd"/><path fill="#000000" fill-opacity="0.0" d="m215.606 138.25972l-39.87401 -20.18898" fill-rule="evenodd"/><path stroke="#ffffff" stroke-width="1.0" stroke-linejoin="round" stroke-linecap="butt" d="m215.60602 138.25972l-34.521072 -17.478668" fill-rule="evenodd"/><path fill="#ffffff" stroke="#ffffff" stroke-width="1.0" stroke-linecap="butt" d="m181.83109 119.30744l-4.7948303 -0.5763321l3.3025818 3.523552z" fill-rule="evenodd"/><path fill="#000000" fill-opacity="0.0" d="m175.73634 93.16129l-15.086609 -17.826775" fill-rule="evenodd"/><path stroke="#ffffff" stroke-width="1.0" stroke-linejoin="round" stroke-linecap="butt" d="m175.73634 93.16129l-11.210587 -13.246765" fill-rule="evenodd"/><path fill="#ffffff" stroke="#ffffff" stroke-width="1.0" stroke-linecap="butt" d="m165.78658 78.8475l-4.192444 -2.3970642l1.6707916 4.5311127z" fill-rule="evenodd"/></g></svg>