<svg version="1.1" viewBox="0.0 0.0 480.0 256.0" fill="none" stroke="none" stroke-linecap="square" stroke-miterlimit="10" xmlns:xlink="http://www.w3.org/1999/xlink" xmlns="http://www.w3.org/2000/svg"><clipPath id="p.0"><path d="m0 0l480.0 0l0 256.0l-480.0 0l0 -256.0z" clip-rule="nonzero"/></clipPath><g clip-path="url(#p.0)"><path fill="#000000" fill-opacity="0.0" d="m0 0l480.0 0l0 256.0l-480.0 0z" fill-rule="evenodd"/><path fill="#434343" d="m4.0048695 207.33058l24.913385 0l0 24.913391l-24.913385 0z" fill-rule="evenodd"/><path stroke="#434343" stroke-width="1.0" stroke-linejoin="round" stroke-linecap="butt" d="m4.0048695 207.33058l24.913385 0l0 24.913391l-24.913385 0z" fill-rule="evenodd"/><path fill="#434343" d="m67.873215 207.33058l24.913383 0l0 24.913391l-24.913383 0z" fill-rule="evenodd"/><path stroke="#434343" stroke-width="1.0" stroke-linejoin="round" stroke-linecap="butt" d="m67.873215 207.33058l24.913383 0l0 24.913391l-24.913383 0z" fill-rule="evenodd"/><path fill="#434343" d="m131.74156 207.33058l24.913376 0l0 24.913391l-24.913376 0z" fill-rule="evenodd"/><path stroke="#434343" stroke-width="1.0" stroke-linejoin="round" stroke-linecap="butt" d="m131.74156 207.33058l24.913376 0l0 24.913391l-24.913376 0z" fill-rule="evenodd"/><path fill="#434343" d="m195.6099 207.33058l24.913391 0l0 24.913391l-24.913391 0z" fill-rule="evenodd"/><path stroke="#434343" stroke-width="1.0" stroke-linejoin="round" stroke-linecap="butt" d="m195.6099 207.33058l24.913391 0l0 24.913391l-24.913391 0z" fill-rule="evenodd"/><path fill="#434343" d="m451.08328 207.33058l24.91336 0l0 24.913391l-24.91336 0z" fill-rule="evenodd"/><path stroke="#434343" stroke-width="1.0" stroke-linejoin="round" stroke-linecap="butt" d="m451.08328 207.33058l24.91336 0l0 24.913391l-24.91336 0z" fill-rule="evenodd"/><path fill="#434343" d="m36.91652 130.23085l24.913387 0l0 24.913376l-24.913387 0z" fill-rule="evenodd"/><path stroke="#434343" stroke-width="1.0" stroke-linejoin="round" stroke-linecap="butt" d="m36.91652 130.23085l24.913387 0l0 24.913376l-24.913387 0z" fill-rule="evenodd"/><path fill="#434343" d="m164.65321 130.23085l24.913376 0l0 24.913376l-24.913376 0z" fill-rule="evenodd"/><path stroke="#434343" stroke-width="1.0" stroke-linejoin="round" stroke-linecap="butt" d="m164.65321 130.23085l24.913376 0l0 24.913376l-24.913376 0z" fill-rule="evenodd"/><path fill="#ff0000" d="m271.55386 130.22928l64.62991 0l0 64.62993l-64.62991 0z" fill-rule="evenodd"/><path stroke="#ffffff" stroke-width="1.0" stroke-linejoin="round" stroke-linecap="butt" stroke-dasharray="4.0,3.0" d="m271.55386 130.22928l64.62991 0l0 64.62993l-64.62991 0z" fill-rule="evenodd"/><path fill="#434343" d="m420.1266 130.23085l24.913391 0l0 24.913376l-24.913391 0z" fill-rule="evenodd"/><path stroke="#434343" stroke-width="1.0" stroke-linejoin="round" stroke-linecap="butt" d="m420.1266 130.23085l24.913391 0l0 24.913376l-24.913391 0z" fill-rule="evenodd"/><path fill="#434343" d="m100.7866 71.490685l24.913383 0l0 24.913391l-24.913383 0z" fill-rule="evenodd"/><path stroke="#434343" stroke-width="1.0" stroke-linejoin="round" stroke-linecap="butt" d="m100.7866 71.490685l24.913383 0l0 24.913391l-24.913383 0z" fill-rule="evenodd"/><path fill="#6fa8dc" d="m356.25998 71.490685l24.913391 0l0 24.913391l-24.913391 0z" fill-rule="evenodd"/><path stroke="#ffffff" stroke-width="1.0" stroke-linejoin="round" stroke-linecap="butt" d="m356.25998 71.490685l24.913391 0l0 24.913391l-24.913391 0z" fill-rule="evenodd"/><path fill="#6fa8dc" d="m230.8307 3.89895l24.913391 0l0 24.913385l-24.913391 0z" fill-rule="evenodd"/><path stroke="#ffffff" stroke-width="1.0" stroke-linejoin="round" stroke-linecap="butt" d="m230.8307 3.89895l24.913391 0l0 24.913385l-24.913391 0z" fill-rule="evenodd"/><path fill="#000000" fill-opacity="0.0" d="m113.24329 71.490685l130.04724 -42.677162" fill-rule="evenodd"/><path stroke="#434343" stroke-width="1.0" stroke-linejoin="round" stroke-linecap="butt" d="m113.24329 71.490685l130.04724 -42.677162" fill-rule="evenodd"/><path fill="#000000" fill-opacity="0.0" d="m368.71667 71.490685l-112.976395 -55.149605" fill-rule="evenodd"/><path stroke="#ffffff" stroke-width="1.0" stroke-linejoin="round" stroke-linecap="butt" stroke-dasharray="4.0,3.0,1.0,3.0" d="m368.71664 71.490685l-107.5845 -52.51755" fill-rule="evenodd"/><path fill="#ffffff" stroke="#ffffff" stroke-width="1.0" stroke-linecap="butt" d="m261.85672 17.48881l-4.802704 -0.50642776l3.3535767 3.4750729z" fill-rule="evenodd"/><path fill="#000000" fill-opacity="0.0" d="m49.37321 130.23085l63.87402 -33.826775" fill-rule="evenodd"/><path stroke="#434343" stroke-width="1.0" stroke-linejoin="round" stroke-linecap="butt" d="m49.37321 130.23085l63.87402 -33.826775" fill-rule="evenodd"/><path fill="#000000" fill-opacity="0.0" d="m177.1099 130.23085l-63.87401 -33.826775" fill-rule="evenodd"/><path stroke="#434343" stroke-width="1.0" stroke-linejoin="round" stroke-linecap="butt" d="m177.1099 130.23085l-63.87401 -33.826775" fill-rule="evenodd"/><path fill="#000000" fill-opacity="0.0" d="m16.461563 207.33058l32.913383 -52.18898" fill-rule="evenodd"/><path stroke="#434343" stroke-width="1.0" stroke-linejoin="round" stroke-linecap="butt" d="m16.461563 207.33058l32.913383 -52.18898" fill-rule="evenodd"/><path fill="#000000" fill-opacity="0.0" d="m80.3299 207.33058l-30.960629 -52.18898" fill-rule="evenodd"/><path stroke="#434343" stroke-width="1.0" stroke-linejoin="round" stroke-linecap="butt" d="m80.3299 207.33058l-30.960629 -52.18898" fill-rule="evenodd"/><path fill="#000000" fill-opacity="0.0" d="m144.19824 207.33058l32.91339 -52.18898" fill-rule="evenodd"/><path stroke="#434343" stroke-width="1.0" stroke-linejoin="round" stroke-linecap="butt" d="m144.19824 207.33058l32.91339 -52.18898" fill-rule="evenodd"/><path fill="#000000" fill-opacity="0.0" d="m208.06659 207.33058l-30.960632 -52.18898" fill-rule="evenodd"/><path stroke="#434343" stroke-width="1.0" stroke-linejoin="round" stroke-linecap="butt" d="m208.06659 207.33058l-30.960632 -52.18898" fill-rule="evenodd"/><path fill="#000000" fill-opacity="0.0" d="m336.18378 162.54424l32.53543 -66.14172" fill-rule="evenodd"/><path stroke="#ffffff" stroke-width="1.0" stroke-linejoin="round" stroke-linecap="butt" stroke-dasharray="4.0,3.0,1.0,3.0" d="m336.18378 162.54424l29.887054 -60.75785" fill-rule="evenodd"/><path fill="#ffffff" stroke="#ffffff" stroke-width="1.0" stroke-linecap="butt" d="m367.55298 102.51546l0.52093506 -4.8011627l-3.485199 3.3430328z" fill-rule="evenodd"/><path fill="#000000" fill-opacity="0.0" d="m303.8688 130.22928l52.37796 -46.267715" fill-rule="evenodd"/><path stroke="#ffffff" stroke-width="1.0" stroke-linejoin="round" stroke-linecap="butt" d="m308.36563 126.25704l47.881134 -42.29548" fill-rule="evenodd"/><path fill="#ffffff" stroke="#ffffff" stroke-width="1.0" stroke-linecap="butt" d="m307.27213 125.01913l-2.3076782 4.242317l4.49469 -1.7664719z" fill-rule="evenodd"/><path fill="#000000" fill-opacity="0.0" d="m243.2874 28.812336l112.976395 55.14961" fill-rule="evenodd"/><path stroke="#ffffff" stroke-width="1.0" stroke-linejoin="round" stroke-linecap="butt" d="m243.2874 28.812336l107.58452 52.51755" fill-rule="evenodd"/><path fill="#ffffff" stroke="#ffffff" stroke-width="1.0" stroke-linecap="butt" d="m350.14734 82.81421l4.802704 0.5064316l-3.3535767 -3.4750748z" fill-rule="evenodd"/><path fill="#000000" fill-opacity="0.0" d="m368.71667 96.404076l63.873993 33.826775" fill-rule="evenodd"/><path stroke="#434343" stroke-width="1.0" stroke-linejoin="round" stroke-linecap="butt" d="m368.71667 96.404076l63.873993 33.826775" fill-rule="evenodd"/><path fill="#000000" fill-opacity="0.0" d="m432.58328 155.14423l30.960632 52.18898" fill-rule="evenodd"/><path stroke="#434343" stroke-width="1.0" stroke-linejoin="round" stroke-linecap="butt" d="m432.58328 155.14423l30.960632 52.18898" fill-rule="evenodd"/></g></svg>