<svg version="1.1" viewBox="0.0 0.0 476.0 260.0" fill="none" stroke="none" stroke-linecap="square" stroke-miterlimit="10" xmlns:xlink="http://www.w3.org/1999/xlink" xmlns="http://www.w3.org/2000/svg"><clipPath id="p.0"><path d="m0 0l476.0 0l0 260.0l-476.0 0l0 -260.0z" clip-rule="nonzero"/></clipPath><g clip-path="url(#p.0)"><path fill="#000000" fill-opacity="0.0" d="m0 0l476.0 0l0 260.0l-476.0 0z" fill-rule="evenodd"/><path fill="#434343" d="m2.0048692 203.43163l24.913385 0l0 24.913391l-24.913385 0z" fill-rule="evenodd"/><path stroke="#434343" stroke-width="1.0" stroke-linejoin="round" stroke-linecap="butt" d="m2.0048692 203.43163l24.913385 0l0 24.913391l-24.913385 0z" fill-rule="evenodd"/><path fill="#434343" d="m65.873215 203.43163l24.913383 0l0 24.913391l-24.913383 0z" fill-rule="evenodd"/><path stroke="#434343" stroke-width="1.0" stroke-linejoin="round" stroke-linecap="butt" d="m65.873215 203.43163l24.913383 0l0 24.913391l-24.913383 0z" fill-rule="evenodd"/><path fill="#434343" d="m129.74156 203.43163l24.913376 0l0 24.913391l-24.913376 0z" fill-rule="evenodd"/><path stroke="#434343" stroke-width="1.0" stroke-linejoin="round" stroke-linecap="butt" d="m129.74156 203.43163l24.913376 0l0 24.913391l-24.913376 0z" fill-rule="evenodd"/><path fill="#434343" d="m193.6099 203.43163l24.913391 0l0 24.913391l-24.913391 0z" fill-rule="evenodd"/><path stroke="#434343" stroke-width="1.0" stroke-linejoin="round" stroke-linecap="butt" d="m193.6099 203.43163l24.913391 0l0 24.913391l-24.913391 0z" fill-rule="evenodd"/><path fill="#6fa8dc" d="m385.21494 203.43163l24.913391 0l0 24.913391l-24.913391 0z" fill-rule="evenodd"/><path stroke="#ffffff" stroke-width="1.0" stroke-linejoin="round" stroke-linecap="butt" d="m385.21494 203.43163l24.913391 0l0 24.913391l-24.913391 0z" fill-rule="evenodd"/><path fill="#6fa8dc" d="m449.08328 203.43163l24.91336 0l0 24.913391l-24.91336 0z" fill-rule="evenodd"/><path stroke="#ffffff" stroke-width="1.0" stroke-linejoin="round" stroke-linecap="butt" d="m449.08328 203.43163l24.91336 0l0 24.913391l-24.91336 0z" fill-rule="evenodd"/><path fill="#434343" d="m34.91652 126.331894l24.913387 0l0 24.913391l-24.913387 0z" fill-rule="evenodd"/><path stroke="#434343" stroke-width="1.0" stroke-linejoin="round" stroke-linecap="butt" d="m34.91652 126.331894l24.913387 0l0 24.913391l-24.913387 0z" fill-rule="evenodd"/><path fill="#434343" d="m162.65321 126.331894l24.913376 0l0 24.913391l-24.913376 0z" fill-rule="evenodd"/><path stroke="#434343" stroke-width="1.0" stroke-linejoin="round" stroke-linecap="butt" d="m162.65321 126.331894l24.913376 0l0 24.913391l-24.913376 0z" fill-rule="evenodd"/><path fill="#6fa8dc" d="m269.55386 126.33033l64.62991 0l0 64.62992l-64.62991 0z" fill-rule="evenodd"/><path stroke="#ffffff" stroke-width="1.0" stroke-linejoin="round" stroke-linecap="butt" d="m269.55386 126.33033l64.62991 0l0 64.62992l-64.62991 0z" fill-rule="evenodd"/><path fill="#6fa8dc" d="m418.1266 126.331894l24.913391 0l0 24.913391l-24.913391 0z" fill-rule="evenodd"/><path stroke="#ffffff" stroke-width="1.0" stroke-linejoin="round" stroke-linecap="butt" d="m418.1266 126.331894l24.913391 0l0 24.913391l-24.913391 0z" fill-rule="evenodd"/><path fill="#6fa8dc" d="m98.7866 67.591736l24.913383 0l0 24.913383l-24.913383 0z" fill-rule="evenodd"/><path stroke="#ffffff" stroke-width="1.0" stroke-linejoin="round" stroke-linecap="butt" d="m98.7866 67.591736l24.913383 0l0 24.913383l-24.913383 0z" fill-rule="evenodd"/><path fill="#6fa8dc" d="m354.25998 67.591736l24.913391 0l0 24.913383l-24.913391 0z" fill-rule="evenodd"/><path stroke="#ffffff" stroke-width="1.0" stroke-linejoin="round" stroke-linecap="butt" d="m354.25998 67.591736l24.913391 0l0 24.913383l-24.913391 0z" fill-rule="evenodd"/><path fill="#6fa8dc" d="m228.8307 0l24.913391 0l0 24.913385l-24.913391 0z" fill-rule="evenodd"/><path stroke="#ffffff" stroke-width="1.0" stroke-linejoin="round" stroke-linecap="butt" d="m228.8307 0l24.913391 0l0 24.913385l-24.913391 0z" fill-rule="evenodd"/><path fill="#000000" fill-opacity="0.0" d="m111.24329 67.591736l130.04724 -42.677162" fill-rule="evenodd"/><path stroke="#ffffff" stroke-width="1.0" stroke-linejoin="round" stroke-linecap="butt" d="m116.94416 65.7209l124.34638 -40.80633" fill-rule="evenodd"/><path fill="#ffffff" stroke="#ffffff" stroke-width="1.0" stroke-linecap="butt" d="m116.429146 64.15151l-3.7968292 2.9843903l4.826874 0.1543808z" fill-rule="evenodd"/><path fill="#000000" fill-opacity="0.0" d="m366.71667 67.591736l-112.976395 -55.149605" fill-rule="evenodd"/><path stroke="#ffffff" stroke-width="1.0" stroke-linejoin="round" stroke-linecap="butt" stroke-dasharray="4.0,3.0,1.0,3.0" d="m366.71664 67.591736l-107.5845 -52.517555" fill-rule="evenodd"/><path fill="#ffffff" stroke="#ffffff" stroke-width="1.0" stroke-linecap="butt" d="m259.85672 13.58986l-4.802704 -0.5064287l3.3535767 3.4750729z" fill-rule="evenodd"/><path fill="#000000" fill-opacity="0.0" d="m47.37321 126.331894l63.87402 -33.826775" fill-rule="evenodd"/><path stroke="#434343" stroke-width="1.0" stroke-linejoin="round" stroke-linecap="butt" d="m47.37321 126.331894l63.87402 -33.826775" fill-rule="evenodd"/><path fill="#000000" fill-opacity="0.0" d="m175.1099 126.331894l-63.87401 -33.826775" fill-rule="evenodd"/><path stroke="#434343" stroke-width="1.0" stroke-linejoin="round" stroke-linecap="butt" d="m175.1099 126.331894l-63.87401 -33.826775" fill-rule="evenodd"/><path fill="#000000" fill-opacity="0.0" d="m14.461562 203.43163l32.913383 -52.188965" fill-rule="evenodd"/><path stroke="#434343" stroke-width="1.0" stroke-linejoin="round" stroke-linecap="butt" d="m14.461562 203.43163l32.913383 -52.188965" fill-rule="evenodd"/><path fill="#000000" fill-opacity="0.0" d="m78.3299 203.43163l-30.960629 -52.188965" fill-rule="evenodd"/><path stroke="#434343" stroke-width="1.0" stroke-linejoin="round" stroke-linecap="butt" d="m78.3299 203.43163l-30.960629 -52.188965" fill-rule="evenodd"/><path fill="#000000" fill-opacity="0.0" d="m142.19824 203.43163l32.91339 -52.188965" fill-rule="evenodd"/><path stroke="#434343" stroke-width="1.0" stroke-linejoin="round" stroke-linecap="butt" d="m142.19824 203.43163l32.91339 -52.188965" fill-rule="evenodd"/><path fill="#000000" fill-opacity="0.0" d="m206.06659 203.43163l-30.960632 -52.188965" fill-rule="evenodd"/><path stroke="#434343" stroke-width="1.0" stroke-linejoin="round" stroke-linecap="butt" d="m206.06659 203.43163l-30.960632 -52.188965" fill-rule="evenodd"/><path fill="#000000" fill-opacity="0.0" d="m397.67163 203.43163l32.91339 -52.188965" fill-rule="evenodd"/><path stroke="#ffffff" stroke-width="1.0" stroke-linejoin="round" stroke-linecap="butt" d="m400.87225 198.35658l29.712769 -47.113922" fill-rule="evenodd"/><path fill="#ffffff" stroke="#ffffff" stroke-width="1.0" stroke-linecap="butt" d="m399.47513 197.4755l-1.0236816 4.7196045l3.8179016 -2.9574127z" fill-rule="evenodd"/><path fill="#000000" fill-opacity="0.0" d="m461.53998 203.43163l-18.48819 -64.62991" fill-rule="evenodd"/><path stroke="#ffffff" stroke-width="1.0" stroke-linejoin="round" stroke-linecap="butt" stroke-dasharray="4.0,3.0,1.0,3.0" d="m461.53998 203.43164l-16.838013 -58.861313" fill-rule="evenodd"/><path fill="#ffffff" stroke="#ffffff" stroke-width="1.0" stroke-linecap="butt" d="m446.29 144.11604l-2.8361511 -3.9087982l-0.3399048 4.8173523z" fill-rule="evenodd"/><path fill="#000000" fill-opacity="0.0" d="m430.58328 126.331894l-51.40158 -46.29921" fill-rule="evenodd"/><path stroke="#ffffff" stroke-width="1.0" stroke-linejoin="round" stroke-linecap="butt" stroke-dasharray="4.0,3.0,1.0,3.0" d="m430.58328 126.3319l-46.94345 -42.283623" fill-rule="evenodd"/><path fill="#ffffff" stroke="#ffffff" stroke-width="1.0" stroke-linecap="butt" d="m384.7453 82.82101l-4.477356 -1.8099213l2.266449 4.2644653z" fill-rule="evenodd"/><path fill="#000000" fill-opacity="0.0" d="m301.8688 126.33033l64.8504 -33.826775" fill-rule="evenodd"/><path stroke="#ffffff" stroke-width="1.0" stroke-linejoin="round" stroke-linecap="butt" d="m307.1886 123.555466l59.53061 -31.05191" fill-rule="evenodd"/><path fill="#ffffff" stroke="#ffffff" stroke-width="1.0" stroke-linecap="butt" d="m306.4247 122.09099l-3.259735 3.5632477l4.787506 -0.6342926z" fill-rule="evenodd"/><path fill="#000000" fill-opacity="0.0" d="m241.2874 24.913385l112.976395 55.149612" fill-rule="evenodd"/><path stroke="#ffffff" stroke-width="1.0" stroke-linejoin="round" stroke-linecap="butt" d="m241.2874 24.913385l107.58452 52.517555" fill-rule="evenodd"/><path fill="#ffffff" stroke="#ffffff" stroke-width="1.0" stroke-linecap="butt" d="m348.14734 78.91526l4.802704 0.5064316l-3.3535767 -3.4750748z" fill-rule="evenodd"/><path fill="#000000" fill-opacity="0.0" d="m366.71667 92.50512l51.40155 46.299217" fill-rule="evenodd"/><path stroke="#ffffff" stroke-width="1.0" stroke-linejoin="round" stroke-linecap="butt" d="m366.71664 92.50513l46.94345 42.283615" fill-rule="evenodd"/><path fill="#ffffff" stroke="#ffffff" stroke-width="1.0" stroke-linecap="butt" d="m412.55466 136.01602l4.477356 1.8099213l-2.2664795 -4.2644806z" fill-rule="evenodd"/><path fill="#000000" fill-opacity="0.0" d="m430.58328 151.24529l18.48819 64.62991" fill-rule="evenodd"/><path stroke="#ffffff" stroke-width="1.0" stroke-linejoin="round" stroke-linecap="butt" d="m430.58328 151.24529l16.838013 58.861298" fill-rule="evenodd"/><path fill="#ffffff" stroke="#ffffff" stroke-width="1.0" stroke-linecap="butt" d="m445.83325 210.56087l2.8361511 3.9088135l0.3399353 -4.8173676z" fill-rule="evenodd"/></g></svg>