<?xml version="1.0" encoding="UTF-8" standalone="no"?>
<svg
   version="1.1"
   viewBox="0 0 1047 433"
   fill="none"
   stroke="none"
   stroke-linecap="square"
   stroke-miterlimit="10"
   id="svg107"
   sodipodi:docname="build-artifacts.svg"
   width="1047"
   height="433"
   inkscape:version="1.2 (dc2aedaf03, 2022-05-15)"
   xml:space="preserve"
   inkscape:export-filename="build-artifacts3.png"
   inkscape:export-xdpi="110.02866"
   inkscape:export-ydpi="110.02866"
   xmlns:inkscape="http://www.inkscape.org/namespaces/inkscape"
   xmlns:sodipodi="http://sodipodi.sourceforge.net/DTD/sodipodi-0.dtd"
   xmlns="http://www.w3.org/2000/svg"
   xmlns:svg="http://www.w3.org/2000/svg"><defs
   id="defs111" /><sodipodi:namedview
   id="namedview109"
   pagecolor="#ffffff"
   bordercolor="#666666"
   borderopacity="1.0"
   inkscape:showpageshadow="2"
   inkscape:pageopacity="0.0"
   inkscape:pagecheckerboard="0"
   inkscape:deskcolor="#d1d1d1"
   showgrid="false"
   inkscape:zoom="0.70677083"
   inkscape:cx="396.16802"
   inkscape:cy="266.70597"
   inkscape:window-width="1499"
   inkscape:window-height="1080"
   inkscape:window-x="0"
   inkscape:window-y="23"
   inkscape:window-maximized="1"
   inkscape:current-layer="g105" />
       <g
   clip-path="url(#g12719af3af2_0_235.0)"
   id="g105"><path
     fill="#000000"
     fill-opacity="0"
     d="m 0,59.66982 h 323.1496 v 46.86615 H 0 Z"
     fill-rule="evenodd"
     id="path69" /><path
     fill="#000000"
     fill-opacity="0"
     d="m 315.92914,59.66982 h 254.58267 v 46.86615 H 315.92914 Z"
     fill-rule="evenodd"
     id="path73" /><path
     fill="#000000"
     fill-opacity="0"
     d="m 599.85826,59.66982 h 215.33862 v 46.86615 H 599.85826 Z"
     fill-rule="evenodd"
     id="path77" /><text
     xml:space="preserve"
     style="font-style:normal;font-weight:normal;font-size:26.6667px;line-height:1.25;font-family:sans-serif;letter-spacing:0px;word-spacing:0px;fill:#000000;fill-opacity:1;stroke:none"
     x="345.15967"
     y="19.360025"
     id="text735"><tspan
       sodipodi:role="line"
       id="tspan733"
       x="345.15967"
       y="19.360025"
       style="font-style:normal;font-variant:normal;font-weight:500;font-stretch:normal;font-size:26.6667px;font-family:'Source Code Pro';-inkscape-font-specification:'Source Code Pro Medium';fill:#ffffff">cargo-contract --build</tspan></text><g
     id="g1373"
     transform="translate(0,-13.55953)"><text
       xml:space="preserve"
       style="font-style:normal;font-weight:normal;font-size:26.6667px;line-height:1.25;font-family:sans-serif;letter-spacing:0px;word-spacing:0px;fill:#000000;fill-opacity:1;stroke:none"
       x="13.538855"
       y="150.71655"
       id="text735-3"><tspan
         sodipodi:role="line"
         id="tspan733-6"
         x="13.538855"
         y="150.71655"
         style="font-style:normal;font-variant:normal;font-weight:500;font-stretch:normal;font-size:26.6667px;font-family:'Source Code Pro';-inkscape-font-specification:'Source Code Pro Medium';fill:#ffffff">flipper.contract</tspan></text><g
       id="g1207"
       transform="translate(0,64.822049)"><g
         id="g565"
         transform="matrix(1.4630847,0,0,1.4944023,4.8480797,138.12641)">
	<g
   id="g561">
		<path
   class="st0"
   d="m 66.03,0 c 14.93,-0.25 27.06,19.51 52.18,27.78 26.7,8.79 63.29,11.71 68.89,40.38 5.6,28.67 -29.91,90.03 -94.86,84 C 27.29,146.13 7.3,93.65 16.69,54.78 24.96,20.51 51.1,0.25 66.03,0 Z"
   id="path555"
   style="fill:#bc83fb" />
		<path
   class="st0"
   d="m 129.68,14.88 c 4.11,4.11 3.37,9.98 -1.33,10.58 -4.7,0.59 -9.84,-4.54 -9.24,-9.24 0.6,-4.7 6.46,-5.44 10.57,-1.34 z"
   id="path557"
   style="fill:#bc83fb" />
		<path
   class="st0"
   d="m 9.22,58.96 c 0,3.55 -3.84,5.77 -6.92,3.99 -3.07,-1.77 -3.07,-6.21 0,-7.99 3.07,-1.78 6.92,0.45 6.92,4 z"
   id="path559"
   style="fill:#bc83fb" />
	</g>
	<path
   class="st1"
   d="m 146.96,53.75 c -10.05,-3.3 -15,-9.38 -8.92,-10.96 6.08,-1.57 18.64,2.55 22.6,7.42 3.97,4.87 -3.63,6.84 -13.68,3.54 z"
   id="path563"
   style="fill:#d8b7fb" />
</g><text
         xml:space="preserve"
         style="font-style:normal;font-weight:normal;font-size:26.6667px;line-height:1.25;font-family:sans-serif;letter-spacing:0px;word-spacing:0px;fill:#000000;fill-opacity:1;stroke:none"
         x="54.512356"
         y="259.43488"
         id="text735-3-6"><tspan
           sodipodi:role="line"
           id="tspan733-6-2"
           x="54.512356"
           y="259.43488"
           style="font-style:normal;font-variant:normal;font-weight:500;font-stretch:normal;font-size:26.6667px;font-family:Montserrat;-inkscape-font-specification:'Montserrat Medium';fill:#ffffff">Developer UI</tspan></text></g></g><g
     id="g1293"
     transform="translate(34.999999,-13.55953)"><g
       id="g1217"
       transform="translate(17.951854,22)"><g
         id="g591"
         transform="matrix(1.5301825,0,0,1.5301825,335.32456,187.50499)">
	<g
   id="g587">
		<path
   class="st0"
   d="M 85.98,4.02 C 146.38,-4.39 200,46.84 172.14,98.92 146.21,147.4 63.44,154.69 26.17,114.02 -11.1,73.35 28.05,12.08 85.98,4.02 Z"
   id="path581"
   style="fill:#bc83fb" />
		<path
   class="st0"
   d="m 38.93,14.04 c -6.49,1.49 -11.9,-3.31 -9.74,-8.64 2.16,-5.33 10.26,-7.2 14.59,-3.36 4.33,3.84 1.63,10.5 -4.85,12 z"
   id="path583"
   style="fill:#bc83fb" />
		<path
   class="st0"
   d="m 7.87,51.77 c -3.3,3.25 -7.67,3 -7.87,-0.44 -0.2,-3.44 3.92,-7.51 7.42,-7.31 3.5,0.2 3.75,4.5 0.45,7.75 z"
   id="path585"
   style="fill:#bc83fb" />
	</g>
	<path
   class="st1"
   d="m 124.21,26.11 c -10.9,-3.81 -16.17,-10.49 -9.48,-12.03 6.69,-1.54 20.31,3.21 24.53,8.56 4.22,5.35 -4.15,7.27 -15.05,3.47 z"
   id="path589"
   style="fill:#d8b7fb" />
</g><text
         xml:space="preserve"
         style="font-style:normal;font-weight:normal;font-size:26.6667px;line-height:1.25;font-family:sans-serif;letter-spacing:0px;word-spacing:0px;fill:#000000;fill-opacity:1;stroke:none"
         x="413.25378"
         y="304.96359"
         id="text735-3-6-9"><tspan
           sodipodi:role="line"
           id="tspan733-6-2-1"
           x="413.25378"
           y="304.96359"
           style="font-style:normal;font-variant:normal;font-weight:500;font-stretch:normal;font-size:26.6667px;font-family:Montserrat;-inkscape-font-specification:'Montserrat Medium';fill:#ffffff">on-chain</tspan></text></g><text
       xml:space="preserve"
       style="font-style:normal;font-weight:normal;font-size:26.6667px;line-height:1.25;font-family:sans-serif;letter-spacing:0px;word-spacing:0px;fill:#000000;fill-opacity:1;stroke:none"
       x="393.96552"
       y="150.71655"
       id="text735-3-7"><tspan
         sodipodi:role="line"
         id="tspan733-6-5"
         x="393.96552"
         y="150.71655"
         style="font-style:normal;font-variant:normal;font-weight:500;font-stretch:normal;font-size:26.6667px;font-family:'Source Code Pro';-inkscape-font-specification:'Source Code Pro Medium';fill:#ffffff">flipper.wasm</tspan></text></g><g
     id="g1360"
     transform="translate(0,-13.55953)"><g
       id="g1228"
       transform="translate(165.45669,22.433759)"><g
         id="g619"
         transform="matrix(1.6557203,0,0,1.6557203,606.44343,169.30968)">
	<g
   id="g615">
		<path
   class="st0"
   d="M 50.68,12.63 C 68.13,-3.86 88.17,-7.5 111.08,22 133.99,51.5 168.7,64.35 165.93,95.59 163.16,126.83 114.2,159.81 53.8,152.52 -6.6,145.23 -3.13,101.84 3.47,82.05 10.07,62.26 32.6,29.72 50.68,12.63 Z"
   id="path607"
   style="fill:#bc83fb" />
		<path
   class="st0"
   d="m 22.47,32.02 c -2.13,5.41 -8.62,6.76 -11.68,2.43 -3.06,-4.33 -0.39,-11.1 4.8,-12.18 5.19,-1.08 9.02,4.34 6.88,9.75 z"
   id="path609"
   style="fill:#bc83fb" />
		<path
   class="st0"
   d="m 137.45,27.95 c -3.29,0 -5.34,-3.56 -3.7,-6.4 1.64,-2.85 5.75,-2.85 7.39,0 1.64,2.85 -0.4,6.4 -3.69,6.4 z"
   id="path611"
   style="fill:#bc83fb" />
		<path
   class="st0"
   d="m 159.57,40.93 c 0.43,7.53 -5.07,11.64 -9.12,8.09 -4.05,-3.55 -4.58,-12.96 -0.97,-16.94 3.61,-3.98 9.66,1.32 10.09,8.85 z"
   id="path613"
   style="fill:#bc83fb" />
	</g>
	<path
   class="st1"
   d="m 89.56,11.3 c 7.54,4.47 9.87,11.28 4.19,12.26 -5.68,0.98 -15.1,-4.6 -16.97,-10.05 -1.86,-5.45 5.24,-6.68 12.78,-2.21 z"
   id="path617"
   style="fill:#d8b7fb" />
</g><text
         xml:space="preserve"
         style="font-style:normal;font-weight:normal;font-size:26.6667px;line-height:1.25;font-family:sans-serif;letter-spacing:0px;word-spacing:0px;fill:#000000;fill-opacity:1;stroke:none"
         x="705.92224"
         y="303.16977"
         id="text735-3-6-9-2"><tspan
           sodipodi:role="line"
           id="tspan733-6-2-1-7"
           x="705.92224"
           y="303.16977"
           style="font-style:normal;font-variant:normal;font-weight:500;font-stretch:normal;font-size:26.6667px;font-family:Montserrat;-inkscape-font-specification:'Montserrat Medium';fill:#ffffff">Dapp</tspan></text></g><text
       xml:space="preserve"
       style="font-style:normal;font-weight:normal;font-size:26.6667px;line-height:1.25;font-family:sans-serif;letter-spacing:0px;word-spacing:0px;fill:#000000;fill-opacity:1;stroke:none"
       x="805.67212"
       y="148.55655"
       id="text735-3-7-3"><tspan
         sodipodi:role="line"
         id="tspan733-6-5-5"
         x="805.67212"
         y="148.55655"
         style="font-style:normal;font-variant:normal;font-weight:500;font-stretch:normal;font-size:26.6667px;font-family:'Source Code Pro';-inkscape-font-specification:'Source Code Pro Medium';fill:#ffffff">metadata.json</tspan></text></g></g><style
   type="text/css"
   id="style553">
	.st0{fill:#BC83FB;}
	.st1{fill:#D8B7FB;}
</style><style
   type="text/css"
   id="style579">
	.st0{fill:#BC83FB;}
	.st1{fill:#D8B7FB;}
</style><style
   type="text/css"
   id="style605">
	.st0{fill:#BC83FB;}
	.st1{fill:#D8B7FB;}
</style></svg>
