<?xml version="1.0" encoding="UTF-8" standalone="no"?>
<!-- Created with Inkscape (http://www.inkscape.org/) -->

<svg
   width="15mm"
   height="4mm"
   viewBox="0 0 15 4"
   version="1.1"
   id="svg514"
   inkscape:version="1.2 (dc2aedaf03, 2022-05-15)"
   sodipodi:docname="dots-white.svg"
   xmlns:inkscape="http://www.inkscape.org/namespaces/inkscape"
   xmlns:sodipodi="http://sodipodi.sourceforge.net/DTD/sodipodi-0.dtd"
   xmlns="http://www.w3.org/2000/svg"
   xmlns:svg="http://www.w3.org/2000/svg">
  <sodipodi:namedview
     id="namedview516"
     pagecolor="#ffffff"
     bordercolor="#666666"
     borderopacity="1.0"
     inkscape:showpageshadow="2"
     inkscape:pageopacity="0.0"
     inkscape:pagecheckerboard="0"
     inkscape:deskcolor="#d1d1d1"
     inkscape:document-units="mm"
     showgrid="false"
     inkscape:zoom="0.77593294"
     inkscape:cx="151.43061"
     inkscape:cy="561.25984"
     inkscape:window-width="1499"
     inkscape:window-height="1080"
     inkscape:window-x="0"
     inkscape:window-y="23"
     inkscape:window-maximized="1"
     inkscape:current-layer="layer1" />
  <defs
     id="defs511" />
  <g
     inkscape:label="Layer 1"
     inkscape:groupmode="layer"
     id="layer1">
    <g
       id="g342"
       transform="matrix(0.26458333,0,0,0.26458333,-370.70944,-128.44931)"
       style="fill:#ffffff">
	<path
   class="st23"
   d="m 1412.45,496.82 c -4.51,4.51 -10.79,3.86 -11.31,-1.16 -0.52,-5.03 5.12,-10.66 10.15,-10.15 5.02,0.52 5.67,6.8 1.16,11.31 z"
   id="path336"
   style="fill:#ffffff" />

	<path
   class="st23"
   d="m 1432.7,496.82 c -4.51,4.51 -10.79,3.86 -11.31,-1.16 -0.52,-5.03 5.12,-10.66 10.15,-10.15 5.03,0.52 5.67,6.8 1.16,11.31 z"
   id="path338"
   style="fill:#ffffff" />

	<path
   class="st23"
   d="m 1452.96,496.82 c -4.51,4.51 -10.79,3.86 -11.31,-1.16 -0.52,-5.03 5.12,-10.66 10.15,-10.15 5.03,0.52 5.67,6.8 1.16,11.31 z"
   id="path340"
   style="fill:#ffffff" />

</g>
  </g>
</svg>
