<?xml version="1.0" encoding="us-ascii" standalone="no"?><svg xmlns="http://www.w3.org/2000/svg" xmlns:xlink="http://www.w3.org/1999/xlink" contentStyleType="text/css" height="571px" preserveAspectRatio="none" style="width:533px;height:571px;background:#FFFFFF;" version="1.1" viewBox="0 0 533 571" width="533px" zoomAndPan="magnify"><defs/><g><!--cluster MEV-boost--><g id="cluster_MEV-boost"><path d="M8.5,6 L96.5,6 A3.75,3.75 0 0 1 99,8.5 L106,28.2969 L523.5,28.2969 A2.5,2.5 0 0 1 526,30.7969 L526,561.5 A2.5,2.5 0 0 1 523.5,564 L8.5,564 A2.5,2.5 0 0 1 6,561.5 L6,8.5 A2.5,2.5 0 0 1 8.5,6 " fill="none" style="stroke:#000000;stroke-width:1.5;"/><line style="stroke:#000000;stroke-width:1.5;" x1="6" x2="106" y1="28.2969" y2="28.2969"/><text fill="#000000" font-family="sans-serif" font-size="14" font-weight="bold" lengthAdjust="spacing" textLength="87" x="10" y="20.9951">MEV-boost</text></g><!--entity MEV searcher 1--><g id="elem_MEV searcher 1"><ellipse cx="455" cy="49.5" fill="#F1F1F1" rx="8" ry="8" style="stroke:#181818;stroke-width:0.5;"/><path d="M455,57.5 L455,84.5 M442,65.5 L468,65.5 M455,84.5 L442,99.5 M455,84.5 L468,99.5 " fill="none" style="stroke:#181818;stroke-width:0.5;"/><text fill="#000000" font-family="sans-serif" font-size="14" lengthAdjust="spacing" textLength="110" x="400" y="113.9951">MEV searcher 1</text></g><!--entity MEV searcher 2--><g id="elem_MEV searcher 2"><ellipse cx="310" cy="49.5" fill="#F1F1F1" rx="8" ry="8" style="stroke:#181818;stroke-width:0.5;"/><path d="M310,57.5 L310,84.5 M297,65.5 L323,65.5 M310,84.5 L297,99.5 M310,84.5 L323,99.5 " fill="none" style="stroke:#181818;stroke-width:0.5;"/><text fill="#000000" font-family="sans-serif" font-size="14" lengthAdjust="spacing" textLength="109" x="255.5" y="113.9951">MEV searcher 2</text></g><!--entity MEV searcher 3--><g id="elem_MEV searcher 3"><ellipse cx="165" cy="49.5" fill="#F1F1F1" rx="8" ry="8" style="stroke:#181818;stroke-width:0.5;"/><path d="M165,57.5 L165,84.5 M152,65.5 L178,65.5 M165,84.5 L152,99.5 M165,84.5 L178,99.5 " fill="none" style="stroke:#181818;stroke-width:0.5;"/><text fill="#000000" font-family="sans-serif" font-size="14" lengthAdjust="spacing" textLength="110" x="110" y="113.9951">MEV searcher 3</text></g><!--entity user--><g id="elem_user"><ellipse cx="60" cy="49.5" fill="#F1F1F1" rx="8" ry="8" style="stroke:#181818;stroke-width:0.5;"/><path d="M60,57.5 L60,84.5 M47,65.5 L73,65.5 M60,84.5 L47,99.5 M60,84.5 L73,99.5 " fill="none" style="stroke:#181818;stroke-width:0.5;"/><text fill="#000000" font-family="sans-serif" font-size="14" lengthAdjust="spacing" textLength="30" x="45" y="113.9951">user</text></g><!--entity block builder 1--><g id="elem_block builder 1"><rect fill="#F1F1F1" height="46.2969" rx="2.5" ry="2.5" style="stroke:#181818;stroke-width:0.5;" width="147" x="362.5" y="194"/><rect fill="#F1F1F1" height="10" style="stroke:#181818;stroke-width:0.5;" width="15" x="489.5" y="199"/><rect fill="#F1F1F1" height="2" style="stroke:#181818;stroke-width:0.5;" width="4" x="487.5" y="201"/><rect fill="#F1F1F1" height="2" style="stroke:#181818;stroke-width:0.5;" width="4" x="487.5" y="205"/><text fill="#000000" font-family="sans-serif" font-size="14" lengthAdjust="spacing" textLength="107" x="377.5" y="226.9951">block builder 1</text></g><!--entity block builder 2--><g id="elem_block builder 2"><rect fill="#F1F1F1" height="46.2969" rx="2.5" ry="2.5" style="stroke:#181818;stroke-width:0.5;" width="146" x="181" y="194"/><rect fill="#F1F1F1" height="10" style="stroke:#181818;stroke-width:0.5;" width="15" x="307" y="199"/><rect fill="#F1F1F1" height="2" style="stroke:#181818;stroke-width:0.5;" width="4" x="305" y="201"/><rect fill="#F1F1F1" height="2" style="stroke:#181818;stroke-width:0.5;" width="4" x="305" y="205"/><text fill="#000000" font-family="sans-serif" font-size="14" lengthAdjust="spacing" textLength="106" x="196" y="226.9951">block builder 2</text></g><g id="elem_mempool"><ellipse cx="84.0597" cy="216.782" fill="#F1F1F1" rx="61.5597" ry="14.782" style="stroke:#181818;stroke-width:0.5;"/><text fill="#000000" font-family="sans-serif" font-size="14" lengthAdjust="spacing" textLength="69" x="46.5597" y="220.5295">mempool</text></g><!--entity relayer 1--><g id="elem_relayer 1"><rect fill="#F1F1F1" height="46.2969" rx="2.5" ry="2.5" style="stroke:#181818;stroke-width:0.5;" width="103" x="24.5" y="317"/><rect fill="#F1F1F1" height="10" style="stroke:#181818;stroke-width:0.5;" width="15" x="107.5" y="322"/><rect fill="#F1F1F1" height="2" style="stroke:#181818;stroke-width:0.5;" width="4" x="105.5" y="324"/><rect fill="#F1F1F1" height="2" style="stroke:#181818;stroke-width:0.5;" width="4" x="105.5" y="328"/><text fill="#000000" font-family="sans-serif" font-size="14" lengthAdjust="spacing" textLength="63" x="39.5" y="349.9951">relayer 1</text></g><!--entity relayer 2--><g id="elem_relayer 2"><rect fill="#F1F1F1" height="46.2969" rx="2.5" ry="2.5" style="stroke:#181818;stroke-width:0.5;" width="102" x="163" y="317"/><rect fill="#F1F1F1" height="10" style="stroke:#181818;stroke-width:0.5;" width="15" x="245" y="322"/><rect fill="#F1F1F1" height="2" style="stroke:#181818;stroke-width:0.5;" width="4" x="243" y="324"/><rect fill="#F1F1F1" height="2" style="stroke:#181818;stroke-width:0.5;" width="4" x="243" y="328"/><text fill="#000000" font-family="sans-serif" font-size="14" lengthAdjust="spacing" textLength="62" x="178" y="349.9951">relayer 2</text></g><!--entity validator--><g id="elem_validator"><rect fill="#F1F1F1" height="46.2969" rx="2.5" ry="2.5" style="stroke:#181818;stroke-width:0.5;" width="103" x="162.5" y="502"/><rect fill="#F1F1F1" height="10" style="stroke:#181818;stroke-width:0.5;" width="15" x="245.5" y="507"/><rect fill="#F1F1F1" height="2" style="stroke:#181818;stroke-width:0.5;" width="4" x="243.5" y="509"/><rect fill="#F1F1F1" height="2" style="stroke:#181818;stroke-width:0.5;" width="4" x="243.5" y="513"/><text fill="#000000" font-family="sans-serif" font-size="14" lengthAdjust="spacing" textLength="63" x="177.5" y="534.9951">validator</text></g><g id="elem_blockchain"><ellipse cx="445.2353" cy="339.8471" fill="#F1F1F1" rx="64.7353" ry="15.3471" style="stroke:#181818;stroke-width:0.5;"/><text fill="#000000" font-family="sans-serif" font-size="14" lengthAdjust="spacing" textLength="78" x="403.2353" y="343.5946">blockchain</text></g><!--link MEV searcher 1 to block builder 1--><g id="link_MEV searcher 1_block builder 1"><path d="M449.808,117.163 C446.38,141.7 442.8319,167.0927 439.9359,187.8287 " fill="none" id="MEV searcher 1-to-block builder 1" style="stroke:#181818;stroke-width:1.0;"/><polygon fill="#181818" points="439.106,193.771,444.3124,185.4108,439.7976,188.8191,436.3893,184.3042,439.106,193.771" style="stroke:#181818;stroke-width:1.0;"/><text fill="#000000" font-family="sans-serif" font-size="13" lengthAdjust="spacing" textLength="64" x="446" y="160.0669">TX bundle</text></g><!--link MEV searcher 2 to block builder 1--><g id="link_MEV searcher 2_block builder 1"><path d="M332.761,117.376 C342.91,132.626 355.596,149.941 369,164 C379.364,174.87 387.2992,181.7408 398.8782,190.3958 " fill="none" id="MEV searcher 2-to-block builder 1" style="stroke:#181818;stroke-width:1.0;"/><polygon fill="#181818" points="403.684,193.988,398.8701,185.3958,399.6791,190.9945,394.0805,191.8035,403.684,193.988" style="stroke:#181818;stroke-width:1.0;"/><text fill="#000000" font-family="sans-serif" font-size="13" lengthAdjust="spacing" textLength="64" x="370" y="160.0669">TX bundle</text></g><!--link MEV searcher 3 to block builder 2--><g id="link_MEV searcher 3_block builder 2"><path d="M184.64,117.101 C192.916,131.981 202.95,149.1 213,164 C219.814,174.103 224.2483,180.0847 231.5183,189.0987 " fill="none" id="MEV searcher 3-to-block builder 2" style="stroke:#181818;stroke-width:1.0;"/><polygon fill="#181818" points="235.285,193.769,232.7485,184.2524,232.1461,189.8771,226.5214,189.2747,235.285,193.769" style="stroke:#181818;stroke-width:1.0;"/><text fill="#000000" font-family="sans-serif" font-size="13" lengthAdjust="spacing" textLength="64" x="214" y="160.0669">TX bundle</text></g><!--link user to mempool--><g id="link_user_mempool"><path d="M66.5581,117.163 C71.499,145.161 76.9587,176.0993 80.4624,195.9533 " fill="none" id="user-to-mempool" style="stroke:#181818;stroke-width:1.0;"/><polygon fill="#181818" points="81.5051,201.862,83.8801,192.3038,80.6362,196.9381,76.0019,193.6941,81.5051,201.862" style="stroke:#181818;stroke-width:1.0;"/><text fill="#000000" font-family="sans-serif" font-size="13" lengthAdjust="spacing" textLength="17" x="76" y="160.0669">TX</text></g><!--link mempool to block builder 2--><g id="link_mempool_block builder 2"><path d="M145.758,217 C157.456,217 163.154,217 174.852,217 " fill="none" id="mempool-to-block builder 2" style="stroke:#181818;stroke-width:1.0;"/><polygon fill="#181818" points="180.852,217,171.852,213,175.852,217,171.852,221,180.852,217" style="stroke:#181818;stroke-width:1.0;"/></g><!--link block builder 1 to relayer 1--><g id="link_block builder 1_relayer 1"><path d="M370.389,240.053 C300.624,263.501 197.4013,298.1954 133.4403,319.6934 " fill="none" id="block builder 1-to-relayer 1" style="stroke:#181818;stroke-width:1.0;"/><polygon fill="#181818" points="127.753,321.605,137.5584,322.5292,132.4925,320.012,135.0096,314.9461,127.753,321.605" style="stroke:#181818;stroke-width:1.0;"/><text fill="#000000" font-family="sans-serif" font-size="13" lengthAdjust="spacing" textLength="33" x="279" y="283.0669">block</text></g><!--link block builder 1 to relayer 2--><g id="link_block builder 1_relayer 2"><path d="M402.608,240.196 C380.885,254.274 351.725,272.499 325,287 C305.547,297.555 289.0336,305.6143 269.8066,314.4343 " fill="none" id="block builder 1-to-relayer 2" style="stroke:#181818;stroke-width:1.0;"/><polygon fill="#181818" points="264.353,316.936,274.2012,316.8191,268.8976,314.8512,270.8655,309.5477,264.353,316.936" style="stroke:#181818;stroke-width:1.0;"/><text fill="#000000" font-family="sans-serif" font-size="13" lengthAdjust="spacing" textLength="33" x="354" y="283.0669">block</text></g><!--link block builder 2 to relayer 1--><g id="link_block builder 2_relayer 1"><path d="M221.352,240.193 C189.235,262.026 145.4481,291.7909 113.4031,313.5739 " fill="none" id="block builder 2-to-relayer 1" style="stroke:#181818;stroke-width:1.0;"/><polygon fill="#181818" points="108.441,316.947,118.1329,315.1955,112.5761,314.1361,113.6355,308.5793,108.441,316.947" style="stroke:#181818;stroke-width:1.0;"/><text fill="#000000" font-family="sans-serif" font-size="13" lengthAdjust="spacing" textLength="33" x="177" y="283.0669">block</text></g><!--link relayer 1 to validator--><g id="link_relayer 1_validator"><path d="M83.1993,363.049 C90.785,384.283 104.115,416.673 122,441 C139.329,464.571 159.5006,482.8062 179.0196,498.2067 " fill="none" id="relayer 1-to-validator" style="stroke:#181818;stroke-width:1.0;"/><polygon fill="#181818" points="183.73,501.9232,179.1421,493.2082,179.8047,498.8261,174.1868,499.4887,183.73,501.9232" style="stroke:#181818;stroke-width:1.0;"/><text fill="#000000" font-family="sans-serif" font-size="13" lengthAdjust="spacing" textLength="82" x="123" y="437.0669">block header</text></g><!--link relayer 2 to validator--><g id="link_relayer 2_validator"><path d="M246.143,363.262 C269.346,382.332 294.837,411.342 284,441 C275.266,464.902 260.6221,482.5379 244.6221,497.7817 " fill="none" id="relayer 2-to-validator" style="stroke:#181818;stroke-width:1.0;"/><polygon fill="#181818" points="240.278,501.9204,249.5532,498.6083,243.898,498.4714,244.0349,492.8162,240.278,501.9204" style="stroke:#181818;stroke-width:1.0;"/><text fill="#000000" font-family="sans-serif" font-size="13" lengthAdjust="spacing" textLength="82" x="288" y="437.0669">block header</text></g><!--reverse link relayer 2 to validator--><g id="link_relayer 2_validator"><path d="M214,369.074 C214,404.248 214,466.625 214,501.8476 " fill="none" id="relayer 2-backto-validator" style="stroke:#181818;stroke-width:1.0;"/><polygon fill="#181818" points="214,363.074,210,372.074,214,368.074,218,372.074,214,363.074" style="stroke:#181818;stroke-width:1.0;"/><text fill="#000000" font-family="sans-serif" font-size="13" lengthAdjust="spacing" textLength="60" x="215" y="437.0669">signature</text></g><!--link relayer 2 to blockchain--><g id="link_relayer 2_blockchain"><path d="M265.266,340 C299.161,340 337.876,340 374.226,340 " fill="none" id="relayer 2-to-blockchain" style="stroke:#181818;stroke-width:1.0;"/><polygon fill="#181818" points="380.226,340,371.226,336,375.226,340,371.226,344,380.226,340" style="stroke:#181818;stroke-width:1.0;"/><text fill="#000000" font-family="sans-serif" font-size="13" lengthAdjust="spacing" textLength="79" x="283.25" y="333.0669">signed block</text></g><!--SRC=[bP8nZy8m38Nt_WgBYHio4BOCjp6o8OI46DpMQYD2KwNjIIV4VpydH- -Q1eGOxNxlnNvkYyKPAuB5ThCNkRLTlu1hba46YZlG4RgY9WShDU_8fBFsdQ4ZfzZWc1jRd24Vj2cz_fIqvCa_ixpGfRNMV7YD8uFV8pqMp77rXKQNs5l7rJ8O5JNgnilcau8Gdv0Ee61tuB8f3QMxlAzPFzR8MEFZ2DpVdlvpj3W8fwkwPoODw46EzrV_er8GaDUeV8hAvwxHLG8rESKTWfgGRQARlK2ZYu8Ose1F9-rqrM0_EF9XpQnvrEa_0ByqbUFCjny0]--></g></svg>