<?xml version="1.0" encoding="us-ascii" standalone="no"?><svg xmlns="http://www.w3.org/2000/svg" xmlns:xlink="http://www.w3.org/1999/xlink" contentStyleType="text/css" height="222px" preserveAspectRatio="none" style="width:126px;height:222px;background:#FFFFFF;" version="1.1" viewBox="0 0 126 222" width="126px" zoomAndPan="magnify"><defs/><g><!--entity Alice--><g id="elem_Alice"><ellipse cx="23.5" cy="150" fill="#F1F1F1" rx="8" ry="8" style="stroke:#181818;stroke-width:0.5;"/><path d="M23.5,158 L23.5,185 M10.5,166 L36.5,166 M23.5,185 L10.5,200 M23.5,185 L36.5,200 " fill="none" style="stroke:#181818;stroke-width:0.5;"/><text fill="#000000" font-family="sans-serif" font-size="14" lengthAdjust="spacing" textLength="35" x="6" y="214.4951">Alice</text></g><!--entity Bob--><g id="elem_Bob"><ellipse cx="90.5" cy="150" fill="#F1F1F1" rx="8" ry="8" style="stroke:#181818;stroke-width:0.5;"/><path d="M90.5,158 L90.5,185 M77.5,166 L103.5,166 M90.5,185 L77.5,200 M90.5,185 L103.5,200 " fill="none" style="stroke:#181818;stroke-width:0.5;"/><text fill="#000000" font-family="sans-serif" font-size="14" lengthAdjust="spacing" textLength="29" x="76" y="214.4951">Bob</text></g><!--entity Charlie--><g id="elem_Charlie"><ellipse cx="94.5" cy="14" fill="#F1F1F1" rx="8" ry="8" style="stroke:#181818;stroke-width:0.5;"/><path d="M94.5,22 L94.5,49 M81.5,30 L107.5,30 M94.5,49 L81.5,64 M94.5,49 L107.5,64 " fill="none" style="stroke:#181818;stroke-width:0.5;"/><text fill="#000000" font-family="sans-serif" font-size="14" lengthAdjust="spacing" textLength="50" x="69.5" y="78.4951">Charlie</text></g><!--entity Eve--><g id="elem_Eve"><ellipse cx="20.5" cy="14" fill="#F1F1F1" rx="8" ry="8" style="stroke:#181818;stroke-width:0.5;"/><path d="M20.5,22 L20.5,49 M7.5,30 L33.5,30 M20.5,49 L7.5,64 M20.5,49 L33.5,64 " fill="none" style="stroke:#181818;stroke-width:0.5;"/><text fill="#000000" font-family="sans-serif" font-size="14" lengthAdjust="spacing" textLength="26" x="7.5" y="78.4951">Eve</text></g><!--link Eve to Charlie--><g id="link_Eve_Charlie"><path d="M34.0859,43.5 C45.8856,43.5 51.6852,43.5 63.4848,43.5 " fill="none" id="Eve-to-Charlie" style="stroke:#181818;stroke-width:1.0;"/><polygon fill="#181818" points="69.4848,43.5,60.4848,39.5,64.4848,43.5,60.4848,47.5,69.4848,43.5" style="stroke:#181818;stroke-width:1.0;"/></g><!--link Charlie to Alice--><g id="link_Charlie_Alice"><path d="M74.7225,81.826 C64.2184,101.651 54.2218,120.5178 44.0422,139.73 " fill="none" id="Charlie-to-Alice" style="stroke:#181818;stroke-width:1.0;"/><polygon fill="#181818" points="41.2331,145.0318,48.9813,138.9519,43.5741,140.6137,41.9123,135.2064,41.2331,145.0318" style="stroke:#181818;stroke-width:1.0;"/></g><!--link Alice to Bob--><g id="link_Alice_Bob"><path d="M41.0352,179.5 C52.6285,179.5 58.2218,179.5 69.8151,179.5 " fill="none" id="Alice-to-Bob" style="stroke:#181818;stroke-width:1.0;"/><polygon fill="#181818" points="75.8151,179.5,66.8151,175.5,70.8151,179.5,66.8151,183.5,75.8151,179.5" style="stroke:#181818;stroke-width:1.0;"/></g><!--reverse link Eve to Bob--><g id="link_Eve_Bob"><path d="M36.9411,75.9731 C48.9569,98.9741 63.6202,127.0444 75.9063,150.5634 " fill="none" id="Eve-backto-Bob" style="stroke:#181818;stroke-width:1.0;"/><polygon fill="#181818" points="34.1629,70.655,34.7848,80.4842,36.478,75.0867,41.8755,76.78,34.1629,70.655" style="stroke:#181818;stroke-width:1.0;"/></g><!--SRC=[IqmkoIzISCp9J4xbuae4Svpoas1Cvup4efnCk8nh6P0991HqYpBJCqfqxH0Ae0m5tPJyyZoW1DH4C8LG3ZOQI2ZebXO0kK2Z0000]--></g></svg>