<svg version="1.1" viewBox="0.0 0.0 1310.8556430446195 704.2992125984252" fill="none" stroke="none" stroke-linecap="square" stroke-miterlimit="10" xmlns:xlink="http://www.w3.org/1999/xlink" xmlns="http://www.w3.org/2000/svg"><clipPath id="p.0"><path d="m0 0l1310.8556 0l0 704.2992l-1310.8556 0l0 -704.2992z" clip-rule="nonzero"/></clipPath><g clip-path="url(#p.0)"><path fill="#140526" d="m0 0l1310.8556 0l0 704.2992l-1310.8556 0z" fill-rule="evenodd"/><path stroke="#8d3aed" stroke-width="4.0" stroke-linecap="butt" d="m794.3018 290.41733l0 129.89764" fill-rule="nonzero"/><path stroke="#8d3aed" stroke-width="4.0" stroke-linecap="butt" d="m946.6877 290.41733l0 129.89764" fill-rule="nonzero"/><path stroke="#8d3aed" stroke-width="4.0" stroke-linecap="butt" d="m792.3018 292.41733l156.38586 0" fill-rule="nonzero"/><path stroke="#8d3aed" stroke-width="4.0" stroke-linecap="butt" d="m792.3018 334.3832l156.38586 0" fill-rule="nonzero"/><path stroke="#8d3aed" stroke-width="4.0" stroke-linecap="butt" d="m792.3018 376.3491l156.38586 0" fill-rule="nonzero"/><path stroke="#8d3aed" stroke-width="4.0" stroke-linecap="butt" d="m792.3018 418.31497l156.38586 0" fill-rule="nonzero"/><path fill="#efefef" d="m805.0362 323.2592l0 -13.25l1.3125 0l0.125 2.28125l-0.203125 -0.265625q0.234375 -0.65625 0.71875 -1.140625q0.484375 -0.5 1.171875 -0.78125q0.703125 -0.28125 1.5 -0.28125q1.140625 0 2.09375 0.578125q0.96875 0.578125 1.546875 1.671875q0.578125 1.078125 0.578125 2.59375q0 1.515625 -0.59375 2.609375q-0.578125 1.09375 -1.546875 1.671875q-0.96875 0.578125 -2.125 0.578125q-1.15625 0 -2.03125 -0.5625q-0.859375 -0.578125 -1.234375 -1.453125l0.1875 -0.28125l0 6.03125l-1.5 0zm4.421875 -5.046875q1.375 0 2.140625 -0.96875q0.78125 -0.96875 0.78125 -2.578125q0 -1.59375 -0.75 -2.5625q-0.75 -0.96875 -2.109375 -0.96875q-0.90625 0 -1.578125 0.4375q-0.671875 0.4375 -1.046875 1.234375q-0.359375 0.78125 -0.359375 1.859375q0 1.078125 0.359375 1.875q0.359375 0.796875 1.015625 1.234375q0.671875 0.4375 1.546875 0.4375zm12.72876 -4.90625q0 -1.046875 -0.5625 -1.609375q-0.5625 -0.5625 -1.59375 -0.5625q-0.96875 0 -1.640625 0.421875q-0.671875 0.40625 -0.984375 1.34375l-1.21875 -0.75q0.375 -1.046875 1.375 -1.6875q1.015625 -0.640625 2.515625 -0.640625q1.0 0 1.8125 0.34375q0.828125 0.34375 1.296875 1.046875q0.484375 0.703125 0.484375 1.796875l0 4.515625q0 0.671875 0.71875 0.671875q0.34375 0 0.6875 -0.09375l-0.078125 1.171875q-0.375 0.1875 -0.96875 0.1875q-0.546875 0 -0.984375 -0.203125q-0.421875 -0.203125 -0.671875 -0.625q-0.234375 -0.421875 -0.234375 -1.046875l0 -0.1875l0.375 0.046875q-0.21875 0.734375 -0.765625 1.1875q-0.53125 0.453125 -1.203125 0.671875q-0.671875 0.21875 -1.328125 0.21875q-0.828125 0 -1.53125 -0.28125q-0.703125 -0.28125 -1.125 -0.84375q-0.421875 -0.578125 -0.421875 -1.40625q0 -1.046875 0.6875 -1.71875q0.703125 -0.6875 1.953125 -0.9375l3.703125 -0.734375l0 1.234375l-3.0 0.625q-0.921875 0.1875 -1.375 0.53125q-0.4375 0.328125 -0.4375 0.921875q0 0.578125 0.453125 0.9375q0.453125 0.359375 1.296875 0.359375q0.546875 0 1.03125 -0.140625q0.5 -0.140625 0.890625 -0.421875q0.390625 -0.296875 0.609375 -0.734375q0.234375 -0.4375 0.234375 -1.03125l0 -2.578125zm5.106262 6.03125l0 -9.328125l1.21875 0l0.203125 1.53125q0.390625 -0.859375 1.140625 -1.28125q0.765625 -0.4375 1.84375 -0.4375q0.234375 0 0.515625 0.046875q0.296875 0.03125 0.5 0.140625l-0.25 1.359375q-0.203125 -0.078125 -0.453125 -0.109375q-0.234375 -0.03125 -0.6875 -0.03125q-0.578125 0 -1.171875 0.34375q-0.578125 0.328125 -0.96875 1.015625q-0.390625 0.671875 -0.390625 1.71875l0 5.03125l-1.5 0zm11.21936 0.1875q-1.328125 0 -2.375 -0.578125q-1.03125 -0.578125 -1.609375 -1.671875q-0.578125 -1.09375 -0.578125 -2.609375q0 -1.5 0.578125 -2.59375q0.578125 -1.09375 1.578125 -1.671875q1.015625 -0.578125 2.3125 -0.578125q1.296875 0 2.21875 0.5625q0.921875 0.5625 1.40625 1.53125q0.484375 0.953125 0.484375 2.140625q0 0.3125 -0.015625 0.578125q-0.015625 0.265625 -0.046875 0.46875l-7.546875 0l0 -1.328125l6.890625 0l-0.765625 0.15625q0 -1.34375 -0.734375 -2.0625q-0.734375 -0.734375 -1.9375 -0.734375q-0.90625 0 -1.578125 0.421875q-0.65625 0.40625 -1.03125 1.203125q-0.359375 0.796875 -0.359375 1.90625q0 1.109375 0.375 1.921875q0.375 0.796875 1.046875 1.21875q0.6875 0.40625 1.640625 0.40625q1.03125 0 1.671875 -0.390625q0.640625 -0.390625 1.03125 -1.0625l1.1875 0.6875q-0.359375 0.640625 -0.921875 1.109375q-0.546875 0.46875 -1.28125 0.71875q-0.734375 0.25 -1.640625 0.25zm6.8583984 -0.1875l0 -9.328125l1.3125 0l0.125 2.09375l-0.25 -0.203125q0.3125 -0.75 0.8125 -1.203125q0.5 -0.46875 1.15625 -0.671875q0.671875 -0.203125 1.375 -0.203125q1.015625 0 1.828125 0.390625q0.828125 0.375 1.3125 1.15625q0.5 0.78125 0.5 2.0l0 5.96875l-1.5 0l0 -5.453125q0 -1.546875 -0.65625 -2.140625q-0.65625 -0.609375 -1.625 -0.609375q-0.671875 0 -1.34375 0.3125q-0.671875 0.3125 -1.109375 1.03125q-0.4375 0.703125 -0.4375 1.890625l0 4.96875l-1.5 0zm13.620728 -11.984375l0 9.40625q0 0.6875 0.390625 1.03125q0.390625 0.328125 1.0 0.328125q0.546875 0 0.9375 -0.171875q0.390625 -0.1875 0.71875 -0.515625l0.515625 1.25q-0.421875 0.390625 -1.015625 0.625q-0.59375 0.21875 -1.359375 0.21875q-0.703125 0 -1.328125 -0.25q-0.609375 -0.25 -0.96875 -0.796875q-0.359375 -0.5625 -0.390625 -1.453125l0 -9.25l1.5 -0.421875zm3.390625 2.65625l0 1.28125l-6.75 0l0 -1.28125l6.75 0zm10.327332 11.140625l0 1.390625l-10.0625 0l0 -1.390625l10.0625 0zm1.7276001 -1.8125l0 -13.625l1.5 0l0 5.703125q0.484375 -0.84375 1.28125 -1.21875q0.796875 -0.375 1.75 -0.375q1.015625 0 1.828125 0.390625q0.828125 0.375 1.3125 1.15625q0.5 0.78125 0.5 2.0l0 5.96875l-1.5 0l0 -5.453125q0 -1.546875 -0.65625 -2.140625q-0.65625 -0.609375 -1.625 -0.609375q-0.671875 0 -1.34375 0.3125q-0.671875 0.3125 -1.109375 1.03125q-0.4375 0.71875 -0.4375 1.921875l0 4.9375l-1.5 0zm17.001343 -6.03125q0 -1.046875 -0.5625 -1.609375q-0.5625 -0.5625 -1.59375 -0.5625q-0.96875 0 -1.640625 0.421875q-0.671875 0.40625 -0.984375 1.34375l-1.21875 -0.75q0.375 -1.046875 1.375 -1.6875q1.015625 -0.640625 2.515625 -0.640625q1.0 0 1.8125 0.34375q0.828125 0.34375 1.296875 1.046875q0.484375 0.703125 0.484375 1.796875l0 4.515625q0 0.671875 0.71875 0.671875q0.34375 0 0.6875 -0.09375l-0.078125 1.171875q-0.375 0.1875 -0.96875 0.1875q-0.546875 0 -0.984375 -0.203125q-0.421875 -0.203125 -0.671875 -0.625q-0.234375 -0.421875 -0.234375 -1.046875l0 -0.1875l0.375 0.046875q-0.21875 0.734375 -0.765625 1.1875q-0.53125 0.453125 -1.203125 0.671875q-0.671875 0.21875 -1.328125 0.21875q-0.828125 0 -1.53125 -0.28125q-0.703125 -0.28125 -1.125 -0.84375q-0.421875 -0.578125 -0.421875 -1.40625q0 -1.046875 0.6875 -1.71875q0.703125 -0.6875 1.953125 -0.9375l3.703125 -0.734375l0 1.234375l-3.0 0.625q-0.921875 0.1875 -1.375 0.53125q-0.4375 0.328125 -0.4375 0.921875q0 0.578125 0.453125 0.9375q0.453125 0.359375 1.296875 0.359375q0.546875 0 1.03125 -0.140625q0.5 -0.140625 0.890625 -0.421875q0.390625 -0.296875 0.609375 -0.734375q0.234375 -0.4375 0.234375 -1.03125l0 -2.578125zm8.465698 6.21875q-1.359375 0 -2.515625 -0.578125q-1.140625 -0.578125 -1.75 -1.640625l1.265625 -0.921875q0.40625 0.859375 1.1875 1.34375q0.796875 0.484375 1.921875 0.484375q0.984375 0 1.546875 -0.375q0.5625 -0.390625 0.5625 -1.0q0 -0.390625 -0.25 -0.71875q-0.25 -0.328125 -0.96875 -0.46875l-2.234375 -0.46875q-1.359375 -0.28125 -1.953125 -0.9375q-0.578125 -0.65625 -0.578125 -1.625q0 -0.765625 0.4375 -1.390625q0.4375 -0.640625 1.25 -1.015625q0.8125 -0.390625 1.90625 -0.390625q1.390625 0 2.328125 0.546875q0.953125 0.53125 1.421875 1.53125l-1.25 0.8125q-0.3125 -0.8125 -1.03125 -1.1875q-0.703125 -0.390625 -1.46875 -0.390625q-0.671875 0 -1.15625 0.1875q-0.46875 0.1875 -0.71875 0.515625q-0.25 0.3125 -0.25 0.734375q0 0.40625 0.28125 0.75q0.28125 0.34375 1.046875 0.5l2.328125 0.484375q1.3125 0.25 1.828125 0.859375q0.53125 0.59375 0.53125 1.453125q0 0.875 -0.46875 1.546875q-0.46875 0.65625 -1.3125 1.015625q-0.84375 0.34375 -1.9375 0.34375zm6.472473 -0.1875l0 -13.625l1.5 0l0 5.703125q0.484375 -0.84375 1.28125 -1.21875q0.796875 -0.375 1.75 -0.375q1.015625 0 1.828125 0.390625q0.828125 0.375 1.3125 1.15625q0.5 0.78125 0.5 2.0l0 5.96875l-1.5 0l0 -5.453125q0 -1.546875 -0.65625 -2.140625q-0.65625 -0.609375 -1.625 -0.609375q-0.671875 0 -1.34375 0.3125q-0.671875 0.3125 -1.109375 1.03125q-0.4375 0.71875 -0.4375 1.921875l0 4.9375l-1.5 0z" fill-rule="nonzero"/><path fill="#f3f3f3" d="m811.77057 365.22507l0 -6.484375l0.265625 0.1875q-0.140625 0.828125 -0.640625 1.40625q-0.484375 0.5625 -1.203125 0.859375q-0.71875 0.296875 -1.515625 0.296875q-1.15625 0 -2.125 -0.578125q-0.96875 -0.578125 -1.546875 -1.671875q-0.578125 -1.09375 -0.578125 -2.609375q0 -1.546875 0.609375 -2.625q0.609375 -1.078125 1.609375 -1.640625q1.015625 -0.578125 2.171875 -0.578125q0.796875 0 1.46875 0.296875q0.671875 0.28125 1.140625 0.8125q0.46875 0.53125 0.625 1.265625l-0.21875 0l0.125 -2.1875l1.3125 0l0 13.25l-1.5 0zm-2.953125 -5.046875q0.890625 0 1.546875 -0.4375q0.65625 -0.4375 1.03125 -1.25q0.375 -0.8125 0.375 -1.90625q0 -1.125 -0.359375 -1.890625q-0.359375 -0.78125 -1.015625 -1.1875q-0.65625 -0.40625 -1.53125 -0.40625q-1.390625 0 -2.171875 0.96875q-0.78125 0.96875 -0.78125 2.5625q0 1.609375 0.765625 2.578125q0.765625 0.96875 2.140625 0.96875zm11.29126 1.3125q-0.890625 0 -1.6875 -0.328125q-0.796875 -0.34375 -1.296875 -1.09375q-0.484375 -0.765625 -0.484375 -1.96875l0 -6.125l1.5 0l0 5.734375q0 1.40625 0.609375 1.9375q0.609375 0.53125 1.734375 0.53125q0.515625 0 1.015625 -0.171875q0.515625 -0.171875 0.90625 -0.546875q0.40625 -0.390625 0.640625 -0.984375q0.234375 -0.609375 0.234375 -1.421875l0 -5.078125l1.5 0l0 9.328125l-1.3125 0l-0.09375 -1.421875q-0.484375 0.84375 -1.3125 1.234375q-0.828125 0.375 -1.953125 0.375zm12.042114 0q-1.328125 0 -2.375 -0.578125q-1.03125 -0.578125 -1.609375 -1.671875q-0.578125 -1.09375 -0.578125 -2.609375q0 -1.5 0.578125 -2.59375q0.578125 -1.09375 1.578125 -1.671875q1.015625 -0.578125 2.3125 -0.578125q1.296875 0 2.21875 0.5625q0.921875 0.5625 1.40625 1.53125q0.484375 0.953125 0.484375 2.140625q0 0.3125 -0.015625 0.578125q-0.015625 0.265625 -0.046875 0.46875l-7.546875 0l0 -1.328125l6.890625 0l-0.765625 0.15625q0 -1.34375 -0.734375 -2.0625q-0.734375 -0.734375 -1.9375 -0.734375q-0.90625 0 -1.578125 0.421875q-0.65625 0.40625 -1.03125 1.203125q-0.359375 0.796875 -0.359375 1.90625q0 1.109375 0.375 1.921875q0.375 0.796875 1.046875 1.21875q0.6875 0.40625 1.640625 0.40625q1.03125 0 1.671875 -0.390625q0.640625 -0.390625 1.03125 -1.0625l1.1875 0.6875q-0.359375 0.640625 -0.921875 1.109375q-0.546875 0.46875 -1.28125 0.71875q-0.734375 0.25 -1.640625 0.25zm10.233459 0q-0.890625 0 -1.6875 -0.328125q-0.796875 -0.34375 -1.296875 -1.09375q-0.484375 -0.765625 -0.484375 -1.96875l0 -6.125l1.5 0l0 5.734375q0 1.40625 0.609375 1.9375q0.609375 0.53125 1.734375 0.53125q0.515625 0 1.015625 -0.171875q0.515625 -0.171875 0.90625 -0.546875q0.40625 -0.390625 0.640625 -0.984375q0.234375 -0.609375 0.234375 -1.421875l0 -5.078125l1.5 0l0 9.328125l-1.3125 0l-0.09375 -1.421875q-0.484375 0.84375 -1.3125 1.234375q-0.828125 0.375 -1.953125 0.375zm12.042114 0q-1.328125 0 -2.375 -0.578125q-1.03125 -0.578125 -1.609375 -1.671875q-0.578125 -1.09375 -0.578125 -2.609375q0 -1.5 0.578125 -2.59375q0.578125 -1.09375 1.578125 -1.671875q1.015625 -0.578125 2.3125 -0.578125q1.296875 0 2.21875 0.5625q0.921875 0.5625 1.40625 1.53125q0.484375 0.953125 0.484375 2.140625q0 0.3125 -0.015625 0.578125q-0.015625 0.265625 -0.046875 0.46875l-7.546875 0l0 -1.328125l6.890625 0l-0.765625 0.15625q0 -1.34375 -0.734375 -2.0625q-0.734375 -0.734375 -1.9375 -0.734375q-0.90625 0 -1.578125 0.421875q-0.65625 0.40625 -1.03125 1.203125q-0.359375 0.796875 -0.359375 1.90625q0 1.109375 0.375 1.921875q0.375 0.796875 1.046875 1.21875q0.6875 0.40625 1.640625 0.40625q1.03125 0 1.671875 -0.390625q0.640625 -0.390625 1.03125 -1.0625l1.1875 0.6875q-0.359375 0.640625 -0.921875 1.109375q-0.546875 0.46875 -1.28125 0.71875q-0.734375 0.25 -1.640625 0.25zm10.499084 0q-1.15625 0 -2.125 -0.578125q-0.96875 -0.578125 -1.546875 -1.671875q-0.578125 -1.09375 -0.578125 -2.609375q0 -1.546875 0.609375 -2.625q0.609375 -1.078125 1.609375 -1.640625q1.015625 -0.578125 2.171875 -0.578125q1.15625 0 2.0 0.59375q0.859375 0.59375 1.140625 1.59375l-0.1875 0.125l0 -6.421875l1.5 0l0 13.625l-1.3125 0l-0.125 -2.25l0.203125 -0.125q-0.140625 0.828125 -0.640625 1.40625q-0.484375 0.5625 -1.203125 0.859375q-0.71875 0.296875 -1.515625 0.296875zm0.140625 -1.3125q0.90625 0 1.5625 -0.4375q0.671875 -0.453125 1.03125 -1.28125q0.359375 -0.828125 0.359375 -1.953125q0 -1.0625 -0.359375 -1.828125q-0.359375 -0.765625 -1.015625 -1.171875q-0.640625 -0.40625 -1.5 -0.40625q-1.421875 0 -2.203125 0.96875q-0.78125 0.96875 -0.78125 2.5625q0 1.609375 0.765625 2.578125q0.765625 0.96875 2.140625 0.96875zm16.244324 2.9375l0 1.390625l-10.0625 0l0 -1.390625l10.0625 0zm7.0126953 -7.84375q0 -1.046875 -0.5625 -1.609375q-0.5625 -0.5625 -1.59375 -0.5625q-0.96875 0 -1.640625 0.421875q-0.671875 0.40625 -0.984375 1.34375l-1.21875 -0.75q0.375 -1.046875 1.375 -1.6875q1.015625 -0.640625 2.515625 -0.640625q1.0 0 1.8125 0.34375q0.828125 0.34375 1.296875 1.046875q0.484375 0.703125 0.484375 1.796875l0 4.515625q0 0.671875 0.71875 0.671875q0.34375 0 0.6875 -0.09375l-0.078125 1.171875q-0.375 0.1875 -0.96875 0.1875q-0.546875 0 -0.984375 -0.203125q-0.421875 -0.203125 -0.671875 -0.625q-0.234375 -0.421875 -0.234375 -1.046875l0 -0.1875l0.375 0.046875q-0.21875 0.734375 -0.765625 1.1875q-0.53125 0.453125 -1.203125 0.671875q-0.671875 0.21875 -1.328125 0.21875q-0.828125 0 -1.53125 -0.28125q-0.703125 -0.28125 -1.125 -0.84375q-0.421875 -0.578125 -0.421875 -1.40625q0 -1.046875 0.6875 -1.71875q0.703125 -0.6875 1.953125 -0.9375l3.703125 -0.734375l0 1.234375l-3.0 0.625q-0.921875 0.1875 -1.375 0.53125q-0.4375 0.328125 -0.4375 0.921875q0 0.578125 0.453125 0.9375q0.453125 0.359375 1.296875 0.359375q0.546875 0 1.03125 -0.140625q0.5 -0.140625 0.890625 -0.421875q0.390625 -0.296875 0.609375 -0.734375q0.234375 -0.4375 0.234375 -1.03125l0 -2.578125zm6.936096 -5.953125l0 9.40625q0 0.6875 0.390625 1.03125q0.390625 0.328125 1.0 0.328125q0.546875 0 0.9375 -0.171875q0.390625 -0.1875 0.71875 -0.515625l0.515625 1.25q-0.421875 0.390625 -1.015625 0.625q-0.59375 0.21875 -1.359375 0.21875q-0.703125 0 -1.328125 -0.25q-0.609375 -0.25 -0.96875 -0.796875q-0.359375 -0.5625 -0.390625 -1.453125l0 -9.25l1.5 -0.421875zm3.390625 2.65625l0 1.28125l-6.75 0l0 -1.28125l6.75 0z" fill-rule="nonzero"/><path fill="#f3f3f3" d="m805.0362 403.26907l0 -9.328125l1.3125 0l0.09375 1.453125q0.5 -0.859375 1.3125 -1.25q0.8125 -0.390625 1.671875 -0.390625q0.984375 0 1.859375 0.453125q0.875 0.4375 1.34375 1.375q0.296875 -0.640625 0.828125 -1.03125q0.546875 -0.40625 1.1875 -0.59375q0.65625 -0.203125 1.234375 -0.203125q0.890625 0 1.703125 0.375q0.8125 0.375 1.328125 1.15625q0.53125 0.78125 0.53125 2.015625l0 5.96875l-1.5 0l0 -5.828125q0 -1.265625 -0.640625 -1.8125q-0.625 -0.5625 -1.5625 -0.5625q-0.71875 0 -1.359375 0.359375q-0.625 0.34375 -1.015625 1.03125q-0.375 0.6875 -0.375 1.703125l0 5.109375l-1.5 0l0 -5.828125q0 -1.265625 -0.640625 -1.8125q-0.625 -0.5625 -1.5625 -0.5625q-0.609375 0 -1.265625 0.328125q-0.640625 0.3125 -1.0625 1.03125q-0.421875 0.703125 -0.421875 1.859375l0 4.984375l-1.5 0zm21.685669 0.1875q-1.328125 0 -2.375 -0.578125q-1.03125 -0.578125 -1.609375 -1.671875q-0.578125 -1.09375 -0.578125 -2.609375q0 -1.5 0.578125 -2.59375q0.578125 -1.09375 1.578125 -1.671875q1.015625 -0.578125 2.3125 -0.578125q1.296875 0 2.21875 0.5625q0.921875 0.5625 1.40625 1.53125q0.484375 0.953125 0.484375 2.140625q0 0.3125 -0.015625 0.578125q-0.015625 0.265625 -0.046875 0.46875l-7.546875 0l0 -1.328125l6.890625 0l-0.765625 0.15625q0 -1.34375 -0.734375 -2.0625q-0.734375 -0.734375 -1.9375 -0.734375q-0.90625 0 -1.578125 0.421875q-0.65625 0.40625 -1.03125 1.203125q-0.359375 0.796875 -0.359375 1.90625q0 1.109375 0.375 1.921875q0.375 0.796875 1.046875 1.21875q0.6875 0.40625 1.640625 0.40625q1.03125 0 1.671875 -0.390625q0.640625 -0.390625 1.03125 -1.0625l1.1875 0.6875q-0.359375 0.640625 -0.921875 1.109375q-0.546875 0.46875 -1.28125 0.71875q-0.734375 0.25 -1.640625 0.25zm10.217773 0q-1.359375 0 -2.515625 -0.578125q-1.140625 -0.578125 -1.75 -1.640625l1.265625 -0.921875q0.40625 0.859375 1.1875 1.34375q0.796875 0.484375 1.921875 0.484375q0.984375 0 1.546875 -0.375q0.5625 -0.390625 0.5625 -1.0q0 -0.390625 -0.25 -0.71875q-0.25 -0.328125 -0.96875 -0.46875l-2.234375 -0.46875q-1.359375 -0.28125 -1.953125 -0.9375q-0.578125 -0.65625 -0.578125 -1.625q0 -0.765625 0.4375 -1.390625q0.4375 -0.640625 1.25 -1.015625q0.8125 -0.390625 1.90625 -0.390625q1.390625 0 2.328125 0.546875q0.953125 0.53125 1.421875 1.53125l-1.25 0.8125q-0.3125 -0.8125 -1.03125 -1.1875q-0.703125 -0.390625 -1.46875 -0.390625q-0.671875 0 -1.15625 0.1875q-0.46875 0.1875 -0.71875 0.515625q-0.25 0.3125 -0.25 0.734375q0 0.40625 0.28125 0.75q0.28125 0.34375 1.046875 0.5l2.328125 0.484375q1.3125 0.25 1.828125 0.859375q0.53125 0.59375 0.53125 1.453125q0 0.875 -0.46875 1.546875q-0.46875 0.65625 -1.3125 1.015625q-0.84375 0.34375 -1.9375 0.34375zm9.831848 0q-1.359375 0 -2.515625 -0.578125q-1.140625 -0.578125 -1.75 -1.640625l1.265625 -0.921875q0.40625 0.859375 1.1875 1.34375q0.796875 0.484375 1.921875 0.484375q0.984375 0 1.546875 -0.375q0.5625 -0.390625 0.5625 -1.0q0 -0.390625 -0.25 -0.71875q-0.25 -0.328125 -0.96875 -0.46875l-2.234375 -0.46875q-1.359375 -0.28125 -1.953125 -0.9375q-0.578125 -0.65625 -0.578125 -1.625q0 -0.765625 0.4375 -1.390625q0.4375 -0.640625 1.25 -1.015625q0.8125 -0.390625 1.90625 -0.390625q1.390625 0 2.328125 0.546875q0.953125 0.53125 1.421875 1.53125l-1.25 0.8125q-0.3125 -0.8125 -1.03125 -1.1875q-0.703125 -0.390625 -1.46875 -0.390625q-0.671875 0 -1.15625 0.1875q-0.46875 0.1875 -0.71875 0.515625q-0.25 0.3125 -0.25 0.734375q0 0.40625 0.28125 0.75q0.28125 0.34375 1.046875 0.5l2.328125 0.484375q1.3125 0.25 1.828125 0.859375q0.53125 0.59375 0.53125 1.453125q0 0.875 -0.46875 1.546875q-0.46875 0.65625 -1.3125 1.015625q-0.84375 0.34375 -1.9375 0.34375zm11.925598 -6.21875q0 -1.046875 -0.5625 -1.609375q-0.5625 -0.5625 -1.59375 -0.5625q-0.96875 0 -1.640625 0.421875q-0.671875 0.40625 -0.984375 1.34375l-1.21875 -0.75q0.375 -1.046875 1.375 -1.6875q1.015625 -0.640625 2.515625 -0.640625q1.0 0 1.8125 0.34375q0.828125 0.34375 1.296875 1.046875q0.484375 0.703125 0.484375 1.796875l0 4.515625q0 0.671875 0.71875 0.671875q0.34375 0 0.6875 -0.09375l-0.078125 1.171875q-0.375 0.1875 -0.96875 0.1875q-0.546875 0 -0.984375 -0.203125q-0.421875 -0.203125 -0.671875 -0.625q-0.234375 -0.421875 -0.234375 -1.046875l0 -0.1875l0.375 0.046875q-0.21875 0.734375 -0.765625 1.1875q-0.53125 0.453125 -1.203125 0.671875q-0.671875 0.21875 -1.328125 0.21875q-0.828125 0 -1.53125 -0.28125q-0.703125 -0.28125 -1.125 -0.84375q-0.421875 -0.578125 -0.421875 -1.40625q0 -1.046875 0.6875 -1.71875q0.703125 -0.6875 1.953125 -0.9375l3.703125 -0.734375l0 1.234375l-3.0 0.625q-0.921875 0.1875 -1.375 0.53125q-0.4375 0.328125 -0.4375 0.921875q0 0.578125 0.453125 0.9375q0.453125 0.359375 1.296875 0.359375q0.546875 0 1.03125 -0.140625q0.5 -0.140625 0.890625 -0.421875q0.390625 -0.296875 0.609375 -0.734375q0.234375 -0.4375 0.234375 -1.03125l0 -2.578125zm12.965698 -5.015625l0.328125 1.328125q-0.015625 0 -0.0625 0q-0.03125 0 -0.0625 0q-0.921875 0 -1.421875 0.359375q-0.484375 0.359375 -0.484375 1.171875l-0.90625 -0.46875q0 -0.734375 0.328125 -1.265625q0.34375 -0.546875 0.921875 -0.828125q0.578125 -0.296875 1.265625 -0.296875q0.015625 0 0.046875 0q0.03125 0 0.046875 0zm-2.84375 9.859375q1.328125 0 2.078125 0.609375q0.75 0.59375 0.75 1.609375q0 0.90625 -0.609375 1.578125q-0.609375 0.671875 -1.625 1.03125q-1.015625 0.375 -2.28125 0.375q-2.203125 0 -3.296875 -0.75q-1.09375 -0.75 -1.09375 -1.796875q0 -0.734375 0.484375 -1.328125q0.5 -0.59375 1.671875 -0.65625l-0.125 0.265625q-0.625 -0.15625 -1.078125 -0.5625q-0.4375 -0.40625 -0.4375 -1.171875q0 -0.765625 0.5625 -1.3125q0.578125 -0.546875 1.703125 -0.671875l0.984375 0.5l-0.1875 0q-0.90625 0.09375 -1.296875 0.453125q-0.375 0.359375 -0.375 0.796875q0 0.515625 0.375 0.78125q0.390625 0.25 1.078125 0.25l2.71875 0zm-1.71875 3.953125q1.09375 0 1.78125 -0.234375q0.703125 -0.21875 1.03125 -0.578125q0.34375 -0.34375 0.34375 -0.765625q0 -0.5 -0.40625 -0.796875q-0.390625 -0.296875 -1.4375 -0.296875l-2.875 0q-0.59375 0 -1.015625 0.296875q-0.40625 0.3125 -0.40625 0.859375q0 0.6875 0.796875 1.09375q0.796875 0.421875 2.1875 0.421875zm-0.125 -12.28125q1.125 0 1.984375 0.40625q0.875 0.390625 1.359375 1.109375q0.484375 0.703125 0.484375 1.640625q0 0.90625 -0.484375 1.625q-0.484375 0.71875 -1.359375 1.125q-0.859375 0.40625 -1.984375 0.40625q-1.84375 0 -2.84375 -0.890625q-0.984375 -0.890625 -0.984375 -2.265625q0 -0.9375 0.5 -1.640625q0.5 -0.71875 1.34375 -1.109375q0.859375 -0.40625 1.984375 -0.40625zm0 1.21875q-0.96875 0 -1.625 0.53125q-0.65625 0.53125 -0.65625 1.40625q0 0.859375 0.65625 1.40625q0.65625 0.53125 1.625 0.53125q0.96875 0 1.625 -0.53125q0.65625 -0.546875 0.65625 -1.40625q0 -0.875 -0.65625 -1.40625q-0.65625 -0.53125 -1.625 -0.53125zm10.659485 8.484375q-1.328125 0 -2.375 -0.578125q-1.03125 -0.578125 -1.609375 -1.671875q-0.578125 -1.09375 -0.578125 -2.609375q0 -1.5 0.578125 -2.59375q0.578125 -1.09375 1.578125 -1.671875q1.015625 -0.578125 2.3125 -0.578125q1.296875 0 2.21875 0.5625q0.921875 0.5625 1.40625 1.53125q0.484375 0.953125 0.484375 2.140625q0 0.3125 -0.015625 0.578125q-0.015625 0.265625 -0.046875 0.46875l-7.546875 0l0 -1.328125l6.890625 0l-0.765625 0.15625q0 -1.34375 -0.734375 -2.0625q-0.734375 -0.734375 -1.9375 -0.734375q-0.90625 0 -1.578125 0.421875q-0.65625 0.40625 -1.03125 1.203125q-0.359375 0.796875 -0.359375 1.90625q0 1.109375 0.375 1.921875q0.375 0.796875 1.046875 1.21875q0.6875 0.40625 1.640625 0.40625q1.03125 0 1.671875 -0.390625q0.640625 -0.390625 1.03125 -1.0625l1.1875 0.6875q-0.359375 0.640625 -0.921875 1.109375q-0.546875 0.46875 -1.28125 0.71875q-0.734375 0.25 -1.640625 0.25zm15.186584 1.625l0 1.390625l-10.0625 0l0 -1.390625l10.0625 0zm1.7276001 -1.8125l0 -13.625l1.5 0l0 5.703125q0.484375 -0.84375 1.28125 -1.21875q0.796875 -0.375 1.75 -0.375q1.015625 0 1.828125 0.390625q0.828125 0.375 1.3125 1.15625q0.5 0.78125 0.5 2.0l0 5.96875l-1.5 0l0 -5.453125q0 -1.546875 -0.65625 -2.140625q-0.65625 -0.609375 -1.625 -0.609375q-0.671875 0 -1.34375 0.3125q-0.671875 0.3125 -1.109375 1.03125q-0.4375 0.71875 -0.4375 1.921875l0 4.9375l-1.5 0zm17.001343 -6.03125q0 -1.046875 -0.5625 -1.609375q-0.5625 -0.5625 -1.59375 -0.5625q-0.96875 0 -1.640625 0.421875q-0.671875 0.40625 -0.984375 1.34375l-1.21875 -0.75q0.375 -1.046875 1.375 -1.6875q1.015625 -0.640625 2.515625 -0.640625q1.0 0 1.8125 0.34375q0.828125 0.34375 1.296875 1.046875q0.484375 0.703125 0.484375 1.796875l0 4.515625q0 0.671875 0.71875 0.671875q0.34375 0 0.6875 -0.09375l-0.078125 1.171875q-0.375 0.1875 -0.96875 0.1875q-0.546875 0 -0.984375 -0.203125q-0.421875 -0.203125 -0.671875 -0.625q-0.234375 -0.421875 -0.234375 -1.046875l0 -0.1875l0.375 0.046875q-0.21875 0.734375 -0.765625 1.1875q-0.53125 0.453125 -1.203125 0.671875q-0.671875 0.21875 -1.328125 0.21875q-0.828125 0 -1.53125 -0.28125q-0.703125 -0.28125 -1.125 -0.84375q-0.421875 -0.578125 -0.421875 -1.40625q0 -1.046875 0.6875 -1.71875q0.703125 -0.6875 1.953125 -0.9375l3.703125 -0.734375l0 1.234375l-3.0 0.625q-0.921875 0.1875 -1.375 0.53125q-0.4375 0.328125 -0.4375 0.921875q0 0.578125 0.453125 0.9375q0.453125 0.359375 1.296875 0.359375q0.546875 0 1.03125 -0.140625q0.5 -0.140625 0.890625 -0.421875q0.390625 -0.296875 0.609375 -0.734375q0.234375 -0.4375 0.234375 -1.03125l0 -2.578125zm8.465637 6.21875q-1.359375 0 -2.515625 -0.578125q-1.140625 -0.578125 -1.75 -1.640625l1.265625 -0.921875q0.40625 0.859375 1.1875 1.34375q0.796875 0.484375 1.921875 0.484375q0.984375 0 1.546875 -0.375q0.5625 -0.390625 0.5625 -1.0q0 -0.390625 -0.25 -0.71875q-0.25 -0.328125 -0.96875 -0.46875l-2.234375 -0.46875q-1.359375 -0.28125 -1.953125 -0.9375q-0.578125 -0.65625 -0.578125 -1.625q0 -0.765625 0.4375 -1.390625q0.4375 -0.640625 1.25 -1.015625q0.8125 -0.390625 1.90625 -0.390625q1.390625 0 2.328125 0.546875q0.953125 0.53125 1.421875 1.53125l-1.25 0.8125q-0.3125 -0.8125 -1.03125 -1.1875q-0.703125 -0.390625 -1.46875 -0.390625q-0.671875 0 -1.15625 0.1875q-0.46875 0.1875 -0.71875 0.515625q-0.25 0.3125 -0.25 0.734375q0 0.40625 0.28125 0.75q0.28125 0.34375 1.046875 0.5l2.328125 0.484375q1.3125 0.25 1.828125 0.859375q0.53125 0.59375 0.53125 1.453125q0 0.875 -0.46875 1.546875q-0.46875 0.65625 -1.3125 1.015625q-0.84375 0.34375 -1.9375 0.34375zm6.472473 -0.1875l0 -13.625l1.5 0l0 5.703125q0.484375 -0.84375 1.28125 -1.21875q0.796875 -0.375 1.75 -0.375q1.015625 0 1.828125 0.390625q0.828125 0.375 1.3125 1.15625q0.5 0.78125 0.5 2.0l0 5.96875l-1.5 0l0 -5.453125q0 -1.546875 -0.65625 -2.140625q-0.65625 -0.609375 -1.625 -0.609375q-0.671875 0 -1.34375 0.3125q-0.671875 0.3125 -1.109375 1.03125q-0.4375 0.71875 -0.4375 1.921875l0 4.9375l-1.5 0z" fill-rule="nonzero"/><path fill="#000000" fill-opacity="0.0" d="m612.5197 205.96063l168.40942 91.18109" fill-rule="evenodd"/><path stroke="#8d3aed" stroke-width="4.0" stroke-linejoin="round" stroke-linecap="butt" d="m612.5197 205.96063l147.30426 79.75424" fill-rule="evenodd"/><path fill="#8d3aed" stroke="#8d3aed" stroke-width="4.0" stroke-linecap="butt" d="m756.6783 291.5249l19.108582 2.832672l-12.8172 -14.452698z" fill-rule="evenodd"/><path fill="#000000" fill-opacity="0.0" d="m364.16666 106.51181l290.70865 0l0 87.27559l-290.70865 0z" fill-rule="evenodd"/><path fill="#93c47d" d="m410.6354 132.31868l0 36.953125l-9.640625 0l0 -36.953125l9.640625 0zm-23.75 0l0 36.953125l-9.625 0l0 -36.953125l9.625 0zm19.265625 14.609375l0 7.453125l-24.1875 0l0 -7.453125l24.1875 0zm25.427002 -18.875l4.484375 4.375q-3.140625 2.859375 -5.15625 6.046875q-2.015625 3.1875 -2.953125 6.96875q-0.921875 3.78125 -0.921875 8.546875q0 4.75 0.921875 8.59375q0.9375 3.828125 2.953125 6.984375q2.015625 3.171875 5.15625 6.03125l-4.484375 4.375q-6.4375 -4.3125 -9.78125 -10.78125q-3.328125 -6.46875 -3.328125 -15.203125q0 -8.625 3.328125 -15.125q3.34375 -6.5 9.78125 -10.8125zm154.22745 51.921875l-4.484375 -4.375q3.1875 -2.859375 5.171875 -6.03125q2.0 -3.15625 2.890625 -6.984375q0.890625 -3.84375 0.890625 -8.546875q0 -4.75 -0.890625 -8.5625q-0.890625 -3.8125 -2.890625 -7.0q-1.984375 -3.1875 -5.171875 -6.046875l4.484375 -4.375q6.375 4.3125 9.734375 10.8125q3.359375 6.5 3.359375 15.171875q0 8.6875 -3.359375 15.15625q-3.359375 6.46875 -9.734375 10.78125z" fill-rule="nonzero"/><path stroke="#8d3aed" stroke-width="3.0" stroke-linecap="butt" d="m455.15485 91.855644l0 116.585304" fill-rule="nonzero"/><path stroke="#8d3aed" stroke-width="3.0" stroke-linecap="butt" d="m563.88715 91.855644l0 116.585304" fill-rule="nonzero"/><path stroke="#8d3aed" stroke-width="3.0" stroke-linecap="butt" d="m453.65616 93.35433l111.729645 0" fill-rule="nonzero"/><path stroke="#8d3aed" stroke-width="3.0" stroke-linecap="butt" d="m453.65616 134.95013l111.729645 0" fill-rule="nonzero"/><path stroke="#8d3aed" stroke-width="3.0" stroke-linecap="butt" d="m453.65616 165.34645l111.729645 0" fill-rule="nonzero"/><path stroke="#8d3aed" stroke-width="3.0" stroke-linecap="butt" d="m453.65616 206.94226l111.729645 0" fill-rule="nonzero"/><path fill="#efefef" d="m465.02985 113.267456l0 -6.625l0.640625 0l0.0625 1.140625l-0.09375 -0.125q0.125 -0.328125 0.359375 -0.578125q0.25 -0.25 0.59375 -0.375q0.34375 -0.140625 0.75 -0.140625q0.5625 0 1.03125 0.296875q0.484375 0.28125 0.765625 0.828125q0.296875 0.53125 0.296875 1.296875q0 0.75 -0.296875 1.296875q-0.28125 0.546875 -0.765625 0.84375q-0.484375 0.28125 -1.0625 0.28125q-0.578125 0 -1.015625 -0.28125q-0.4375 -0.28125 -0.625 -0.734375l0.09375 -0.125l0 3.0l-0.734375 0zm2.203125 -2.515625q0.6875 0 1.078125 -0.484375q0.390625 -0.484375 0.390625 -1.28125q0 -0.8125 -0.390625 -1.296875q-0.375 -0.484375 -1.046875 -0.484375q-0.453125 0 -0.796875 0.21875q-0.328125 0.21875 -0.515625 0.625q-0.1875 0.390625 -0.1875 0.9375q0 0.53125 0.1875 0.9375q0.1875 0.390625 0.515625 0.609375q0.328125 0.21875 0.765625 0.21875zm6.36438 -2.453125q0 -0.515625 -0.28125 -0.796875q-0.28125 -0.296875 -0.796875 -0.296875q-0.484375 0 -0.828125 0.21875q-0.328125 0.203125 -0.484375 0.671875l-0.609375 -0.375q0.1875 -0.515625 0.6875 -0.828125q0.515625 -0.328125 1.25 -0.328125q0.515625 0 0.921875 0.171875q0.40625 0.171875 0.640625 0.515625q0.25 0.34375 0.25 0.90625l0 2.25q0 0.34375 0.34375 0.34375q0.1875 0 0.34375 -0.046875l-0.03125 0.578125q-0.1875 0.09375 -0.484375 0.09375q-0.265625 0 -0.484375 -0.09375q-0.21875 -0.109375 -0.34375 -0.3125q-0.109375 -0.21875 -0.109375 -0.53125l0 -0.09375l0.1875 0.03125q-0.125 0.359375 -0.390625 0.59375q-0.265625 0.21875 -0.609375 0.328125q-0.328125 0.109375 -0.65625 0.109375q-0.40625 0 -0.765625 -0.140625q-0.359375 -0.140625 -0.578125 -0.421875q-0.203125 -0.28125 -0.203125 -0.703125q0 -0.53125 0.34375 -0.859375q0.359375 -0.34375 0.984375 -0.46875l1.84375 -0.359375l0 0.609375l-1.5 0.3125q-0.453125 0.09375 -0.6875 0.265625q-0.21875 0.15625 -0.21875 0.453125q0 0.296875 0.234375 0.484375q0.234375 0.171875 0.640625 0.171875q0.28125 0 0.515625 -0.0625q0.25 -0.078125 0.453125 -0.21875q0.203125 -0.140625 0.3125 -0.359375q0.109375 -0.21875 0.109375 -0.515625l0 -1.296875zm2.5609741 3.015625l0 -4.671875l0.59375 0l0.109375 0.765625q0.1875 -0.421875 0.5625 -0.625q0.390625 -0.21875 0.921875 -0.21875q0.125 0 0.265625 0.015625q0.15625 0.015625 0.25 0.0625l-0.125 0.6875q-0.109375 -0.03125 -0.234375 -0.046875q-0.109375 -0.03125 -0.34375 -0.03125q-0.28125 0 -0.578125 0.171875q-0.296875 0.171875 -0.5 0.515625q-0.1875 0.328125 -0.1875 0.859375l0 2.515625l-0.734375 0zm5.5940247 0.09375q-0.65625 0 -1.171875 -0.28125q-0.515625 -0.296875 -0.8125 -0.84375q-0.28125 -0.546875 -0.28125 -1.296875q0 -0.765625 0.28125 -1.296875q0.296875 -0.546875 0.796875 -0.828125q0.5 -0.296875 1.140625 -0.296875q0.65625 0 1.109375 0.28125q0.46875 0.265625 0.703125 0.75q0.25 0.484375 0.25 1.078125q0 0.15625 -0.015625 0.296875q0 0.125 -0.015625 0.21875l-3.765625 0l0 -0.65625l3.4375 0l-0.390625 0.078125q0 -0.671875 -0.375 -1.03125q-0.359375 -0.375 -0.953125 -0.375q-0.453125 0 -0.796875 0.21875q-0.328125 0.203125 -0.515625 0.609375q-0.171875 0.390625 -0.171875 0.953125q0 0.546875 0.1875 0.953125q0.1875 0.390625 0.53125 0.609375q0.34375 0.203125 0.8125 0.203125q0.515625 0 0.828125 -0.1875q0.328125 -0.203125 0.53125 -0.53125l0.578125 0.34375q-0.171875 0.3125 -0.453125 0.546875q-0.265625 0.234375 -0.640625 0.359375q-0.359375 0.125 -0.828125 0.125zm3.4448242 -0.09375l0 -4.671875l0.640625 0l0.0625 1.046875l-0.109375 -0.09375q0.140625 -0.375 0.390625 -0.59375q0.265625 -0.234375 0.59375 -0.328125q0.328125 -0.109375 0.6875 -0.109375q0.5 0 0.90625 0.1875q0.40625 0.1875 0.65625 0.578125q0.25 0.390625 0.25 1.0l0 2.984375l-0.75 0l0 -2.71875q0 -0.78125 -0.328125 -1.078125q-0.328125 -0.3125 -0.8125 -0.3125q-0.34375 0 -0.6875 0.171875q-0.328125 0.15625 -0.546875 0.515625q-0.21875 0.34375 -0.21875 0.9375l0 2.484375l-0.734375 0zm6.8025208 -5.984375l0 4.703125q0 0.34375 0.1875 0.515625q0.203125 0.15625 0.515625 0.15625q0.265625 0 0.453125 -0.09375q0.203125 -0.09375 0.359375 -0.25l0.265625 0.625q-0.21875 0.203125 -0.515625 0.3125q-0.28125 0.109375 -0.671875 0.109375q-0.359375 0 -0.671875 -0.125q-0.296875 -0.125 -0.484375 -0.390625q-0.171875 -0.28125 -0.1875 -0.734375l0 -4.625l0.75 -0.203125zm1.703125 1.3125l0 0.65625l-3.375 0l0 -0.65625l3.375 0zm5.1558533 5.578125l0 0.703125l-5.03125 0l0 -0.703125l5.03125 0zm0.87161255 -0.90625l0 -6.8125l0.734375 0l0 2.84375q0.25 -0.421875 0.640625 -0.59375q0.40625 -0.1875 0.890625 -0.1875q0.5 0 0.90625 0.1875q0.40625 0.1875 0.65625 0.578125q0.25 0.390625 0.25 1.0l0 2.984375l-0.75 0l0 -2.71875q0 -0.78125 -0.328125 -1.078125q-0.328125 -0.3125 -0.8125 -0.3125q-0.34375 0 -0.6875 0.171875q-0.328125 0.15625 -0.546875 0.515625q-0.21875 0.359375 -0.21875 0.953125l0 2.46875l-0.734375 0zm8.492859 -3.015625q0 -0.515625 -0.28125 -0.796875q-0.28125 -0.296875 -0.796875 -0.296875q-0.484375 0 -0.828125 0.21875q-0.328125 0.203125 -0.484375 0.671875l-0.609375 -0.375q0.1875 -0.515625 0.6875 -0.828125q0.515625 -0.328125 1.25 -0.328125q0.515625 0 0.921875 0.171875q0.40625 0.171875 0.640625 0.515625q0.25 0.34375 0.25 0.90625l0 2.25q0 0.34375 0.34375 0.34375q0.1875 0 0.34375 -0.046875l-0.03125 0.578125q-0.1875 0.09375 -0.484375 0.09375q-0.265625 0 -0.484375 -0.09375q-0.21875 -0.109375 -0.34375 -0.3125q-0.109375 -0.21875 -0.109375 -0.53125l0 -0.09375l0.1875 0.03125q-0.125 0.359375 -0.390625 0.59375q-0.265625 0.21875 -0.609375 0.328125q-0.328125 0.109375 -0.65625 0.109375q-0.40625 0 -0.765625 -0.140625q-0.359375 -0.140625 -0.578125 -0.421875q-0.203125 -0.28125 -0.203125 -0.703125q0 -0.53125 0.34375 -0.859375q0.359375 -0.34375 0.984375 -0.46875l1.84375 -0.359375l0 0.609375l-1.5 0.3125q-0.453125 0.09375 -0.6875 0.265625q-0.21875 0.15625 -0.21875 0.453125q0 0.296875 0.234375 0.484375q0.234375 0.171875 0.640625 0.171875q0.28125 0 0.515625 -0.0625q0.25 -0.078125 0.453125 -0.21875q0.203125 -0.140625 0.3125 -0.359375q0.109375 -0.21875 0.109375 -0.515625l0 -1.296875zm4.232849 3.109375q-0.6875 0 -1.265625 -0.28125q-0.5625 -0.296875 -0.875 -0.828125l0.640625 -0.453125q0.203125 0.421875 0.59375 0.671875q0.40625 0.234375 0.96875 0.234375q0.484375 0 0.765625 -0.1875q0.28125 -0.1875 0.28125 -0.5q0 -0.203125 -0.125 -0.359375q-0.125 -0.15625 -0.484375 -0.234375l-1.109375 -0.234375q-0.6875 -0.140625 -0.984375 -0.46875q-0.296875 -0.328125 -0.296875 -0.8125q0 -0.375 0.21875 -0.6875q0.21875 -0.328125 0.625 -0.515625q0.40625 -0.1875 0.96875 -0.1875q0.6875 0 1.15625 0.265625q0.484375 0.265625 0.71875 0.765625l-0.625 0.40625q-0.171875 -0.40625 -0.53125 -0.59375q-0.34375 -0.203125 -0.71875 -0.203125q-0.34375 0 -0.578125 0.09375q-0.234375 0.09375 -0.359375 0.265625q-0.125 0.15625 -0.125 0.359375q0 0.203125 0.125 0.390625q0.140625 0.171875 0.53125 0.234375l1.171875 0.25q0.640625 0.125 0.90625 0.421875q0.265625 0.296875 0.265625 0.734375q0 0.4375 -0.234375 0.765625q-0.234375 0.328125 -0.65625 0.515625q-0.421875 0.171875 -0.96875 0.171875zm3.2440796 -0.09375l0 -6.8125l0.734375 0l0 2.84375q0.25 -0.421875 0.640625 -0.59375q0.40625 -0.1875 0.890625 -0.1875q0.5 0 0.90625 0.1875q0.40625 0.1875 0.65625 0.578125q0.25 0.390625 0.25 1.0l0 2.984375l-0.75 0l0 -2.71875q0 -0.78125 -0.328125 -1.078125q-0.328125 -0.3125 -0.8125 -0.3125q-0.34375 0 -0.6875 0.171875q-0.328125 0.15625 -0.546875 0.515625q-0.21875 0.359375 -0.21875 0.953125l0 2.46875l-0.734375 0z" fill-rule="nonzero"/><path fill="#f3f3f3" d="m468.38922 154.86325l0 -3.234375l0.125 0.09375q-0.0625 0.40625 -0.3125 0.703125q-0.234375 0.28125 -0.59375 0.4375q-0.359375 0.140625 -0.765625 0.140625q-0.578125 0 -1.0625 -0.28125q-0.484375 -0.296875 -0.78125 -0.84375q-0.28125 -0.546875 -0.28125 -1.296875q0 -0.78125 0.296875 -1.3125q0.3125 -0.546875 0.8125 -0.828125q0.515625 -0.28125 1.09375 -0.28125q0.390625 0 0.71875 0.140625q0.34375 0.140625 0.578125 0.40625q0.234375 0.265625 0.3125 0.625l-0.109375 0l0.0625 -1.09375l0.65625 0l0 6.625l-0.75 0zm-1.46875 -2.515625q0.4375 0 0.765625 -0.21875q0.328125 -0.21875 0.515625 -0.625q0.1875 -0.40625 0.1875 -0.953125q0 -0.5625 -0.1875 -0.9375q-0.171875 -0.390625 -0.5 -0.59375q-0.328125 -0.21875 -0.765625 -0.21875q-0.6875 0 -1.078125 0.484375q-0.390625 0.484375 -0.390625 1.296875q0 0.796875 0.375 1.28125q0.390625 0.484375 1.078125 0.484375zm5.64563 0.65625q-0.453125 0 -0.859375 -0.171875q-0.390625 -0.171875 -0.640625 -0.546875q-0.234375 -0.375 -0.234375 -0.984375l0 -3.0625l0.734375 0l0 2.875q0 0.703125 0.3125 0.96875q0.3125 0.265625 0.875 0.265625q0.25 0 0.5 -0.078125q0.25 -0.09375 0.453125 -0.28125q0.203125 -0.203125 0.3125 -0.5q0.125 -0.296875 0.125 -0.703125l0 -2.546875l0.75 0l0 4.671875l-0.65625 0l-0.046875 -0.703125q-0.234375 0.40625 -0.65625 0.609375q-0.421875 0.1875 -0.96875 0.1875zm6.005432 0q-0.65625 0 -1.171875 -0.28125q-0.515625 -0.296875 -0.8125 -0.84375q-0.28125 -0.546875 -0.28125 -1.296875q0 -0.765625 0.28125 -1.296875q0.296875 -0.546875 0.796875 -0.828125q0.5 -0.296875 1.140625 -0.296875q0.65625 0 1.109375 0.28125q0.46875 0.265625 0.703125 0.75q0.25 0.484375 0.25 1.078125q0 0.15625 -0.015625 0.296875q0 0.125 -0.015625 0.21875l-3.765625 0l0 -0.65625l3.4375 0l-0.390625 0.078125q0 -0.671875 -0.375 -1.03125q-0.359375 -0.375 -0.953125 -0.375q-0.453125 0 -0.796875 0.21875q-0.328125 0.203125 -0.515625 0.609375q-0.171875 0.390625 -0.171875 0.953125q0 0.546875 0.1875 0.953125q0.1875 0.390625 0.53125 0.609375q0.34375 0.203125 0.8125 0.203125q0.515625 0 0.828125 -0.1875q0.328125 -0.203125 0.53125 -0.53125l0.578125 0.34375q-0.171875 0.3125 -0.453125 0.546875q-0.265625 0.234375 -0.640625 0.359375q-0.359375 0.125 -0.828125 0.125zm5.132324 0q-0.453125 0 -0.859375 -0.171875q-0.390625 -0.171875 -0.640625 -0.546875q-0.234375 -0.375 -0.234375 -0.984375l0 -3.0625l0.734375 0l0 2.875q0 0.703125 0.3125 0.96875q0.3125 0.265625 0.875 0.265625q0.25 0 0.5 -0.078125q0.25 -0.09375 0.453125 -0.28125q0.203125 -0.203125 0.3125 -0.5q0.125 -0.296875 0.125 -0.703125l0 -2.546875l0.75 0l0 4.671875l-0.65625 0l-0.046875 -0.703125q-0.234375 0.40625 -0.65625 0.609375q-0.421875 0.1875 -0.96875 0.1875zm6.0054626 0q-0.65625 0 -1.171875 -0.28125q-0.515625 -0.296875 -0.8125 -0.84375q-0.28125 -0.546875 -0.28125 -1.296875q0 -0.765625 0.28125 -1.296875q0.296875 -0.546875 0.796875 -0.828125q0.5 -0.296875 1.140625 -0.296875q0.65625 0 1.109375 0.28125q0.46875 0.265625 0.703125 0.75q0.25 0.484375 0.25 1.078125q0 0.15625 -0.015625 0.296875q0 0.125 -0.015625 0.21875l-3.765625 0l0 -0.65625l3.4375 0l-0.390625 0.078125q0 -0.671875 -0.375 -1.03125q-0.359375 -0.375 -0.953125 -0.375q-0.453125 0 -0.796875 0.21875q-0.328125 0.203125 -0.515625 0.609375q-0.171875 0.390625 -0.171875 0.953125q0 0.546875 0.1875 0.953125q0.1875 0.390625 0.53125 0.609375q0.34375 0.203125 0.8125 0.203125q0.515625 0 0.828125 -0.1875q0.328125 -0.203125 0.53125 -0.53125l0.578125 0.34375q-0.171875 0.3125 -0.453125 0.546875q-0.265625 0.234375 -0.640625 0.359375q-0.359375 0.125 -0.828125 0.125zm5.257324 0q-0.578125 0 -1.0625 -0.28125q-0.484375 -0.296875 -0.78125 -0.84375q-0.28125 -0.546875 -0.28125 -1.296875q0 -0.78125 0.296875 -1.3125q0.3125 -0.546875 0.8125 -0.828125q0.515625 -0.28125 1.09375 -0.28125q0.578125 0 1.0 0.296875q0.421875 0.296875 0.5625 0.78125l-0.09375 0.078125l0 -3.21875l0.75 0l0 6.8125l-0.65625 0l-0.0625 -1.125l0.09375 -0.0625q-0.0625 0.40625 -0.3125 0.703125q-0.234375 0.28125 -0.59375 0.4375q-0.359375 0.140625 -0.765625 0.140625zm0.078125 -0.65625q0.4375 0 0.765625 -0.21875q0.34375 -0.21875 0.515625 -0.640625q0.1875 -0.421875 0.1875 -0.96875q0 -0.53125 -0.1875 -0.90625q-0.171875 -0.390625 -0.5 -0.59375q-0.3125 -0.21875 -0.75 -0.21875q-0.703125 0 -1.09375 0.484375q-0.390625 0.484375 -0.390625 1.296875q0 0.796875 0.375 1.28125q0.390625 0.484375 1.078125 0.484375zm8.114349 1.46875l0 0.703125l-5.03125 0l0 -0.703125l5.03125 0zm3.5063782 -3.921875q0 -0.515625 -0.28125 -0.796875q-0.28125 -0.296875 -0.796875 -0.296875q-0.484375 0 -0.828125 0.21875q-0.328125 0.203125 -0.484375 0.671875l-0.609375 -0.375q0.1875 -0.515625 0.6875 -0.828125q0.515625 -0.328125 1.25 -0.328125q0.515625 0 0.921875 0.171875q0.40625 0.171875 0.640625 0.515625q0.25 0.34375 0.25 0.90625l0 2.25q0 0.34375 0.34375 0.34375q0.1875 0 0.34375 -0.046875l-0.03125 0.578125q-0.1875 0.09375 -0.484375 0.09375q-0.265625 0 -0.484375 -0.09375q-0.21875 -0.109375 -0.34375 -0.3125q-0.109375 -0.21875 -0.109375 -0.53125l0 -0.09375l0.1875 0.03125q-0.125 0.359375 -0.390625 0.59375q-0.265625 0.21875 -0.609375 0.328125q-0.328125 0.109375 -0.65625 0.109375q-0.40625 0 -0.765625 -0.140625q-0.359375 -0.140625 -0.578125 -0.421875q-0.203125 -0.28125 -0.203125 -0.703125q0 -0.53125 0.34375 -0.859375q0.359375 -0.34375 0.984375 -0.46875l1.84375 -0.359375l0 0.609375l-1.5 0.3125q-0.453125 0.09375 -0.6875 0.265625q-0.21875 0.15625 -0.21875 0.453125q0 0.296875 0.234375 0.484375q0.234375 0.171875 0.640625 0.171875q0.28125 0 0.515625 -0.0625q0.25 -0.078125 0.453125 -0.21875q0.203125 -0.140625 0.3125 -0.359375q0.109375 -0.21875 0.109375 -0.515625l0 -1.296875zm3.468048 -2.96875l0 4.703125q0 0.34375 0.1875 0.515625q0.203125 0.15625 0.515625 0.15625q0.265625 0 0.453125 -0.09375q0.203125 -0.09375 0.359375 -0.25l0.265625 0.625q-0.21875 0.203125 -0.515625 0.3125q-0.28125 0.109375 -0.671875 0.109375q-0.359375 0 -0.671875 -0.125q-0.296875 -0.125 -0.484375 -0.390625q-0.171875 -0.28125 -0.1875 -0.734375l0 -4.625l0.75 -0.203125zm1.703125 1.3125l0 0.65625l-3.375 0l0 -0.65625l3.375 0z" fill-rule="nonzero"/><path fill="#f3f3f3" d="m465.02985 183.30646l0 -4.671875l0.640625 0l0.046875 0.734375q0.25 -0.421875 0.65625 -0.609375q0.40625 -0.203125 0.84375 -0.203125q0.484375 0 0.921875 0.21875q0.453125 0.21875 0.6875 0.6875q0.140625 -0.3125 0.40625 -0.515625q0.28125 -0.203125 0.59375 -0.296875q0.328125 -0.09375 0.609375 -0.09375q0.453125 0 0.859375 0.1875q0.40625 0.171875 0.65625 0.578125q0.265625 0.390625 0.265625 1.0l0 2.984375l-0.734375 0l0 -2.90625q0 -0.640625 -0.328125 -0.921875q-0.3125 -0.28125 -0.78125 -0.28125q-0.359375 0 -0.6875 0.1875q-0.3125 0.171875 -0.5 0.515625q-0.1875 0.34375 -0.1875 0.84375l0 2.5625l-0.75 0l0 -2.90625q0 -0.640625 -0.328125 -0.921875q-0.3125 -0.28125 -0.765625 -0.28125q-0.3125 0 -0.640625 0.171875q-0.3125 0.15625 -0.53125 0.515625q-0.21875 0.359375 -0.21875 0.9375l0 2.484375l-0.734375 0zm10.827209 0.09375q-0.65625 0 -1.171875 -0.28125q-0.515625 -0.296875 -0.8125 -0.84375q-0.28125 -0.546875 -0.28125 -1.296875q0 -0.765625 0.28125 -1.296875q0.296875 -0.546875 0.796875 -0.828125q0.5 -0.296875 1.140625 -0.296875q0.65625 0 1.109375 0.28125q0.46875 0.265625 0.703125 0.75q0.25 0.484375 0.25 1.078125q0 0.15625 -0.015625 0.296875q0 0.125 -0.015625 0.21875l-3.765625 0l0 -0.65625l3.4375 0l-0.390625 0.078125q0 -0.671875 -0.375 -1.03125q-0.359375 -0.375 -0.953125 -0.375q-0.453125 0 -0.796875 0.21875q-0.328125 0.203125 -0.515625 0.609375q-0.171875 0.390625 -0.171875 0.953125q0 0.546875 0.1875 0.953125q0.1875 0.390625 0.53125 0.609375q0.34375 0.203125 0.8125 0.203125q0.515625 0 0.828125 -0.1875q0.328125 -0.203125 0.53125 -0.53125l0.578125 0.34375q-0.171875 0.3125 -0.453125 0.546875q-0.265625 0.234375 -0.640625 0.359375q-0.359375 0.125 -0.828125 0.125zm5.116699 0q-0.6875 0 -1.265625 -0.28125q-0.5625 -0.296875 -0.875 -0.828125l0.640625 -0.453125q0.203125 0.421875 0.59375 0.671875q0.40625 0.234375 0.96875 0.234375q0.484375 0 0.765625 -0.1875q0.28125 -0.1875 0.28125 -0.5q0 -0.203125 -0.125 -0.359375q-0.125 -0.15625 -0.484375 -0.234375l-1.109375 -0.234375q-0.6875 -0.140625 -0.984375 -0.46875q-0.296875 -0.328125 -0.296875 -0.8125q0 -0.375 0.21875 -0.6875q0.21875 -0.328125 0.625 -0.515625q0.40625 -0.1875 0.96875 -0.1875q0.6875 0 1.15625 0.265625q0.484375 0.265625 0.71875 0.765625l-0.625 0.40625q-0.171875 -0.40625 -0.53125 -0.59375q-0.34375 -0.203125 -0.71875 -0.203125q-0.34375 0 -0.578125 0.09375q-0.234375 0.09375 -0.359375 0.265625q-0.125 0.15625 -0.125 0.359375q0 0.203125 0.125 0.390625q0.140625 0.171875 0.53125 0.234375l1.171875 0.25q0.640625 0.125 0.90625 0.421875q0.265625 0.296875 0.265625 0.734375q0 0.4375 -0.234375 0.765625q-0.234375 0.328125 -0.65625 0.515625q-0.421875 0.171875 -0.96875 0.171875zm4.915924 0q-0.6875 0 -1.265625 -0.28125q-0.5625 -0.296875 -0.875 -0.828125l0.640625 -0.453125q0.203125 0.421875 0.59375 0.671875q0.40625 0.234375 0.96875 0.234375q0.484375 0 0.765625 -0.1875q0.28125 -0.1875 0.28125 -0.5q0 -0.203125 -0.125 -0.359375q-0.125 -0.15625 -0.484375 -0.234375l-1.109375 -0.234375q-0.6875 -0.140625 -0.984375 -0.46875q-0.296875 -0.328125 -0.296875 -0.8125q0 -0.375 0.21875 -0.6875q0.21875 -0.328125 0.625 -0.515625q0.40625 -0.1875 0.96875 -0.1875q0.6875 0 1.15625 0.265625q0.484375 0.265625 0.71875 0.765625l-0.625 0.40625q-0.171875 -0.40625 -0.53125 -0.59375q-0.34375 -0.203125 -0.71875 -0.203125q-0.34375 0 -0.578125 0.09375q-0.234375 0.09375 -0.359375 0.265625q-0.125 0.15625 -0.125 0.359375q0 0.203125 0.125 0.390625q0.140625 0.171875 0.53125 0.234375l1.171875 0.25q0.640625 0.125 0.90625 0.421875q0.265625 0.296875 0.265625 0.734375q0 0.4375 -0.234375 0.765625q-0.234375 0.328125 -0.65625 0.515625q-0.421875 0.171875 -0.96875 0.171875zm5.962799 -3.109375q0 -0.515625 -0.28125 -0.796875q-0.28125 -0.296875 -0.796875 -0.296875q-0.484375 0 -0.828125 0.21875q-0.328125 0.203125 -0.484375 0.671875l-0.609375 -0.375q0.1875 -0.515625 0.6875 -0.828125q0.515625 -0.328125 1.25 -0.328125q0.515625 0 0.921875 0.171875q0.40625 0.171875 0.640625 0.515625q0.25 0.34375 0.25 0.90625l0 2.25q0 0.34375 0.34375 0.34375q0.1875 0 0.34375 -0.046875l-0.03125 0.578125q-0.1875 0.09375 -0.484375 0.09375q-0.265625 0 -0.484375 -0.09375q-0.21875 -0.109375 -0.34375 -0.3125q-0.109375 -0.21875 -0.109375 -0.53125l0 -0.09375l0.1875 0.03125q-0.125 0.359375 -0.390625 0.59375q-0.265625 0.21875 -0.609375 0.328125q-0.328125 0.109375 -0.65625 0.109375q-0.40625 0 -0.765625 -0.140625q-0.359375 -0.140625 -0.578125 -0.421875q-0.203125 -0.28125 -0.203125 -0.703125q0 -0.53125 0.34375 -0.859375q0.359375 -0.34375 0.984375 -0.46875l1.84375 -0.359375l0 0.609375l-1.5 0.3125q-0.453125 0.09375 -0.6875 0.265625q-0.21875 0.15625 -0.21875 0.453125q0 0.296875 0.234375 0.484375q0.234375 0.171875 0.640625 0.171875q0.28125 0 0.515625 -0.0625q0.25 -0.078125 0.453125 -0.21875q0.203125 -0.140625 0.3125 -0.359375q0.109375 -0.21875 0.109375 -0.515625l0 -1.296875zm6.482849 -2.5l0.171875 0.65625q-0.015625 0 -0.03125 0q-0.015625 0 -0.046875 0q-0.453125 0 -0.703125 0.1875q-0.234375 0.171875 -0.234375 0.578125l-0.46875 -0.234375q0 -0.359375 0.171875 -0.625q0.171875 -0.28125 0.453125 -0.421875q0.296875 -0.140625 0.640625 -0.140625q0 0 0.015625 0q0.015625 0 0.03125 0zm-1.421875 4.921875q0.671875 0 1.03125 0.3125q0.375 0.296875 0.375 0.796875q0 0.453125 -0.3125 0.78125q-0.296875 0.34375 -0.8125 0.515625q-0.5 0.1875 -1.125 0.1875q-1.109375 0 -1.65625 -0.375q-0.546875 -0.359375 -0.546875 -0.890625q0 -0.375 0.25 -0.671875q0.25 -0.28125 0.84375 -0.328125l-0.0625 0.140625q-0.328125 -0.078125 -0.546875 -0.28125q-0.21875 -0.203125 -0.21875 -0.578125q0 -0.390625 0.28125 -0.65625q0.296875 -0.28125 0.84375 -0.34375l0.5 0.25l-0.09375 0q-0.453125 0.046875 -0.65625 0.234375q-0.1875 0.171875 -0.1875 0.390625q0 0.265625 0.1875 0.390625q0.203125 0.125 0.546875 0.125l1.359375 0zm-0.859375 1.96875q0.546875 0 0.890625 -0.109375q0.359375 -0.109375 0.515625 -0.296875q0.171875 -0.171875 0.171875 -0.375q0 -0.25 -0.203125 -0.40625q-0.203125 -0.140625 -0.71875 -0.140625l-1.4375 0q-0.296875 0 -0.5 0.15625q-0.203125 0.15625 -0.203125 0.421875q0 0.34375 0.390625 0.546875q0.390625 0.203125 1.09375 0.203125zm-0.0625 -6.125q0.5625 0 0.984375 0.203125q0.4375 0.1875 0.671875 0.546875q0.25 0.359375 0.25 0.8125q0 0.46875 -0.25 0.828125q-0.234375 0.359375 -0.671875 0.5625q-0.421875 0.1875 -0.984375 0.1875q-0.921875 0 -1.421875 -0.4375q-0.484375 -0.4375 -0.484375 -1.140625q0 -0.453125 0.234375 -0.8125q0.25 -0.359375 0.671875 -0.546875q0.4375 -0.203125 1.0 -0.203125zm0 0.59375q-0.484375 0 -0.8125 0.265625q-0.328125 0.265625 -0.328125 0.703125q0 0.4375 0.328125 0.71875q0.328125 0.265625 0.8125 0.265625q0.484375 0 0.8125 -0.265625q0.328125 -0.28125 0.328125 -0.71875q0 -0.4375 -0.328125 -0.703125q-0.328125 -0.265625 -0.8125 -0.265625zm5.3219604 4.25q-0.65625 0 -1.171875 -0.28125q-0.515625 -0.296875 -0.8125 -0.84375q-0.28125 -0.546875 -0.28125 -1.296875q0 -0.765625 0.28125 -1.296875q0.296875 -0.546875 0.796875 -0.828125q0.5 -0.296875 1.140625 -0.296875q0.65625 0 1.109375 0.28125q0.46875 0.265625 0.703125 0.75q0.25 0.484375 0.25 1.078125q0 0.15625 -0.015625 0.296875q0 0.125 -0.015625 0.21875l-3.765625 0l0 -0.65625l3.4375 0l-0.390625 0.078125q0 -0.671875 -0.375 -1.03125q-0.359375 -0.375 -0.953125 -0.375q-0.453125 0 -0.796875 0.21875q-0.328125 0.203125 -0.515625 0.609375q-0.171875 0.390625 -0.171875 0.953125q0 0.546875 0.1875 0.953125q0.1875 0.390625 0.53125 0.609375q0.34375 0.203125 0.8125 0.203125q0.515625 0 0.828125 -0.1875q0.328125 -0.203125 0.53125 -0.53125l0.578125 0.34375q-0.171875 0.3125 -0.453125 0.546875q-0.265625 0.234375 -0.640625 0.359375q-0.359375 0.125 -0.828125 0.125zm7.601074 0.8125l0 0.703125l-5.03125 0l0 -0.703125l5.03125 0zm0.87161255 -0.90625l0 -6.8125l0.734375 0l0 2.84375q0.25 -0.421875 0.640625 -0.59375q0.40625 -0.1875 0.8905945 -0.1875q0.5 0 0.90625 0.1875q0.40625 0.1875 0.65625 0.578125q0.25 0.390625 0.25 1.0l0 2.984375l-0.75 0l0 -2.71875q0 -0.78125 -0.328125 -1.078125q-0.328125 -0.3125 -0.8124695 -0.3125q-0.34375 0 -0.6875 0.171875q-0.328125 0.15625 -0.546875 0.515625q-0.21875 0.359375 -0.21875 0.953125l0 2.46875l-0.734375 0zm8.492828 -3.015625q0 -0.515625 -0.28125 -0.796875q-0.28125 -0.296875 -0.796875 -0.296875q-0.484375 0 -0.828125 0.21875q-0.328125 0.203125 -0.484375 0.671875l-0.609375 -0.375q0.1875 -0.515625 0.6875 -0.828125q0.515625 -0.328125 1.25 -0.328125q0.515625 0 0.921875 0.171875q0.40625 0.171875 0.640625 0.515625q0.25 0.34375 0.25 0.90625l0 2.25q0 0.34375 0.34375 0.34375q0.1875 0 0.34375 -0.046875l-0.03125 0.578125q-0.1875 0.09375 -0.484375 0.09375q-0.265625 0 -0.484375 -0.09375q-0.21875 -0.109375 -0.34375 -0.3125q-0.109375 -0.21875 -0.109375 -0.53125l0 -0.09375l0.1875 0.03125q-0.125 0.359375 -0.390625 0.59375q-0.265625 0.21875 -0.609375 0.328125q-0.328125 0.109375 -0.65625 0.109375q-0.40625 0 -0.765625 -0.140625q-0.359375 -0.140625 -0.578125 -0.421875q-0.203125 -0.28125 -0.203125 -0.703125q0 -0.53125 0.34375 -0.859375q0.359375 -0.34375 0.984375 -0.46875l1.84375 -0.359375l0 0.609375l-1.5 0.3125q-0.453125 0.09375 -0.6875 0.265625q-0.21875 0.15625 -0.21875 0.453125q0 0.296875 0.234375 0.484375q0.234375 0.171875 0.640625 0.171875q0.28125 0 0.515625 -0.0625q0.25 -0.078125 0.453125 -0.21875q0.203125 -0.140625 0.3125 -0.359375q0.109375 -0.21875 0.109375 -0.515625l0 -1.296875zm4.232849 3.109375q-0.6875 0 -1.265625 -0.28125q-0.5625 -0.296875 -0.875 -0.828125l0.640625 -0.453125q0.203125 0.421875 0.59375 0.671875q0.40625 0.234375 0.96875 0.234375q0.484375 0 0.765625 -0.1875q0.28125 -0.1875 0.28125 -0.5q0 -0.203125 -0.125 -0.359375q-0.125 -0.15625 -0.484375 -0.234375l-1.109375 -0.234375q-0.6875 -0.140625 -0.984375 -0.46875q-0.296875 -0.328125 -0.296875 -0.8125q0 -0.375 0.21875 -0.6875q0.21875 -0.328125 0.625 -0.515625q0.40625 -0.1875 0.96875 -0.1875q0.6875 0 1.15625 0.265625q0.484375 0.265625 0.71875 0.765625l-0.625 0.40625q-0.171875 -0.40625 -0.53125 -0.59375q-0.34375 -0.203125 -0.71875 -0.203125q-0.34375 0 -0.578125 0.09375q-0.234375 0.09375 -0.359375 0.265625q-0.125 0.15625 -0.125 0.359375q0 0.203125 0.125 0.390625q0.140625 0.171875 0.53125 0.234375l1.171875 0.25q0.640625 0.125 0.90625 0.421875q0.265625 0.296875 0.265625 0.734375q0 0.4375 -0.234375 0.765625q-0.234375 0.328125 -0.65625 0.515625q-0.421875 0.171875 -0.96875 0.171875zm3.2440796 -0.09375l0 -6.8125l0.734375 0l0 2.84375q0.25 -0.421875 0.640625 -0.59375q0.40625 -0.1875 0.890625 -0.1875q0.5 0 0.90625 0.1875q0.40625 0.1875 0.65625 0.578125q0.25 0.390625 0.25 1.0l0 2.984375l-0.75 0l0 -2.71875q0 -0.78125 -0.328125 -1.078125q-0.328125 -0.3125 -0.8125 -0.3125q-0.34375 0 -0.6875 0.171875q-0.328125 0.15625 -0.546875 0.515625q-0.21875 0.359375 -0.21875 0.953125l0 2.46875l-0.734375 0z" fill-rule="nonzero"/><path fill="#000000" fill-opacity="0.0" d="m364.16666 464.70865l290.70865 0l0 87.275604l-290.70865 0z" fill-rule="evenodd"/><path fill="#93c47d" d="m410.6354 490.51553l0 36.953156l-9.640625 0l0 -36.953156l9.640625 0zm-23.75 0l0 36.953156l-9.625 0l0 -36.953156l9.625 0zm19.265625 14.609375l0 7.4531555l-24.1875 0l0 -7.4531555l24.1875 0zm25.427002 -18.875l4.484375 4.375q-3.140625 2.859375 -5.15625 6.046875q-2.015625 3.1875 -2.953125 6.96875q-0.921875 3.78125 -0.921875 8.5469055q0 4.75 0.921875 8.59375q0.9375 3.828125 2.953125 6.984375q2.015625 3.171814 5.15625 6.031189l-4.484375 4.375q-6.4375 -4.3125 -9.78125 -10.781189q-3.328125 -6.46875 -3.328125 -15.203125q0 -8.6250305 3.328125 -15.1250305q3.34375 -6.5 9.78125 -10.8125z" fill-rule="nonzero"/><path fill="#8d3aed" d="m438.23965 527.4687l0 -13.328125l4.046875 0l0.140625 2.578125q0.640625 -1.40625 1.796875 -2.125q1.15625 -0.71875 2.6875 -0.71875q1.484375 0 2.578125 0.671875q1.09375 0.65625 1.625 1.96875q0.421875 -0.875 1.09375 -1.46875q0.6875 -0.59375 1.5625 -0.875q0.890625 -0.296875 1.828125 -0.296875q1.328125 0 2.34375 0.515625q1.015625 0.515625 1.609375 1.578125q0.59375 1.046875 0.59375 2.625l0 8.875l-4.53125 0l0 -7.84375q0 -1.265625 -0.5 -1.765625q-0.484375 -0.515625 -1.3125 -0.515625q-0.65625 0 -1.203125 0.328125q-0.546875 0.328125 -0.84375 1.0q-0.296875 0.671875 -0.296875 1.671875l0 7.125l-4.53125 0l0 -7.84375q0 -1.265625 -0.515625 -1.765625q-0.5 -0.515625 -1.296875 -0.515625q-0.609375 0 -1.15625 0.328125q-0.546875 0.3125 -0.875 1.0q-0.3125 0.671875 -0.3125 1.765625l0 7.03125l-4.53125 0zm31.583435 0.265625q-2.203125 0 -3.828125 -0.828125q-1.609375 -0.828125 -2.484375 -2.375q-0.875 -1.546875 -0.875 -3.71875q0 -2.1875 0.875 -3.734375q0.875 -1.546875 2.453125 -2.375q1.59375 -0.828125 3.65625 -0.828125q2.09375 0 3.578125 0.8125q1.484375 0.8125 2.25 2.25q0.78125 1.421875 0.78125 3.25q0 0.484375 -0.03125 0.96875q-0.03125 0.46875 -0.078125 0.796875l-10.5625 0l0 -2.421875l8.5625 0l-2.15625 0.8125q0 -1.59375 -0.578125 -2.4375q-0.578125 -0.859375 -1.765625 -0.859375q-0.859375 0 -1.46875 0.40625q-0.59375 0.390625 -0.90625 1.25q-0.296875 0.84375 -0.296875 2.1875q0 1.296875 0.34375 2.109375q0.34375 0.8125 0.984375 1.171875q0.640625 0.359375 1.546875 0.359375q1.015625 0 1.609375 -0.390625q0.609375 -0.40625 0.90625 -1.125l3.625 1.203125q-0.375 1.140625 -1.296875 1.9375q-0.921875 0.78125 -2.1875 1.1875q-1.265625 0.390625 -2.65625 0.390625zm14.527679 0q-2.0 0 -3.71875 -0.65625q-1.71875 -0.65625 -2.828125 -1.875l2.125 -2.5q0.671875 0.84375 1.765625 1.421875q1.109375 0.578125 2.46875 0.578125q0.828125 0 1.359375 -0.234375q0.546875 -0.25 0.546875 -0.765625q0 -0.359375 -0.28125 -0.578125q-0.265625 -0.234375 -1.0625 -0.40625l-1.859375 -0.375q-2.515625 -0.5 -3.5625 -1.5q-1.046875 -1.0 -1.046875 -2.625q0 -1.09375 0.65625 -2.09375q0.671875 -1.0 2.046875 -1.625q1.390625 -0.625 3.5625 -0.625q2.015625 0 3.5625 0.59375q1.546875 0.578125 2.453125 1.703125l-2.15625 2.453125q-0.640625 -0.8125 -1.65625 -1.265625q-1.015625 -0.453125 -2.015625 -0.453125q-0.640625 0 -1.09375 0.125q-0.4375 0.125 -0.65625 0.34375q-0.203125 0.203125 -0.203125 0.53125q0 0.34375 0.328125 0.59375q0.34375 0.25 1.25 0.4375l2.421875 0.484375q2.046875 0.375 2.953125 1.359375q0.90625 0.984375 0.90625 2.375q0 1.296875 -0.6875 2.34375q-0.6875 1.03125 -2.078125 1.640625q-1.390625 0.59375 -3.5 0.59375zm14.207733 0q-2.0 0 -3.71875 -0.65625q-1.71875 -0.65625 -2.828125 -1.875l2.125 -2.5q0.671875 0.84375 1.765625 1.421875q1.109375 0.578125 2.46875 0.578125q0.828125 0 1.359375 -0.234375q0.546875 -0.25 0.546875 -0.765625q0 -0.359375 -0.28125 -0.578125q-0.265625 -0.234375 -1.0625 -0.40625l-1.859375 -0.375q-2.515625 -0.5 -3.5625 -1.5q-1.046875 -1.0 -1.046875 -2.625q0 -1.09375 0.65625 -2.09375q0.671875 -1.0 2.046875 -1.625q1.390625 -0.625 3.5625 -0.625q2.015625 0 3.5625 0.59375q1.546875 0.578125 2.453125 1.703125l-2.15625 2.453125q-0.640625 -0.8125 -1.65625 -1.265625q-1.015625 -0.453125 -2.015625 -0.453125q-0.640625 0 -1.09375 0.125q-0.4375 0.125 -0.65625 0.34375q-0.203125 0.203125 -0.203125 0.53125q0 0.34375 0.328125 0.59375q0.34375 0.25 1.25 0.4375l2.421875 0.484375q2.046875 0.375 2.953125 1.359375q0.90625 0.984375 0.90625 2.375q0 1.296875 -0.6875 2.34375q-0.6875 1.03125 -2.078125 1.640625q-1.390625 0.59375 -3.5 0.59375zm16.051483 -8.71875q0 -0.9375 -0.515625 -1.46875q-0.515625 -0.546875 -1.40625 -0.546875q-0.875 0 -1.5 0.4375q-0.625 0.4375 -0.875 1.546875l-3.828125 -0.90625q0.375 -1.90625 1.96875 -3.046875q1.59375 -1.15625 4.5 -1.15625q1.953125 0 3.328125 0.578125q1.375 0.5625 2.09375 1.703125q0.734375 1.125 0.734375 2.78125l0 4.875q0 1.046875 0.9375 1.046875q0.484375 0 0.78125 -0.109375l-0.28125 2.578125q-0.796875 0.375 -1.9375 0.375q-1.046875 0 -1.84375 -0.328125q-0.796875 -0.328125 -1.25 -1.0q-0.453125 -0.6875 -0.453125 -1.734375l0 -0.15625l0.5 -0.1875q0 1.140625 -0.6875 1.921875q-0.671875 0.765625 -1.75 1.140625q-1.078125 0.375 -2.25 0.375q-1.359375 0 -2.375 -0.421875q-1.0 -0.4375 -1.546875 -1.25q-0.546875 -0.8125 -0.546875 -2.0q0 -1.4375 0.859375 -2.390625q0.859375 -0.953125 2.734375 -1.328125l5.03125 -1.03125l-0.015625 2.40625l-2.5625 0.53125q-0.796875 0.15625 -1.1875 0.46875q-0.390625 0.296875 -0.390625 0.90625q0 0.59375 0.421875 0.890625q0.4375 0.28125 1.015625 0.28125q0.453125 0 0.859375 -0.125q0.421875 -0.140625 0.734375 -0.40625q0.328125 -0.28125 0.515625 -0.703125q0.1875 -0.4375 0.1875 -1.03125l0 -3.515625zm21.03601 -8.4531555l0.375 3.0469055q-0.171875 -0.0625 -0.328125 -0.0625q-0.15625 -0.015625 -0.3125 -0.015625q-1.171875 0 -1.75 0.578125q-0.578125 0.5625 -0.578125 1.421875l-1.59375 -0.59375q0 -1.09375 0.390625 -2.09375q0.40625 -1.0156555 1.25 -1.6562805q0.84375 -0.640625 2.109375 -0.640625q0.09375 0 0.203125 0q0.125 0 0.234375 0.015625zm-4.59375 13.9531555q2.328125 0 3.5625 0.96875q1.234375 0.96875 1.234375 2.78125q0 1.656189 -0.90625 2.749939q-0.90625 1.09375 -2.546875 1.640625q-1.625 0.546875 -3.875 0.546875q-3.625 0 -5.21875 -0.90625q-1.59375 -0.90625 -1.59375 -2.453125q0 -1.125 0.90625 -1.828064q0.90625 -0.6875 3.0 -0.734375l-0.109375 0.421875q-1.625 -0.203125 -2.421875 -0.953125q-0.796875 -0.75 -0.796875 -2.03125q0 -1.28125 1.015625 -2.078125q1.015625 -0.796875 2.6875 -0.875l1.65625 0.765625l-0.421875 0q-1.046875 0.0625 -1.46875 0.359375q-0.421875 0.28125 -0.421875 0.71875q0 0.453125 0.359375 0.6875q0.375 0.21875 1.125 0.21875l4.234375 0zm-2.5 5.749939q1.28125 0 2.109375 -0.171875q0.84375 -0.171875 1.265625 -0.484375q0.4375 -0.296875 0.4375 -0.703125q0 -0.39056396 -0.296875 -0.62493896q-0.296875 -0.21875 -1.0625 -0.21875l-4.765625 0q-0.515625 0 -0.828125 0.265625q-0.296875 0.265625 -0.296875 0.65618896q0 0.609375 0.90625 0.9375q0.90625 0.34375 2.53125 0.34375zm0.15625 -16.390564q2.03125 0 3.46875 0.53125q1.4375 0.53125 2.1875 1.53125q0.765625 1.0 0.765625 2.46875q0 1.4375 -0.765625 2.453125q-0.75 1.015625 -2.1875 1.53125q-1.4375 0.515625 -3.46875 0.515625q-3.171875 0 -4.8125 -1.171875q-1.640625 -1.171875 -1.640625 -3.328125q0 -1.46875 0.765625 -2.46875q0.765625 -1.0 2.203125 -1.53125q1.4375 -0.53125 3.484375 -0.53125zm0 2.578125q-0.875 0 -1.421875 0.515625q-0.546875 0.5 -0.546875 1.4375q0 0.90625 0.546875 1.421875q0.546875 0.5 1.421875 0.5q0.859375 0 1.40625 -0.5q0.5625 -0.515625 0.5625 -1.421875q0 -0.9375 -0.5625 -1.4375q-0.546875 -0.515625 -1.40625 -0.515625zm15.458679 11.28125q-2.203125 0 -3.828125 -0.828125q-1.609375 -0.828125 -2.484375 -2.375q-0.875 -1.546875 -0.875 -3.71875q0 -2.1875 0.875 -3.734375q0.875 -1.546875 2.453125 -2.375q1.59375 -0.828125 3.65625 -0.828125q2.09375 0 3.578125 0.8125q1.484375 0.8125 2.25 2.25q0.78125 1.421875 0.78125 3.25q0 0.484375 -0.03125 0.96875q-0.03125 0.46875 -0.078125 0.796875l-10.5625 0l0 -2.421875l8.5625 0l-2.15625 0.8125q0 -1.59375 -0.578125 -2.4375q-0.578125 -0.859375 -1.765625 -0.859375q-0.859375 0 -1.46875 0.40625q-0.59375 0.390625 -0.90625 1.25q-0.296875 0.84375 -0.296875 2.1875q0 1.296875 0.34375 2.109375q0.34375 0.8125 0.984375 1.171875q0.640625 0.359375 1.546875 0.359375q1.015625 0 1.609375 -0.390625q0.609375 -0.40625 0.90625 -1.125l3.625 1.203125q-0.375 1.140625 -1.296875 1.9375q-0.921875 0.78125 -2.1875 1.1875q-1.265625 0.390625 -2.65625 0.390625zm11.324524 -13.859375q1.265625 0 1.96875 0.640625q0.703125 0.625 0.703125 1.78125q0 1.109375 -0.703125 1.75q-0.703125 0.640625 -1.96875 0.640625q-1.21875 0 -1.9375 -0.640625q-0.71875 -0.640625 -0.71875 -1.75q0 -1.15625 0.71875 -1.78125q0.71875 -0.640625 1.9375 -0.640625zm0 9.015625q1.265625 0 1.96875 0.640625q0.703125 0.625 0.703125 1.78125q0 1.109375 -0.703125 1.75q-0.703125 0.640625 -1.96875 0.640625q-1.21875 0 -1.9375 -0.640625q-0.71875 -0.640625 -0.71875 -1.75q0 -1.15625 0.71875 -1.78125q0.71875 -0.640625 1.9375 -0.640625zm21.712585 -11.2500305l-3.546875 0l0 17.140594l3.546875 0l0 3.171875l-7.46875 0l0 -23.484344l7.46875 0l0 3.171875zm6.3598633 16.09378q-1.359375 0 -2.390625 -0.46875q-1.015625 -0.46875 -1.609375 -1.5q-0.578125 -1.046875 -0.578125 -2.71875l0 -8.90625l4.53125 0l0 7.84375q0 1.265625 0.5 1.78125q0.515625 0.5 1.453125 0.5q0.46875 0 0.890625 -0.171875q0.4375 -0.171875 0.75 -0.53125q0.328125 -0.359375 0.5 -0.921875q0.171875 -0.578125 0.171875 -1.359375l0 -7.140625l4.53125 0l0 13.328125l-4.046875 0l-0.140625 -2.5q-0.640625 1.40625 -1.796875 2.09375q-1.140625 0.671875 -2.765625 0.671875zm18.718872 -18.078156q2.0 0 3.46875 0.59375q1.46875 0.578125 2.28125 1.671875q0.8125 1.0781555 0.8125 2.5625305q0 1.421875 -0.703125 2.4375q-0.6875 1.0 -2.046875 1.53125l0 0.03125q1.59375 0.53125 2.46875 1.5625q0.890625 1.03125 0.890625 2.625q0 1.546875 -0.875 2.6875q-0.859375 1.125 -2.46875 1.75q-1.59375 0.625 -3.828125 0.625q-2.21875 0 -3.8125 -0.625q-1.59375 -0.625 -2.46875 -1.75q-0.859375 -1.140625 -0.859375 -2.6875q0 -1.59375 0.875 -2.625q0.875 -1.03125 2.484375 -1.5625l0 -0.03125q-1.34375 -0.5 -2.0625 -1.515625q-0.71875 -1.03125 -0.71875 -2.453125q0 -1.484375 0.8125 -2.5625305q0.8125 -1.09375 2.296875 -1.671875q1.5 -0.59375 3.453125 -0.59375zm0.03125 3.3437805q-1.078125 0 -1.71875 0.53125q-0.625 0.53125 -0.625 1.484375q0 0.9375 0.625 1.484375q0.640625 0.546875 1.71875 0.546875q1.0625 0 1.6875 -0.546875q0.625 -0.546875 0.625 -1.484375q0 -0.953125 -0.625 -1.484375q-0.625 -0.53125 -1.6875 -0.53125zm0 11.40625q0.84375 0 1.4375 -0.25q0.609375 -0.265625 0.921875 -0.765625q0.328125 -0.5 0.328125 -1.171875q0 -0.6875 -0.328125 -1.1875q-0.3125 -0.5 -0.921875 -0.75q-0.609375 -0.25 -1.4375 -0.25q-0.828125 0 -1.453125 0.25q-0.625 0.25 -0.953125 0.75q-0.3125 0.5 -0.3125 1.1875q0 0.671875 0.3125 1.171875q0.328125 0.5 0.9375 0.765625q0.609375 0.25 1.46875 0.25zm8.759277 4.374939l3.546875 0l0 -17.140594l-3.546875 0l0 -3.171875l7.46875 0l0 23.484344l-7.46875 0l0 -3.171875z" fill-rule="nonzero"/><path fill="#93c47d" d="m625.85547 538.17175l-4.484375 -4.375q3.1875 -2.859375 5.171875 -6.031189q2.0 -3.15625 2.890625 -6.984375q0.890625 -3.84375 0.890625 -8.546875q0 -4.7500305 -0.890625 -8.5625305q-0.890625 -3.8125 -2.890625 -7.0q-1.984375 -3.1875 -5.171875 -6.046875l4.484375 -4.375q6.375 4.3125 9.734375 10.8125q3.359375 6.5 3.359375 15.1719055q0 8.6875 -3.359375 15.15625q-3.359375 6.468689 -9.734375 10.781189z" fill-rule="nonzero"/><path fill="#000000" fill-opacity="0.0" d="m618.4974 478.43045l173.16534 -61.13385" fill-rule="evenodd"/><path stroke="#8d3aed" stroke-width="4.0" stroke-linejoin="round" stroke-linecap="butt" d="m618.4974 478.43045l150.5343 -53.144226" fill-rule="evenodd"/><path fill="#8d3aed" stroke="#8d3aed" stroke-width="4.0" stroke-linecap="butt" d="m771.2311 431.5163l14.917603 -12.273041l-19.316467 -0.18713379z" fill-rule="evenodd"/><path fill="#000000" fill-opacity="0.0" d="m349.15222 314.81628l277.82678 0l0 42.015747l-277.82678 0z" fill-rule="evenodd"/><path fill="#93c47d" d="m365.3866 329.42377q2.203125 0 3.421875 1.03125q1.234375 1.03125 1.234375 2.75q0 1.890625 -1.21875 2.875q-1.21875 0.984375 -3.421875 0.984375l-0.296875 0.171875l-2.4375 0l0 4.5l-3.15625 0l0 -12.3125l5.875 0zm-0.4375 5.546875q0.921875 0 1.390625 -0.375q0.46875 -0.375 0.46875 -1.203125q0 -0.796875 -0.46875 -1.171875q-0.46875 -0.375 -1.390625 -0.375l-2.28125 0l0 3.125l2.28125 0zm1.875 0.671875l3.9375 6.09375l-3.546875 0l-3.15625 -5.390625l2.765625 -0.703125zm9.739136 6.28125q-1.546875 0 -2.671875 -0.578125q-1.125 -0.578125 -1.75 -1.65625q-0.609375 -1.09375 -0.609375 -2.625q0 -1.515625 0.609375 -2.59375q0.625 -1.09375 1.734375 -1.671875q1.109375 -0.578125 2.546875 -0.578125q1.46875 0 2.5 0.578125q1.03125 0.5625 1.578125 1.5625q0.546875 1.0 0.546875 2.28125q0 0.34375 -0.03125 0.6875q-0.015625 0.328125 -0.046875 0.546875l-7.390625 0l0 -1.703125l5.984375 0l-1.5 0.578125q0 -1.109375 -0.40625 -1.703125q-0.40625 -0.609375 -1.234375 -0.609375q-0.609375 0 -1.03125 0.28125q-0.40625 0.28125 -0.625 0.875q-0.21875 0.59375 -0.21875 1.53125q0 0.921875 0.234375 1.484375q0.25 0.5625 0.703125 0.828125q0.453125 0.25 1.078125 0.25q0.71875 0 1.125 -0.28125q0.421875 -0.28125 0.625 -0.78125l2.546875 0.828125q-0.265625 0.8125 -0.90625 1.359375q-0.640625 0.546875 -1.53125 0.828125q-0.890625 0.28125 -1.859375 0.28125zm9.380096 -13.46875l0 10.109375q0 0.609375 0.203125 0.875q0.21875 0.265625 0.703125 0.265625q0.28125 0 0.46875 -0.03125q0.1875 -0.046875 0.4375 -0.125l-0.203125 1.90625q-0.328125 0.203125 -0.875 0.328125q-0.546875 0.140625 -1.0625 0.140625q-1.5 0 -2.171875 -0.6875q-0.671875 -0.6875 -0.671875 -2.265625l0 -10.515625l3.171875 0zm8.328064 7.375q0 -0.65625 -0.375 -1.03125q-0.359375 -0.390625 -0.96875 -0.390625q-0.609375 0 -1.0625 0.3125q-0.4375 0.296875 -0.59375 1.078125l-2.6875 -0.625q0.265625 -1.34375 1.375 -2.140625q1.125 -0.8125 3.15625 -0.8125q1.359375 0 2.3125 0.40625q0.96875 0.390625 1.484375 1.1875q0.515625 0.796875 0.515625 1.953125l0 3.40625q0 0.734375 0.65625 0.734375q0.328125 0 0.53125 -0.078125l-0.1875 1.8125q-0.5625 0.265625 -1.359375 0.265625q-0.734375 0 -1.296875 -0.234375q-0.546875 -0.234375 -0.875 -0.703125q-0.3125 -0.484375 -0.3125 -1.21875l0 -0.109375l0.359375 -0.125q0 0.796875 -0.484375 1.34375q-0.46875 0.546875 -1.234375 0.8125q-0.75 0.25 -1.5625 0.25q-0.953125 0 -1.671875 -0.296875q-0.703125 -0.296875 -1.09375 -0.859375q-0.375 -0.578125 -0.375 -1.421875q0 -1.0 0.609375 -1.65625q0.609375 -0.671875 1.90625 -0.9375l3.53125 -0.71875l-0.015625 1.671875l-1.796875 0.375q-0.5625 0.109375 -0.828125 0.328125q-0.265625 0.21875 -0.265625 0.640625q0 0.40625 0.296875 0.625q0.296875 0.203125 0.703125 0.203125q0.328125 0 0.609375 -0.09375q0.296875 -0.09375 0.515625 -0.28125q0.21875 -0.203125 0.34375 -0.5q0.140625 -0.3125 0.140625 -0.71875l0 -2.453125zm14.376495 -3.421875l-3.390625 9.328125q-0.515625 1.46875 -1.140625 2.34375q-0.609375 0.890625 -1.453125 1.28125q-0.84375 0.390625 -2.015625 0.390625q-0.78125 0 -1.4375 -0.171875q-0.65625 -0.171875 -1.140625 -0.46875l0.640625 -2.140625q0.34375 0.234375 0.703125 0.328125q0.375 0.109375 0.953125 0.109375q0.546875 0 0.890625 -0.1875q0.34375 -0.171875 0.546875 -0.703125l0.25 -0.578125l-1.09375 -2.53125l-2.796875 -7.0l3.5 0l1.4375 5.3125l0.4375 1.984375l0.53125 -2.046875l1.4375 -5.25l3.140625 0zm17.194122 5.796875q-0.359375 1.296875 -1.140625 2.125q-0.78125 0.828125 -1.875 1.21875q-1.078125 0.375 -2.375 0.375q-1.875 0 -3.234375 -0.75q-1.359375 -0.765625 -2.09375 -2.171875q-0.71875 -1.421875 -0.71875 -3.421875q0 -2.0 0.71875 -3.40625q0.734375 -1.421875 2.09375 -2.171875q1.359375 -0.765625 3.203125 -0.765625q1.296875 0 2.375 0.375q1.078125 0.359375 1.828125 1.109375q0.75 0.734375 1.0625 1.90625l-2.8125 1.140625q-0.265625 -1.15625 -0.859375 -1.578125q-0.578125 -0.4375 -1.46875 -0.4375q-0.890625 0 -1.53125 0.4375q-0.640625 0.421875 -0.984375 1.28125q-0.34375 0.84375 -0.34375 2.109375q0 1.25 0.3125 2.109375q0.3125 0.859375 0.953125 1.296875q0.65625 0.421875 1.609375 0.421875q0.890625 0 1.515625 -0.5q0.625 -0.5 0.84375 -1.515625l2.921875 0.8125zm1.5643005 3.53125l0 -13.28125l3.171875 0l0 5.65625q0.40625 -0.9375 1.171875 -1.40625q0.765625 -0.484375 1.765625 -0.484375q0.984375 0 1.6875 0.375q0.71875 0.375 1.125 1.109375q0.421875 0.71875 0.421875 1.8125l0 6.21875l-3.171875 0l0 -5.328125q0 -1.015625 -0.375 -1.390625q-0.359375 -0.390625 -0.953125 -0.390625q-0.4375 0 -0.84375 0.234375q-0.390625 0.21875 -0.609375 0.703125q-0.21875 0.484375 -0.21875 1.265625l0 4.90625l-3.171875 0zm16.769989 -5.90625q0 -0.65625 -0.375 -1.03125q-0.359375 -0.390625 -0.96875 -0.390625q-0.609375 0 -1.0625 0.3125q-0.4375 0.296875 -0.59375 1.078125l-2.6875 -0.625q0.265625 -1.34375 1.375 -2.140625q1.125 -0.8125 3.15625 -0.8125q1.359375 0 2.3125 0.40625q0.96875 0.390625 1.484375 1.1875q0.515625 0.796875 0.515625 1.953125l0 3.40625q0 0.734375 0.65625 0.734375q0.328125 0 0.53125 -0.078125l-0.1875 1.8125q-0.5625 0.265625 -1.359375 0.265625q-0.734375 0 -1.296875 -0.234375q-0.546875 -0.234375 -0.875 -0.703125q-0.3125 -0.484375 -0.3125 -1.21875l0 -0.109375l0.359375 -0.125q0 0.796875 -0.484375 1.34375q-0.46875 0.546875 -1.234375 0.8125q-0.75 0.25 -1.5625 0.25q-0.953125 0 -1.671875 -0.296875q-0.703125 -0.296875 -1.09375 -0.859375q-0.375 -0.578125 -0.375 -1.421875q0 -1.0 0.609375 -1.65625q0.609375 -0.671875 1.90625 -0.9375l3.53125 -0.71875l-0.015625 1.671875l-1.796875 0.375q-0.5625 0.109375 -0.828125 0.328125q-0.265625 0.21875 -0.265625 0.640625q0 0.40625 0.296875 0.625q0.296875 0.203125 0.703125 0.203125q0.328125 0 0.609375 -0.09375q0.296875 -0.09375 0.515625 -0.28125q0.21875 -0.203125 0.34375 -0.5q0.140625 -0.3125 0.140625 -0.71875l0 -2.453125zm7.1769714 -4.5q-0.96875 0 -1.40625 -0.359375q-0.4375 -0.375 -0.4375 -1.15625q0 -0.796875 0.4375 -1.15625q0.4375 -0.375 1.40625 -0.375q0.953125 0 1.40625 0.375q0.453125 0.359375 0.453125 1.15625q0 0.78125 -0.453125 1.15625q-0.453125 0.359375 -1.40625 0.359375zm1.59375 1.078125l0 9.328125l-3.171875 0l0 -9.328125l3.171875 0zm2.2571106 9.328125l0 -9.328125l2.828125 0l0.171875 3.203125l-0.359375 -0.34375q0.1875 -1.015625 0.65625 -1.6875q0.484375 -0.671875 1.203125 -1.015625q0.71875 -0.34375 1.609375 -0.34375q0.984375 0 1.6875 0.375q0.71875 0.375 1.125 1.109375q0.421875 0.71875 0.421875 1.8125l0 6.21875l-3.171875 0l0 -5.375q0 -0.96875 -0.375 -1.34375q-0.375 -0.375 -0.953125 -0.375q-0.4375 0 -0.84375 0.21875q-0.390625 0.21875 -0.609375 0.6875q-0.21875 0.453125 -0.21875 1.25l0 4.9375l-3.171875 0zm17.121307 0l0 -12.3125l5.984375 0q2.28125 0.015625 3.359375 0.875q1.09375 0.84375 1.09375 2.4375q0 1.046875 -0.625 1.8125q-0.609375 0.75 -1.875 0.953125l0 0.015625q1.40625 0.1875 2.109375 0.984375q0.703125 0.796875 0.703125 1.90625q0 1.59375 -1.125 2.46875q-1.109375 0.859375 -3.359375 0.859375l-6.265625 0zm3.09375 -2.25l2.640625 0q0.875 0 1.296875 -0.359375q0.4375 -0.359375 0.4375 -1.03125q0 -0.65625 -0.4375 -1.0q-0.421875 -0.34375 -1.296875 -0.34375l-2.640625 0l0 2.734375zm0 -5.03125l2.34375 0q1.703125 0 1.703125 -1.34375q0 -1.34375 -1.703125 -1.34375l-2.34375 0l0 2.6875zm12.573395 -6.0l0 10.109375q0 0.609375 0.203125 0.875q0.21875 0.265625 0.703125 0.265625q0.28125 0 0.46875 -0.03125q0.1875 -0.046875 0.4375 -0.125l-0.203125 1.90625q-0.328125 0.203125 -0.875 0.328125q-0.546875 0.140625 -1.0625 0.140625q-1.5 0 -2.171875 -0.6875q-0.671875 -0.6875 -0.671875 -2.265625l0 -10.515625l3.171875 0zm7.413086 3.765625q1.46875 0 2.578125 0.578125q1.109375 0.5625 1.734375 1.65625q0.625 1.09375 0.625 2.609375q0 1.53125 -0.625 2.625q-0.625 1.09375 -1.734375 1.671875q-1.109375 0.5625 -2.578125 0.5625q-1.4375 0 -2.5625 -0.5625q-1.109375 -0.578125 -1.734375 -1.671875q-0.625 -1.09375 -0.625 -2.625q0 -1.515625 0.625 -2.609375q0.625 -1.09375 1.734375 -1.65625q1.125 -0.578125 2.5625 -0.578125zm0 2.265625q-0.546875 0 -0.9375 0.265625q-0.390625 0.25 -0.59375 0.828125q-0.203125 0.578125 -0.203125 1.484375q0 0.921875 0.203125 1.5q0.203125 0.5625 0.59375 0.828125q0.390625 0.265625 0.9375 0.265625q0.5625 0 0.953125 -0.265625q0.390625 -0.265625 0.59375 -0.828125q0.203125 -0.578125 0.203125 -1.5q0 -0.90625 -0.203125 -1.484375q-0.203125 -0.578125 -0.59375 -0.828125q-0.390625 -0.265625 -0.953125 -0.265625zm11.159485 -2.265625q1.421875 0 2.359375 0.40625q0.9375 0.390625 1.46875 1.0625q0.53125 0.65625 0.671875 1.421875l-2.9375 0.96875q-0.125 -0.796875 -0.46875 -1.1875q-0.34375 -0.40625 -1.0 -0.40625q-0.59375 0 -1.0 0.265625q-0.40625 0.265625 -0.609375 0.859375q-0.203125 0.578125 -0.203125 1.5q0 0.90625 0.21875 1.484375q0.234375 0.5625 0.640625 0.8125q0.40625 0.25 0.96875 0.25q0.46875 0 0.765625 -0.171875q0.3125 -0.171875 0.515625 -0.5q0.203125 -0.34375 0.265625 -0.828125l2.859375 0.90625q-0.140625 0.828125 -0.703125 1.46875q-0.5625 0.640625 -1.5 1.015625q-0.9375 0.375 -2.1875 0.375q-1.53125 0 -2.671875 -0.5625q-1.125 -0.578125 -1.75 -1.671875q-0.609375 -1.09375 -0.609375 -2.625q0 -1.515625 0.609375 -2.609375q0.625 -1.09375 1.734375 -1.65625q1.109375 -0.578125 2.5625 -0.578125zm16.390594 0.1875l-4.46875 4.78125l-0.59375 0.15625l-2.671875 2.984375l-0.015625 -3.234375l4.234375 -4.6875l3.515625 0zm-7.0625 -3.953125l0 13.28125l-3.171875 0l0 -13.28125l3.171875 0zm3.078125 6.75l4.1875 6.53125l-3.5 0l-2.765625 -4.671875l2.078125 -1.859375zm21.737976 -5.78125l0 12.3125l-3.5625 0l-3.828125 -6.65625l-0.9375 -1.828125l-0.015625 0l0.078125 2.265625l0 6.21875l-2.84375 0l0 -12.3125l3.5625 0l3.828125 6.65625l0.9375 1.828125l0.015625 0l-0.078125 -2.265625l0 -6.21875l2.84375 0zm5.5964355 12.5q-0.953125 0 -1.671875 -0.328125q-0.71875 -0.328125 -1.140625 -1.046875q-0.40625 -0.734375 -0.40625 -1.90625l0 -6.234375l3.171875 0l0 5.484375q0 0.890625 0.359375 1.25q0.359375 0.359375 1.0 0.359375q0.34375 0 0.640625 -0.125q0.296875 -0.125 0.515625 -0.375q0.234375 -0.25 0.34375 -0.640625q0.125 -0.40625 0.125 -0.953125l0 -5.0l3.171875 0l0 9.328125l-2.828125 0l-0.09375 -1.75q-0.453125 0.984375 -1.265625 1.46875q-0.796875 0.46875 -1.921875 0.46875zm8.391968 -0.1875l0 -9.328125l2.828125 0l0.09375 1.8125q0.453125 -0.984375 1.265625 -1.484375q0.8125 -0.515625 1.875 -0.515625q1.046875 0 1.8125 0.46875q0.765625 0.46875 1.140625 1.375q0.296875 -0.609375 0.765625 -1.015625q0.484375 -0.421875 1.09375 -0.625q0.609375 -0.203125 1.265625 -0.203125q0.9375 0 1.640625 0.375q0.71875 0.359375 1.125 1.09375q0.421875 0.734375 0.421875 1.828125l0 6.21875l-3.171875 0l0 -5.484375q0 -0.890625 -0.34375 -1.25q-0.34375 -0.359375 -0.921875 -0.359375q-0.46875 0 -0.859375 0.234375q-0.375 0.234375 -0.578125 0.703125q-0.203125 0.46875 -0.203125 1.171875l0 4.984375l-3.171875 0l0 -5.484375q0 -0.890625 -0.359375 -1.25q-0.34375 -0.359375 -0.90625 -0.359375q-0.4375 0 -0.828125 0.234375q-0.375 0.21875 -0.59375 0.703125q-0.21875 0.46875 -0.21875 1.234375l0 4.921875l-3.171875 0zm23.539917 0.1875q-0.90625 0 -1.609375 -0.40625q-0.703125 -0.421875 -1.15625 -1.140625q-0.4375 -0.71875 -0.578125 -1.625l0.296875 -0.390625l-0.15625 3.375l-2.78125 0l0 -13.28125l3.171875 0l0 6.875l-0.296875 -0.4375q0.25 -1.15625 1.046875 -1.90625q0.8125 -0.765625 2.171875 -0.765625q1.09375 0 1.9375 0.578125q0.84375 0.578125 1.3125 1.671875q0.484375 1.09375 0.484375 2.640625q0 1.515625 -0.484375 2.59375q-0.484375 1.078125 -1.34375 1.65625q-0.859375 0.5625 -2.015625 0.5625zm-1.09375 -2.328125q0.8125 0 1.28125 -0.609375q0.46875 -0.609375 0.46875 -1.921875q0 -1.296875 -0.46875 -1.90625q-0.46875 -0.609375 -1.28125 -0.609375q-0.546875 0 -0.9375 0.3125q-0.375 0.3125 -0.578125 0.875q-0.203125 0.546875 -0.203125 1.359375q0 0.796875 0.203125 1.359375q0.203125 0.5625 0.59375 0.859375q0.390625 0.28125 0.921875 0.28125zm11.353699 2.328125q-1.546875 0 -2.671875 -0.578125q-1.125 -0.578125 -1.75 -1.65625q-0.609375 -1.09375 -0.609375 -2.625q0 -1.515625 0.609375 -2.59375q0.625 -1.09375 1.734375 -1.671875q1.109375 -0.578125 2.546875 -0.578125q1.46875 0 2.5 0.578125q1.03125 0.5625 1.578125 1.5625q0.546875 1.0 0.546875 2.28125q0 0.34375 -0.03125 0.6875q-0.015625 0.328125 -0.046875 0.546875l-7.390625 0l0 -1.703125l5.984375 0l-1.5 0.578125q0 -1.109375 -0.40625 -1.703125q-0.40625 -0.609375 -1.234375 -0.609375q-0.609375 0 -1.03125 0.28125q-0.40625 0.28125 -0.625 0.875q-0.21875 0.59375 -0.21875 1.53125q0 0.921875 0.234375 1.484375q0.25 0.5625 0.703125 0.828125q0.453125 0.25 1.078125 0.25q0.71875 0 1.125 -0.28125q0.421875 -0.28125 0.625 -0.78125l2.546875 0.828125q-0.265625 0.8125 -0.90625 1.359375q-0.640625 0.546875 -1.53125 0.828125q-0.890625 0.28125 -1.859375 0.28125zm6.255127 -0.1875l0 -9.328125l2.796875 0l0.125 2.015625q0.359375 -1.046875 1.0625 -1.625q0.703125 -0.578125 1.78125 -0.578125q0.34375 0 0.59375 0.0625q0.265625 0.046875 0.40625 0.140625l-0.3125 2.609375q-0.1875 -0.0625 -0.484375 -0.109375q-0.28125 -0.046875 -0.6875 -0.046875q-0.5625 0 -1.046875 0.25q-0.484375 0.234375 -0.78125 0.71875q-0.28125 0.46875 -0.28125 1.1875l0 4.703125l-3.171875 0z" fill-rule="nonzero"/><path fill="#000000" fill-opacity="0.0" d="m626.979 335.82416l171.1181 16.031494" fill-rule="evenodd"/><path stroke="#8d3aed" stroke-width="4.0" stroke-linejoin="round" stroke-linecap="butt" d="m626.979 335.82416l147.22278 13.792816" fill-rule="evenodd"/><path fill="#8d3aed" stroke="#8d3aed" stroke-width="4.0" stroke-linecap="butt" d="m773.58545 356.1951l18.689575 -4.884918l-17.45697 -8.271332z" fill-rule="evenodd"/><path fill="#000000" fill-opacity="0.0" d="m406.97134 47.034122l247.90549 0l0 38.77165l-247.90549 0z" fill-rule="evenodd"/><path fill="#93c47d" d="m421.98697 60.831623q1.296875 0 2.203125 0.421875q0.921875 0.40625 1.390625 1.203125q0.484375 0.78125 0.484375 1.8906212q0 1.125 -0.484375 1.90625q-0.46875 0.78125 -1.390625 1.203125q-0.90625 0.421875 -2.203125 0.421875l-2.09375 0l0 3.515625l-2.75 0l0 -10.562496l4.84375 0zm-0.4375 4.984371q0.875 0 1.3125 -0.359375q0.4375 -0.359375 0.4375 -1.109375q0 -0.7343712 -0.4375 -1.0937462q-0.4375 -0.359375 -1.3125 -0.359375l-1.65625 0l0 2.9218712l1.65625 0zm6.078644 5.578125l0 -7.999996l2.40625 0l0.109375 1.7343712q0.3125 -0.90625 0.90625 -1.3906212q0.59375 -0.5 1.53125 -0.5q0.296875 0 0.515625 0.046875q0.21875 0.046875 0.34375 0.125l-0.265625 2.2343712q-0.15625 -0.0625 -0.40625 -0.09375q-0.25 -0.046875 -0.609375 -0.046875q-0.46875 0 -0.890625 0.21875q-0.421875 0.203125 -0.671875 0.609375q-0.234375 0.40625 -0.234375 1.03125l0 4.03125l-2.734375 0zm10.690277 0.15625q-1.328125 0 -2.296875 -0.484375q-0.96875 -0.5 -1.5 -1.421875q-0.515625 -0.9375 -0.515625 -2.25q0 -1.3125 0.515625 -2.234375q0.53125 -0.9375 1.484375 -1.4218712q0.953125 -0.5 2.1875 -0.5q1.265625 0 2.15625 0.484375q0.890625 0.4843712 1.34375 1.3437462q0.46875 0.859375 0.46875 1.953125q0 0.296875 -0.015625 0.59375q-0.015625 0.28125 -0.046875 0.46875l-6.34375 0l0 -1.453125l5.140625 0l-1.296875 0.5q0 -0.96875 -0.34375 -1.46875q-0.34375 -0.515625 -1.0625 -0.515625q-0.515625 0 -0.875 0.234375q-0.359375 0.234375 -0.546875 0.75q-0.171875 0.515625 -0.171875 1.3125q0 0.78125 0.203125 1.28125q0.203125 0.484375 0.59375 0.703125q0.390625 0.203125 0.921875 0.203125q0.609375 0 0.96875 -0.234375q0.359375 -0.234375 0.546875 -0.671875l2.171875 0.71875q-0.21875 0.6875 -0.78125 1.171875q-0.546875 0.46875 -1.3125 0.703125q-0.75 0.234375 -1.59375 0.234375zm10.304901 -8.156246l2.8125 0l-2.875 7.999996l-3.25 0l-2.875 -7.999996l2.859375 0l1.65625 6.093746l1.671875 -6.093746zm5.147888 -0.921875q-0.84375 0 -1.21875 -0.3125q-0.375 -0.3125 -0.375 -0.984375q0 -0.6875 0.375 -1.0q0.375 -0.3125 1.21875 -0.3125q0.8125 0 1.1875 0.3125q0.390625 0.3125 0.390625 1.0q0 0.671875 -0.390625 0.984375q-0.375 0.3125 -1.1875 0.3125zm1.359375 0.921875l0 7.999996l-2.734375 0l0 -7.999996l2.734375 0zm5.734131 -0.15625q1.265625 0 2.21875 0.484375q0.953125 0.4843712 1.484375 1.4218712q0.546875 0.9375 0.546875 2.25q0 1.3125 -0.546875 2.25q-0.53125 0.9375 -1.484375 1.421875q-0.953125 0.484375 -2.21875 0.484375q-1.234375 0 -2.203125 -0.484375q-0.953125 -0.484375 -1.484375 -1.421875q-0.53125 -0.9375 -0.53125 -2.25q0 -1.3125 0.53125 -2.25q0.53125 -0.9375 1.484375 -1.4218712q0.96875 -0.484375 2.203125 -0.484375zm0 1.9374962q-0.46875 0 -0.8125 0.21875q-0.328125 0.21875 -0.5 0.71875q-0.171875 0.5 -0.171875 1.28125q0 0.78125 0.171875 1.28125q0.171875 0.484375 0.5 0.71875q0.34375 0.21875 0.8125 0.21875q0.484375 0 0.8125 -0.21875q0.34375 -0.234375 0.515625 -0.71875q0.171875 -0.5 0.171875 -1.28125q0 -0.78125 -0.171875 -1.28125q-0.171875 -0.5 -0.515625 -0.71875q-0.328125 -0.21875 -0.8125 -0.21875zm8.490265 6.375q-0.828125 0 -1.453125 -0.28125q-0.609375 -0.28125 -0.96875 -0.890625q-0.34375 -0.625 -0.34375 -1.640625l0 -5.343746l2.71875 0l0 4.703121q0 0.765625 0.296875 1.078125q0.3125 0.296875 0.875 0.296875q0.296875 0 0.546875 -0.09375q0.25 -0.109375 0.4375 -0.328125q0.203125 -0.21875 0.296875 -0.5625q0.109375 -0.34375 0.109375 -0.8125l0 -4.281246l2.71875 0l0 7.999996l-2.421875 0l-0.078125 -1.5q-0.390625 0.84375 -1.078125 1.25q-0.6875 0.40625 -1.65625 0.40625zm10.560272 0q-1.203125 0 -2.234375 -0.390625q-1.03125 -0.390625 -1.703125 -1.125l1.28125 -1.5q0.390625 0.5 1.046875 0.859375q0.671875 0.34375 1.484375 0.34375q0.5 0 0.8125 -0.140625q0.328125 -0.15625 0.328125 -0.453125q0 -0.234375 -0.15625 -0.359375q-0.15625 -0.140625 -0.640625 -0.234375l-1.125 -0.234375q-1.5 -0.296875 -2.140625 -0.890625q-0.625 -0.609375 -0.625 -1.578125q0 -0.65625 0.390625 -1.25q0.40625 -0.6093712 1.234375 -0.9843712q0.84375 -0.375 2.140625 -0.375q1.203125 0 2.125 0.359375q0.9375 0.34375 1.484375 1.0156212l-1.296875 1.46875q-0.375 -0.484375 -0.984375 -0.75q-0.609375 -0.28125 -1.21875 -0.28125q-0.390625 0 -0.65625 0.078125q-0.265625 0.078125 -0.390625 0.203125q-0.125 0.125 -0.125 0.3125q0 0.21875 0.203125 0.375q0.203125 0.140625 0.734375 0.25l1.46875 0.296875q1.234375 0.21875 1.765625 0.8125q0.546875 0.59375 0.546875 1.421875q0 0.78125 -0.421875 1.40625q-0.40625 0.625 -1.25 0.984375q-0.828125 0.359375 -2.078125 0.359375zm22.150879 -10.718746l0 10.562496l-2.4375 0l0 -4.84375l0.09375 -3.2499962l-0.03125 0l-2.609375 8.093746l-2.234375 0l-2.609375 -8.093746l-0.03125 0l0.078125 3.2499962l0 4.84375l-2.4375 0l0 -10.562496l3.921875 0l1.65625 5.374996l0.59375 2.25l0.03125 0l0.609375 -2.234375l1.640625 -5.390621l3.765625 0zm9.747528 13.812496q-1.0625 0 -1.859375 -0.359375q-0.796875 -0.34375 -1.25 -1.015625q-0.4375 -0.671875 -0.4375 -1.671875q0 -0.3125 0.078125 -0.65625q0.09375 -0.359375 0.28125 -0.703125l1.59375 -0.359375q-0.15625 0.34375 -0.234375 0.640625q-0.078125 0.28125 -0.078125 0.515625q0 0.625 0.25 0.96875q0.265625 0.34375 0.6875 0.484375q0.4375 0.140625 0.984375 0.140625q0.6875305 0 1.1562805 -0.15625q0.46875 -0.140625 0.78125 -0.390625l0.40625 1.90625q-0.40625 0.3125 -1.0625 0.484375q-0.65625 0.171875 -1.2969055 0.171875zm-2.671875 -13.968746q1.59375 0 2.75 0.65625q1.1719055 0.640625 1.7969055 1.859375q0.625 1.2187462 0.625 2.9218712q0 1.71875 -0.625 2.9375q-0.625 1.203125 -1.7969055 1.859375q-1.15625 0.640625 -2.75 0.640625q-1.609375 0 -2.78125 -0.640625q-1.15625 -0.65625 -1.78125 -1.859375q-0.625 -1.21875 -0.625 -2.9375q0 -1.703125 0.625 -2.9218712q0.625 -1.21875 1.78125 -1.859375q1.171875 -0.65625 2.78125 -0.65625zm0 2.15625q-0.765625 0 -1.296875 0.375q-0.53125 0.359375 -0.8125 1.0937462q-0.265625 0.71875 -0.265625 1.8125q0 1.078125 0.265625 1.8125q0.28125 0.734375 0.8125 1.109375q0.53125 0.359375 1.296875 0.359375q0.765625 0 1.28125 -0.359375q0.53125 -0.375 0.796875 -1.109375q0.265625 -0.734375 0.265625 -1.8125q0 -1.09375 -0.265625 -1.8125q-0.265625 -0.7343712 -0.796875 -1.0937462q-0.515625 -0.375 -1.28125 -0.375zm16.417023 5.531246q-0.3125 1.109375 -0.984375 1.828125q-0.671875 0.703125 -1.59375 1.03125q-0.921875 0.328125 -2.046875 0.328125q-1.609375 0 -2.78125 -0.640625q-1.15625 -0.65625 -1.78125 -1.859375q-0.625 -1.21875 -0.625 -2.9375q0 -1.703125 0.625 -2.9218712q0.625 -1.21875 1.78125 -1.859375q1.171875 -0.65625 2.765625 -0.65625q1.09375 0 2.015625 0.3125q0.9375 0.3125 1.578125 0.953125q0.640625 0.640625 0.921875 1.640625l-2.421875 0.9843712q-0.21875 -0.9999962 -0.734375 -1.3593712q-0.5 -0.375 -1.265625 -0.375q-0.75 0 -1.3125 0.375q-0.546875 0.359375 -0.84375 1.0937462q-0.296875 0.71875 -0.296875 1.8125q0 1.078125 0.265625 1.8125q0.28125 0.734375 0.828125 1.109375q0.5625 0.359375 1.375 0.359375q0.765625 0 1.296875 -0.421875q0.546875 -0.421875 0.734375 -1.3125l2.5 0.703125zm9.815796 3.1875q-1.328125 0 -2.296875 -0.484375q-0.96875 -0.5 -1.5 -1.421875q-0.515625 -0.9375 -0.515625 -2.25q0 -1.3125 0.515625 -2.234375q0.53125 -0.9375 1.484375 -1.4218712q0.953125 -0.5 2.1875 -0.5q1.265625 0 2.15625 0.484375q0.890625 0.4843712 1.34375 1.3437462q0.46875 0.859375 0.46875 1.953125q0 0.296875 -0.015625 0.59375q-0.015625 0.28125 -0.046875 0.46875l-6.34375 0l0 -1.453125l5.140625 0l-1.296875 0.5q0 -0.96875 -0.34375 -1.46875q-0.34375 -0.515625 -1.0625 -0.515625q-0.515625 0 -0.875 0.234375q-0.359375 0.234375 -0.546875 0.75q-0.171875 0.515625 -0.171875 1.3125q0 0.78125 0.203125 1.28125q0.203125 0.484375 0.59375 0.703125q0.390625 0.203125 0.921875 0.203125q0.609375 0 0.96875 -0.234375q0.359375 -0.234375 0.546875 -0.671875l2.171875 0.71875q-0.21875 0.6875 -0.78125 1.171875q-0.546875 0.46875 -1.3125 0.703125q-0.75 0.234375 -1.59375 0.234375zm5.357788 -0.15625l0 -7.999996l2.4375 0l0.140625 2.7499962l-0.296875 -0.296875q0.15625 -0.875 0.5625 -1.4375q0.40625 -0.5781212 1.015625 -0.8749962q0.625 -0.296875 1.390625 -0.296875q0.84375 0 1.453125 0.328125q0.609375 0.3125 0.953125 0.9374962q0.359375 0.625 0.359375 1.5625l0 5.328125l-2.71875 0l0 -4.609375q0 -0.828125 -0.328125 -1.140625q-0.3125 -0.328125 -0.796875 -0.328125q-0.390625 0 -0.734375 0.1875q-0.328125 0.171875 -0.515625 0.578125q-0.1875 0.40625 -0.1875 1.078125l0 4.234375l-2.734375 0zm13.215759 -10.546871l0 7.703121q0 0.578125 0.28125 0.828125q0.28125 0.234375 0.78125 0.234375q0.390625 0 0.65625 -0.078125q0.28125 -0.09375 0.515625 -0.265625l0.28125 1.671875q-0.390625 0.296875 -1.0 0.453125q-0.609375 0.15625 -1.25 0.15625q-0.921875 0 -1.578125 -0.25q-0.65625 -0.265625 -1.03125 -0.8125q-0.359375 -0.5625 -0.375 -1.5l0 -7.390621l2.71875 -0.75zm2.390625 2.546875l0 1.9374962l-6.484375 0l0 -1.9374962l6.484375 0zm1.2576294 7.999996l0 -7.999996l2.40625 0l0.109375 1.7343712q0.3125 -0.90625 0.90625 -1.3906212q0.59375 -0.5 1.53125 -0.5q0.296875 0 0.515625 0.046875q0.21875 0.046875 0.34375 0.125l-0.265625 2.2343712q-0.15625 -0.0625 -0.40625 -0.09375q-0.25 -0.046875 -0.609375 -0.046875q-0.46875 0 -0.890625 0.21875q-0.421875 0.203125 -0.671875 0.609375q-0.234375 0.40625 -0.234375 1.03125l0 4.03125l-2.734375 0zm14.942505 -7.999996l-2.921875 7.999996q-0.453125 1.265625 -0.984375 2.015625q-0.515625 0.75 -1.234375 1.078125q-0.71875 0.34375 -1.734375 0.34375q-0.671875 0 -1.234375 -0.140625q-0.546875 -0.140625 -0.96875 -0.40625l0.546875 -1.828125q0.28125 0.203125 0.59375 0.28125q0.328125 0.09375 0.828125 0.09375q0.46875 0 0.75 -0.15625q0.296875 -0.15625 0.484375 -0.609375l0.203125 -0.5l-0.921875 -2.171875l-2.40625 -5.999996l3.0 0l1.21875 4.562496l0.390625 1.6875l0.453125 -1.75l1.21875 -4.499996l2.71875 0z" fill-rule="nonzero"/></g></svg>