<svg version="1.1" viewBox="0.0 0.0 892.0 388.0" fill="none" stroke="none" stroke-linecap="square" stroke-miterlimit="10" xmlns:xlink="http://www.w3.org/1999/xlink" xmlns="http://www.w3.org/2000/svg"><clipPath id="p.0"><path d="m0 0l892.0 0l0 388.0l-892.0 0l0 -388.0z" clip-rule="nonzero"/></clipPath><g clip-path="url(#p.0)"><path fill="#000000" fill-opacity="0.0" d="m0 0l892.0 0l0 388.0l-892.0 0z" fill-rule="evenodd"/><path fill="#434343" d="m800.78625 359.62848l24.913391 0l0 24.913391l-24.913391 0z" fill-rule="evenodd"/><path stroke="#434343" stroke-width="1.0" stroke-linejoin="round" stroke-linecap="butt" d="m800.78625 359.62848l24.913391 0l0 24.913391l-24.913391 0z" fill-rule="evenodd"/><path fill="#434343" d="m137.18927 285.05106l24.913391 0l0 24.913391l-24.913391 0z" fill-rule="evenodd"/><path stroke="#434343" stroke-width="1.0" stroke-linejoin="round" stroke-linecap="butt" d="m137.18927 285.05106l24.913391 0l0 24.913391l-24.913391 0z" fill-rule="evenodd"/><path fill="#434343" d="m169.12344 285.05106l24.913391 0l0 24.913391l-24.913391 0z" fill-rule="evenodd"/><path stroke="#434343" stroke-width="1.0" stroke-linejoin="round" stroke-linecap="butt" d="m169.12344 285.05106l24.913391 0l0 24.913391l-24.913391 0z" fill-rule="evenodd"/><path fill="#434343" d="m201.05762 285.05106l24.913391 0l0 24.913391l-24.913391 0z" fill-rule="evenodd"/><path stroke="#434343" stroke-width="1.0" stroke-linejoin="round" stroke-linecap="butt" d="m201.05762 285.05106l24.913391 0l0 24.913391l-24.913391 0z" fill-rule="evenodd"/><path fill="#434343" d="m232.99179 285.05106l24.913391 0l0 24.913391l-24.913391 0z" fill-rule="evenodd"/><path stroke="#434343" stroke-width="1.0" stroke-linejoin="round" stroke-linecap="butt" d="m232.99179 285.05106l24.913391 0l0 24.913391l-24.913391 0z" fill-rule="evenodd"/><path fill="#434343" d="m264.92596 285.05106l24.913391 0l0 24.913391l-24.913391 0z" fill-rule="evenodd"/><path stroke="#434343" stroke-width="1.0" stroke-linejoin="round" stroke-linecap="butt" d="m264.92596 285.05106l24.913391 0l0 24.913391l-24.913391 0z" fill-rule="evenodd"/><path fill="#434343" d="m296.86014 285.05106l24.913391 0l0 24.913391l-24.913391 0z" fill-rule="evenodd"/><path stroke="#434343" stroke-width="1.0" stroke-linejoin="round" stroke-linecap="butt" d="m296.86014 285.05106l24.913391 0l0 24.913391l-24.913391 0z" fill-rule="evenodd"/><path fill="#434343" d="m328.7943 285.05106l24.913391 0l0 24.913391l-24.913391 0z" fill-rule="evenodd"/><path stroke="#434343" stroke-width="1.0" stroke-linejoin="round" stroke-linecap="butt" d="m328.7943 285.05106l24.913391 0l0 24.913391l-24.913391 0z" fill-rule="evenodd"/><path fill="#434343" d="m360.7285 285.05106l24.91336 0l0 24.913391l-24.91336 0z" fill-rule="evenodd"/><path stroke="#434343" stroke-width="1.0" stroke-linejoin="round" stroke-linecap="butt" d="m360.7285 285.05106l24.91336 0l0 24.913391l-24.91336 0z" fill-rule="evenodd"/><path fill="#434343" d="m392.66266 285.05106l24.91336 0l0 24.913391l-24.91336 0z" fill-rule="evenodd"/><path stroke="#434343" stroke-width="1.0" stroke-linejoin="round" stroke-linecap="butt" d="m392.66266 285.05106l24.91336 0l0 24.913391l-24.91336 0z" fill-rule="evenodd"/><path fill="#434343" d="m424.59683 285.05106l24.91336 0l0 24.913391l-24.91336 0z" fill-rule="evenodd"/><path stroke="#434343" stroke-width="1.0" stroke-linejoin="round" stroke-linecap="butt" d="m424.59683 285.05106l24.91336 0l0 24.913391l-24.91336 0z" fill-rule="evenodd"/><path fill="#434343" d="m456.53098 285.05106l24.913391 0l0 24.913391l-24.913391 0z" fill-rule="evenodd"/><path stroke="#434343" stroke-width="1.0" stroke-linejoin="round" stroke-linecap="butt" d="m456.53098 285.05106l24.913391 0l0 24.913391l-24.913391 0z" fill-rule="evenodd"/><path fill="#434343" d="m488.46515 285.05106l24.913391 0l0 24.913391l-24.913391 0z" fill-rule="evenodd"/><path stroke="#434343" stroke-width="1.0" stroke-linejoin="round" stroke-linecap="butt" d="m488.46515 285.05106l24.913391 0l0 24.913391l-24.913391 0z" fill-rule="evenodd"/><path fill="#434343" d="m520.39935 285.05106l24.913391 0l0 24.913391l-24.913391 0z" fill-rule="evenodd"/><path stroke="#434343" stroke-width="1.0" stroke-linejoin="round" stroke-linecap="butt" d="m520.39935 285.05106l24.913391 0l0 24.913391l-24.913391 0z" fill-rule="evenodd"/><path fill="#434343" d="m552.3335 285.05106l24.913391 0l0 24.913391l-24.913391 0z" fill-rule="evenodd"/><path stroke="#434343" stroke-width="1.0" stroke-linejoin="round" stroke-linecap="butt" d="m552.3335 285.05106l24.913391 0l0 24.913391l-24.913391 0z" fill-rule="evenodd"/><path fill="#6fa8dc" d="m616.20184 285.05106l24.913391 0l0 24.913391l-24.913391 0z" fill-rule="evenodd"/><path stroke="#ffffff" stroke-width="1.0" stroke-linejoin="round" stroke-linecap="butt" d="m616.20184 285.05106l24.913391 0l0 24.913391l-24.913391 0z" fill-rule="evenodd"/><path fill="#434343" d="m153.3802 219.75972l24.913376 0l0 24.913376l-24.913376 0z" fill-rule="evenodd"/><path stroke="#434343" stroke-width="1.0" stroke-linejoin="round" stroke-linecap="butt" d="m153.3802 219.75972l24.913376 0l0 24.913376l-24.913376 0z" fill-rule="evenodd"/><path fill="#434343" d="m217.24854 219.75972l24.913391 0l0 24.913376l-24.913391 0z" fill-rule="evenodd"/><path stroke="#434343" stroke-width="1.0" stroke-linejoin="round" stroke-linecap="butt" d="m217.24854 219.75972l24.913391 0l0 24.913376l-24.913391 0z" fill-rule="evenodd"/><path fill="#434343" d="m281.11688 219.75972l24.913391 0l0 24.913376l-24.913391 0z" fill-rule="evenodd"/><path stroke="#434343" stroke-width="1.0" stroke-linejoin="round" stroke-linecap="butt" d="m281.11688 219.75972l24.913391 0l0 24.913376l-24.913391 0z" fill-rule="evenodd"/><path fill="#434343" d="m344.98523 219.75972l24.913391 0l0 24.913376l-24.913391 0z" fill-rule="evenodd"/><path stroke="#434343" stroke-width="1.0" stroke-linejoin="round" stroke-linecap="butt" d="m344.98523 219.75972l24.913391 0l0 24.913376l-24.913391 0z" fill-rule="evenodd"/><path fill="#434343" d="m408.85358 219.75972l24.913391 0l0 24.913376l-24.913391 0z" fill-rule="evenodd"/><path stroke="#434343" stroke-width="1.0" stroke-linejoin="round" stroke-linecap="butt" d="m408.85358 219.75972l24.913391 0l0 24.913376l-24.913391 0z" fill-rule="evenodd"/><path fill="#434343" d="m472.72192 219.75972l24.913391 0l0 24.913376l-24.913391 0z" fill-rule="evenodd"/><path stroke="#434343" stroke-width="1.0" stroke-linejoin="round" stroke-linecap="butt" d="m472.72192 219.75972l24.913391 0l0 24.913376l-24.913391 0z" fill-rule="evenodd"/><path fill="#434343" d="m536.5903 219.75972l24.913391 0l0 24.913376l-24.913391 0z" fill-rule="evenodd"/><path stroke="#434343" stroke-width="1.0" stroke-linejoin="round" stroke-linecap="butt" d="m536.5903 219.75972l24.913391 0l0 24.913376l-24.913391 0z" fill-rule="evenodd"/><path fill="#6fa8dc" d="m600.4586 219.75972l24.913391 0l0 24.913376l-24.913391 0z" fill-rule="evenodd"/><path stroke="#ffffff" stroke-width="1.0" stroke-linejoin="round" stroke-linecap="butt" d="m600.4586 219.75972l24.913391 0l0 24.913376l-24.913391 0z" fill-rule="evenodd"/><path fill="#434343" d="m186.29185 142.65997l24.913376 0l0 24.913391l-24.913376 0z" fill-rule="evenodd"/><path stroke="#434343" stroke-width="1.0" stroke-linejoin="round" stroke-linecap="butt" d="m186.29185 142.65997l24.913376 0l0 24.913391l-24.913376 0z" fill-rule="evenodd"/><path fill="#434343" d="m314.02853 142.65997l24.913391 0l0 24.913391l-24.913391 0z" fill-rule="evenodd"/><path stroke="#434343" stroke-width="1.0" stroke-linejoin="round" stroke-linecap="butt" d="m314.02853 142.65997l24.913391 0l0 24.913391l-24.913391 0z" fill-rule="evenodd"/><path fill="#434343" d="m441.76523 142.65997l24.913391 0l0 24.913391l-24.913391 0z" fill-rule="evenodd"/><path stroke="#434343" stroke-width="1.0" stroke-linejoin="round" stroke-linecap="butt" d="m441.76523 142.65997l24.913391 0l0 24.913391l-24.913391 0z" fill-rule="evenodd"/><path fill="#6fa8dc" d="m569.5019 142.65997l24.913391 0l0 24.913391l-24.913391 0z" fill-rule="evenodd"/><path stroke="#ffffff" stroke-width="1.0" stroke-linejoin="round" stroke-linecap="butt" d="m569.5019 142.65997l24.913391 0l0 24.913391l-24.913391 0z" fill-rule="evenodd"/><path fill="#434343" d="m250.16193 83.91982l24.913391 0l0 24.913383l-24.913391 0z" fill-rule="evenodd"/><path stroke="#434343" stroke-width="1.0" stroke-linejoin="round" stroke-linecap="butt" d="m250.16193 83.91982l24.913391 0l0 24.913383l-24.913391 0z" fill-rule="evenodd"/><path fill="#6fa8dc" d="m505.6353 83.91982l24.913391 0l0 24.913383l-24.913391 0z" fill-rule="evenodd"/><path stroke="#ffffff" stroke-width="1.0" stroke-linejoin="round" stroke-linecap="butt" d="m505.6353 83.91982l24.913391 0l0 24.913383l-24.913391 0z" fill-rule="evenodd"/><path fill="#000000" fill-opacity="0.0" d="m262.61862 83.91982l130.04724 -42.677166" fill-rule="evenodd"/><path stroke="#434343" stroke-width="1.0" stroke-linejoin="round" stroke-linecap="butt" d="m262.61862 83.91982l130.04724 -42.677166" fill-rule="evenodd"/><path fill="#000000" fill-opacity="0.0" d="m518.092 83.91982l-112.97638 -55.14961" fill-rule="evenodd"/><path stroke="#ffffff" stroke-width="1.0" stroke-linejoin="round" stroke-linecap="butt" stroke-dasharray="4.0,3.0,1.0,3.0" d="m518.092 83.91982l-107.5845 -52.51756" fill-rule="evenodd"/><path fill="#ffffff" stroke="#ffffff" stroke-width="1.0" stroke-linecap="butt" d="m411.23206 29.917942l-4.802704 -0.50642776l3.3535461 3.475071z" fill-rule="evenodd"/><path fill="#000000" fill-opacity="0.0" d="m198.74854 142.65997l63.874023 -33.826767" fill-rule="evenodd"/><path stroke="#434343" stroke-width="1.0" stroke-linejoin="round" stroke-linecap="butt" d="m198.74854 142.65997l63.874023 -33.826767" fill-rule="evenodd"/><path fill="#000000" fill-opacity="0.0" d="m326.48523 142.65997l-63.874023 -33.826767" fill-rule="evenodd"/><path stroke="#434343" stroke-width="1.0" stroke-linejoin="round" stroke-linecap="butt" d="m326.48523 142.65997l-63.874023 -33.826767" fill-rule="evenodd"/><path fill="#000000" fill-opacity="0.0" d="m165.83688 219.75972l32.91339 -52.18898" fill-rule="evenodd"/><path stroke="#434343" stroke-width="1.0" stroke-linejoin="round" stroke-linecap="butt" d="m165.83688 219.75972l32.91339 -52.18898" fill-rule="evenodd"/><path fill="#000000" fill-opacity="0.0" d="m229.70523 219.75972l-30.960632 -52.18898" fill-rule="evenodd"/><path stroke="#434343" stroke-width="1.0" stroke-linejoin="round" stroke-linecap="butt" d="m229.70523 219.75972l-30.960632 -52.18898" fill-rule="evenodd"/><path fill="#000000" fill-opacity="0.0" d="m293.57358 219.75972l32.91339 -52.18898" fill-rule="evenodd"/><path stroke="#434343" stroke-width="1.0" stroke-linejoin="round" stroke-linecap="butt" d="m293.57358 219.75972l32.91339 -52.18898" fill-rule="evenodd"/><path fill="#000000" fill-opacity="0.0" d="m357.44193 219.75972l-30.960632 -52.18898" fill-rule="evenodd"/><path stroke="#434343" stroke-width="1.0" stroke-linejoin="round" stroke-linecap="butt" d="m357.44193 219.75972l-30.960632 -52.18898" fill-rule="evenodd"/><path fill="#000000" fill-opacity="0.0" d="m421.31027 219.75972l32.91339 -52.18898" fill-rule="evenodd"/><path stroke="#434343" stroke-width="1.0" stroke-linejoin="round" stroke-linecap="butt" d="m421.31027 219.75972l32.91339 -52.18898" fill-rule="evenodd"/><path fill="#000000" fill-opacity="0.0" d="m485.17862 219.75972l-30.960632 -52.18898" fill-rule="evenodd"/><path stroke="#434343" stroke-width="1.0" stroke-linejoin="round" stroke-linecap="butt" d="m485.17862 219.75972l-30.960632 -52.18898" fill-rule="evenodd"/><path fill="#000000" fill-opacity="0.0" d="m549.04694 219.75972l32.91339 -52.18898" fill-rule="evenodd"/><path stroke="#434343" stroke-width="1.0" stroke-linejoin="round" stroke-linecap="butt" d="m549.04694 219.75972l32.91339 -52.18898" fill-rule="evenodd"/><path fill="#000000" fill-opacity="0.0" d="m612.9153 219.75972l-18.48816 -64.62993" fill-rule="evenodd"/><path stroke="#ffffff" stroke-width="1.0" stroke-linejoin="round" stroke-linecap="butt" stroke-dasharray="4.0,3.0,1.0,3.0" d="m612.9153 219.75972l-16.837952 -58.861313" fill-rule="evenodd"/><path fill="#ffffff" stroke="#ffffff" stroke-width="1.0" stroke-linecap="butt" d="m597.66534 160.44414l-2.8361816 -3.9088135l-0.3399048 4.8173676z" fill-rule="evenodd"/><path fill="#000000" fill-opacity="0.0" d="m581.9586 142.65997l-51.40161 -46.29921" fill-rule="evenodd"/><path stroke="#ffffff" stroke-width="1.0" stroke-linejoin="round" stroke-linecap="butt" stroke-dasharray="4.0,3.0,1.0,3.0" d="m581.9586 142.65999l-46.94342 -42.283623" fill-rule="evenodd"/><path fill="#ffffff" stroke="#ffffff" stroke-width="1.0" stroke-linecap="butt" d="m536.1206 99.14909l-4.477356 -1.8099213l2.2664795 4.264473z" fill-rule="evenodd"/><path fill="#000000" fill-opacity="0.0" d="m454.22192 142.65997l63.874023 -33.826767" fill-rule="evenodd"/><path stroke="#434343" stroke-width="1.0" stroke-linejoin="round" stroke-linecap="butt" d="m454.22192 142.65997l63.874023 -33.826767" fill-rule="evenodd"/><path fill="#000000" fill-opacity="0.0" d="m149.64597 285.05106l16.18898 -40.37796" fill-rule="evenodd"/><path stroke="#434343" stroke-width="1.0" stroke-linejoin="round" stroke-linecap="butt" d="m149.64597 285.05106l16.18898 -40.37796" fill-rule="evenodd"/><path fill="#000000" fill-opacity="0.0" d="m181.58014 285.05106l-15.748032 -40.37796" fill-rule="evenodd"/><path stroke="#434343" stroke-width="1.0" stroke-linejoin="round" stroke-linecap="butt" d="m181.58014 285.05106l-15.748032 -40.37796" fill-rule="evenodd"/><path fill="#000000" fill-opacity="0.0" d="m213.51431 285.05106l16.188965 -40.37796" fill-rule="evenodd"/><path stroke="#434343" stroke-width="1.0" stroke-linejoin="round" stroke-linecap="butt" d="m213.51431 285.05106l16.188965 -40.37796" fill-rule="evenodd"/><path fill="#000000" fill-opacity="0.0" d="m245.44849 285.05106l-15.748032 -40.37796" fill-rule="evenodd"/><path stroke="#434343" stroke-width="1.0" stroke-linejoin="round" stroke-linecap="butt" d="m245.44849 285.05106l-15.748032 -40.37796" fill-rule="evenodd"/><path fill="#000000" fill-opacity="0.0" d="m277.38266 285.05106l16.188965 -40.37796" fill-rule="evenodd"/><path stroke="#434343" stroke-width="1.0" stroke-linejoin="round" stroke-linecap="butt" d="m277.38266 285.05106l16.188965 -40.37796" fill-rule="evenodd"/><path fill="#000000" fill-opacity="0.0" d="m309.31683 285.05106l-15.748047 -40.37796" fill-rule="evenodd"/><path stroke="#434343" stroke-width="1.0" stroke-linejoin="round" stroke-linecap="butt" d="m309.31683 285.05106l-15.748047 -40.37796" fill-rule="evenodd"/><path fill="#000000" fill-opacity="0.0" d="m341.251 285.05106l16.188965 -40.37796" fill-rule="evenodd"/><path stroke="#434343" stroke-width="1.0" stroke-linejoin="round" stroke-linecap="butt" d="m341.251 285.05106l16.188965 -40.37796" fill-rule="evenodd"/><path fill="#000000" fill-opacity="0.0" d="m373.18518 285.05106l-15.748047 -40.37796" fill-rule="evenodd"/><path stroke="#434343" stroke-width="1.0" stroke-linejoin="round" stroke-linecap="butt" d="m373.18518 285.05106l-15.748047 -40.37796" fill-rule="evenodd"/><path fill="#000000" fill-opacity="0.0" d="m405.11932 285.05106l16.188995 -40.37796" fill-rule="evenodd"/><path stroke="#434343" stroke-width="1.0" stroke-linejoin="round" stroke-linecap="butt" d="m405.11932 285.05106l16.188995 -40.37796" fill-rule="evenodd"/><path fill="#000000" fill-opacity="0.0" d="m437.0535 285.05106l-15.748016 -40.37796" fill-rule="evenodd"/><path stroke="#434343" stroke-width="1.0" stroke-linejoin="round" stroke-linecap="butt" d="m437.0535 285.05106l-15.748016 -40.37796" fill-rule="evenodd"/><path fill="#000000" fill-opacity="0.0" d="m468.98767 285.05106l16.188995 -40.37796" fill-rule="evenodd"/><path stroke="#434343" stroke-width="1.0" stroke-linejoin="round" stroke-linecap="butt" d="m468.98767 285.05106l16.188995 -40.37796" fill-rule="evenodd"/><path fill="#000000" fill-opacity="0.0" d="m500.92184 285.05106l-15.748016 -40.37796" fill-rule="evenodd"/><path stroke="#434343" stroke-width="1.0" stroke-linejoin="round" stroke-linecap="butt" d="m500.92184 285.05106l-15.748016 -40.37796" fill-rule="evenodd"/><path fill="#000000" fill-opacity="0.0" d="m532.856 285.05106l16.188965 -40.37796" fill-rule="evenodd"/><path stroke="#434343" stroke-width="1.0" stroke-linejoin="round" stroke-linecap="butt" d="m532.856 285.05106l16.188965 -40.37796" fill-rule="evenodd"/><path fill="#000000" fill-opacity="0.0" d="m564.7902 285.05106l-15.748047 -40.37796" fill-rule="evenodd"/><path stroke="#434343" stroke-width="1.0" stroke-linejoin="round" stroke-linecap="butt" d="m564.7902 285.05106l-15.748047 -40.37796" fill-rule="evenodd"/><path fill="#000000" fill-opacity="0.0" d="m596.72437 285.05106l16.188965 -40.37796" fill-rule="evenodd"/><path stroke="#434343" stroke-width="1.0" stroke-linejoin="round" stroke-linecap="butt" d="m596.72437 285.05106l16.188965 -40.37796" fill-rule="evenodd"/><path fill="#000000" fill-opacity="0.0" d="m628.65857 285.05106l-3.2756348 -52.818893" fill-rule="evenodd"/><path stroke="#ffffff" stroke-width="1.0" stroke-linejoin="round" stroke-linecap="butt" stroke-dasharray="4.0,3.0,1.0,3.0" d="m628.65857 285.05106l-2.9042358 -46.8304" fill-rule="evenodd"/><path fill="#ffffff" stroke="#ffffff" stroke-width="1.0" stroke-linecap="butt" d="m627.4029 238.11842l-1.9294434 -4.42717l-1.3676758 4.6316376z" fill-rule="evenodd"/><path fill="#434343" d="m385.64203 359.62848l24.913391 0l0 24.913391l-24.913391 0z" fill-rule="evenodd"/><path stroke="#434343" stroke-width="1.0" stroke-linejoin="round" stroke-linecap="butt" d="m385.64203 359.62848l24.913391 0l0 24.913391l-24.913391 0z" fill-rule="evenodd"/><path fill="#434343" d="m417.5762 359.62848l24.913391 0l0 24.913391l-24.913391 0z" fill-rule="evenodd"/><path stroke="#434343" stroke-width="1.0" stroke-linejoin="round" stroke-linecap="butt" d="m417.5762 359.62848l24.913391 0l0 24.913391l-24.913391 0z" fill-rule="evenodd"/><path fill="#434343" d="m449.51038 359.62848l24.913391 0l0 24.913391l-24.913391 0z" fill-rule="evenodd"/><path stroke="#434343" stroke-width="1.0" stroke-linejoin="round" stroke-linecap="butt" d="m449.51038 359.62848l24.913391 0l0 24.913391l-24.913391 0z" fill-rule="evenodd"/><path fill="#434343" d="m481.44455 359.62848l24.913391 0l0 24.913391l-24.913391 0z" fill-rule="evenodd"/><path stroke="#434343" stroke-width="1.0" stroke-linejoin="round" stroke-linecap="butt" d="m481.44455 359.62848l24.913391 0l0 24.913391l-24.913391 0z" fill-rule="evenodd"/><path fill="#434343" d="m513.3787 359.62848l24.913391 0l0 24.913391l-24.913391 0z" fill-rule="evenodd"/><path stroke="#434343" stroke-width="1.0" stroke-linejoin="round" stroke-linecap="butt" d="m513.3787 359.62848l24.913391 0l0 24.913391l-24.913391 0z" fill-rule="evenodd"/><path fill="#434343" d="m545.31287 359.62848l24.913391 0l0 24.913391l-24.913391 0z" fill-rule="evenodd"/><path stroke="#434343" stroke-width="1.0" stroke-linejoin="round" stroke-linecap="butt" d="m545.31287 359.62848l24.913391 0l0 24.913391l-24.913391 0z" fill-rule="evenodd"/><path fill="#434343" d="m577.2471 359.62848l24.913391 0l0 24.913391l-24.913391 0z" fill-rule="evenodd"/><path stroke="#434343" stroke-width="1.0" stroke-linejoin="round" stroke-linecap="butt" d="m577.2471 359.62848l24.913391 0l0 24.913391l-24.913391 0z" fill-rule="evenodd"/><path fill="#434343" d="m609.1812 359.62848l24.913391 0l0 24.913391l-24.913391 0z" fill-rule="evenodd"/><path stroke="#434343" stroke-width="1.0" stroke-linejoin="round" stroke-linecap="butt" d="m609.1812 359.62848l24.913391 0l0 24.913391l-24.913391 0z" fill-rule="evenodd"/><path fill="#434343" d="m641.1154 359.62848l24.913391 0l0 24.913391l-24.913391 0z" fill-rule="evenodd"/><path stroke="#434343" stroke-width="1.0" stroke-linejoin="round" stroke-linecap="butt" d="m641.1154 359.62848l24.913391 0l0 24.913391l-24.913391 0z" fill-rule="evenodd"/><path fill="#434343" d="m673.04956 359.62848l24.913391 0l0 24.913391l-24.913391 0z" fill-rule="evenodd"/><path stroke="#434343" stroke-width="1.0" stroke-linejoin="round" stroke-linecap="butt" d="m673.04956 359.62848l24.913391 0l0 24.913391l-24.913391 0z" fill-rule="evenodd"/><path fill="#434343" d="m704.98376 359.62848l24.913391 0l0 24.913391l-24.913391 0z" fill-rule="evenodd"/><path stroke="#434343" stroke-width="1.0" stroke-linejoin="round" stroke-linecap="butt" d="m704.98376 359.62848l24.913391 0l0 24.913391l-24.913391 0z" fill-rule="evenodd"/><path fill="#434343" d="m736.9179 359.62848l24.913391 0l0 24.913391l-24.913391 0z" fill-rule="evenodd"/><path stroke="#434343" stroke-width="1.0" stroke-linejoin="round" stroke-linecap="butt" d="m736.9179 359.62848l24.913391 0l0 24.913391l-24.913391 0z" fill-rule="evenodd"/><path fill="#434343" d="m768.8521 359.62848l24.913391 0l0 24.913391l-24.913391 0z" fill-rule="evenodd"/><path stroke="#434343" stroke-width="1.0" stroke-linejoin="round" stroke-linecap="butt" d="m768.8521 359.62848l24.913391 0l0 24.913391l-24.913391 0z" fill-rule="evenodd"/><path fill="#434343" d="m832.72046 359.62848l24.91333 0l0 24.913391l-24.91333 0z" fill-rule="evenodd"/><path stroke="#434343" stroke-width="1.0" stroke-linejoin="round" stroke-linecap="butt" d="m832.72046 359.62848l24.91333 0l0 24.913391l-24.91333 0z" fill-rule="evenodd"/><path fill="#6fa8dc" d="m864.6546 359.62848l24.913391 0l0 24.913391l-24.913391 0z" fill-rule="evenodd"/><path stroke="#ffffff" stroke-width="1.0" stroke-linejoin="round" stroke-linecap="butt" d="m864.6546 359.62848l24.913391 0l0 24.913391l-24.913391 0z" fill-rule="evenodd"/><path fill="#434343" d="m2.4312081 359.62848l24.913385 0l0 24.913391l-24.913385 0z" fill-rule="evenodd"/><path stroke="#434343" stroke-width="1.0" stroke-linejoin="round" stroke-linecap="butt" d="m2.4312081 359.62848l24.913385 0l0 24.913391l-24.913385 0z" fill-rule="evenodd"/><path fill="#434343" d="m34.36538 359.62848l24.913387 0l0 24.913391l-24.913387 0z" fill-rule="evenodd"/><path stroke="#434343" stroke-width="1.0" stroke-linejoin="round" stroke-linecap="butt" d="m34.36538 359.62848l24.913387 0l0 24.913391l-24.913387 0z" fill-rule="evenodd"/><path fill="#434343" d="m66.29955 359.62848l24.913383 0l0 24.913391l-24.913383 0z" fill-rule="evenodd"/><path stroke="#434343" stroke-width="1.0" stroke-linejoin="round" stroke-linecap="butt" d="m66.29955 359.62848l24.913383 0l0 24.913391l-24.913383 0z" fill-rule="evenodd"/><path fill="#434343" d="m98.23373 359.62848l24.913383 0l0 24.913391l-24.913383 0z" fill-rule="evenodd"/><path stroke="#434343" stroke-width="1.0" stroke-linejoin="round" stroke-linecap="butt" d="m98.23373 359.62848l24.913383 0l0 24.913391l-24.913383 0z" fill-rule="evenodd"/><path fill="#434343" d="m130.1679 359.62848l24.913391 0l0 24.913391l-24.913391 0z" fill-rule="evenodd"/><path stroke="#434343" stroke-width="1.0" stroke-linejoin="round" stroke-linecap="butt" d="m130.1679 359.62848l24.913391 0l0 24.913391l-24.913391 0z" fill-rule="evenodd"/><path fill="#434343" d="m162.10207 359.62848l24.913391 0l0 24.913391l-24.913391 0z" fill-rule="evenodd"/><path stroke="#434343" stroke-width="1.0" stroke-linejoin="round" stroke-linecap="butt" d="m162.10207 359.62848l24.913391 0l0 24.913391l-24.913391 0z" fill-rule="evenodd"/><path fill="#434343" d="m194.03624 359.62848l24.913391 0l0 24.913391l-24.913391 0z" fill-rule="evenodd"/><path stroke="#434343" stroke-width="1.0" stroke-linejoin="round" stroke-linecap="butt" d="m194.03624 359.62848l24.913391 0l0 24.913391l-24.913391 0z" fill-rule="evenodd"/><path fill="#434343" d="m225.97041 359.62848l24.913376 0l0 24.913391l-24.913376 0z" fill-rule="evenodd"/><path stroke="#434343" stroke-width="1.0" stroke-linejoin="round" stroke-linecap="butt" d="m225.97041 359.62848l24.913376 0l0 24.913391l-24.913376 0z" fill-rule="evenodd"/><path fill="#434343" d="m257.90457 359.62848l24.913391 0l0 24.913391l-24.913391 0z" fill-rule="evenodd"/><path stroke="#434343" stroke-width="1.0" stroke-linejoin="round" stroke-linecap="butt" d="m257.90457 359.62848l24.913391 0l0 24.913391l-24.913391 0z" fill-rule="evenodd"/><path fill="#434343" d="m289.83875 359.62848l24.913391 0l0 24.913391l-24.913391 0z" fill-rule="evenodd"/><path stroke="#434343" stroke-width="1.0" stroke-linejoin="round" stroke-linecap="butt" d="m289.83875 359.62848l24.913391 0l0 24.913391l-24.913391 0z" fill-rule="evenodd"/><path fill="#434343" d="m321.77292 359.62848l24.913391 0l0 24.913391l-24.913391 0z" fill-rule="evenodd"/><path stroke="#434343" stroke-width="1.0" stroke-linejoin="round" stroke-linecap="butt" d="m321.77292 359.62848l24.913391 0l0 24.913391l-24.913391 0z" fill-rule="evenodd"/><path fill="#434343" d="m353.7071 359.62848l24.913391 0l0 24.913391l-24.913391 0z" fill-rule="evenodd"/><path stroke="#434343" stroke-width="1.0" stroke-linejoin="round" stroke-linecap="butt" d="m353.7071 359.62848l24.913391 0l0 24.913391l-24.913391 0z" fill-rule="evenodd"/><path fill="#000000" fill-opacity="0.0" d="m813.243 359.62848l-216.50397 -49.66928" fill-rule="evenodd"/><path stroke="#434343" stroke-width="1.0" stroke-linejoin="round" stroke-linecap="butt" d="m813.243 359.62848l-216.50397 -49.66928" fill-rule="evenodd"/><path fill="#000000" fill-opacity="0.0" d="m781.3088 359.62848l-184.59845 -49.66928" fill-rule="evenodd"/><path stroke="#434343" stroke-width="1.0" stroke-linejoin="round" stroke-linecap="butt" d="m781.3088 359.62848l-184.59845 -49.66928" fill-rule="evenodd"/><path fill="#000000" fill-opacity="0.0" d="m749.37463 359.62848l-184.59845 -49.66928" fill-rule="evenodd"/><path stroke="#434343" stroke-width="1.0" stroke-linejoin="round" stroke-linecap="butt" d="m749.37463 359.62848l-184.59845 -49.66928" fill-rule="evenodd"/><path fill="#000000" fill-opacity="0.0" d="m717.4404 359.62848l-152.66144 -49.66928" fill-rule="evenodd"/><path stroke="#434343" stroke-width="1.0" stroke-linejoin="round" stroke-linecap="butt" d="m717.4404 359.62848l-152.66144 -49.66928" fill-rule="evenodd"/><path fill="#000000" fill-opacity="0.0" d="m685.5063 359.62848l-152.66144 -49.66928" fill-rule="evenodd"/><path stroke="#434343" stroke-width="1.0" stroke-linejoin="round" stroke-linecap="butt" d="m685.5063 359.62848l-152.66144 -49.66928" fill-rule="evenodd"/><path fill="#000000" fill-opacity="0.0" d="m653.5721 359.62848l-120.72443 -49.66928" fill-rule="evenodd"/><path stroke="#434343" stroke-width="1.0" stroke-linejoin="round" stroke-linecap="butt" d="m653.5721 359.62848l-120.72443 -49.66928" fill-rule="evenodd"/><path fill="#000000" fill-opacity="0.0" d="m621.63794 359.62848l-120.72443 -49.66928" fill-rule="evenodd"/><path stroke="#434343" stroke-width="1.0" stroke-linejoin="round" stroke-linecap="butt" d="m621.63794 359.62848l-120.72443 -49.66928" fill-rule="evenodd"/><path fill="#000000" fill-opacity="0.0" d="m589.70374 359.62848l-88.787384 -49.66928" fill-rule="evenodd"/><path stroke="#434343" stroke-width="1.0" stroke-linejoin="round" stroke-linecap="butt" d="m589.70374 359.62848l-88.787384 -49.66928" fill-rule="evenodd"/><path fill="#000000" fill-opacity="0.0" d="m557.7696 359.62848l-88.787415 -49.66928" fill-rule="evenodd"/><path stroke="#434343" stroke-width="1.0" stroke-linejoin="round" stroke-linecap="butt" d="m557.7696 359.62848l-88.787415 -49.66928" fill-rule="evenodd"/><path fill="#000000" fill-opacity="0.0" d="m525.8354 359.62848l-56.850372 -49.66928" fill-rule="evenodd"/><path stroke="#434343" stroke-width="1.0" stroke-linejoin="round" stroke-linecap="butt" d="m525.8354 359.62848l-56.850372 -49.66928" fill-rule="evenodd"/><path fill="#000000" fill-opacity="0.0" d="m493.90125 359.62848l-56.850403 -49.66928" fill-rule="evenodd"/><path stroke="#434343" stroke-width="1.0" stroke-linejoin="round" stroke-linecap="butt" d="m493.90125 359.62848l-56.850403 -49.66928" fill-rule="evenodd"/><path fill="#000000" fill-opacity="0.0" d="m461.96707 359.62848l-24.913391 -49.66928" fill-rule="evenodd"/><path stroke="#434343" stroke-width="1.0" stroke-linejoin="round" stroke-linecap="butt" d="m461.96707 359.62848l-24.913391 -49.66928" fill-rule="evenodd"/><path fill="#000000" fill-opacity="0.0" d="m430.0329 359.62848l-24.913391 -49.66928" fill-rule="evenodd"/><path stroke="#434343" stroke-width="1.0" stroke-linejoin="round" stroke-linecap="butt" d="m430.0329 359.62848l-24.913391 -49.66928" fill-rule="evenodd"/><path fill="#000000" fill-opacity="0.0" d="m398.09872 359.62848l7.0236206 -49.66928" fill-rule="evenodd"/><path stroke="#434343" stroke-width="1.0" stroke-linejoin="round" stroke-linecap="butt" d="m398.09872 359.62848l7.0236206 -49.66928" fill-rule="evenodd"/><path fill="#000000" fill-opacity="0.0" d="m366.1638 359.62848l7.0236206 -49.66928" fill-rule="evenodd"/><path stroke="#434343" stroke-width="1.0" stroke-linejoin="round" stroke-linecap="butt" d="m366.1638 359.62848l7.0236206 -49.66928" fill-rule="evenodd"/><path fill="#000000" fill-opacity="0.0" d="m334.2296 359.62848l38.960632 -49.66928" fill-rule="evenodd"/><path stroke="#434343" stroke-width="1.0" stroke-linejoin="round" stroke-linecap="butt" d="m334.2296 359.62848l38.960632 -49.66928" fill-rule="evenodd"/><path fill="#000000" fill-opacity="0.0" d="m302.29544 359.62848l38.960632 -49.66928" fill-rule="evenodd"/><path stroke="#434343" stroke-width="1.0" stroke-linejoin="round" stroke-linecap="butt" d="m302.29544 359.62848l38.960632 -49.66928" fill-rule="evenodd"/><path fill="#000000" fill-opacity="0.0" d="m270.36127 359.62848l70.897644 -49.66928" fill-rule="evenodd"/><path stroke="#434343" stroke-width="1.0" stroke-linejoin="round" stroke-linecap="butt" d="m270.36127 359.62848l70.897644 -49.66928" fill-rule="evenodd"/><path fill="#000000" fill-opacity="0.0" d="m238.42711 359.62848l70.89763 -49.66928" fill-rule="evenodd"/><path stroke="#434343" stroke-width="1.0" stroke-linejoin="round" stroke-linecap="butt" d="m238.42711 359.62848l70.89763 -49.66928" fill-rule="evenodd"/><path fill="#000000" fill-opacity="0.0" d="m206.49294 359.62848l102.83464 -49.66928" fill-rule="evenodd"/><path stroke="#434343" stroke-width="1.0" stroke-linejoin="round" stroke-linecap="butt" d="m206.49294 359.62848l102.83464 -49.66928" fill-rule="evenodd"/><path fill="#000000" fill-opacity="0.0" d="m174.55876 359.62848l102.83464 -49.66928" fill-rule="evenodd"/><path stroke="#434343" stroke-width="1.0" stroke-linejoin="round" stroke-linecap="butt" d="m174.55876 359.62848l102.83464 -49.66928" fill-rule="evenodd"/><path fill="#000000" fill-opacity="0.0" d="m142.62459 359.62848l134.77165 -49.66928" fill-rule="evenodd"/><path stroke="#434343" stroke-width="1.0" stroke-linejoin="round" stroke-linecap="butt" d="m142.62459 359.62848l134.77165 -49.66928" fill-rule="evenodd"/><path fill="#000000" fill-opacity="0.0" d="m110.690414 359.62848l134.77165 -49.66928" fill-rule="evenodd"/><path stroke="#434343" stroke-width="1.0" stroke-linejoin="round" stroke-linecap="butt" d="m110.690414 359.62848l134.77165 -49.66928" fill-rule="evenodd"/><path fill="#000000" fill-opacity="0.0" d="m78.75624 359.62848l166.67717 -49.66928" fill-rule="evenodd"/><path stroke="#434343" stroke-width="1.0" stroke-linejoin="round" stroke-linecap="butt" d="m78.75624 359.62848l166.67717 -49.66928" fill-rule="evenodd"/><path fill="#000000" fill-opacity="0.0" d="m46.82207 359.62848l166.67717 -49.66928" fill-rule="evenodd"/><path stroke="#434343" stroke-width="1.0" stroke-linejoin="round" stroke-linecap="butt" d="m46.82207 359.62848l166.67717 -49.66928" fill-rule="evenodd"/><path fill="#000000" fill-opacity="0.0" d="m14.887901 359.62848l198.61417 -49.66928" fill-rule="evenodd"/><path stroke="#434343" stroke-width="1.0" stroke-linejoin="round" stroke-linecap="butt" d="m14.887901 359.62848l198.61417 -49.66928" fill-rule="evenodd"/><path fill="#000000" fill-opacity="0.0" d="m877.11127 359.62848l-236.0 -62.11023" fill-rule="evenodd"/><path stroke="#ffffff" stroke-width="1.0" stroke-linejoin="round" stroke-linecap="butt" stroke-dasharray="4.0,3.0,1.0,3.0" d="m877.1113 359.62848l-230.19763 -60.58316" fill-rule="evenodd"/><path fill="#ffffff" stroke="#ffffff" stroke-width="1.0" stroke-linecap="butt" d="m647.3341 297.448l-4.809021 0.44232178l3.9682617 2.7523499z" fill-rule="evenodd"/><path fill="#6fa8dc" d="m24.665863 50.804337l19.2126 0l0 19.212593l-19.2126 0z" fill-rule="evenodd"/><path stroke="#ffffff" stroke-width="1.0" stroke-linejoin="round" stroke-linecap="butt" d="m24.665863 50.804337l19.2126 0l0 19.212593l-19.2126 0z" fill-rule="evenodd"/><path fill="#000000" fill-opacity="0.0" d="m48.51054 43.459316l226.55116 0l0 33.82677l-226.55116 0z" fill-rule="evenodd"/><path fill="#ffffff" d="m59.182415 67.2927l0 -13.265625l3.71875 0q1.6250038 0 2.9062538 0.75q1.296875 0.734375 2.015625 2.125q0.734375 1.375 0.734375 3.15625l0 1.21875q0 1.765625 -0.71875 3.140625q-0.71875 1.375 -2.03125 2.125q-1.296875 0.75 -3.0000038 0.75l-3.625 0zm1.125 -12.3125l0 11.359375l2.515625 0q2.0937538 0 3.3593788 -1.375q1.265625 -1.390625 1.265625 -3.765625l0 -1.171875q0 -2.28125 -1.25 -3.65625q-1.25 -1.375 -3.2812538 -1.390625l-2.609375 0zm17.05959 12.3125q-0.15625 -0.46875 -0.203125 -1.375q-0.578125 0.75 -1.46875 1.15625q-0.890625 0.40625 -1.875 0.40625q-1.421875 0 -2.3125 -0.796875q-0.875 -0.796875 -0.875 -2.0q0 -1.4375 1.203125 -2.28125q1.203125 -0.84375 3.34375 -0.84375l1.96875 0l0 -1.109375q0 -1.0625 -0.65625 -1.671875q-0.640625 -0.609375 -1.890625 -0.609375q-1.140625 0 -1.890625 0.59375q-0.75 0.578125 -0.75 1.40625l-1.09375 -0.015625q0 -1.171875 1.09375 -2.03125q1.09375 -0.859375 2.6875 -0.859375q1.65625 0 2.609375 0.828125q0.953125 0.8125 0.984375 2.28125l0 4.671875q0 1.4375 0.296875 2.140625l0 0.109375l-1.171875 0zm-3.421875 -0.78125q1.09375 0 1.953125 -0.53125q0.859375 -0.53125 1.25 -1.40625l0 -2.171875l-1.953125 0q-1.625 0.015625 -2.546875 0.59375q-0.921875 0.578125 -0.921875 1.59375q0 0.828125 0.609375 1.375q0.625 0.546875 1.609375 0.546875zm8.883743 -11.59375l0 2.515625l2.046875 0l0 0.890625l-2.046875 0l0 6.578125q0 0.8125 0.296875 1.21875q0.296875 0.390625 1.0 0.390625q0.265625 0 0.875 -0.078125l0.046875 0.890625q-0.421875 0.15625 -1.171875 0.15625q-1.109375 0 -1.625 -0.65625q-0.515625 -0.65625 -0.515625 -1.921875l0 -6.578125l-1.8125 0l0 -0.890625l1.8125 0l0 -2.515625l1.09375 0zm10.525299 12.375q-0.15625 -0.46875 -0.203125 -1.375q-0.578125 0.75 -1.46875 1.15625q-0.890625 0.40625 -1.875 0.40625q-1.421875 0 -2.3125 -0.796875q-0.875 -0.796875 -0.875 -2.0q0 -1.4375 1.203125 -2.28125q1.203125 -0.84375 3.34375 -0.84375l1.96875 0l0 -1.109375q0 -1.0625 -0.65625 -1.671875q-0.640625 -0.609375 -1.890625 -0.609375q-1.140625 0 -1.890625 0.59375q-0.75 0.578125 -0.75 1.40625l-1.09375 -0.015625q0 -1.171875 1.09375 -2.03125q1.09375 -0.859375 2.6875 -0.859375q1.65625 0 2.609375 0.828125q0.953125 0.8125 0.984375 2.28125l0 4.671875q0 1.4375 0.296875 2.140625l0 0.109375l-1.171875 0zm-3.421875 -0.78125q1.09375 0 1.953125 -0.53125q0.859375 -0.53125 1.25 -1.40625l0 -2.171875l-1.953125 0q-1.625 0.015625 -2.546875 0.59375q-0.921875 0.578125 -0.921875 1.59375q0 0.828125 0.609375 1.375q0.625 0.546875 1.609375 0.546875zm19.498398 -2.484375q0 -1.09375 -0.78125 -1.734375q-0.765625 -0.640625 -2.828125 -1.21875q-2.0625 -0.59375 -3.015625 -1.265625q-1.34375 -0.96875 -1.34375 -2.53125q0 -1.53125 1.25 -2.484375q1.25 -0.953125 3.203125 -0.953125q1.328125 0 2.359375 0.515625q1.046875 0.515625 1.625 1.421875q0.578125 0.90625 0.578125 2.03125l-1.140625 0q0 -1.359375 -0.9375 -2.171875q-0.921875 -0.828125 -2.484375 -0.828125q-1.515625 0 -2.421875 0.6875q-0.90625 0.671875 -0.90625 1.765625q0 1.0 0.8125 1.640625q0.8125 0.640625 2.59375 1.125q1.796875 0.484375 2.703125 1.015625q0.921875 0.515625 1.390625 1.25q0.46875 0.734375 0.46875 1.71875q0 1.5625 -1.25 2.515625q-1.25 0.953125 -3.3125 0.953125q-1.390625 0 -2.5625 -0.5q-1.171875 -0.5 -1.78125 -1.40625q-0.609375 -0.90625 -0.609375 -2.078125l1.125 0q0 1.40625 1.046875 2.21875q1.046875 0.8125 2.78125 0.8125q1.5625 0 2.5 -0.671875q0.9375 -0.6875 0.9375 -1.828125zm7.096695 3.453125q-1.25 0 -2.265625 -0.625q-1.015625 -0.625 -1.59375 -1.71875q-0.5625 -1.109375 -0.5625 -2.484375l0 -0.390625q0 -1.421875 0.546875 -2.5625q0.5625 -1.140625 1.546875 -1.78125q0.984375 -0.65625 2.125 -0.65625q1.796875 0 2.84375 1.21875q1.0625 1.21875 1.0625 3.34375l0 0.609375l-7.03125 0l0 0.21875q0 1.671875 0.953125 2.796875q0.96875 1.109375 2.421875 1.109375q0.875 0 1.546875 -0.3125q0.671875 -0.328125 1.21875 -1.03125l0.6875 0.515625q-1.203125 1.75 -3.5 1.75zm-0.203125 -9.296875q-1.21875 0 -2.0625 0.90625q-0.84375 0.890625 -1.03125 2.421875l5.921875 0l0 -0.125q-0.046875 -1.421875 -0.8125 -2.3125q-0.765625 -0.890625 -2.015625 -0.890625zm7.059723 -0.75l0.046875 1.6875q0.546875 -0.90625 1.375 -1.375q0.828125 -0.484375 1.84375 -0.484375q1.578125 0 2.34375 0.890625q0.78125 0.890625 0.796875 2.671875l0 6.46875l-1.09375 0l0 -6.484375q0 -1.3125 -0.5625 -1.953125q-0.546875 -0.65625 -1.75 -0.65625q-1.015625 0 -1.796875 0.640625q-0.78125 0.625 -1.15625 1.703125l0 6.75l-1.078125 0l0 -9.859375l1.03125 0zm10.904434 -2.515625l0 2.515625l2.046875 0l0 0.890625l-2.046875 0l0 6.578125q0 0.8125 0.296875 1.21875q0.296875 0.390625 1.0 0.390625q0.265625 0 0.875 -0.078125l0.046875 0.890625q-0.421875 0.15625 -1.171875 0.15625q-1.109375 0 -1.625 -0.65625q-0.515625 -0.65625 -0.515625 -1.921875l0 -6.578125l-1.8125 0l0 -0.890625l1.8125 0l0 -2.515625l1.09375 0zm10.530579 0l0 2.515625l2.046875 0l0 0.890625l-2.046875 0l0 6.578125q0 0.8125 0.296875 1.21875q0.296875 0.390625 1.0 0.390625q0.265625 0 0.875 -0.078125l0.046875 0.890625q-0.421875 0.15625 -1.171875 0.15625q-1.109375 0 -1.625 -0.65625q-0.515625 -0.65625 -0.515625 -1.921875l0 -6.578125l-1.8125 0l0 -0.890625l1.8125 0l0 -2.515625l1.09375 0zm3.5148773 7.296875q0 -1.421875 0.546875 -2.546875q0.5625 -1.140625 1.5625 -1.765625q1.015625 -0.640625 2.28125 -0.640625q1.96875 0 3.1875 1.375q1.234375 1.375 1.234375 3.65625l0 0.234375q0 1.421875 -0.5625 2.5625q-0.546875 1.140625 -1.546875 1.765625q-1.0 0.625 -2.28125 0.625q-1.96875 0 -3.203125 -1.375q-1.21875 -1.390625 -1.21875 -3.671875l0 -0.21875zm1.09375 0.3125q0 1.765625 0.921875 2.90625q0.921875 1.125 2.40625 1.125q1.46875 0 2.375 -1.125q0.921875 -1.140625 0.921875 -3.0l0 -0.21875q0 -1.125 -0.421875 -2.0625q-0.40625 -0.9375 -1.171875 -1.453125q-0.75 -0.515625 -1.734375 -0.515625q-1.453125 0 -2.375 1.140625q-0.921875 1.140625 -0.921875 3.0l0 0.203125zm15.891373 3.8125l6.546875 0l0 0.953125l-7.6875 0l0 -13.265625l1.140625 0l0 12.3125zm9.657272 0.953125l-1.09375 0l0 -9.859375l1.09375 0l0 9.859375zm-1.28125 -12.703125q0 -0.3125 0.203125 -0.53125q0.203125 -0.21875 0.546875 -0.21875q0.34375 0 0.546875 0.21875q0.203125 0.21875 0.203125 0.53125q0 0.3125 -0.203125 0.515625q-0.203125 0.203125 -0.546875 0.203125q-0.34375 0 -0.546875 -0.203125q-0.203125 -0.203125 -0.203125 -0.515625zm3.8062592 7.6875q0 -2.3125 1.015625 -3.65625q1.03125 -1.359375 2.796875 -1.359375q2.015625 0 3.0625 1.59375l0.046875 -1.421875l1.015625 0l0 9.65625q0 1.90625 -1.0625 3.015625q-1.0625 1.109375 -2.890625 1.109375q-1.03125 0 -1.96875 -0.46875q-0.921875 -0.453125 -1.453125 -1.21875l0.609375 -0.65625q1.15625 1.421875 2.75 1.421875q1.359375 0 2.125 -0.8125q0.765625 -0.796875 0.796875 -2.21875l0 -1.25q-1.046875 1.46875 -3.0625 1.46875q-1.703125 0 -2.75 -1.359375q-1.03125 -1.375 -1.03125 -3.703125l0 -0.140625zm1.109375 0.1875q0 1.890625 0.75 2.984375q0.75 1.078125 2.125 1.078125q2.015625 0 2.859375 -1.796875l0 -4.59375q-0.390625 -0.9375 -1.109375 -1.4375q-0.71875 -0.5 -1.734375 -0.5q-1.375 0 -2.140625 1.078125q-0.75 1.078125 -0.75 3.1875zm10.754639 -3.359375q0.546875 -0.890625 1.375 -1.359375q0.84375 -0.484375 1.84375 -0.484375q1.578125 0 2.34375 0.890625q0.78125 0.890625 0.796875 2.671875l0 6.46875l-1.09375 0l0 -6.484375q0 -1.3125 -0.5625 -1.953125q-0.546875 -0.65625 -1.75 -0.65625q-1.015625 0 -1.796875 0.640625q-0.78125 0.625 -1.15625 1.703125l0 6.75l-1.078125 0l0 -14.0l1.078125 0l0 5.8125zm10.84845 -4.1875l0 2.515625l2.046875 0l0 0.890625l-2.046875 0l0 6.578125q0 0.8125 0.296875 1.21875q0.296875 0.390625 1.0 0.390625q0.265625 0 0.875 -0.078125l0.046875 0.890625q-0.421875 0.15625 -1.171875 0.15625q-1.109375 0 -1.625 -0.65625q-0.515625 -0.65625 -0.515625 -1.921875l0 -6.578125l-1.8125 0l0 -0.890625l1.8125 0l0 -2.515625l1.09375 0zm18.483704 8.234375q-0.21875 2.09375 -1.5 3.21875q-1.265625 1.109375 -3.375 1.109375q-1.484375 0 -2.625 -0.734375q-1.125 -0.75 -1.75 -2.09375q-0.609375 -1.359375 -0.625 -3.09375l0 -1.71875q0 -1.78125 0.625 -3.140625q0.625 -1.359375 1.78125 -2.109375q1.15625 -0.75 2.671875 -0.75q2.140625 0 3.375 1.15625q1.234375 1.15625 1.421875 3.1875l-1.125 0q-0.421875 -3.375 -3.671875 -3.375q-1.796875 0 -2.875 1.34375q-1.0625 1.34375 -1.0625 3.71875l0 1.625q0 2.296875 1.03125 3.671875q1.046875 1.359375 2.828125 1.359375q1.75 0 2.640625 -0.84375q0.90625 -0.84375 1.109375 -2.53125l1.125 0zm3.693756 4.140625l-1.09375 0l0 -14.0l1.09375 0l0 14.0zm4.181259 0l-1.09375 0l0 -9.859375l1.09375 0l0 9.859375zm-1.28125 -12.703125q0 -0.3125 0.203125 -0.53125q0.203125 -0.21875 0.546875 -0.21875q0.34375 0 0.546875 0.21875q0.203125 0.21875 0.203125 0.53125q0 0.3125 -0.203125 0.515625q-0.203125 0.203125 -0.546875 0.203125q-0.34375 0 -0.546875 -0.203125q-0.203125 -0.203125 -0.203125 -0.515625zm8.056259 12.890625q-1.25 0 -2.265625 -0.625q-1.015625 -0.625 -1.59375 -1.71875q-0.5625 -1.109375 -0.5625 -2.484375l0 -0.390625q0 -1.421875 0.546875 -2.5625q0.5625 -1.140625 1.546875 -1.78125q0.984375 -0.65625 2.125 -0.65625q1.796875 0 2.84375 1.21875q1.0625 1.21875 1.0625 3.34375l0 0.609375l-7.03125 0l0 0.21875q0 1.671875 0.953125 2.796875q0.96875 1.109375 2.421875 1.109375q0.875 0 1.546875 -0.3125q0.671875 -0.328125 1.21875 -1.03125l0.6875 0.515625q-1.203125 1.75 -3.5 1.75zm-0.203125 -9.296875q-1.21875 0 -2.0625 0.90625q-0.84375 0.890625 -1.03125 2.421875l5.921875 0l0 -0.125q-0.046875 -1.421875 -0.8125 -2.3125q-0.765625 -0.890625 -2.015625 -0.890625zm7.059723 -0.75l0.046875 1.6875q0.546875 -0.90625 1.375 -1.375q0.828125 -0.484375 1.84375 -0.484375q1.578125 0 2.34375 0.890625q0.78125 0.890625 0.796875 2.671875l0 6.46875l-1.09375 0l0 -6.484375q0 -1.3125 -0.5625 -1.953125q-0.546875 -0.65625 -1.75 -0.65625q-1.015625 0 -1.796875 0.640625q-0.78125 0.625 -1.15625 1.703125l0 6.75l-1.078125 0l0 -9.859375l1.03125 0zm10.904434 -2.515625l0 2.515625l2.046875 0l0 0.890625l-2.046875 0l0 6.578125q0 0.8125 0.296875 1.21875q0.296875 0.390625 1.0 0.390625q0.265625 0 0.875 -0.078125l0.046875 0.890625q-0.421875 0.15625 -1.171875 0.15625q-1.109375 0 -1.625 -0.65625q-0.515625 -0.65625 -0.515625 -1.921875l0 -6.578125l-1.8125 0l0 -0.890625l1.8125 0l0 -2.515625l1.09375 0z" fill-rule="nonzero"/><path fill="#000000" fill-opacity="0.0" d="m48.51057 3.4593177l266.23624 0l0 33.826775l-266.23624 0z" fill-rule="evenodd"/><path fill="#ffffff" d="m66.69807 24.027077q0 -1.09375 -0.78125 -1.734375q-0.765625 -0.640625 -2.8281212 -1.21875q-2.0625 -0.59375 -3.015625 -1.265625q-1.34375 -0.96875 -1.34375 -2.53125q0 -1.531251 1.25 -2.484376q1.25 -0.953125 3.203125 -0.953125q1.3281212 0 2.3593712 0.515625q1.046875 0.515625 1.625 1.421875q0.578125 0.90625095 0.578125 2.031251l-1.140625 0q0 -1.359375 -0.9375 -2.171876q-0.921875 -0.828125 -2.4843712 -0.828125q-1.515625 0 -2.421875 0.6875q-0.90625 0.67187595 -0.90625 1.765626q0 1.0 0.8125 1.640625q0.8125 0.640625 2.59375 1.125q1.7968712 0.484375 2.7031212 1.015625q0.921875 0.515625 1.390625 1.25q0.46875 0.734375 0.46875 1.71875q0 1.5625 -1.25 2.515625q-1.25 0.953125 -3.3124962 0.953125q-1.390625 0 -2.5625 -0.5q-1.171875 -0.5 -1.78125 -1.40625q-0.609375 -0.90625 -0.609375 -2.078125l1.125 0q0 1.40625 1.046875 2.21875q1.046875 0.8125 2.78125 0.8125q1.5624962 0 2.4999962 -0.671875q0.9375 -0.6875 0.9375 -1.828125zm4.971695 -9.109376l0 2.515626l2.046875 0l0 0.890625l-2.046875 0l0 6.578125q0 0.8125 0.296875 1.21875q0.296875 0.390625 1.0 0.390625q0.265625 0 0.875 -0.078125l0.046875 0.890625q-0.421875 0.15625 -1.171875 0.15625q-1.109375 0 -1.625 -0.65625q-0.515625 -0.65625 -0.515625 -1.921875l0 -6.578125l-1.8125 0l0 -0.890625l1.8125 0l0 -2.515626l1.09375 0zm3.5148773 7.296876q0 -1.421875 0.546875 -2.546875q0.5625 -1.140625 1.5625 -1.765625q1.015625 -0.640625 2.28125 -0.640625q1.96875 0 3.1875 1.375q1.234375 1.375 1.234375 3.65625l0 0.234375q0 1.421875 -0.5625 2.5625q-0.546875 1.140625 -1.546875 1.765625q-1.0 0.625 -2.28125 0.625q-1.96875 0 -3.203125 -1.375q-1.21875 -1.390625 -1.21875 -3.671875l0 -0.21875zm1.09375 0.3125q0 1.765625 0.921875 2.90625q0.921875 1.125 2.40625 1.125q1.46875 0 2.375 -1.125q0.921875 -1.140625 0.921875 -3.0l0 -0.21875q0 -1.125 -0.421875 -2.0625q-0.40625 -0.9375 -1.171875 -1.453125q-0.75 -0.515625 -1.734375 -0.515625q-1.453125 0 -2.375 1.140625q-0.921875 1.140625 -0.921875 3.0l0 0.203125zm14.511093 -4.15625q-0.34375 -0.0625 -0.734375 -0.0625q-1.015625 0 -1.71875 0.5625q-0.703125 0.5625 -1.015625 1.65625l0 6.765625l-1.078125 0l0 -9.859375l1.0625 0l0.015625 1.5625q0.875 -1.734375 2.78125 -1.734375q0.453125 0 0.71875 0.109375l-0.03125 1.0zm7.58374 8.921875q-0.15625 -0.46875 -0.203125 -1.375q-0.578125 0.75 -1.46875 1.15625q-0.890625 0.40625 -1.875 0.40625q-1.421875 0 -2.3125 -0.796875q-0.875 -0.796875 -0.875 -2.0q0 -1.4375 1.203125 -2.28125q1.203125 -0.84375 3.34375 -0.84375l1.96875 0l0 -1.109375q0 -1.0625 -0.65625 -1.671875q-0.640625 -0.609375 -1.890625 -0.609375q-1.140625 0 -1.890625 0.59375q-0.75 0.578125 -0.75 1.40625l-1.09375 -0.015625q0 -1.171875 1.09375 -2.03125q1.09375 -0.859375 2.6875 -0.859375q1.65625 0 2.609375 0.828125q0.953125 0.8125 0.984375 2.28125l0 4.671875q0 1.4375 0.296875 2.140625l0 0.109375l-1.171875 0zm-3.421875 -0.78125q1.09375 0 1.953125 -0.53125q0.859375 -0.53125 1.25 -1.40625l0 -2.171875l-1.953125 0q-1.625 0.015625 -2.546875 0.59375q-0.921875 0.578125 -0.921875 1.59375q0 0.828125 0.609375 1.375q0.625 0.546875 1.609375 0.546875zm6.7587433 -4.234375q0 -2.3125 1.015625 -3.65625q1.03125 -1.359375 2.796875 -1.359375q2.015625 0 3.0625 1.59375l0.046875 -1.421875l1.015625 0l0 9.65625q0 1.90625 -1.0625 3.015625q-1.0625 1.109375 -2.890625 1.109375q-1.03125 0 -1.96875 -0.46875q-0.921875 -0.453125 -1.453125 -1.21875l0.609375 -0.65625q1.15625 1.421875 2.75 1.421875q1.359375 0 2.125 -0.8125q0.765625 -0.796875 0.796875 -2.21875l0 -1.25q-1.046875 1.46875 -3.0625 1.46875q-1.703125 0 -2.75 -1.359375q-1.03125 -1.375 -1.03125 -3.703125l0 -0.140625zm1.109375 0.1875q0 1.890625 0.75 2.984375q0.75 1.078125 2.125 1.078125q2.015625 0 2.859375 -1.796875l0 -4.59375q-0.390625 -0.9375 -1.109375 -1.4375q-0.71875 -0.5 -1.734375 -0.5q-1.375 0 -2.140625 1.078125q-0.75 1.078125 -0.75 3.1875zm13.489014 5.015625q-1.25 0 -2.265625 -0.625q-1.015625 -0.625 -1.59375 -1.71875q-0.5625 -1.109375 -0.5625 -2.484375l0 -0.390625q0 -1.421875 0.546875 -2.5625q0.5625 -1.140625 1.546875 -1.78125q0.984375 -0.65625 2.125 -0.65625q1.796875 0 2.84375 1.21875q1.0625 1.21875 1.0625 3.34375l0 0.609375l-7.03125 0l0 0.21875q0 1.671875 0.953125 2.796875q0.96875 1.109375 2.421875 1.109375q0.875 0 1.546875 -0.3125q0.671875 -0.328125 1.21875 -1.03125l0.6875 0.515625q-1.203125 1.75 -3.5 1.75zm-0.203125 -9.296875q-1.21875 0 -2.0625 0.90625q-0.84375 0.890625 -1.03125 2.421875l5.921875 0l0 -0.125q-0.046875 -1.421875 -0.8125 -2.3125q-0.765625 -0.890625 -2.015625 -0.890625zm15.768135 3.59375l-3.84375 0l0 5.515625l-1.1250076 0l0 -13.265626l4.2968826 0q2.125 0 3.3125 1.03125q1.203125 1.031251 1.203125 2.875001q0 1.28125 -0.75 2.265625q-0.75 0.96875 -2.0 1.34375l3.3125 5.625l0 0.125l-1.1875 0l-3.21875 -5.515625zm-3.84375 -0.96875l3.4375 0q1.40625 0 2.265625 -0.796875q0.859375 -0.796875 0.859375 -2.078125q0 -1.40625 -0.90625 -2.171876q-0.890625 -0.78125 -2.5 -0.78125l-3.15625 0l0 5.828126zm14.295471 6.671875q-1.25 0 -2.265625 -0.625q-1.015625 -0.625 -1.59375 -1.71875q-0.5625 -1.109375 -0.5625 -2.484375l0 -0.390625q0 -1.421875 0.546875 -2.5625q0.5625 -1.140625 1.546875 -1.78125q0.984375 -0.65625 2.125 -0.65625q1.796875 0 2.84375 1.21875q1.0625 1.21875 1.0625 3.34375l0 0.609375l-7.03125 0l0 0.21875q0 1.671875 0.953125 2.796875q0.96875 1.109375 2.421875 1.109375q0.875 0 1.546875 -0.3125q0.671875 -0.328125 1.21875 -1.03125l0.6875 0.515625q-1.203125 1.75 -3.5 1.75zm-0.203125 -9.296875q-1.21875 0 -2.0625 0.90625q-0.84375 0.890625 -1.03125 2.421875l5.921875 0l0 -0.125q-0.046875 -1.421875 -0.8125 -2.3125q-0.765625 -0.890625 -2.015625 -0.890625zm12.247223 9.109375q-0.15625 -0.46875 -0.203125 -1.375q-0.578125 0.75 -1.46875 1.15625q-0.890625 0.40625 -1.875 0.40625q-1.421875 0 -2.3125 -0.796875q-0.875 -0.796875 -0.875 -2.0q0 -1.4375 1.203125 -2.28125q1.203125 -0.84375 3.34375 -0.84375l1.96875 0l0 -1.109375q0 -1.0625 -0.65625 -1.671875q-0.640625 -0.609375 -1.890625 -0.609375q-1.140625 0 -1.890625 0.59375q-0.75 0.578125 -0.75 1.40625l-1.09375 -0.015625q0 -1.171875 1.09375 -2.03125q1.09375 -0.859375 2.6875 -0.859375q1.65625 0 2.609375 0.828125q0.953125 0.8125 0.984375 2.28125l0 4.671875q0 1.4375 0.296875 2.140625l0 0.109375l-1.171875 0zm-3.421875 -0.78125q1.09375 0 1.953125 -0.53125q0.859375 -0.53125 1.25 -1.40625l0 -2.171875l-1.953125 0q-1.625 0.015625 -2.546875 0.59375q-0.921875 0.578125 -0.921875 1.59375q0 0.828125 0.609375 1.375q0.625 0.546875 1.609375 0.546875zm6.7587433 -4.234375q0 -2.296875 1.015625 -3.65625q1.03125 -1.359375 2.796875 -1.359375q1.984375 0 3.03125 1.5625l0 -5.531251l1.09375 0l0 14.000001l-1.03125 0l-0.03125 -1.3125q-1.046875 1.5 -3.09375 1.5q-1.703125 0 -2.75 -1.375q-1.03125 -1.375 -1.03125 -3.703125l0 -0.125zm1.109375 0.1875q0 1.890625 0.75 2.984375q0.75 1.078125 2.125 1.078125q2.015625 0 2.859375 -1.78125l0 -4.625q-0.84375 -1.921875 -2.84375 -1.921875q-1.375 0 -2.140625 1.078125q-0.75 1.078125 -0.75 3.1875zm22.168762 0q0 2.3125 -1.03125 3.671875q-1.015625 1.34375 -2.734375 1.34375q-2.0625 0 -3.109375 -1.53125l-0.046875 1.34375l-1.03125 0l0 -14.000001l1.09375 0l0 5.578126q1.03125 -1.609375 3.078125 -1.609375q1.75 0 2.765625 1.328125q1.015625 1.328125 1.015625 3.71875l0 0.15625zm-1.09375 -0.1875q0 -1.953125 -0.765625 -3.015625q-0.75 -1.0625 -2.125 -1.0625q-1.046875 0 -1.78125 0.515625q-0.71875 0.515625 -1.09375 1.515625l0 4.4375q0.8125 1.859375 2.890625 1.859375q1.34375 0 2.109375 -1.0625q0.765625 -1.0625 0.765625 -3.1875zm6.5202637 3.453125l2.875 -8.296875l1.171875 0l-4.203125 11.53125l-0.21875 0.515625q-0.8125 1.796875 -2.5 1.796875q-0.390625 0 -0.84375 -0.125l-0.015625 -0.90625l0.578125 0.046875q0.796875 0 1.28125 -0.390625q0.5 -0.390625 0.859375 -1.359375l0.484375 -1.328125l-3.71875 -9.78125l1.1875 0l3.0625 8.296875zm17.83757 -4.625l-6.1875 0l0 6.1875l-1.125 0l0 -13.265626l8.21875 0l0 0.953125l-7.09375 0l0 5.156251l6.1875 0l0 0.96875zm9.074875 4.9375q-0.984375 1.4375 -3.140625 1.4375q-1.578125 0 -2.40625 -0.921875q-0.8125 -0.921875 -0.828125 -2.703125l0 -6.421875l1.078125 0l0 6.28125q0 2.8125 2.28125 2.8125q2.359375 0 3.0 -1.953125l0 -7.140625l1.09375 0l0 9.859375l-1.0625 0l-0.015625 -1.25zm5.123184 1.25l-1.09375 0l0 -14.000001l1.09375 0l0 14.000001zm4.181259 0l-1.09375 0l0 -14.000001l1.09375 0l0 14.000001zm17.624039 0l-1.109375 0l-7.625 -11.343751l0 11.343751l-1.140625 0l0 -13.265626l1.140625 0l7.625 11.359376l0 -11.359376l1.109375 0l0 13.265626zm2.5108337 -5.078125q0 -1.421875 0.546875 -2.546875q0.5625 -1.140625 1.5625 -1.765625q1.015625 -0.640625 2.28125 -0.640625q1.96875 0 3.1875 1.375q1.234375 1.375 1.234375 3.65625l0 0.234375q0 1.421875 -0.5625 2.5625q-0.546875 1.140625 -1.546875 1.765625q-1.0 0.625 -2.28125 0.625q-1.96875 0 -3.203125 -1.375q-1.21875 -1.390625 -1.21875 -3.671875l0 -0.21875zm1.09375 0.3125q0 1.765625 0.921875 2.90625q0.921875 1.125 2.40625 1.125q1.46875 0 2.375 -1.125q0.921875 -1.140625 0.921875 -3.0l0 -0.21875q0 -1.125 -0.421875 -2.0625q-0.40625 -0.9375 -1.171875 -1.453125q-0.75 -0.515625 -1.734375 -0.515625q-1.453125 0 -2.375 1.140625q-0.921875 1.140625 -0.921875 3.0l0 0.203125zm9.526718 -0.25q0 -2.296875 1.015625 -3.65625q1.03125 -1.359375 2.796875 -1.359375q1.984375 0 3.03125 1.5625l0 -5.531251l1.09375 0l0 14.000001l-1.03125 0l-0.03125 -1.3125q-1.046875 1.5 -3.09375 1.5q-1.703125 0 -2.75 -1.375q-1.03125 -1.375 -1.03125 -3.703125l0 -0.125zm1.109375 0.1875q0 1.890625 0.75 2.984375q0.75 1.078125 2.125 1.078125q2.015625 0 2.859375 -1.78125l0 -4.625q-0.84375 -1.921875 -2.84375 -1.921875q-1.375 0 -2.140625 1.078125q-0.75 1.078125 -0.75 3.1875zm13.507233 5.015625q-1.25 0 -2.265625 -0.625q-1.015625 -0.625 -1.59375 -1.71875q-0.5625 -1.109375 -0.5625 -2.484375l0 -0.390625q0 -1.421875 0.546875 -2.5625q0.5625 -1.140625 1.546875 -1.78125q0.984375 -0.65625 2.125 -0.65625q1.796875 0 2.84375 1.21875q1.0625 1.21875 1.0625 3.34375l0 0.609375l-7.03125 0l0 0.21875q0 1.671875 0.953125 2.796875q0.96875 1.109375 2.421875 1.109375q0.875 0 1.546875 -0.3125q0.671875 -0.328125 1.21875 -1.03125l0.6875 0.515625q-1.203125 1.75 -3.5 1.75zm-0.203125 -9.296875q-1.21875 0 -2.0625 0.90625q-0.84375 0.890625 -1.03125 2.421875l5.921875 0l0 -0.125q-0.046875 -1.421875 -0.8125 -2.3125q-0.765625 -0.890625 -2.015625 -0.890625z" fill-rule="nonzero"/><path fill="#000000" fill-opacity="0.0" d="m21.720472 20.409449l25.102362 0" fill-rule="evenodd"/><path stroke="#ffffff" stroke-width="1.0" stroke-linejoin="round" stroke-linecap="butt" d="m21.720472 20.409449l25.102362 0" fill-rule="evenodd"/><path fill="#000000" fill-opacity="0.0" d="m21.720472 100.40945l25.102362 0" fill-rule="evenodd"/><path stroke="#ffffff" stroke-width="1.0" stroke-linejoin="round" stroke-linecap="butt" stroke-dasharray="8.0,3.0,1.0,3.0" d="m21.720472 100.40945l25.102362 0" fill-rule="evenodd"/><path fill="#000000" fill-opacity="0.0" d="m518.092 108.833206l51.40161 46.29921" fill-rule="evenodd"/><path stroke="#ffffff" stroke-width="1.0" stroke-linejoin="round" stroke-linecap="butt" d="m518.092 108.83321l46.94348 42.283607" fill-rule="evenodd"/><path fill="#ffffff" stroke="#ffffff" stroke-width="1.0" stroke-linecap="butt" d="m563.93 152.3441l4.477356 1.8099213l-2.2664795 -4.2644653z" fill-rule="evenodd"/><path fill="#000000" fill-opacity="0.0" d="m581.9586 167.57336l18.48816 64.62991" fill-rule="evenodd"/><path stroke="#ffffff" stroke-width="1.0" stroke-linejoin="round" stroke-linecap="butt" d="m581.9586 167.57336l16.838013 58.861313" fill-rule="evenodd"/><path fill="#ffffff" stroke="#ffffff" stroke-width="1.0" stroke-linecap="butt" d="m597.2086 226.88895l2.8361206 3.9088135l0.3399048 -4.8173676z" fill-rule="evenodd"/><path fill="#000000" fill-opacity="0.0" d="m612.9153 244.6731l3.2755737 52.850403" fill-rule="evenodd"/><path stroke="#ffffff" stroke-width="1.0" stroke-linejoin="round" stroke-linecap="butt" d="m612.9153 244.67311l2.90448 46.861862" fill-rule="evenodd"/><path fill="#ffffff" stroke="#ffffff" stroke-width="1.0" stroke-linecap="butt" d="m614.1712 291.63718l1.9292603 4.4272156l1.3678589 -4.631592z" fill-rule="evenodd"/><path fill="#000000" fill-opacity="0.0" d="m628.65857 309.96445l236.0 62.11023" fill-rule="evenodd"/><path stroke="#ffffff" stroke-width="1.0" stroke-linejoin="round" stroke-linecap="butt" d="m628.65857 309.96445l230.19757 60.58316" fill-rule="evenodd"/><path fill="#ffffff" stroke="#ffffff" stroke-width="1.0" stroke-linecap="butt" d="m858.4357 372.14496l4.809082 -0.4423523l-3.9683228 -2.7523499z" fill-rule="evenodd"/><path fill="#000000" fill-opacity="0.0" d="m832.72046 372.08517l-204.06305 -62.11023" fill-rule="evenodd"/><path stroke="#434343" stroke-width="1.0" stroke-linejoin="round" stroke-linecap="butt" d="m832.72046 372.08517l-204.06305 -62.11023" fill-rule="evenodd"/><path fill="#434343" d="m584.2677 285.05106l24.913391 0l0 24.913391l-24.913391 0z" fill-rule="evenodd"/><path stroke="#434343" stroke-width="1.0" stroke-linejoin="round" stroke-linecap="butt" d="m584.2677 285.05106l24.913391 0l0 24.913391l-24.913391 0z" fill-rule="evenodd"/><path fill="#000000" fill-opacity="0.0" d="m392.66272 41.24147l112.97638 55.149605" fill-rule="evenodd"/><path stroke="#ffffff" stroke-width="1.0" stroke-linejoin="round" stroke-linecap="butt" d="m392.66272 41.24147l107.58453 52.517555" fill-rule="evenodd"/><path fill="#ffffff" stroke="#ffffff" stroke-width="1.0" stroke-linecap="butt" d="m499.52267 95.24335l4.802704 0.5064316l-3.3535767 -3.4750748z" fill-rule="evenodd"/><path fill="#6fa8dc" d="m380.20602 16.328083l24.913391 0l0 24.913387l-24.913391 0z" fill-rule="evenodd"/><path stroke="#ffffff" stroke-width="1.0" stroke-linejoin="round" stroke-linecap="butt" d="m380.20602 16.328083l24.913391 0l0 24.913387l-24.913391 0z" fill-rule="evenodd"/><path fill="#000000" fill-opacity="0.0" d="m48.510555 83.45932l257.5118 0l0 33.826767l-257.5118 0z" fill-rule="evenodd"/><path fill="#ffffff" d="m68.57306 103.15208q-0.21875 2.09375 -1.5 3.21875q-1.265625 1.109375 -3.3750038 1.109375q-1.484375 0 -2.625 -0.734375q-1.125 -0.75 -1.75 -2.09375q-0.609375 -1.359375 -0.625 -3.09375l0 -1.71875q0 -1.78125 0.625 -3.140625q0.625 -1.359375 1.78125 -2.109375q1.15625 -0.75 2.671875 -0.75q2.1406288 0 3.3750038 1.15625q1.234375 1.15625 1.421875 3.1875l-1.125 0q-0.421875 -3.375 -3.6718788 -3.375q-1.796875 0 -2.875 1.34375q-1.0625 1.34375 -1.0625 3.71875l0 1.625q0 2.296875 1.03125 3.671875q1.046875 1.359375 2.828125 1.359375q1.7500038 0 2.6406288 -0.84375q0.90625 -0.84375 1.109375 -2.53125l1.125 0zm1.8656311 -0.9375q0 -1.421875 0.546875 -2.546875q0.5625 -1.140625 1.5625 -1.765625q1.015625 -0.640625 2.28125 -0.640625q1.96875 0 3.1875 1.375q1.234375 1.375 1.234375 3.65625l0 0.234375q0 1.421875 -0.5625 2.5625q-0.546875 1.140625 -1.546875 1.765625q-1.0 0.625 -2.28125 0.625q-1.96875 0 -3.203125 -1.375q-1.21875 -1.390625 -1.21875 -3.671875l0 -0.21875zm1.09375 0.3125q0 1.765625 0.921875 2.90625q0.921875 1.125 2.40625 1.125q1.46875 0 2.375 -1.125q0.921875 -1.140625 0.921875 -3.0l0 -0.21875q0 -1.125 -0.421875 -2.0625q-0.40625 -0.9375 -1.171875 -1.453125q-0.75 -0.515625 -1.734375 -0.515625q-1.453125 0 -2.375 1.140625q-0.921875 1.140625 -0.921875 3.0l0 0.203125zm10.948593 -5.09375l0.046875 1.609375q0.546875 -0.890625 1.359375 -1.328125q0.828125 -0.453125 1.828125 -0.453125q2.328125 0 2.953125 1.90625q0.53125 -0.921875 1.40625 -1.40625q0.890625 -0.5 1.953125 -0.5q3.171875 0 3.234375 3.453125l0 6.578125l-1.09375 0l0 -6.5q0 -1.3125 -0.5625 -1.953125q-0.5625 -0.640625 -1.828125 -0.640625q-1.171875 0.015625 -1.984375 0.765625q-0.8125 0.734375 -0.90625 1.8125l0 6.515625l-1.09375 0l0 -6.578125q0 -1.265625 -0.59375 -1.890625q-0.578125 -0.625 -1.8125 -0.625q-1.015625 0 -1.765625 0.59375q-0.734375 0.578125 -1.09375 1.734375l0 6.765625l-1.09375 0l0 -9.859375l1.046875 0zm23.471237 5.03125q0 2.3125 -1.015625 3.671875q-1.015625 1.34375 -2.734375 1.34375q-2.015625 0 -3.09375 -1.421875l0 5.03125l-1.09375 0l0 -13.65625l1.015625 0l0.0625 1.390625q1.0625 -1.5625 3.078125 -1.5625q1.765625 0 2.765625 1.34375q1.015625 1.328125 1.015625 3.703125l0 0.15625zm-1.09375 -0.1875q0 -1.890625 -0.78125 -2.984375q-0.765625 -1.09375 -2.15625 -1.09375q-1.0 0 -1.71875 0.484375q-0.71875 0.484375 -1.09375 1.40625l0 4.71875q0.390625 0.859375 1.109375 1.3125q0.734375 0.4375 1.734375 0.4375q1.375 0 2.140625 -1.09375q0.765625 -1.109375 0.765625 -3.1875zm9.854904 3.765625q-0.984375 1.4375 -3.140625 1.4375q-1.578125 0 -2.40625 -0.921875q-0.8125 -0.921875 -0.828125 -2.703125l0 -6.421875l1.078125 0l0 6.28125q0 2.8125 2.28125 2.8125q2.359375 0 3.0 -1.953125l0 -7.140625l1.09375 0l0 9.859375l-1.0625 0l-0.015625 -1.25zm5.591934 -11.125l0 2.515625l2.046875 0l0 0.890625l-2.046875 0l0 6.578125q0 0.8125 0.296875 1.21875q0.296875 0.390625 1.0 0.390625q0.265625 0 0.875 -0.078125l0.046875 0.890625q-0.421875 0.15625 -1.171875 0.15625q-1.109375 0 -1.625 -0.65625q-0.515625 -0.65625 -0.515625 -1.921875l0 -6.578125l-1.8125 0l0 -0.890625l1.8125 0l0 -2.515625l1.09375 0zm10.525299 12.375q-0.15625 -0.46875 -0.203125 -1.375q-0.578125 0.75 -1.46875 1.15625q-0.890625 0.40625 -1.875 0.40625q-1.421875 0 -2.3125 -0.796875q-0.875 -0.796875 -0.875 -2.0q0 -1.4375 1.203125 -2.28125q1.203125 -0.84375 3.34375 -0.84375l1.96875 0l0 -1.109375q0 -1.0625 -0.65625 -1.671875q-0.640625 -0.609375 -1.890625 -0.609375q-1.140625 0 -1.890625 0.59375q-0.75 0.578125 -0.75 1.40625l-1.09375 -0.015625q0 -1.171875 1.09375 -2.03125q1.09375 -0.859375 2.6875 -0.859375q1.65625 0 2.609375 0.828125q0.953125 0.8125 0.984375 2.28125l0 4.671875q0 1.4375 0.296875 2.140625l0 0.109375l-1.171875 0zm-3.421875 -0.78125q1.09375 0 1.953125 -0.53125q0.859375 -0.53125 1.25 -1.40625l0 -2.171875l-1.953125 0q-1.625 0.015625 -2.546875 0.59375q-0.921875 0.578125 -0.921875 1.59375q0 0.828125 0.609375 1.375q0.625 0.546875 1.609375 0.546875zm8.883743 -11.59375l0 2.515625l2.046875 0l0 0.890625l-2.046875 0l0 6.578125q0 0.8125 0.296875 1.21875q0.296875 0.390625 1.0 0.390625q0.265625 0 0.875 -0.078125l0.046875 0.890625q-0.421875 0.15625 -1.171875 0.15625q-1.109375 0 -1.625 -0.65625q-0.515625 -0.65625 -0.515625 -1.921875l0 -6.578125l-1.8125 0l0 -0.890625l1.8125 0l0 -2.515625l1.09375 0zm5.525299 12.375l-1.09375 0l0 -9.859375l1.09375 0l0 9.859375zm-1.28125 -12.703125q0 -0.3125 0.203125 -0.53125q0.203125 -0.21875 0.546875 -0.21875q0.34375 0 0.546875 0.21875q0.203125 0.21875 0.203125 0.53125q0 0.3125 -0.203125 0.515625q-0.203125 0.203125 -0.546875 0.203125q-0.34375 0 -0.546875 -0.203125q-0.203125 -0.203125 -0.203125 -0.515625zm3.6343842 7.625q0 -1.421875 0.546875 -2.546875q0.5625 -1.140625 1.5625 -1.765625q1.015625 -0.640625 2.28125 -0.640625q1.96875 0 3.1875 1.375q1.234375 1.375 1.234375 3.65625l0 0.234375q0 1.421875 -0.5625 2.5625q-0.546875 1.140625 -1.546875 1.765625q-1.0 0.625 -2.28125 0.625q-1.96875 0 -3.203125 -1.375q-1.21875 -1.390625 -1.21875 -3.671875l0 -0.21875zm1.09375 0.3125q0 1.765625 0.921875 2.90625q0.921875 1.125 2.40625 1.125q1.46875 0 2.375 -1.125q0.921875 -1.140625 0.921875 -3.0l0 -0.21875q0 -1.125 -0.421875 -2.0625q-0.40625 -0.9375 -1.171875 -1.453125q-0.75 -0.515625 -1.734375 -0.515625q-1.453125 0 -2.375 1.140625q-0.921875 1.140625 -0.921875 3.0l0 0.203125zm10.995468 -5.09375l0.046875 1.6875q0.546875 -0.90625 1.375 -1.375q0.828125 -0.484375 1.84375 -0.484375q1.578125 0 2.34375 0.890625q0.78125 0.890625 0.796875 2.671875l0 6.46875l-1.09375 0l0 -6.484375q0 -1.3125 -0.5625 -1.953125q-0.546875 -0.65625 -1.75 -0.65625q-1.015625 0 -1.796875 0.640625q-0.78125 0.625 -1.15625 1.703125l0 6.75l-1.078125 0l0 -9.859375l1.03125 0zm15.435684 9.859375q-0.15625 -0.46875 -0.203125 -1.375q-0.578125 0.75 -1.46875 1.15625q-0.890625 0.40625 -1.875 0.40625q-1.421875 0 -2.3125 -0.796875q-0.875 -0.796875 -0.875 -2.0q0 -1.4375 1.203125 -2.28125q1.203125 -0.84375 3.34375 -0.84375l1.96875 0l0 -1.109375q0 -1.0625 -0.65625 -1.671875q-0.640625 -0.609375 -1.890625 -0.609375q-1.140625 0 -1.890625 0.59375q-0.75 0.578125 -0.75 1.40625l-1.09375 -0.015625q0 -1.171875 1.09375 -2.03125q1.09375 -0.859375 2.6875 -0.859375q1.65625 0 2.609375 0.828125q0.953125 0.8125 0.984375 2.28125l0 4.671875q0 1.4375 0.296875 2.140625l0 0.109375l-1.171875 0zm-3.421875 -0.78125q1.09375 0 1.953125 -0.53125q0.859375 -0.53125 1.25 -1.40625l0 -2.171875l-1.953125 0q-1.625 0.015625 -2.546875 0.59375q-0.921875 0.578125 -0.921875 1.59375q0 0.828125 0.609375 1.375q0.625 0.546875 1.609375 0.546875zm8.414993 0.78125l-1.09375 0l0 -14.0l1.09375 0l0 14.0zm11.749039 -1.640625l0.078125 0.28125l0.078125 -0.28125l4.171875 -11.625l1.234375 0l-4.9375 13.265625l-1.078125 0l-4.9375 -13.265625l1.21875 0l4.171875 11.625zm10.666748 1.828125q-1.25 0 -2.265625 -0.625q-1.015625 -0.625 -1.59375 -1.71875q-0.5625 -1.109375 -0.5625 -2.484375l0 -0.390625q0 -1.421875 0.546875 -2.5625q0.5625 -1.140625 1.546875 -1.78125q0.984375 -0.65625 2.125 -0.65625q1.796875 0 2.84375 1.21875q1.0625 1.21875 1.0625 3.34375l0 0.609375l-7.03125 0l0 0.21875q0 1.671875 0.953125 2.796875q0.96875 1.109375 2.421875 1.109375q0.875 0 1.546875 -0.3125q0.671875 -0.328125 1.21875 -1.03125l0.6875 0.515625q-1.203125 1.75 -3.5 1.75zm-0.203125 -9.296875q-1.21875 0 -2.0625 0.90625q-0.84375 0.890625 -1.03125 2.421875l5.921875 0l0 -0.125q-0.046875 -1.421875 -0.8125 -2.3125q-0.765625 -0.890625 -2.015625 -0.890625zm10.575348 0.1875q-0.34375 -0.0625 -0.734375 -0.0625q-1.015625 0 -1.71875 0.5625q-0.703125 0.5625 -1.015625 1.65625l0 6.765625l-1.078125 0l0 -9.859375l1.0625 0l0.015625 1.5625q0.875 -1.734375 2.78125 -1.734375q0.453125 0 0.71875 0.109375l-0.03125 1.0zm2.9483185 8.921875l-1.09375 0l0 -9.859375l1.09375 0l0 9.859375zm-1.28125 -12.703125q0 -0.3125 0.203125 -0.53125q0.203125 -0.21875 0.546875 -0.21875q0.34375 0 0.546875 0.21875q0.203125 0.21875 0.203125 0.53125q0 0.3125 -0.203125 0.515625q-0.203125 0.203125 -0.546875 0.203125q-0.34375 0 -0.546875 -0.203125q-0.203125 -0.203125 -0.203125 -0.515625zm4.900009 12.703125l0 -8.96875l-1.640625 0l0 -0.890625l1.640625 0l0 -1.015625q0 -1.5625 0.859375 -2.4375q0.859375 -0.875 2.40625 -0.875q1.21875 0 2.515625 0.546875l-0.1875 0.9375q-1.109375 -0.484375 -2.25 -0.484375q-2.25 0 -2.25 2.34375l0 0.984375l2.296875 0l0 0.890625l-2.296875 0l0 8.96875l-1.09375 0zm6.375 0l-1.09375 0l0 -9.859375l1.09375 0l0 9.859375zm6.629822 -0.734375q1.140625 0 1.90625 -0.640625q0.78125 -0.640625 0.84375 -1.671875l1.046875 0q-0.046875 0.90625 -0.578125 1.65625q-0.515625 0.734375 -1.375 1.15625q-0.859375 0.421875 -1.84375 0.421875q-1.9375 0 -3.078125 -1.34375q-1.125 -1.359375 -1.125 -3.640625l0 -0.328125q0 -1.453125 0.5 -2.5625q0.515625 -1.125 1.46875 -1.734375q0.953125 -0.609375 2.234375 -0.609375q1.609375 0 2.65625 0.96875q1.0625 0.953125 1.140625 2.53125l-1.046875 0q-0.078125 -1.15625 -0.84375 -1.859375q-0.75 -0.71875 -1.90625 -0.71875q-1.484375 0 -2.296875 1.0625q-0.8125 1.0625 -0.8125 2.984375l0 0.328125q0 1.890625 0.8125 2.953125q0.8125 1.046875 2.296875 1.046875zm12.188644 0.734375q-0.15625 -0.46875 -0.203125 -1.375q-0.578125 0.75 -1.46875 1.15625q-0.890625 0.40625 -1.875 0.40625q-1.421875 0 -2.3125 -0.796875q-0.875 -0.796875 -0.875 -2.0q0 -1.4375 1.203125 -2.28125q1.203125 -0.84375 3.34375 -0.84375l1.96875 0l0 -1.109375q0 -1.0625 -0.65625 -1.671875q-0.640625 -0.609375 -1.890625 -0.609375q-1.140625 0 -1.890625 0.59375q-0.75 0.578125 -0.75 1.40625l-1.09375 -0.015625q0 -1.171875 1.09375 -2.03125q1.09375 -0.859375 2.6875 -0.859375q1.65625 0 2.609375 0.828125q0.953125 0.8125 0.984375 2.28125l0 4.671875q0 1.4375 0.296875 2.140625l0 0.109375l-1.171875 0zm-3.421875 -0.78125q1.09375 0 1.953125 -0.53125q0.859375 -0.53125 1.25 -1.40625l0 -2.171875l-1.953125 0q-1.625 0.015625 -2.546875 0.59375q-0.921875 0.578125 -0.921875 1.59375q0 0.828125 0.609375 1.375q0.625 0.546875 1.609375 0.546875zm8.883743 -11.59375l0 2.515625l2.046875 0l0 0.890625l-2.046875 0l0 6.578125q0 0.8125 0.296875 1.21875q0.296875 0.390625 1.0 0.390625q0.265625 0 0.875 -0.078125l0.046875 0.890625q-0.421875 0.15625 -1.171875 0.15625q-1.109375 0 -1.625 -0.65625q-0.515625 -0.65625 -0.515625 -1.921875l0 -6.578125l-1.8125 0l0 -0.890625l1.8125 0l0 -2.515625l1.09375 0zm5.525299 12.375l-1.09375 0l0 -9.859375l1.09375 0l0 9.859375zm-1.28125 -12.703125q0 -0.3125 0.203125 -0.53125q0.203125 -0.21875 0.546875 -0.21875q0.34375 0 0.546875 0.21875q0.203125 0.21875 0.203125 0.53125q0 0.3125 -0.203125 0.515625q-0.203125 0.203125 -0.546875 0.203125q-0.34375 0 -0.546875 -0.203125q-0.203125 -0.203125 -0.203125 -0.515625zm3.6343842 7.625q0 -1.421875 0.546875 -2.546875q0.5625 -1.140625 1.5624847 -1.765625q1.015625 -0.640625 2.28125 -0.640625q1.96875 0 3.1875 1.375q1.234375 1.375 1.234375 3.65625l0 0.234375q0 1.421875 -0.5625 2.5625q-0.546875 1.140625 -1.546875 1.765625q-1.0 0.625 -2.28125 0.625q-1.96875 0 -3.2031097 -1.375q-1.21875 -1.390625 -1.21875 -3.671875l0 -0.21875zm1.09375 0.3125q0 1.765625 0.92185974 2.90625q0.921875 1.125 2.40625 1.125q1.46875 0 2.375 -1.125q0.921875 -1.140625 0.921875 -3.0l0 -0.21875q0 -1.125 -0.421875 -2.0625q-0.40625 -0.9375 -1.171875 -1.453125q-0.75 -0.515625 -1.734375 -0.515625q-1.453125 0 -2.375 1.140625q-0.92185974 1.140625 -0.92185974 3.0l0 0.203125zm10.995468 -5.09375l0.046875 1.6875q0.546875 -0.90625 1.375 -1.375q0.828125 -0.484375 1.84375 -0.484375q1.578125 0 2.34375 0.890625q0.78125 0.890625 0.796875 2.671875l0 6.46875l-1.09375 0l0 -6.484375q0 -1.3125 -0.5625 -1.953125q-0.546875 -0.65625 -1.75 -0.65625q-1.015625 0 -1.796875 0.640625q-0.78125 0.625 -1.15625 1.703125l0 6.75l-1.078125 0l0 -9.859375l1.03125 0z" fill-rule="nonzero"/></g></svg>