<svg version="1.1" viewBox="0.0 0.0 1250.4881889763778 599.2519685039371" fill="none" stroke="none" stroke-linecap="square" stroke-miterlimit="10" xmlns:xlink="http://www.w3.org/1999/xlink" xmlns="http://www.w3.org/2000/svg"><clipPath id="p.0"><path d="m0 0l1250.4882 0l0 599.25195l-1250.4882 0l0 -599.25195z" clip-rule="nonzero"/></clipPath><g clip-path="url(#p.0)"><path fill="#000000" fill-opacity="0.0" d="m0 0l1250.4882 0l0 599.25195l-1250.4882 0z" fill-rule="evenodd"/><path fill="#07154b" d="m33.619423 19.989502l1191.2441 0l0 561.98425l-1191.2441 0z" fill-rule="evenodd"/><path stroke="#07154b" stroke-width="1.0" stroke-linejoin="round" stroke-linecap="butt" d="m33.619423 19.989502l1191.2441 0l0 561.98425l-1191.2441 0z" fill-rule="evenodd"/><path fill="#000000" fill-opacity="0.0" d="m629.24146 19.989502l0 561.98425" fill-rule="evenodd"/><path stroke="#ffffff" stroke-width="1.0" stroke-linejoin="round" stroke-linecap="butt" stroke-dasharray="1.0,3.0" d="m629.24146 19.989502l0 561.98425" fill-rule="evenodd"/><path fill="#8d3aed" d="m52.850243 29.08118l554.4882 0l0 42.01575l-554.4882 0z" fill-rule="evenodd"/><path stroke="#8d3aed" stroke-width="1.0" stroke-linejoin="round" stroke-linecap="butt" d="m52.850243 29.08118l554.4882 0l0 42.01575l-554.4882 0z" fill-rule="evenodd"/><path fill="#ffffff" d="m273.8404 49.485554q0 -1.890625 0.859375 -3.40625q0.859375 -1.53125 2.34375 -2.390625q1.484375 -0.859375 3.296875 -0.859375q2.125 0 3.703125 1.03125q1.59375 1.015625 2.328125 2.90625l-2.046875 0q-0.53125 -1.171875 -1.546875 -1.796875q-1.015625 -0.640625 -2.4375 -0.640625q-1.359375 0 -2.453125 0.640625q-1.078125 0.625 -1.703125 1.796875q-0.609375 1.15625 -0.609375 2.71875q0 1.546875 0.609375 2.71875q0.625 1.171875 1.703125 1.8125q1.09375 0.625 2.453125 0.625q1.421875 0 2.4375 -0.625q1.015625 -0.625 1.546875 -1.796875l2.046875 0q-0.734375 1.859375 -2.328125 2.875q-1.578125 1.015625 -3.703125 1.015625q-1.8125 0 -3.296875 -0.84375q-1.484375 -0.84375 -2.34375 -2.359375q-0.859375 -1.515625 -0.859375 -3.421875zm16.746368 -7.296875l0 13.8125l-1.703125 0l0 -13.8125l1.703125 0zm3.761322 1.921875q-0.484375 0 -0.828125 -0.328125q-0.328125 -0.34375 -0.328125 -0.828125q0 -0.484375 0.328125 -0.8125q0.34375 -0.34375 0.828125 -0.34375q0.46875 0 0.796875 0.34375q0.328125 0.328125 0.328125 0.8125q0 0.484375 -0.328125 0.828125q-0.328125 0.328125 -0.796875 0.328125zm0.828125 1.671875l0 10.21875l-1.703125 0l0 -10.21875l1.703125 0zm12.2144165 4.71875q0 0.484375 -0.0625 1.015625l-8.171875 0q0.09375 1.515625 1.03125 2.375q0.953125 0.84375 2.296875 0.84375q1.09375 0 1.828125 -0.515625q0.75 -0.515625 1.046875 -1.375l1.828125 0q-0.40625 1.484375 -1.640625 2.40625q-1.234375 0.921875 -3.0625 0.921875q-1.453125 0 -2.609375 -0.65625q-1.140625 -0.65625 -1.796875 -1.859375q-0.65625 -1.203125 -0.65625 -2.78125q0 -1.59375 0.640625 -2.78125q0.640625 -1.203125 1.78125 -1.84375q1.140625 -0.640625 2.640625 -0.640625q1.453125 0 2.5625 0.640625q1.125 0.625 1.734375 1.734375q0.609375 1.109375 0.609375 2.515625zm-1.75 -0.359375q0 -0.96875 -0.4375 -1.671875q-0.421875 -0.703125 -1.171875 -1.0625q-0.734375 -0.359375 -1.625 -0.359375q-1.28125 0 -2.1875 0.828125q-0.90625 0.8125 -1.03125 2.265625l6.453125 0zm8.973145 -4.546875q1.859375 0 3.015625 1.125q1.15625 1.125 1.15625 3.25l0 6.03125l-1.671875 0l0 -5.78125q0 -1.53125 -0.765625 -2.34375q-0.765625 -0.8125 -2.09375 -0.8125q-1.34375 0 -2.140625 0.84375q-0.78125 0.84375 -0.78125 2.4375l0 5.65625l-1.703125 0l0 -10.21875l1.703125 0l0 1.453125q0.5 -0.78125 1.359375 -1.203125q0.875 -0.4375 1.921875 -0.4375zm9.018127 1.578125l0 6.03125q0 0.75 0.3125 1.0625q0.328125 0.296875 1.109375 0.296875l1.25 0l0 1.4375l-1.53125 0q-1.40625 0 -2.125 -0.65625q-0.703125 -0.65625 -0.703125 -2.140625l0 -6.03125l-1.328125 0l0 -1.390625l1.328125 0l0 -2.578125l1.6875 0l0 2.578125l2.671875 0l0 1.390625l-2.671875 0zm16.053345 -8.75l-5.109375 20.75l-1.6875 0l5.09375 -20.75l1.703125 0zm17.533478 4.578125l0 13.0l-1.703125 0l0 -5.890625l-6.609375 0l0 5.890625l-1.703125 0l0 -13.0l1.703125 0l0 5.703125l6.609375 0l0 -5.703125l1.703125 0zm7.347595 13.171875q-1.4375 0 -2.609375 -0.65625q-1.15625 -0.65625 -1.828125 -1.859375q-0.65625 -1.203125 -0.65625 -2.78125q0 -1.578125 0.6875 -2.78125q0.6875 -1.203125 1.859375 -1.84375q1.171875 -0.640625 2.625 -0.640625q1.453125 0 2.625 0.640625q1.1875 0.640625 1.859375 1.84375q0.6875 1.1875 0.6875 2.78125q0 1.578125 -0.703125 2.78125q-0.703125 1.203125 -1.90625 1.859375q-1.1875 0.65625 -2.640625 0.65625zm0 -1.5q0.921875 0 1.71875 -0.421875q0.796875 -0.4375 1.296875 -1.296875q0.5 -0.859375 0.5 -2.078125q0 -1.234375 -0.484375 -2.09375q-0.484375 -0.859375 -1.28125 -1.28125q-0.78125 -0.421875 -1.6875 -0.421875q-0.9375 0 -1.71875 0.421875q-0.765625 0.421875 -1.234375 1.28125q-0.46875 0.859375 -0.46875 2.09375q0 1.25 0.453125 2.109375q0.46875 0.84375 1.234375 1.265625q0.765625 0.421875 1.671875 0.421875zm11.111877 1.5q-1.1875 0 -2.125 -0.40625q-0.921875 -0.40625 -1.46875 -1.125q-0.53125 -0.71875 -0.59375 -1.640625l1.75 0q0.078125 0.765625 0.71875 1.25q0.65625 0.484375 1.6875 0.484375q0.96875 0 1.53125 -0.421875q0.5625 -0.4375 0.5625 -1.09375q0 -0.671875 -0.59375 -1.0q-0.59375 -0.328125 -1.84375 -0.640625q-1.140625 -0.296875 -1.859375 -0.59375q-0.71875 -0.3125 -1.234375 -0.921875q-0.515625 -0.609375 -0.515625 -1.59375q0 -0.796875 0.46875 -1.4375q0.46875 -0.65625 1.328125 -1.03125q0.859375 -0.390625 1.953125 -0.390625q1.703125 0 2.75 0.859375q1.046875 0.859375 1.109375 2.34375l-1.6875 0q-0.0625 -0.796875 -0.65625 -1.28125q-0.578125 -0.484375 -1.5625 -0.484375q-0.921875 0 -1.46875 0.390625q-0.53125 0.390625 -0.53125 1.03125q0 0.5 0.328125 0.828125q0.328125 0.328125 0.8125 0.53125q0.5 0.1875 1.375 0.421875q1.109375 0.296875 1.796875 0.59375q0.6875 0.28125 1.171875 0.859375q0.5 0.578125 0.515625 1.515625q0 0.84375 -0.46875 1.515625q-0.453125 0.671875 -1.3125 1.0625q-0.84375 0.375 -1.9375 0.375zm8.176086 -9.0l0 6.03125q0 0.75 0.3125 1.0625q0.328125 0.296875 1.109375 0.296875l1.25 0l0 1.4375l-1.53125 0q-1.40625 0 -2.125 -0.65625q-0.703125 -0.65625 -0.703125 -2.140625l0 -6.03125l-1.328125 0l0 -1.390625l1.328125 0l0 -2.578125l1.6875 0l0 2.578125l2.671875 0l0 1.390625l-2.671875 0z" fill-rule="nonzero"/><path fill="#bb8ba6" d="m649.776 29.08118l554.48816 0l0 42.01575l-554.48816 0z" fill-rule="evenodd"/><path stroke="#bb8ba6" stroke-width="1.0" stroke-linejoin="round" stroke-linecap="butt" d="m649.776 29.08118l554.48816 0l0 42.01575l-554.48816 0z" fill-rule="evenodd"/><path fill="#ffffff" d="m896.6083 56.00118l-3.09375 -5.3125l-2.046875 0l0 5.3125l-1.703125 0l0 -13.0l4.203125 0q1.46875 0 2.484375 0.5q1.015625 0.5 1.515625 1.359375q0.515625 0.859375 0.515625 1.96875q0 1.34375 -0.78125 2.375q-0.78125 1.015625 -2.328125 1.34375l3.265625 5.453125l-2.03125 0zm-5.140625 -6.671875l2.5 0q1.375 0 2.0625 -0.6875q0.6875 -0.6875 0.6875 -1.8125q0 -1.15625 -0.6875 -1.796875q-0.671875 -0.640625 -2.0625 -0.640625l-2.5 0l0 4.9375zm18.702332 -3.546875l0 10.21875l-1.6875 0l0 -1.515625q-0.484375 0.78125 -1.359375 1.234375q-0.875 0.4375 -1.90625 0.4375q-1.203125 0 -2.15625 -0.5q-0.953125 -0.5 -1.5 -1.484375q-0.546875 -0.984375 -0.546875 -2.40625l0 -5.984375l1.671875 0l0 5.765625q0 1.5 0.765625 2.3125q0.765625 0.8125 2.09375 0.8125q1.359375 0 2.140625 -0.828125q0.796875 -0.84375 0.796875 -2.453125l0 -5.609375l1.6875 0zm7.8618774 -0.1875q1.859375 0 3.015625 1.125q1.15625 1.125 1.15625 3.25l0 6.03125l-1.671875 0l0 -5.78125q0 -1.53125 -0.765625 -2.34375q-0.765625 -0.8125 -2.09375 -0.8125q-1.34375 0 -2.140625 0.84375q-0.78125 0.84375 -0.78125 2.4375l0 5.65625l-1.703125 0l0 -10.21875l1.703125 0l0 1.453125q0.5 -0.78125 1.359375 -1.203125q0.875 -0.4375 1.921875 -0.4375zm9.018127 1.578125l0 6.03125q0 0.75 0.3125 1.0625q0.328125 0.296875 1.109375 0.296875l1.25 0l0 1.4375l-1.53125 0q-1.40625 0 -2.125 -0.65625q-0.703125 -0.65625 -0.703125 -2.140625l0 -6.03125l-1.328125 0l0 -1.390625l1.328125 0l0 -2.578125l1.6875 0l0 2.578125l2.671875 0l0 1.390625l-2.671875 0zm5.6033936 -3.0625q-0.484375 0 -0.828125 -0.328125q-0.328125 -0.34375 -0.328125 -0.828125q0 -0.484375 0.328125 -0.8125q0.34375 -0.34375 0.828125 -0.34375q0.46875 0 0.796875 0.34375q0.328125 0.328125 0.328125 0.8125q0 0.484375 -0.328125 0.828125q-0.328125 0.328125 -0.796875 0.328125zm0.828125 1.671875l0 10.21875l-1.703125 0l0 -10.21875l1.703125 0zm15.1831665 -0.1875q1.1875 0 2.125 0.5q0.9375 0.484375 1.46875 1.484375q0.546875 0.984375 0.546875 2.390625l0 6.03125l-1.6875 0l0 -5.78125q0 -1.53125 -0.75 -2.34375q-0.75 -0.8125 -2.046875 -0.8125q-1.3125 0 -2.109375 0.859375q-0.78125 0.84375 -0.78125 2.4375l0 5.640625l-1.671875 0l0 -5.78125q0 -1.53125 -0.765625 -2.34375q-0.75 -0.8125 -2.03125 -0.8125q-1.328125 0 -2.109375 0.859375q-0.78125 0.84375 -0.78125 2.4375l0 5.640625l-1.703125 0l0 -10.21875l1.703125 0l0 1.46875q0.5 -0.796875 1.34375 -1.21875q0.84375 -0.4375 1.875 -0.4375q1.296875 0 2.28125 0.578125q0.984375 0.578125 1.46875 1.6875q0.4375 -1.078125 1.421875 -1.671875q0.984375 -0.59375 2.203125 -0.59375zm16.247192 4.90625q0 0.484375 -0.0625 1.015625l-8.171875 0q0.09375 1.515625 1.03125 2.375q0.953125 0.84375 2.296875 0.84375q1.09375 0 1.828125 -0.515625q0.75 -0.515625 1.046875 -1.375l1.828125 0q-0.40625 1.484375 -1.640625 2.40625q-1.234375 0.921875 -3.0625 0.921875q-1.453125 0 -2.609375 -0.65625q-1.140625 -0.65625 -1.796875 -1.859375q-0.65625 -1.203125 -0.65625 -2.78125q0 -1.59375 0.640625 -2.78125q0.640625 -1.203125 1.78125 -1.84375q1.140625 -0.640625 2.640625 -0.640625q1.453125 0 2.5625 0.640625q1.125 0.625 1.734375 1.734375q0.609375 1.109375 0.609375 2.515625zm-1.75 -0.359375q0 -0.96875 -0.4375 -1.671875q-0.421875 -0.703125 -1.171875 -1.0625q-0.734375 -0.359375 -1.625 -0.359375q-1.28125 0 -2.1875 0.828125q-0.90625 0.8125 -1.03125 2.265625l6.453125 0z" fill-rule="nonzero"/><path fill="#000000" fill-opacity="0.0" d="m52.818993 116.46731l0 0c0 -16.66745 13.511635 -30.179085 30.179077 -30.179085l150.19302 0c8.003998 0 15.6801605 3.179573 21.339844 8.839249c5.659683 5.6596756 8.839249 13.335846 8.839249 21.339836l0 120.7127c0 16.66745 -13.511642 30.179092 -30.179092 30.179092l-150.19302 0c-16.667442 0 -30.179077 -13.511642 -30.179077 -30.179092z" fill-rule="evenodd"/><path stroke="#8d3aed" stroke-width="1.0" stroke-linejoin="round" stroke-linecap="butt" d="m52.818993 116.46731l0 0c0 -16.66745 13.511635 -30.179085 30.179077 -30.179085l150.19302 0c8.003998 0 15.6801605 3.179573 21.339844 8.839249c5.659683 5.6596756 8.839249 13.335846 8.839249 21.339836l0 120.7127c0 16.66745 -13.511642 30.179092 -30.179092 30.179092l-150.19302 0c-16.667442 0 -30.179077 -13.511642 -30.179077 -30.179092z" fill-rule="evenodd"/><path fill="#ffffff" d="m104.837975 171.99615l3.90625 0l0 1.1875l-5.359375 0l0 -11.15625l1.453125 0l0 9.96875zm6.208893 -9.0q-0.421875 0 -0.71875 -0.28125q-0.28125 -0.296875 -0.28125 -0.71875q0 -0.40625 0.28125 -0.6875q0.296875 -0.296875 0.71875 -0.296875q0.40625 0 0.671875 0.296875q0.28125 0.28125 0.28125 0.6875q0 0.421875 -0.28125 0.71875q-0.265625 0.28125 -0.671875 0.28125zm0.703125 1.421875l0 8.765625l-1.453125 0l0 -8.765625l1.453125 0zm3.9360046 1.625q0.453125 -0.78125 1.3125 -1.265625q0.859375 -0.5 1.96875 -0.5q1.1875 0 2.125 0.5625q0.953125 0.546875 1.484375 1.5625q0.546875 1.015625 0.546875 2.359375q0 1.328125 -0.546875 2.375q-0.53125 1.03125 -1.484375 1.609375q-0.953125 0.578125 -2.125 0.578125q-1.140625 0 -2.0 -0.484375q-0.84375 -0.5 -1.28125 -1.265625l0 1.609375l-1.453125 0l0 -11.84375l1.453125 0l0 4.703125zm5.953125 2.71875q0 -0.984375 -0.40625 -1.71875q-0.390625 -0.734375 -1.078125 -1.109375q-0.671875 -0.390625 -1.5 -0.390625q-0.796875 0 -1.484375 0.390625q-0.671875 0.390625 -1.078125 1.140625q-0.40625 0.734375 -0.40625 1.703125q0 1.0 0.40625 1.75q0.40625 0.734375 1.078125 1.125q0.6875 0.390625 1.484375 0.390625q0.828125 0 1.5 -0.390625q0.6875 -0.390625 1.078125 -1.125q0.40625 -0.75 0.40625 -1.765625zm4.8629 -2.734375q0.4375 -0.75 1.28125 -1.25q0.8593826 -0.5 2.0000076 -0.5q1.171875 0 2.125 0.5625q0.953125 0.546875 1.484375 1.5625q0.546875 1.015625 0.546875 2.359375q0 1.328125 -0.546875 2.375q-0.53125 1.03125 -1.484375 1.609375q-0.953125 0.578125 -2.125 0.578125q-1.125 0 -1.9843826 -0.5q-0.84375 -0.5 -1.296875 -1.25l0 5.765625l-1.453125 0l0 -12.921875l1.453125 0l0 1.609375zm5.9531326 2.734375q0 -0.984375 -0.40625 -1.71875q-0.390625 -0.734375 -1.078125 -1.109375q-0.671875 -0.390625 -1.5 -0.390625q-0.796875 0 -1.4843826 0.390625q-0.671875 0.390625 -1.078125 1.140625q-0.40625 0.734375 -0.40625 1.703125q0 1.0 0.40625 1.75q0.40625 0.734375 1.078125 1.125q0.6875076 0.390625 1.4843826 0.390625q0.828125 0 1.5 -0.390625q0.6875 -0.390625 1.078125 -1.125q0.40625 -0.75 0.40625 -1.765625zm2.9878998 3.25q2.03125 -1.625 3.1875 -2.671875q1.15625 -1.046875 1.9375 -2.1875q0.796875 -1.15625 0.796875 -2.25q0 -1.046875 -0.5 -1.640625q-0.5 -0.609375 -1.625 -0.609375q-1.09375 0 -1.703125 0.6875q-0.59375 0.671875 -0.640625 1.8125l-1.40625 0q0.0625 -1.796875 1.078125 -2.765625q1.03125 -0.984375 2.65625 -0.984375q1.640625 0 2.609375 0.921875q0.96875 0.90625 0.96875 2.5q0 1.328125 -0.796875 2.59375q-0.78125 1.25 -1.796875 2.203125q-1.0 0.953125 -2.5625 2.21875l5.5 0l0 1.21875l-7.703125 0l0 -1.046875zm11.075012 -5.984375q0.4375 -0.75 1.28125 -1.25q0.859375 -0.5 2.0 -0.5q1.171875 0 2.125 0.5625q0.953125 0.546875 1.484375 1.5625q0.546875 1.015625 0.546875 2.359375q0 1.328125 -0.546875 2.375q-0.53125 1.03125 -1.484375 1.609375q-0.953125 0.578125 -2.125 0.578125q-1.125 0 -1.984375 -0.5q-0.84375 -0.5 -1.296875 -1.25l0 5.765625l-1.453125 0l0 -12.921875l1.453125 0l0 1.609375zm5.953125 2.734375q0 -0.984375 -0.40625 -1.71875q-0.390625 -0.734375 -1.078125 -1.109375q-0.671875 -0.390625 -1.5 -0.390625q-0.796875 0 -1.484375 0.390625q-0.671875 0.390625 -1.078125 1.140625q-0.40625 0.734375 -0.40625 1.703125q0 1.0 0.40625 1.75q0.40625 0.734375 1.078125 1.125q0.6875 0.390625 1.484375 0.390625q0.828125 0 1.5 -0.390625q0.6875 -0.390625 1.078125 -1.125q0.40625 -0.75 0.40625 -1.765625zm13.119278 -10.65625l-4.390625 17.796875l-1.4375 0l4.375 -17.796875l1.453125 0zm12.325516 15.078125l-2.65625 -4.5625l-1.765625 0l0 4.5625l-1.453125 0l0 -11.15625l3.59375 0q1.265625 0 2.140625 0.4375q0.875 0.4375 1.296875 1.171875q0.4375 0.734375 0.4375 1.671875q0 1.15625 -0.671875 2.046875q-0.65625 0.875 -1.984375 1.15625l2.796875 4.671875l-1.734375 0zm-4.421875 -5.734375l2.140625 0q1.1875 0 1.78125 -0.578125q0.59375 -0.578125 0.59375 -1.5625q0 -0.984375 -0.59375 -1.53125q-0.578125 -0.546875 -1.78125 -0.546875l-2.140625 0l0 4.21875zm15.728027 -2.15625q0 1.390625 -0.953125 2.3125q-0.953125 0.921875 -2.90625 0.921875l-2.140625 0l0 4.65625l-1.453125 0l0 -11.15625l3.59375 0q1.890625 0 2.875 0.921875q0.984375 0.90625 0.984375 2.34375zm-3.859375 2.03125q1.21875 0 1.796875 -0.515625q0.578125 -0.53125 0.578125 -1.515625q0 -2.0625 -2.375 -2.0625l-2.140625 0l0 4.09375l2.140625 0zm5.1233826 0.28125q0 -1.640625 0.734375 -2.9375q0.734375 -1.3125 2.0 -2.046875q1.28125 -0.734375 2.828125 -0.734375q1.828125 0 3.1875 0.890625q1.359375 0.875 1.984375 2.484375l-1.734375 0q-0.46875 -1.0 -1.34375 -1.546875q-0.875 -0.546875 -2.09375 -0.546875q-1.15625 0 -2.09375 0.546875q-0.921875 0.546875 -1.453125 1.546875q-0.53125 1.0 -0.53125 2.34375q0 1.328125 0.53125 2.328125q0.53125 1.0 1.453125 1.546875q0.9375 0.53125 2.09375 0.53125q1.21875 0 2.09375 -0.53125q0.875 -0.53125 1.34375 -1.546875l1.734375 0q-0.625 1.609375 -1.984375 2.484375q-1.359375 0.859375 -3.1875 0.859375q-1.546875 0 -2.828125 -0.71875q-1.265625 -0.734375 -2.0 -2.03125q-0.734375 -1.296875 -0.734375 -2.921875zm22.608398 -9.5l-4.390625 17.796875l-1.4375 0l4.375 -17.796875l1.453125 0z" fill-rule="nonzero"/><path fill="#ffffff" d="m135.81453 192.18365l-1.453125 0l-5.859375 -8.875l0 8.875l-1.4531326 0l0 -11.171875l1.4531326 0l5.859375 8.875l0 -8.875l1.453125 0l0 11.171875zm10.482391 -4.71875q0 0.421875 -0.046875 0.875l-7.015625 0q0.078125 1.296875 0.890625 2.03125q0.8125 0.71875 1.96875 0.71875q0.9375 0 1.5625 -0.4375q0.640625 -0.4375 0.890625 -1.171875l1.578125 0q-0.359375 1.265625 -1.421875 2.0625q-1.046875 0.78125 -2.609375 0.78125q-1.25 0 -2.234375 -0.546875q-0.984375 -0.5625 -1.546875 -1.59375q-0.5625 -1.046875 -0.5625 -2.40625q0 -1.359375 0.546875 -2.375q0.546875 -1.03125 1.53125 -1.578125q0.984375 -0.546875 2.265625 -0.546875q1.234375 0 2.1875 0.546875q0.96875 0.53125 1.484375 1.484375q0.53125 0.953125 0.53125 2.15625zm-1.5 -0.3125q0 -0.828125 -0.375 -1.421875q-0.375 -0.609375 -1.0 -0.921875q-0.625 -0.3125 -1.40625 -0.3125q-1.09375 0 -1.875 0.71875q-0.78125 0.703125 -0.890625 1.9375l5.546875 0zm5.2012634 -2.53125l0 5.15625q0 0.640625 0.265625 0.90625q0.265625 0.265625 0.9375 0.265625l1.078125 0l0 1.234375l-1.3125 0q-1.21875 0 -1.828125 -0.5625q-0.609375 -0.5625 -0.609375 -1.84375l0 -5.15625l-1.125 0l0 -1.203125l1.125 0l0 -2.203125l1.46875 0l0 2.203125l2.28125 0l0 1.203125l-2.28125 0zm15.71463 -1.203125l-2.734375 8.765625l-1.5 0l-2.109375 -6.953125l-2.109375 6.953125l-1.515625 0l-2.75 -8.765625l1.5 0l2.015625 7.359375l2.171875 -7.359375l1.484375 0l2.125 7.375l1.984375 -7.375l1.4375 0zm5.2762756 8.90625q-1.234375 0 -2.234375 -0.546875q-1.0 -0.5625 -1.578125 -1.59375q-0.5625 -1.046875 -0.5625 -2.40625q0 -1.34375 0.578125 -2.375q0.59375 -1.03125 1.59375 -1.578125q1.015625 -0.546875 2.265625 -0.546875q1.25 0 2.25 0.546875q1.015625 0.546875 1.59375 1.578125q0.578125 1.015625 0.578125 2.375q0 1.359375 -0.59375 2.40625q-0.59375 1.03125 -1.625 1.59375q-1.03125 0.546875 -2.265625 0.546875zm0 -1.28125q0.78125 0 1.46875 -0.359375q0.6875 -0.375 1.109375 -1.109375q0.421875 -0.734375 0.421875 -1.796875q0 -1.046875 -0.421875 -1.78125q-0.40625 -0.734375 -1.078125 -1.09375q-0.671875 -0.359375 -1.453125 -0.359375q-0.8125 0 -1.484375 0.359375q-0.65625 0.359375 -1.0625 1.09375q-0.390625 0.734375 -0.390625 1.78125q0 1.078125 0.390625 1.8125q0.390625 0.734375 1.046875 1.09375q0.65625 0.359375 1.453125 0.359375zm7.8650208 -6.203125q0.390625 -0.75 1.09375 -1.15625q0.71875 -0.421875 1.734375 -0.421875l0 1.5l-0.375 0q-2.453125 0 -2.453125 2.65625l0 4.765625l-1.453125 0l0 -8.765625l1.453125 0l0 1.421875zm9.405518 7.34375l-3.4375 -3.875l0 3.875l-1.453125 0l0 -11.84375l1.453125 0l0 6.96875l3.375 -3.890625l2.0312347 0l-4.1249847 4.359375l4.1406097 4.40625l-1.9843597 0z" fill-rule="nonzero"/><path fill="#000000" fill-opacity="0.0" d="m54.329792 467.3927l0 0c0 -8.822235 7.1518364 -15.974091 15.9740715 -15.974091l160.61879 0c4.2365875 0 8.299652 1.6829834 11.295364 4.678711c2.9957275 2.995697 4.678711 7.058777 4.678711 11.29538l0 63.89435c0 8.822266 -7.15184 15.97406 -15.974075 15.97406l-160.61879 0l0 0c-8.822235 0 -15.9740715 -7.1517944 -15.9740715 -15.97406z" fill-rule="evenodd"/><path stroke="#8d3aed" stroke-width="1.0" stroke-linejoin="round" stroke-linecap="butt" d="m54.329792 467.3927l0 0c0 -8.822235 7.1518364 -15.974091 15.9740715 -15.974091l160.61879 0c4.2365875 0 8.299652 1.6829834 11.295364 4.678711c2.9957275 2.995697 4.678711 7.058777 4.678711 11.29538l0 63.89435c0 8.822266 -7.15184 15.97406 -15.974075 15.97406l-160.61879 0l0 0c-8.822235 0 -15.9740715 -7.1517944 -15.9740715 -15.97406z" fill-rule="evenodd"/><path fill="#ffffff" d="m115.9803 494.04364q1.828125 0 3.15625 0.6875q1.34375 0.671875 2.046875 1.9375q0.71875 1.265625 0.71875 2.984375q0 1.703125 -0.71875 2.96875q-0.703125 1.25 -2.046875 1.921875q-1.328125 0.65625 -3.15625 0.65625l-3.46875 0l0 -11.15625l3.46875 0zm0 9.953125q2.15625 0 3.296875 -1.140625q1.140625 -1.140625 1.140625 -3.203125q0 -2.078125 -1.15625 -3.25q-1.140625 -1.171875 -3.28125 -1.171875l-2.015625 0l0 8.765625l2.015625 0zm7.296402 -3.21875q0 -1.34375 0.546875 -2.359375q0.546875 -1.015625 1.5 -1.5625q0.953125 -0.5625 2.109375 -0.5625q1.15625 0 2.0 0.5q0.859375 0.484375 1.265625 1.234375l0 -1.59375l1.46875 0l0 8.765625l-1.46875 0l0 -1.625q-0.421875 0.765625 -1.28125 1.265625q-0.859375 0.5 -2.0 0.5q-1.171875 0 -2.109375 -0.578125q-0.9375 -0.578125 -1.484375 -1.609375q-0.546875 -1.046875 -0.546875 -2.375zm7.421875 0.015625q0 -0.984375 -0.40625 -1.71875q-0.390625 -0.734375 -1.078125 -1.125q-0.671875 -0.390625 -1.484375 -0.390625q-0.828125 0 -1.5 0.390625q-0.671875 0.375 -1.078125 1.109375q-0.390625 0.734375 -0.390625 1.71875q0 1.015625 0.390625 1.765625q0.40625 0.734375 1.078125 1.125q0.671875 0.390625 1.5 0.390625q0.8125 0 1.484375 -0.390625q0.6875 -0.390625 1.078125 -1.125q0.40625 -0.75 0.40625 -1.75zm5.722275 -3.15625l0 5.15625q0 0.640625 0.265625 0.90625q0.265625 0.265625 0.9375 0.265625l1.078125 0l0 1.234375l-1.3125 0q-1.21875 0 -1.828125 -0.5625q-0.609375 -0.5625 -0.609375 -1.84375l0 -5.15625l-1.125 0l0 -1.203125l1.125 0l0 -2.203125l1.46875 0l0 2.203125l2.28125 0l0 1.203125l-2.28125 0zm3.4958801 3.140625q0 -1.34375 0.546875 -2.359375q0.546875 -1.015625 1.5 -1.5625q0.953125 -0.5625 2.109375 -0.5625q1.15625 0 2.0 0.5q0.859375 0.484375 1.265625 1.234375l0 -1.59375l1.46875 0l0 8.765625l-1.46875 0l0 -1.625q-0.421875 0.765625 -1.28125 1.265625q-0.859375 0.5 -2.0 0.5q-1.171875 0 -2.109375 -0.578125q-0.9375 -0.578125 -1.484375 -1.609375q-0.546875 -1.046875 -0.546875 -2.375zm7.421875 0.015625q0 -0.984375 -0.40625 -1.71875q-0.390625 -0.734375 -1.078125 -1.125q-0.671875 -0.390625 -1.484375 -0.390625q-0.828125 0 -1.5 0.390625q-0.671875 0.375 -1.078125 1.109375q-0.390625 0.734375 -0.390625 1.71875q0 1.015625 0.390625 1.765625q0.40625 0.734375 1.078125 1.125q0.671875 0.390625 1.5 0.390625q0.8125 0 1.484375 -0.390625q0.6875 -0.390625 1.078125 -1.125q0.40625 -0.75 0.40625 -1.75zm5.39415 -2.734375q0.453125 -0.78125 1.3125 -1.265625q0.859375 -0.5 1.96875 -0.5q1.1875 0 2.125 0.5625q0.953125 0.546875 1.484375 1.5625q0.546875 1.015625 0.546875 2.359375q0 1.328125 -0.546875 2.375q-0.53125 1.03125 -1.484375 1.609375q-0.953125 0.578125 -2.125 0.578125q-1.140625 0 -2.0 -0.484375q-0.84375 -0.5 -1.28125 -1.265625l0 1.609375l-1.453125 0l0 -11.84375l1.453125 0l0 4.703125zm5.953125 2.71875q0 -0.984375 -0.40625 -1.71875q-0.390625 -0.734375 -1.078125 -1.109375q-0.671875 -0.390625 -1.5 -0.390625q-0.796875 0 -1.484375 0.390625q-0.671875 0.390625 -1.078125 1.140625q-0.40625 0.734375 -0.40625 1.703125q0 1.0 0.40625 1.75q0.40625 0.734375 1.078125 1.125q0.6875 0.390625 1.484375 0.390625q0.828125 0 1.5 -0.390625q0.6875 -0.390625 1.078125 -1.125q0.40625 -0.75 0.40625 -1.765625zm2.8628998 0q0 -1.34375 0.546875 -2.359375q0.546875 -1.015625 1.5 -1.5625q0.953125 -0.5625 2.109375 -0.5625q1.15625 0 2.0 0.5q0.859375 0.484375 1.265625 1.234375l0 -1.59375l1.46875 0l0 8.765625l-1.46875 0l0 -1.625q-0.421875 0.765625 -1.28125 1.265625q-0.859375 0.5 -2.0 0.5q-1.171875 0 -2.109375 -0.578125q-0.9375 -0.578125 -1.484375 -1.609375q-0.546875 -1.046875 -0.546875 -2.375zm7.421875 0.015625q0 -0.984375 -0.40625 -1.71875q-0.390625 -0.734375 -1.078125 -1.125q-0.671875 -0.390625 -1.484375 -0.390625q-0.828125 0 -1.5 0.390625q-0.671875 0.375 -1.078125 1.109375q-0.390625 0.734375 -0.390625 1.71875q0 1.015625 0.390625 1.765625q0.40625 0.734375 1.078125 1.125q0.671875 0.390625 1.5 0.390625q0.8125 0 1.484375 -0.390625q0.6875 -0.390625 1.078125 -1.125q0.40625 -0.75 0.40625 -1.75zm7.0504 4.546875q-1.015625 0 -1.8125 -0.34375q-0.796875 -0.34375 -1.265625 -0.953125q-0.46875 -0.625 -0.515625 -1.421875l1.5 0q0.0625 0.65625 0.609375 1.078125q0.5625 0.40625 1.453125 0.40625q0.84375 0 1.3125 -0.359375q0.484375 -0.375 0.484375 -0.9375q0 -0.5625 -0.515625 -0.84375q-0.5 -0.28125 -1.578125 -0.5625q-0.96875 -0.25 -1.59375 -0.515625q-0.609375 -0.265625 -1.0625 -0.78125q-0.4375 -0.515625 -0.4375 -1.375q0 -0.671875 0.40625 -1.21875q0.40625 -0.5625 1.140625 -0.890625q0.734375 -0.328125 1.671875 -0.328125q1.453125 0 2.34375 0.734375q0.90625 0.734375 0.96875 2.015625l-1.453125 0q-0.046875 -0.6875 -0.5625 -1.109375q-0.5 -0.421875 -1.34375 -0.421875q-0.78125 0 -1.25 0.34375q-0.453125 0.328125 -0.453125 0.875q0 0.4375 0.265625 0.71875q0.28125 0.28125 0.703125 0.453125q0.4375 0.15625 1.1875 0.375q0.9375 0.25 1.53125 0.5q0.59375 0.25 1.015625 0.75q0.421875 0.484375 0.4375 1.28125q0 0.734375 -0.40625 1.3125q-0.390625 0.5625 -1.125 0.890625q-0.71875 0.328125 -1.65625 0.328125zm13.242645 -4.859375q0 0.421875 -0.046875 0.875l-7.015625 0q0.078125 1.296875 0.890625 2.03125q0.8125 0.71875 1.96875 0.71875q0.9375 0 1.5625 -0.4375q0.640625 -0.4375 0.890625 -1.171875l1.578125 0q-0.359375 1.265625 -1.421875 2.0625q-1.046875 0.78125 -2.609375 0.78125q-1.25 0 -2.234375 -0.546875q-0.984375 -0.5625 -1.546875 -1.59375q-0.5625 -1.046875 -0.5625 -2.40625q0 -1.359375 0.546875 -2.375q0.546875 -1.03125 1.53125 -1.578125q0.984375 -0.546875 2.265625 -0.546875q1.234375 0 2.1875 0.546875q0.96875 0.53125 1.484375 1.484375q0.53125 0.953125 0.53125 2.15625zm-1.5 -0.3125q0 -0.828125 -0.375 -1.421875q-0.375 -0.609375 -1.0 -0.921875q-0.625 -0.3125 -1.40625 -0.3125q-1.09375 0 -1.875 0.71875q-0.78125 0.703125 -0.890625 1.9375l5.546875 0z" fill-rule="nonzero"/><path fill="#000000" fill-opacity="0.0" d="m52.849335 311.4637l0 0c0 -13.234802 10.728928 -23.963715 23.96373 -23.963715l147.6001 0c6.3555756 0 12.450836 2.5247498 16.944916 7.018799c4.4940643 4.4940796 7.018814 10.589355 7.018814 16.944916l0 95.85208c0 13.234802 -10.728928 23.963715 -23.96373 23.963715l-147.6001 0c-13.234802 0 -23.96373 -10.728912 -23.96373 -23.963715z" fill-rule="evenodd"/><path stroke="#8d3aed" stroke-width="1.0" stroke-linejoin="round" stroke-linecap="butt" d="m52.849335 311.4637l0 0c0 -13.234802 10.728928 -23.963715 23.96373 -23.963715l147.6001 0c6.3555756 0 12.450836 2.5247498 16.944916 7.018799c4.4940643 4.4940796 7.018814 10.589355 7.018814 16.944916l0 95.85208c0 13.234802 -10.728928 23.963715 -23.96373 23.963715l-147.6001 0c-13.234802 0 -23.96373 -10.728912 -23.96373 -23.963715z" fill-rule="evenodd"/><path fill="#ffffff" d="m92.33073 354.0935l0 1.1875l-3.03125 0l0 9.96875l-1.46875 0l0 -9.96875l-3.046875 0l0 -1.1875l7.546875 0zm3.249771 3.8125q0.390625 -0.75 1.09375 -1.15625q0.71875 -0.421875 1.734375 -0.421875l0 1.5l-0.375 0q-2.453125 0 -2.453125 2.65625l0 4.765625l-1.453125 0l0 -8.765625l1.453125 0l0 1.421875zm3.9680176 2.921875q0 -1.34375 0.546875 -2.359375q0.546875 -1.015625 1.5 -1.5625q0.953125 -0.5625 2.109375 -0.5625q1.15625 0 2.0 0.5q0.859375 0.484375 1.265625 1.234375l0 -1.59375l1.46875 0l0 8.765625l-1.46875 0l0 -1.625q-0.421875 0.765625 -1.28125 1.265625q-0.859375 0.5 -2.0 0.5q-1.171875 0 -2.109375 -0.578125q-0.9375 -0.578125 -1.484375 -1.609375q-0.546875 -1.046875 -0.546875 -2.375zm7.421875 0.015625q0 -0.984375 -0.40625 -1.71875q-0.390625 -0.734375 -1.078125 -1.125q-0.671875 -0.390625 -1.484375 -0.390625q-0.828125 0 -1.5 0.390625q-0.671875 0.375 -1.078125 1.109375q-0.390625 0.734375 -0.390625 1.71875q0 1.015625 0.390625 1.765625q0.40625 0.734375 1.078125 1.125q0.671875 0.390625 1.5 0.390625q0.8125 0 1.484375 -0.390625q0.6875 -0.390625 1.078125 -1.125q0.40625 -0.75 0.40625 -1.75zm8.20665 -4.515625q1.609375 0 2.59375 0.96875q1.0 0.96875 1.0 2.78125l0 5.171875l-1.453125 0l0 -4.953125q0 -1.3125 -0.65625 -2.0q-0.640625 -0.703125 -1.78125 -0.703125q-1.15625 0 -1.84375 0.71875q-0.671875 0.71875 -0.671875 2.09375l0 4.84375l-1.453125 0l0 -8.765625l1.453125 0l0 1.25q0.4375 -0.671875 1.171875 -1.03125q0.75 -0.375 1.640625 -0.375zm9.083771 9.0625q-1.015625 0 -1.8125 -0.34375q-0.796875 -0.34375 -1.265625 -0.953125q-0.46875 -0.625 -0.515625 -1.421875l1.5 0q0.0625 0.65625 0.609375 1.078125q0.5625 0.40625 1.453125 0.40625q0.84375 0 1.3125 -0.359375q0.484375 -0.375 0.484375 -0.9375q0 -0.5625 -0.515625 -0.84375q-0.5 -0.28125 -1.578125 -0.5625q-0.96875 -0.25 -1.59375 -0.515625q-0.609375 -0.265625 -1.0625 -0.78125q-0.4375 -0.515625 -0.4375 -1.375q0 -0.671875 0.40625 -1.21875q0.40625 -0.5625 1.140625 -0.890625q0.734375 -0.328125 1.671875 -0.328125q1.453125 0 2.34375 0.734375q0.90625 0.734375 0.96875 2.015625l-1.453125 0q-0.046875 -0.6875 -0.5625 -1.109375q-0.5 -0.421875 -1.34375 -0.421875q-0.78125 0 -1.25 0.34375q-0.453125 0.328125 -0.453125 0.875q0 0.4375 0.265625 0.71875q0.28125 0.28125 0.703125 0.453125q0.4375 0.15625 1.1875 0.375q0.9375 0.25 1.53125 0.5q0.59375 0.25 1.015625 0.75q0.421875 0.484375 0.4375 1.28125q0 0.734375 -0.40625 1.3125q-0.390625 0.5625 -1.125 0.890625q-0.71875 0.328125 -1.65625 0.328125zm4.6957626 -4.5625q0 -1.34375 0.546875 -2.359375q0.546875 -1.015625 1.5 -1.5625q0.953125 -0.5625 2.109375 -0.5625q1.15625 0 2.0 0.5q0.859375 0.484375 1.265625 1.234375l0 -1.59375l1.46875 0l0 8.765625l-1.46875 0l0 -1.625q-0.421875 0.765625 -1.28125 1.265625q-0.859375 0.5 -2.0 0.5q-1.171875 0 -2.109375 -0.578125q-0.9375 -0.578125 -1.484375 -1.609375q-0.546875 -1.046875 -0.546875 -2.375zm7.421875 0.015625q0 -0.984375 -0.40625 -1.71875q-0.390625 -0.734375 -1.078125 -1.125q-0.671875 -0.390625 -1.484375 -0.390625q-0.828125 0 -1.5 0.390625q-0.671875 0.375 -1.078125 1.109375q-0.390625 0.734375 -0.390625 1.71875q0 1.015625 0.390625 1.765625q0.40625 0.734375 1.078125 1.125q0.671875 0.390625 1.5 0.390625q0.8125 0 1.484375 -0.390625q0.6875 -0.390625 1.078125 -1.125q0.40625 -0.75 0.40625 -1.75zm3.3941498 0q0 -1.359375 0.546875 -2.375q0.546875 -1.015625 1.515625 -1.5625q0.96875 -0.5625 2.203125 -0.5625q1.625 0 2.671875 0.78125q1.046875 0.78125 1.390625 2.171875l-1.578125 0q-0.21875 -0.796875 -0.875 -1.265625q-0.640625 -0.46875 -1.609375 -0.46875q-1.234375 0 -2.015625 0.859375q-0.765625 0.859375 -0.765625 2.421875q0 1.59375 0.765625 2.453125q0.78125 0.859375 2.015625 0.859375q0.96875 0 1.609375 -0.4375q0.640625 -0.453125 0.875 -1.28125l1.578125 0q-0.359375 1.34375 -1.421875 2.15625q-1.046875 0.796875 -2.640625 0.796875q-1.234375 0 -2.203125 -0.546875q-0.96875 -0.5625 -1.515625 -1.59375q-0.546875 -1.03125 -0.546875 -2.40625zm12.040146 -3.15625l0 5.15625q0 0.640625 0.265625 0.90625q0.265625 0.265625 0.9375 0.265625l1.078125 0l0 1.234375l-1.3125 0q-1.21875 0 -1.828125 -0.5625q-0.609375 -0.5625 -0.609375 -1.84375l0 -5.15625l-1.125 0l0 -1.203125l1.125 0l0 -2.203125l1.46875 0l0 2.203125l2.28125 0l0 1.203125l-2.28125 0zm4.792755 -2.625q-0.421875 0 -0.71875 -0.28125q-0.28125 -0.296875 -0.28125 -0.71875q0 -0.40625 0.28125 -0.6875q0.296875 -0.296875 0.71875 -0.296875q0.40625 0 0.671875 0.296875q0.28125 0.28125 0.28125 0.6875q0 0.421875 -0.28125 0.71875q-0.265625 0.28125 -0.671875 0.28125zm0.703125 1.421875l0 8.765625l-1.453125 0l0 -8.765625l1.453125 0zm6.3110046 8.90625q-1.234375 0 -2.234375 -0.546875q-1.0 -0.5625 -1.578125 -1.59375q-0.5625 -1.046875 -0.5625 -2.40625q0 -1.34375 0.578125 -2.375q0.59375 -1.03125 1.59375 -1.578125q1.015625 -0.546875 2.265625 -0.546875q1.25 0 2.25 0.546875q1.015625 0.546875 1.59375 1.578125q0.578125 1.015625 0.578125 2.375q0 1.359375 -0.59375 2.40625q-0.59375 1.03125 -1.625 1.59375q-1.03125 0.546875 -2.265625 0.546875zm0 -1.28125q0.78125 0 1.46875 -0.359375q0.6875 -0.375 1.109375 -1.109375q0.421875 -0.734375 0.421875 -1.796875q0 -1.046875 -0.421875 -1.78125q-0.40625 -0.734375 -1.078125 -1.09375q-0.671875 -0.359375 -1.453125 -0.359375q-0.8125 0 -1.484375 0.359375q-0.65625 0.359375 -1.0625 1.09375q-0.390625 0.734375 -0.390625 1.78125q0 1.078125 0.390625 1.8125q0.390625 0.734375 1.046875 1.09375q0.65625 0.359375 1.453125 0.359375zm10.677521 -7.78125q1.609375 0 2.59375 0.96875q1.0 0.96875 1.0 2.78125l0 5.171875l-1.453125 0l0 -4.953125q0 -1.3125 -0.65625 -2.0q-0.640625 -0.703125 -1.78125 -0.703125q-1.15625 0 -1.84375 0.71875q-0.671875 0.71875 -0.671875 2.09375l0 4.84375l-1.453125 0l0 -8.765625l1.453125 0l0 1.25q0.4375 -0.671875 1.171875 -1.03125q0.75 -0.375 1.640625 -0.375zm17.699524 1.03125q0 1.390625 -0.953125 2.3125q-0.953125 0.921875 -2.90625 0.921875l-2.140625 0l0 4.65625l-1.453125 0l0 -11.15625l3.59375 0q1.890625 0 2.875 0.921875q0.984375 0.90625 0.984375 2.34375zm-3.859375 2.03125q1.21875 0 1.796875 -0.515625q0.578125 -0.53125 0.578125 -1.515625q0 -2.0625 -2.375 -2.0625l-2.140625 0l0 4.09375l2.140625 0zm9.498413 6.0q-1.234375 0 -2.234375 -0.546875q-1.0 -0.5625 -1.578125 -1.59375q-0.5625 -1.046875 -0.5625 -2.40625q0 -1.34375 0.578125 -2.375q0.59375 -1.03125 1.59375 -1.578125q1.015625 -0.546875 2.265625 -0.546875q1.25 0 2.25 0.546875q1.015625 0.546875 1.59375 1.578125q0.578125 1.015625 0.578125 2.375q0 1.359375 -0.59375 2.40625q-0.59375 1.03125 -1.625 1.59375q-1.03125 0.546875 -2.265625 0.546875zm0 -1.28125q0.78125 0 1.46875 -0.359375q0.6875 -0.375 1.109375 -1.109375q0.421875 -0.734375 0.421875 -1.796875q0 -1.046875 -0.421875 -1.78125q-0.40625 -0.734375 -1.078125 -1.09375q-0.671875 -0.359375 -1.453125 -0.359375q-0.8125 0 -1.484375 0.359375q-0.65625 0.359375 -1.0625 1.09375q-0.390625 0.734375 -0.390625 1.78125q0 1.078125 0.390625 1.8125q0.390625 0.734375 1.046875 1.09375q0.65625 0.359375 1.453125 0.359375zm10.240021 1.28125q-1.234375 0 -2.234375 -0.546875q-1.0 -0.5625 -1.578125 -1.59375q-0.5625 -1.046875 -0.5625 -2.40625q0 -1.34375 0.578125 -2.375q0.59375 -1.03125 1.59375 -1.578125q1.015625 -0.546875 2.265625 -0.546875q1.25 0 2.25 0.546875q1.015625 0.546875 1.59375 1.578125q0.578125 1.015625 0.578125 2.375q0 1.359375 -0.59375 2.40625q-0.59375 1.03125 -1.625 1.59375q-1.03125 0.546875 -2.265625 0.546875zm0 -1.28125q0.78125 0 1.46875 -0.359375q0.6875 -0.375 1.109375 -1.109375q0.421875 -0.734375 0.421875 -1.796875q0 -1.046875 -0.421875 -1.78125q-0.40625 -0.734375 -1.078125 -1.09375q-0.671875 -0.359375 -1.453125 -0.359375q-0.8125 0 -1.484375 0.359375q-0.65625 0.359375 -1.0625 1.09375q-0.390625 0.734375 -0.390625 1.78125q0 1.078125 0.390625 1.8125q0.390625 0.734375 1.046875 1.09375q0.65625 0.359375 1.453125 0.359375zm7.8650208 -10.703125l0 11.84375l-1.453125 0l0 -11.84375l1.453125 0z" fill-rule="nonzero"/><path fill="#000000" fill-opacity="0.0" d="m942.1368 159.79932l0 0c0 -23.486343 19.039429 -42.525787 42.525757 -42.525787l170.09808 0l0 0c11.278442 0 22.095093 4.480385 30.07019 12.455521c7.9752197 7.975128 12.455566 18.791733 12.455566 30.070267l0 333.94055c0 23.486328 -19.039429 42.525818 -42.525757 42.525818l-170.09808 0c-23.486328 0 -42.525757 -19.03949 -42.525757 -42.525818z" fill-rule="evenodd"/><path stroke="#bb8ba6" stroke-width="1.0" stroke-linejoin="round" stroke-linecap="butt" d="m942.1368 159.79932l0 0c0 -23.486343 19.039429 -42.525787 42.525757 -42.525787l170.09808 0l0 0c11.278442 0 22.095093 4.480385 30.07019 12.455521c7.9752197 7.975128 12.455566 18.791733 12.455566 30.070267l0 333.94055c0 23.486328 -19.039429 42.525818 -42.525757 42.525818l-170.09808 0c-23.486328 0 -42.525757 -19.03949 -42.525757 -42.525818z" fill-rule="evenodd"/><path fill="#ffffff" d="m1046.352 293.23584l-7.28125 25.09375l-3.671875 0l-5.828125 -20.203125l-6.046875 20.203125l-3.640625 0.03125l-7.015625 -25.125l3.484375 0l5.484375 21.28125l6.046875 -21.28125l3.671875 0l5.75 21.203125l5.515625 -21.203125l3.53125 0zm2.3703613 15.15625q0 -3.015625 1.21875 -5.296875q1.234375 -2.296875 3.375 -3.546875q2.140625 -1.265625 4.765625 -1.265625q2.59375 0 4.5 1.125q1.90625 1.109375 2.84375 2.796875l0 -3.609375l3.3125 0l0 19.734375l-3.3125 0l0 -3.671875q-0.96875 1.734375 -2.90625 2.875q-1.921875 1.125 -4.46875 1.125q-2.625 0 -4.75 -1.296875q-2.125 -1.296875 -3.359375 -3.640625q-1.21875 -2.34375 -1.21875 -5.328125zm16.703125 0.03125q0 -2.21875 -0.90625 -3.875q-0.890625 -1.65625 -2.421875 -2.53125q-1.53125 -0.890625 -3.359375 -0.890625q-1.84375 0 -3.359375 0.859375q-1.5 0.859375 -2.40625 2.515625q-0.90625 1.65625 -0.90625 3.890625q0 2.265625 0.90625 3.953125q0.90625 1.671875 2.40625 2.546875q1.515625 0.875 3.359375 0.875q1.828125 0 3.359375 -0.875q1.53125 -0.875 2.421875 -2.546875q0.90625 -1.6875 0.90625 -3.921875zm15.83606 10.234375q-2.265625 0 -4.0625 -0.765625q-1.796875 -0.78125 -2.84375 -2.171875q-1.046875 -1.390625 -1.15625 -3.1875l3.390625 0q0.140625 1.484375 1.375 2.421875q1.25 0.921875 3.265625 0.921875q1.875 0 2.953125 -0.828125q1.078125 -0.828125 1.078125 -2.078125q0 -1.296875 -1.15625 -1.921875q-1.140625 -0.640625 -3.5625 -1.25q-2.1875 -0.578125 -3.578125 -1.171875q-1.390625 -0.59375 -2.375 -1.765625q-0.984375 -1.171875 -0.984375 -3.078125q0 -1.515625 0.890625 -2.765625q0.90625 -1.265625 2.5625 -2.0q1.65625 -0.734375 3.78125 -0.734375q3.265625 0 5.28125 1.65625q2.015625 1.65625 2.171875 4.53125l-3.28125 0q-0.109375 -1.546875 -1.25 -2.484375q-1.125 -0.9375 -3.03125 -0.9375q-1.765625 0 -2.8125 0.765625q-1.046875 0.75 -1.046875 1.96875q0 0.96875 0.625 1.609375q0.640625 0.625 1.59375 1.0q0.953125 0.375 2.640625 0.84375q2.125 0.578125 3.453125 1.140625q1.34375 0.5625 2.296875 1.6875q0.953125 1.109375 0.984375 2.90625q0 1.609375 -0.90625 2.90625q-0.890625 1.296875 -2.53125 2.046875q-1.640625 0.734375 -3.765625 0.734375zm35.541992 -20.421875q2.296875 0 4.09375 0.953125q1.8125 0.953125 2.84375 2.875q1.046875 1.90625 1.046875 4.640625l0 11.625l-3.234375 0l0 -11.15625q0 -2.953125 -1.46875 -4.515625q-1.453125 -1.578125 -3.9375 -1.578125q-2.546875 0 -4.0625 1.640625q-1.515625 1.640625 -1.515625 4.734375l0 10.875l-3.234375 0l0 -11.15625q0 -2.953125 -1.46875 -4.515625q-1.453125 -1.578125 -3.9375 -1.578125q-2.546875 0 -4.0625 1.640625q-1.515625 1.640625 -1.515625 4.734375l0 10.875l-3.28125 0l0 -19.734375l3.28125 0l0 2.84375q0.96875 -1.546875 2.609375 -2.375q1.640625 -0.828125 3.625 -0.828125q2.484375 0 4.390625 1.125q1.90625 1.109375 2.84375 3.265625q0.828125 -2.078125 2.734375 -3.234375q1.90625 -1.15625 4.25 -1.15625z" fill-rule="nonzero"/><path fill="#ffffff" d="m1011.0319 361.3296l-5.96875 -10.265625l-3.96875 0l0 10.265625l-3.28125 0l0 -25.09375l8.109375 0q2.84375 0 4.796875 0.984375q1.96875 0.96875 2.9375 2.625q0.96875 1.640625 0.96875 3.765625q0 2.59375 -1.5 4.578125q-1.484375 1.984375 -4.46875 2.625l6.296875 10.515625l-3.921875 0zm-9.9375 -12.890625l4.828125 0q2.65625 0 3.984375 -1.3125q1.34375 -1.3125 1.34375 -3.515625q0 -2.21875 -1.3125 -3.4375q-1.3125 -1.234375 -4.015625 -1.234375l-4.828125 0l0 9.5zm36.10675 -6.84375l0 19.734375l-3.28125 0l0 -2.921875q-0.921875 1.515625 -2.609375 2.359375q-1.671875 0.84375 -3.6875 0.84375q-2.296875 0 -4.140625 -0.953125q-1.828125 -0.953125 -2.890625 -2.859375q-1.0625 -1.90625 -1.0625 -4.640625l0 -11.5625l3.234375 0l0 11.125q0 2.921875 1.46875 4.484375q1.484375 1.5625 4.046875 1.5625q2.625 0 4.125 -1.609375q1.515625 -1.625 1.515625 -4.71875l0 -10.84375l3.28125 0zm15.165039 -0.359375q3.59375 0 5.828125 2.1875q2.234375 2.171875 2.234375 6.28125l0 11.625l-3.25 0l0 -11.15625q0 -2.953125 -1.484375 -4.515625q-1.46875 -1.578125 -4.015625 -1.578125q-2.59375 0 -4.125 1.625q-1.53125 1.625 -1.53125 4.71875l0 10.90625l-3.28125 0l0 -19.734375l3.28125 0l0 2.8125q0.96875 -1.515625 2.640625 -2.34375q1.6875 -0.828125 3.703125 -0.828125zm17.414917 3.0625l0 11.625q0 1.453125 0.609375 2.046875q0.609375 0.59375 2.125 0.59375l2.421875 0l0 2.765625l-2.953125 0q-2.734375 0 -4.109375 -1.25q-1.375 -1.265625 -1.375 -4.15625l0 -11.625l-2.546875 0l0 -2.703125l2.546875 0l0 -4.96875l3.28125 0l0 4.96875l5.15625 0l0 2.703125l-5.15625 0zm10.807129 -5.90625q-0.9375 0 -1.59375 -0.640625q-0.640625 -0.65625 -0.640625 -1.578125q0 -0.9375 0.640625 -1.578125q0.65625 -0.65625 1.59375 -0.65625q0.890625 0 1.515625 0.65625q0.640625 0.640625 0.640625 1.578125q0 0.921875 -0.640625 1.578125q-0.625 0.640625 -1.515625 0.640625zm1.578125 3.203125l0 19.734375l-3.28125 0l0 -19.734375l3.28125 0zm29.309204 -0.359375q2.296875 0 4.09375 0.953125q1.8125 0.953125 2.84375 2.875q1.046875 1.90625 1.046875 4.640625l0 11.625l-3.234375 0l0 -11.15625q0 -2.953125 -1.46875 -4.515625q-1.453125 -1.578125 -3.9375 -1.578125q-2.546875 0 -4.0625 1.640625q-1.515625 1.640625 -1.515625 4.734375l0 10.875l-3.234375 0l0 -11.15625q0 -2.953125 -1.46875 -4.515625q-1.453125 -1.578125 -3.9375 -1.578125q-2.546875 0 -4.0625 1.640625q-1.515625 1.640625 -1.515625 4.734375l0 10.875l-3.28125 0l0 -19.734375l3.28125 0l0 2.84375q0.96875 -1.546875 2.609375 -2.375q1.640625 -0.828125 3.625 -0.828125q2.484375 0 4.390625 1.125q1.90625 1.109375 2.84375 3.265625q0.828125 -2.078125 2.734375 -3.234375q1.90625 -1.15625 4.25 -1.15625zm31.345581 9.46875q0 0.9375 -0.109375 1.984375l-15.765625 0q0.1875 2.921875 2.0 4.5625q1.828125 1.625 4.40625 1.625q2.125 0 3.546875 -0.984375q1.421875 -0.984375 2.0 -2.640625l3.53125 0q-0.796875 2.84375 -3.171875 4.625q-2.375 1.78125 -5.90625 1.78125q-2.796875 0 -5.015625 -1.265625q-2.21875 -1.265625 -3.484375 -3.578125q-1.25 -2.328125 -1.25 -5.390625q0 -3.046875 1.21875 -5.34375q1.234375 -2.3125 3.4375 -3.546875q2.21875 -1.25 5.09375 -1.25q2.8125 0 4.96875 1.21875q2.171875 1.21875 3.328125 3.375q1.171875 2.140625 1.171875 4.828125zm-3.375 -0.671875q0 -1.875 -0.828125 -3.21875q-0.828125 -1.359375 -2.25 -2.0625q-1.421875 -0.703125 -3.15625 -0.703125q-2.484375 0 -4.234375 1.59375q-1.734375 1.578125 -1.984375 4.390625l12.453125 0z" fill-rule="nonzero"/><path fill="#000000" fill-opacity="0.0" d="m274.44357 120.07938l0 0c0 -10.263138 8.319916 -18.583046 18.583038 -18.583046l295.7788 0c4.928528 0 9.655212 1.9578476 13.140198 5.442848c3.4849854 3.484993 5.44281 8.21167 5.44281 13.140198l0 74.32997c0 10.263123 -8.319885 18.583038 -18.583008 18.583038l-295.7788 0c-10.263123 0 -18.583038 -8.319916 -18.583038 -18.583038z" fill-rule="evenodd"/><path stroke="#8d3aed" stroke-width="1.0" stroke-linejoin="round" stroke-linecap="butt" d="m274.44357 120.07938l0 0c0 -10.263138 8.319916 -18.583046 18.583038 -18.583046l295.7788 0c4.928528 0 9.655212 1.9578476 13.140198 5.442848c3.4849854 3.484993 5.44281 8.21167 5.44281 13.140198l0 74.32997c0 10.263123 -8.319885 18.583038 -18.583008 18.583038l-295.7788 0c-10.263123 0 -18.583038 -8.319916 -18.583038 -18.583038z" fill-rule="evenodd"/><path fill="#ffffff" d="m388.4133 151.30623l0 12.078125l-1.578125 0l0 -5.46875l-6.15625 0l0 5.46875l-1.578125 0l0 -12.078125l1.578125 0l0 5.296875l6.15625 0l0 -5.296875l1.578125 0zm6.8191223 12.234375q-1.328125 0 -2.421875 -0.609375q-1.078125 -0.609375 -1.6875 -1.71875q-0.609375 -1.125 -0.609375 -2.59375q0 -1.453125 0.625 -2.5625q0.640625 -1.125 1.71875 -1.71875q1.09375 -0.609375 2.453125 -0.609375q1.34375 0 2.4375 0.609375q1.09375 0.59375 1.71875 1.703125q0.640625 1.109375 0.640625 2.578125q0 1.46875 -0.65625 2.59375q-0.640625 1.109375 -1.75 1.71875q-1.109375 0.609375 -2.46875 0.609375zm0 -1.390625q0.859375 0 1.59375 -0.390625q0.75 -0.40625 1.203125 -1.203125q0.46875 -0.796875 0.46875 -1.9375q0 -1.140625 -0.453125 -1.9375q-0.453125 -0.796875 -1.1875 -1.1875q-0.71875 -0.390625 -1.5625 -0.390625q-0.875 0 -1.59375 0.390625q-0.71875 0.390625 -1.15625 1.1875q-0.421875 0.796875 -0.421875 1.9375q0 1.15625 0.421875 1.953125q0.421875 0.796875 1.125 1.1875q0.71875 0.390625 1.5625 0.390625zm10.32431 1.390625q-1.09375 0 -1.96875 -0.375q-0.859375 -0.375 -1.375 -1.03125q-0.5 -0.671875 -0.546875 -1.546875l1.625 0q0.078125 0.71875 0.671875 1.171875q0.59375 0.453125 1.5625 0.453125q0.90625 0 1.421875 -0.390625q0.53125 -0.40625 0.53125 -1.015625q0 -0.625 -0.5625 -0.921875q-0.546875 -0.3125 -1.71875 -0.609375q-1.046875 -0.28125 -1.71875 -0.5625q-0.671875 -0.28125 -1.15625 -0.84375q-0.46875 -0.5625 -0.46875 -1.484375q0 -0.734375 0.4375 -1.328125q0.4375 -0.609375 1.234375 -0.96875q0.796875 -0.359375 1.8125 -0.359375q1.578125 0 2.546875 0.796875q0.96875 0.796875 1.046875 2.1875l-1.578125 0q-0.046875 -0.75 -0.59375 -1.1875q-0.546875 -0.453125 -1.46875 -0.453125q-0.84375 0 -1.359375 0.359375q-0.5 0.359375 -0.5 0.953125q0 0.46875 0.296875 0.78125q0.3125 0.296875 0.765625 0.484375q0.46875 0.171875 1.28125 0.390625q1.015625 0.28125 1.65625 0.5625q0.640625 0.265625 1.09375 0.796875q0.46875 0.53125 0.484375 1.40625q0 0.78125 -0.4375 1.40625q-0.421875 0.625 -1.21875 0.984375q-0.78125 0.34375 -1.796875 0.34375zm7.592102 -8.359375l0 5.609375q0 0.6875 0.296875 0.984375q0.296875 0.28125 1.03125 0.28125l1.15625 0l0 1.328125l-1.421875 0q-1.3125 0 -1.96875 -0.609375q-0.65625 -0.609375 -0.65625 -1.984375l0 -5.609375l-1.234375 0l0 -1.296875l1.234375 0l0 -2.390625l1.5625 0l0 2.390625l2.484375 0l0 1.296875l-2.484375 0zm15.8402405 -3.875l0 1.28125l-5.25 0l0 4.078125l4.265625 0l0 1.28125l-4.265625 0l0 5.4375l-1.578125 0l0 -12.078125l6.828125 0zm10.327087 2.578125l0 9.5l-1.578125 0l0 -1.40625q-0.4375 0.734375 -1.25 1.140625q-0.8125 0.40625 -1.78125 0.40625q-1.109375 0 -2.0 -0.453125q-0.875 -0.46875 -1.390625 -1.375q-0.5 -0.921875 -0.5 -2.25l0 -5.5625l1.5625 0l0 5.359375q0 1.40625 0.703125 2.15625q0.71875 0.75 1.9375 0.75q1.265625 0 1.984375 -0.78125q0.734375 -0.78125 0.734375 -2.265625l0 -5.21875l1.578125 0zm7.2930603 -0.171875q1.734375 0 2.8125 1.046875q1.078125 1.046875 1.078125 3.03125l0 5.59375l-1.5625 0l0 -5.375q0 -1.421875 -0.71875 -2.171875q-0.703125 -0.75 -1.9375 -0.75q-1.234375 0 -1.984375 0.78125q-0.734375 0.78125 -0.734375 2.265625l0 5.25l-1.578125 0l0 -9.5l1.578125 0l0 1.359375q0.46875 -0.734375 1.265625 -1.125q0.8125 -0.40625 1.78125 -0.40625zm5.8868103 4.90625q0 -1.46875 0.578125 -2.5625q0.59375 -1.109375 1.640625 -1.71875q1.046875 -0.609375 2.40625 -0.609375q1.75 0 2.875 0.859375q1.140625 0.84375 1.5 2.34375l-1.6875 0q-0.25 -0.859375 -0.953125 -1.359375q-0.703125 -0.5 -1.734375 -0.5q-1.359375 0 -2.1875 0.921875q-0.828125 0.921875 -0.828125 2.625q0 1.71875 0.828125 2.65625q0.828125 0.9375 2.1875 0.9375q1.03125 0 1.71875 -0.484375q0.703125 -0.5 0.96875 -1.390625l1.6875 0q-0.375 1.453125 -1.515625 2.328125q-1.140625 0.875 -2.859375 0.875q-1.359375 0 -2.40625 -0.609375q-1.046875 -0.609375 -1.640625 -1.71875q-0.578125 -1.109375 -0.578125 -2.59375zm13.018097 -3.4375l0 5.609375q0 0.6875 0.296875 0.984375q0.296875 0.28125 1.03125 0.28125l1.15625 0l0 1.328125l-1.421875 0q-1.3125 0 -1.96875 -0.609375q-0.65625 -0.609375 -0.65625 -1.984375l0 -5.609375l-1.234375 0l0 -1.296875l1.234375 0l0 -2.390625l1.5625 0l0 2.390625l2.484375 0l0 1.296875l-2.484375 0zm5.2136536 -2.828125q-0.453125 0 -0.765625 -0.3125q-0.3125 -0.3125 -0.3125 -0.765625q0 -0.453125 0.3125 -0.765625q0.3125 -0.3125 0.765625 -0.3125q0.421875 0 0.71875 0.3125q0.3125 0.3125 0.3125 0.765625q0 0.453125 -0.3125 0.765625q-0.296875 0.3125 -0.71875 0.3125zm0.75 1.53125l0 9.5l-1.578125 0l0 -9.5l1.578125 0zm6.8251953 9.65625q-1.328125 0 -2.421875 -0.609375q-1.078125 -0.609375 -1.6875 -1.71875q-0.609375 -1.125 -0.609375 -2.59375q0 -1.453125 0.625 -2.5625q0.640625 -1.125 1.71875 -1.71875q1.09375 -0.609375 2.453125 -0.609375q1.34375 0 2.4375 0.609375q1.09375 0.59375 1.71875 1.703125q0.640625 1.109375 0.640625 2.578125q0 1.46875 -0.65625 2.59375q-0.640625 1.109375 -1.75 1.71875q-1.109375 0.609375 -2.46875 0.609375zm0 -1.390625q0.859375 0 1.59375 -0.390625q0.75 -0.40625 1.203125 -1.203125q0.46875 -0.796875 0.46875 -1.9375q0 -1.140625 -0.453125 -1.9375q-0.453125 -0.796875 -1.1875 -1.1875q-0.71875 -0.390625 -1.5625 -0.390625q-0.875 0 -1.59375 0.390625q-0.71875 0.390625 -1.15625 1.1875q-0.421875 0.796875 -0.421875 1.9375q0 1.15625 0.421875 1.953125q0.421875 0.796875 1.125 1.1875q0.71875 0.390625 1.5625 0.390625zm11.57431 -8.4375q1.734375 0 2.8125 1.046875q1.078125 1.046875 1.078125 3.03125l0 5.59375l-1.5625 0l0 -5.375q0 -1.421875 -0.71875 -2.171875q-0.703125 -0.75 -1.9375 -0.75q-1.234375 0 -1.984375 0.78125q-0.734375 0.78125 -0.734375 2.265625l0 5.25l-1.578125 0l0 -9.5l1.578125 0l0 1.359375q0.46875 -0.734375 1.265625 -1.125q0.8125 -0.40625 1.78125 -0.40625zm9.839935 9.828125q-1.09375 0 -1.96875 -0.375q-0.859375 -0.375 -1.375 -1.03125q-0.5 -0.671875 -0.546875 -1.546875l1.625 0q0.078125 0.71875 0.671875 1.171875q0.59375 0.453125 1.5625 0.453125q0.90625 0 1.421875 -0.390625q0.53125 -0.40625 0.53125 -1.015625q0 -0.625 -0.5625 -0.921875q-0.546875 -0.3125 -1.71875 -0.609375q-1.046875 -0.28125 -1.71875 -0.5625q-0.671875 -0.28125 -1.15625 -0.84375q-0.46875 -0.5625 -0.46875 -1.484375q0 -0.734375 0.4375 -1.328125q0.4375 -0.609375 1.234375 -0.96875q0.796875 -0.359375 1.8125 -0.359375q1.578125 0 2.546875 0.796875q0.96875 0.796875 1.046875 2.1875l-1.578125 0q-0.046875 -0.75 -0.59375 -1.1875q-0.546875 -0.453125 -1.46875 -0.453125q-0.84375 0 -1.359375 0.359375q-0.5 0.359375 -0.5 0.953125q0 0.46875 0.296875 0.78125q0.3125 0.296875 0.765625 0.484375q0.46875 0.171875 1.28125 0.390625q1.015625 0.28125 1.65625 0.5625q0.640625 0.265625 1.09375 0.796875q0.46875 0.53125 0.484375 1.40625q0 0.78125 -0.4375 1.40625q-0.421875 0.625 -1.21875 0.984375q-0.78125 0.34375 -1.796875 0.34375z" fill-rule="nonzero"/><path fill="#000000" fill-opacity="0.0" d="m271.6378 243.44629l0 0c0 -10.76181 8.724182 -19.485962 19.485962 -19.485962l77.94147 0l0 0c5.1679993 0 10.124329 2.0529785 13.778656 5.707306c3.6543274 3.6543274 5.707306 8.610657 5.707306 13.778656l0 284.33514c0 10.761841 -8.724152 19.485962 -19.485962 19.485962l-77.94147 0c-10.76178 0 -19.485962 -8.724121 -19.485962 -19.485962z" fill-rule="evenodd"/><path stroke="#8d3aed" stroke-width="1.0" stroke-linejoin="round" stroke-linecap="butt" d="m271.6378 243.44629l0 0c0 -10.76181 8.724182 -19.485962 19.485962 -19.485962l77.94147 0l0 0c5.1679993 0 10.124329 2.0529785 13.778656 5.707306c3.6543274 3.6543274 5.707306 8.610657 5.707306 13.778656l0 284.33514c0 10.761841 -8.724152 19.485962 -19.485962 19.485962l-77.94147 0c-10.76178 0 -19.485962 -8.724121 -19.485962 -19.485962z" fill-rule="evenodd"/><path fill="#ffffff" d="m293.7696 385.63263q0.515625 0.078125 0.9375 0.421875q0.421875 0.328125 0.65625 0.828125q0.25 0.484375 0.25 1.03125q0 0.71875 -0.359375 1.28125q-0.359375 0.5625 -1.046875 0.890625q-0.6875 0.328125 -1.625 0.328125l-3.453125 0l0 -9.296875l3.328125 0q0.9375 0 1.609375 0.328125q0.671875 0.3125 1.0 0.84375q0.328125 0.53125 0.328125 1.1875q0 0.828125 -0.453125 1.375q-0.4375 0.53125 -1.171875 0.78125zm-3.4375 -0.5l2.046875 0q0.84375 0 1.3125 -0.390625q0.46875 -0.40625 0.46875 -1.109375q0 -0.703125 -0.46875 -1.109375q-0.46875 -0.40625 -1.34375 -0.40625l-2.015625 0l0 3.015625zm2.15625 4.28125q0.90625 0 1.40625 -0.421875q0.5 -0.4375 0.5 -1.1875q0 -0.78125 -0.53125 -1.21875q-0.53125 -0.453125 -1.421875 -0.453125l-2.109375 0l0 3.28125l2.15625 0zm6.013855 -8.859375l0 9.859375l-1.203125 0l0 -9.859375l1.203125 0zm5.263092 9.984375q-1.03125 0 -1.875 -0.46875q-0.828125 -0.46875 -1.296875 -1.328125q-0.46875 -0.859375 -0.46875 -2.0q0 -1.109375 0.484375 -1.96875q0.484375 -0.859375 1.3125 -1.3125q0.84375 -0.46875 1.890625 -0.46875q1.03125 0 1.875 0.46875q0.84375 0.453125 1.328125 1.3125q0.484375 0.84375 0.484375 1.96875q0 1.140625 -0.5 2.0q-0.5 0.859375 -1.359375 1.328125q-0.84375 0.46875 -1.875 0.46875zm0 -1.078125q0.640625 0 1.21875 -0.296875q0.578125 -0.3125 0.921875 -0.921875q0.359375 -0.609375 0.359375 -1.5q0 -0.875 -0.34375 -1.484375q-0.34375 -0.609375 -0.90625 -0.90625q-0.5625 -0.3125 -1.21875 -0.3125q-0.671875 0 -1.21875 0.3125q-0.546875 0.296875 -0.890625 0.90625q-0.328125 0.609375 -0.328125 1.484375q0 0.90625 0.328125 1.515625q0.328125 0.609375 0.875 0.90625q0.546875 0.296875 1.203125 0.296875zm4.8893433 -2.71875q0 -1.125 0.453125 -1.96875q0.453125 -0.84375 1.25 -1.3125q0.8125 -0.46875 1.84375 -0.46875q1.359375 0 2.21875 0.65625q0.875 0.640625 1.15625 1.8125l-1.296875 0q-0.1875 -0.671875 -0.734375 -1.046875q-0.53125 -0.390625 -1.34375 -0.390625q-1.03125 0 -1.671875 0.71875q-0.640625 0.703125 -0.640625 2.0q0 1.328125 0.640625 2.046875q0.640625 0.71875 1.671875 0.71875q0.8125 0 1.34375 -0.375q0.53125 -0.375 0.734375 -1.0625l1.296875 0q-0.296875 1.125 -1.171875 1.796875q-0.875 0.671875 -2.203125 0.671875q-1.03125 0 -1.84375 -0.46875q-0.796875 -0.46875 -1.25 -1.3125q-0.453125 -0.859375 -0.453125 -2.015625zm12.621399 3.671875l-2.875 -3.21875l0 3.21875l-1.203125 0l0 -9.859375l1.203125 0l0 5.796875l2.8125 -3.234375l1.703125 0l-3.4375 3.625l3.4375 3.671875l-1.640625 0zm10.985046 -4.78125q0.515625 0.078125 0.9375 0.421875q0.421875 0.328125 0.65625 0.828125q0.25 0.484375 0.25 1.03125q0 0.71875 -0.359375 1.28125q-0.359375 0.5625 -1.046875 0.890625q-0.6875 0.328125 -1.625 0.328125l-3.453125 0l0 -9.296875l3.328125 0q0.9375 0 1.609375 0.328125q0.671875 0.3125 1.0 0.84375q0.328125 0.53125 0.328125 1.1875q0 0.828125 -0.453125 1.375q-0.4375 0.53125 -1.171875 0.78125zm-3.4375 -0.5l2.046875 0q0.84375 0 1.3125 -0.390625q0.46875 -0.40625 0.46875 -1.109375q0 -0.703125 -0.46875 -1.109375q-0.46875 -0.40625 -1.34375 -0.40625l-2.015625 0l0 3.015625zm2.15625 4.28125q0.90625 0 1.40625 -0.421875q0.5 -0.4375 0.5 -1.1875q0 -0.78125 -0.53125 -1.21875q-0.53125 -0.453125 -1.421875 -0.453125l-2.109375 0l0 3.28125l2.15625 0zm11.27948 -6.296875l0 7.296875l-1.203125 0l0 -1.078125q-0.359375 0.5625 -0.984375 0.875q-0.609375 0.3125 -1.359375 0.3125q-0.84375 0 -1.53125 -0.34375q-0.671875 -0.359375 -1.078125 -1.0625q-0.390625 -0.71875 -0.390625 -1.734375l0 -4.265625l1.203125 0l0 4.109375q0 1.078125 0.546875 1.65625q0.546875 0.578125 1.5 0.578125q0.96875 0 1.53125 -0.59375q0.5625 -0.59375 0.5625 -1.75l0 -4.0l1.203125 0zm2.6862183 -1.1875q-0.34375 0 -0.59375 -0.234375q-0.234375 -0.25 -0.234375 -0.59375q0 -0.34375 0.234375 -0.578125q0.25 -0.25 0.59375 -0.25q0.328125 0 0.5625 0.25q0.234375 0.234375 0.234375 0.578125q0 0.34375 -0.234375 0.59375q-0.234375 0.234375 -0.5625 0.234375zm0.578125 1.1875l0 7.296875l-1.203125 0l0 -7.296875l1.203125 0zm3.2786865 -2.5625l0 9.859375l-1.203125 0l0 -9.859375l1.203125 0zm1.622467 6.1875q0 -1.125 0.453125 -1.96875q0.453125 -0.84375 1.234375 -1.3125q0.796875 -0.46875 1.78125 -0.46875q0.859375 0 1.59375 0.390625q0.734375 0.390625 1.109375 1.03125l0 -3.859375l1.234375 0l0 9.859375l-1.234375 0l0 -1.375q-0.359375 0.65625 -1.0625 1.078125q-0.703125 0.421875 -1.65625 0.421875q-0.96875 0 -1.765625 -0.484375q-0.78125 -0.484375 -1.234375 -1.34375q-0.453125 -0.875 -0.453125 -1.96875zm6.171875 0q0 -0.8125 -0.328125 -1.421875q-0.328125 -0.625 -0.90625 -0.953125q-0.5625 -0.328125 -1.234375 -0.328125q-0.6875 0 -1.25 0.328125q-0.546875 0.3125 -0.890625 0.9375q-0.328125 0.609375 -0.328125 1.4375q0 0.828125 0.328125 1.453125q0.34375 0.625 0.890625 0.953125q0.5625 0.3125 1.25 0.3125q0.671875 0 1.234375 -0.3125q0.578125 -0.328125 0.90625 -0.953125q0.328125 -0.625 0.328125 -1.453125zm9.947266 -0.265625q0 0.359375 -0.03125 0.734375l-5.84375 0q0.0625 1.078125 0.734375 1.6875q0.671875 0.609375 1.640625 0.609375q0.78125 0 1.3125 -0.359375q0.53125 -0.375 0.734375 -0.984375l1.3125 0q-0.296875 1.046875 -1.1875 1.71875q-0.875 0.65625 -2.171875 0.65625q-1.046875 0 -1.875 -0.46875q-0.8125 -0.46875 -1.28125 -1.328125q-0.453125 -0.859375 -0.453125 -2.0q0 -1.125 0.453125 -1.96875q0.453125 -0.859375 1.265625 -1.3125q0.828125 -0.46875 1.890625 -0.46875q1.03125 0 1.828125 0.453125q0.8125 0.453125 1.234375 1.25q0.4375 0.78125 0.4375 1.78125zm-1.25 -0.25q0 -0.6875 -0.3125 -1.1875q-0.296875 -0.5 -0.828125 -0.75q-0.53125 -0.265625 -1.171875 -0.265625q-0.90625 0 -1.5625 0.59375q-0.640625 0.578125 -0.734375 1.609375l4.609375 0zm4.0603027 -1.9375q0.328125 -0.625 0.921875 -0.96875q0.59375 -0.34375 1.4375 -0.34375l0 1.25l-0.3125 0q-2.046875 0 -2.046875 2.21875l0 3.96875l-1.203125 0l0 -7.296875l1.203125 0l0 1.171875z" fill-rule="nonzero"/><path fill="#000000" fill-opacity="0.0" d="m659.70135 266.48438l0 0c0 -23.486359 19.039429 -42.525803 42.525757 -42.525803l170.09808 0l0 0c11.278503 0 22.095093 4.4803925 30.070251 12.455521c7.9750977 7.975128 12.455505 18.791733 12.455505 30.070282l0 227.29486c0 23.486328 -19.039429 42.525818 -42.525757 42.525818l-170.09808 0c-23.486328 0 -42.525757 -19.03949 -42.525757 -42.525818z" fill-rule="evenodd"/><path stroke="#bb8ba6" stroke-width="1.0" stroke-linejoin="round" stroke-linecap="butt" d="m659.70135 266.48438l0 0c0 -23.486359 19.039429 -42.525803 42.525757 -42.525803l170.09808 0l0 0c11.278503 0 22.095093 4.4803925 30.070251 12.455521c7.9750977 7.975128 12.455505 18.791733 12.455505 30.070282l0 227.29486c0 23.486328 -19.039429 42.525818 -42.525757 42.525818l-170.09808 0c-23.486328 0 -42.525757 -19.03949 -42.525757 -42.525818z" fill-rule="evenodd"/><path fill="#ffffff" d="m718.8423 388.45178l-3.703125 -6.71875l-1.03125 0l0 6.71875l-4.328125 0l0 -17.78125l7.265625 0q2.09375 0 3.578125 0.734375q1.484375 0.734375 2.21875 2.015625q0.734375 1.28125 0.734375 2.84375q0 1.78125 -1.0 3.171875q-1.0 1.390625 -2.953125 1.96875l4.109375 7.046875l-4.890625 0zm-4.734375 -9.78125l2.6875 0q1.1875 0 1.78125 -0.578125q0.59375 -0.578125 0.59375 -1.640625q0 -1.015625 -0.59375 -1.59375q-0.59375 -0.59375 -1.78125 -0.59375l-2.6875 0l0 4.40625zm26.138916 -4.359375l0 14.140625l-4.34375 0l0 -1.921875q-0.65625 0.9375 -1.78125 1.515625q-1.125 0.5625 -2.484375 0.5625q-1.625 0 -2.875 -0.71875q-1.234375 -0.734375 -1.921875 -2.09375q-0.6875 -1.375 -0.6875 -3.21875l0 -8.265625l4.3125 0l0 7.6875q0 1.40625 0.734375 2.203125q0.734375 0.78125 1.96875 0.78125q1.265625 0 2.0 -0.78125q0.734375 -0.796875 0.734375 -2.203125l0 -7.6875l4.34375 0zm11.727478 -0.140625q2.484375 0 3.953125 1.609375q1.484375 1.609375 1.484375 4.421875l0 8.25l-4.296875 0l0 -7.671875q0 -1.421875 -0.734375 -2.203125q-0.734375 -0.78125 -1.984375 -0.78125q-1.234375 0 -1.96875 0.78125q-0.734375 0.78125 -0.734375 2.203125l0 7.671875l-4.328125 0l0 -14.140625l4.328125 0l0 1.875q0.65625 -0.9375 1.765625 -1.46875q1.109375 -0.546875 2.515625 -0.546875zm16.336792 10.609375l0 3.671875l-2.203125 0q-2.359375 0 -3.6875 -1.15625q-1.3125 -1.15625 -1.3125 -3.75l0 -5.625l-1.71875 0l0 -3.609375l1.71875 0l0 -3.4375l4.328125 0l0 3.4375l2.84375 0l0 3.609375l-2.84375 0l0 5.671875q0 0.625 0.296875 0.90625q0.3125 0.28125 1.03125 0.28125l1.546875 0zm4.580078 -11.9375q-1.140625 0 -1.859375 -0.65625q-0.71875 -0.671875 -0.71875 -1.671875q0 -1.015625 0.71875 -1.671875q0.71875 -0.671875 1.859375 -0.671875q1.109375 0 1.828125 0.671875q0.734375 0.65625 0.734375 1.671875q0 1.0 -0.734375 1.671875q-0.71875 0.65625 -1.828125 0.65625zm2.15625 1.46875l0 14.140625l-4.328125 0l0 -14.140625l4.328125 0zm21.174927 -0.140625q2.625 0 4.1875 1.59375q1.5625 1.59375 1.5625 4.4375l0 8.25l-4.3125 0l0 -7.671875q0 -1.375 -0.71875 -2.109375q-0.71875 -0.75 -1.984375 -0.75q-1.265625 0 -2.0 0.75q-0.71875 0.734375 -0.71875 2.109375l0 7.671875l-4.296875 0l0 -7.671875q0 -1.375 -0.734375 -2.109375q-0.71875 -0.75 -1.984375 -0.75q-1.265625 0 -1.984375 0.75q-0.71875 0.734375 -0.71875 2.109375l0 7.671875l-4.328125 0l0 -14.140625l4.328125 0l0 1.78125q0.65625 -0.890625 1.71875 -1.40625q1.0625 -0.515625 2.40625 -0.515625q1.59375 0 2.84375 0.6875q1.265625 0.671875 1.96875 1.9375q0.734375 -1.15625 2.0 -1.890625q1.265625 -0.734375 2.765625 -0.734375zm22.10382 6.984375q0 0.609375 -0.078125 1.265625l-9.796875 0q0.09375 1.3125 0.84375 2.015625q0.75 0.703125 1.84375 0.703125q1.625 0 2.25 -1.375l4.609375 0q-0.359375 1.390625 -1.28125 2.515625q-0.921875 1.109375 -2.3125 1.75q-1.390625 0.625 -3.109375 0.625q-2.078125 0 -3.703125 -0.890625q-1.625 -0.890625 -2.546875 -2.53125q-0.90625 -1.640625 -0.90625 -3.84375q0 -2.203125 0.890625 -3.84375q0.90625 -1.65625 2.53125 -2.53125q1.625 -0.890625 3.734375 -0.890625q2.046875 0 3.640625 0.859375q1.59375 0.859375 2.484375 2.453125q0.90625 1.59375 0.90625 3.71875zm-4.4375 -1.140625q0 -1.109375 -0.765625 -1.765625q-0.75 -0.65625 -1.890625 -0.65625q-1.078125 0 -1.828125 0.640625q-0.75 0.625 -0.921875 1.78125l5.40625 0zm23.15918 5.296875l-6.640625 0l-1.0625 3.140625l-4.53125 0l6.4375 -17.78125l5.015625 0l6.421875 17.78125l-4.578125 0l-1.0625 -3.140625zm-1.109375 -3.34375l-2.203125 -6.515625l-2.1875 6.515625l4.390625 0zm22.26062 -5.578125q0 1.546875 -0.71875 2.828125q-0.703125 1.28125 -2.171875 2.078125q-1.46875 0.78125 -3.640625 0.78125l-2.6875 0l0 6.375l-4.328125 0l0 -17.78125l7.015625 0q2.125 0 3.59375 0.734375q1.46875 0.734375 2.203125 2.03125q0.734375 1.28125 0.734375 2.953125zm-6.875 2.234375q1.25 0 1.859375 -0.578125q0.609375 -0.59375 0.609375 -1.65625q0 -1.0625 -0.609375 -1.640625q-0.609375 -0.578125 -1.859375 -0.578125l-2.34375 0l0 4.453125l2.34375 0zm13.460999 -7.953125l0 17.78125l-4.328125 0l0 -17.78125l4.328125 0z" fill-rule="nonzero"/><path fill="#000000" fill-opacity="0.0" d="m940.263 143.86906l-332.9322 0" fill-rule="evenodd"/><path stroke="#bb8ba6" stroke-width="1.0" stroke-linejoin="round" stroke-linecap="butt" d="m940.26306 143.86906l-326.93225 0" fill-rule="evenodd"/><path fill="#bb8ba6" stroke="#bb8ba6" stroke-width="1.0" stroke-linecap="butt" d="m613.3308 142.21733l-4.538086 1.6517334l4.538086 1.6517334z" fill-rule="evenodd"/><path fill="#000000" fill-opacity="0.0" d="m940.263 154.79066l-332.9322 0" fill-rule="evenodd"/><path stroke="#bb8ba6" stroke-width="1.0" stroke-linejoin="round" stroke-linecap="butt" d="m940.26306 154.79066l-326.93225 0" fill-rule="evenodd"/><path fill="#bb8ba6" stroke="#bb8ba6" stroke-width="1.0" stroke-linecap="butt" d="m613.3308 153.13895l-4.538086 1.6517181l4.538086 1.6517334z" fill-rule="evenodd"/><path fill="#000000" fill-opacity="0.0" d="m940.263 165.71227l-332.9322 0" fill-rule="evenodd"/><path stroke="#bb8ba6" stroke-width="1.0" stroke-linejoin="round" stroke-linecap="butt" d="m940.26306 165.71227l-326.93225 0" fill-rule="evenodd"/><path fill="#bb8ba6" stroke="#bb8ba6" stroke-width="1.0" stroke-linecap="butt" d="m613.3308 164.06053l-4.538086 1.6517334l4.538086 1.6517334z" fill-rule="evenodd"/><path fill="#000000" fill-opacity="0.0" d="m940.263 176.63387l-332.9322 0" fill-rule="evenodd"/><path stroke="#bb8ba6" stroke-width="1.0" stroke-linejoin="round" stroke-linecap="butt" d="m940.26306 176.63387l-326.93225 0" fill-rule="evenodd"/><path fill="#bb8ba6" stroke="#bb8ba6" stroke-width="1.0" stroke-linecap="butt" d="m613.3308 174.98213l-4.538086 1.6517334l4.538086 1.6517181z" fill-rule="evenodd"/><path fill="#000000" fill-opacity="0.0" d="m403.8504 257.86966l0 0c0 -18.72876 15.182648 -33.911438 33.911438 -33.911438l135.64166 0l0 0c8.9938965 0 17.619385 3.5727997 23.979004 9.932434c6.35968 6.3596344 9.932434 14.985138 9.932434 23.979004l0 255.48422c0 18.72876 -15.182678 33.911438 -33.911438 33.911438l-135.64166 0c-18.72879 0 -33.911438 -15.182678 -33.911438 -33.911438z" fill-rule="evenodd"/><path stroke="#8d3aed" stroke-width="1.0" stroke-linejoin="round" stroke-linecap="butt" d="m403.8504 257.86966l0 0c0 -18.72876 15.182648 -33.911438 33.911438 -33.911438l135.64166 0l0 0c8.9938965 0 17.619385 3.5727997 23.979004 9.932434c6.35968 6.3596344 9.932434 14.985138 9.932434 23.979004l0 255.48422c0 18.72876 -15.182678 33.911438 -33.911438 33.911438l-135.64166 0c-18.72879 0 -33.911438 -15.182678 -33.911438 -33.911438z" fill-rule="evenodd"/><path fill="#000000" fill-opacity="0.0" d="m505.58267 271.05734l0 0l0 25.992035l0 0l0 -25.992035z" fill-rule="nonzero"/><path fill="#000000" fill-opacity="0.0" d="m505.58267 292.05734l0 0l0 25.992035l0 0l0 -25.992035z" fill-rule="nonzero"/><path fill="#000000" fill-opacity="0.0" d="m505.58267 313.05734l0 0l0 25.992035l0 0l0 -25.992035z" fill-rule="nonzero"/><path fill="#000000" fill-opacity="0.0" d="m505.58267 334.05734l0 0l0 25.992035l0 0l0 -25.992035z" fill-rule="nonzero"/><path fill="#000000" fill-opacity="0.0" d="m505.58267 355.05734l0 0l0 25.992035l0 0l0 -25.992035z" fill-rule="nonzero"/><path fill="#000000" fill-opacity="0.0" d="m505.58267 376.05734l0 0l0 25.992035l0 0l0 -25.992035z" fill-rule="nonzero"/><path fill="#000000" fill-opacity="0.0" d="m505.58267 397.05734l0 0l0 25.992035l0 0l0 -25.992035z" fill-rule="nonzero"/><path fill="#000000" fill-opacity="0.0" d="m505.58267 418.05734l0 0l0 25.992035l0 0l0 -25.992035z" fill-rule="nonzero"/><path fill="#000000" fill-opacity="0.0" d="m458.7948 438.45184l93.575745 0l0 35.999878l-93.575745 0l0 -35.999878z" fill-rule="nonzero"/><path fill="#ffffff" d="m470.76355 460.683l-6.28125 0l-1.0 2.96875l-4.296875 0l6.09375 -16.84375l4.75 0l6.09375 16.84375l-4.34375 0l-1.015625 -2.96875zm-1.046875 -3.171875l-2.09375 -6.171875l-2.0625 6.171875l4.15625 0zm21.094208 -5.28125q0 1.46875 -0.671875 2.6875q-0.671875 1.203125 -2.0625 1.953125q-1.390625 0.734375 -3.453125 0.734375l-2.546875 0l0 6.046875l-4.109375 0l0 -16.84375l6.65625 0q2.015625 0 3.40625 0.703125q1.390625 0.6875 2.078125 1.90625q0.703125 1.21875 0.703125 2.8125zm-6.5 2.109375q1.171875 0 1.75 -0.546875q0.578125 -0.5625 0.578125 -1.5625q0 -1.015625 -0.578125 -1.5625q-0.578125 -0.546875 -1.75 -0.546875l-2.234375 0l0 4.21875l2.234375 0zm12.741577 -7.53125l0 16.84375l-4.109375 0l0 -16.84375l4.109375 0zm7.3710938 8.390625q0 -2.484375 1.078125 -4.4375q1.078125 -1.96875 3.0 -3.0625q1.9375 -1.09375 4.3905945 -1.09375q3.0 0 5.125 1.59375q2.140625 1.578125 2.859375 4.3125l-4.5 0q-0.515625 -1.046875 -1.4375 -1.59375q-0.921875 -0.5625 -2.09375 -0.5625q-1.9062195 0 -3.0780945 1.328125q-1.171875 1.3125 -1.171875 3.515625q0 2.21875 1.171875 3.546875q1.171875 1.3125 3.0780945 1.3125q1.171875 0 2.09375 -0.546875q0.921875 -0.5625 1.4375 -1.625l4.5 0q-0.71875 2.734375 -2.859375 4.3125q-2.125 1.578125 -5.125 1.578125q-2.4530945 0 -4.3905945 -1.09375q-1.921875 -1.09375 -3.0 -3.03125q-1.078125 -1.953125 -1.078125 -4.453125zm18.162933 1.734375q0 -2.0625 0.78125 -3.625q0.78125 -1.5625 2.125 -2.390625q1.34375 -0.84375 3.0 -0.84375q1.40625 0 2.46875 0.578125q1.078125 0.5625 1.65625 1.5l0 -1.890625l4.109375 0l0 13.390625l-4.109375 0l0 -1.890625q-0.59375 0.9375 -1.671875 1.515625q-1.0625 0.5625 -2.484375 0.5625q-1.625 0 -2.96875 -0.84375q-1.34375 -0.859375 -2.125 -2.421875q-0.78125 -1.578125 -0.78125 -3.640625zm10.03125 0.015625q0 -1.53125 -0.859375 -2.421875q-0.84375 -0.890625 -2.0625 -0.890625q-1.234375 0 -2.09375 0.890625q-0.84375 0.875 -0.84375 2.40625q0 1.53125 0.84375 2.4375q0.859375 0.890625 2.09375 0.890625q1.21875 0 2.0625 -0.875q0.859375 -0.890625 0.859375 -2.4375zm11.186584 -11.0625l0 17.765625l-4.109375 0l0 -17.765625l4.109375 0zm7.079956 0l0 17.765625l-4.109375 0l0 -17.765625l4.109375 0z" fill-rule="nonzero"/><path fill="#000000" fill-opacity="0.0" d="m552.37054 438.45184l5.0879517 0l0 35.999878l-5.0879517 0l0 -35.999878z" fill-rule="nonzero"/><path fill="#ffffff" d="m458.7948 465.21176l93.575745 0l0 2.1600037l-93.575745 0l0 -2.1600037z" fill-rule="nonzero"/><path fill="#000000" fill-opacity="0.0" d="m451.64285 467.45184l107.87967 0l0 35.99991l-107.87967 0l0 -35.99991z" fill-rule="nonzero"/><path fill="#ffffff" d="m457.2366 479.08926l0 3.40625l5.5 0l0 3.171875l-5.5 0l0 3.703125l6.21875 0l0 3.28125l-10.328125 0l0 -16.84375l10.328125 0l0 3.28125l-6.21875 0zm16.796448 13.5625l-2.5625 -3.71875l-2.15625 3.71875l-4.453125 0l4.421875 -6.84375l-4.53125 -6.546875l4.609375 0l2.5625 3.6875l2.15625 -3.6875l4.4375 0l-4.484375 6.75l4.609375 6.640625l-4.609375 0zm18.815094 -6.90625q0 0.5625 -0.0625 1.1875l-9.296875 0q0.09375 1.25 0.796875 1.921875q0.71875 0.65625 1.75 0.65625q1.53125 0 2.140625 -1.296875l4.359375 0q-0.328125 1.3125 -1.203125 2.375q-0.875 1.046875 -2.203125 1.65625q-1.3125 0.59375 -2.953125 0.59375q-1.96875 0 -3.5 -0.828125q-1.53125 -0.84375 -2.40625 -2.40625q-0.859375 -1.5625 -0.859375 -3.65625q0 -2.078125 0.84375 -3.640625q0.859375 -1.5625 2.390625 -2.390625q1.546875 -0.84375 3.53125 -0.84375q1.953125 0 3.453125 0.8125q1.515625 0.8125 2.359375 2.328125q0.859375 1.515625 0.859375 3.53125zm-4.203125 -1.078125q0 -1.0625 -0.71875 -1.6875q-0.71875 -0.625 -1.796875 -0.625q-1.03125 0 -1.75 0.609375q-0.703125 0.59375 -0.859375 1.703125l5.125 0zm5.5495605 1.28125q0 -2.078125 0.84375 -3.640625q0.859375 -1.5625 2.375 -2.390625q1.53125 -0.84375 3.5 -0.84375q2.515625 0 4.203125 1.328125q1.703125 1.3125 2.234375 3.703125l-4.375 0q-0.546875 -1.53125 -2.140625 -1.53125q-1.125 0 -1.796875 0.875q-0.671875 0.875 -0.671875 2.5q0 1.640625 0.671875 2.515625q0.671875 0.875 1.796875 0.875q1.59375 0 2.140625 -1.53125l4.375 0q-0.53125 2.34375 -2.234375 3.6875q-1.703125 1.34375 -4.203125 1.34375q-1.96875 0 -3.5 -0.828125q-1.515625 -0.84375 -2.375 -2.40625q-0.84375 -1.5625 -0.84375 -3.65625zm28.566833 -6.6875l0 13.390625l-4.109375 0l0 -1.828125q-0.625 0.890625 -1.703125 1.4375q-1.0625 0.53125 -2.359375 0.53125q-1.53125 0 -2.71875 -0.671875q-1.171875 -0.6875 -1.8125 -1.984375q-0.640625 -1.296875 -0.640625 -3.046875l0 -7.828125l4.078125 0l0 7.265625q0 1.34375 0.6875 2.09375q0.703125 0.75 1.875 0.75q1.203125 0 1.890625 -0.75q0.703125 -0.75 0.703125 -2.09375l0 -7.265625l4.109375 0zm10.410339 9.90625l0 3.484375l-2.09375 0q-2.234375 0 -3.484375 -1.09375q-1.234375 -1.09375 -1.234375 -3.5625l0 -5.328125l-1.640625 0l0 -3.40625l1.640625 0l0 -3.265625l4.09375 0l0 3.265625l2.6875 0l0 3.40625l-2.6875 0l0 5.375q0 0.59375 0.28125 0.859375q0.296875 0.265625 0.96875 0.265625l1.46875 0zm8.3689575 3.671875q-1.96875 0 -3.546875 -0.828125q-1.5625 -0.84375 -2.46875 -2.40625q-0.890625 -1.5625 -0.890625 -3.65625q0 -2.0625 0.90625 -3.625q0.921875 -1.578125 2.5 -2.40625q1.578125 -0.84375 3.546875 -0.84375q1.96875 0 3.546875 0.84375q1.59375 0.828125 2.5 2.40625q0.921875 1.5625 0.921875 3.625q0 2.078125 -0.921875 3.65625q-0.921875 1.5625 -2.53125 2.40625q-1.59375 0.828125 -3.5625 0.828125zm0 -3.546875q1.1875 0 2.015625 -0.859375q0.828125 -0.875 0.828125 -2.484375q0 -1.59375 -0.8125 -2.453125q-0.796875 -0.875 -1.984375 -0.875q-1.1875 0 -1.984375 0.859375q-0.796875 0.84375 -0.796875 2.46875q0 1.609375 0.78125 2.484375q0.78125 0.859375 1.953125 0.859375zm13.303589 -7.796875q0.71875 -1.109375 1.796875 -1.734375q1.078125 -0.640625 2.40625 -0.640625l0 4.34375l-1.140625 0q-1.53125 0 -2.296875 0.65625q-0.765625 0.65625 -0.765625 2.3125l0 6.21875l-4.109375 0l0 -13.390625l4.109375 0l0 2.234375z" fill-rule="nonzero"/><path fill="#010000" fill-opacity="0.0" d="m559.5225 467.45184l0 0l0 35.99991l0 0l0 -35.99991z" fill-rule="nonzero"/><path fill="#ffffff" d="m451.64285 494.21176l107.87967 0l0 2.1600037l-107.87967 0l0 -2.1600037z" fill-rule="nonzero"/><path fill="#000000" fill-opacity="0.0" d="m532.7498 407.33466l0 -63.768555" fill-rule="evenodd"/><path stroke="#8d3aed" stroke-width="1.0" stroke-linejoin="round" stroke-linecap="butt" d="m532.7498 407.33466l0 -57.768555" fill-rule="evenodd"/><path fill="#8d3aed" stroke="#8d3aed" stroke-width="1.0" stroke-linecap="butt" d="m534.40155 349.5661l-1.6517334 -4.538086l-1.6517334 4.538086z" fill-rule="evenodd"/><path fill="#000000" fill-opacity="0.0" d="m516.8546 407.33466l0 -63.768555" fill-rule="evenodd"/><path stroke="#8d3aed" stroke-width="1.0" stroke-linejoin="round" stroke-linecap="butt" d="m516.8546 407.33466l0 -57.768555" fill-rule="evenodd"/><path fill="#8d3aed" stroke="#8d3aed" stroke-width="1.0" stroke-linecap="butt" d="m518.50635 349.5661l-1.6517334 -4.538086l-1.6517334 4.538086z" fill-rule="evenodd"/><path fill="#000000" fill-opacity="0.0" d="m500.9594 407.33466l0 -63.768555" fill-rule="evenodd"/><path stroke="#8d3aed" stroke-width="1.0" stroke-linejoin="round" stroke-linecap="butt" d="m500.9594 407.33466l0 -57.768555" fill-rule="evenodd"/><path fill="#8d3aed" stroke="#8d3aed" stroke-width="1.0" stroke-linecap="butt" d="m502.61115 349.5661l-1.6517334 -4.538086l-1.6517334 4.538086z" fill-rule="evenodd"/><path fill="#000000" fill-opacity="0.0" d="m485.0642 407.33466l0 -63.768555" fill-rule="evenodd"/><path stroke="#8d3aed" stroke-width="1.0" stroke-linejoin="round" stroke-linecap="butt" d="m485.06418 407.33466l0 -57.768555" fill-rule="evenodd"/><path fill="#8d3aed" stroke="#8d3aed" stroke-width="1.0" stroke-linecap="butt" d="m486.7159 349.5661l-1.6517334 -4.538086l-1.6517334 4.538086z" fill-rule="evenodd"/><path fill="#000000" fill-opacity="0.0" d="m425.3058 277.3573l0 0c0 -9.758667 7.9109497 -17.669647 17.669617 -17.669647l131.8418 0c4.6863403 0 9.180664 1.8616333 12.494385 5.1753235c3.3136597 3.3137207 5.175293 7.8080444 5.175293 12.494324l0 70.67648c0 9.758667 -7.9109497 17.669617 -17.669678 17.669617l-131.8418 0c-9.758667 0 -17.669617 -7.9109497 -17.669617 -17.669617z" fill-rule="evenodd"/><path stroke="#8d3aed" stroke-width="1.0" stroke-linejoin="round" stroke-linecap="butt" d="m425.3058 277.3573l0 0c0 -9.758667 7.9109497 -17.669647 17.669617 -17.669647l131.8418 0c4.6863403 0 9.180664 1.8616333 12.494385 5.1753235c3.3136597 3.3137207 5.175293 7.8080444 5.175293 12.494324l0 70.67648c0 9.758667 -7.9109497 17.669617 -17.669678 17.669617l-131.8418 0c-9.758667 0 -17.669617 -7.9109497 -17.669617 -17.669617z" fill-rule="evenodd"/><path fill="#000000" fill-opacity="0.0" d="m468.40845 281.5356l80.97577 0l0 35.999878l-80.97577 0l0 -35.999878z" fill-rule="nonzero"/><path fill="#ffffff" d="m484.97095 306.73553l-4.109375 0l-6.859375 -10.390625l0 10.390625l-4.109375 0l0 -16.84375l4.109375 0l6.859375 10.4375l0 -10.4375l4.109375 0l0 16.84375zm2.157318 -6.71875q0 -2.0625 0.78125 -3.625q0.78125 -1.5625 2.125 -2.390625q1.34375 -0.84375 3.0 -0.84375q1.40625 0 2.46875 0.578125q1.078125 0.5625 1.65625 1.5l0 -1.890625l4.109375 0l0 13.390625l-4.109375 0l0 -1.890625q-0.59375 0.9375 -1.671875 1.515625q-1.0625 0.5625 -2.484375 0.5625q-1.625 0 -2.96875 -0.84375q-1.34375 -0.859375 -2.125 -2.421875q-0.78125 -1.578125 -0.78125 -3.640625zm10.03125 0.015625q0 -1.53125 -0.859375 -2.421875q-0.84375 -0.890625 -2.0625 -0.890625q-1.234375 0 -2.09375 0.890625q-0.84375 0.875 -0.84375 2.40625q0 1.53125 0.84375 2.4375q0.859375 0.890625 2.09375 0.890625q1.21875 0 2.0625 -0.875q0.859375 -0.890625 0.859375 -2.4375zm14.545959 3.21875l0 3.484375l-2.09375 0q-2.234375 0 -3.484375 -1.09375q-1.234375 -1.09375 -1.234375 -3.5625l0 -5.328125l-1.640625 0l0 -3.40625l1.640625 0l0 -3.265625l4.09375 0l0 3.265625l2.6875 0l0 3.40625l-2.6875 0l0 5.375q0 0.59375 0.28125 0.859375q0.296875 0.265625 0.96875 0.265625l1.46875 0zm4.337738 -11.296875q-1.078125 0 -1.765625 -0.640625q-0.671875 -0.640625 -0.671875 -1.5625q0 -0.96875 0.671875 -1.59375q0.6875 -0.640625 1.765625 -0.640625q1.0625 0 1.734375 0.640625q0.6875 0.625 0.6875 1.59375q0 0.921875 -0.6875 1.5625q-0.671875 0.640625 -1.734375 0.640625zm2.046875 1.390625l0 13.390625l-4.109375 0l0 -13.390625l4.109375 0zm9.001831 9.546875l2.90625 -9.546875l4.359375 0l-4.75 13.390625l-5.0625 0l-4.75 -13.390625l4.390625 0l2.90625 9.546875zm21.617737 -3.0625q0 0.5625 -0.0625 1.1875l-9.296875 0q0.09375 1.25 0.796875 1.921875q0.71875 0.65625 1.75 0.65625q1.53125 0 2.140625 -1.296875l4.359375 0q-0.328125 1.3125 -1.203125 2.375q-0.875 1.046875 -2.203125 1.65625q-1.3125 0.59375 -2.953125 0.59375q-1.96875 0 -3.5 -0.828125q-1.53125 -0.84375 -2.40625 -2.40625q-0.859375 -1.5625 -0.859375 -3.65625q0 -2.078125 0.84375 -3.640625q0.859375 -1.5625 2.390625 -2.390625q1.546875 -0.84375 3.53125 -0.84375q1.953125 0 3.453125 0.8125q1.515625 0.8125 2.359375 2.328125q0.859375 1.515625 0.859375 3.53125zm-4.203125 -1.078125q0 -1.0625 -0.71875 -1.6875q-0.71875 -0.625 -1.796875 -0.625q-1.03125 0 -1.75 0.609375q-0.703125 0.59375 -0.859375 1.703125l5.125 0z" fill-rule="nonzero"/><path fill="#000000" fill-opacity="0.0" d="m549.3842 281.5356l5.0879517 0l0 35.999878l-5.0879517 0l0 -35.999878z" fill-rule="nonzero"/><path fill="#ffffff" d="m468.40845 308.29553l80.97577 0l0 2.1600037l-80.97577 0l0 -2.1600037z" fill-rule="nonzero"/><path fill="#000000" fill-opacity="0.0" d="m456.3845 310.5356l105.02365 0l0 35.999878l-105.02365 0l0 -35.999878z" fill-rule="nonzero"/><path fill="#ffffff" d="m466.46262 335.73553l-3.5 -6.359375l-0.984375 0l0 6.359375l-4.109375 0l0 -16.84375l6.890625 0q2.0 0 3.390625 0.703125q1.40625 0.6875 2.09375 1.90625q0.703125 1.203125 0.703125 2.6875q0 1.6875 -0.953125 3.015625q-0.9375 1.3125 -2.78125 1.859375l3.890625 6.671875l-4.640625 0zm-4.484375 -9.265625l2.546875 0q1.125 0 1.6875 -0.546875q0.5625 -0.5625 0.5625 -1.5625q0 -0.96875 -0.5625 -1.515625q-0.5625 -0.546875 -1.6875 -0.546875l-2.546875 0l0 4.171875zm24.77295 -4.125l0 13.390625l-4.109375 0l0 -1.828125q-0.625 0.890625 -1.703125 1.4375q-1.0625 0.53125 -2.359375 0.53125q-1.53125 0 -2.71875 -0.671875q-1.171875 -0.6875 -1.8125 -1.984375q-0.640625 -1.296875 -0.640625 -3.046875l0 -7.828125l4.078125 0l0 7.265625q0 1.34375 0.6875 2.09375q0.703125 0.75 1.875 0.75q1.203125 0 1.890625 -0.75q0.703125 -0.75 0.703125 -2.09375l0 -7.265625l4.109375 0zm11.097809 -0.140625q2.359375 0 3.765625 1.53125q1.40625 1.515625 1.40625 4.171875l0 7.828125l-4.078125 0l0 -7.265625q0 -1.34375 -0.703125 -2.09375q-0.6875 -0.75 -1.875 -0.75q-1.171875 0 -1.875 0.75q-0.6875 0.75 -0.6875 2.09375l0 7.265625l-4.109375 0l0 -13.390625l4.109375 0l0 1.78125q0.625 -0.890625 1.671875 -1.40625q1.0625 -0.515625 2.375 -0.515625zm15.488464 10.046875l0 3.484375l-2.09375 0q-2.234375 0 -3.484375 -1.09375q-1.234375 -1.09375 -1.234375 -3.5625l0 -5.328125l-1.640625 0l0 -3.40625l1.640625 0l0 -3.265625l4.09375 0l0 3.265625l2.6875 0l0 3.40625l-2.6875 0l0 5.375q0 0.59375 0.28125 0.859375q0.296875 0.265625 0.96875 0.265625l1.46875 0zm4.3377075 -11.296875q-1.078125 0 -1.765625 -0.640625q-0.671875 -0.640625 -0.671875 -1.5625q0 -0.96875 0.671875 -1.59375q0.6875 -0.640625 1.765625 -0.640625q1.0625 0 1.734375 0.640625q0.6875 0.625 0.6875 1.59375q0 0.921875 -0.6875 1.5625q-0.671875 0.640625 -1.734375 0.640625zm2.046875 1.390625l0 13.390625l-4.109375 0l0 -13.390625l4.109375 0zm20.064392 -0.140625q2.5 0 3.96875 1.515625q1.484375 1.5 1.484375 4.1875l0 7.828125l-4.09375 0l0 -7.265625q0 -1.296875 -0.6875 -2.0q-0.671875 -0.71875 -1.875 -0.71875q-1.203125 0 -1.890625 0.71875q-0.671875 0.703125 -0.671875 2.0l0 7.265625l-4.078125 0l0 -7.265625q0 -1.296875 -0.6875 -2.0q-0.6875 -0.71875 -1.890625 -0.71875q-1.203125 0 -1.890625 0.71875q-0.671875 0.703125 -0.671875 2.0l0 7.265625l-4.109375 0l0 -13.390625l4.109375 0l0 1.671875q0.625 -0.828125 1.625 -1.3125q1.015625 -0.5 2.28125 -0.5q1.515625 0 2.703125 0.65625q1.1875 0.640625 1.859375 1.828125q0.703125 -1.09375 1.890625 -1.78125q1.203125 -0.703125 2.625 -0.703125zm20.947144 6.625q0 0.5625 -0.0625 1.1875l-9.296875 0q0.09375 1.25 0.796875 1.921875q0.71875 0.65625 1.75 0.65625q1.53125 0 2.140625 -1.296875l4.359375 0q-0.328125 1.3125 -1.203125 2.375q-0.875 1.046875 -2.203125 1.65625q-1.3125 0.59375 -2.953125 0.59375q-1.96875 0 -3.5 -0.828125q-1.53125 -0.84375 -2.40625 -2.40625q-0.859375 -1.5625 -0.859375 -3.65625q0 -2.078125 0.84375 -3.640625q0.859375 -1.5625 2.390625 -2.390625q1.546875 -0.84375 3.53125 -0.84375q1.953125 0 3.453125 0.8125q1.515625 0.8125 2.359375 2.328125q0.859375 1.515625 0.859375 3.53125zm-4.203125 -1.078125q0 -1.0625 -0.71875 -1.6875q-0.71875 -0.625 -1.796875 -0.625q-1.03125 0 -1.75 0.609375q-0.703125 0.59375 -0.859375 1.703125l5.125 0z" fill-rule="nonzero"/><path fill="#010000" fill-opacity="0.0" d="m561.40814 310.5356l0 0l0 35.999878l0 0l0 -35.999878z" fill-rule="nonzero"/><path fill="#ffffff" d="m456.3845 337.29553l105.02365 0l0 2.1600037l-105.02365 0l0 -2.1600037z" fill-rule="nonzero"/><path fill="#000000" fill-opacity="0.0" d="m605.35657 458.10437l63.768494 0" fill-rule="evenodd"/><path stroke="#8d3aed" stroke-width="1.0" stroke-linejoin="round" stroke-linecap="butt" d="m605.35657 458.10437l57.768494 0" fill-rule="evenodd"/><path fill="#8d3aed" stroke="#8d3aed" stroke-width="1.0" stroke-linecap="butt" d="m663.12506 459.7561l4.538147 -1.6517334l-4.538147 -1.6517334z" fill-rule="evenodd"/><path fill="#000000" fill-opacity="0.0" d="m605.35657 442.20917l63.768494 0" fill-rule="evenodd"/><path stroke="#8d3aed" stroke-width="1.0" stroke-linejoin="round" stroke-linecap="butt" d="m605.35657 442.20917l57.768494 0" fill-rule="evenodd"/><path fill="#8d3aed" stroke="#8d3aed" stroke-width="1.0" stroke-linecap="butt" d="m663.12506 443.8609l4.538147 -1.6517334l-4.538147 -1.6517334z" fill-rule="evenodd"/><path fill="#000000" fill-opacity="0.0" d="m605.35657 426.31396l63.768494 0" fill-rule="evenodd"/><path stroke="#8d3aed" stroke-width="1.0" stroke-linejoin="round" stroke-linecap="butt" d="m605.35657 426.31396l57.768494 0" fill-rule="evenodd"/><path fill="#8d3aed" stroke="#8d3aed" stroke-width="1.0" stroke-linecap="butt" d="m663.12506 427.9657l4.538147 -1.6517334l-4.538147 -1.6517334z" fill-rule="evenodd"/><path fill="#000000" fill-opacity="0.0" d="m605.35657 410.41876l63.768494 0" fill-rule="evenodd"/><path stroke="#8d3aed" stroke-width="1.0" stroke-linejoin="round" stroke-linecap="butt" d="m605.35657 410.41876l57.768494 0" fill-rule="evenodd"/><path fill="#8d3aed" stroke="#8d3aed" stroke-width="1.0" stroke-linecap="butt" d="m663.12506 412.0705l4.538147 -1.6517334l-4.538147 -1.6517334z" fill-rule="evenodd"/></g></svg>