<svg version="1.1" viewBox="0.0 0.0 950.0 412.0" fill="none" stroke="none" stroke-linecap="square" stroke-miterlimit="10" xmlns:xlink="http://www.w3.org/1999/xlink" xmlns="http://www.w3.org/2000/svg"><clipPath id="p.0"><path d="m0 0l950.0 0l0 412.0l-950.0 0l0 -412.0z" clip-rule="nonzero"/></clipPath><g clip-path="url(#p.0)"><path fill="#000000" fill-opacity="0.0" d="m0 0l950.0 0l0 412.0l-950.0 0z" fill-rule="evenodd"/><path fill="#b7b7b7" d="m51.0751 301.52087l24.913387 0l0 24.913391l-24.913387 0z" fill-rule="evenodd"/><path stroke="#ffffff" stroke-width="1.0" stroke-linejoin="round" stroke-linecap="butt" d="m51.0751 301.52087l24.913387 0l0 24.913391l-24.913387 0z" fill-rule="evenodd"/><path fill="#b7b7b7" d="m83.00927 301.52087l24.913383 0l0 24.913391l-24.913383 0z" fill-rule="evenodd"/><path stroke="#ffffff" stroke-width="1.0" stroke-linejoin="round" stroke-linecap="butt" d="m83.00927 301.52087l24.913383 0l0 24.913391l-24.913383 0z" fill-rule="evenodd"/><path fill="#b7b7b7" d="m114.94344 301.52087l24.913383 0l0 24.913391l-24.913383 0z" fill-rule="evenodd"/><path stroke="#ffffff" stroke-width="1.0" stroke-linejoin="round" stroke-linecap="butt" d="m114.94344 301.52087l24.913383 0l0 24.913391l-24.913383 0z" fill-rule="evenodd"/><path fill="#b7b7b7" d="m146.87761 301.52087l24.913391 0l0 24.913391l-24.913391 0z" fill-rule="evenodd"/><path stroke="#ffffff" stroke-width="1.0" stroke-linejoin="round" stroke-linecap="butt" d="m146.87761 301.52087l24.913391 0l0 24.913391l-24.913391 0z" fill-rule="evenodd"/><path fill="#b7b7b7" d="m178.81178 301.52087l24.913391 0l0 24.913391l-24.913391 0z" fill-rule="evenodd"/><path stroke="#ffffff" stroke-width="1.0" stroke-linejoin="round" stroke-linecap="butt" d="m178.81178 301.52087l24.913391 0l0 24.913391l-24.913391 0z" fill-rule="evenodd"/><path fill="#b7b7b7" d="m210.74596 301.52087l24.913391 0l0 24.913391l-24.913391 0z" fill-rule="evenodd"/><path stroke="#ffffff" stroke-width="1.0" stroke-linejoin="round" stroke-linecap="butt" d="m210.74596 301.52087l24.913391 0l0 24.913391l-24.913391 0z" fill-rule="evenodd"/><path fill="#b7b7b7" d="m242.68013 301.52087l24.913376 0l0 24.913391l-24.913376 0z" fill-rule="evenodd"/><path stroke="#ffffff" stroke-width="1.0" stroke-linejoin="round" stroke-linecap="butt" d="m242.68013 301.52087l24.913376 0l0 24.913391l-24.913376 0z" fill-rule="evenodd"/><path fill="#b7b7b7" d="m274.6143 301.52087l24.913391 0l0 24.913391l-24.913391 0z" fill-rule="evenodd"/><path stroke="#ffffff" stroke-width="1.0" stroke-linejoin="round" stroke-linecap="butt" d="m274.6143 301.52087l24.913391 0l0 24.913391l-24.913391 0z" fill-rule="evenodd"/><path fill="#b7b7b7" d="m306.54846 301.52087l24.913391 0l0 24.913391l-24.913391 0z" fill-rule="evenodd"/><path stroke="#ffffff" stroke-width="1.0" stroke-linejoin="round" stroke-linecap="butt" d="m306.54846 301.52087l24.913391 0l0 24.913391l-24.913391 0z" fill-rule="evenodd"/><path fill="#b7b7b7" d="m338.48264 301.52087l24.913391 0l0 24.913391l-24.913391 0z" fill-rule="evenodd"/><path stroke="#ffffff" stroke-width="1.0" stroke-linejoin="round" stroke-linecap="butt" d="m338.48264 301.52087l24.913391 0l0 24.913391l-24.913391 0z" fill-rule="evenodd"/><path fill="#b7b7b7" d="m370.4168 301.52087l24.913391 0l0 24.913391l-24.913391 0z" fill-rule="evenodd"/><path stroke="#ffffff" stroke-width="1.0" stroke-linejoin="round" stroke-linecap="butt" d="m370.4168 301.52087l24.913391 0l0 24.913391l-24.913391 0z" fill-rule="evenodd"/><path fill="#b7b7b7" d="m717.0176 237.52087l24.913391 0l0 24.913391l-24.913391 0z" fill-rule="evenodd"/><path stroke="#ffffff" stroke-width="1.0" stroke-linejoin="round" stroke-linecap="butt" d="m717.0176 237.52087l24.913391 0l0 24.913391l-24.913391 0z" fill-rule="evenodd"/><path fill="#b7b7b7" d="m748.9518 237.52087l24.913391 0l0 24.913391l-24.913391 0z" fill-rule="evenodd"/><path stroke="#ffffff" stroke-width="1.0" stroke-linejoin="round" stroke-linecap="butt" d="m748.9518 237.52087l24.913391 0l0 24.913391l-24.913391 0z" fill-rule="evenodd"/><path fill="#b7b7b7" d="m780.8859 237.52087l24.913391 0l0 24.913391l-24.913391 0z" fill-rule="evenodd"/><path stroke="#ffffff" stroke-width="1.0" stroke-linejoin="round" stroke-linecap="butt" d="m780.8859 237.52087l24.913391 0l0 24.913391l-24.913391 0z" fill-rule="evenodd"/><path fill="#b7b7b7" d="m812.8201 237.52087l24.913391 0l0 24.913391l-24.913391 0z" fill-rule="evenodd"/><path stroke="#ffffff" stroke-width="1.0" stroke-linejoin="round" stroke-linecap="butt" d="m812.8201 237.52087l24.913391 0l0 24.913391l-24.913391 0z" fill-rule="evenodd"/><path fill="#b7b7b7" d="m67.26602 236.22954l24.913391 0l0 24.913376l-24.913391 0z" fill-rule="evenodd"/><path stroke="#ffffff" stroke-width="1.0" stroke-linejoin="round" stroke-linecap="butt" d="m67.26602 236.22954l24.913391 0l0 24.913376l-24.913391 0z" fill-rule="evenodd"/><path fill="#b7b7b7" d="m131.13437 236.22954l24.913391 0l0 24.913376l-24.913391 0z" fill-rule="evenodd"/><path stroke="#ffffff" stroke-width="1.0" stroke-linejoin="round" stroke-linecap="butt" d="m131.13437 236.22954l24.913391 0l0 24.913376l-24.913391 0z" fill-rule="evenodd"/><path fill="#b7b7b7" d="m195.00272 236.22954l24.913376 0l0 24.913376l-24.913376 0z" fill-rule="evenodd"/><path stroke="#ffffff" stroke-width="1.0" stroke-linejoin="round" stroke-linecap="butt" d="m195.00272 236.22954l24.913376 0l0 24.913376l-24.913376 0z" fill-rule="evenodd"/><path fill="#b7b7b7" d="m258.87106 236.22954l24.913391 0l0 24.913376l-24.913391 0z" fill-rule="evenodd"/><path stroke="#ffffff" stroke-width="1.0" stroke-linejoin="round" stroke-linecap="butt" d="m258.87106 236.22954l24.913391 0l0 24.913376l-24.913391 0z" fill-rule="evenodd"/><path fill="#b7b7b7" d="m322.7394 236.22954l24.91336 0l0 24.913376l-24.91336 0z" fill-rule="evenodd"/><path stroke="#ffffff" stroke-width="1.0" stroke-linejoin="round" stroke-linecap="butt" d="m322.7394 236.22954l24.91336 0l0 24.913376l-24.91336 0z" fill-rule="evenodd"/><path fill="#b7b7b7" d="m386.60773 236.22954l24.913391 0l0 24.913376l-24.913391 0z" fill-rule="evenodd"/><path stroke="#ffffff" stroke-width="1.0" stroke-linejoin="round" stroke-linecap="butt" d="m386.60773 236.22954l24.913391 0l0 24.913376l-24.913391 0z" fill-rule="evenodd"/><path fill="#b7b7b7" d="m733.20856 172.22954l24.913391 0l0 24.913376l-24.913391 0z" fill-rule="evenodd"/><path stroke="#ffffff" stroke-width="1.0" stroke-linejoin="round" stroke-linecap="butt" d="m733.20856 172.22954l24.913391 0l0 24.913376l-24.913391 0z" fill-rule="evenodd"/><path fill="#b7b7b7" d="m797.0769 172.22954l24.91333 0l0 24.913376l-24.91333 0z" fill-rule="evenodd"/><path stroke="#ffffff" stroke-width="1.0" stroke-linejoin="round" stroke-linecap="butt" d="m797.0769 172.22954l24.91333 0l0 24.913376l-24.91333 0z" fill-rule="evenodd"/><path fill="#b7b7b7" d="m100.17767 159.12979l24.913383 0l0 24.913391l-24.913383 0z" fill-rule="evenodd"/><path stroke="#ffffff" stroke-width="1.0" stroke-linejoin="round" stroke-linecap="butt" d="m100.17767 159.12979l24.913383 0l0 24.913391l-24.913383 0z" fill-rule="evenodd"/><path fill="#b7b7b7" d="m227.91437 159.12979l24.913376 0l0 24.913391l-24.913376 0z" fill-rule="evenodd"/><path stroke="#ffffff" stroke-width="1.0" stroke-linejoin="round" stroke-linecap="butt" d="m227.91437 159.12979l24.913376 0l0 24.913391l-24.913376 0z" fill-rule="evenodd"/><path fill="#b7b7b7" d="m355.65106 159.12979l24.91336 0l0 24.913391l-24.91336 0z" fill-rule="evenodd"/><path stroke="#ffffff" stroke-width="1.0" stroke-linejoin="round" stroke-linecap="butt" d="m355.65106 159.12979l24.91336 0l0 24.913391l-24.91336 0z" fill-rule="evenodd"/><path fill="#b7b7b7" d="m675.9159 95.12861l198.6142 0l0 24.913383l-198.6142 0z" fill-rule="evenodd"/><path stroke="#ffffff" stroke-width="1.0" stroke-linejoin="round" stroke-linecap="butt" d="m675.9159 95.12861l198.6142 0l0 24.913383l-198.6142 0z" fill-rule="evenodd"/><path fill="#000000" d="m699.60626 109.8178l1.765625 0.453125q-0.5625 2.171875 -2.0 3.328125q-1.4375 1.140625 -3.53125 1.140625q-2.15625 0 -3.515625 -0.875q-1.34375 -0.890625 -2.0625 -2.546875q-0.703125 -1.671875 -0.703125 -3.59375q0 -2.078125 0.796875 -3.625q0.796875 -1.5625 2.265625 -2.359375q1.484375 -0.8125 3.25 -0.8125q2.0 0 3.359375 1.015625q1.375 1.015625 1.90625 2.875l-1.734375 0.40625q-0.46875 -1.453125 -1.359375 -2.109375q-0.875 -0.671875 -2.203125 -0.671875q-1.546875 0 -2.578125 0.734375q-1.03125 0.734375 -1.453125 1.984375q-0.421875 1.234375 -0.421875 2.5625q0 1.703125 0.5 2.96875q0.5 1.265625 1.546875 1.90625q1.046875 0.625 2.265625 0.625q1.484375 0 2.515625 -0.859375q1.03125 -0.859375 1.390625 -2.546875zm3.7385864 4.6875l0 -13.359375l1.640625 0l0 4.796875q1.140625 -1.328125 2.890625 -1.328125q1.078125 0 1.859375 0.421875q0.796875 0.421875 1.140625 1.171875q0.34375 0.75 0.34375 2.171875l0 6.125l-1.640625 0l0 -6.125q0 -1.234375 -0.53125 -1.796875q-0.53125 -0.5625 -1.515625 -0.5625q-0.71875 0 -1.359375 0.390625q-0.640625 0.375 -0.921875 1.015625q-0.265625 0.640625 -0.265625 1.78125l0 5.296875l-1.640625 0zm10.375732 -11.46875l0 -1.890625l1.640625 0l0 1.890625l-1.640625 0zm0 11.46875l0 -9.671875l1.640625 0l0 9.671875l-1.640625 0zm4.0979004 0l0 -13.359375l1.640625 0l0 13.359375l-1.640625 0zm10.457336 0l0 -1.21875q-0.90625 1.4375 -2.703125 1.4375q-1.15625 0 -2.125 -0.640625q-0.96875 -0.640625 -1.5 -1.78125q-0.53125 -1.140625 -0.53125 -2.625q0 -1.453125 0.484375 -2.625q0.484375 -1.1875 1.4375 -1.8125q0.96875 -0.625 2.171875 -0.625q0.875 0 1.546875 0.375q0.6875 0.359375 1.109375 0.953125l0 -4.796875l1.640625 0l0 13.359375l-1.53125 0zm-5.171875 -4.828125q0 1.859375 0.78125 2.78125q0.78125 0.921875 1.84375 0.921875q1.078125 0 1.828125 -0.875q0.75 -0.890625 0.75 -2.6875q0 -1.984375 -0.765625 -2.90625q-0.765625 -0.9375 -1.890625 -0.9375q-1.078125 0 -1.8125 0.890625q-0.734375 0.890625 -0.734375 2.8125zm17.737427 4.828125l0 -11.78125l-4.40625 0l0 -1.578125l10.578125 0l0 1.578125l-4.40625 0l0 11.78125l-1.765625 0zm7.078247 0l0 -9.671875l1.46875 0l0 1.46875q0.5625 -1.03125 1.03125 -1.359375q0.484375 -0.328125 1.0625 -0.328125q0.828125 0 1.6875 0.53125l-0.5625 1.515625q-0.609375 -0.359375 -1.203125 -0.359375q-0.546875 0 -0.96875 0.328125q-0.421875 0.328125 -0.609375 0.890625q-0.28125 0.875 -0.28125 1.921875l0 5.0625l-1.625 0zm6.2283325 -11.46875l0 -1.890625l1.640625 0l0 1.890625l-1.640625 0zm0 11.46875l0 -9.671875l1.640625 0l0 9.671875l-1.640625 0zm10.769836 -3.109375l1.6875 0.203125q-0.40625 1.484375 -1.484375 2.3125q-1.078125 0.8125 -2.765625 0.8125q-2.125 0 -3.375 -1.296875q-1.234375 -1.3125 -1.234375 -3.671875q0 -2.453125 1.25 -3.796875q1.265625 -1.34375 3.265625 -1.34375q1.9375 0 3.15625 1.328125q1.234375 1.3125 1.234375 3.703125q0 0.15625 0 0.4375l-7.21875 0q0.09375 1.59375 0.90625 2.453125q0.8125 0.84375 2.015625 0.84375q0.90625 0 1.546875 -0.46875q0.640625 -0.484375 1.015625 -1.515625zm-5.390625 -2.65625l5.40625 0q-0.109375 -1.21875 -0.625 -1.828125q-0.78125 -0.953125 -2.03125 -0.953125q-1.125 0 -1.90625 0.765625q-0.765625 0.75 -0.84375 2.015625zm14.559021 5.765625l0 -13.359375l5.921875 0q1.78125 0 2.703125 0.359375q0.9375 0.359375 1.484375 1.28125q0.5625 0.90625 0.5625 2.015625q0 1.40625 -0.921875 2.390625q-0.921875 0.96875 -2.84375 1.234375q0.703125 0.34375 1.078125 0.671875q0.765625 0.703125 1.453125 1.765625l2.328125 3.640625l-2.21875 0l-1.765625 -2.78125q-0.78125 -1.203125 -1.28125 -1.828125q-0.5 -0.640625 -0.90625 -0.890625q-0.390625 -0.265625 -0.796875 -0.359375q-0.296875 -0.078125 -0.984375 -0.078125l-2.046875 0l0 5.9375l-1.765625 0zm1.765625 -7.453125l3.796875 0q1.21875 0 1.890625 -0.25q0.6875 -0.265625 1.046875 -0.8125q0.359375 -0.546875 0.359375 -1.1875q0 -0.953125 -0.6875 -1.5625q-0.6875 -0.609375 -2.1875 -0.609375l-4.21875 0l0 4.421875zm10.863525 2.609375q0 -2.6875 1.484375 -3.96875q1.25 -1.078125 3.046875 -1.078125q2.0 0 3.265625 1.3125q1.265625 1.296875 1.265625 3.609375q0 1.859375 -0.5625 2.9375q-0.5625 1.0625 -1.640625 1.65625q-1.0625 0.59375 -2.328125 0.59375q-2.03125 0 -3.28125 -1.296875q-1.25 -1.3125 -1.25 -3.765625zm1.6875 0q0 1.859375 0.796875 2.796875q0.8125 0.921875 2.046875 0.921875q1.21875 0 2.03125 -0.921875q0.8125 -0.9375 0.8125 -2.84375q0 -1.796875 -0.8125 -2.71875q-0.8125 -0.921875 -2.03125 -0.921875q-1.234375 0 -2.046875 0.921875q-0.796875 0.90625 -0.796875 2.765625zm8.688232 0q0 -2.6875 1.484375 -3.96875q1.25 -1.078125 3.046875 -1.078125q2.0 0 3.265625 1.3125q1.265625 1.296875 1.265625 3.609375q0 1.859375 -0.5625 2.9375q-0.5625 1.0625 -1.640625 1.65625q-1.0625 0.59375 -2.328125 0.59375q-2.03125 0 -3.28125 -1.296875q-1.25 -1.3125 -1.25 -3.765625zm1.6875 0q0 1.859375 0.796875 2.796875q0.8125 0.921875 2.046875 0.921875q1.21875 0 2.03125 -0.921875q0.8125 -0.9375 0.8125 -2.84375q0 -1.796875 -0.8125 -2.71875q-0.8125 -0.921875 -2.03125 -0.921875q-1.234375 0 -2.046875 0.921875q-0.796875 0.90625 -0.796875 2.765625zm12.875732 3.375l0.234375 1.453125q-0.6875 0.140625 -1.234375 0.140625q-0.890625 0 -1.390625 -0.28125q-0.484375 -0.28125 -0.6875 -0.734375q-0.203125 -0.46875 -0.203125 -1.9375l0 -5.578125l-1.203125 0l0 -1.265625l1.203125 0l0 -2.390625l1.625 -0.984375l0 3.375l1.65625 0l0 1.265625l-1.65625 0l0 5.671875q0 0.6875 0.078125 0.890625q0.09375 0.203125 0.28125 0.328125q0.203125 0.109375 0.578125 0.109375q0.265625 0 0.71875 -0.0625zm6.975952 1.46875l0 -13.359375l1.8125 0l7.015625 10.484375l0 -10.484375l1.6875 0l0 13.359375l-1.8125 0l-7.015625 -10.5l0 10.5l-1.6875 0zm12.676086 -4.84375q0 -2.6875 1.484375 -3.96875q1.25 -1.078125 3.046875 -1.078125q2.0 0 3.265625 1.3125q1.265625 1.296875 1.265625 3.609375q0 1.859375 -0.5625 2.9375q-0.5625 1.0625 -1.640625 1.65625q-1.0625 0.59375 -2.328125 0.59375q-2.03125 0 -3.28125 -1.296875q-1.25 -1.3125 -1.25 -3.765625zm1.6875 0q0 1.859375 0.796875 2.796875q0.8125 0.921875 2.046875 0.921875q1.21875 0 2.03125 -0.921875q0.8125 -0.9375 0.8125 -2.84375q0 -1.796875 -0.8125 -2.71875q-0.8125 -0.921875 -2.03125 -0.921875q-1.234375 0 -2.046875 0.921875q-0.796875 0.90625 -0.796875 2.765625zm15.563232 4.84375l0 -1.21875q-0.90625 1.4375 -2.703125 1.4375q-1.15625 0 -2.125 -0.640625q-0.96875 -0.640625 -1.5 -1.78125q-0.53125 -1.140625 -0.53125 -2.625q0 -1.453125 0.484375 -2.625q0.484375 -1.1875 1.4375 -1.8125q0.96875 -0.625 2.171875 -0.625q0.875 0 1.546875 0.375q0.6875 0.359375 1.109375 0.953125l0 -4.796875l1.640625 0l0 13.359375l-1.53125 0zm-5.171875 -4.828125q0 1.859375 0.78125 2.78125q0.78125 0.921875 1.84375 0.921875q1.078125 0 1.828125 -0.875q0.75 -0.890625 0.75 -2.6875q0 -1.984375 -0.765625 -2.90625q-0.765625 -0.9375 -1.890625 -0.9375q-1.078125 0 -1.8125 0.890625q-0.734375 0.890625 -0.734375 2.8125zm15.906921 1.71875l1.6875 0.203125q-0.40625 1.484375 -1.484375 2.3125q-1.078125 0.8125 -2.765625 0.8125q-2.125 0 -3.375 -1.296875q-1.234375 -1.3125 -1.234375 -3.671875q0 -2.453125 1.25 -3.796875q1.265625 -1.34375 3.265625 -1.34375q1.9375 0 3.15625 1.328125q1.234375 1.3125 1.234375 3.703125q0 0.15625 0 0.4375l-7.21875 0q0.09375 1.59375 0.90625 2.453125q0.8125 0.84375 2.015625 0.84375q0.90625 0 1.546875 -0.46875q0.640625 -0.484375 1.015625 -1.515625zm-5.390625 -2.65625l5.40625 0q-0.109375 -1.21875 -0.625 -1.828125q-0.78125 -0.953125 -2.03125 -0.953125q-1.125 0 -1.90625 0.765625q-0.765625 0.75 -0.84375 2.015625z" fill-rule="nonzero"/><path fill="#999999" d="m164.04776 100.38963l24.913376 0l0 24.913391l-24.913376 0z" fill-rule="evenodd"/><path stroke="#ffffff" stroke-width="1.0" stroke-linejoin="round" stroke-linecap="butt" d="m164.04776 100.38963l24.913376 0l0 24.913391l-24.913376 0z" fill-rule="evenodd"/><path fill="#adadad" d="m419.52112 100.38963l24.913391 0l0 24.913391l-24.913391 0z" fill-rule="evenodd"/><path stroke="#ffffff" stroke-width="1.0" stroke-linejoin="round" stroke-linecap="butt" d="m419.52112 100.38963l24.913391 0l0 24.913391l-24.913391 0z" fill-rule="evenodd"/><path fill="#adadad" d="m188.96063 32.7979l230.55118 0l0 24.913383l-230.55118 0z" fill-rule="evenodd"/><path stroke="#ffffff" stroke-width="1.0" stroke-linejoin="round" stroke-linecap="butt" d="m188.96063 32.7979l230.55118 0l0 24.913383l-230.55118 0z" fill-rule="evenodd"/><path fill="#000000" d="m223.1537 47.877716l1.65625 -0.140625q0.125 1.0 0.546875 1.640625q0.4375 0.640625 1.34375 1.046875q0.921875 0.390625 2.0625 0.390625q1.0 0 1.78125 -0.296875q0.78125 -0.296875 1.15625 -0.8125q0.375 -0.53125 0.375 -1.15625q0 -0.625 -0.375 -1.09375q-0.359375 -0.46875 -1.1875 -0.796875q-0.546875 -0.203125 -2.390625 -0.640625q-1.828125 -0.453125 -2.5625 -0.84375q-0.96875 -0.5 -1.4375 -1.234375q-0.46875 -0.75 -0.46875 -1.671875q0 -1.0 0.578125 -1.875q0.578125 -0.890625 1.671875 -1.34375q1.109375 -0.453125 2.453125 -0.453125q1.484375 0 2.609375 0.484375q1.140625 0.46875 1.75 1.40625q0.609375 0.921875 0.65625 2.09375l-1.6875 0.125q-0.140625 -1.265625 -0.9375 -1.90625q-0.78125 -0.65625 -2.3125 -0.65625q-1.609375 0 -2.34375 0.59375q-0.734375 0.59375 -0.734375 1.421875q0 0.71875 0.53125 1.171875q0.5 0.46875 2.65625 0.96875q2.15625 0.484375 2.953125 0.84375q1.171875 0.53125 1.71875 1.359375q0.5625 0.828125 0.5625 1.90625q0 1.0625 -0.609375 2.015625q-0.609375 0.9375 -1.75 1.46875q-1.140625 0.515625 -2.578125 0.515625q-1.8125 0 -3.046875 -0.53125q-1.21875 -0.53125 -1.921875 -1.59375q-0.6875 -1.0625 -0.71875 -2.40625zm16.412323 2.828125l0.234375 1.453125q-0.6875 0.140625 -1.234375 0.140625q-0.890625 0 -1.390625 -0.28125q-0.484375 -0.28125 -0.6875 -0.734375q-0.203125 -0.46875 -0.203125 -1.9375l0 -5.578125l-1.203125 0l0 -1.265625l1.203125 0l0 -2.390625l1.625 -0.984375l0 3.375l1.65625 0l0 1.265625l-1.65625 0l0 5.671875q0 0.6875 0.078125 0.890625q0.09375 0.203125 0.28125 0.328125q0.203125 0.109375 0.578125 0.109375q0.265625 0 0.71875 -0.0625zm7.917679 0.28125q-0.921875 0.765625 -1.765625 1.09375q-0.828125 0.3125 -1.796875 0.3125q-1.59375 0 -2.453125 -0.78125q-0.859375 -0.78125 -0.859375 -1.984375q0 -0.71875 0.328125 -1.296875q0.328125 -0.59375 0.84375 -0.9375q0.53125 -0.359375 1.1875 -0.546875q0.46875 -0.125 1.453125 -0.25q1.984375 -0.234375 2.921875 -0.5625q0.015625 -0.34375 0.015625 -0.421875q0 -1.0 -0.46875 -1.421875q-0.625 -0.546875 -1.875 -0.546875q-1.15625 0 -1.703125 0.40625q-0.546875 0.40625 -0.8125 1.421875l-1.609375 -0.21875q0.21875 -1.015625 0.71875 -1.640625q0.5 -0.640625 1.453125 -0.984375q0.953125 -0.34375 2.1875 -0.34375q1.25 0 2.015625 0.296875q0.78125 0.28125 1.140625 0.734375q0.375 0.4375 0.515625 1.109375q0.078125 0.421875 0.078125 1.515625l0 2.1875q0 2.28125 0.109375 2.890625q0.109375 0.59375 0.40625 1.15625l-1.703125 0q-0.265625 -0.515625 -0.328125 -1.1875zm-0.140625 -3.671875q-0.890625 0.375 -2.671875 0.625q-1.015625 0.140625 -1.4375 0.328125q-0.421875 0.1875 -0.65625 0.53125q-0.21875 0.34375 -0.21875 0.78125q0 0.65625 0.5 1.09375q0.5 0.4375 1.453125 0.4375q0.9375 0 1.671875 -0.40625q0.75 -0.421875 1.09375 -1.140625q0.265625 -0.5625 0.265625 -1.640625l0 -0.609375zm7.781967 3.390625l0.234375 1.453125q-0.6875 0.140625 -1.234375 0.140625q-0.890625 0 -1.390625 -0.28125q-0.484375 -0.28125 -0.6875 -0.734375q-0.203125 -0.46875 -0.203125 -1.9375l0 -5.578125l-1.203125 0l0 -1.265625l1.203125 0l0 -2.390625l1.625 -0.984375l0 3.375l1.65625 0l0 1.265625l-1.65625 0l0 5.671875q0 0.6875 0.078125 0.890625q0.09375 0.203125 0.28125 0.328125q0.203125 0.109375 0.578125 0.109375q0.265625 0 0.71875 -0.0625zm8.230179 -1.640625l1.6875 0.203125q-0.40625 1.484375 -1.484375 2.3125q-1.078125 0.8125 -2.765625 0.8125q-2.125 0 -3.375 -1.296875q-1.234375 -1.3125 -1.234375 -3.671875q0 -2.453125 1.25 -3.796875q1.265625 -1.34375 3.265625 -1.34375q1.9375 0 3.15625 1.328125q1.234375 1.3125 1.234375 3.703125q0 0.15625 0 0.4375l-7.21875 0q0.09375 1.59375 0.90625 2.453125q0.8125 0.84375 2.015625 0.84375q0.90625 0 1.546875 -0.46875q0.640625 -0.484375 1.015625 -1.515625zm-5.390625 -2.65625l5.40625 0q-0.109375 -1.21875 -0.625 -1.828125q-0.78125 -0.953125 -2.03125 -0.953125q-1.125 0 -1.90625 0.765625q-0.765625 0.75 -0.84375 2.015625zm9.344482 5.765625l0 -13.359375l4.609375 0q1.546875 0 2.375 0.203125q1.140625 0.25 1.953125 0.953125q1.0625 0.890625 1.578125 2.28125q0.53125 1.390625 0.53125 3.171875q0 1.515625 -0.359375 2.703125q-0.359375 1.171875 -0.921875 1.9375q-0.546875 0.765625 -1.203125 1.21875q-0.65625 0.4375 -1.59375 0.671875q-0.9375 0.21875 -2.140625 0.21875l-4.828125 0zm1.765625 -1.578125l2.859375 0q1.3125 0 2.0625 -0.234375q0.75 -0.25 1.203125 -0.703125q0.625 -0.625 0.96875 -1.6875q0.359375 -1.0625 0.359375 -2.578125q0 -2.09375 -0.6875 -3.21875q-0.6875 -1.125 -1.671875 -1.5q-0.703125 -0.28125 -2.28125 -0.28125l-2.8125 0l0 10.203125zm11.629181 1.578125l0 -13.359375l5.015625 0q1.53125 0 2.453125 0.40625q0.921875 0.40625 1.4375 1.25q0.53125 0.84375 0.53125 1.765625q0 0.859375 -0.46875 1.625q-0.453125 0.75 -1.390625 1.203125q1.203125 0.359375 1.859375 1.21875q0.65625 0.859375 0.65625 2.015625q0 0.9375 -0.40625 1.75q-0.390625 0.796875 -0.984375 1.234375q-0.578125 0.4375 -1.453125 0.671875q-0.875 0.21875 -2.15625 0.21875l-5.09375 0zm1.78125 -7.75l2.875 0q1.1875 0 1.6875 -0.140625q0.671875 -0.203125 1.015625 -0.671875q0.34375 -0.46875 0.34375 -1.171875q0 -0.65625 -0.328125 -1.15625q-0.3125 -0.515625 -0.90625 -0.703125q-0.59375 -0.1875 -2.03125 -0.1875l-2.65625 0l0 4.03125zm0 6.171875l3.3125 0q0.859375 0 1.203125 -0.0625q0.609375 -0.109375 1.015625 -0.359375q0.421875 -0.265625 0.6875 -0.75q0.265625 -0.484375 0.265625 -1.125q0 -0.75 -0.390625 -1.296875q-0.375 -0.546875 -1.0625 -0.765625q-0.671875 -0.234375 -1.953125 -0.234375l-3.078125 0l0 4.59375zm15.955017 1.578125l0 -13.359375l5.921875 0q1.78125 0 2.703125 0.359375q0.9375 0.359375 1.484375 1.28125q0.5625 0.90625 0.5625 2.015625q0 1.40625 -0.921875 2.390625q-0.921875 0.96875 -2.84375 1.234375q0.703125 0.34375 1.078125 0.671875q0.765625 0.703125 1.453125 1.765625l2.328125 3.640625l-2.21875 0l-1.765625 -2.78125q-0.78125 -1.203125 -1.28125 -1.828125q-0.5 -0.640625 -0.90625 -0.890625q-0.390625 -0.265625 -0.796875 -0.359375q-0.296875 -0.078125 -0.984375 -0.078125l-2.046875 0l0 5.9375l-1.765625 0zm1.765625 -7.453125l3.796875 0q1.21875 0 1.890625 -0.25q0.6875 -0.265625 1.046875 -0.8125q0.359375 -0.546875 0.359375 -1.1875q0 -0.953125 -0.6875 -1.5625q-0.6875 -0.609375 -2.1875 -0.609375l-4.21875 0l0 4.421875zm10.863556 2.609375q0 -2.6875 1.484375 -3.96875q1.25 -1.078125 3.046875 -1.078125q2.0 0 3.265625 1.3125q1.265625 1.296875 1.265625 3.609375q0 1.859375 -0.5625 2.9375q-0.5625 1.0625 -1.640625 1.65625q-1.0625 0.59375 -2.328125 0.59375q-2.03125 0 -3.28125 -1.296875q-1.25 -1.3125 -1.25 -3.765625zm1.6875 0q0 1.859375 0.796875 2.796875q0.8125 0.921875 2.046875 0.921875q1.21875 0 2.03125 -0.921875q0.8125 -0.9375 0.8125 -2.84375q0 -1.796875 -0.8125 -2.71875q-0.8125 -0.921875 -2.03125 -0.921875q-1.234375 0 -2.046875 0.921875q-0.796875 0.90625 -0.796875 2.765625zm8.688232 0q0 -2.6875 1.484375 -3.96875q1.25 -1.078125 3.046875 -1.078125q2.0 0 3.265625 1.3125q1.265625 1.296875 1.265625 3.609375q0 1.859375 -0.5625 2.9375q-0.5625 1.0625 -1.640625 1.65625q-1.0625 0.59375 -2.328125 0.59375q-2.03125 0 -3.28125 -1.296875q-1.25 -1.3125 -1.25 -3.765625zm1.6875 0q0 1.859375 0.796875 2.796875q0.8125 0.921875 2.046875 0.921875q1.21875 0 2.03125 -0.921875q0.8125 -0.9375 0.8125 -2.84375q0 -1.796875 -0.8125 -2.71875q-0.8125 -0.921875 -2.03125 -0.921875q-1.234375 0 -2.046875 0.921875q-0.796875 0.90625 -0.796875 2.765625zm12.875702 3.375l0.234375 1.453125q-0.6875 0.140625 -1.234375 0.140625q-0.890625 0 -1.390625 -0.28125q-0.484375 -0.28125 -0.6875 -0.734375q-0.203125 -0.46875 -0.203125 -1.9375l0 -5.578125l-1.203125 0l0 -1.265625l1.203125 0l0 -2.390625l1.625 -0.984375l0 3.375l1.65625 0l0 1.265625l-1.65625 0l0 5.671875q0 0.6875 0.078125 0.890625q0.09375 0.203125 0.28125 0.328125q0.203125 0.109375 0.578125 0.109375q0.265625 0 0.71875 -0.0625zm6.9759827 1.46875l0 -13.359375l1.8125 0l7.015625 10.484375l0 -10.484375l1.6875 0l0 13.359375l-1.8125 0l-7.015625 -10.5l0 10.5l-1.6875 0zm12.676086 -4.84375q0 -2.6875 1.484375 -3.96875q1.25 -1.078125 3.046875 -1.078125q2.0 0 3.265625 1.3125q1.265625 1.296875 1.265625 3.609375q0 1.859375 -0.5625 2.9375q-0.5625 1.0625 -1.640625 1.65625q-1.0625 0.59375 -2.328125 0.59375q-2.03125 0 -3.28125 -1.296875q-1.25 -1.3125 -1.25 -3.765625zm1.6875 0q0 1.859375 0.796875 2.796875q0.8125 0.921875 2.046875 0.921875q1.21875 0 2.03125 -0.921875q0.8125 -0.9375 0.8125 -2.84375q0 -1.796875 -0.8125 -2.71875q-0.8125 -0.921875 -2.03125 -0.921875q-1.234375 0 -2.046875 0.921875q-0.796875 0.90625 -0.796875 2.765625zm15.563202 4.84375l0 -1.21875q-0.90625 1.4375 -2.703125 1.4375q-1.15625 0 -2.125 -0.640625q-0.96875 -0.640625 -1.5 -1.78125q-0.53125 -1.140625 -0.53125 -2.625q0 -1.453125 0.484375 -2.625q0.484375 -1.1875 1.4375 -1.8125q0.96875 -0.625 2.171875 -0.625q0.875 0 1.546875 0.375q0.6875 0.359375 1.109375 0.953125l0 -4.796875l1.640625 0l0 13.359375l-1.53125 0zm-5.171875 -4.828125q0 1.859375 0.78125 2.78125q0.78125 0.921875 1.84375 0.921875q1.078125 0 1.828125 -0.875q0.75 -0.890625 0.75 -2.6875q0 -1.984375 -0.765625 -2.90625q-0.765625 -0.9375 -1.890625 -0.9375q-1.078125 0 -1.8125 0.890625q-0.734375 0.890625 -0.734375 2.8125zm15.906982 1.71875l1.6875 0.203125q-0.40625 1.484375 -1.484375 2.3125q-1.078125 0.8125 -2.765625 0.8125q-2.125 0 -3.375 -1.296875q-1.234375 -1.3125 -1.234375 -3.671875q0 -2.453125 1.25 -3.796875q1.265625 -1.34375 3.265625 -1.34375q1.9375 0 3.15625 1.328125q1.234375 1.3125 1.234375 3.703125q0 0.15625 0 0.4375l-7.21875 0q0.09375 1.59375 0.90625 2.453125q0.8125 0.84375 2.015625 0.84375q0.90625 0 1.546875 -0.46875q0.640625 -0.484375 1.015625 -1.515625zm-5.390625 -2.65625l5.40625 0q-0.109375 -1.21875 -0.625 -1.828125q-0.78125 -0.953125 -2.03125 -0.953125q-1.125 0 -1.90625 0.765625q-0.765625 0.75 -0.84375 2.015625z" fill-rule="nonzero"/><path fill="#000000" fill-opacity="0.0" d="m176.50444 100.38963l127.71654 -42.677162" fill-rule="evenodd"/><path stroke="#ffffff" stroke-width="1.0" stroke-linejoin="round" stroke-linecap="butt" d="m176.50444 100.38963l127.71654 -42.677162" fill-rule="evenodd"/><path fill="#000000" fill-opacity="0.0" d="m431.9778 100.38963l-127.74802 -42.677162" fill-rule="evenodd"/><path stroke="#ffffff" stroke-width="1.0" stroke-linejoin="round" stroke-linecap="butt" d="m431.9778 100.38963l-127.74802 -42.677162" fill-rule="evenodd"/><path fill="#000000" fill-opacity="0.0" d="m112.63437 159.12979l63.87401 -33.826767" fill-rule="evenodd"/><path stroke="#ffffff" stroke-width="1.0" stroke-linejoin="round" stroke-linecap="butt" d="m112.63437 159.12979l63.87401 -33.826767" fill-rule="evenodd"/><path fill="#000000" fill-opacity="0.0" d="m240.37105 159.12979l-63.87401 -33.826767" fill-rule="evenodd"/><path stroke="#ffffff" stroke-width="1.0" stroke-linejoin="round" stroke-linecap="butt" d="m240.37105 159.12979l-63.87401 -33.826767" fill-rule="evenodd"/><path fill="#000000" fill-opacity="0.0" d="m79.72272 236.22954l32.913383 -52.18898" fill-rule="evenodd"/><path stroke="#ffffff" stroke-width="1.0" stroke-linejoin="round" stroke-linecap="butt" d="m79.72272 236.22954l32.913383 -52.18898" fill-rule="evenodd"/><path fill="#000000" fill-opacity="0.0" d="m143.59106 236.22954l-30.960632 -52.18898" fill-rule="evenodd"/><path stroke="#ffffff" stroke-width="1.0" stroke-linejoin="round" stroke-linecap="butt" d="m143.59106 236.22954l-30.960632 -52.18898" fill-rule="evenodd"/><path fill="#000000" fill-opacity="0.0" d="m207.4594 236.22954l32.91339 -52.18898" fill-rule="evenodd"/><path stroke="#ffffff" stroke-width="1.0" stroke-linejoin="round" stroke-linecap="butt" d="m207.4594 236.22954l32.91339 -52.18898" fill-rule="evenodd"/><path fill="#000000" fill-opacity="0.0" d="m271.32776 236.22954l-30.960648 -52.18898" fill-rule="evenodd"/><path stroke="#ffffff" stroke-width="1.0" stroke-linejoin="round" stroke-linecap="butt" d="m271.32776 236.22954l-30.960648 -52.18898" fill-rule="evenodd"/><path fill="#000000" fill-opacity="0.0" d="m335.19608 236.22954l32.91339 -52.18898" fill-rule="evenodd"/><path stroke="#ffffff" stroke-width="1.0" stroke-linejoin="round" stroke-linecap="butt" d="m335.19608 236.22954l32.91339 -52.18898" fill-rule="evenodd"/><path fill="#000000" fill-opacity="0.0" d="m399.06442 236.22954l-30.960632 -52.18898" fill-rule="evenodd"/><path stroke="#ffffff" stroke-width="1.0" stroke-linejoin="round" stroke-linecap="butt" d="m399.06442 236.22954l-30.960632 -52.18898" fill-rule="evenodd"/><path fill="#000000" fill-opacity="0.0" d="m745.6652 172.22954l29.543335 -52.18898" fill-rule="evenodd"/><path stroke="#ffffff" stroke-width="1.0" stroke-linejoin="round" stroke-linecap="butt" d="m745.6652 172.22954l29.543335 -52.18898" fill-rule="evenodd"/><path fill="#000000" fill-opacity="0.0" d="m809.53357 172.22954l-34.299194 -52.18898" fill-rule="evenodd"/><path stroke="#ffffff" stroke-width="1.0" stroke-linejoin="round" stroke-linecap="butt" d="m809.53357 172.22954l-34.299194 -52.18898" fill-rule="evenodd"/><path fill="#000000" fill-opacity="0.0" d="m490.7848 159.12862l-58.80316 -33.826782" fill-rule="evenodd"/><path stroke="#ffffff" stroke-width="1.0" stroke-linejoin="round" stroke-linecap="butt" d="m490.7848 159.12862l-58.80316 -33.826782" fill-rule="evenodd"/><path fill="#000000" fill-opacity="0.0" d="m368.10773 159.12979l63.874023 -33.826767" fill-rule="evenodd"/><path stroke="#ffffff" stroke-width="1.0" stroke-linejoin="round" stroke-linecap="butt" d="m368.10773 159.12979l63.874023 -33.826767" fill-rule="evenodd"/><path fill="#000000" fill-opacity="0.0" d="m63.53179 301.52087l16.18898 -40.37796" fill-rule="evenodd"/><path stroke="#ffffff" stroke-width="1.0" stroke-linejoin="round" stroke-linecap="butt" d="m63.53179 301.52087l16.18898 -40.37796" fill-rule="evenodd"/><path fill="#000000" fill-opacity="0.0" d="m95.465965 301.52087l-15.748032 -40.37796" fill-rule="evenodd"/><path stroke="#ffffff" stroke-width="1.0" stroke-linejoin="round" stroke-linecap="butt" d="m95.465965 301.52087l-15.748032 -40.37796" fill-rule="evenodd"/><path fill="#000000" fill-opacity="0.0" d="m127.40014 301.52087l16.188972 -40.37796" fill-rule="evenodd"/><path stroke="#ffffff" stroke-width="1.0" stroke-linejoin="round" stroke-linecap="butt" d="m127.40014 301.52087l16.188972 -40.37796" fill-rule="evenodd"/><path fill="#000000" fill-opacity="0.0" d="m159.3343 301.52087l-15.748032 -40.37796" fill-rule="evenodd"/><path stroke="#ffffff" stroke-width="1.0" stroke-linejoin="round" stroke-linecap="butt" d="m159.3343 301.52087l-15.748032 -40.37796" fill-rule="evenodd"/><path fill="#000000" fill-opacity="0.0" d="m191.26848 301.52087l16.18898 -40.37796" fill-rule="evenodd"/><path stroke="#ffffff" stroke-width="1.0" stroke-linejoin="round" stroke-linecap="butt" d="m191.26848 301.52087l16.18898 -40.37796" fill-rule="evenodd"/><path fill="#000000" fill-opacity="0.0" d="m223.20265 301.52087l-15.748032 -40.37796" fill-rule="evenodd"/><path stroke="#ffffff" stroke-width="1.0" stroke-linejoin="round" stroke-linecap="butt" d="m223.20265 301.52087l-15.748032 -40.37796" fill-rule="evenodd"/><path fill="#000000" fill-opacity="0.0" d="m255.13683 301.52087l16.18898 -40.37796" fill-rule="evenodd"/><path stroke="#ffffff" stroke-width="1.0" stroke-linejoin="round" stroke-linecap="butt" d="m255.13683 301.52087l16.18898 -40.37796" fill-rule="evenodd"/><path fill="#000000" fill-opacity="0.0" d="m287.07098 301.52087l-15.748016 -40.37796" fill-rule="evenodd"/><path stroke="#ffffff" stroke-width="1.0" stroke-linejoin="round" stroke-linecap="butt" d="m287.07098 301.52087l-15.748016 -40.37796" fill-rule="evenodd"/><path fill="#000000" fill-opacity="0.0" d="m319.00516 301.52087l16.188995 -40.37796" fill-rule="evenodd"/><path stroke="#ffffff" stroke-width="1.0" stroke-linejoin="round" stroke-linecap="butt" d="m319.00516 301.52087l16.188995 -40.37796" fill-rule="evenodd"/><path fill="#000000" fill-opacity="0.0" d="m350.93933 301.52087l-15.748016 -40.37796" fill-rule="evenodd"/><path stroke="#ffffff" stroke-width="1.0" stroke-linejoin="round" stroke-linecap="butt" d="m350.93933 301.52087l-15.748016 -40.37796" fill-rule="evenodd"/><path fill="#000000" fill-opacity="0.0" d="m382.8735 301.52087l16.188995 -40.37796" fill-rule="evenodd"/><path stroke="#ffffff" stroke-width="1.0" stroke-linejoin="round" stroke-linecap="butt" d="m382.8735 301.52087l16.188995 -40.37796" fill-rule="evenodd"/><path fill="#000000" fill-opacity="0.0" d="m729.4743 237.52087l16.188965 -40.37796" fill-rule="evenodd"/><path stroke="#ffffff" stroke-width="1.0" stroke-linejoin="round" stroke-linecap="butt" d="m729.4743 237.52087l16.188965 -40.37796" fill-rule="evenodd"/><path fill="#000000" fill-opacity="0.0" d="m761.40845 237.52087l-15.747986 -40.37796" fill-rule="evenodd"/><path stroke="#ffffff" stroke-width="1.0" stroke-linejoin="round" stroke-linecap="butt" d="m761.40845 237.52087l-15.747986 -40.37796" fill-rule="evenodd"/><path fill="#000000" fill-opacity="0.0" d="m793.34265 237.52087l16.188965 -40.37796" fill-rule="evenodd"/><path stroke="#ffffff" stroke-width="1.0" stroke-linejoin="round" stroke-linecap="butt" d="m793.34265 237.52087l16.188965 -40.37796" fill-rule="evenodd"/><path fill="#000000" fill-opacity="0.0" d="m825.2768 237.52087l-15.747986 -40.37796" fill-rule="evenodd"/><path stroke="#ffffff" stroke-width="1.0" stroke-linejoin="round" stroke-linecap="butt" d="m825.2768 237.52087l-15.747986 -40.37796" fill-rule="evenodd"/><path fill="#b7b7b7" d="m395.52786 376.0983l24.913391 0l0 24.913391l-24.913391 0z" fill-rule="evenodd"/><path stroke="#ffffff" stroke-width="1.0" stroke-linejoin="round" stroke-linecap="butt" d="m395.52786 376.0983l24.913391 0l0 24.913391l-24.913391 0z" fill-rule="evenodd"/><path fill="#b7b7b7" d="m427.46204 376.0983l24.913391 0l0 24.913391l-24.913391 0z" fill-rule="evenodd"/><path stroke="#ffffff" stroke-width="1.0" stroke-linejoin="round" stroke-linecap="butt" d="m427.46204 376.0983l24.913391 0l0 24.913391l-24.913391 0z" fill-rule="evenodd"/><path fill="#b7b7b7" d="m459.3962 376.0983l24.91336 0l0 24.913391l-24.91336 0z" fill-rule="evenodd"/><path stroke="#ffffff" stroke-width="1.0" stroke-linejoin="round" stroke-linecap="butt" d="m459.3962 376.0983l24.91336 0l0 24.913391l-24.91336 0z" fill-rule="evenodd"/><path fill="#b7b7b7" d="m491.33038 376.0983l24.913391 0l0 24.913391l-24.913391 0z" fill-rule="evenodd"/><path stroke="#ffffff" stroke-width="1.0" stroke-linejoin="round" stroke-linecap="butt" d="m491.33038 376.0983l24.913391 0l0 24.913391l-24.913391 0z" fill-rule="evenodd"/><path fill="#b7b7b7" d="m523.2645 376.0983l24.913391 0l0 24.913391l-24.913391 0z" fill-rule="evenodd"/><path stroke="#ffffff" stroke-width="1.0" stroke-linejoin="round" stroke-linecap="butt" d="m523.2645 376.0983l24.913391 0l0 24.913391l-24.913391 0z" fill-rule="evenodd"/><path fill="#b7b7b7" d="m555.1987 376.0983l24.913391 0l0 24.913391l-24.913391 0z" fill-rule="evenodd"/><path stroke="#ffffff" stroke-width="1.0" stroke-linejoin="round" stroke-linecap="butt" d="m555.1987 376.0983l24.913391 0l0 24.913391l-24.913391 0z" fill-rule="evenodd"/><path fill="#b7b7b7" d="m651.0012 312.0983l24.913391 0l0 24.913391l-24.913391 0z" fill-rule="evenodd"/><path stroke="#ffffff" stroke-width="1.0" stroke-linejoin="round" stroke-linecap="butt" d="m651.0012 312.0983l24.913391 0l0 24.913391l-24.913391 0z" fill-rule="evenodd"/><path fill="#b7b7b7" d="m682.9354 312.0983l24.913391 0l0 24.913391l-24.913391 0z" fill-rule="evenodd"/><path stroke="#ffffff" stroke-width="1.0" stroke-linejoin="round" stroke-linecap="butt" d="m682.9354 312.0983l24.913391 0l0 24.913391l-24.913391 0z" fill-rule="evenodd"/><path fill="#b7b7b7" d="m714.86957 312.0983l24.913391 0l0 24.913391l-24.913391 0z" fill-rule="evenodd"/><path stroke="#ffffff" stroke-width="1.0" stroke-linejoin="round" stroke-linecap="butt" d="m714.86957 312.0983l24.913391 0l0 24.913391l-24.913391 0z" fill-rule="evenodd"/><path fill="#b7b7b7" d="m746.8038 312.0983l24.91333 0l0 24.913391l-24.91333 0z" fill-rule="evenodd"/><path stroke="#ffffff" stroke-width="1.0" stroke-linejoin="round" stroke-linecap="butt" d="m746.8038 312.0983l24.91333 0l0 24.913391l-24.91333 0z" fill-rule="evenodd"/><path fill="#b7b7b7" d="m778.7379 312.0983l24.913391 0l0 24.913391l-24.913391 0z" fill-rule="evenodd"/><path stroke="#ffffff" stroke-width="1.0" stroke-linejoin="round" stroke-linecap="butt" d="m778.7379 312.0983l24.913391 0l0 24.913391l-24.913391 0z" fill-rule="evenodd"/><path fill="#b7b7b7" d="m810.67206 312.0983l24.913391 0l0 24.913391l-24.913391 0z" fill-rule="evenodd"/><path stroke="#ffffff" stroke-width="1.0" stroke-linejoin="round" stroke-linecap="butt" d="m810.67206 312.0983l24.913391 0l0 24.913391l-24.913391 0z" fill-rule="evenodd"/><path fill="#b7b7b7" d="m842.60626 312.0983l24.913391 0l0 24.913391l-24.913391 0z" fill-rule="evenodd"/><path stroke="#ffffff" stroke-width="1.0" stroke-linejoin="round" stroke-linecap="butt" d="m842.60626 312.0983l24.913391 0l0 24.913391l-24.913391 0z" fill-rule="evenodd"/><path fill="#b7b7b7" d="m874.5404 312.0983l24.913391 0l0 24.913391l-24.913391 0z" fill-rule="evenodd"/><path stroke="#ffffff" stroke-width="1.0" stroke-linejoin="round" stroke-linecap="butt" d="m874.5404 312.0983l24.913391 0l0 24.913391l-24.913391 0z" fill-rule="evenodd"/><path fill="#b7b7b7" d="m12.317035 376.0983l24.913383 0l0 24.913391l-24.913383 0z" fill-rule="evenodd"/><path stroke="#ffffff" stroke-width="1.0" stroke-linejoin="round" stroke-linecap="butt" d="m12.317035 376.0983l24.913383 0l0 24.913391l-24.913383 0z" fill-rule="evenodd"/><path fill="#b7b7b7" d="m44.251205 376.0983l24.913383 0l0 24.913391l-24.913383 0z" fill-rule="evenodd"/><path stroke="#ffffff" stroke-width="1.0" stroke-linejoin="round" stroke-linecap="butt" d="m44.251205 376.0983l24.913383 0l0 24.913391l-24.913383 0z" fill-rule="evenodd"/><path fill="#b7b7b7" d="m76.18538 376.0983l24.913383 0l0 24.913391l-24.913383 0z" fill-rule="evenodd"/><path stroke="#ffffff" stroke-width="1.0" stroke-linejoin="round" stroke-linecap="butt" d="m76.18538 376.0983l24.913383 0l0 24.913391l-24.913383 0z" fill-rule="evenodd"/><path fill="#b7b7b7" d="m108.11955 376.0983l24.913376 0l0 24.913391l-24.913376 0z" fill-rule="evenodd"/><path stroke="#ffffff" stroke-width="1.0" stroke-linejoin="round" stroke-linecap="butt" d="m108.11955 376.0983l24.913376 0l0 24.913391l-24.913376 0z" fill-rule="evenodd"/><path fill="#b7b7b7" d="m140.05373 376.0983l24.913376 0l0 24.913391l-24.913376 0z" fill-rule="evenodd"/><path stroke="#ffffff" stroke-width="1.0" stroke-linejoin="round" stroke-linecap="butt" d="m140.05373 376.0983l24.913376 0l0 24.913391l-24.913376 0z" fill-rule="evenodd"/><path fill="#b7b7b7" d="m171.9879 376.0983l24.913376 0l0 24.913391l-24.913376 0z" fill-rule="evenodd"/><path stroke="#ffffff" stroke-width="1.0" stroke-linejoin="round" stroke-linecap="butt" d="m171.9879 376.0983l24.913376 0l0 24.913391l-24.913376 0z" fill-rule="evenodd"/><path fill="#b7b7b7" d="m203.92206 376.0983l24.913391 0l0 24.913391l-24.913391 0z" fill-rule="evenodd"/><path stroke="#ffffff" stroke-width="1.0" stroke-linejoin="round" stroke-linecap="butt" d="m203.92206 376.0983l24.913391 0l0 24.913391l-24.913391 0z" fill-rule="evenodd"/><path fill="#b7b7b7" d="m235.85623 376.0983l24.913391 0l0 24.913391l-24.913391 0z" fill-rule="evenodd"/><path stroke="#ffffff" stroke-width="1.0" stroke-linejoin="round" stroke-linecap="butt" d="m235.85623 376.0983l24.913391 0l0 24.913391l-24.913391 0z" fill-rule="evenodd"/><path fill="#b7b7b7" d="m267.7904 376.0983l24.913391 0l0 24.913391l-24.913391 0z" fill-rule="evenodd"/><path stroke="#ffffff" stroke-width="1.0" stroke-linejoin="round" stroke-linecap="butt" d="m267.7904 376.0983l24.913391 0l0 24.913391l-24.913391 0z" fill-rule="evenodd"/><path fill="#b7b7b7" d="m299.72458 376.0983l24.913391 0l0 24.913391l-24.913391 0z" fill-rule="evenodd"/><path stroke="#ffffff" stroke-width="1.0" stroke-linejoin="round" stroke-linecap="butt" d="m299.72458 376.0983l24.913391 0l0 24.913391l-24.913391 0z" fill-rule="evenodd"/><path fill="#b7b7b7" d="m331.65875 376.0983l24.913391 0l0 24.913391l-24.913391 0z" fill-rule="evenodd"/><path stroke="#ffffff" stroke-width="1.0" stroke-linejoin="round" stroke-linecap="butt" d="m331.65875 376.0983l24.913391 0l0 24.913391l-24.913391 0z" fill-rule="evenodd"/><path fill="#b7b7b7" d="m363.59293 376.0983l24.913391 0l0 24.913391l-24.913391 0z" fill-rule="evenodd"/><path stroke="#ffffff" stroke-width="1.0" stroke-linejoin="round" stroke-linecap="butt" d="m363.59293 376.0983l24.913391 0l0 24.913391l-24.913391 0z" fill-rule="evenodd"/><path fill="#000000" fill-opacity="0.0" d="m855.0629 312.0983l-29.795227 -49.66928" fill-rule="evenodd"/><path stroke="#ffffff" stroke-width="1.0" stroke-linejoin="round" stroke-linecap="butt" d="m855.0629 312.0983l-29.795227 -49.66928" fill-rule="evenodd"/><path fill="#000000" fill-opacity="0.0" d="m823.1288 312.0983l-29.795288 -49.66928" fill-rule="evenodd"/><path stroke="#ffffff" stroke-width="1.0" stroke-linejoin="round" stroke-linecap="butt" d="m823.1288 312.0983l-29.795288 -49.66928" fill-rule="evenodd"/><path fill="#000000" fill-opacity="0.0" d="m791.1946 312.0983l2.1417847 -49.66928" fill-rule="evenodd"/><path stroke="#ffffff" stroke-width="1.0" stroke-linejoin="round" stroke-linecap="butt" d="m791.1946 312.0983l2.1417847 -49.66928" fill-rule="evenodd"/><path fill="#000000" fill-opacity="0.0" d="m759.26044 312.0983l2.1417236 -49.66928" fill-rule="evenodd"/><path stroke="#ffffff" stroke-width="1.0" stroke-linejoin="round" stroke-linecap="butt" d="m759.26044 312.0983l2.1417236 -49.66928" fill-rule="evenodd"/><path fill="#000000" fill-opacity="0.0" d="m727.3263 312.0983l34.078735 -49.66928" fill-rule="evenodd"/><path stroke="#ffffff" stroke-width="1.0" stroke-linejoin="round" stroke-linecap="butt" d="m727.3263 312.0983l34.078735 -49.66928" fill-rule="evenodd"/><path fill="#000000" fill-opacity="0.0" d="m695.3921 312.0983l34.078735 -49.66928" fill-rule="evenodd"/><path stroke="#ffffff" stroke-width="1.0" stroke-linejoin="round" stroke-linecap="butt" d="m695.3921 312.0983l34.078735 -49.66928" fill-rule="evenodd"/><path fill="#000000" fill-opacity="0.0" d="m663.45795 312.0983l66.01575 -49.66928" fill-rule="evenodd"/><path stroke="#ffffff" stroke-width="1.0" stroke-linejoin="round" stroke-linecap="butt" d="m663.45795 312.0983l66.01575 -49.66928" fill-rule="evenodd"/><path fill="#000000" fill-opacity="0.0" d="m567.6554 376.0983l-184.78738 -49.66928" fill-rule="evenodd"/><path stroke="#ffffff" stroke-width="1.0" stroke-linejoin="round" stroke-linecap="butt" d="m567.6554 376.0983l-184.78738 -49.66928" fill-rule="evenodd"/><path fill="#000000" fill-opacity="0.0" d="m535.72125 376.0983l-152.8504 -49.66928" fill-rule="evenodd"/><path stroke="#ffffff" stroke-width="1.0" stroke-linejoin="round" stroke-linecap="butt" d="m535.72125 376.0983l-152.8504 -49.66928" fill-rule="evenodd"/><path fill="#000000" fill-opacity="0.0" d="m503.78705 376.0983l-152.85037 -49.66928" fill-rule="evenodd"/><path stroke="#ffffff" stroke-width="1.0" stroke-linejoin="round" stroke-linecap="butt" d="m503.78705 376.0983l-152.85037 -49.66928" fill-rule="evenodd"/><path fill="#000000" fill-opacity="0.0" d="m471.8529 376.0983l-120.91339 -49.66928" fill-rule="evenodd"/><path stroke="#ffffff" stroke-width="1.0" stroke-linejoin="round" stroke-linecap="butt" d="m471.8529 376.0983l-120.91339 -49.66928" fill-rule="evenodd"/><path fill="#000000" fill-opacity="0.0" d="m439.91873 376.0983l-120.91339 -49.66928" fill-rule="evenodd"/><path stroke="#ffffff" stroke-width="1.0" stroke-linejoin="round" stroke-linecap="butt" d="m439.91873 376.0983l-120.91339 -49.66928" fill-rule="evenodd"/><path fill="#000000" fill-opacity="0.0" d="m407.98456 376.0983l-88.97638 -49.66928" fill-rule="evenodd"/><path stroke="#ffffff" stroke-width="1.0" stroke-linejoin="round" stroke-linecap="butt" d="m407.98456 376.0983l-88.97638 -49.66928" fill-rule="evenodd"/><path fill="#000000" fill-opacity="0.0" d="m376.04962 376.0983l-88.97638 -49.66928" fill-rule="evenodd"/><path stroke="#ffffff" stroke-width="1.0" stroke-linejoin="round" stroke-linecap="butt" d="m376.04962 376.0983l-88.97638 -49.66928" fill-rule="evenodd"/><path fill="#000000" fill-opacity="0.0" d="m344.11545 376.0983l-57.039368 -49.66928" fill-rule="evenodd"/><path stroke="#ffffff" stroke-width="1.0" stroke-linejoin="round" stroke-linecap="butt" d="m344.11545 376.0983l-57.039368 -49.66928" fill-rule="evenodd"/><path fill="#000000" fill-opacity="0.0" d="m312.18127 376.0983l-57.039368 -49.66928" fill-rule="evenodd"/><path stroke="#ffffff" stroke-width="1.0" stroke-linejoin="round" stroke-linecap="butt" d="m312.18127 376.0983l-57.039368 -49.66928" fill-rule="evenodd"/><path fill="#000000" fill-opacity="0.0" d="m280.2471 376.0983l-25.102356 -49.66928" fill-rule="evenodd"/><path stroke="#ffffff" stroke-width="1.0" stroke-linejoin="round" stroke-linecap="butt" d="m280.2471 376.0983l-25.102356 -49.66928" fill-rule="evenodd"/><path fill="#000000" fill-opacity="0.0" d="m248.31293 376.0983l-25.102356 -49.66928" fill-rule="evenodd"/><path stroke="#ffffff" stroke-width="1.0" stroke-linejoin="round" stroke-linecap="butt" d="m248.31293 376.0983l-25.102356 -49.66928" fill-rule="evenodd"/><path fill="#000000" fill-opacity="0.0" d="m216.37875 376.0983l6.834656 -49.66928" fill-rule="evenodd"/><path stroke="#ffffff" stroke-width="1.0" stroke-linejoin="round" stroke-linecap="butt" d="m216.37875 376.0983l6.834656 -49.66928" fill-rule="evenodd"/><path fill="#000000" fill-opacity="0.0" d="m184.44458 376.0983l6.834656 -49.66928" fill-rule="evenodd"/><path stroke="#ffffff" stroke-width="1.0" stroke-linejoin="round" stroke-linecap="butt" d="m184.44458 376.0983l6.834656 -49.66928" fill-rule="evenodd"/><path fill="#000000" fill-opacity="0.0" d="m152.51042 376.0983l38.771652 -49.66928" fill-rule="evenodd"/><path stroke="#ffffff" stroke-width="1.0" stroke-linejoin="round" stroke-linecap="butt" d="m152.51042 376.0983l38.771652 -49.66928" fill-rule="evenodd"/><path fill="#000000" fill-opacity="0.0" d="m120.57624 376.0983l38.77166 -49.66928" fill-rule="evenodd"/><path stroke="#ffffff" stroke-width="1.0" stroke-linejoin="round" stroke-linecap="butt" d="m120.57624 376.0983l38.77166 -49.66928" fill-rule="evenodd"/><path fill="#000000" fill-opacity="0.0" d="m88.642075 376.0983l70.677155 -49.66928" fill-rule="evenodd"/><path stroke="#ffffff" stroke-width="1.0" stroke-linejoin="round" stroke-linecap="butt" d="m88.642075 376.0983l70.677155 -49.66928" fill-rule="evenodd"/><path fill="#000000" fill-opacity="0.0" d="m56.7079 376.0983l70.67716 -49.66928" fill-rule="evenodd"/><path stroke="#ffffff" stroke-width="1.0" stroke-linejoin="round" stroke-linecap="butt" d="m56.7079 376.0983l70.67716 -49.66928" fill-rule="evenodd"/><path fill="#000000" fill-opacity="0.0" d="m24.773727 376.0983l102.614174 -49.66928" fill-rule="evenodd"/><path stroke="#ffffff" stroke-width="1.0" stroke-linejoin="round" stroke-linecap="butt" d="m24.773727 376.0983l102.614174 -49.66928" fill-rule="evenodd"/><path fill="#000000" fill-opacity="0.0" d="m886.99713 312.0983l-61.7323 -49.66928" fill-rule="evenodd"/><path stroke="#ffffff" stroke-width="1.0" stroke-linejoin="round" stroke-linecap="butt" d="m886.99713 312.0983l-61.7323 -49.66928" fill-rule="evenodd"/><path fill="#b7b7b7" d="m431.98163 159.12862l117.60632 0l0 24.913376l-117.60632 0z" fill-rule="evenodd"/><path stroke="#ffffff" stroke-width="1.0" stroke-linejoin="round" stroke-linecap="butt" d="m431.98163 159.12862l117.60632 0l0 24.913376l-117.60632 0z" fill-rule="evenodd"/><path fill="#000000" d="m449.09723 178.5053l0 -13.359375l1.78125 0l0 11.78125l6.5625 0l0 1.578125l-8.34375 0zm16.875702 -3.109375l1.6875 0.203125q-0.40625 1.484375 -1.484375 2.3125q-1.078125 0.8125 -2.765625 0.8125q-2.125 0 -3.375 -1.296875q-1.234375 -1.3125 -1.234375 -3.671875q0 -2.453125 1.25 -3.796875q1.265625 -1.34375 3.265625 -1.34375q1.9375 0 3.15625 1.328125q1.234375 1.3125 1.234375 3.703125q0 0.15625 0 0.4375l-7.21875 0q0.09375 1.59375 0.90625 2.453125q0.8125 0.84375 2.015625 0.84375q0.90625 0 1.546875 -0.46875q0.640625 -0.484375 1.015625 -1.515625zm-5.390625 -2.65625l5.40625 0q-0.109375 -1.21875 -0.625 -1.828125q-0.78125 -0.953125 -2.03125 -0.953125q-1.125 0 -1.90625 0.765625q-0.765625 0.75 -0.84375 2.015625zm15.453857 4.578125q-0.921875 0.765625 -1.765625 1.09375q-0.828125 0.3125 -1.796875 0.3125q-1.59375 0 -2.453125 -0.78125q-0.859375 -0.78125 -0.859375 -1.984375q0 -0.71875 0.328125 -1.296875q0.328125 -0.59375 0.84375 -0.9375q0.53125 -0.359375 1.1875 -0.546875q0.46875 -0.125 1.453125 -0.25q1.984375 -0.234375 2.921875 -0.5625q0.015625 -0.34375 0.015625 -0.421875q0 -1.0 -0.46875 -1.421875q-0.625 -0.546875 -1.875 -0.546875q-1.15625 0 -1.703125 0.40625q-0.546875 0.40625 -0.8125 1.421875l-1.609375 -0.21875q0.21875 -1.015625 0.71875 -1.640625q0.5 -0.640625 1.453125 -0.984375q0.953125 -0.34375 2.1875 -0.34375q1.25 0 2.015625 0.296875q0.78125 0.28125 1.140625 0.734375q0.375 0.4375 0.515625 1.109375q0.078125 0.421875 0.078125 1.515625l0 2.1875q0 2.28125 0.109375 2.890625q0.109375 0.59375 0.40625 1.15625l-1.703125 0q-0.265625 -0.515625 -0.328125 -1.1875zm-0.140625 -3.671875q-0.890625 0.375 -2.671875 0.625q-1.015625 0.140625 -1.4375 0.328125q-0.421875 0.1875 -0.65625 0.53125q-0.21875 0.34375 -0.21875 0.78125q0 0.65625 0.5 1.09375q0.5 0.4375 1.453125 0.4375q0.9375 0 1.671875 -0.40625q0.75 -0.421875 1.09375 -1.140625q0.265625 -0.5625 0.265625 -1.640625l0 -0.609375zm4.594452 4.859375l0 -8.40625l-1.453125 0l0 -1.265625l1.453125 0l0 -1.03125q0 -0.96875 0.171875 -1.453125q0.234375 -0.640625 0.828125 -1.03125q0.59375 -0.390625 1.671875 -0.390625q0.6875 0 1.53125 0.15625l-0.25 1.4375q-0.5 -0.09375 -0.953125 -0.09375q-0.75 0 -1.0625 0.328125q-0.3125 0.3125 -0.3125 1.1875l0 0.890625l1.890625 0l0 1.265625l-1.890625 0l0 8.40625l-1.625 0zm10.163483 0l0 -13.359375l1.8125 0l7.015625 10.484375l0 -10.484375l1.6875 0l0 13.359375l-1.8125 0l-7.015625 -10.5l0 10.5l-1.6875 0zm12.676086 -4.84375q0 -2.6875 1.484375 -3.96875q1.25 -1.078125 3.046875 -1.078125q2.0 0 3.265625 1.3125q1.2655945 1.296875 1.2655945 3.609375q0 1.859375 -0.5624695 2.9375q-0.5625 1.0625 -1.640625 1.65625q-1.0625 0.59375 -2.328125 0.59375q-2.03125 0 -3.28125 -1.296875q-1.25 -1.3125 -1.25 -3.765625zm1.6875 0q0 1.859375 0.796875 2.796875q0.8125 0.921875 2.046875 0.921875q1.21875 0 2.03125 -0.921875q0.8125 -0.9375 0.8125 -2.84375q0 -1.796875 -0.8125 -2.71875q-0.8125 -0.921875 -2.03125 -0.921875q-1.234375 0 -2.046875 0.921875q-0.796875 0.90625 -0.796875 2.765625zm15.563202 4.84375l0 -1.21875q-0.90625 1.4375 -2.703125 1.4375q-1.15625 0 -2.125 -0.640625q-0.96875 -0.640625 -1.5 -1.78125q-0.53125 -1.140625 -0.53125 -2.625q0 -1.453125 0.484375 -2.625q0.484375 -1.1875 1.4375 -1.8125q0.96875 -0.625 2.171875 -0.625q0.875 0 1.546875 0.375q0.6875 0.359375 1.109375 0.953125l0 -4.796875l1.640625 0l0 13.359375l-1.53125 0zm-5.171875 -4.828125q0 1.859375 0.78125 2.78125q0.78125 0.921875 1.84375 0.921875q1.078125 0 1.828125 -0.875q0.75 -0.890625 0.75 -2.6875q0 -1.984375 -0.765625 -2.90625q-0.765625 -0.9375 -1.890625 -0.9375q-1.078125 0 -1.8125 0.890625q-0.734375 0.890625 -0.734375 2.8125zm15.906982 1.71875l1.6875 0.203125q-0.40625 1.484375 -1.484375 2.3125q-1.078125 0.8125 -2.765625 0.8125q-2.125 0 -3.375 -1.296875q-1.234375 -1.3125 -1.234375 -3.671875q0 -2.453125 1.25 -3.796875q1.265625 -1.34375 3.265625 -1.34375q1.9375 0 3.15625 1.328125q1.234375 1.3125 1.234375 3.703125q0 0.15625 0 0.4375l-7.21875 0q0.09375 1.59375 0.90625 2.453125q0.8125 0.84375 2.015625 0.84375q0.90625 0 1.546875 -0.46875q0.640625 -0.484375 1.015625 -1.515625zm-5.390625 -2.65625l5.40625 0q-0.109375 -1.21875 -0.625 -1.828125q-0.78125 -0.953125 -2.03125 -0.953125q-1.125 0 -1.90625 0.765625q-0.765625 0.75 -0.84375 2.015625z" fill-rule="nonzero"/><path stroke="#ff1864" stroke-width="1.0" stroke-linecap="butt" d="m420.87927 219.29228l0 78.19423" fill-rule="nonzero"/><path stroke="#ff1864" stroke-width="1.0" stroke-linecap="butt" d="m584.4383 219.29228l0 78.19423" fill-rule="nonzero"/><path stroke="#ff1864" stroke-width="1.0" stroke-linecap="butt" d="m420.38058 219.79097l164.55643 0" fill-rule="nonzero"/><path stroke="#ff1864" stroke-width="1.0" stroke-linecap="butt" d="m420.38058 296.98782l164.55643 0" fill-rule="nonzero"/><path fill="#ffffff" d="m476.7076 247.59659l3.875 -12.828125l3.90625 0l-5.9375 17.0625l-3.671875 0l-5.921875 -17.0625l3.90625 0l3.84375 12.828125zm15.980469 4.234375q-0.234375 -0.453125 -0.34375 -1.140625q-1.234375 1.375 -3.203125 1.375q-1.859375 0 -3.09375 -1.078125q-1.21875 -1.078125 -1.21875 -2.71875q0 -2.015625 1.484375 -3.09375q1.5 -1.078125 4.328125 -1.09375l1.5625 0l0 -0.71875q0 -0.890625 -0.453125 -1.40625q-0.453125 -0.53125 -1.421875 -0.53125q-0.859375 0 -1.34375 0.40625q-0.484375 0.40625 -0.484375 1.125l-3.390625 0q0 -1.09375 0.671875 -2.03125q0.6875 -0.9375 1.921875 -1.46875q1.25 -0.546875 2.796875 -0.546875q2.34375 0 3.71875 1.1875q1.375 1.171875 1.375 3.3125l0 5.484375q0.015625 1.8125 0.515625 2.734375l0 0.203125l-3.421875 0zm-2.8125 -2.359375q0.75 0 1.375 -0.328125q0.640625 -0.34375 0.953125 -0.90625l0 -2.171875l-1.265625 0q-2.546875 0 -2.703125 1.75l-0.015625 0.203125q0 0.640625 0.4375 1.046875q0.453125 0.40625 1.21875 0.40625zm11.8984375 2.359375l-3.390625 0l0 -18.0l3.390625 0l0 18.0zm10.378937 -1.296875q-1.2500305 1.53125 -3.4687805 1.53125q-2.03125 0 -3.109375 -1.171875q-1.0625 -1.171875 -1.09375 -3.4375l0 -8.3125l3.390625 0l0 8.203125q0 1.96875 1.796875 1.96875q1.734375 0 2.3750305 -1.1875l0 -8.984375l3.390625 0l0 12.6875l-3.1875 0l-0.09375 -1.296875zm11.6796875 1.53125q-2.796875 0 -4.546875 -1.703125q-1.75 -1.71875 -1.75 -4.5625l0 -0.328125q0 -1.921875 0.734375 -3.421875q0.75 -1.5 2.09375 -2.3125q1.359375 -0.828125 3.09375 -0.828125q2.59375 0 4.09375 1.640625q1.5 1.640625 1.5 4.65625l0 1.390625l-8.078125 0q0.15625 1.234375 0.984375 1.984375q0.828125 0.75 2.09375 0.75q1.953125 0 3.0625 -1.421875l1.65625 1.875q-0.75 1.078125 -2.0625 1.6875q-1.296875 0.59375 -2.875 0.59375zm-0.390625 -10.40625q-1.0 0 -1.640625 0.6875q-0.625 0.671875 -0.796875 1.9375l4.71875 0l0 -0.265625q-0.03125 -1.125 -0.625 -1.734375q-0.578125 -0.625 -1.65625 -0.625zm7.6914062 8.5q0 -0.796875 0.53125 -1.296875q0.546875 -0.515625 1.375 -0.515625q0.828125 0 1.375 0.515625q0.546875 0.5 0.546875 1.296875q0 0.796875 -0.546875 1.296875q-0.53125 0.5 -1.375 0.5q-0.828125 0 -1.375 -0.5q-0.53125 -0.5 -0.53125 -1.296875zm0 -9.59375q0 -0.796875 0.53125 -1.296875q0.546875 -0.515625 1.375 -0.515625q0.828125 0 1.375 0.515625q0.546875 0.5 0.546875 1.296875q0 0.796875 -0.546875 1.296875q-0.53125 0.5 -1.375 0.5q-0.828125 0 -1.375 -0.5q-0.53125 -0.5 -0.53125 -1.296875z" fill-rule="nonzero"/><path fill="#ffffff" d="m445.93027 273.76846q0 3.546875 -1.46875 5.421875q-1.453125 1.875 -4.28125 1.875q-2.78125 0 -4.265625 -1.84375q-1.46875 -1.84375 -1.515625 -5.265625l0 -3.140625q0 -3.578125 1.484375 -5.421875q1.484375 -1.859375 4.265625 -1.859375q2.796875 0 4.265625 1.84375q1.484375 1.828125 1.515625 5.25l0 3.140625zm-3.375 -3.4375q0 -2.125 -0.59375 -3.09375q-0.578125 -0.96875 -1.796875 -0.96875q-1.203125 0 -1.78125 0.921875q-0.5625 0.921875 -0.59375 2.875l0 4.15625q0 2.078125 0.5625 3.09375q0.578125 1.015625 1.828125 1.015625q1.25 0 1.796875 -0.96875q0.546875 -0.96875 0.578125 -2.984375l0 -4.046875zm10.628906 1.609375l2.140625 -3.796875l3.625 0l-3.609375 6.21875l3.75 6.46875l-3.625 0l-2.265625 -3.984375l-2.25 3.984375l-3.640625 0l3.765625 -6.46875l-3.609375 -6.21875l3.640625 0l2.078125 3.796875zm6.6328125 2.453125q0 -2.96875 1.328125 -4.71875q1.328125 -1.765625 3.640625 -1.765625q1.84375 0 3.046875 1.390625l0 -6.46875l3.40625 0l0 18.0l-3.0625 0l-0.15625 -1.34375q-1.265625 1.578125 -3.265625 1.578125q-2.234375 0 -3.59375 -1.765625q-1.34375 -1.765625 -1.34375 -4.90625zm3.375 0.25q0 1.78125 0.625 2.734375q0.625 0.9375 1.8125 0.9375q1.5625 0 2.203125 -1.3125l0 -5.015625q-0.625 -1.3125 -2.1875 -1.3125q-2.453125 0 -2.453125 3.96875zm13.9765625 -3.84375l1.796875 0q1.296875 0 1.90625 -0.640625q0.625 -0.65625 0.625 -1.71875q0 -1.03125 -0.609375 -1.59375q-0.609375 -0.578125 -1.6875 -0.578125q-0.984375 0 -1.640625 0.53125q-0.65625 0.53125 -0.65625 1.390625l-3.375 0q0 -1.34375 0.71875 -2.40625q0.71875 -1.0625 2.015625 -1.65625q1.296875 -0.59375 2.84375 -0.59375q2.71875 0 4.25 1.296875q1.53125 1.296875 1.53125 3.5625q0 1.171875 -0.71875 2.15625q-0.703125 0.984375 -1.875 1.515625q1.453125 0.515625 2.15625 1.546875q0.703125 1.03125 0.703125 2.4375q0 2.265625 -1.65625 3.640625q-1.65625 1.375 -4.390625 1.375q-2.546875 0 -4.171875 -1.34375q-1.625 -1.359375 -1.625 -3.5625l3.390625 0q0 0.953125 0.71875 1.5625q0.71875 0.609375 1.78125 0.609375q1.203125 0 1.890625 -0.640625q0.6875 -0.640625 0.6875 -1.6875q0 -2.5625 -2.8125 -2.5625l-1.796875 0l0 -2.640625zm21.925781 -5.140625l-6.59375 15.171875l-3.578125 0l6.609375 -14.328125l-8.484375 0l0 -2.734375l12.046875 0l0 1.890625zm13.285187 2.640625q0 1.25 -0.6250305 2.21875q-0.609375 0.953125 -1.703125 1.515625q1.234375 0.609375 1.9531555 1.65625q0.734375 1.046875 0.734375 2.46875q0 2.265625 -1.5469055 3.59375q-1.546875 1.3125 -4.203125 1.3125q-2.65625 0 -4.21875 -1.328125q-1.5625 -1.328125 -1.5625 -3.578125q0 -1.421875 0.71875 -2.46875q0.734375 -1.0625 1.96875 -1.65625q-1.09375 -0.5625 -1.703125 -1.515625q-0.609375 -0.96875 -0.609375 -2.21875q0 -2.171875 1.453125 -3.46875q1.453125 -1.296875 3.9375 -1.296875q2.484375 0 3.9375 1.28125q1.4687805 1.28125 1.4687805 3.484375zm-3.0312805 7.609375q0 -1.109375 -0.65625 -1.78125q-0.640625 -0.671875 -1.71875 -0.671875q-1.078125 0 -1.734375 0.671875q-0.640625 0.65625 -0.640625 1.78125q0 1.09375 0.625 1.765625q0.640625 0.65625 1.765625 0.65625q1.109375 0 1.734375 -0.640625q0.625 -0.640625 0.625 -1.78125zm-0.359375 -7.4375q0 -1.0 -0.53125 -1.59375q-0.515625 -0.609375 -1.484375 -0.609375q-0.9375 0 -1.46875 0.59375q-0.53125 0.578125 -0.53125 1.609375q0 1.015625 0.53125 1.640625q0.53125 0.609375 1.484375 0.609375q0.96875 0 1.484375 -0.609375q0.515625 -0.625 0.515625 -1.640625zm13.535187 12.359375q-0.234375 -0.453125 -0.34375 -1.140625q-1.234375 1.375 -3.203125 1.375q-1.859375 0 -3.09375 -1.078125q-1.21875 -1.078125 -1.21875 -2.71875q0 -2.015625 1.484375 -3.09375q1.5 -1.078125 4.328125 -1.09375l1.5625 0l0 -0.71875q0 -0.890625 -0.453125 -1.40625q-0.453125 -0.53125 -1.421875 -0.53125q-0.859375 0 -1.34375 0.40625q-0.484375 0.40625 -0.484375 1.125l-3.390625 0q0 -1.09375 0.671875 -2.03125q0.6875 -0.9375 1.921875 -1.46875q1.25 -0.546875 2.796875 -0.546875q2.34375 0 3.71875 1.1875q1.375 1.171875 1.375 3.3125l0 5.484375q0.015625 1.8125 0.515625 2.734375l0 0.203125l-3.421875 0zm-2.8125 -2.359375q0.75 0 1.375 -0.328125q0.640625 -0.34375 0.953125 -0.90625l0 -2.171875l-1.265625 0q-2.546875 0 -2.703125 1.75l-0.015625 0.203125q0 0.640625 0.4375 1.046875q0.453125 0.40625 1.21875 0.40625zm18.210938 -4.0625l1.921875 0l0 2.734375l-1.921875 0l0 3.6875l-3.390625 0l0 -3.6875l-7.0 0l-0.15625 -2.140625l7.125 -11.234375l3.421875 0l0 10.640625zm-7.171875 0l3.78125 0l0 -6.03125l-0.21875 0.390625l-3.5625 5.640625zm11.425781 -1.96875l0.984375 -8.671875l9.5625 0l0 2.828125l-6.796875 0l-0.421875 3.65625q1.21875 -0.640625 2.578125 -0.640625q2.4375 0 3.8125 1.515625q1.390625 1.515625 1.390625 4.234375q0 1.640625 -0.703125 2.953125q-0.703125 1.3125 -2.0 2.03125q-1.296875 0.71875 -3.0625 0.71875q-1.546875 0 -2.875 -0.625q-1.328125 -0.625 -2.09375 -1.765625q-0.765625 -1.140625 -0.8125 -2.59375l3.34375 0q0.109375 1.0625 0.75 1.65625q0.640625 0.59375 1.671875 0.59375q1.140625 0 1.765625 -0.828125q0.625 -0.828125 0.625 -2.328125q0 -1.453125 -0.71875 -2.21875q-0.71875 -0.78125 -2.03125 -0.78125q-1.203125 0 -1.953125 0.625l-0.328125 0.3125l-2.6875 -0.671875zm13.660156 6.71875q0 -0.796875 0.53125 -1.296875q0.546875 -0.515625 1.375 -0.515625q0.828125 0 1.375 0.515625q0.546875 0.5 0.546875 1.296875q0 0.796875 -0.546875 1.296875q-0.53125 0.5 -1.375 0.5q-0.828125 0 -1.375 -0.5q-0.53125 -0.5 -0.53125 -1.296875zm5.546875 0q0 -0.796875 0.53125 -1.296875q0.546875 -0.515625 1.375 -0.515625q0.828125 0 1.375 0.515625q0.546875 0.5 0.546875 1.296875q0 0.796875 -0.546875 1.296875q-0.53125 0.5 -1.375 0.5q-0.828125 0 -1.375 -0.5q-0.53125 -0.5 -0.53125 -1.296875zm5.4375 0q0 -0.796875 0.53125 -1.296875q0.546875 -0.515625 1.375 -0.515625q0.828125 0 1.375 0.515625q0.546875 0.5 0.546875 1.296875q0 0.796875 -0.546875 1.296875q-0.53125 0.5 -1.375 0.5q-0.828125 0 -1.375 -0.5q-0.53125 -0.5 -0.53125 -1.296875z" fill-rule="nonzero"/><path fill="#000000" fill-opacity="0.0" d="m491.1333 179.68387l0 44.346466" fill-rule="evenodd"/><path stroke="#ffffff" stroke-width="2.0" stroke-linejoin="round" stroke-linecap="butt" d="m491.13333 187.26385l0 29.186478" fill-rule="evenodd"/><path fill="#ffffff" stroke="#ffffff" stroke-width="2.0" stroke-linecap="butt" d="m491.13333 180.68387c1.8170166 0 3.2900085 1.472992 3.2900085 3.2900085c0 1.8170166 -1.472992 3.2899933 -3.2900085 3.2899933c-1.8170166 0 -3.2900085 -1.4729767 -3.2900085 -3.2899933c0 -1.8170166 1.472992 -3.2900085 3.2900085 -3.2900085z" fill-rule="nonzero"/><path fill="#ffffff" stroke="#ffffff" stroke-width="2.0" stroke-linecap="butt" d="m491.13333 223.03033c-1.8170166 0 -3.2900085 -1.472992 -3.2900085 -3.2900085c0 -1.8170166 1.472992 -3.2899933 3.2900085 -3.2899933c1.8170166 0 3.2900085 1.4729767 3.2900085 3.2899933c0 1.8170166 -1.472992 3.2900085 -3.2900085 3.2900085z" fill-rule="nonzero"/><path stroke="#ff1864" stroke-width="1.0" stroke-linecap="butt" d="m638.55383 10.491651l0 49.194225" fill-rule="nonzero"/><path stroke="#ff1864" stroke-width="1.0" stroke-linecap="butt" d="m937.68243 10.491651l0 49.194225" fill-rule="nonzero"/><path stroke="#ff1864" stroke-width="1.0" stroke-linecap="butt" d="m638.0551 10.990338l300.12598 0" fill-rule="nonzero"/><path stroke="#ff1864" stroke-width="1.0" stroke-linecap="butt" d="m638.0551 59.187187l300.12598 0" fill-rule="nonzero"/><path fill="#ffffff" d="m654.42883 36.18659l-1.828125 1.96875l0 4.875l-3.515625 0l0 -17.0625l3.515625 0l0 7.734375l1.546875 -2.125l4.34375 -5.609375l4.328125 0l-6.0625 7.578125l6.234375 9.484375l-4.1875 0l-4.375 -6.84375zm16.1875 2.609375l3.875 -12.828125l3.90625 0l-5.9375 17.0625l-3.671875 0l-5.921875 -17.0625l3.90625 0l3.84375 12.828125zm9.394531 4.234375l0 -17.0625l5.25 0q2.25 0 4.015625 1.015625q1.78125 1.015625 2.765625 2.890625q1.0 1.859375 1.0 4.234375l0 0.78125q0 2.390625 -0.984375 4.25q-0.96875 1.84375 -2.75 2.859375q-1.78125 1.015625 -4.015625 1.03125l-5.28125 0zm3.515625 -14.21875l0 11.390625l1.6875 0q2.0625 0 3.15625 -1.34375q1.09375 -1.34375 1.109375 -3.859375l0 -0.90625q0 -2.59375 -1.078125 -3.9375q-1.078125 -1.34375 -3.140625 -1.34375l-1.734375 0zm12.082031 14.21875l0 -17.0625l5.96875 0q3.109375 0 4.703125 1.1875q1.609375 1.1875 1.609375 3.484375q0 1.25 -0.640625 2.21875q-0.640625 0.953125 -1.796875 1.390625q1.3125 0.328125 2.0625 1.328125q0.765625 1.0 0.765625 2.4375q0 2.453125 -1.578125 3.71875q-1.5625 1.265625 -4.46875 1.296875l-6.625 0zm3.515625 -7.4375l0 4.609375l3.0 0q1.25 0 1.9375 -0.59375q0.703125 -0.59375 0.703125 -1.625q0 -2.34375 -2.421875 -2.390625l-3.21875 0zm0 -2.484375l2.59375 0q2.65625 -0.046875 2.65625 -2.109375q0 -1.171875 -0.671875 -1.671875q-0.671875 -0.515625 -2.125 -0.515625l-2.453125 0l0 4.296875zm20.957031 12.578125l-10.671875 0l0 -2.65625l10.671875 0l0 2.65625zm5.0703125 -5.484375l7.453125 0l0 2.828125l-10.96875 0l0 -17.0625l3.515625 0l0 14.234375zm22.746094 -5.3125q0 2.515625 -0.890625 4.421875q-0.890625 1.890625 -2.5625 2.921875q-1.65625 1.03125 -3.796875 1.03125q-2.125 0 -3.796875 -1.015625q-1.65625 -1.03125 -2.578125 -2.921875q-0.90625 -1.890625 -0.90625 -4.34375l0 -0.84375q0 -2.53125 0.90625 -4.4375q0.90625 -1.921875 2.5625 -2.9375q1.65625 -1.03125 3.78125 -1.03125q2.140625 0 3.796875 1.03125q1.65625 1.015625 2.5625 2.9375q0.921875 1.90625 0.921875 4.421875l0 0.765625zm-3.5625 -0.78125q0 -2.6875 -0.96875 -4.078125q-0.953125 -1.390625 -2.734375 -1.390625q-1.78125 0 -2.75 1.375q-0.953125 1.375 -0.953125 4.03125l0 0.84375q0 2.609375 0.953125 4.046875q0.96875 1.4375 2.765625 1.4375q1.765625 0 2.71875 -1.375q0.953125 -1.390625 0.96875 -4.0625l0 -0.828125zm20.132812 0.78125q0 2.515625 -0.890625 4.421875q-0.890625 1.890625 -2.5625 2.921875q-1.65625 1.03125 -3.796875 1.03125q-2.125 0 -3.796875 -1.015625q-1.65625 -1.03125 -2.578125 -2.921875q-0.90625 -1.890625 -0.90625 -4.34375l0 -0.84375q0 -2.53125 0.90625 -4.4375q0.90625 -1.921875 2.5625 -2.9375q1.65625 -1.03125 3.78125 -1.03125q2.140625 0 3.796875 1.03125q1.65625 1.015625 2.5625 2.9375q0.921875 1.90625 0.921875 4.421875l0 0.765625zm-3.5625 -0.78125q0 -2.6875 -0.96875 -4.078125q-0.953125 -1.390625 -2.734375 -1.390625q-1.78125 0 -2.75 1.375q-0.953125 1.375 -0.953125 4.03125l0 0.84375q0 2.609375 0.953125 4.046875q0.96875 1.4375 2.765625 1.4375q1.765625 0 2.71875 -1.375q0.953125 -1.390625 0.96875 -4.0625l0 -0.828125zm11.4609375 2.078125l-1.828125 1.96875l0 4.875l-3.515625 0l0 -17.0625l3.515625 0l0 7.734375l1.546875 -2.125l4.34375 -5.609375l4.328125 0l-6.0625 7.578125l6.234375 9.484375l-4.1875 0l-4.375 -6.84375zm22.796875 -10.21875l0 11.234375q0 2.796875 -1.75 4.4375q-1.75 1.625 -4.78125 1.625q-3.0 0 -4.765625 -1.578125q-1.75 -1.59375 -1.78125 -4.359375l0 -11.359375l3.515625 0l0 11.265625q0 1.671875 0.796875 2.4375q0.8125 0.765625 2.234375 0.765625q2.953125 0 3.0 -3.109375l0 -11.359375l3.53125 0zm6.40625 11.046875l0 6.015625l-3.515625 0l0 -17.0625l6.65625 0q1.921875 0 3.375 0.703125q1.453125 0.703125 2.234375 2.0q0.796875 1.296875 0.796875 2.9375q0 2.515625 -1.71875 3.96875q-1.71875 1.4375 -4.75 1.4375l-3.078125 0zm0 -2.84375l3.140625 0q1.390625 0 2.125 -0.65625q0.734375 -0.65625 0.734375 -1.875q0 -1.25 -0.75 -2.015625q-0.734375 -0.78125 -2.03125 -0.8125l-3.21875 0l0 5.359375zm11.886719 1.921875q0 -2.6875 0.71875 -5.109375q0.71875 -2.421875 2.109375 -4.296875q1.390625 -1.875 3.015625 -2.59375l0.65625 1.828125q-1.703125 1.265625 -2.671875 3.921875q-0.953125 2.640625 -0.953125 6.171875l0 0.375q0 3.546875 0.9375 6.21875q0.953125 2.65625 2.6875 3.96875l-0.65625 1.78125q-1.59375 -0.703125 -2.96875 -2.515625q-1.375 -1.8125 -2.109375 -4.171875q-0.71875 -2.375 -0.765625 -4.953125l0 -0.625zm19.613281 -0.125q0 3.546875 -1.46875 5.421875q-1.453125 1.875 -4.28125 1.875q-2.78125 0 -4.265625 -1.84375q-1.46875 -1.84375 -1.515625 -5.265625l0 -3.140625q0 -3.578125 1.484375 -5.421875q1.484375 -1.859375 4.265625 -1.859375q2.796875 0 4.265625 1.84375q1.484375 1.828125 1.515625 5.25l0 3.140625zm-3.375 -3.4375q0 -2.125 -0.59375 -3.09375q-0.578125 -0.96875 -1.796875 -0.96875q-1.203125 0 -1.78125 0.921875q-0.5625 0.921875 -0.59375 2.875l0 4.15625q0 2.078125 0.5625 3.09375q0.578125 1.015625 1.828125 1.015625q1.25 0 1.796875 -0.96875q0.546875 -0.96875 0.578125 -2.984375l0 -4.046875zm10.628906 1.609375l2.140625 -3.796875l3.625 0l-3.609375 6.21875l3.75 6.46875l-3.625 0l-2.265625 -3.984375l-2.25 3.984375l-3.640625 0l3.765625 -6.46875l-3.609375 -6.21875l3.640625 0l2.078125 3.796875zm6.6328125 2.453125q0 -2.96875 1.328125 -4.71875q1.328125 -1.765625 3.640625 -1.765625q1.84375 0 3.046875 1.390625l0 -6.46875l3.40625 0l0 18.0l-3.0625 0l-0.15625 -1.34375q-1.265625 1.578125 -3.265625 1.578125q-2.234375 0 -3.59375 -1.765625q-1.34375 -1.765625 -1.34375 -4.90625zm3.375 0.25q0 1.78125 0.625 2.734375q0.625 0.9375 1.8125 0.9375q1.5625 0 2.203125 -1.3125l0 -5.015625q-0.625 -1.3125 -2.1875 -1.3125q-2.453125 0 -2.453125 3.96875zm13.9765625 -3.84375l1.796875 0q1.296875 0 1.90625 -0.640625q0.625 -0.65625 0.625 -1.71875q0 -1.03125 -0.609375 -1.59375q-0.609375 -0.578125 -1.6875 -0.578125q-0.984375 0 -1.640625 0.53125q-0.65625 0.53125 -0.65625 1.390625l-3.375 0q0 -1.34375 0.71875 -2.40625q0.71875 -1.0625 2.015625 -1.65625q1.296875 -0.59375 2.84375 -0.59375q2.71875 0 4.25 1.296875q1.53125 1.296875 1.53125 3.5625q0 1.171875 -0.71875 2.15625q-0.703125 0.984375 -1.875 1.515625q1.453125 0.515625 2.15625 1.546875q0.703125 1.03125 0.703125 2.4375q0 2.265625 -1.65625 3.640625q-1.65625 1.375 -4.390625 1.375q-2.546875 0 -4.171875 -1.34375q-1.625 -1.359375 -1.625 -3.5625l3.390625 0q0 0.953125 0.71875 1.5625q0.71875 0.609375 1.78125 0.609375q1.203125 0 1.890625 -0.640625q0.6875 -0.640625 0.6875 -1.6875q0 -2.5625 -2.8125 -2.5625l-1.796875 0l0 -2.640625zm21.925781 -5.140625l-6.59375 15.171875l-3.578125 0l6.609375 -14.328125l-8.484375 0l0 -2.734375l12.046875 0l0 1.890625zm13.285156 2.640625q0 1.25 -0.625 2.21875q-0.609375 0.953125 -1.703125 1.515625q1.234375 0.609375 1.953125 1.65625q0.734375 1.046875 0.734375 2.46875q0 2.265625 -1.546875 3.59375q-1.546875 1.3125 -4.203125 1.3125q-2.65625 0 -4.21875 -1.328125q-1.5625 -1.328125 -1.5625 -3.578125q0 -1.421875 0.71875 -2.46875q0.734375 -1.0625 1.96875 -1.65625q-1.09375 -0.5625 -1.703125 -1.515625q-0.609375 -0.96875 -0.609375 -2.21875q0 -2.171875 1.453125 -3.46875q1.453125 -1.296875 3.9375 -1.296875q2.484375 0 3.9375 1.28125q1.46875 1.28125 1.46875 3.484375zm-3.03125 7.609375q0 -1.109375 -0.65625 -1.78125q-0.640625 -0.671875 -1.71875 -0.671875q-1.078125 0 -1.734375 0.671875q-0.640625 0.65625 -0.640625 1.78125q0 1.09375 0.625 1.765625q0.640625 0.65625 1.765625 0.65625q1.109375 0 1.734375 -0.640625q0.625 -0.640625 0.625 -1.78125zm-0.359375 -7.4375q0 -1.0 -0.53125 -1.59375q-0.515625 -0.609375 -1.484375 -0.609375q-0.9375 0 -1.46875 0.59375q-0.53125 0.578125 -0.53125 1.609375q0 1.015625 0.53125 1.640625q0.53125 0.609375 1.484375 0.609375q0.96875 0 1.484375 -0.609375q0.515625 -0.625 0.515625 -1.640625zm6.4414062 10.6875q0 -0.796875 0.53125 -1.296875q0.546875 -0.515625 1.375 -0.515625q0.828125 0 1.375 0.515625q0.546875 0.5 0.546875 1.296875q0 0.796875 -0.546875 1.296875q-0.53125 0.5 -1.375 0.5q-0.828125 0 -1.375 -0.5q-0.53125 -0.5 -0.53125 -1.296875zm5.546875 0q0 -0.796875 0.53125 -1.296875q0.546875 -0.515625 1.375 -0.515625q0.828125 0 1.375 0.515625q0.546875 0.5 0.546875 1.296875q0 0.796875 -0.546875 1.296875q-0.53125 0.5 -1.375 0.5q-0.828125 0 -1.375 -0.5q-0.53125 -0.5 -0.53125 -1.296875zm5.4375 0q0 -0.796875 0.53125 -1.296875q0.546875 -0.515625 1.375 -0.515625q0.828125 0 1.375 0.515625q0.546875 0.5 0.546875 1.296875q0 0.796875 -0.546875 1.296875q-0.53125 0.5 -1.375 0.5q-0.828125 0 -1.375 -0.5q-0.53125 -0.5 -0.53125 -1.296875zm12.347656 -5.0q0 2.65625 -0.765625 5.109375q-0.765625 2.4375 -2.203125 4.3125q-1.421875 1.875 -3.046875 2.578125l-0.65625 -1.78125q1.671875 -1.265625 2.625 -3.875q0.96875 -2.609375 1.0 -6.015625l0 -0.625q0 -3.5 -0.953125 -6.171875q-0.953125 -2.671875 -2.671875 -4.0l0.65625 -1.796875q1.59375 0.6875 3.0 2.515625q1.421875 1.8125 2.203125 4.234375q0.78125 2.40625 0.8125 4.984375l0 0.53125z" fill-rule="nonzero"/><path fill="#000000" fill-opacity="0.0" d="m778.5769 54.98369l0 44.34646" fill-rule="evenodd"/><path stroke="#ffffff" stroke-width="2.0" stroke-linejoin="round" stroke-linecap="butt" d="m778.57684 62.56369l0 29.912277" fill-rule="evenodd"/><path fill="#ffffff" stroke="#ffffff" stroke-width="2.0" stroke-linecap="butt" d="m778.57684 55.98369c1.8170166 0 3.290039 1.4729843 3.290039 3.290001c0 1.8170166 -1.4730225 3.289997 -3.290039 3.289997c-1.8170166 0 -3.289978 -1.4729805 -3.289978 -3.289997c0 -1.8170166 1.4729614 -3.290001 3.289978 -3.290001z" fill-rule="nonzero"/><path fill="#ffffff" stroke="#ffffff" stroke-width="2.0" stroke-linecap="butt" d="m778.57684 92.475975l-2.2491455 -2.2491684l2.2491455 6.179535l2.2492065 -6.179535z" fill-rule="evenodd"/></g></svg>