<svg version="1.1" viewBox="0.0 0.0 409.6404199475066 498.54330708661416" fill="none" stroke="none" stroke-linecap="square" stroke-miterlimit="10" xmlns:xlink="http://www.w3.org/1999/xlink" xmlns="http://www.w3.org/2000/svg"><clipPath id="p.0"><path d="m0 0l409.6404 0l0 498.5433l-409.6404 0l0 -498.5433z" clip-rule="nonzero"/></clipPath><g clip-path="url(#p.0)"><path fill="#000000" fill-opacity="0.0" d="m0 0l409.6404 0l0 498.5433l-409.6404 0z" fill-rule="evenodd"/><path shape-rendering="crispEdges" fill="#38761d" d="m6.2440944 93.103676l61.191597 0l0 39.999992l-61.191597 0l0 -39.999992z" fill-rule="nonzero"/><path shape-rendering="crispEdges" fill="#38761d" d="m130.42783 93.103676l20.997375 0l0 39.999992l-20.997375 0l0 -39.999992z" fill-rule="nonzero"/><path stroke="#999999" stroke-width="1.0" stroke-linecap="butt" d="m6.2440944 52.60499l0 80.99737" fill-rule="nonzero"/><path stroke="#999999" stroke-width="1.0" stroke-linecap="butt" d="m67.43569 52.60499l0 80.99737" fill-rule="nonzero"/><path stroke="#999999" stroke-width="1.0" stroke-linecap="butt" d="m88.43307 92.60499l0 40.997368" fill-rule="nonzero"/><path stroke="#999999" stroke-width="1.0" stroke-linecap="butt" d="m109.43044 92.60499l0 40.997368" fill-rule="nonzero"/><path stroke="#999999" stroke-width="1.0" stroke-linecap="butt" d="m130.42783 92.60499l0 40.997368" fill-rule="nonzero"/><path stroke="#999999" stroke-width="1.0" stroke-linecap="butt" d="m151.4252 92.60499l0 40.997368" fill-rule="nonzero"/><path stroke="#999999" stroke-width="1.0" stroke-linecap="butt" d="m172.42258 92.60499l0 40.997368" fill-rule="nonzero"/><path stroke="#999999" stroke-width="1.0" stroke-linecap="butt" d="m193.41995 92.60499l0 40.997368" fill-rule="nonzero"/><path stroke="#999999" stroke-width="1.0" stroke-linecap="butt" d="m214.41733 92.60499l0 40.997368" fill-rule="nonzero"/><path stroke="#999999" stroke-width="1.0" stroke-linecap="butt" d="m235.4147 92.60499l0 40.997368" fill-rule="nonzero"/><path stroke="#999999" stroke-width="1.0" stroke-linecap="butt" d="m256.41208 92.60499l0 40.997368" fill-rule="nonzero"/><path stroke="#999999" stroke-width="1.0" stroke-linecap="butt" d="m277.40945 92.60499l0 40.997368" fill-rule="nonzero"/><path stroke="#999999" stroke-width="1.0" stroke-linecap="butt" d="m298.40683 92.60499l0 40.997368" fill-rule="nonzero"/><path stroke="#999999" stroke-width="1.0" stroke-linecap="butt" d="m319.4042 92.60499l0 40.997368" fill-rule="nonzero"/><path stroke="#999999" stroke-width="1.0" stroke-linecap="butt" d="m340.40158 92.60499l0 40.997368" fill-rule="nonzero"/><path stroke="#999999" stroke-width="1.0" stroke-linecap="butt" d="m361.39896 92.60499l0 40.997368" fill-rule="nonzero"/><path stroke="#999999" stroke-width="1.0" stroke-linecap="butt" d="m382.39633 92.60499l0 40.997368" fill-rule="nonzero"/><path stroke="#999999" stroke-width="1.0" stroke-linecap="butt" d="m403.3937 52.60499l0 80.99737" fill-rule="nonzero"/><path stroke="#999999" stroke-width="1.0" stroke-linecap="butt" d="m5.7454066 53.103676l398.147 0" fill-rule="nonzero"/><path stroke="#999999" stroke-width="1.0" stroke-linecap="butt" d="m5.7454066 93.103676l398.147 0" fill-rule="nonzero"/><path stroke="#999999" stroke-width="1.0" stroke-linecap="butt" d="m5.7454066 133.10367l398.147 0" fill-rule="nonzero"/><path fill="#ffffff" d="m20.093405 75.211174q0 2.25 -1.03125 3.625q-1.015625 1.375 -2.78125 1.375q-1.796875 0 -2.828125 -1.140625l0 4.75l-1.671875 0l0 -13.65625l1.53125 0l0.078125 1.09375q1.03125 -1.265625 2.859375 -1.265625q1.78125 0 2.8125 1.34375q1.03125 1.328125 1.03125 3.71875l0 0.15625zm-1.671875 -0.203125q0 -1.65625 -0.71875 -2.625q-0.703125 -0.96875 -1.953125 -0.96875q-1.53125 0 -2.296875 1.359375l0 4.703125q0.765625 1.359375 2.328125 1.359375q1.203125 0 1.921875 -0.953125q0.71875 -0.96875 0.71875 -2.875zm9.904312 5.015625q-0.140625 -0.296875 -0.234375 -1.03125q-1.171875 1.21875 -2.8125 1.21875q-1.453125 0 -2.390625 -0.828125q-0.921875 -0.828125 -0.921875 -2.09375q0 -1.53125 1.15625 -2.375q1.171875 -0.859375 3.296875 -0.859375l1.640625 0l0 -0.78125q0 -0.890625 -0.53125 -1.40625q-0.515625 -0.53125 -1.546875 -0.53125q-0.90625 0 -1.515625 0.46875q-0.609375 0.453125 -0.609375 1.09375l-1.703125 0q0 -0.734375 0.515625 -1.421875q0.53125 -0.6875 1.421875 -1.078125q0.90625 -0.40625 1.984375 -0.40625q1.703125 0 2.671875 0.859375q0.96875 0.84375 1.0 2.328125l0 4.53125q0 1.359375 0.34375 2.171875l0 0.140625l-1.765625 0zm-2.796875 -1.28125q0.796875 0 1.5 -0.40625q0.71875 -0.421875 1.03125 -1.078125l0 -2.015625l-1.3125 0q-3.109375 0 -3.109375 1.8125q0 0.796875 0.53125 1.25q0.53125 0.4375 1.359375 0.4375zm11.632353 -7.0625q-0.390625 -0.0625 -0.84375 -0.0625q-1.65625 0 -2.25 1.40625l0 7.0l-1.671875 0l0 -9.859375l1.640625 0l0.015625 1.140625q0.828125 -1.3125 2.359375 -1.3125q0.484375 0 0.75 0.125l0 1.5625zm4.2842445 -3.90625l0 2.390625l1.84375 0l0 1.3125l-1.84375 0l0 6.109375q0 0.59375 0.234375 0.890625q0.25 0.296875 0.84375 0.296875q0.296875 0 0.8125 -0.109375l0 1.359375q-0.671875 0.1875 -1.296875 0.1875q-1.125 0 -1.703125 -0.6875q-0.578125 -0.6875 -0.578125 -1.9375l0 -6.109375l-1.7968788 0l0 -1.3125l1.7968788 0l0 -2.390625l1.6875 0zm5.6411285 12.25l-1.6875 0l0 -9.859375l1.6875 0l0 9.859375zm-1.828125 -12.46875q0 -0.40625 0.25 -0.6875q0.25 -0.296875 0.734375 -0.296875q0.5 0 0.75 0.296875q0.265625 0.28125 0.265625 0.6875q0 0.40625 -0.265625 0.6875q-0.25 0.265625 -0.75 0.265625q-0.484375 0 -0.734375 -0.265625q-0.25 -0.28125 -0.25 -0.6875zm10.605545 12.46875q-0.140625 -0.296875 -0.234375 -1.03125q-1.171875 1.21875 -2.8125 1.21875q-1.453125 0 -2.390625 -0.828125q-0.921875 -0.828125 -0.921875 -2.09375q0 -1.53125 1.15625 -2.375q1.171875 -0.859375 3.296875 -0.859375l1.640625 0l0 -0.78125q0 -0.890625 -0.53125 -1.40625q-0.515625 -0.53125 -1.546875 -0.53125q-0.90625 0 -1.515625 0.46875q-0.609375 0.453125 -0.609375 1.09375l-1.703125 0q0 -0.734375 0.515625 -1.421875q0.53125 -0.6875 1.421875 -1.078125q0.90625 -0.40625 1.984375 -0.40625q1.703125 0 2.671875 0.859375q0.96875 0.84375 1.0 2.328125l0 4.53125q0 1.359375 0.34375 2.171875l0 0.140625l-1.765625 0zm-2.796875 -1.28125q0.796875 0 1.5 -0.40625q0.71875 -0.421875 1.03125 -1.078125l0 -2.015625l-1.3125 0q-3.109375 0 -3.109375 1.8125q0 0.796875 0.53125 1.25q0.53125 0.4375 1.359375 0.4375zm8.694855 1.28125l-1.6875 0l0 -14.0l1.6875 0l0 14.0z" fill-rule="nonzero"/><path fill="#ffffff" d="m207.68185 78.836174q0.890625 0 1.5625 -0.546875q0.6875 -0.546875 0.75 -1.375l1.59375 0q-0.046875 0.84375 -0.578125 1.609375q-0.53125 0.765625 -1.4375 1.234375q-0.890625 0.453125 -1.890625 0.453125q-2.015625 0 -3.203125 -1.34375q-1.1875 -1.34375 -1.1875 -3.6875l0 -0.28125q0 -1.4375 0.515625 -2.546875q0.53125 -1.125 1.515625 -1.734375q1.0 -0.625 2.34375 -0.625q1.65625 0 2.75 1.0q1.109375 0.984375 1.171875 2.5625l-1.59375 0q-0.0625 -0.953125 -0.71875 -1.5625q-0.65625 -0.625 -1.609375 -0.625q-1.28125 0 -2.0 0.921875q-0.703125 0.921875 -0.703125 2.671875l0 0.328125q0 1.703125 0.703125 2.625q0.703125 0.921875 2.015625 0.921875zm7.484131 -7.46875q1.125 -1.375 2.921875 -1.375q3.125 0 3.15625 3.515625l0 6.515625l-1.6875 0l0 -6.515625q-0.015625 -1.078125 -0.5 -1.578125q-0.46875 -0.515625 -1.484375 -0.515625q-0.8125 0 -1.4375 0.4375q-0.609375 0.4375 -0.96875 1.15625l0 7.015625l-1.671875 0l0 -14.0l1.671875 0l0 5.34375zm10.431763 8.65625l-1.6875 0l0 -9.859375l1.6875 0l0 9.859375zm-1.828125 -12.46875q0 -0.40625 0.25 -0.6875q0.25 -0.296875 0.734375 -0.296875q0.5 0 0.75 0.296875q0.265625 0.28125 0.265625 0.6875q0 0.40625 -0.265625 0.6875q-0.25 0.265625 -0.75 0.265625q-0.484375 0 -0.734375 -0.265625q-0.25 -0.28125 -0.25 -0.6875zm6.355545 12.46875l-1.6875 0l0 -14.0l1.6875 0l0 14.0zm2.27742 -5.015625q0 -2.265625 1.078125 -3.640625q1.078125 -1.375 2.8125 -1.375q1.734375 0 2.75 1.171875l0 -5.140625l1.6875 0l0 14.0l-1.546875 0l-0.09375 -1.0625q-1.0 1.25 -2.8125 1.25q-1.703125 0 -2.796875 -1.40625q-1.078125 -1.40625 -1.078125 -3.65625l0 -0.140625zm1.6875 0.203125q0 1.671875 0.6875 2.625q0.703125 0.9375 1.921875 0.9375q1.609375 0 2.34375 -1.4375l0 -4.53125q-0.765625 -1.390625 -2.328125 -1.390625q-1.234375 0 -1.9375 0.953125q-0.6875 0.953125 -0.6875 2.84375zm14.021469 -3.53125q-0.390625 -0.0625 -0.84375 -0.0625q-1.65625 0 -2.25 1.40625l0 7.0l-1.671875 0l0 -9.859375l1.640625 0l0.015625 1.140625q0.828125 -1.3125 2.359375 -1.3125q0.484375 0 0.75 0.125l0 1.5625zm5.4522095 8.53125q-2.0 0 -3.265625 -1.3125q-1.25 -1.328125 -1.25 -3.53125l0 -0.3125q0 -1.46875 0.5625 -2.609375q0.5625 -1.15625 1.5625 -1.796875q1.015625 -0.65625 2.1875 -0.65625q1.921875 0 2.9843597 1.265625q1.0625 1.265625 1.0625 3.625l0 0.6875l-6.6718597 0q0.03125 1.46875 0.84375 2.375q0.828125 0.890625 2.078125 0.890625q0.890625 0 1.515625 -0.359375q0.625 -0.375 1.0781097 -0.96875l1.03125 0.796875q-1.234375 1.90625 -3.7187347 1.90625zm-0.203125 -8.84375q-1.015625 0 -1.71875 0.75q-0.6875 0.734375 -0.84375 2.078125l4.9375 0l0 -0.125q-0.078125 -1.28125 -0.703125 -1.984375q-0.609375 -0.71875 -1.671875 -0.71875zm7.6025543 -1.203125l0.046875 1.234375q1.125 -1.40625 2.953125 -1.40625q3.125 0 3.15625 3.515625l0 6.515625l-1.6875 0l0 -6.515625q-0.015625 -1.078125 -0.5 -1.578125q-0.46875 -0.515625 -1.484375 -0.515625q-0.8125 0 -1.4375 0.4375q-0.609375 0.4375 -0.96875 1.15625l0 7.015625l-1.671875 0l0 -9.859375l1.59375 0z" fill-rule="nonzero"/><path fill="#ffffff" d="m33.887318 120.023674q-0.140625 -0.296875 -0.234375 -1.03125q-1.171875 1.21875 -2.812498 1.21875q-1.453125 0 -2.390625 -0.828125q-0.921875 -0.828125 -0.921875 -2.09375q0 -1.53125 1.15625 -2.375q1.171875 -0.859375 3.296875 -0.859375l1.6406231 0l0 -0.78125q0 -0.890625 -0.53125 -1.40625q-0.515625 -0.53125 -1.5468731 -0.53125q-0.90625 0 -1.515625 0.46875q-0.609375 0.453125 -0.609375 1.09375l-1.703125 0q0 -0.734375 0.515625 -1.421875q0.53125 -0.6875 1.421875 -1.078125q0.90625 -0.40625 1.984375 -0.40625q1.7031231 0 2.671873 0.859375q0.96875 0.84375 1.0 2.328125l0 4.53125q0 1.359375 0.34375 2.171875l0 0.140625l-1.765625 0zm-2.796873 -1.28125q0.796875 0 1.4999981 -0.40625q0.71875 -0.421875 1.03125 -1.078125l0 -2.015625l-1.3125 0q-3.109373 0 -3.109373 1.8125q0 0.796875 0.53125 1.25q0.53125 0.4375 1.359375 0.4375zm15.257357 -11.03125l-5.5 12.3125l-1.765625 0l5.46875 -11.875l-7.171879 0l0 -1.390625l8.968754 0l0 0.953125z" fill-rule="nonzero"/><path fill="#ffffff" d="m82.11829 114.367424q0 2.953125 -1.015625 4.40625q-1.015625 1.4375 -3.15625 1.4375q-2.125 0 -3.15625 -1.40625q-1.015625 -1.40625 -1.046875 -4.203125l0 -2.25q0 -2.9375 1.0 -4.359375q1.015625 -1.421875 3.1875 -1.421875q2.140625 0 3.140625 1.375q1.015625 1.375 1.046875 4.234375l0 2.1875zm-1.6875 -2.3125q0 -2.140625 -0.609375 -3.109375q-0.59375 -0.984375 -1.890625 -0.984375q-1.296875 0 -1.890625 0.984375q-0.59375 0.96875 -0.609375 2.984375l0 2.703125q0 2.140625 0.625 3.171875q0.625 1.03125 1.890625 1.03125q1.25 0 1.84375 -0.96875q0.609375 -0.96875 0.640625 -3.046875l0 -2.765625z" fill-rule="nonzero"/><path fill="#ffffff" d="m100.33442 120.023674l-1.6875 0l0 -11.234375l-3.40625 1.25l0 -1.53125l4.828125 -1.8125l0.265625 0l0 13.328125z" fill-rule="nonzero"/><path fill="#ffffff" d="m124.488045 120.023674l-8.6875 0l0 -1.21875l4.578125 -5.09375q1.03125 -1.15625 1.40625 -1.875q0.390625 -0.734375 0.390625 -1.5q0 -1.046875 -0.625 -1.703125q-0.625 -0.671875 -1.671875 -0.671875q-1.265625 0 -1.96875 0.71875q-0.6875 0.71875 -0.6875 1.984375l-1.6875 0q0 -1.828125 1.171875 -2.953125q1.1875 -1.140625 3.171875 -1.140625q1.84375 0 2.921875 0.984375q1.078125 0.96875 1.078125 2.578125q0 1.953125 -2.5 4.65625l-3.546875 3.859375l6.65625 0l0 1.375z" fill-rule="nonzero"/><path fill="#ffffff" d="m139.23543 112.57055l1.265625 0q1.203125 -0.015625 1.875 -0.625q0.6875 -0.609375 0.6875 -1.65625q0 -2.328125 -2.3125 -2.328125q-1.09375 0 -1.75 0.625q-0.65625 0.625 -0.65625 1.65625l-1.6875 0q0 -1.578125 1.15625 -2.625q1.15625 -1.046875 2.9375 -1.046875q1.875 0 2.9375 1.0q1.0625 1.0 1.0625 2.765625q0 0.859375 -0.5625 1.671875q-0.5625 0.8125 -1.515625 1.203125q1.09375 0.359375 1.6875 1.15625q0.59375 0.796875 0.59375 1.953125q0 1.796875 -1.171875 2.84375q-1.15625 1.046875 -3.03125 1.046875q-1.859375 0 -3.03125 -1.015625q-1.171875 -1.015625 -1.171875 -2.671875l1.6875 0q0 1.046875 0.6875 1.6875q0.6875 0.625 1.828125 0.625q1.21875 0 1.859375 -0.640625q0.65625 -0.640625 0.65625 -1.828125q0 -1.15625 -0.71875 -1.78125q-0.703125 -0.625 -2.046875 -0.640625l-1.265625 0l0 -1.375z" fill-rule="nonzero"/><path fill="#ffffff" d="m164.90468 115.57055l1.84375 0l0 1.375l-1.84375 0l0 3.078125l-1.703125 0l0 -3.078125l-6.03125 0l0 -1.0l5.9375 -9.1875l1.796875 0l0 8.8125zm-5.828125 0l4.125 0l0 -6.5l-0.1875 0.359375l-3.9375 6.140625z" fill-rule="nonzero"/><path fill="#ffffff" d="m179.5583 113.367424l0.671875 -6.609375l6.796875 0l0 1.5625l-5.359375 0l-0.40625 3.609375q0.984375 -0.5625 2.21875 -0.5625q1.8125 0 2.875 1.203125q1.0625 1.1875 1.0625 3.21875q0 2.0625 -1.109375 3.25q-1.09375 1.171875 -3.09375 1.171875q-1.75 0 -2.859375 -0.96875q-1.109375 -0.984375 -1.265625 -2.703125l1.59375 0q0.15625 1.140625 0.8125 1.71875q0.65625 0.578125 1.71875 0.578125q1.1875 0 1.84375 -0.796875q0.671875 -0.8125 0.671875 -2.21875q0 -1.328125 -0.71875 -2.140625q-0.71875 -0.8125 -1.921875 -0.8125q-1.109375 0 -1.734375 0.484375l-0.453125 0.375l-1.34375 -0.359375z" fill-rule="nonzero"/><path fill="#ffffff" d="m206.39943 106.75805l0 1.421875l-0.3125 0q-1.96875 0.03125 -3.140625 1.171875q-1.15625 1.125 -1.34375 3.171875q1.046875 -1.203125 2.859375 -1.203125q1.734375 0 2.765625 1.21875q1.03125 1.21875 1.03125 3.15625q0 2.046875 -1.125 3.28125q-1.109375 1.234375 -2.984375 1.234375q-1.890625 0 -3.078125 -1.453125q-1.1875 -1.46875 -1.1875 -3.78125l0 -0.640625q0 -3.671875 1.5625 -5.609375q1.5625 -1.9375 4.65625 -1.96875l0.296875 0zm-2.21875 5.96875q-0.859375 0 -1.59375 0.515625q-0.734375 0.515625 -1.015625 1.3125l0 0.609375q0 1.640625 0.734375 2.640625q0.75 1.0 1.84375 1.0q1.140625 0 1.796875 -0.828125q0.65625 -0.84375 0.65625 -2.203125q0 -1.359375 -0.671875 -2.203125q-0.65625 -0.84375 -1.75 -0.84375z" fill-rule="nonzero"/><path fill="#ffffff" d="m229.34993 107.711174l-5.5 12.3125l-1.765625 0l5.46875 -11.875l-7.171875 0l0 -1.390625l8.96875 0l0 0.953125z" fill-rule="nonzero"/><path fill="#ffffff" d="m249.81606 110.2268q0 0.984375 -0.53125 1.765625q-0.515625 0.765625 -1.40625 1.203125q1.046875 0.453125 1.640625 1.3125q0.609375 0.84375 0.609375 1.9375q0 1.71875 -1.171875 2.75q-1.15625 1.015625 -3.046875 1.015625q-1.90625 0 -3.0625 -1.03125q-1.15625 -1.03125 -1.15625 -2.734375q0 -1.078125 0.59375 -1.9375q0.59375 -0.875 1.625 -1.3125q-0.890625 -0.4375 -1.40625 -1.203125q-0.5 -0.78125 -0.5 -1.765625q0 -1.6875 1.078125 -2.671875q1.078125 -0.984375 2.828125 -0.984375q1.75 0 2.828125 0.984375q1.078125 0.984375 1.078125 2.671875zm-1.375 6.1875q0 -1.125 -0.703125 -1.8125q-0.703125 -0.703125 -1.84375 -0.703125q-1.140625 0 -1.828125 0.6875q-0.6875 0.6875 -0.6875 1.828125q0 1.125 0.671875 1.78125q0.671875 0.640625 1.859375 0.640625q1.1875 0 1.859375 -0.65625q0.671875 -0.65625 0.671875 -1.765625zm-2.53125 -8.453125q-0.984375 0 -1.609375 0.625q-0.609375 0.609375 -0.609375 1.65625q0 1.015625 0.609375 1.640625q0.609375 0.625 1.609375 0.625q1.015625 0 1.609375 -0.625q0.609375 -0.625 0.609375 -1.625q0 -1.015625 -0.625 -1.65625q-0.625 -0.640625 -1.59375 -0.640625z" fill-rule="nonzero"/><path fill="#ffffff" d="m269.2353 114.19555q-0.53125 0.625 -1.265625 1.015625q-0.734375 0.375 -1.609375 0.375q-1.140625 0 -2.0 -0.5625q-0.84375 -0.5625 -1.3125 -1.578125q-0.46875 -1.03125 -0.46875 -2.28125q0 -1.328125 0.5 -2.390625q0.515625 -1.0625 1.4375 -1.625q0.9375 -0.578125 2.171875 -0.578125q1.96875 0 3.09375 1.484375q1.140625 1.46875 1.140625 4.0l0 0.5q0 3.875 -1.53125 5.65625q-1.53125 1.78125 -4.609375 1.828125l-0.328125 0l0 -1.421875l0.359375 0q2.078125 -0.046875 3.1875 -1.09375q1.125 -1.046875 1.234375 -3.328125zm-2.59375 0q0.84375 0 1.546875 -0.515625q0.71875 -0.53125 1.046875 -1.296875l0 -0.671875q0 -1.65625 -0.71875 -2.6875q-0.71875 -1.046875 -1.8125 -1.046875q-1.109375 0 -1.796875 0.859375q-0.671875 0.84375 -0.671875 2.234375q0 1.359375 0.65625 2.25q0.65625 0.875 1.75 0.875z" fill-rule="nonzero"/><path fill="#ffffff" d="m290.1935 120.023674q-0.140625 -0.296875 -0.234375 -1.03125q-1.171875 1.21875 -2.8125 1.21875q-1.453125 0 -2.390625 -0.828125q-0.921875 -0.828125 -0.921875 -2.09375q0 -1.53125 1.15625 -2.375q1.171875 -0.859375 3.296875 -0.859375l1.640625 0l0 -0.78125q0 -0.890625 -0.53125 -1.40625q-0.515625 -0.53125 -1.546875 -0.53125q-0.90625 0 -1.515625 0.46875q-0.609375 0.453125 -0.609375 1.09375l-1.703125 0q0 -0.734375 0.515625 -1.421875q0.53125 -0.6875 1.421875 -1.078125q0.90625 -0.40625 1.984375 -0.40625q1.703125 0 2.671875 0.859375q0.96875 0.84375 1.0 2.328125l0 4.53125q0 1.359375 0.34375 2.171875l0 0.140625l-1.765625 0zm-2.796875 -1.28125q0.796875 0 1.5 -0.40625q0.71875 -0.421875 1.03125 -1.078125l0 -2.015625l-1.3125 0q-3.109375 0 -3.109375 1.8125q0 0.796875 0.53125 1.25q0.53125 0.4375 1.359375 0.4375z" fill-rule="nonzero"/><path fill="#ffffff" d="m313.29712 115.211174q0 2.25 -1.046875 3.625q-1.03125 1.375 -2.78125 1.375q-1.875 0 -2.890625 -1.328125l-0.078125 1.140625l-1.546875 0l0 -14.0l1.671875 0l0 5.234375q1.03125 -1.265625 2.8125 -1.265625q1.796875 0 2.828125 1.359375q1.03125 1.34375 1.03125 3.703125l0 0.15625zm-1.6875 -0.203125q0 -1.71875 -0.671875 -2.65625q-0.65625 -0.9375 -1.90625 -0.9375q-1.671875 0 -2.40625 1.546875l0 4.265625q0.78125 1.546875 2.421875 1.546875q1.21875 0 1.890625 -0.9375q0.671875 -0.9375 0.671875 -2.828125z" fill-rule="nonzero"/><path fill="#ffffff" d="m330.25458 118.836174q0.890625 0 1.5625 -0.546875q0.6875 -0.546875 0.75 -1.375l1.59375 0q-0.046875 0.84375 -0.578125 1.609375q-0.53125 0.765625 -1.4375 1.234375q-0.890625 0.453125 -1.890625 0.453125q-2.015625 0 -3.203125 -1.34375q-1.1875 -1.34375 -1.1875 -3.6875l0 -0.28125q0 -1.4375 0.515625 -2.546875q0.53125 -1.125 1.515625 -1.734375q1.0 -0.625 2.34375 -0.625q1.65625 0 2.75 1.0q1.109375 0.984375 1.171875 2.5625l-1.59375 0q-0.0625 -0.953125 -0.71875 -1.5625q-0.65625 -0.625 -1.609375 -0.625q-1.28125 0 -2.0 0.921875q-0.703125 0.921875 -0.703125 2.671875l0 0.328125q0 1.703125 0.703125 2.625q0.703125 0.921875 2.015625 0.921875z" fill-rule="nonzero"/><path fill="#ffffff" d="m346.4989 115.00805q0 -2.265625 1.078125 -3.640625q1.078125 -1.375 2.8125 -1.375q1.734375 0 2.75 1.171875l0 -5.140625l1.6875 0l0 14.0l-1.546875 0l-0.09375 -1.0625q-1.0 1.25 -2.8125 1.25q-1.703125 0 -2.796875 -1.40625q-1.078125 -1.40625 -1.078125 -3.65625l0 -0.140625zm1.6875 0.203125q0 1.671875 0.6875 2.625q0.703125 0.9375 1.921875 0.9375q1.609375 0 2.34375 -1.4375l0 -4.53125q-0.765625 -1.390625 -2.328125 -1.390625q-1.234375 0 -1.9375 0.953125q-0.6875 0.953125 -0.6875 2.84375z" fill-rule="nonzero"/><path fill="#ffffff" d="m372.31512 120.211174q-2.0 0 -3.265625 -1.3125q-1.25 -1.328125 -1.25 -3.53125l0 -0.3125q0 -1.46875 0.5625 -2.609375q0.5625 -1.15625 1.5625 -1.796875q1.015625 -0.65625 2.1875 -0.65625q1.921875 0 2.984375 1.265625q1.0625 1.265625 1.0625 3.625l0 0.6875l-6.671875 0q0.03125 1.46875 0.84375 2.375q0.828125 0.890625 2.078125 0.890625q0.890625 0 1.515625 -0.359375q0.625 -0.375 1.078125 -0.96875l1.03125 0.796875q-1.234375 1.90625 -3.71875 1.90625zm-0.203125 -8.84375q-1.015625 0 -1.71875 0.75q-0.6875 0.734375 -0.84375 2.078125l4.9375 0l0 -0.125q-0.078125 -1.28125 -0.703125 -1.984375q-0.609375 -0.71875 -1.671875 -0.71875z" fill-rule="nonzero"/><path fill="#ffffff" d="m391.76596 120.023674l0 -8.546875l-1.5625 0l0 -1.3125l1.5625 0l0 -1.015625q0 -1.578125 0.84375 -2.4375q0.84375 -0.875 2.390625 -0.875q0.59375 0 1.15625 0.15625l-0.09375 1.375q-0.421875 -0.09375 -0.90625 -0.09375q-0.8125 0 -1.265625 0.484375q-0.4375 0.484375 -0.4375 1.375l0 1.03125l2.09375 0l0 1.3125l-2.09375 0l0 8.546875l-1.6875 0z" fill-rule="nonzero"/><path shape-rendering="crispEdges" fill="#38761d" d="m94.55118 332.23923l88.30708 0l0 41.19687l-88.30708 0l0 -41.19687z" fill-rule="nonzero"/><path stroke="#9e9e9e" stroke-width="1.0" stroke-linecap="butt" d="m6.2440944 290.5437l0 83.39108" fill-rule="nonzero"/><path stroke="#9e9e9e" stroke-width="1.0" stroke-linecap="butt" d="m94.55118 290.5437l0 83.39108" fill-rule="nonzero"/><path stroke="#9e9e9e" stroke-width="1.0" stroke-linecap="butt" d="m182.85826 290.5437l0 83.39108" fill-rule="nonzero"/><path stroke="#9e9e9e" stroke-width="1.0" stroke-linecap="butt" d="m271.16534 290.5437l0 83.39108" fill-rule="nonzero"/><path stroke="#9e9e9e" stroke-width="1.0" stroke-linecap="butt" d="m5.7454066 291.0424l265.91864 0" fill-rule="nonzero"/><path stroke="#9e9e9e" stroke-width="1.0" stroke-linecap="butt" d="m5.7454066 332.23923l265.91864 0" fill-rule="nonzero"/><path stroke="#9e9e9e" stroke-width="1.0" stroke-linecap="butt" d="m5.7454066 373.4361l265.91864 0" fill-rule="nonzero"/><path fill="#ffffff" d="m24.837845 313.14987q0 2.25 -1.03125 3.625q-1.015625 1.375 -2.78125 1.375q-1.796875 0 -2.828125 -1.140625l0 4.75l-1.671875 0l0 -13.65625l1.53125 0l0.078125 1.09375q1.03125 -1.265625 2.859375 -1.265625q1.78125 0 2.8125 1.34375q1.03125 1.328125 1.03125 3.71875l0 0.15625zm-1.671875 -0.203125q0 -1.65625 -0.71875 -2.625q-0.703125 -0.96875 -1.953125 -0.96875q-1.53125 0 -2.296875 1.359375l0 4.703125q0.765625 1.359375 2.328125 1.359375q1.203125 0 1.921875 -0.953125q0.71875 -0.96875 0.71875 -2.875zm8.591812 -3.328125q-0.390625 -0.0625 -0.84375 -0.0625q-1.65625 0 -2.25 1.40625l0 7.0l-1.671875 0l0 -9.859375l1.640625 0l0.015625 1.140625q0.828125 -1.3125 2.359375 -1.3125q0.484375 0 0.75 0.125l0 1.5625zm5.4522095 8.53125q-2.0 0 -3.265625 -1.3125q-1.25 -1.328125 -1.25 -3.53125l0 -0.3125q0 -1.46875 0.5625 -2.609375q0.5625 -1.15625 1.5625 -1.796875q1.015625 -0.65625 2.1875 -0.65625q1.921875 0 2.984375 1.265625q1.0625 1.265625 1.0625 3.625l0 0.6875l-6.671875 0q0.03125 1.46875 0.84375 2.375q0.828125 0.890625 2.078125 0.890625q0.890625 0 1.515625 -0.359375q0.625 -0.375 1.078125 -0.96875l1.03125 0.796875q-1.234375 1.90625 -3.71875 1.90625zm-0.203125 -8.84375q-1.015625 0 -1.71875 0.75q-0.6875 0.734375 -0.84375 2.078125l4.9375 0l0 -0.125q-0.078125 -1.28125 -0.703125 -1.984375q-0.609375 -0.71875 -1.671875 -0.71875zm6.5713043 8.65625l0 -8.546875l-1.5625 0l0 -1.3125l1.5625 0l0 -0.828125q0 -1.65625 0.9375 -2.578125q0.9375 -0.921875 2.671875 -0.921875q1.015625 0 2.578125 0.5625l-0.28125 1.421875q-1.140625 -0.453125 -2.171875 -0.453125q-1.09375 0 -1.578125 0.484375q-0.46875 0.484375 -0.46875 1.453125l0 0.859375l2.015625 0l0 1.3125l-2.015625 0l0 8.546875l-1.6875 0zm7.015625 0l-1.6875 0l0 -9.859375l1.6875 0l0 9.859375zm6.0489197 -6.265625l2.1875 -3.59375l1.96875 0l-3.21875 4.875l3.328125 4.984375l-1.953125 0l-2.28125 -3.6875l-2.28125 3.6875l-1.953125 0l3.328125 -4.984375l-3.234375 -4.875l1.953125 0l2.15625 3.59375z" fill-rule="nonzero"/><path fill="#ffffff" d="m107.58243 313.39987l-1.0625 1.09375l0 3.46875l-1.6875 0l0 -14.0l1.6875 0l0 8.46875l0.90625 -1.078125l3.0625 -3.25l2.046875 0l-3.828125 4.125l4.28125 5.734375l-1.984375 0l-3.421875 -4.5625zm10.601486 4.75q-2.0 0 -3.265625 -1.3125q-1.25 -1.328125 -1.25 -3.53125l0 -0.3125q0 -1.46875 0.5625 -2.609375q0.5625 -1.15625 1.5625 -1.796875q1.015625 -0.65625 2.1875 -0.65625q1.921875 0 2.984375 1.265625q1.0625 1.265625 1.0625 3.625l0 0.6875l-6.671875 0q0.03125 1.46875 0.84375 2.375q0.828125 0.890625 2.078125 0.890625q0.890625 0 1.515625 -0.359375q0.625 -0.375 1.078125 -0.96875l1.03125 0.796875q-1.234375 1.90625 -3.71875 1.90625zm-0.203125 -8.84375q-1.015625 0 -1.71875 0.75q-0.6875 0.734375 -0.84375 2.078125l4.9375 0l0 -0.125q-0.078125 -1.28125 -0.703125 -1.984375q-0.609375 -0.71875 -1.671875 -0.71875zm9.10907 6.1875l2.296875 -7.390625l1.796875 0l-3.953125 11.375q-0.921875 2.46875 -2.921875 2.46875l-0.328125 -0.03125l-0.625 -0.125l0 -1.359375l0.453125 0.03125q0.859375 0 1.328125 -0.34375q0.484375 -0.34375 0.796875 -1.265625l0.375 -1.0l-3.515625 -9.75l1.84375 0l2.453125 7.390625zm9.108353 -2.484375l-4.4375 0l0 -1.375l4.4375 0l0 1.375zm5.724991 5.140625q-2.0 0 -3.265625 -1.3125q-1.25 -1.328125 -1.25 -3.53125l0 -0.3125q0 -1.46875 0.5625 -2.609375q0.5625 -1.15625 1.5625 -1.796875q1.015625 -0.65625 2.1875 -0.65625q1.921875 0 2.984375 1.265625q1.0625 1.265625 1.0625 3.625l0 0.6875l-6.671875 0q0.03125 1.46875 0.84375 2.375q0.828125 0.890625 2.078125 0.890625q0.890625 0 1.515625 -0.359375q0.625 -0.375 1.078125 -0.96875l1.03125 0.796875q-1.234375 1.90625 -3.71875 1.90625zm-0.203125 -8.84375q-1.015625 0 -1.71875 0.75q-0.6875 0.734375 -0.84375 2.078125l4.9375 0l0 -0.125q-0.078125 -1.28125 -0.703125 -1.984375q-0.609375 -0.71875 -1.671875 -0.71875zm7.6025543 -1.203125l0.046875 1.234375q1.125 -1.40625 2.953125 -1.40625q3.125 0 3.15625 3.515625l0 6.515625l-1.6875 0l0 -6.515625q-0.015625 -1.078125 -0.5 -1.578125q-0.46875 -0.515625 -1.484375 -0.515625q-0.8125 0 -1.4375 0.4375q-0.609375 0.4375 -0.96875 1.15625l0 7.015625l-1.671875 0l0 -9.859375l1.59375 0zm8.278107 4.84375q0 -2.265625 1.078125 -3.640625q1.078125 -1.375 2.8125 -1.375q1.734375 0 2.75 1.171875l0 -5.140625l1.6875 0l0 14.0l-1.546875 0l-0.09375 -1.0625q-1.0 1.25 -2.8125 1.25q-1.703125 0 -2.796875 -1.40625q-1.078125 -1.40625 -1.078125 -3.65625l0 -0.140625zm1.6875 0.203125q0 1.671875 0.6875 2.625q0.703125 0.9375 1.921875 0.9375q1.609375 0 2.34375 -1.4375l0 -4.53125q-0.765625 -1.390625 -2.328125 -1.390625q-1.234375 0 -1.9375 0.953125q-0.6875 0.953125 -0.6875 2.84375z" fill-rule="nonzero"/><path fill="#ffffff" d="m196.38951 315.68112l2.4375 -7.578125l1.71875 0l-3.53125 9.859375l-1.28125 0l-3.578125 -9.859375l1.71875 0l2.515625 7.578125zm11.728027 2.28125q-0.140625 -0.296875 -0.234375 -1.03125q-1.171875 1.21875 -2.8125 1.21875q-1.453125 0 -2.390625 -0.828125q-0.921875 -0.828125 -0.921875 -2.09375q0 -1.53125 1.15625 -2.375q1.171875 -0.859375 3.296875 -0.859375l1.640625 0l0 -0.78125q0 -0.890625 -0.53125 -1.40625q-0.515625 -0.53125 -1.546875 -0.53125q-0.90625 0 -1.515625 0.46875q-0.609375 0.453125 -0.609375 1.09375l-1.703125 0q0 -0.734375 0.515625 -1.421875q0.53125 -0.6875 1.421875 -1.078125q0.90625 -0.40625 1.984375 -0.40625q1.703125 0 2.671875 0.859375q0.96875 0.84375 1.0 2.328125l0 4.53125q0 1.359375 0.34375 2.171875l0 0.140625l-1.765625 0zm-2.796875 -1.28125q0.796875 0 1.5 -0.40625q0.71875 -0.421875 1.03125 -1.078125l0 -2.015625l-1.3125 0q-3.109375 0 -3.109375 1.8125q0 0.796875 0.53125 1.25q0.53125 0.4375 1.359375 0.4375zm8.694855 1.28125l-1.6875 0l0 -14.0l1.6875 0l0 14.0zm8.77742 -0.96875q-0.984375 1.15625 -2.890625 1.15625q-1.578125 0 -2.40625 -0.921875q-0.8125 -0.921875 -0.828125 -2.703125l0 -6.421875l1.6875 0l0 6.375q0 2.234375 1.828125 2.234375q1.921875 0 2.5625 -1.4375l0 -7.171875l1.6875 0l0 9.859375l-1.609375 0l-0.03125 -0.96875zm8.284622 1.15625q-2.0 0 -3.265625 -1.3125q-1.25 -1.328125 -1.25 -3.53125l0 -0.3125q0 -1.46875 0.5625 -2.609375q0.5625 -1.15625 1.5625 -1.796875q1.015625 -0.65625 2.1875 -0.65625q1.921875 0 2.984375 1.265625q1.0625 1.265625 1.0625 3.625l0 0.6875l-6.671875 0q0.03125 1.46875 0.84375 2.375q0.828125 0.890625 2.078125 0.890625q0.890625 0 1.515625 -0.359375q0.625 -0.375 1.078125 -0.96875l1.03125 0.796875q-1.234375 1.90625 -3.71875 1.90625zm-0.203125 -8.84375q-1.015625 0 -1.71875 0.75q-0.6875 0.734375 -0.84375 2.078125l4.9375 0l0 -0.125q-0.078125 -1.28125 -0.703125 -1.984375q-0.609375 -0.71875 -1.671875 -0.71875z" fill-rule="nonzero"/><path fill="#ffffff" d="m24.66597 353.503q0 2.953125 -1.015625 4.40625q-1.015625 1.4375 -3.15625 1.4375q-2.125 0 -3.15625 -1.40625q-1.015625 -1.40625 -1.046875 -4.203125l0 -2.25q0 -2.9375 1.0 -4.359375q1.015625 -1.421875 3.1875 -1.421875q2.140625 0 3.140625 1.375q1.015625 1.375 1.046875 4.234375l0 2.1875zm-1.6875 -2.3125q0 -2.140625 -0.609375 -3.109375q-0.59375 -0.984375 -1.890625 -0.984375q-1.296875 0 -1.890625 0.984375q-0.59375 0.96875 -0.609375 2.984375l0 2.703125q0 2.140625 0.625 3.171875q0.625 1.03125 1.890625 1.03125q1.25 0 1.84375 -0.96875q0.609375 -0.96875 0.640625 -3.046875l0 -2.765625zm9.382172 7.96875l-1.6875 0l0 -11.234375l-3.40625 1.25l0 -1.53125l4.828125 -1.8125l0.265625 0l0 13.328125z" fill-rule="nonzero"/><path fill="#ffffff" d="m110.1918 359.15924l-1.6875 0l0 -11.234375l-3.40625 1.25l0 -1.53125l4.828125 -1.8125l0.265625 0l0 13.328125zm7.3821716 -7.453125l1.265625 0q1.203125 -0.015625 1.875 -0.625q0.6875 -0.609375 0.6875 -1.65625q0 -2.328125 -2.3125 -2.328125q-1.09375 0 -1.75 0.625q-0.65625 0.625 -0.65625 1.65625l-1.6875 0q0 -1.578125 1.15625 -2.625q1.15625 -1.046875 2.9375 -1.046875q1.875 0 2.9375 1.0q1.0625 1.0 1.0625 2.765625q0 0.859375 -0.5625 1.671875q-0.5625 0.8125 -1.515625 1.203125q1.09375 0.359375 1.6875 1.15625q0.59375 0.796875 0.59375 1.953125q0 1.796875 -1.171875 2.84375q-1.15625 1.046875 -3.03125 1.046875q-1.859375 0 -3.03125 -1.015625q-1.171875 -1.015625 -1.171875 -2.671875l1.6875 0q0 1.046875 0.6875 1.6875q0.6875 0.625 1.828125 0.625q1.21875 0 1.859375 -0.640625q0.65625 -0.640625 0.65625 -1.828125q0 -1.15625 -0.71875 -1.78125q-0.703125 -0.625 -2.046875 -0.640625l-1.265625 0l0 -1.375zm8.804047 0.796875l0.671875 -6.609375l6.796875 0l0 1.5625l-5.359375 0l-0.40625 3.609375q0.984375 -0.5625 2.21875 -0.5625q1.8125 0 2.875 1.203125q1.0625 1.1875 1.0625 3.21875q0 2.0625 -1.109375 3.25q-1.09375 1.171875 -3.09375 1.171875q-1.75 0 -2.859375 -0.96875q-1.109375 -0.984375 -1.265625 -2.703125l1.59375 0q0.15625 1.140625 0.8125 1.71875q0.65625 0.578125 1.71875 0.578125q1.1875 0 1.84375 -0.796875q0.671875 -0.8125 0.671875 -2.21875q0 -1.328125 -0.71875 -2.140625q-0.71875 -0.8125 -1.921875 -0.8125q-1.109375 0 -1.734375 0.484375l-0.453125 0.375l-1.34375 -0.359375zm10.475922 0l0.671875 -6.609375l6.796875 0l0 1.5625l-5.359375 0l-0.40625 3.609375q0.984375 -0.5625 2.21875 -0.5625q1.8125 0 2.875 1.203125q1.0625 1.1875 1.0625 3.21875q0 2.0625 -1.109375 3.25q-1.09375 1.171875 -3.09375 1.171875q-1.75 0 -2.859375 -0.96875q-1.109375 -0.984375 -1.265625 -2.703125l1.59375 0q0.15625 1.140625 0.8125 1.71875q0.65625 0.578125 1.71875 0.578125q1.1875 0 1.84375 -0.796875q0.671875 -0.8125 0.671875 -2.21875q0 -1.328125 -0.71875 -2.140625q-0.71875 -0.8125 -1.921875 -0.8125q-1.109375 0 -1.734375 0.484375l-0.453125 0.375l-1.34375 -0.359375z" fill-rule="nonzero"/><path fill="#ffffff" d="m201.28014 353.503q0 2.953125 -1.015625 4.40625q-1.015625 1.4375 -3.15625 1.4375q-2.125 0 -3.15625 -1.40625q-1.015625 -1.40625 -1.046875 -4.203125l0 -2.25q0 -2.9375 1.0 -4.359375q1.015625 -1.421875 3.1875 -1.421875q2.140625 0 3.140625 1.375q1.015625 1.375 1.046875 4.234375l0 2.1875zm-1.6875 -2.3125q0 -2.140625 -0.609375 -3.109375q-0.59375 -0.984375 -1.890625 -0.984375q-1.296875 0 -1.890625 0.984375q-0.59375 0.96875 -0.609375 2.984375l0 2.703125q0 2.140625 0.625 3.171875q0.625 1.03125 1.890625 1.03125q1.25 0 1.84375 -0.96875q0.609375 -0.96875 0.640625 -3.046875l0 -2.765625zm12.163422 2.3125q0 2.953125 -1.015625 4.40625q-1.015625 1.4375 -3.15625 1.4375q-2.125 0 -3.15625 -1.40625q-1.015625 -1.40625 -1.046875 -4.203125l0 -2.25q0 -2.9375 1.0 -4.359375q1.015625 -1.421875 3.1875 -1.421875q2.140625 0 3.140625 1.375q1.015625 1.375 1.046875 4.234375l0 2.1875zm-1.6875 -2.3125q0 -2.140625 -0.609375 -3.109375q-0.59375 -0.984375 -1.890625 -0.984375q-1.296875 0 -1.890625 0.984375q-0.59375 0.96875 -0.609375 2.984375l0 2.703125q0 2.140625 0.625 3.171875q0.625 1.03125 1.890625 1.03125q1.25 0 1.84375 -0.96875q0.609375 -0.96875 0.640625 -3.046875l0 -2.765625z" fill-rule="nonzero"/><path fill="#000000" fill-opacity="0.0" d="m6.2440944 243.38321l359.02365 0l0 47.653534l-359.02365 0z" fill-rule="evenodd"/><path fill="#ffffff" d="m13.119095 268.57947l-1.828125 1.96875l0 4.875l-3.5156255 0l0 -17.0625l3.5156255 0l0 7.734375l1.546875 -2.125l4.34375 -5.609375l4.328125 0l-6.0625 7.578125l6.234375 9.484375l-4.1875 0l-4.375 -6.84375zm16.1875 2.609375l3.875 -12.828125l3.90625 0l-5.9375 17.0625l-3.671875 0l-5.921875 -17.0625l3.90625 0l3.84375 12.828125zm9.394531 4.234375l0 -17.0625l5.25 0q2.25 0 4.015625 1.015625q1.78125 1.015625 2.765625 2.890625q1.0 1.859375 1.0 4.234375l0 0.78125q0 2.390625 -0.984375 4.25q-0.96875 1.84375 -2.75 2.859375q-1.78125 1.015625 -4.015625 1.03125l-5.28125 0zm3.515625 -14.21875l0 11.390625l1.6875 0q2.0625 0 3.15625 -1.34375q1.09375 -1.34375 1.109375 -3.859375l0 -0.90625q0 -2.59375 -1.078125 -3.9375q-1.078125 -1.34375 -3.140625 -1.34375l-1.734375 0zm12.082031 14.21875l0 -17.0625l5.96875 0q3.109375 0 4.703125 1.1875q1.609375 1.1875 1.609375 3.484375q0 1.25 -0.640625 2.21875q-0.640625 0.953125 -1.796875 1.390625q1.3125 0.328125 2.0625 1.328125q0.765625 1.0 0.765625 2.4375q0 2.453125 -1.578125 3.71875q-1.5625 1.265625 -4.46875 1.296875l-6.625 0zm3.515625 -7.4375l0 4.609375l3.0 0q1.25 0 1.9375 -0.59375q0.703125 -0.59375 0.703125 -1.625q0 -2.34375 -2.421875 -2.390625l-3.21875 0zm0 -2.484375l2.59375 0q2.65625 -0.046875 2.65625 -2.109375q0 -1.171875 -0.671875 -1.671875q-0.671875 -0.515625 -2.125 -0.515625l-2.453125 0l0 4.296875zm20.957031 12.578125l-10.671875 0l0 -2.65625l10.671875 0l0 2.65625zm5.0703125 -5.484375l7.453125 0l0 2.828125l-10.96875 0l0 -17.0625l3.515625 0l0 14.234375zm22.746094 -5.3125q0 2.515625 -0.890625 4.421875q-0.890625 1.890625 -2.5625 2.921875q-1.65625 1.03125 -3.796875 1.03125q-2.125 0 -3.796875 -1.015625q-1.65625 -1.03125 -2.578125 -2.921875q-0.90625 -1.890625 -0.90625 -4.34375l0 -0.84375q0 -2.53125 0.90625 -4.4375q0.90625 -1.921875 2.5625 -2.9375q1.65625 -1.03125 3.78125 -1.03125q2.140625 0 3.796875 1.03125q1.65625 1.015625 2.5625 2.9375q0.921875 1.90625 0.921875 4.421875l0 0.765625zm-3.5625 -0.78125q0 -2.6875 -0.96875 -4.078125q-0.953125 -1.390625 -2.734375 -1.390625q-1.78125 0 -2.75 1.375q-0.953125 1.375 -0.953125 4.03125l0 0.84375q0 2.609375 0.953125 4.046875q0.96875 1.4375 2.765625 1.4375q1.765625 0 2.71875 -1.375q0.953125 -1.390625 0.96875 -4.0625l0 -0.828125zm20.132812 0.78125q0 2.515625 -0.890625 4.421875q-0.890625 1.890625 -2.5625 2.921875q-1.65625 1.03125 -3.796875 1.03125q-2.125 0 -3.796875 -1.015625q-1.65625 -1.03125 -2.578125 -2.921875q-0.90625 -1.890625 -0.90625 -4.34375l0 -0.84375q0 -2.53125 0.90625 -4.4375q0.90625 -1.921875 2.5625 -2.9375q1.65625 -1.03125 3.78125 -1.03125q2.140625 0 3.796875 1.03125q1.65625 1.015625 2.5625 2.9375q0.921875 1.90625 0.921875 4.421875l0 0.765625zm-3.5625 -0.78125q0 -2.6875 -0.96875 -4.078125q-0.953125 -1.390625 -2.734375 -1.390625q-1.78125 0 -2.75 1.375q-0.953125 1.375 -0.953125 4.03125l0 0.84375q0 2.609375 0.953125 4.046875q0.96875 1.4375 2.765625 1.4375q1.765625 0 2.71875 -1.375q0.953125 -1.390625 0.96875 -4.0625l0 -0.828125zm11.4609375 2.078125l-1.828125 1.96875l0 4.875l-3.515625 0l0 -17.0625l3.515625 0l0 7.734375l1.546875 -2.125l4.34375 -5.609375l4.328125 0l-6.0625 7.578125l6.234375 9.484375l-4.1875 0l-4.375 -6.84375zm22.796875 -10.21875l0 11.234375q0 2.796875 -1.75 4.4375q-1.75 1.625 -4.78125 1.625q-3.0 0 -4.765625 -1.578125q-1.75 -1.59375 -1.78125 -4.359375l0 -11.359375l3.515625 0l0 11.265625q0 1.671875 0.796875 2.4375q0.8125 0.765625 2.234375 0.765625q2.953125 0 3.0 -3.109375l0 -11.359375l3.53125 0zm6.40625 11.046875l0 6.015625l-3.515625 0l0 -17.0625l6.65625 0q1.921875 0 3.375 0.703125q1.453125 0.703125 2.234375 2.0q0.796875 1.296875 0.796875 2.9375q0 2.515625 -1.71875 3.96875q-1.71875 1.4375 -4.75 1.4375l-3.078125 0zm0 -2.84375l3.140625 0q1.390625 0 2.125 -0.65625q0.734375 -0.65625 0.734375 -1.875q0 -1.25 -0.75 -2.015625q-0.734375 -0.78125 -2.03125 -0.8125l-3.21875 0l0 5.359375zm11.886719 1.921875q0 -2.6875 0.71875 -5.109375q0.71875 -2.421875 2.109375 -4.296875q1.390625 -1.875 3.015625 -2.59375l0.65625 1.828125q-1.703125 1.265625 -2.671875 3.921875q-0.953125 2.640625 -0.953125 6.171875l0 0.375q0 3.546875 0.9375 6.21875q0.953125 2.65625 2.6875 3.96875l-0.65625 1.78125q-1.59375 -0.703125 -2.96875 -2.515625q-1.375 -1.8125 -2.109375 -4.171875q-0.71875 -2.375 -0.765625 -4.953125l0 -0.625zm19.613281 -0.125q0 3.546875 -1.46875 5.421875q-1.453125 1.875 -4.28125 1.875q-2.78125 0 -4.265625 -1.84375q-1.46875 -1.84375 -1.515625 -5.265625l0 -3.140625q0 -3.578125 1.484375 -5.421875q1.484375 -1.859375 4.265625 -1.859375q2.796875 0 4.265625 1.84375q1.484375 1.828125 1.515625 5.25l0 3.140625zm-3.375 -3.4375q0 -2.125 -0.59375 -3.09375q-0.578125 -0.96875 -1.796875 -0.96875q-1.203125 0 -1.78125 0.921875q-0.5625 0.921875 -0.59375 2.875l0 4.15625q0 2.078125 0.5625 3.09375q0.578125 1.015625 1.828125 1.015625q1.25 0 1.796875 -0.96875q0.546875 -0.96875 0.578125 -2.984375l0 -4.046875zm10.628906 1.609375l2.140625 -3.796875l3.625 0l-3.609375 6.21875l3.75 6.46875l-3.625 0l-2.265625 -3.984375l-2.25 3.984375l-3.640625 0l3.765625 -6.46875l-3.609375 -6.21875l3.640625 0l2.078125 3.796875zm6.6328125 2.453125q0 -2.96875 1.328125 -4.71875q1.328125 -1.765625 3.640625 -1.765625q1.84375 0 3.046875 1.390625l0 -6.46875l3.40625 0l0 18.0l-3.0625 0l-0.15625 -1.34375q-1.265625 1.578125 -3.265625 1.578125q-2.234375 0 -3.59375 -1.765625q-1.34375 -1.765625 -1.34375 -4.90625zm3.375 0.25q0 1.78125 0.625 2.734375q0.625 0.9375 1.8125 0.9375q1.5625 0 2.203125 -1.3125l0 -5.015625q-0.625 -1.3125 -2.1875 -1.3125q-2.453125 0 -2.453125 3.96875zm13.9765625 -3.84375l1.796875 0q1.296875 0 1.90625 -0.640625q0.625 -0.65625 0.625 -1.71875q0 -1.03125 -0.609375 -1.59375q-0.609375 -0.578125 -1.6875 -0.578125q-0.984375 0 -1.640625 0.53125q-0.65625 0.53125 -0.65625 1.390625l-3.375 0q0 -1.34375 0.71875 -2.40625q0.71875 -1.0625 2.015625 -1.65625q1.296875 -0.59375 2.84375 -0.59375q2.71875 0 4.25 1.296875q1.53125 1.296875 1.53125 3.5625q0 1.171875 -0.71875 2.15625q-0.703125 0.984375 -1.875 1.515625q1.453125 0.515625 2.15625 1.546875q0.703125 1.03125 0.703125 2.4375q0 2.265625 -1.65625 3.640625q-1.65625 1.375 -4.390625 1.375q-2.546875 0 -4.171875 -1.34375q-1.625 -1.359375 -1.625 -3.5625l3.390625 0q0 0.953125 0.71875 1.5625q0.71875 0.609375 1.78125 0.609375q1.203125 0 1.890625 -0.640625q0.6875 -0.640625 0.6875 -1.6875q0 -2.5625 -2.8125 -2.5625l-1.796875 0l0 -2.640625zm21.925781 -5.140625l-6.59375 15.171875l-3.578125 0l6.609375 -14.328125l-8.484375 0l0 -2.734375l12.046875 0l0 1.890625zm13.285141 2.640625q0 1.25 -0.625 2.21875q-0.609375 0.953125 -1.7031097 1.515625q1.2343597 0.609375 1.9531097 1.65625q0.734375 1.046875 0.734375 2.46875q0 2.265625 -1.546875 3.59375q-1.5468597 1.3125 -4.2031097 1.3125q-2.65625 0 -4.21875 -1.328125q-1.5625 -1.328125 -1.5625 -3.578125q0 -1.421875 0.71875 -2.46875q0.734375 -1.0625 1.96875 -1.65625q-1.09375 -0.5625 -1.703125 -1.515625q-0.609375 -0.96875 -0.609375 -2.21875q0 -2.171875 1.453125 -3.46875q1.453125 -1.296875 3.9375 -1.296875q2.484375 0 3.9374847 1.28125q1.46875 1.28125 1.46875 3.484375zm-3.0312347 7.609375q0 -1.109375 -0.65625 -1.78125q-0.640625 -0.671875 -1.71875 -0.671875q-1.078125 0 -1.734375 0.671875q-0.640625 0.65625 -0.640625 1.78125q0 1.09375 0.625 1.765625q0.640625 0.65625 1.765625 0.65625q1.109375 0 1.734375 -0.640625q0.625 -0.640625 0.625 -1.78125zm-0.359375 -7.4375q0 -1.0 -0.53125 -1.59375q-0.515625 -0.609375 -1.484375 -0.609375q-0.9375 0 -1.46875 0.59375q-0.53125 0.578125 -0.53125 1.609375q0 1.015625 0.53125 1.640625q0.53125 0.609375 1.484375 0.609375q0.96875 0 1.484375 -0.609375q0.515625 -0.625 0.515625 -1.640625zm13.535141 12.359375q-0.234375 -0.453125 -0.34375 -1.140625q-1.234375 1.375 -3.203125 1.375q-1.859375 0 -3.09375 -1.078125q-1.21875 -1.078125 -1.21875 -2.71875q0 -2.015625 1.484375 -3.09375q1.5 -1.078125 4.328125 -1.09375l1.5625 0l0 -0.71875q0 -0.890625 -0.453125 -1.40625q-0.453125 -0.53125 -1.421875 -0.53125q-0.859375 0 -1.34375 0.40625q-0.484375 0.40625 -0.484375 1.125l-3.390625 0q0 -1.09375 0.671875 -2.03125q0.6875 -0.9375 1.921875 -1.46875q1.25 -0.546875 2.796875 -0.546875q2.34375 0 3.71875 1.1875q1.375 1.171875 1.375 3.3125l0 5.484375q0.015625 1.8125 0.515625 2.734375l0 0.203125l-3.421875 0zm-2.8125 -2.359375q0.75 0 1.375 -0.328125q0.640625 -0.34375 0.953125 -0.90625l0 -2.171875l-1.265625 0q-2.546875 0 -2.703125 1.75l-0.015625 0.203125q0 0.640625 0.4375 1.046875q0.453125 0.40625 1.21875 0.40625zm18.210938 -4.0625l1.921875 0l0 2.734375l-1.921875 0l0 3.6875l-3.390625 0l0 -3.6875l-7.0 0l-0.15625 -2.140625l7.125 -11.234375l3.421875 0l0 10.640625zm-7.171875 0l3.78125 0l0 -6.03125l-0.21875 0.390625l-3.5625 5.640625zm11.316406 4.75q0 -0.796875 0.53125 -1.296875q0.546875 -0.515625 1.375 -0.515625q0.828125 0 1.375 0.515625q0.546875 0.5 0.546875 1.296875q0 0.796875 -0.546875 1.296875q-0.53125 0.5 -1.375 0.5q-0.828125 0 -1.375 -0.5q-0.53125 -0.5 -0.53125 -1.296875zm5.546875 0q0 -0.796875 0.53125 -1.296875q0.546875 -0.515625 1.375 -0.515625q0.828125 0 1.375 0.515625q0.546875 0.5 0.546875 1.296875q0 0.796875 -0.546875 1.296875q-0.53125 0.5 -1.375 0.5q-0.828125 0 -1.375 -0.5q-0.53125 -0.5 -0.53125 -1.296875zm5.4375 0q0 -0.796875 0.53125 -1.296875q0.546875 -0.515625 1.375 -0.515625q0.828125 0 1.375 0.515625q0.546875 0.5 0.546875 1.296875q0 0.796875 -0.546875 1.296875q-0.53125 0.5 -1.375 0.5q-0.828125 0 -1.375 -0.5q-0.53125 -0.5 -0.53125 -1.296875zm12.347656 -5.0q0 2.65625 -0.765625 5.109375q-0.765625 2.4375 -2.203125 4.3125q-1.421875 1.875 -3.046875 2.578125l-0.65625 -1.78125q1.671875 -1.265625 2.625 -3.875q0.96875 -2.609375 1.0 -6.015625l0 -0.625q0 -3.5 -0.953125 -6.171875q-0.953125 -2.671875 -2.671875 -4.0l0.65625 -1.796875q1.59375 0.6875 3.0 2.515625q1.421875 1.8125 2.203125 4.234375q0.78125 2.40625 0.8125 4.984375l0 0.53125zm15.1875 0.734375l-6.59375 0l0 -2.734375l6.59375 0l0 2.734375zm9.6328125 -1.34375l-6.8125 -2.375l0 -3.265625l10.203125 4.28125l0 2.75l-10.203125 4.296875l0 -3.265625l6.8125 -2.421875z" fill-rule="nonzero"/><path fill="#000000" fill-opacity="0.0" d="m6.2440944 5.4514437l359.02365 0l0 47.653545l-359.02365 0z" fill-rule="evenodd"/><path fill="#ffffff" d="m13.119095 30.647694l-1.828125 1.96875l0 4.875l-3.5156255 0l0 -17.0625l3.5156255 0l0 7.734375l1.546875 -2.125l4.34375 -5.609375l4.328125 0l-6.0625 7.578125l6.234375 9.484375l-4.1875 0l-4.375 -6.84375zm16.1875 2.609375l3.875 -12.828125l3.90625 0l-5.9375 17.0625l-3.671875 0l-5.921875 -17.0625l3.90625 0l3.84375 12.828125zm9.394531 4.234375l0 -17.0625l5.25 0q2.25 0 4.015625 1.015625q1.78125 1.015625 2.765625 2.890625q1.0 1.859375 1.0 4.234375l0 0.78125q0 2.390625 -0.984375 4.25q-0.96875 1.84375 -2.75 2.859375q-1.78125 1.015625 -4.015625 1.03125l-5.28125 0zm3.515625 -14.21875l0 11.390625l1.6875 0q2.0625 0 3.15625 -1.34375q1.09375 -1.34375 1.109375 -3.859375l0 -0.90625q0 -2.59375 -1.078125 -3.9375q-1.078125 -1.34375 -3.140625 -1.34375l-1.734375 0zm12.082031 14.21875l0 -17.0625l5.96875 0q3.109375 0 4.703125 1.1875q1.609375 1.1875 1.609375 3.484375q0 1.25 -0.640625 2.21875q-0.640625 0.953125 -1.796875 1.390625q1.3125 0.328125 2.0625 1.328125q0.765625 1.0 0.765625 2.4375q0 2.453125 -1.578125 3.71875q-1.5625 1.265625 -4.46875 1.296875l-6.625 0zm3.515625 -7.4375l0 4.609375l3.0 0q1.25 0 1.9375 -0.59375q0.703125 -0.59375 0.703125 -1.625q0 -2.34375 -2.421875 -2.390625l-3.21875 0zm0 -2.484375l2.59375 0q2.65625 -0.046875 2.65625 -2.109375q0 -1.171875 -0.671875 -1.671875q-0.671875 -0.515625 -2.125 -0.515625l-2.453125 0l0 4.296875zm20.957031 12.578125l-10.671875 0l0 -2.65625l10.671875 0l0 2.65625zm5.0703125 -5.484375l7.453125 0l0 2.828125l-10.96875 0l0 -17.0625l3.515625 0l0 14.234375zm22.746094 -5.3125q0 2.515625 -0.890625 4.421875q-0.890625 1.890625 -2.5625 2.921875q-1.65625 1.03125 -3.796875 1.03125q-2.125 0 -3.796875 -1.015625q-1.65625 -1.03125 -2.578125 -2.921875q-0.90625 -1.890625 -0.90625 -4.34375l0 -0.84375q0 -2.53125 0.90625 -4.4375q0.90625 -1.921875 2.5625 -2.9375q1.65625 -1.03125 3.78125 -1.03125q2.140625 0 3.796875 1.03125q1.65625 1.015625 2.5625 2.9375q0.921875 1.90625 0.921875 4.421875l0 0.765625zm-3.5625 -0.78125q0 -2.6875 -0.96875 -4.078125q-0.953125 -1.390625 -2.734375 -1.390625q-1.78125 0 -2.75 1.375q-0.953125 1.375 -0.953125 4.03125l0 0.84375q0 2.609375 0.953125 4.046875q0.96875 1.4375 2.765625 1.4375q1.765625 0 2.71875 -1.375q0.953125 -1.390625 0.96875 -4.0625l0 -0.828125zm20.132812 0.78125q0 2.515625 -0.890625 4.421875q-0.890625 1.890625 -2.5625 2.921875q-1.65625 1.03125 -3.796875 1.03125q-2.125 0 -3.796875 -1.015625q-1.65625 -1.03125 -2.578125 -2.921875q-0.90625 -1.890625 -0.90625 -4.34375l0 -0.84375q0 -2.53125 0.90625 -4.4375q0.90625 -1.921875 2.5625 -2.9375q1.65625 -1.03125 3.78125 -1.03125q2.140625 0 3.796875 1.03125q1.65625 1.015625 2.5625 2.9375q0.921875 1.90625 0.921875 4.421875l0 0.765625zm-3.5625 -0.78125q0 -2.6875 -0.96875 -4.078125q-0.953125 -1.390625 -2.734375 -1.390625q-1.78125 0 -2.75 1.375q-0.953125 1.375 -0.953125 4.03125l0 0.84375q0 2.609375 0.953125 4.046875q0.96875 1.4375 2.765625 1.4375q1.765625 0 2.71875 -1.375q0.953125 -1.390625 0.96875 -4.0625l0 -0.828125zm11.4609375 2.078125l-1.828125 1.96875l0 4.875l-3.515625 0l0 -17.0625l3.515625 0l0 7.734375l1.546875 -2.125l4.34375 -5.609375l4.328125 0l-6.0625 7.578125l6.234375 9.484375l-4.1875 0l-4.375 -6.84375zm22.796875 -10.21875l0 11.234375q0 2.796875 -1.75 4.4375q-1.75 1.625 -4.78125 1.625q-3.0 0 -4.765625 -1.578125q-1.75 -1.59375 -1.78125 -4.359375l0 -11.359375l3.515625 0l0 11.265625q0 1.671875 0.796875 2.4375q0.8125 0.765625 2.234375 0.765625q2.953125 0 3.0 -3.109375l0 -11.359375l3.53125 0zm6.40625 11.046875l0 6.015625l-3.515625 0l0 -17.0625l6.65625 0q1.921875 0 3.375 0.703125q1.453125 0.703125 2.234375 2.0q0.796875 1.296875 0.796875 2.9375q0 2.515625 -1.71875 3.96875q-1.71875 1.4375 -4.75 1.4375l-3.078125 0zm0 -2.84375l3.140625 0q1.390625 0 2.125 -0.65625q0.734375 -0.65625 0.734375 -1.875q0 -1.25 -0.75 -2.015625q-0.734375 -0.78125 -2.03125 -0.8125l-3.21875 0l0 5.359375zm11.886719 1.921875q0 -2.6875 0.71875 -5.109375q0.71875 -2.421875 2.109375 -4.296875q1.390625 -1.875 3.015625 -2.59375l0.65625 1.828125q-1.703125 1.265625 -2.671875 3.921875q-0.953125 2.640625 -0.953125 6.171875l0 0.375q0 3.546875 0.9375 6.21875q0.953125 2.65625 2.6875 3.96875l-0.65625 1.78125q-1.59375 -0.703125 -2.96875 -2.515625q-1.375 -1.8125 -2.109375 -4.171875q-0.71875 -2.375 -0.765625 -4.953125l0 -0.625zm19.613281 -0.125q0 3.546875 -1.46875 5.421875q-1.453125 1.875 -4.28125 1.875q-2.78125 0 -4.265625 -1.84375q-1.46875 -1.84375 -1.515625 -5.265625l0 -3.140625q0 -3.578125 1.484375 -5.421875q1.484375 -1.859375 4.265625 -1.859375q2.796875 0 4.265625 1.84375q1.484375 1.828125 1.515625 5.25l0 3.140625zm-3.375 -3.4375q0 -2.125 -0.59375 -3.09375q-0.578125 -0.96875 -1.796875 -0.96875q-1.203125 0 -1.78125 0.921875q-0.5625 0.921875 -0.59375 2.875l0 4.15625q0 2.078125 0.5625 3.09375q0.578125 1.015625 1.828125 1.015625q1.25 0 1.796875 -0.96875q0.546875 -0.96875 0.578125 -2.984375l0 -4.046875zm10.628906 1.609375l2.140625 -3.796875l3.625 0l-3.609375 6.21875l3.75 6.46875l-3.625 0l-2.265625 -3.984375l-2.25 3.984375l-3.640625 0l3.765625 -6.46875l-3.609375 -6.21875l3.640625 0l2.078125 3.796875zm8.3203125 8.890625l0 -10.203125l-1.890625 0l0 -2.484375l1.890625 0l0 -1.078125q0 -2.125 1.21875 -3.296875q1.21875 -1.1875 3.421875 -1.1875q0.703125 0 1.734375 0.234375l-0.046875 2.625q-0.421875 -0.109375 -1.03125 -0.109375q-1.90625 0 -1.90625 1.796875l0 1.015625l2.515625 0l0 2.484375l-2.515625 0l0 10.203125l-3.390625 0zm8.6015625 0l0 -10.203125l-1.890625 0l0 -2.484375l1.890625 0l0 -1.078125q0 -2.125 1.21875 -3.296875q1.21875 -1.1875 3.421875 -1.1875q0.703125 0 1.734375 0.234375l-0.046875 2.625q-0.421875 -0.109375 -1.03125 -0.109375q-1.90625 0 -1.90625 1.796875l0 1.015625l2.515625 0l0 2.484375l-2.515625 0l0 10.203125l-3.390625 0zm15.7578125 0l-3.390625 0l0 -13.0625l-4.046875 1.265625l0 -2.765625l7.078125 -2.53125l0.359375 0l0 17.09375zm17.238281 0l-11.703125 0l0 -2.328125l5.53125 -5.875q1.125 -1.25 1.671875 -2.171875q0.546875 -0.921875 0.546875 -1.75q0 -1.140625 -0.578125 -1.78125q-0.5625 -0.65625 -1.640625 -0.65625q-1.140625 0 -1.8125 0.796875q-0.65625 0.78125 -0.65625 2.0625l-3.390625 0q0 -1.546875 0.734375 -2.828125q0.75 -1.296875 2.109375 -2.03125q1.359375 -0.734375 3.078125 -0.734375q2.640625 0 4.09375 1.265625q1.46875 1.265625 1.46875 3.578125q0 1.265625 -0.65625 2.578125q-0.65625 1.3125 -2.25 3.046875l-3.890625 4.09375l7.34375 0l0 2.734375zm5.5195312 -10.03125l1.7968597 0q1.296875 0 1.90625 -0.640625q0.625 -0.65625 0.625 -1.71875q0 -1.03125 -0.609375 -1.59375q-0.609375 -0.578125 -1.6875 -0.578125q-0.98435974 0 -1.6406097 0.53125q-0.65625 0.53125 -0.65625 1.390625l-3.375 0q0 -1.34375 0.71875 -2.40625q0.71875 -1.0625 2.015625 -1.65625q1.296875 -0.59375 2.8437347 -0.59375q2.71875 0 4.25 1.296875q1.53125 1.296875 1.53125 3.5625q0 1.171875 -0.71875 2.15625q-0.703125 0.984375 -1.875 1.515625q1.453125 0.515625 2.15625 1.546875q0.703125 1.03125 0.703125 2.4375q0 2.265625 -1.65625 3.640625q-1.65625 1.375 -4.390625 1.375q-2.5468597 0 -4.1718597 -1.34375q-1.625 -1.359375 -1.625 -3.5625l3.390625 0q0 0.953125 0.71875 1.5625q0.71875 0.609375 1.7812347 0.609375q1.203125 0 1.890625 -0.640625q0.6875 -0.640625 0.6875 -1.6875q0 -2.5625 -2.8125 -2.5625l-1.7968597 0l0 -2.640625zm18.550766 10.03125l-3.390625 0l0 -13.0625l-4.046875 1.265625l0 -2.765625l7.078125 -2.53125l0.359375 0l0 17.09375zm13.035156 0q-0.234375 -0.453125 -0.34375 -1.140625q-1.234375 1.375 -3.203125 1.375q-1.859375 0 -3.09375 -1.078125q-1.21875 -1.078125 -1.21875 -2.71875q0 -2.015625 1.484375 -3.09375q1.5 -1.078125 4.328125 -1.09375l1.5625 0l0 -0.71875q0 -0.890625 -0.453125 -1.40625q-0.453125 -0.53125 -1.421875 -0.53125q-0.859375 0 -1.34375 0.40625q-0.484375 0.40625 -0.484375 1.125l-3.390625 0q0 -1.09375 0.671875 -2.03125q0.6875 -0.9375 1.921875 -1.46875q1.25 -0.546875 2.796875 -0.546875q2.34375 0 3.71875 1.1875q1.375 1.171875 1.375 3.3125l0 5.484375q0.015625 1.8125 0.515625 2.734375l0 0.203125l-3.421875 0zm-2.8125 -2.359375q0.75 0 1.375 -0.328125q0.640625 -0.34375 0.953125 -0.90625l0 -2.171875l-1.265625 0q-2.546875 0 -2.703125 1.75l-0.015625 0.203125q0 0.640625 0.4375 1.046875q0.453125 0.40625 1.21875 0.40625zm8.5859375 0.6875q0 -0.796875 0.53125 -1.296875q0.546875 -0.515625 1.375 -0.515625q0.828125 0 1.375 0.515625q0.546875 0.5 0.546875 1.296875q0 0.796875 -0.546875 1.296875q-0.53125 0.5 -1.375 0.5q-0.828125 0 -1.375 -0.5q-0.53125 -0.5 -0.53125 -1.296875zm5.546875 0q0 -0.796875 0.53125 -1.296875q0.546875 -0.515625 1.375 -0.515625q0.828125 0 1.375 0.515625q0.546875 0.5 0.546875 1.296875q0 0.796875 -0.546875 1.296875q-0.53125 0.5 -1.375 0.5q-0.828125 0 -1.375 -0.5q-0.53125 -0.5 -0.53125 -1.296875zm5.4375 0q0 -0.796875 0.53125 -1.296875q0.546875 -0.515625 1.375 -0.515625q0.828125 0 1.375 0.515625q0.546875 0.5 0.546875 1.296875q0 0.796875 -0.546875 1.296875q-0.53125 0.5 -1.375 0.5q-0.828125 0 -1.375 -0.5q-0.53125 -0.5 -0.53125 -1.296875zm12.347656 -5.0q0 2.65625 -0.765625 5.109375q-0.765625 2.4375 -2.203125 4.3125q-1.421875 1.875 -3.046875 2.578125l-0.65625 -1.78125q1.671875 -1.265625 2.625 -3.875q0.96875 -2.609375 1.0 -6.015625l0 -0.625q0 -3.5 -0.953125 -6.171875q-0.953125 -2.671875 -2.671875 -4.0l0.65625 -1.796875q1.59375 0.6875 3.0 2.515625q1.421875 1.8125 2.203125 4.234375q0.78125 2.40625 0.8125 4.984375l0 0.53125zm15.1875 0.734375l-6.59375 0l0 -2.734375l6.59375 0l0 2.734375zm9.6328125 -1.34375l-6.8125 -2.375l0 -3.265625l10.203125 4.28125l0 2.75l-10.203125 4.296875l0 -3.265625l6.8125 -2.421875z" fill-rule="nonzero"/><path stroke="#9e9e9e" stroke-width="1.0" stroke-linecap="butt" d="m56.923885 156.83241l0 49.19423" fill-rule="nonzero"/><path stroke="#9e9e9e" stroke-width="1.0" stroke-linecap="butt" d="m220.48294 156.83241l0 49.19423" fill-rule="nonzero"/><path stroke="#9e9e9e" stroke-width="1.0" stroke-linecap="butt" d="m56.425198 157.3311l164.55643 0" fill-rule="nonzero"/><path stroke="#9e9e9e" stroke-width="1.0" stroke-linecap="butt" d="m56.425198 205.52795l164.55643 0" fill-rule="nonzero"/><path fill="#ffffff" d="m78.56451 182.30861q0 3.546875 -1.46875 5.421875q-1.453125 1.875 -4.28125 1.875q-2.78125 0 -4.265625 -1.84375q-1.46875 -1.84375 -1.515625 -5.265625l0 -3.140625q0 -3.578125 1.484375 -5.421875q1.484375 -1.859375 4.265625 -1.859375q2.796875 0 4.265625 1.84375q1.484375 1.828125 1.515625 5.25l0 3.140625zm-3.375 -3.4375q0 -2.125 -0.59375 -3.09375q-0.578125 -0.96875 -1.796875 -0.96875q-1.203125 0 -1.78125 0.921875q-0.5625 0.921875 -0.59375 2.875l0 4.15625q0 2.078125 0.5625 3.09375q0.578125 1.015625 1.828125 1.015625q1.25 0 1.796875 -0.96875q0.546875 -0.96875 0.578125 -2.984375l0 -4.046875zm10.628906 1.609375l2.140625 -3.796875l3.625 0l-3.609375 6.21875l3.75 6.46875l-3.625 0l-2.265625 -3.984375l-2.25 3.984375l-3.640625 0l3.765625 -6.46875l-3.609375 -6.21875l3.640625 0l2.078125 3.796875zm6.6328125 2.453125q0 -2.96875 1.328125 -4.71875q1.328125 -1.765625 3.640625 -1.765625q1.84375 0 3.046875 1.390625l0 -6.46875l3.40625 0l0 18.0l-3.0625 0l-0.15625 -1.34375q-1.265625 1.578125 -3.265625 1.578125q-2.234375 0 -3.59375 -1.765625q-1.34375 -1.765625 -1.34375 -4.90625zm3.375 0.25q0 1.78125 0.625 2.734375q0.625 0.9375 1.8125 0.9375q1.5625 0 2.203125 -1.3125l0 -5.015625q-0.625 -1.3125 -2.1875 -1.3125q-2.453125 0 -2.453125 3.96875zm13.9765625 -3.84375l1.796875 0q1.296875 0 1.90625 -0.640625q0.625 -0.65625 0.625 -1.71875q0 -1.03125 -0.609375 -1.59375q-0.609375 -0.578125 -1.6875 -0.578125q-0.984375 0 -1.640625 0.53125q-0.65625 0.53125 -0.65625 1.390625l-3.375 0q0 -1.34375 0.71875 -2.40625q0.71875 -1.0625 2.015625 -1.65625q1.296875 -0.59375 2.84375 -0.59375q2.71875 0 4.25 1.296875q1.53125 1.296875 1.53125 3.5625q0 1.171875 -0.71875 2.15625q-0.703125 0.984375 -1.875 1.515625q1.453125 0.515625 2.15625 1.546875q0.703125 1.03125 0.703125 2.4375q0 2.265625 -1.65625 3.640625q-1.65625 1.375 -4.390625 1.375q-2.546875 0 -4.171875 -1.34375q-1.625 -1.359375 -1.625 -3.5625l3.390625 0q0 0.953125 0.71875 1.5625q0.71875 0.609375 1.78125 0.609375q1.203125 0 1.890625 -0.640625q0.6875 -0.640625 0.6875 -1.6875q0 -2.5625 -2.8125 -2.5625l-1.796875 0l0 -2.640625zm21.925789 -5.140625l-6.5937576 15.171875l-3.578125 0l6.6093826 -14.328125l-8.484383 0l0 -2.734375l12.046883 0l0 1.890625zm13.285156 2.640625q0 1.25 -0.625 2.21875q-0.609375 0.953125 -1.703125 1.515625q1.234375 0.609375 1.953125 1.65625q0.734375 1.046875 0.734375 2.46875q0 2.265625 -1.546875 3.59375q-1.546875 1.3125 -4.203125 1.3125q-2.65625 0 -4.21875 -1.328125q-1.5625 -1.328125 -1.5625 -3.578125q0 -1.421875 0.71875 -2.46875q0.734375 -1.0625 1.96875 -1.65625q-1.09375 -0.5625 -1.703125 -1.515625q-0.609375 -0.96875 -0.609375 -2.21875q0 -2.171875 1.453125 -3.46875q1.453125 -1.296875 3.9375 -1.296875q2.484375 0 3.9375 1.28125q1.46875 1.28125 1.46875 3.484375zm-3.03125 7.609375q0 -1.109375 -0.65625 -1.78125q-0.640625 -0.671875 -1.71875 -0.671875q-1.078125 0 -1.734375 0.671875q-0.640625 0.65625 -0.640625 1.78125q0 1.09375 0.625 1.765625q0.640625 0.65625 1.765625 0.65625q1.109375 0 1.734375 -0.640625q0.625 -0.640625 0.625 -1.78125zm-0.359375 -7.4375q0 -1.0 -0.53125 -1.59375q-0.515625 -0.609375 -1.484375 -0.609375q-0.9375 0 -1.46875 0.59375q-0.53125 0.578125 -0.53125 1.609375q0 1.015625 0.53125 1.640625q0.53125 0.609375 1.484375 0.609375q0.96875 0 1.484375 -0.609375q0.515625 -0.625 0.515625 -1.640625zm13.535156 12.359375q-0.234375 -0.453125 -0.34375 -1.140625q-1.234375 1.375 -3.203125 1.375q-1.859375 0 -3.09375 -1.078125q-1.21875 -1.078125 -1.21875 -2.71875q0 -2.015625 1.484375 -3.09375q1.5 -1.078125 4.328125 -1.09375l1.5625 0l0 -0.71875q0 -0.890625 -0.453125 -1.40625q-0.453125 -0.53125 -1.421875 -0.53125q-0.859375 0 -1.34375 0.40625q-0.484375 0.40625 -0.484375 1.125l-3.390625 0q0 -1.09375 0.671875 -2.03125q0.6875 -0.9375 1.921875 -1.46875q1.25 -0.546875 2.796875 -0.546875q2.34375 0 3.71875 1.1875q1.375 1.171875 1.375 3.3125l0 5.484375q0.015625 1.8125 0.515625 2.734375l0 0.203125l-3.421875 0zm-2.8125 -2.359375q0.75 0 1.375 -0.328125q0.640625 -0.34375 0.953125 -0.90625l0 -2.171875l-1.265625 0q-2.546875 0 -2.703125 1.75l-0.015625 0.203125q0 0.640625 0.4375 1.046875q0.453125 0.40625 1.21875 0.40625zm18.210938 -4.0625l1.921875 0l0 2.734375l-1.921875 0l0 3.6875l-3.390625 0l0 -3.6875l-7.0 0l-0.15625 -2.140625l7.125 -11.234375l3.421875 0l0 10.640625zm-7.171875 0l3.78125 0l0 -6.03125l-0.21875 0.390625l-3.5625 5.640625zm11.425781 -1.96875l0.984375 -8.671875l9.5625 0l0 2.828125l-6.796875 0l-0.421875 3.65625q1.21875 -0.640625 2.578125 -0.640625q2.4375 0 3.8125 1.515625q1.390625 1.515625 1.390625 4.234375q0 1.640625 -0.703125 2.953125q-0.703125 1.3125 -2.0 2.03125q-1.296875 0.71875 -3.0625 0.71875q-1.546875 0 -2.875 -0.625q-1.328125 -0.625 -2.09375 -1.765625q-0.765625 -1.140625 -0.8125 -2.59375l3.34375 0q0.109375 1.0625 0.75 1.65625q0.640625 0.59375 1.671875 0.59375q1.140625 0 1.765625 -0.828125q0.625 -0.828125 0.625 -2.328125q0 -1.453125 -0.71875 -2.21875q-0.71875 -0.78125 -2.03125 -0.78125q-1.203125 0 -1.953125 0.625l-0.328125 0.3125l-2.6875 -0.671875zm13.660156 6.71875q0 -0.796875 0.53125 -1.296875q0.546875 -0.515625 1.375 -0.515625q0.828125 0 1.375 0.515625q0.546875 0.5 0.546875 1.296875q0 0.796875 -0.546875 1.296875q-0.53125 0.5 -1.375 0.5q-0.828125 0 -1.375 -0.5q-0.53125 -0.5 -0.53125 -1.296875zm5.546875 0q0 -0.796875 0.53125 -1.296875q0.546875 -0.515625 1.375 -0.515625q0.828125 0 1.375 0.515625q0.546875 0.5 0.546875 1.296875q0 0.796875 -0.546875 1.296875q-0.53125 0.5 -1.375 0.5q-0.828125 0 -1.375 -0.5q-0.53125 -0.5 -0.53125 -1.296875zm5.4375 0q0 -0.796875 0.53125 -1.296875q0.546875 -0.515625 1.375 -0.515625q0.828125 0 1.375 0.515625q0.546875 0.5 0.546875 1.296875q0 0.796875 -0.546875 1.296875q-0.53125 0.5 -1.375 0.5q-0.828125 0 -1.375 -0.5q-0.53125 -0.5 -0.53125 -1.296875z" fill-rule="nonzero"/><path fill="#000000" fill-opacity="0.0" d="m141.32352 127.25459l0 35.81102" fill-rule="evenodd"/><path stroke="#ffffff" stroke-width="2.0" stroke-linejoin="round" stroke-linecap="butt" d="m141.32352 134.8346l0 20.651016" fill-rule="evenodd"/><path fill="#ffffff" stroke="#ffffff" stroke-width="2.0" stroke-linecap="butt" d="m141.32352 128.2546c1.8170166 0 3.2899933 1.4729767 3.2899933 3.2899933c0 1.8170166 -1.4729767 3.2900085 -3.2899933 3.2900085c-1.8170166 0 -3.2900085 -1.472992 -3.2900085 -3.2900085c0 -1.8170166 1.472992 -3.2899933 3.2900085 -3.2899933z" fill-rule="nonzero"/><path fill="#ffffff" stroke="#ffffff" stroke-width="2.0" stroke-linecap="butt" d="m141.32352 162.06561c-1.8170166 0 -3.2900085 -1.4729767 -3.2900085 -3.2899933c0 -1.8170166 1.472992 -3.2900085 3.2900085 -3.2900085c1.8170166 0 3.2899933 1.472992 3.2899933 3.2900085c0 1.8170166 -1.4729767 3.2899933 -3.2899933 3.2899933z" fill-rule="nonzero"/><path fill="#000000" fill-opacity="0.0" d="m137.85564 369.6716l0 68.31494" fill-rule="evenodd"/><path stroke="#ffffff" stroke-width="2.0" stroke-linejoin="round" stroke-linecap="butt" d="m137.85564 377.2516l0 48.734955" fill-rule="evenodd"/><path fill="#ffffff" stroke="#ffffff" stroke-width="2.0" stroke-linecap="butt" d="m137.85564 370.6716c1.8170166 0 3.2900085 1.4729614 3.2900085 3.289978c0 1.8170166 -1.472992 3.2900085 -3.2900085 3.2900085c-1.8170166 0 -3.2899933 -1.472992 -3.2899933 -3.2900085c0 -1.8170166 1.4729767 -3.289978 3.2899933 -3.289978z" fill-rule="nonzero"/><path fill="#ffffff" stroke="#ffffff" stroke-width="2.0" stroke-linecap="butt" d="m134.55219 425.98654l3.3034515 9.076202l3.3034668 -9.076202z" fill-rule="evenodd"/><path fill="#38761d" d="m6.2440944 445.4357l264.9134 0l0 47.653534l-264.9134 0z" fill-rule="evenodd"/><path fill="#ffffff" d="m50.003525 463.25696l-5.234375 0l0 14.21875l-3.515625 0l0 -14.21875l-5.15625 0l0 -2.84375l13.90625 0l0 2.84375zm8.1328125 4.71875q-0.6875 -0.09375 -1.21875 -0.09375q-1.921875 0 -2.515625 1.296875l0 8.296875l-3.390625 0l0 -12.6875l3.203125 0l0.09375 1.515625q1.015625 -1.75 2.828125 -1.75q0.5625 0 1.046875 0.15625l-0.046875 3.265625zm5.2070312 9.5l-3.390625 0l0 -12.6875l3.390625 0l0 12.6875zm-3.59375 -15.96875q0 -0.75 0.5 -1.234375q0.515625 -0.5 1.390625 -0.5q0.875 0 1.390625 0.5q0.515625 0.484375 0.515625 1.234375q0 0.78125 -0.53125 1.28125q-0.515625 0.484375 -1.375 0.484375q-0.84375 0 -1.375 -0.484375q-0.515625 -0.5 -0.515625 -1.28125zm12.222656 16.203125q-2.796875 0 -4.546875 -1.703125q-1.75 -1.71875 -1.75 -4.5625l0 -0.328125q0 -1.921875 0.734375 -3.421875q0.75 -1.5 2.09375 -2.3125q1.359375 -0.828125 3.09375 -0.828125q2.59375 0 4.09375 1.640625q1.5 1.640625 1.5 4.65625l0 1.390625l-8.078125 0q0.15625 1.234375 0.984375 1.984375q0.828125 0.75 2.09375 0.75q1.953125 0 3.0625 -1.421875l1.65625 1.875q-0.75 1.078125 -2.0625 1.6875q-1.296875 0.59375 -2.875 0.59375zm-0.390625 -10.40625q-1.0 0 -1.640625 0.6875q-0.625 0.671875 -0.796875 1.9375l4.71875 0l0 -0.265625q-0.03125 -1.125 -0.625 -1.734375q-0.578125 -0.625 -1.65625 -0.625zm17.246094 4.15625l0 6.015625l-3.515625 0l0 -17.0625l6.65625 0q1.921875 0 3.375 0.703125q1.453125 0.703125 2.234375 2.0q0.796875 1.296875 0.796875 2.9375q0 2.515625 -1.71875 3.96875q-1.71875 1.4375 -4.75 1.4375l-3.078125 0zm0 -2.84375l3.140625 0q1.390625 0 2.125 -0.65625q0.734375 -0.65625 0.734375 -1.875q0 -1.25 -0.75 -2.015625q-0.734375 -0.78125 -2.03125 -0.8125l-3.21875 0l0 5.359375zm18.960938 8.859375q-0.234375 -0.453125 -0.34375 -1.140625q-1.234375 1.375 -3.203125 1.375q-1.859375 0 -3.09375 -1.078125q-1.21875 -1.078125 -1.21875 -2.71875q0 -2.015625 1.484375 -3.09375q1.5 -1.078125 4.328125 -1.09375l1.5625 0l0 -0.71875q0 -0.890625 -0.453125 -1.40625q-0.453125 -0.53125 -1.421875 -0.53125q-0.859375 0 -1.34375 0.40625q-0.484375 0.40625 -0.484375 1.125l-3.390625 0q0 -1.09375 0.671875 -2.03125q0.6875 -0.9375 1.921875 -1.46875q1.25 -0.546875 2.796875 -0.546875q2.34375 0 3.71875 1.1875q1.375 1.171875 1.375 3.3125l0 5.484375q0.015625 1.8125 0.515625 2.734375l0 0.203125l-3.421875 0zm-2.8125 -2.359375q0.75 0 1.375 -0.328125q0.640625 -0.34375 0.953125 -0.90625l0 -2.171875l-1.265625 0q-2.546875 0 -2.703125 1.75l-0.015625 0.203125q0 0.640625 0.4375 1.046875q0.453125 0.40625 1.21875 0.40625zm12.3828125 -13.4375l0 3.109375l2.171875 0l0 2.484375l-2.171875 0l0 6.328125q0 0.703125 0.265625 1.015625q0.265625 0.296875 1.03125 0.296875q0.5625 0 1.0 -0.078125l0 2.5625q-1.0 0.3125 -2.046875 0.3125q-3.5625 0 -3.640625 -3.59375l0 -6.84375l-1.84375 0l0 -2.484375l1.84375 0l0 -3.109375l3.390625 0zm7.359375 4.5q1.34375 -1.625 3.390625 -1.625q4.125 0 4.171875 4.796875l0 8.125l-3.375 0l0 -8.03125q0 -1.09375 -0.46875 -1.609375q-0.46875 -0.515625 -1.5625 -0.515625q-1.484375 0 -2.15625 1.140625l0 9.015625l-3.390625 0l0 -18.0l3.390625 0l0 6.703125zm10.2890625 9.625q0 -0.796875 0.53125 -1.296875q0.546875 -0.515625 1.375 -0.515625q0.828125 0 1.375 0.515625q0.546875 0.5 0.546875 1.296875q0 0.796875 -0.546875 1.296875q-0.53125 0.5 -1.375 0.5q-0.828125 0 -1.375 -0.5q-0.53125 -0.5 -0.53125 -1.296875zm0 -9.59375q0 -0.796875 0.53125 -1.296875q0.546875 -0.515625 1.375 -0.515625q0.828125 0 1.375 0.515625q0.546875 0.5 0.546875 1.296875q0 0.796875 -0.546875 1.296875q-0.53125 0.5 -1.375 0.5q-0.828125 0 -1.375 -0.5q-0.53125 -0.5 -0.53125 -1.296875zm19.9375 11.265625q-0.234375 -0.453125 -0.34375 -1.140625q-1.234375 1.375 -3.203125 1.375q-1.859375 0 -3.09375 -1.078125q-1.21875 -1.078125 -1.21875 -2.71875q0 -2.015625 1.484375 -3.09375q1.5 -1.078125 4.328125 -1.09375l1.5625 0l0 -0.71875q0 -0.890625 -0.453125 -1.40625q-0.453125 -0.53125 -1.421875 -0.53125q-0.859375 0 -1.34375 0.40625q-0.484375 0.40625 -0.484375 1.125l-3.390625 0q0 -1.09375 0.671875 -2.03125q0.6875 -0.9375 1.921875 -1.46875q1.25 -0.546875 2.796875 -0.546875q2.34375 0 3.71875 1.1875q1.375 1.171875 1.375 3.3125l0 5.484375q0.015625 1.8125 0.515625 2.734375l0 0.203125l-3.421875 0zm-2.8125 -2.359375q0.75 0 1.375 -0.328125q0.640625 -0.34375 0.953125 -0.90625l0 -2.171875l-1.265625 0q-2.546875 0 -2.703125 1.75l-0.015625 0.203125q0 0.640625 0.4375 1.046875q0.453125 0.40625 1.21875 0.40625zm19.789062 -12.8125l-6.59375 15.171875l-3.578125 0l6.609375 -14.328125l-8.484375 0l0 -2.734375l12.046875 0l0 1.890625zm5.6132812 5.140625l1.796875 0q1.296875 0 1.90625 -0.640625q0.625 -0.65625 0.625 -1.71875q0 -1.03125 -0.609375 -1.59375q-0.609375 -0.578125 -1.6875 -0.578125q-0.984375 0 -1.640625 0.53125q-0.65625 0.53125 -0.65625 1.390625l-3.375 0q0 -1.34375 0.71875 -2.40625q0.71875 -1.0625 2.015625 -1.65625q1.296875 -0.59375 2.84375 -0.59375q2.71875 0 4.25 1.296875q1.53125 1.296875 1.53125 3.5625q0 1.171875 -0.71875 2.15625q-0.703125 0.984375 -1.875 1.515625q1.453125 0.515625 2.15625 1.546875q0.703125 1.03125 0.703125 2.4375q0 2.265625 -1.65625 3.640625q-1.65625 1.375 -4.390625 1.375q-2.546875 0 -4.171875 -1.34375q-1.625 -1.359375 -1.625 -3.5625l3.390625 0q0 0.953125 0.71875 1.5625q0.71875 0.609375 1.78125 0.609375q1.203125 0 1.890625 -0.640625q0.6875 -0.640625 0.6875 -1.6875q0 -2.5625 -2.8125 -2.5625l-1.796875 0l0 -2.640625zm18.550781 10.03125l-3.390625 0l0 -13.0625l-4.046875 1.265625l0 -2.765625l7.078125 -2.53125l0.359375 0l0 17.09375zm8.988281 -10.03125l1.796875 0q1.296875 0 1.90625 -0.640625q0.625 -0.65625 0.625 -1.71875q0 -1.03125 -0.609375 -1.59375q-0.609375 -0.578125 -1.6875 -0.578125q-0.984375 0 -1.640625 0.53125q-0.65625 0.53125 -0.65625 1.390625l-3.375 0q0 -1.34375 0.71875 -2.40625q0.71875 -1.0625 2.015625 -1.65625q1.296875 -0.59375 2.84375 -0.59375q2.71875 0 4.25 1.296875q1.53125 1.296875 1.53125 3.5625q0 1.171875 -0.71875 2.15625q-0.703125 0.984375 -1.875 1.515625q1.453125 0.515625 2.15625 1.546875q0.703125 1.03125 0.703125 2.4375q0 2.265625 -1.65625 3.640625q-1.65625 1.375 -4.390625 1.375q-2.546875 0 -4.171875 -1.34375q-1.625 -1.359375 -1.625 -3.5625l3.390625 0q0 0.953125 0.71875 1.5625q0.71875 0.609375 1.78125 0.609375q1.203125 0 1.890625 -0.640625q0.6875 -0.640625 0.6875 -1.6875q0 -2.5625 -2.8125 -2.5625l-1.796875 0l0 -2.640625zm10.832031 1.640625l0.984375 -8.671875l9.5625 0l0 2.828125l-6.796875 0l-0.421875 3.65625q1.21875 -0.640625 2.578125 -0.640625q2.4375 0 3.8125 1.515625q1.390625 1.515625 1.390625 4.234375q0 1.640625 -0.703125 2.953125q-0.703125 1.3125 -2.0 2.03125q-1.296875 0.71875 -3.0625 0.71875q-1.546875 0 -2.875 -0.625q-1.328125 -0.625 -2.09375 -1.765625q-0.765625 -1.140625 -0.8125 -2.59375l3.34375 0q0.109375 1.0625 0.75 1.65625q0.640625 0.59375 1.671875 0.59375q1.140625 0 1.765625 -0.828125q0.625 -0.828125 0.625 -2.328125q0 -1.453125 -0.71875 -2.21875q-0.71875 -0.78125 -2.03125 -0.78125q-1.203125 0 -1.953125 0.625l-0.328125 0.3125l-2.6875 -0.671875zm13.769531 0l0.984375 -8.671875l9.5625 0l0 2.828125l-6.796875 0l-0.421875 3.65625q1.21875 -0.640625 2.578125 -0.640625q2.4375 0 3.8125 1.515625q1.390625 1.515625 1.390625 4.234375q0 1.640625 -0.703125 2.953125q-0.703125 1.3125 -2.0 2.03125q-1.296875 0.71875 -3.0625 0.71875q-1.546875 0 -2.875 -0.625q-1.328125 -0.625 -2.09375 -1.765625q-0.765625 -1.140625 -0.8125 -2.59375l3.34375 0q0.109375 1.0625 0.75 1.65625q0.640625 0.59375 1.671875 0.59375q1.140625 0 1.765625 -0.828125q0.625 -0.828125 0.625 -2.328125q0 -1.453125 -0.71875 -2.21875q-0.71875 -0.78125 -2.03125 -0.78125q-1.203125 0 -1.953125 0.625l-0.328125 0.3125l-2.6875 -0.671875z" fill-rule="nonzero"/><path fill="#000000" fill-opacity="0.0" d="m141.32352 203.70604l0 41.196854" fill-rule="evenodd"/><path stroke="#ffffff" stroke-width="2.0" stroke-linejoin="round" stroke-linecap="butt" d="m141.32352 211.28603l0 21.616867" fill-rule="evenodd"/><path fill="#ffffff" stroke="#ffffff" stroke-width="2.0" stroke-linecap="butt" d="m141.32352 204.70604c1.8170166 0 3.2899933 1.4729767 3.2899933 3.2899933c0 1.8170166 -1.4729767 3.2900085 -3.2899933 3.2900085c-1.8170166 0 -3.2900085 -1.472992 -3.2900085 -3.2900085c0 -1.8170166 1.472992 -3.2899933 3.2900085 -3.2899933z" fill-rule="nonzero"/><path fill="#ffffff" stroke="#ffffff" stroke-width="2.0" stroke-linecap="butt" d="m138.02005 232.9029l3.3034668 9.076187l3.3034668 -9.076187z" fill-rule="evenodd"/><path stroke="#666666" stroke-width="1.0" stroke-linecap="butt" d="m239.83464 156.83241l0 49.19423" fill-rule="nonzero"/><path stroke="#666666" stroke-width="1.0" stroke-linecap="butt" d="m403.3937 156.83241l0 49.19423" fill-rule="nonzero"/><path stroke="#666666" stroke-width="1.0" stroke-linecap="butt" d="m239.33595 157.3311l164.55644 0" fill-rule="nonzero"/><path stroke="#666666" stroke-width="1.0" stroke-linecap="butt" d="m239.33595 205.52795l164.55644 0" fill-rule="nonzero"/><path fill="#666666" d="m261.47528 182.30861q0 3.546875 -1.46875 5.421875q-1.453125 1.875 -4.2812653 1.875q-2.78125 0 -4.265625 -1.84375q-1.46875 -1.84375 -1.515625 -5.265625l0 -3.140625q0 -3.578125 1.484375 -5.421875q1.484375 -1.859375 4.265625 -1.859375q2.7968903 0 4.2656403 1.84375q1.484375 1.828125 1.515625 5.25l0 3.140625zm-3.375 -3.4375q0 -2.125 -0.59375 -3.09375q-0.578125 -0.96875 -1.7968903 -0.96875q-1.203125 0 -1.78125 0.921875q-0.5625 0.921875 -0.59375 2.875l0 4.15625q0 2.078125 0.5625 3.09375q0.578125 1.015625 1.828125 1.015625q1.2500153 0 1.7968903 -0.96875q0.546875 -0.96875 0.578125 -2.984375l0 -4.046875zm10.628906 1.609375l2.140625 -3.796875l3.625 0l-3.609375 6.21875l3.75 6.46875l-3.625 0l-2.265625 -3.984375l-2.25 3.984375l-3.640625 0l3.765625 -6.46875l-3.609375 -6.21875l3.640625 0l2.078125 3.796875zm12.4296875 6.390625q0.9375 0 1.515625 -0.515625q0.59375 -0.515625 0.609375 -1.375l3.1875 0q-0.015625 1.296875 -0.71875 2.375q-0.6875 1.0625 -1.890625 1.65625q-1.1875 0.59375 -2.640625 0.59375q-2.71875 0 -4.296875 -1.71875q-1.5625 -1.734375 -1.5625 -4.78125l0 -0.234375q0 -2.921875 1.546875 -4.671875q1.5625 -1.75 4.28125 -1.75q2.375 0 3.8125 1.359375q1.4375 1.359375 1.46875 3.609375l-3.1875 0q-0.015625 -0.984375 -0.609375 -1.59375q-0.578125 -0.625 -1.546875 -0.625q-1.171875 0 -1.78125 0.859375q-0.609375 0.859375 -0.609375 2.796875l0 0.34375q0 1.96875 0.59375 2.828125q0.609375 0.84375 1.828125 0.84375zm17.125 -3.921875l1.921875 0l0 2.734375l-1.921875 0l0 3.6875l-3.390625 0l0 -3.6875l-7.0 0l-0.15625 -2.140625l7.125 -11.234375l3.421875 0l0 10.640625zm-7.171875 0l3.78125 0l0 -6.03125l-0.21875 0.390625l-3.5625 5.640625zm22.035156 -6.109375q0 1.25 -0.625 2.21875q-0.609375 0.953125 -1.703125 1.515625q1.234375 0.609375 1.953125 1.65625q0.734375 1.046875 0.734375 2.46875q0 2.265625 -1.546875 3.59375q-1.546875 1.3125 -4.203125 1.3125q-2.65625 0 -4.21875 -1.328125q-1.5625 -1.328125 -1.5625 -3.578125q0 -1.421875 0.71875 -2.46875q0.734375 -1.0625 1.96875 -1.65625q-1.09375 -0.5625 -1.703125 -1.515625q-0.609375 -0.96875 -0.609375 -2.21875q0 -2.171875 1.453125 -3.46875q1.453125 -1.296875 3.9375 -1.296875q2.484375 0 3.9375 1.28125q1.46875 1.28125 1.46875 3.484375zm-3.03125 7.609375q0 -1.109375 -0.65625 -1.78125q-0.640625 -0.671875 -1.71875 -0.671875q-1.078125 0 -1.734375 0.671875q-0.640625 0.65625 -0.640625 1.78125q0 1.09375 0.625 1.765625q0.640625 0.65625 1.765625 0.65625q1.109375 0 1.734375 -0.640625q0.625 -0.640625 0.625 -1.78125zm-0.359375 -7.4375q0 -1.0 -0.53125 -1.59375q-0.515625 -0.609375 -1.484375 -0.609375q-0.9375 0 -1.46875 0.59375q-0.53125 0.578125 -0.53125 1.609375q0 1.015625 0.53125 1.640625q0.53125 0.609375 1.484375 0.609375q0.96875 0 1.484375 -0.609375q0.515625 -0.625 0.515625 -1.640625zm13.957031 5.53125q-1.3125 1.3125 -3.09375 1.3125q-2.25 0 -3.609375 -1.546875q-1.359375 -1.5625 -1.359375 -4.203125q0 -1.671875 0.71875 -3.0625q0.734375 -1.40625 2.046875 -2.1875q1.3125 -0.78125 2.953125 -0.78125q1.6875 0 3.0 0.84375q1.3125 0.84375 2.03125 2.421875q0.734375 1.578125 0.75 3.625l0 1.25q0 4.265625 -2.125 6.703125q-2.109375 2.4375 -6.0 2.609375l-0.84375 0.015625l0 -2.828125l0.75 -0.015625q4.421875 -0.203125 4.78125 -4.15625zm-2.25 -1.28125q0.8125 0 1.40625 -0.421875q0.59375 -0.421875 0.890625 -1.015625l0 -1.40625q0 -1.71875 -0.65625 -2.65625q-0.65625 -0.953125 -1.75 -0.953125q-1.015625 0 -1.671875 0.9375q-0.65625 0.921875 -0.65625 2.328125q0 1.390625 0.625 2.296875q0.640625 0.890625 1.8125 0.890625zm19.675781 1.890625q0 3.046875 -1.3125 4.75q-1.296875 1.703125 -3.625 1.703125q-2.0625 0 -3.296875 -1.578125l-0.15625 1.34375l-3.046875 0l0 -18.0l3.390625 0l0 6.453125q1.171875 -1.375 3.078125 -1.375q2.328125 0 3.640625 1.71875q1.328125 1.703125 1.328125 4.796875l0 0.1875zm-3.390625 -0.25q0 -1.921875 -0.609375 -2.796875q-0.609375 -0.890625 -1.8125 -0.890625q-1.625 0 -2.234375 1.3125l0 5.015625q0.625 1.328125 2.25 1.328125q1.640625 0 2.15625 -1.609375q0.25 -0.78125 0.25 -2.359375zm5.8398438 -1.921875l0.984375 -8.671875l9.5625 0l0 2.828125l-6.796875 0l-0.421875 3.65625q1.21875 -0.640625 2.578125 -0.640625q2.4375 0 3.8125 1.515625q1.390625 1.515625 1.390625 4.234375q0 1.640625 -0.703125 2.953125q-0.703125 1.3125 -2.0 2.03125q-1.296875 0.71875 -3.0625 0.71875q-1.546875 0 -2.875 -0.625q-1.328125 -0.625 -2.09375 -1.765625q-0.765625 -1.140625 -0.8125 -2.59375l3.34375 0q0.109375 1.0625 0.75 1.65625q0.640625 0.59375 1.671875 0.59375q1.140625 0 1.765625 -0.828125q0.625 -0.828125 0.625 -2.328125q0 -1.453125 -0.71875 -2.21875q-0.71875 -0.78125 -2.03125 -0.78125q-1.203125 0 -1.953125 0.625l-0.328125 0.3125l-2.6875 -0.671875zm22.441406 -8.84375l0 2.78125l-0.328125 0q-2.296875 0.03125 -3.703125 1.203125q-1.390625 1.15625 -1.671875 3.21875q1.359375 -1.390625 3.4375 -1.390625q2.21875 0 3.53125 1.59375q1.3125 1.59375 1.3125 4.203125q0 1.65625 -0.71875 3.015625q-0.71875 1.34375 -2.046875 2.09375q-1.3125 0.75 -2.96875 0.75q-2.703125 0 -4.359375 -1.875q-1.65625 -1.875 -1.65625 -5.0l0 -1.21875q0 -2.78125 1.046875 -4.90625q1.046875 -2.125 3.015625 -3.296875q1.96875 -1.171875 4.546875 -1.171875l0.5625 0zm-3.296875 8.53125q-0.828125 0 -1.5 0.4375q-0.65625 0.421875 -0.96875 1.125l0 1.03125q0 1.703125 0.65625 2.65625q0.671875 0.953125 1.875 0.953125q1.09375 0 1.765625 -0.859375q0.671875 -0.859375 0.671875 -2.234375q0 -1.390625 -0.6875 -2.25q-0.671875 -0.859375 -1.8125 -0.859375zm8.285156 7.03125q0 -0.796875 0.53125 -1.296875q0.546875 -0.515625 1.375 -0.515625q0.828125 0 1.375 0.515625q0.546875 0.5 0.546875 1.296875q0 0.796875 -0.546875 1.296875q-0.53125 0.5 -1.375 0.5q-0.828125 0 -1.375 -0.5q-0.53125 -0.5 -0.53125 -1.296875zm5.546875 0q0 -0.796875 0.53125 -1.296875q0.546875 -0.515625 1.375 -0.515625q0.828125 0 1.375 0.515625q0.546875 0.5 0.546875 1.296875q0 0.796875 -0.546875 1.296875q-0.53125 0.5 -1.375 0.5q-0.828125 0 -1.375 -0.5q-0.53125 -0.5 -0.53125 -1.296875zm5.4375 0q0 -0.796875 0.53125 -1.296875q0.546875 -0.515625 1.375 -0.515625q0.828125 0 1.375 0.515625q0.546875 0.5 0.546875 1.296875q0 0.796875 -0.546875 1.296875q-0.53125 0.5 -1.375 0.5q-0.828125 0 -1.375 -0.5q-0.53125 -0.5 -0.53125 -1.296875z" fill-rule="nonzero"/><path fill="#000000" fill-opacity="0.0" d="m309.32352 127.25459l0 35.81102" fill-rule="evenodd"/><path stroke="#666666" stroke-width="2.0" stroke-linejoin="round" stroke-linecap="butt" d="m309.32352 134.8346l0 20.651016" fill-rule="evenodd"/><path fill="#666666" stroke="#666666" stroke-width="2.0" stroke-linecap="butt" d="m309.32352 128.2546c1.8170166 0 3.2900085 1.4729767 3.2900085 3.2899933c0 1.8170166 -1.472992 3.2900085 -3.2900085 3.2900085c-1.8170166 0 -3.2900085 -1.472992 -3.2900085 -3.2900085c0 -1.8170166 1.472992 -3.2899933 3.2900085 -3.2899933z" fill-rule="nonzero"/><path fill="#666666" stroke="#666666" stroke-width="2.0" stroke-linecap="butt" d="m309.32352 162.06561c-1.8170166 0 -3.2900085 -1.4729767 -3.2900085 -3.2899933c0 -1.8170166 1.472992 -3.2900085 3.2900085 -3.2900085c1.8170166 0 3.2900085 1.472992 3.2900085 3.2900085c0 1.8170166 -1.472992 3.2899933 -3.2900085 3.2899933z" fill-rule="nonzero"/></g></svg>