<svg version="1.1" viewBox="0.0 0.0 572.0 464.0" fill="none" stroke="none" stroke-linecap="square" stroke-miterlimit="10" xmlns:xlink="http://www.w3.org/1999/xlink" xmlns="http://www.w3.org/2000/svg"><clipPath id="p.0"><path d="m0 0l572.0 0l0 464.0l-572.0 0l0 -464.0z" clip-rule="nonzero"/></clipPath><g clip-path="url(#p.0)"><path fill="#000000" fill-opacity="0.0" d="m0 0l572.0 0l0 464.0l-572.0 0z" fill-rule="evenodd"/><path fill="#000000" fill-opacity="0.0" d="m14.283464 2.7664042l543.4331 0l0 418.55118l-543.4331 0z" fill-rule="evenodd"/><path stroke="#ffffff" stroke-width="3.0" stroke-linejoin="round" stroke-linecap="butt" d="m14.283464 2.7664042l543.4331 0l0 418.55118l-543.4331 0z" fill-rule="evenodd"/><path fill="#000000" d="m180.61417 13.908136l49.669296 0l0 174.70865l-49.669296 0z" fill-rule="evenodd"/><path fill="#000000" d="m341.71652 13.908136l49.66931 0l0 174.70865l-49.66931 0z" fill-rule="evenodd"/><path fill="#000000" d="m180.61417 125.34121l210.77167 0l0 63.27558l-210.77167 0z" fill-rule="evenodd"/><path fill="#8d3aed" d="m230.28346 13.908136l111.43306 0l0 111.433075l-111.43306 0z" fill-rule="evenodd"/><path stroke="#303030" stroke-width="1.0" stroke-linejoin="round" stroke-linecap="butt" d="m230.28346 13.908136l111.43306 0l0 111.433075l-111.43306 0z" fill-rule="evenodd"/><path fill="#ffffff" d="m262.537 61.966545l0.40625 2.0625l0.5 -1.96875l2.890625 -9.78125l1.0 0l2.84375 9.78125l0.5 1.984375l0.4375 -2.078125l2.390625 -9.6875l1.15625 0l-3.40625 13.265625l-1.078125 0l-3.0 -10.375l-0.34375 -1.3125l-0.328125 1.3125l-3.078125 10.375l-1.078125 0l-3.375 -13.265625l1.140625 0l2.421875 9.6875zm21.05188 -0.140625l-6.03125 0l-1.359375 3.71875l-1.1875 0l5.03125 -13.265625l1.0625 0l5.015625 13.265625l-1.15625 0l-1.375 -3.71875zm-5.6875 -0.953125l5.328125 0l-2.65625 -7.21875l-2.671875 7.21875zm17.682281 1.40625q0 -1.09375 -0.78125 -1.734375q-0.765625 -0.640625 -2.828125 -1.21875q-2.0625 -0.59375 -3.015625 -1.265625q-1.34375 -0.96875 -1.34375 -2.53125q0 -1.53125 1.25 -2.484375q1.25 -0.953125 3.203125 -0.953125q1.328125 0 2.359375 0.515625q1.046875 0.515625 1.625 1.421875q0.578125 0.90625 0.578125 2.03125l-1.140625 0q0 -1.359375 -0.9375 -2.171875q-0.921875 -0.828125 -2.484375 -0.828125q-1.515625 0 -2.421875 0.6875q-0.90625 0.671875 -0.90625 1.765625q0 1.0 0.8125 1.640625q0.8125 0.640625 2.59375 1.125q1.796875 0.484375 2.703125 1.015625q0.921875 0.515625 1.390625 1.25q0.46875 0.734375 0.46875 1.71875q0 1.5625 -1.25 2.515625q-1.25 0.953125 -3.3125 0.953125q-1.390625 0 -2.5625 -0.5q-1.171875 -0.5 -1.78125 -1.40625q-0.609375 -0.90625 -0.609375 -2.078125l1.125 0q0 1.40625 1.046875 2.21875q1.046875 0.8125 2.78125 0.8125q1.5625 0 2.5 -0.671875q0.9375 -0.6875 0.9375 -1.828125zm5.018585 -10.0l4.890625 11.703125l4.921875 -11.703125l1.484375 0l0 13.265625l-1.109375 0l0 -5.78125l0.078125 -5.921875l-4.9375 11.703125l-0.859375 0l-4.921875 -11.65625l0.09375 5.84375l0 5.8125l-1.125 0l0 -13.265625l1.484375 0z" fill-rule="nonzero"/><path fill="#ffffff" d="m252.6526 82.029045l-3.84375 0l0 5.515625l-1.125 0l0 -13.265625l4.296875 0q2.125 0 3.3125 1.03125q1.2031097 1.03125 1.2031097 2.875q0 1.28125 -0.74998474 2.265625q-0.75 0.96875 -2.0 1.34375l3.3124847 5.625l0 0.125l-1.1874847 0l-3.21875 -5.515625zm-3.84375 -0.96875l3.4375 0q1.40625 0 2.265625 -0.796875q0.859375 -0.796875 0.859375 -2.078125q0 -1.40625 -0.90625 -2.171875q-0.890625 -0.78125 -2.5 -0.78125l-3.15625 0l0 5.828125zm19.87358 -6.78125l0 9.0625q-0.015625 1.328125 -0.59375 2.328125q-0.578125 0.984375 -1.640625 1.53125q-1.0625 0.53125 -2.4375 0.53125q-2.09375 0 -3.359375 -1.140625q-1.265625 -1.15625 -1.3125 -3.171875l0 -9.140625l1.125 0l0 8.96875q0 1.6875 0.953125 2.609375q0.953125 0.921875 2.59375 0.921875q1.640625 0 2.59375 -0.921875q0.953125 -0.9375 0.953125 -2.59375l0 -8.984375l1.125 0zm12.995758 13.265625l-1.109375 0l-7.625 -11.34375l0 11.34375l-1.140625 0l0 -13.265625l1.140625 0l7.625 11.359375l0 -11.359375l1.109375 0l0 13.265625zm12.105896 -12.3125l-4.546875 0l0 12.3125l-1.109375 0l0 -12.3125l-4.546875 0l0 -0.953125l10.203125 0l0 0.953125zm3.5159302 12.3125l-1.125 0l0 -13.265625l1.125 0l0 13.265625zm5.0740356 -13.265625l4.890625 11.703125l4.921875 -11.703125l1.484375 0l0 13.265625l-1.109375 0l0 -5.78125l0.078125 -5.921875l-4.9375 11.703125l-0.859375 0l-4.921875 -11.65625l0.09375 5.84375l0 5.8125l-1.125 0l0 -13.265625l1.484375 0zm21.985779 6.90625l-6.203125 0l0 5.40625l7.125 0l0 0.953125l-8.25 0l0 -13.265625l8.21875 0l0 0.953125l-7.09375 0l0 5.0l6.203125 0l0 0.953125z" fill-rule="nonzero"/><path fill="#000000" d="m24.52353 292.82724l0 0c0 -12.814423 10.388142 -23.202576 23.202564 -23.202576l102.00432 0c6.153717 0 12.055374 2.4445496 16.406693 6.795868c4.3513336 4.351349 6.795883 10.252991 6.795883 16.406708l0 92.807465c0 12.814423 -10.388153 23.202576 -23.202576 23.202576l-102.00432 0c-12.814423 0 -23.202564 -10.388153 -23.202564 -23.202576z" fill-rule="evenodd"/><path fill="#ffffff" d="m73.856995 345.19785l6.546875 0l0 0.953125l-7.6875 0l0 -13.265625l1.140625 0l0 12.3125zm9.657272 0.953125l-1.09375 0l0 -9.859375l1.09375 0l0 9.859375zm-1.28125 -12.703125q0 -0.3125 0.203125 -0.53125q0.203125 -0.21875 0.546875 -0.21875q0.34375 0 0.546875 0.21875q0.203125 0.21875 0.203125 0.53125q0 0.3125 -0.203125 0.515625q-0.203125 0.203125 -0.546875 0.203125q-0.34375 0 -0.546875 -0.203125q-0.203125 -0.203125 -0.203125 -0.515625zm12.181259 7.875q0 2.3125 -1.03125 3.671875q-1.015625 1.34375 -2.734375 1.34375q-2.0625 0 -3.109375 -1.53125l-0.046875 1.34375l-1.03125 0l0 -14.0l1.09375 0l0 5.578125q1.03125 -1.609375 3.078125 -1.609375q1.75 0 2.765625 1.328125q1.015625 1.328125 1.015625 3.71875l0 0.15625zm-1.09375 -0.1875q0 -1.953125 -0.765625 -3.015625q-0.75 -1.0625 -2.125 -1.0625q-1.046875 0 -1.78125 0.515625q-0.71875 0.515625 -1.09375 1.515625l0 4.4375q0.8125 1.859375 2.890625 1.859375q1.34375 0 2.109375 -1.0625q0.765625 -1.0625 0.765625 -3.1875zm11.417397 0.1875q0 2.3125 -1.015625 3.671875q-1.015625 1.34375 -2.734375 1.34375q-2.015625 0 -3.09375 -1.421875l0 5.03125l-1.09375 0l0 -13.65625l1.015625 0l0.0625 1.390625q1.0625 -1.5625 3.078125 -1.5625q1.765625 0 2.765625 1.34375q1.015625 1.328125 1.015625 3.703125l0 0.15625zm-1.09375 -0.1875q0 -1.890625 -0.78125 -2.984375q-0.765625 -1.09375 -2.15625 -1.09375q-1.0 0 -1.71875 0.484375q-0.71875 0.484375 -1.09375 1.40625l0 4.71875q0.390625 0.859375 1.109375 1.3125q0.734375 0.4375 1.734375 0.4375q1.375 0 2.140625 -1.09375q0.765625 -1.109375 0.765625 -3.1875zm11.651779 5.015625l-8.3125 0l0 -0.84375l4.546875 -5.15625q1.125 -1.296875 1.5625 -2.140625q0.4375 -0.84375 0.4375 -1.65625q0 -1.25 -0.734375 -1.984375q-0.734375 -0.734375 -2.03125 -0.734375q-1.34375 0 -2.171875 0.859375q-0.8125 0.859375 -0.8125 2.21875l-1.09375 0q0 -1.125 0.5 -2.03125q0.515625 -0.921875 1.4375 -1.453125q0.9375 -0.53125 2.140625 -0.53125q1.8125 0 2.84375 0.96875q1.03125 0.953125 1.03125 2.59375q0 0.9375 -0.578125 2.046875q-0.578125 1.09375 -2.046875 2.75l-3.6875 4.171875l6.96875 0l0 0.921875zm10.120529 -4.828125q0 2.3125 -1.015625 3.671875q-1.015625 1.34375 -2.734375 1.34375q-2.015625 0 -3.09375 -1.421875l0 5.03125l-1.09375 0l0 -13.65625l1.015625 0l0.0625 1.390625q1.0625 -1.5625 3.078125 -1.5625q1.765625 0 2.765625 1.34375q1.015625 1.328125 1.015625 3.703125l0 0.15625zm-1.09375 -0.1875q0 -1.890625 -0.78125 -2.984375q-0.765625 -1.09375 -2.15625 -1.09375q-1.0 0 -1.71875 0.484375q-0.71875 0.484375 -1.09375 1.40625l0 4.71875q0.390625 0.859375 1.109375 1.3125q0.734375 0.4375 1.734375 0.4375q1.375 0 2.140625 -1.09375q0.765625 -1.109375 0.765625 -3.1875z" fill-rule="nonzero"/><path fill="#000000" d="m24.52231 140.90598l0 0c0 -12.814423 10.38814 -23.20256 23.202562 -23.20256l102.00433 0c6.153702 0 12.055359 2.4445496 16.406677 6.795868c4.3513336 4.3513336 6.795883 10.252991 6.795883 16.406693l0 92.807465c0 12.814423 -10.388153 23.202576 -23.20256 23.202576l-102.00433 0c-12.814423 0 -23.202562 -10.388153 -23.202562 -23.202576z" fill-rule="evenodd"/><path fill="#ffffff" d="m62.273075 180.96408l1.125 0l0 9.328125q0 1.875 -1.09375 3.0q-1.078125 1.125 -2.90625 1.125q-1.9375 0 -2.984375 -1.015625q-1.03125 -1.015625 -1.03125 -2.828125l1.125 0q0 1.4375 0.75 2.171875q0.765625 0.71875 2.140625 0.71875q1.265625 0 2.0625 -0.828125q0.796875 -0.84375 0.8125 -2.28125l0 -9.390625zm11.922657 10.0q0 -1.09375 -0.78125 -1.734375q-0.765625 -0.640625 -2.828125 -1.21875q-2.0625 -0.59375 -3.015625 -1.265625q-1.34375 -0.96875 -1.34375 -2.53125q0 -1.53125 1.25 -2.484375q1.25 -0.953125 3.203125 -0.953125q1.328125 0 2.359375 0.515625q1.046875 0.515625 1.625 1.421875q0.578125 0.90625 0.578125 2.03125l-1.140625 0q0 -1.359375 -0.9375 -2.171875q-0.921875 -0.828125 -2.484375 -0.828125q-1.515625 0 -2.421875 0.6875q-0.90625 0.671875 -0.90625 1.765625q0 1.0 0.8125 1.640625q0.8125 0.640625 2.59375 1.125q1.796875 0.484375 2.703125 1.015625q0.921875 0.515625 1.390625 1.25q0.46875 0.734375 0.46875 1.71875q0 1.5625 -1.25 2.515625q-1.25 0.953125 -3.3125 0.953125q-1.390625 0 -2.5625 -0.5q-1.171875 -0.5 -1.78125 -1.40625q-0.609375 -0.90625 -0.609375 -2.078125l1.125 0q0 1.40625 1.046875 2.21875q1.046875 0.8125 2.78125 0.8125q1.5625 0 2.5 -0.671875q0.9375 -0.6875 0.9375 -1.828125zm13.346695 -2.640625q0 1.828125 -0.640625 3.21875q-0.625 1.375 -1.8125 2.125q-1.171875 0.75 -2.703125 0.75q-2.328125 0 -3.765625 -1.65625q-1.421875 -1.671875 -1.421875 -4.5l0 -1.359375q0 -1.8125 0.640625 -3.203125q0.640625 -1.40625 1.8125 -2.15625q1.171875 -0.765625 2.703125 -0.765625q1.53125 0 2.703125 0.75q1.171875 0.734375 1.8125 2.078125q0.640625 1.34375 0.671875 3.125l0 1.59375zm-1.125 -1.4375q0 -2.40625 -1.09375 -3.765625q-1.078125 -1.359375 -2.96875 -1.359375q-1.84375 0 -2.9375 1.375q-1.09375 1.359375 -1.09375 3.796875l0 1.390625q0 2.359375 1.09375 3.734375q1.09375 1.375 2.96875 1.375q1.890625 0 2.953125 -1.359375q1.078125 -1.359375 1.078125 -3.796875l0 -1.390625zm13.813263 7.34375l-1.109375 0l-7.625 -11.34375l0 11.34375l-1.140625 0l0 -13.265625l1.140625 0l7.625 11.359375l0 -11.359375l1.109375 0l0 13.265625zm6.5108337 -5.390625l-4.359375 0l0 -0.921875l4.359375 0l0 0.921875zm7.1506653 -0.125l-3.84375 0l0 5.515625l-1.125 0l0 -13.265625l4.296875 0q2.125 0 3.3125 1.03125q1.203125 1.03125 1.203125 2.875q0 1.28125 -0.75 2.265625q-0.75 0.96875 -2.0 1.34375l3.3125 5.625l0 0.125l-1.1875 0l-3.21875 -5.515625zm-3.84375 -0.96875l3.4375 0q1.40625 0 2.265625 -0.796875q0.859375 -0.796875 0.859375 -2.078125q0 -1.40625 -0.90625 -2.171875q-0.890625 -0.78125 -2.5 -0.78125l-3.15625 0l0 5.828125zm11.857971 1.078125l0 5.40625l-1.125 0l0 -13.265625l4.515625 0q2.078125 0 3.2656326 1.0625q1.203125 1.046875 1.203125 2.90625q0 1.859375 -1.15625 2.875q-1.1406326 1.015625 -3.3281326 1.015625l-3.375 0zm0 -0.9375l3.390625 0q1.640625 0 2.484375 -0.765625q0.8593826 -0.78125 0.8593826 -2.171875q0 -1.375 -0.8593826 -2.1875q-0.84375 -0.8125 -2.40625 -0.84375l-3.46875 0l0 5.96875zm19.752708 2.203125q-0.21875 2.09375 -1.5 3.21875q-1.265625 1.109375 -3.375 1.109375q-1.484375 0 -2.625 -0.734375q-1.125 -0.75 -1.75 -2.09375q-0.609375 -1.359375 -0.625 -3.09375l0 -1.71875q0 -1.78125 0.625 -3.140625q0.625 -1.359375 1.78125 -2.109375q1.15625 -0.75 2.671875 -0.75q2.140625 0 3.375 1.15625q1.234375 1.15625 1.421875 3.1875l-1.125 0q-0.421875 -3.375 -3.671875 -3.375q-1.796875 0 -2.875 1.34375q-1.0625 1.34375 -1.0625 3.71875l0 1.625q0 2.296875 1.03125 3.671875q1.046875 1.359375 2.828125 1.359375q1.75 0 2.640625 -0.84375q0.90625 -0.84375 1.109375 -2.53125l1.125 0z" fill-rule="nonzero"/><path fill="#000000" d="m180.61417 216.43353l0 0c0 -12.875305 10.4375 -23.312805 23.312805 -23.312805l164.14606 0c6.1829224 0 12.11264 2.4561768 16.48465 6.828171c4.3719788 4.371994 6.8281555 10.301697 6.8281555 16.484634l0 93.24841c0 12.875305 -10.4375 23.312805 -23.312805 23.312805l-164.14606 0c-12.875305 0 -23.312805 -10.4375 -23.312805 -23.312805z" fill-rule="evenodd"/><path fill="#ffffff" d="m243.01314 313.08667l0 -13.265625l3.71875 0q1.625 0 2.90625 0.75q1.296875 0.734375 2.015625 2.125q0.734375 1.375 0.734375 3.15625l0 1.21875q0 1.765625 -0.71875 3.140625q-0.71875 1.375 -2.03125 2.125q-1.296875 0.75 -3.0 0.75l-3.625 0zm1.125 -12.3125l0 11.359375l2.515625 0q2.09375 0 3.359375 -1.375q1.265625 -1.390625 1.265625 -3.765625l0 -1.171875q0 -2.28125 -1.25 -3.65625q-1.25 -1.375 -3.28125 -1.390625l-2.609375 0zm18.071304 8.59375l-6.03125 0l-1.359375 3.71875l-1.1875 0l5.03125 -13.265625l1.0625 0l5.015625 13.265625l-1.15625 0l-1.375 -3.71875zm-5.6875 -0.953125l5.328125 0l-2.65625 -7.21875l-2.671875 7.21875zm17.990906 -7.640625l-4.546875 0l0 12.3125l-1.109375 0l0 -12.3125l-4.546875 0l0 -0.953125l10.203125 0l0 0.953125zm8.592743 8.59375l-6.03125 0l-1.359375 3.71875l-1.1875 0l5.03125 -13.265625l1.0625 0l5.015625 13.265625l-1.15625 0l-1.375 -3.71875zm-5.6875 -0.953125l5.328125 0l-2.65625 -7.21875l-2.671875 7.21875zm10.1666565 4.671875l0 -13.265625l3.921875 0q2.125 0 3.21875 0.890625q1.109375 0.875 1.109375 2.578125q0 1.03125 -0.5625 1.796875q-0.546875 0.765625 -1.53125 1.078125q1.15625 0.265625 1.859375 1.15625q0.71875 0.875 0.71875 2.03125q0 1.75 -1.140625 2.75q-1.125 0.984375 -3.15625 0.984375l-4.4375 0zm1.125 -6.375l0 5.421875l3.359375 0q1.4375 0 2.28125 -0.71875q0.84375 -0.734375 0.84375 -2.046875q0 -1.234375 -0.8125 -1.9375q-0.796875 -0.71875 -2.21875 -0.71875l-3.453125 0zm0 -0.9375l3.0625 0q1.40625 -0.03125 2.171875 -0.65625q0.765625 -0.640625 0.765625 -1.84375q0 -1.28125 -0.796875 -1.890625q-0.796875 -0.609375 -2.40625 -0.609375l-2.796875 0l0 5.0zm17.47931 3.59375l-6.03125 0l-1.359375 3.71875l-1.1875 0l5.03125 -13.265625l1.0625 0l5.015625 13.265625l-1.15625 0l-1.375 -3.71875zm-5.6875 -0.953125l5.328125 0l-2.65625 -7.21875l-2.671875 7.21875zm17.682281 1.40625q0 -1.09375 -0.78125 -1.734375q-0.765625 -0.640625 -2.828125 -1.21875q-2.0625 -0.59375 -3.015625 -1.265625q-1.34375 -0.96875 -1.34375 -2.53125q0 -1.53125 1.25 -2.484375q1.25 -0.953125 3.203125 -0.953125q1.328125 0 2.359375 0.515625q1.046875 0.515625 1.625 1.421875q0.578125 0.90625 0.578125 2.03125l-1.140625 0q0 -1.359375 -0.9375 -2.171875q-0.921875 -0.828125 -2.484375 -0.828125q-1.515625 0 -2.421875 0.6875q-0.90625 0.671875 -0.90625 1.765625q0 1.0 0.8125 1.640625q0.8125 0.640625 2.59375 1.125q1.796875 0.484375 2.703125 1.015625q0.921875 0.515625 1.390625 1.25q0.46875 0.734375 0.46875 1.71875q0 1.5625 -1.25 2.515625q-1.25 0.953125 -3.3125 0.953125q-1.390625 0 -2.5625 -0.5q-1.171875 -0.5 -1.78125 -1.40625q-0.609375 -0.90625 -0.609375 -2.078125l1.125 0q0 1.40625 1.046875 2.21875q1.046875 0.8125 2.78125 0.8125q1.5625 0 2.5 -0.671875q0.9375 -0.6875 0.9375 -1.828125zm10.862335 -3.09375l-6.203125 0l0 5.40625l7.125 0l0 0.953125l-8.25 0l0 -13.265625l8.21875 0l0 0.953125l-7.09375 0l0 5.0l6.203125 0l0 0.953125z" fill-rule="nonzero"/><path fill="#000000" fill-opacity="0.0" d="m131.2126 420.75995l309.57483 0l0 40.472443l-309.57483 0z" fill-rule="evenodd"/><path fill="#ffffff" d="m211.5946 444.65054q0 -1.09375 -0.78125 -1.734375q-0.765625 -0.640625 -2.828125 -1.21875q-2.0625 -0.59375 -3.015625 -1.265625q-1.34375 -0.96875 -1.34375 -2.53125q0 -1.53125 1.25 -2.484375q1.25 -0.953125 3.203125 -0.953125q1.328125 0 2.359375 0.515625q1.046875 0.515625 1.625 1.421875q0.578125 0.90625 0.578125 2.03125l-1.140625 0q0 -1.359375 -0.9375 -2.171875q-0.921875 -0.828125 -2.484375 -0.828125q-1.515625 0 -2.421875 0.6875q-0.90625 0.671875 -0.90625 1.765625q0 1.0 0.8125 1.640625q0.8125 0.640625 2.59375 1.125q1.796875 0.484375 2.703125 1.015625q0.921875 0.515625 1.390625 1.25q0.46875 0.734375 0.46875 1.71875q0 1.5625 -1.25 2.515625q-1.25 0.953125 -3.3125 0.953125q-1.390625 0 -2.5625 -0.5q-1.171875 -0.5 -1.78125 -1.40625q-0.609375 -0.90625 -0.609375 -2.078125l1.125 0q0 1.40625 1.046875 2.21875q1.046875 0.8125 2.78125 0.8125q1.5625 0 2.5 -0.671875q0.9375 -0.6875 0.9375 -1.828125zm12.67482 -10.0l0 9.0625q-0.015625 1.328125 -0.59375 2.328125q-0.578125 0.984375 -1.640625 1.53125q-1.0625 0.53125 -2.4375 0.53125q-2.09375 0 -3.359375 -1.140625q-1.265625 -1.15625 -1.3125 -3.171875l0 -9.140625l1.125 0l0 8.96875q0 1.6875 0.953125 2.609375q0.953125 0.921875 2.59375 0.921875q1.640625 0 2.59375 -0.921875q0.953125 -0.9375 0.953125 -2.59375l0 -8.984375l1.125 0zm3.120758 13.265625l0 -13.265625l3.921875 0q2.125 0 3.21875 0.890625q1.109375 0.875 1.109375 2.578125q0 1.03125 -0.5625 1.796875q-0.546875 0.765625 -1.53125 1.078125q1.15625 0.265625 1.859375 1.15625q0.71875 0.875 0.71875 2.03125q0 1.75 -1.140625 2.75q-1.125 0.984375 -3.15625 0.984375l-4.4375 0zm1.125 -6.375l0 5.421875l3.359375 0q1.4375 0 2.28125 -0.71875q0.84375 -0.734375 0.84375 -2.046875q0 -1.234375 -0.8125 -1.9375q-0.796875 -0.71875 -2.21875 -0.71875l-3.453125 0zm0 -0.9375l3.0625 0q1.40625 -0.03125 2.171875 -0.65625q0.765625 -0.640625 0.765625 -1.84375q0 -1.28125 -0.796875 -1.890625q-0.796875 -0.609375 -2.40625 -0.609375l-2.796875 0l0 5.0zm17.823044 4.046875q0 -1.09375 -0.78125 -1.734375q-0.765625 -0.640625 -2.828125 -1.21875q-2.0625 -0.59375 -3.015625 -1.265625q-1.34375 -0.96875 -1.34375 -2.53125q0 -1.53125 1.25 -2.484375q1.25 -0.953125 3.203125 -0.953125q1.328125 0 2.359375 0.515625q1.046875 0.515625 1.625 1.421875q0.578125 0.90625 0.578125 2.03125l-1.140625 0q0 -1.359375 -0.9375 -2.171875q-0.921875 -0.828125 -2.484375 -0.828125q-1.515625 0 -2.421875 0.6875q-0.90625 0.671875 -0.90625 1.765625q0 1.0 0.8125 1.640625q0.8125 0.640625 2.59375 1.125q1.796875 0.484375 2.703125 1.015625q0.921875 0.515625 1.390625 1.25q0.46875 0.734375 0.46875 1.71875q0 1.5625 -1.25 2.515625q-1.25 0.953125 -3.3125 0.953125q-1.390625 0 -2.5625 -0.5q-1.171875 -0.5 -1.78125 -1.40625q-0.609375 -0.90625 -0.609375 -2.078125l1.125 0q0 1.40625 1.046875 2.21875q1.046875 0.8125 2.78125 0.8125q1.5625 0 2.5 -0.671875q0.9375 -0.6875 0.9375 -1.828125zm12.53418 -9.046875l-4.5468597 0l0 12.3125l-1.109375 0l0 -12.3125l-4.546875 0l0 -0.953125l10.20311 0l0 0.953125zm7.094055 6.796875l-3.84375 0l0 5.515625l-1.125 0l0 -13.265625l4.296875 0q2.125 0 3.3125 1.03125q1.203125 1.03125 1.203125 2.875q0 1.28125 -0.75 2.265625q-0.75 0.96875 -2.0 1.34375l3.3125 5.625l0 0.125l-1.1875 0l-3.21875 -5.515625zm-3.84375 -0.96875l3.4375 0q1.40625 0 2.265625 -0.796875q0.859375 -0.796875 0.859375 -2.078125q0 -1.40625 -0.90625 -2.171875q-0.890625 -0.78125 -2.5 -0.78125l-3.15625 0l0 5.828125zm17.904846 2.765625l-6.03125 0l-1.359375 3.71875l-1.1875 0l5.03125 -13.265625l1.0625 0l5.015625 13.265625l-1.15625 0l-1.375 -3.71875zm-5.6875 -0.953125l5.328125 0l-2.65625 -7.21875l-2.671875 7.21875zm17.990875 -7.640625l-4.546875 0l0 12.3125l-1.109375 0l0 -12.3125l-4.546875 0l0 -0.953125l10.203125 0l0 0.953125zm9.469055 5.953125l-6.203125 0l0 5.40625l7.125 0l0 0.953125l-8.25 0l0 -13.265625l8.21875 0l0 0.953125l-7.09375 0l0 5.0l6.203125 0l0 0.953125zm17.211578 2.21875q-0.21875 2.09375 -1.5 3.21875q-1.265625 1.109375 -3.375 1.109375q-1.484375 0 -2.625 -0.734375q-1.125 -0.75 -1.75 -2.09375q-0.609375 -1.359375 -0.625 -3.09375l0 -1.71875q0 -1.78125 0.625 -3.140625q0.625 -1.359375 1.78125 -2.109375q1.15625 -0.75 2.671875 -0.75q2.140625 0 3.375 1.15625q1.234375 1.15625 1.421875 3.1875l-1.125 0q-0.421875 -3.375 -3.671875 -3.375q-1.796875 0 -2.875 1.34375q-1.0625 1.34375 -1.0625 3.71875l0 1.625q0 2.296875 1.03125 3.671875q1.046875 1.359375 2.828125 1.359375q1.75 0 2.640625 -0.84375q0.90625 -0.84375 1.109375 -2.53125l1.125 0zm3.865631 3.1875l6.546875 0l0 0.953125l-7.6875 0l0 -13.265625l1.140625 0l0 12.3125zm10.063538 0.953125l-1.125 0l0 -13.265625l1.125 0l0 13.265625zm10.917786 -6.359375l-6.203125 0l0 5.40625l7.125 0l0 0.953125l-8.25 0l0 -13.265625l8.21875 0l0 0.953125l-7.09375 0l0 5.0l6.203125 0l0 0.953125zm13.159454 6.359375l-1.109375 0l-7.625 -11.34375l0 11.34375l-1.140625 0l0 -13.265625l1.140625 0l7.625 11.359375l0 -11.359375l1.109375 0l0 13.265625zm12.1058655 -12.3125l-4.546875 0l0 12.3125l-1.109375 0l0 -12.3125l-4.546875 0l0 -0.953125l10.203125 0l0 0.953125z" fill-rule="nonzero"/><path fill="#000000" d="m180.61417 349.3887l0 0c0 -6.566681 5.323349 -11.890015 11.890015 -11.890015l186.99164 0c3.1534424 0 6.177704 1.2526855 8.407501 3.4825134c2.229828 2.2297974 3.4825134 5.254059 3.4825134 8.407501l0 47.558563c0 6.566681 -5.3233337 11.890015 -11.890015 11.890015l-186.99164 0c-6.5666656 0 -11.890015 -5.3233337 -11.890015 -11.890015z" fill-rule="evenodd"/><path fill="#ffffff" d="m208.96574 367.77548l-4.546875 0l0 12.3125l-1.109375 0l0 -12.3125l-4.546875 0l0 -0.953125l10.203125 0l0 0.953125zm7.09404 6.796875l-3.84375 0l0 5.515625l-1.125 0l0 -13.265625l4.296875 0q2.125 0 3.3125 1.03125q1.203125 1.03125 1.203125 2.875q0 1.28125 -0.75 2.265625q-0.75 0.96875 -2.0 1.34375l3.3125 5.625l0 0.125l-1.1875 0l-3.21875 -5.515625zm-3.84375 -0.96875l3.4375 0q1.40625 0 2.265625 -0.796875q0.859375 -0.796875 0.859375 -2.078125q0 -1.40625 -0.90625 -2.171875q-0.890625 -0.78125 -2.5 -0.78125l-3.15625 0l0 5.828125zm17.904846 2.765625l-6.03125 0l-1.359375 3.71875l-1.1875 0l5.03125 -13.265625l1.0625 0l5.015625 13.265625l-1.15625 0l-1.375 -3.71875zm-5.6875 -0.953125l5.328125 0l-2.65625 -7.21875l-2.671875 7.21875zm20.041672 4.671875l-1.109375 0l-7.625 -11.34375l0 11.34375l-1.140625 0l0 -13.265625l1.140625 0l7.625 11.359375l0 -11.359375l1.109375 0l0 13.265625zm10.885834 -3.265625q0 -1.09375 -0.78125 -1.734375q-0.765625 -0.640625 -2.828125 -1.21875q-2.0625 -0.59375 -3.015625 -1.265625q-1.34375 -0.96875 -1.34375 -2.53125q0 -1.53125 1.25 -2.484375q1.25 -0.953125 3.203125 -0.953125q1.328125 0 2.359375 0.515625q1.046875 0.515625 1.625 1.421875q0.57814026 0.90625 0.57814026 2.03125l-1.1406403 0q0 -1.359375 -0.9375 -2.171875q-0.921875 -0.828125 -2.484375 -0.828125q-1.515625 0 -2.421875 0.6875q-0.90625 0.671875 -0.90625 1.765625q0 1.0 0.8125 1.640625q0.8125 0.640625 2.59375 1.125q1.796875 0.484375 2.703125 1.015625q0.921875 0.515625 1.3906403 1.25q0.46875 0.734375 0.46875 1.71875q0 1.5625 -1.2500153 2.515625q-1.25 0.953125 -3.3125 0.953125q-1.390625 0 -2.5625 -0.5q-1.171875 -0.5 -1.78125 -1.40625q-0.609375 -0.90625 -0.609375 -2.078125l1.125 0q0 1.40625 1.046875 2.21875q1.046875 0.8125 2.78125 0.8125q1.5625 0 2.5 -0.671875q0.9375 -0.6875 0.9375 -1.828125zm10.70607 -0.453125l-6.03125 0l-1.359375 3.71875l-1.1875 0l5.03125 -13.265625l1.0625 0l5.015625 13.265625l-1.15625 0l-1.375 -3.71875zm-5.6875 -0.953125l5.328125 0l-2.65625 -7.21875l-2.671875 7.21875zm19.457031 0.53125q-0.21875 2.09375 -1.5 3.21875q-1.265625 1.109375 -3.375 1.109375q-1.484375 0 -2.625 -0.734375q-1.125 -0.75 -1.75 -2.09375q-0.609375 -1.359375 -0.625 -3.09375l0 -1.71875q0 -1.78125 0.625 -3.140625q0.625 -1.359375 1.78125 -2.109375q1.15625 -0.75 2.671875 -0.75q2.140625 0 3.375 1.15625q1.234375 1.15625 1.421875 3.1875l-1.125 0q-0.421875 -3.375 -3.671875 -3.375q-1.796875 0 -2.875 1.34375q-1.0625 1.34375 -1.0625 3.71875l0 1.625q0 2.296875 1.03125 3.671875q1.046875 1.359375 2.828125 1.359375q1.75 0 2.640625 -0.84375q0.90625 -0.84375 1.109375 -2.53125l1.125 0zm11.460693 -8.171875l-4.546875 0l0 12.3125l-1.109375 0l0 -12.3125l-4.546875 0l0 -0.953125l10.203125 0l0 0.953125zm3.5158997 12.3125l-1.125 0l0 -13.265625l1.125 0l0 13.265625zm13.402191 -5.90625q0 1.828125 -0.640625 3.21875q-0.625 1.375 -1.8125 2.125q-1.171875 0.75 -2.703125 0.75q-2.328125 0 -3.765625 -1.65625q-1.421875 -1.671875 -1.421875 -4.5l0 -1.359375q0 -1.8125 0.640625 -3.203125q0.640625 -1.40625 1.8125 -2.15625q1.171875 -0.765625 2.703125 -0.765625q1.53125 0 2.703125 0.75q1.171875 0.734375 1.8125 2.078125q0.640625 1.34375 0.671875 3.125l0 1.59375zm-1.125 -1.4375q0 -2.40625 -1.09375 -3.765625q-1.078125 -1.359375 -2.96875 -1.359375q-1.84375 0 -2.9375 1.375q-1.09375 1.359375 -1.09375 3.796875l0 1.390625q0 2.359375 1.09375 3.734375q1.09375 1.375 2.96875 1.375q1.890625 0 2.953125 -1.359375q1.078125 -1.359375 1.078125 -3.796875l0 -1.390625zm13.813263 7.34375l-1.109375 0l-7.625 -11.34375l0 11.34375l-1.140625 0l0 -13.265625l1.140625 0l7.625 11.359375l0 -11.359375l1.109375 0l0 13.265625zm9.031738 -5.40625l0 5.40625l-1.125 0l0 -13.265625l4.515625 0q2.078125 0 3.265625 1.0625q1.203125 1.046875 1.203125 2.90625q0 1.859375 -1.15625 2.875q-1.140625 1.015625 -3.328125 1.015625l-3.375 0zm0 -0.9375l3.390625 0q1.640625 0 2.484375 -0.765625q0.859375 -0.78125 0.859375 -2.171875q0 -1.375 -0.859375 -2.1875q-0.84375 -0.8125 -2.40625 -0.84375l-3.46875 0l0 5.96875zm20.17456 0.4375q0 1.828125 -0.640625 3.21875q-0.625 1.375 -1.8125 2.125q-1.171875 0.75 -2.703125 0.75q-2.328125 0 -3.765625 -1.65625q-1.421875 -1.671875 -1.421875 -4.5l0 -1.359375q0 -1.8125 0.640625 -3.203125q0.640625 -1.40625 1.8125 -2.15625q1.171875 -0.765625 2.703125 -0.765625q1.53125 0 2.703125 0.75q1.171875 0.734375 1.8125 2.078125q0.640625 1.34375 0.671875 3.125l0 1.59375zm-1.125 -1.4375q0 -2.40625 -1.09375 -3.765625q-1.078125 -1.359375 -2.96875 -1.359375q-1.84375 0 -2.9375 1.375q-1.09375 1.359375 -1.09375 3.796875l0 1.390625q0 2.359375 1.09375 3.734375q1.09375 1.375 2.96875 1.375q1.890625 0 2.953125 -1.359375q1.078125 -1.359375 1.078125 -3.796875l0 -1.390625zm13.750763 1.4375q0 1.828125 -0.640625 3.21875q-0.625 1.375 -1.8125 2.125q-1.171875 0.75 -2.703125 0.75q-2.328125 0 -3.765625 -1.65625q-1.421875 -1.671875 -1.421875 -4.5l0 -1.359375q0 -1.8125 0.640625 -3.203125q0.640625 -1.40625 1.8125 -2.15625q1.171875 -0.765625 2.703125 -0.765625q1.53125 0 2.703125 0.75q1.171875 0.734375 1.8125 2.078125q0.640625 1.34375 0.671875 3.125l0 1.59375zm-1.125 -1.4375q0 -2.40625 -1.09375 -3.765625q-1.078125 -1.359375 -2.96875 -1.359375q-1.84375 0 -2.9375 1.375q-1.09375 1.359375 -1.09375 3.796875l0 1.390625q0 2.359375 1.09375 3.734375q1.09375 1.375 2.96875 1.375q1.890625 0 2.953125 -1.359375q1.078125 -1.359375 1.078125 -3.796875l0 -1.390625zm5.078888 6.390625l6.546875 0l0 0.953125l-7.6875 0l0 -13.265625l1.140625 0l0 12.3125z" fill-rule="nonzero"/><path fill="#000000" d="m399.06824 37.1107l0 0c0 -12.814421 10.388153 -23.202562 23.202576 -23.202562l102.38226 0c6.1536865 0 12.055359 2.4445496 16.406677 6.7958736c4.3513184 4.351324 6.7958984 10.252987 6.7958984 16.406689l0 92.807465c0 12.814423 -10.388123 23.20256 -23.202576 23.20256l-102.38226 0c-12.814423 0 -23.202576 -10.388138 -23.202576 -23.20256z" fill-rule="evenodd"/><path fill="#ffffff" d="m446.54382 79.43443l0 -13.265625l3.921875 0q2.125 0 3.21875 0.890625q1.109375 0.875 1.109375 2.578125q0 1.03125 -0.5625 1.796875q-0.546875 0.765625 -1.53125 1.078125q1.15625 0.265625 1.859375 1.15625q0.71875 0.875 0.71875 2.03125q0 1.75 -1.140625 2.75q-1.125 0.984375 -3.15625 0.984375l-4.4375 0zm1.125 -6.375l0 5.421875l3.359375 0q1.4375 0 2.28125 -0.71875q0.84375 -0.734375 0.84375 -2.046875q0 -1.234375 -0.8125 -1.9375q-0.796875 -0.71875 -2.21875 -0.71875l-3.453125 0zm0 -0.9375l3.0625 0q1.40625 -0.03125 2.171875 -0.65625q0.765625 -0.640625 0.765625 -1.84375q0 -1.28125 -0.796875 -1.890625q-0.796875 -0.609375 -2.40625 -0.609375l-2.796875 0l0 5.0zm11.448059 6.359375l6.546875 0l0 0.953125l-7.6875 0l0 -13.265625l1.140625 0l0 12.3125zm17.90857 -4.953125q0 1.828125 -0.640625 3.21875q-0.625 1.375 -1.8125 2.125q-1.171875 0.75 -2.703125 0.75q-2.328125 0 -3.765625 -1.65625q-1.421875 -1.671875 -1.421875 -4.5l0 -1.359375q0 -1.8125 0.640625 -3.203125q0.640625 -1.40625 1.8125 -2.15625q1.171875 -0.765625 2.703125 -0.765625q1.53125 0 2.703125 0.75q1.171875 0.734375 1.8125 2.078125q0.640625 1.34375 0.671875 3.125l0 1.59375zm-1.125 -1.4375q0 -2.40625 -1.09375 -3.765625q-1.078125 -1.359375 -2.96875 -1.359375q-1.84375 0 -2.9375 1.375q-1.09375 1.359375 -1.09375 3.796875l0 1.390625q0 2.359375 1.09375 3.734375q1.09375 1.375 2.96875 1.375q1.890625 0 2.953125 -1.359375q1.078125 -1.359375 1.078125 -3.796875l0 -1.390625zm13.328888 3.203125q-0.21875 2.09375 -1.5 3.21875q-1.265625 1.109375 -3.375 1.109375q-1.484375 0 -2.625 -0.734375q-1.125 -0.75 -1.75 -2.09375q-0.609375 -1.359375 -0.625 -3.09375l0 -1.71875q0 -1.78125 0.625 -3.140625q0.625 -1.359375 1.78125 -2.109375q1.15625 -0.75 2.671875 -0.75q2.140625 0 3.375 1.15625q1.234375 1.15625 1.421875 3.1875l-1.125 0q-0.421875 -3.375 -3.671875 -3.375q-1.796875 0 -2.875 1.34375q-1.0625 1.34375 -1.0625 3.71875l0 1.625q0 2.296875 1.03125 3.671875q1.046875 1.359375 2.828125 1.359375q1.75 0 2.640625 -0.84375q0.90625 -0.84375 1.109375 -2.53125l1.125 0zm5.725006 -2.453125l-1.875 1.84375l0 4.75l-1.125 0l0 -13.265625l1.125 0l0 7.15625l6.796875 -7.15625l1.40625 0l-5.546875 5.90625l5.984375 7.359375l-1.375 0l-5.390625 -6.59375z" fill-rule="nonzero"/><path fill="#ffffff" d="m438.55463 101.43443l0 -13.265625l3.921875 0q2.125 0 3.21875 0.890625q1.109375 0.875 1.109375 2.578125q0 1.03125 -0.5625 1.796875q-0.546875 0.765625 -1.53125 1.078125q1.15625 0.265625 1.859375 1.15625q0.71875 0.875 0.71875 2.03125q0 1.75 -1.140625 2.75q-1.125 0.984375 -3.15625 0.984375l-4.4375 0zm1.125 -6.375l0 5.421875l3.359375 0q1.4375 0 2.28125 -0.71875q0.84375 -0.734375 0.84375 -2.046875q0 -1.234375 -0.8125 -1.9375q-0.796875 -0.71875 -2.21875 -0.71875l-3.453125 0zm0 -0.9375l3.0625 0q1.40625 -0.03125 2.171875 -0.65625q0.765625 -0.640625 0.765625 -1.84375q0 -1.28125 -0.796875 -1.890625q-0.796875 -0.609375 -2.40625 -0.609375l-2.796875 0l0 5.0zm19.44806 -5.953125l0 9.0625q-0.015625 1.328125 -0.59375 2.328125q-0.578125 0.984375 -1.640625 1.53125q-1.0625 0.53125 -2.4375 0.53125q-2.09375 0 -3.359375 -1.140625q-1.265625 -1.15625 -1.3125 -3.171875l0 -9.140625l1.125 0l0 8.96875q0 1.6875 0.953125 2.609375q0.953125 0.921875 2.59375 0.921875q1.640625 0 2.59375 -0.921875q0.953125 -0.9375 0.953125 -2.59375l0 -8.984375l1.125 0zm4.495758 13.265625l-1.125 0l0 -13.265625l1.125 0l0 13.265625zm4.7302856 -0.953125l6.546875 0l0 0.953125l-7.6875 0l0 -13.265625l1.140625 0l0 12.3125zm8.688538 0.953125l0 -13.265625l3.71875 0q1.625 0 2.90625 0.75q1.296875 0.734375 2.015625 2.125q0.734375 1.375 0.734375 3.15625l0 1.21875q0 1.765625 -0.71875 3.140625q-0.71875 1.375 -2.03125 2.125q-1.296875 0.75 -3.0 0.75l-3.625 0zm1.125 -12.3125l0 11.359375l2.515625 0q2.09375 0 3.359375 -1.375q1.265625 -1.390625 1.265625 -3.765625l0 -1.171875q0 -2.28125 -1.25 -3.65625q-1.25 -1.375 -3.28125 -1.390625l-2.609375 0zm18.418945 5.953125l-6.203125 0l0 5.40625l7.125 0l0 0.953125l-8.25 0l0 -13.265625l8.21875 0l0 0.953125l-7.09375 0l0 5.0l6.203125 0l0 0.953125zm8.237579 0.84375l-3.84375 0l0 5.515625l-1.125 0l0 -13.265625l4.296875 0q2.125 0 3.3125 1.03125q1.203125 1.03125 1.203125 2.875q0 1.28125 -0.75 2.265625q-0.75 0.96875 -2.0 1.34375l3.3125 5.625l0 0.125l-1.1875 0l-3.21875 -5.515625zm-3.84375 -0.96875l3.4375 0q1.40625 0 2.265625 -0.796875q0.859375 -0.796875 0.859375 -2.078125q0 -1.40625 -0.90625 -2.171875q-0.890625 -0.78125 -2.5 -0.78125l-3.15625 0l0 5.828125z" fill-rule="nonzero"/><path fill="#8d3aed" d="m261.16534 225.71129l49.66931 0l0 49.669296l-49.66931 0z" fill-rule="evenodd"/><path stroke="#8d3aed" stroke-width="2.0" stroke-linejoin="round" stroke-linecap="butt" stroke-dasharray="8.0,6.0" d="m261.16534 225.71129l49.66931 0l0 49.669296l-49.66931 0z" fill-rule="evenodd"/><path fill="#000000" fill-opacity="0.0" d="m260.55118 276.1942l-28.913376 -149.25983" fill-rule="evenodd"/><path stroke="#8d3aed" stroke-width="2.0" stroke-linejoin="round" stroke-linecap="butt" stroke-dasharray="8.0,6.0" d="m260.55118 276.1942l-28.913376 -149.25983" fill-rule="evenodd"/><path fill="#000000" fill-opacity="0.0" d="m260.55118 225.71129l-28.18898 -206.80315" fill-rule="evenodd"/><path stroke="#8d3aed" stroke-width="2.0" stroke-linejoin="round" stroke-linecap="butt" stroke-dasharray="8.0,6.0" d="m260.55118 225.71129l-28.18898 -206.80315" fill-rule="evenodd"/><path fill="#000000" fill-opacity="0.0" d="m310.76642 225.979l28.220459 -209.13387" fill-rule="evenodd"/><path stroke="#8d3aed" stroke-width="2.0" stroke-linejoin="round" stroke-linecap="butt" stroke-dasharray="8.0,6.0" d="m310.76642 225.979l28.220459 -209.13387" fill-rule="evenodd"/><path fill="#000000" fill-opacity="0.0" d="m310.76642 275.50656l29.574799 -151.3386" fill-rule="evenodd"/><path stroke="#8d3aed" stroke-width="2.0" stroke-linejoin="round" stroke-linecap="butt" stroke-dasharray="8.0,6.0" d="m310.76642 275.50656l29.574799 -151.3386" fill-rule="evenodd"/><path fill="#000000" fill-opacity="0.0" d="m180.61417 125.34121l210.77167 0l0 63.27558l-210.77167 0z" fill-rule="evenodd"/><path fill="#000000" d="m209.95865 145.979l152.0827 0l0 22.399994l-152.0827 0l0 -22.399994z" fill-rule="nonzero"/><path fill="#000000" fill-opacity="0.0" d="m209.95865 146.59096l152.0827 0l0 21.862793l-152.0827 0l0 -21.862793z" fill-rule="nonzero"/><path fill="#ffffff" d="m214.08365 160.32088l0.40625 2.0625l0.5 -1.96875l2.890625 -9.78125l1.0 0l2.84375 9.78125l0.5 1.984375l0.4375 -2.078125l2.390625 -9.6875l1.15625 0l-3.40625 13.265625l-1.078125 0l-3.0 -10.375l-0.34375 -1.3125l-0.328125 1.3125l-3.078125 10.375l-1.078125 0l-3.375 -13.265625l1.140625 0l2.421875 9.6875zm21.051865 -0.140625l-6.03125 0l-1.359375 3.71875l-1.1875 0l5.03125 -13.265625l1.0625 0l5.015625 13.265625l-1.15625 0l-1.375 -3.71875zm-5.6875 -0.953125l5.328125 0l-2.65625 -7.21875l-2.671875 7.21875zm17.682297 1.40625q0 -1.09375 -0.78125 -1.734375q-0.765625 -0.640625 -2.828125 -1.21875q-2.0625 -0.59375 -3.015625 -1.265625q-1.34375 -0.96875 -1.34375 -2.53125q0 -1.53125 1.25 -2.484375q1.25 -0.953125 3.203125 -0.953125q1.328125 0 2.359375 0.515625q1.046875 0.515625 1.625 1.421875q0.578125 0.90625 0.578125 2.03125l-1.140625 0q0 -1.359375 -0.9375 -2.171875q-0.921875 -0.828125 -2.484375 -0.828125q-1.515625 0 -2.421875 0.6875q-0.90625 0.671875 -0.90625 1.765625q0 1.0 0.8125 1.640625q0.8125 0.640625 2.59375 1.125q1.796875 0.484375 2.703125 1.015625q0.921875 0.515625 1.390625 1.25q0.46875 0.734375 0.46875 1.71875q0 1.5625 -1.25 2.515625q-1.25 0.953125 -3.3125 0.953125q-1.390625 0 -2.5625 -0.5q-1.171875 -0.5 -1.78125 -1.40625q-0.609375 -0.90625 -0.609375 -2.078125l1.125 0q0 1.40625 1.046875 2.21875q1.046875 0.8125 2.78125 0.8125q1.5625 0 2.5 -0.671875q0.9375 -0.6875 0.9375 -1.828125zm5.01857 -10.0l4.8906097 11.703125l4.921875 -11.703125l1.484375 0l0 13.265625l-1.109375 0l0 -5.78125l0.078125 -5.921875l-4.9375 11.703125l-0.859375 0l-4.9218597 -11.65625l0.09375 5.84375l0 5.8125l-1.125 0l0 -13.265625l1.484375 0zm26.522293 6.90625l-6.203125 0l0 5.40625l7.125 0l0 0.953125l-8.25 0l0 -13.265625l8.21875 0l0 0.953125l-7.09375 0l0 5.0l6.203125 0l0 0.953125zm7.3313293 -1.296875l3.734375 -5.609375l1.328125 0l-4.390625 6.546875l4.53125 6.71875l-1.34375 0l-3.859375 -5.796875l-3.890625 5.796875l-1.328125 0l4.53125 -6.71875l-4.390625 -6.546875l1.34375 0l3.734375 5.609375zm14.695435 1.296875l-6.203125 0l0 5.40625l7.125 0l0 0.953125l-8.25 0l0 -13.265625l8.21875 0l0 0.953125l-7.09375 0l0 5.0l6.203125 0l0 0.953125zm12.675079 2.21875q-0.21875 2.09375 -1.5 3.21875q-1.265625 1.109375 -3.375 1.109375q-1.484375 0 -2.625 -0.734375q-1.125 -0.75 -1.75 -2.09375q-0.609375 -1.359375 -0.625 -3.09375l0 -1.71875q0 -1.78125 0.625 -3.140625q0.625 -1.359375 1.78125 -2.109375q1.15625 -0.75 2.671875 -0.75q2.140625 0 3.375 1.15625q1.234375 1.15625 1.421875 3.1875l-1.125 0q-0.421875 -3.375 -3.671875 -3.375q-1.796875 0 -2.875 1.34375q-1.0625 1.34375 -1.0625 3.71875l0 1.625q0 2.296875 1.03125 3.671875q1.046875 1.359375 2.828125 1.359375q1.75 0 2.640625 -0.84375q0.90625 -0.84375 1.109375 -2.53125l1.125 0zm11.865631 -9.125l0 9.0625q-0.015625 1.328125 -0.59375 2.328125q-0.578125 0.984375 -1.640625 1.53125q-1.0625 0.53125 -2.4375 0.53125q-2.09375 0 -3.359375 -1.140625q-1.265625 -1.15625 -1.3125 -3.171875l0 -9.140625l1.125 0l0 8.96875q0 1.6875 0.953125 2.609375q0.953125 0.921875 2.59375 0.921875q1.640625 0 2.59375 -0.921875q0.953125 -0.9375 0.953125 -2.59375l0 -8.984375l1.125 0zm12.120758 0.953125l-4.546875 0l0 12.3125l-1.109375 0l0 -12.3125l-4.546875 0l0 -0.953125l10.203125 0l0 0.953125zm11.698212 6.40625q0 1.828125 -0.640625 3.21875q-0.625 1.375 -1.8125 2.125q-1.171875 0.75 -2.703125 0.75q-2.328125 0 -3.765625 -1.65625q-1.421875 -1.671875 -1.421875 -4.5l0 -1.359375q0 -1.8125 0.640625 -3.203125q0.640625 -1.40625 1.8125 -2.15625q1.171875 -0.765625 2.703125 -0.765625q1.53125 0 2.703125 0.75q1.171875 0.734375 1.8125 2.078125q0.640625 1.34375 0.671875 3.125l0 1.59375zm-1.125 -1.4375q0 -2.40625 -1.09375 -3.765625q-1.078125 -1.359375 -2.96875 -1.359375q-1.84375 0 -2.9375 1.375q-1.09375 1.359375 -1.09375 3.796875l0 1.390625q0 2.359375 1.09375 3.734375q1.09375 1.375 2.96875 1.375q1.890625 0 2.953125 -1.359375q1.078125 -1.359375 1.078125 -3.796875l0 -1.390625zm8.891388 1.828125l-3.84375 0l0 5.515625l-1.125 0l0 -13.265625l4.296875 0q2.125 0 3.3125 1.03125q1.203125 1.03125 1.203125 2.875q0 1.28125 -0.75 2.265625q-0.75 0.96875 -2.0 1.34375l3.3125 5.625l0 0.125l-1.1875 0l-3.21875 -5.515625zm-3.84375 -0.96875l3.4375 0q1.40625 0 2.265625 -0.796875q0.859375 -0.796875 0.859375 -2.078125q0 -1.40625 -0.90625 -2.171875q-0.890625 -0.78125 -2.5 -0.78125l-3.15625 0l0 5.828125z" fill-rule="nonzero"/><path fill="#000000" fill-opacity="0.0" d="m362.04135 146.59096l0 0l0 21.862793l0 0l0 -21.862793z" fill-rule="nonzero"/><path fill="#000000" d="m399.06824 189.03197l0 0c0 -12.814423 10.388153 -23.202576 23.202576 -23.202576l102.38226 0c6.1536865 0 12.055359 2.4445496 16.406677 6.795883c4.3513184 4.3513184 6.7958984 10.252975 6.7958984 16.406693l0 92.80745c0 12.814423 -10.388123 23.202576 -23.202576 23.202576l-102.38226 0c-12.814423 0 -23.202576 -10.388153 -23.202576 -23.202576z" fill-rule="evenodd"/><path fill="#ffffff" d="m443.69452 225.1682l-6.1875 0l0 6.1875l-1.125 0l0 -13.265625l8.21875 0l0 0.953125l-7.09375 0l0 5.15625l6.1875 0l0 0.96875zm4.5566406 6.1875l-1.125 0l0 -13.265625l1.125 0l0 13.265625zm13.464661 0l-1.109375 0l-7.625 -11.34375l0 11.34375l-1.140625 0l0 -13.265625l1.140625 0l7.625 11.359375l0 -11.359375l1.109375 0l0 13.265625zm10.706146 -3.71875l-6.03125 0l-1.359375 3.71875l-1.1875 0l5.03125 -13.265625l1.0625 0l5.015625 13.265625l-1.15625 0l-1.375 -3.71875zm-5.6875 -0.953125l5.328125 0l-2.65625 -7.21875l-2.671875 7.21875zm11.307312 3.71875l6.546875 0l0 0.953125l-7.6875 0l0 -13.265625l1.140625 0l0 12.3125zm10.063507 0.953125l-1.125 0l0 -13.265625l1.125 0l0 13.265625zm12.325348 -12.3125l-4.546875 0l0 12.3125l-1.109375 0l0 -12.3125l-4.546875 0l0 -0.953125l10.203125 0l0 0.953125zm6.177368 6.28125l4.0625 -7.234375l1.28125 0l-4.78125 8.28125l0 4.984375l-1.125 0l0 -4.984375l-4.78125 -8.28125l1.328125 0l4.015625 7.234375z" fill-rule="nonzero"/><path fill="#ffffff" d="m449.0573 251.77757q-0.578125 0.828125 -1.828125 1.296875q-1.234375 0.46875 -2.78125 0.46875q-1.5625 0 -2.78125 -0.75q-1.203125 -0.75 -1.875 -2.109375q-0.65625 -1.375 -0.65625 -3.140625l0 -1.671875q0 -2.765625 1.390625 -4.359375q1.390625 -1.609375 3.734375 -1.609375q2.0625 0 3.296875 1.046875q1.25 1.046875 1.484375 2.875l-1.109375 0q-0.25 -1.453125 -1.203125 -2.203125q-0.9375 -0.75 -2.453125 -0.75q-1.859375 0 -2.953125 1.328125q-1.078125 1.3125 -1.078125 3.71875l0 1.5625q0 1.515625 0.515625 2.671875q0.515625 1.15625 1.46875 1.796875q0.96875 0.640625 2.21875 0.640625q1.453125 0 2.484375 -0.453125q0.671875 -0.296875 1.0 -0.703125l0 -3.421875l-3.5625 0l0 -0.953125l4.6875 0l0 4.71875zm10.347046 -2.140625l-6.03125 0l-1.359375 3.71875l-1.1875 0l5.03125 -13.265625l1.0625 0l5.015625 13.265625l-1.15625 0l-1.375 -3.71875zm-5.6875 -0.953125l5.328125 0l-2.65625 -7.21875l-2.671875 7.21875zm10.166687 4.671875l0 -13.265625l3.71875 0q1.625 0 2.90625 0.75q1.296875 0.734375 2.015625 2.125q0.734375 1.375 0.734375 3.15625l0 1.21875q0 1.765625 -0.71875 3.140625q-0.71875 1.375 -2.03125 2.125q-1.296875 0.75 -3.0 0.75l-3.625 0zm1.125 -12.3125l0 11.359375l2.515625 0q2.09375 0 3.359375 -1.375q1.265625 -1.390625 1.265625 -3.765625l0 -1.171875q0 -2.28125 -1.25 -3.65625q-1.25 -1.375 -3.28125 -1.390625l-2.609375 0zm20.668945 10.734375q-0.578125 0.828125 -1.828125 1.296875q-1.234375 0.46875 -2.78125 0.46875q-1.5625 0 -2.78125 -0.75q-1.203125 -0.75 -1.875 -2.109375q-0.65625 -1.375 -0.65625 -3.140625l0 -1.671875q0 -2.765625 1.390625 -4.359375q1.390625 -1.609375 3.734375 -1.609375q2.0625 0 3.296875 1.046875q1.25 1.046875 1.484375 2.875l-1.109375 0q-0.25 -1.453125 -1.203125 -2.203125q-0.9375 -0.75 -2.453125 -0.75q-1.859375 0 -2.953125 1.328125q-1.078125 1.3125 -1.078125 3.71875l0 1.5625q0 1.515625 0.515625 2.671875q0.515625 1.15625 1.46875 1.796875q0.96875 0.640625 2.21875 0.640625q1.453125 0 2.484375 -0.453125q0.671875 -0.296875 1.0 -0.703125l0 -3.421875l-3.5625 0l0 -0.953125l4.6875 0l0 4.71875zm10.503296 -4.78125l-6.203125 0l0 5.40625l7.125 0l0 0.953125l-8.25 0l0 -13.265625l8.21875 0l0 0.953125l-7.09375 0l0 5.0l6.203125 0l0 0.953125zm12.466736 -5.953125l-4.546875 0l0 12.3125l-1.109375 0l0 -12.3125l-4.546875 0l0 -0.953125l10.203125 0l0 0.953125z" fill-rule="nonzero"/><path fill="#000000" d="m24.52231 29.089542l0 0c0 -8.384459 6.7969456 -15.181406 15.181406 -15.181406l118.04663 0c4.026367 0 7.8878174 1.5994654 10.734879 4.4465313c2.8470612 2.847065 4.446533 6.708515 4.446533 10.734875l0 60.723804c0 8.38446 -6.7969513 15.181404 -15.181412 15.181404l-118.04663 0c-8.38446 0 -15.181406 -6.7969437 -15.181406 -15.181404z" fill-rule="evenodd"/><path fill="#ffffff" d="m57.97587 54.05894l-4.546875 0l0 12.312504l-1.109375 0l0 -12.312504l-4.546875 0l0 -0.953125l10.203125 0l0 0.953125zm9.46904 5.953125l-6.203125 0l0 5.406254l7.125 0l0 0.953125l-8.25 0l0 -13.265629l8.21875 0l0 0.953125l-7.09375 0l0 5.0l6.203125 0l0 0.953125zm4.425064 5.406254l6.546875 0l0 0.953125l-7.6875 0l0 -13.265629l1.140625 0l0 12.312504zm16.016647 -5.406254l-6.203125 0l0 5.406254l7.125 0l0 0.953125l-8.25 0l0 -13.265629l8.21875 0l0 0.953125l-7.09375 0l0 5.0l6.203125 0l0 0.953125zm4.768814 -6.90625l4.890625 11.703129l4.921875 -11.703129l1.484375 0l0 13.265629l-1.109375 0l0 -5.781254l0.078125 -5.921875l-4.9375 11.703129l-0.859375 0l-4.921875 -11.656254l0.09375 5.84375l0 5.812504l-1.125 0l0 -13.265629l1.484375 0zm21.985779 6.90625l-6.203125 0l0 5.406254l7.125 0l0 0.953125l-8.25 0l0 -13.265629l8.21875 0l0 0.953125l-7.09375 0l0 5.0l6.203125 0l0 0.953125zm12.466736 -5.953125l-4.546875 0l0 12.312504l-1.109375 0l0 -12.312504l-4.546875 0l0 -0.953125l10.203125 0l0 0.953125zm7.0940475 6.796875l-3.84375 0l0 5.515629l-1.125 0l0 -13.265629l4.296875 0q2.125 0 3.3125 1.03125q1.203125 1.03125 1.203125 2.875q0 1.28125 -0.75 2.265625q-0.75 0.96875 -2.0 1.34375l3.3125 5.625004l0 0.125l-1.1875 0l-3.21875 -5.515629zm-3.84375 -0.96875l3.4375 0q1.40625 0 2.265625 -0.796875q0.859375 -0.796875 0.859375 -2.078125q0 -1.40625 -0.90625 -2.171875q-0.890625 -0.78125 -2.5 -0.78125l-3.15625 0l0 5.828125zm14.186096 0.453125l4.0625 -7.234375l1.28125 0l-4.78125 8.28125l0 4.984379l-1.125 0l0 -4.984379l-4.78125 -8.28125l1.328125 0l4.015625 7.234375z" fill-rule="nonzero"/><path fill="#000000" d="m399.06824 332.93207l0 0c0 -8.38446 6.796936 -15.1813965 15.1813965 -15.1813965l118.04663 0c4.026367 0 7.8878174 1.5994568 10.734924 4.4465027c2.847046 2.8470764 4.446472 6.7085266 4.446472 10.734894l0 60.723785c0 8.38446 -6.796936 15.181427 -15.1813965 15.181427l-118.04663 0c-8.38446 0 -15.1813965 -6.7969666 -15.1813965 -15.181427z" fill-rule="evenodd"/><path fill="#ffffff" d="m439.5088 346.90146l-4.546875 0l0 12.3125l-1.109375 0l0 -12.3125l-4.546875 0l0 -0.953125l10.203125 0l0 0.953125zm11.698212 6.40625q0 1.828125 -0.640625 3.21875q-0.625 1.375 -1.8125 2.125q-1.171875 0.75 -2.703125 0.75q-2.328125 0 -3.765625 -1.65625q-1.421875 -1.671875 -1.421875 -4.5l0 -1.359375q0 -1.8125 0.640625 -3.203125q0.640625 -1.40625 1.8125 -2.15625q1.171875 -0.765625 2.703125 -0.765625q1.53125 0 2.703125 0.75q1.171875 0.734375 1.8125 2.078125q0.640625 1.34375 0.671875 3.125l0 1.59375zm-1.125 -1.4375q0 -2.40625 -1.09375 -3.765625q-1.078125 -1.359375 -2.96875 -1.359375q-1.84375 0 -2.9375 1.375q-1.09375 1.359375 -1.09375 3.796875l0 1.390625q0 2.359375 1.09375 3.734375q1.09375 1.375 2.96875 1.375q1.890625 0 2.953125 -1.359375q1.078125 -1.359375 1.078125 -3.796875l0 -1.390625zm13.750763 1.4375q0 1.828125 -0.640625 3.21875q-0.625 1.375 -1.8125 2.125q-1.171875 0.75 -2.703125 0.75q-2.328125 0 -3.765625 -1.65625q-1.421875 -1.671875 -1.421875 -4.5l0 -1.359375q0 -1.8125 0.640625 -3.203125q0.640625 -1.40625 1.8125 -2.15625q1.171875 -0.765625 2.703125 -0.765625q1.53125 0 2.703125 0.75q1.171875 0.734375 1.8125 2.078125q0.640625 1.34375 0.671875 3.125l0 1.59375zm-1.125 -1.4375q0 -2.40625 -1.09375 -3.765625q-1.078125 -1.359375 -2.96875 -1.359375q-1.84375 0 -2.9375 1.375q-1.09375 1.359375 -1.09375 3.796875l0 1.390625q0 2.359375 1.09375 3.734375q1.09375 1.375 2.96875 1.375q1.890625 0 2.953125 -1.359375q1.078125 -1.359375 1.078125 -3.796875l0 -1.390625zm5.078888 6.390625l6.546875 0l0 0.953125l-7.6875 0l0 -13.265625l1.140625 0l0 12.3125zm10.063507 0.953125l-1.125 0l0 -13.265625l1.125 0l0 13.265625zm13.464691 0l-1.109375 0l-7.625 -11.34375l0 11.34375l-1.140625 0l0 -13.265625l1.140625 0l7.625 11.359375l0 -11.359375l1.109375 0l0 13.265625zm12.948334 -1.578125q-0.578125 0.828125 -1.828125 1.296875q-1.234375 0.46875 -2.78125 0.46875q-1.5625 0 -2.78125 -0.75q-1.203125 -0.75 -1.875 -2.109375q-0.65625 -1.375 -0.65625 -3.140625l0 -1.671875q0 -2.765625 1.390625 -4.359375q1.390625 -1.609375 3.734375 -1.609375q2.0625 0 3.296875 1.046875q1.25 1.046875 1.484375 2.875l-1.109375 0q-0.25 -1.453125 -1.203125 -2.203125q-0.9375 -0.75 -2.453125 -0.75q-1.859375 0 -2.953125 1.328125q-1.078125 1.3125 -1.078125 3.71875l0 1.5625q0 1.515625 0.515625 2.671875q0.515625 1.15625 1.46875 1.796875q0.96875 0.640625 2.21875 0.640625q1.453125 0 2.484375 -0.453125q0.671875 -0.296875 1.0 -0.703125l0 -3.421875l-3.5625 0l0 -0.953125l4.6875 0l0 4.71875zm7.3054504 2.71875l-1.0 0l5.5468445 -14.40625l0.984375 0l-5.5312195 14.40625z" fill-rule="nonzero"/><path fill="#ffffff" d="m455.16977 375.3077q0 1.828125 -0.640625 3.21875q-0.625 1.375 -1.8125 2.125q-1.171875 0.75 -2.703125 0.75q-2.328125 0 -3.765625 -1.65625q-1.421875 -1.671875 -1.421875 -4.5l0 -1.359375q0 -1.8125 0.640625 -3.203125q0.640625 -1.40625 1.8125 -2.15625q1.171875 -0.765625 2.703125 -0.765625q1.53125 0 2.703125 0.75q1.171875 0.734375 1.8125 2.078125q0.640625 1.34375 0.671875 3.125l0 1.59375zm-1.125 -1.4375q0 -2.40625 -1.09375 -3.765625q-1.078125 -1.359375 -2.96875 -1.359375q-1.84375 0 -2.9375 1.375q-1.09375 1.359375 -1.09375 3.796875l0 1.390625q0 2.359375 1.09375 3.734375q1.09375 1.375 2.96875 1.375q1.890625 0 2.953125 -1.359375q1.078125 -1.359375 1.078125 -3.796875l0 -1.390625zm12.692169 -4.96875l-4.546875 0l0 12.3125l-1.109375 0l0 -12.3125l-4.546875 0l0 -0.953125l10.203125 0l0 0.953125zm11.969025 12.3125l-1.125 0l0 -6.359375l-7.578125 0l0 6.359375l-1.125 0l0 -13.265625l1.125 0l0 5.953125l7.578125 0l0 -5.953125l1.125 0l0 13.265625zm10.6996765 -6.359375l-6.203125 0l0 5.40625l7.125 0l0 0.953125l-8.25 0l0 -13.265625l8.21875 0l0 0.953125l-7.09375 0l0 5.0l6.203125 0l0 0.953125zm8.237549 0.84375l-3.84375 0l0 5.515625l-1.125 0l0 -13.265625l4.296875 0q2.125 0 3.3125 1.03125q1.203125 1.03125 1.203125 2.875q0 1.28125 -0.75 2.265625q-0.75 0.96875 -2.0 1.34375l3.3125 5.625l0 0.125l-1.1875 0l-3.21875 -5.515625zm-3.84375 -0.96875l3.4375 0q1.40625 0 2.265625 -0.796875q0.859375 -0.796875 0.859375 -2.078125q0 -1.40625 -0.90625 -2.171875q-0.890625 -0.78125 -2.5 -0.78125l-3.15625 0l0 5.828125z" fill-rule="nonzero"/></g></svg>