<svg version="1.1" viewBox="0.0 0.0 1250.4881889763778 599.2519685039371" fill="none" stroke="none" stroke-linecap="square" stroke-miterlimit="10" xmlns:xlink="http://www.w3.org/1999/xlink" xmlns="http://www.w3.org/2000/svg"><clipPath id="p.0"><path d="m0 0l1250.4882 0l0 599.25195l-1250.4882 0l0 -599.25195z" clip-rule="nonzero"/></clipPath><g clip-path="url(#p.0)"><path fill="#000000" fill-opacity="0.0" d="m0 0l1250.4882 0l0 599.25195l-1250.4882 0z" fill-rule="evenodd"/><path fill="#000000" d="m0 0l1250.4882 0l0 599.2441l-1250.4882 0z" fill-rule="evenodd"/><path stroke="#07154b" stroke-width="1.0" stroke-linejoin="round" stroke-linecap="butt" d="m0 0l1250.4882 0l0 599.2441l-1250.4882 0z" fill-rule="evenodd"/><path fill="#000000" fill-opacity="0.0" d="m625.2441 0l0 599.2441" fill-rule="evenodd"/><path stroke="#ffffff" stroke-width="1.0" stroke-linejoin="round" stroke-linecap="butt" stroke-dasharray="1.0,3.0" d="m625.2441 0l0 599.2441" fill-rule="evenodd"/><path fill="#8d3aed" d="m52.850243 29.08118l554.4882 0l0 42.01575l-554.4882 0z" fill-rule="evenodd"/><path stroke="#8d3aed" stroke-width="1.0" stroke-linejoin="round" stroke-linecap="butt" d="m52.850243 29.08118l554.4882 0l0 42.01575l-554.4882 0z" fill-rule="evenodd"/><path fill="#ffffff" d="m273.8404 49.485554q0 -1.890625 0.859375 -3.40625q0.859375 -1.53125 2.34375 -2.390625q1.484375 -0.859375 3.296875 -0.859375q2.125 0 3.703125 1.03125q1.59375 1.015625 2.328125 2.90625l-2.046875 0q-0.53125 -1.171875 -1.546875 -1.796875q-1.015625 -0.640625 -2.4375 -0.640625q-1.359375 0 -2.453125 0.640625q-1.078125 0.625 -1.703125 1.796875q-0.609375 1.15625 -0.609375 2.71875q0 1.546875 0.609375 2.71875q0.625 1.171875 1.703125 1.8125q1.09375 0.625 2.453125 0.625q1.421875 0 2.4375 -0.625q1.015625 -0.625 1.546875 -1.796875l2.046875 0q-0.734375 1.859375 -2.328125 2.875q-1.578125 1.015625 -3.703125 1.015625q-1.8125 0 -3.296875 -0.84375q-1.484375 -0.84375 -2.34375 -2.359375q-0.859375 -1.515625 -0.859375 -3.421875zm16.746368 -7.296875l0 13.8125l-1.703125 0l0 -13.8125l1.703125 0zm3.761322 1.921875q-0.484375 0 -0.828125 -0.328125q-0.328125 -0.34375 -0.328125 -0.828125q0 -0.484375 0.328125 -0.8125q0.34375 -0.34375 0.828125 -0.34375q0.46875 0 0.796875 0.34375q0.328125 0.328125 0.328125 0.8125q0 0.484375 -0.328125 0.828125q-0.328125 0.328125 -0.796875 0.328125zm0.828125 1.671875l0 10.21875l-1.703125 0l0 -10.21875l1.703125 0zm12.2144165 4.71875q0 0.484375 -0.0625 1.015625l-8.171875 0q0.09375 1.515625 1.03125 2.375q0.953125 0.84375 2.296875 0.84375q1.09375 0 1.828125 -0.515625q0.75 -0.515625 1.046875 -1.375l1.828125 0q-0.40625 1.484375 -1.640625 2.40625q-1.234375 0.921875 -3.0625 0.921875q-1.453125 0 -2.609375 -0.65625q-1.140625 -0.65625 -1.796875 -1.859375q-0.65625 -1.203125 -0.65625 -2.78125q0 -1.59375 0.640625 -2.78125q0.640625 -1.203125 1.78125 -1.84375q1.140625 -0.640625 2.640625 -0.640625q1.453125 0 2.5625 0.640625q1.125 0.625 1.734375 1.734375q0.609375 1.109375 0.609375 2.515625zm-1.75 -0.359375q0 -0.96875 -0.4375 -1.671875q-0.421875 -0.703125 -1.171875 -1.0625q-0.734375 -0.359375 -1.625 -0.359375q-1.28125 0 -2.1875 0.828125q-0.90625 0.8125 -1.03125 2.265625l6.453125 0zm8.973145 -4.546875q1.859375 0 3.015625 1.125q1.15625 1.125 1.15625 3.25l0 6.03125l-1.671875 0l0 -5.78125q0 -1.53125 -0.765625 -2.34375q-0.765625 -0.8125 -2.09375 -0.8125q-1.34375 0 -2.140625 0.84375q-0.78125 0.84375 -0.78125 2.4375l0 5.65625l-1.703125 0l0 -10.21875l1.703125 0l0 1.453125q0.5 -0.78125 1.359375 -1.203125q0.875 -0.4375 1.921875 -0.4375zm9.018127 1.578125l0 6.03125q0 0.75 0.3125 1.0625q0.328125 0.296875 1.109375 0.296875l1.25 0l0 1.4375l-1.53125 0q-1.40625 0 -2.125 -0.65625q-0.703125 -0.65625 -0.703125 -2.140625l0 -6.03125l-1.328125 0l0 -1.390625l1.328125 0l0 -2.578125l1.6875 0l0 2.578125l2.671875 0l0 1.390625l-2.671875 0zm16.053345 -8.75l-5.109375 20.75l-1.6875 0l5.09375 -20.75l1.703125 0zm17.533478 4.578125l0 13.0l-1.703125 0l0 -5.890625l-6.609375 0l0 5.890625l-1.703125 0l0 -13.0l1.703125 0l0 5.703125l6.609375 0l0 -5.703125l1.703125 0zm7.347595 13.171875q-1.4375 0 -2.609375 -0.65625q-1.15625 -0.65625 -1.828125 -1.859375q-0.65625 -1.203125 -0.65625 -2.78125q0 -1.578125 0.6875 -2.78125q0.6875 -1.203125 1.859375 -1.84375q1.171875 -0.640625 2.625 -0.640625q1.453125 0 2.625 0.640625q1.1875 0.640625 1.859375 1.84375q0.6875 1.1875 0.6875 2.78125q0 1.578125 -0.703125 2.78125q-0.703125 1.203125 -1.90625 1.859375q-1.1875 0.65625 -2.640625 0.65625zm0 -1.5q0.921875 0 1.71875 -0.421875q0.796875 -0.4375 1.296875 -1.296875q0.5 -0.859375 0.5 -2.078125q0 -1.234375 -0.484375 -2.09375q-0.484375 -0.859375 -1.28125 -1.28125q-0.78125 -0.421875 -1.6875 -0.421875q-0.9375 0 -1.71875 0.421875q-0.765625 0.421875 -1.234375 1.28125q-0.46875 0.859375 -0.46875 2.09375q0 1.25 0.453125 2.109375q0.46875 0.84375 1.234375 1.265625q0.765625 0.421875 1.671875 0.421875zm11.111877 1.5q-1.1875 0 -2.125 -0.40625q-0.921875 -0.40625 -1.46875 -1.125q-0.53125 -0.71875 -0.59375 -1.640625l1.75 0q0.078125 0.765625 0.71875 1.25q0.65625 0.484375 1.6875 0.484375q0.96875 0 1.53125 -0.421875q0.5625 -0.4375 0.5625 -1.09375q0 -0.671875 -0.59375 -1.0q-0.59375 -0.328125 -1.84375 -0.640625q-1.140625 -0.296875 -1.859375 -0.59375q-0.71875 -0.3125 -1.234375 -0.921875q-0.515625 -0.609375 -0.515625 -1.59375q0 -0.796875 0.46875 -1.4375q0.46875 -0.65625 1.328125 -1.03125q0.859375 -0.390625 1.953125 -0.390625q1.703125 0 2.75 0.859375q1.046875 0.859375 1.109375 2.34375l-1.6875 0q-0.0625 -0.796875 -0.65625 -1.28125q-0.578125 -0.484375 -1.5625 -0.484375q-0.921875 0 -1.46875 0.390625q-0.53125 0.390625 -0.53125 1.03125q0 0.5 0.328125 0.828125q0.328125 0.328125 0.8125 0.53125q0.5 0.1875 1.375 0.421875q1.109375 0.296875 1.796875 0.59375q0.6875 0.28125 1.171875 0.859375q0.5 0.578125 0.515625 1.515625q0 0.84375 -0.46875 1.515625q-0.453125 0.671875 -1.3125 1.0625q-0.84375 0.375 -1.9375 0.375zm8.176086 -9.0l0 6.03125q0 0.75 0.3125 1.0625q0.328125 0.296875 1.109375 0.296875l1.25 0l0 1.4375l-1.53125 0q-1.40625 0 -2.125 -0.65625q-0.703125 -0.65625 -0.703125 -2.140625l0 -6.03125l-1.328125 0l0 -1.390625l1.328125 0l0 -2.578125l1.6875 0l0 2.578125l2.671875 0l0 1.390625l-2.671875 0z" fill-rule="nonzero"/><path fill="#000000" fill-opacity="0.0" d="m149.65608 448.954l0 0c0 -8.822235 7.15184 -15.97406 15.974075 -15.97406l160.61877 0c4.236603 0 8.299683 1.6829834 11.29538 4.678711c2.9957275 2.995697 4.678711 7.058777 4.678711 11.295349l0 63.89438c0 8.822266 -7.1518555 15.97406 -15.974091 15.97406l-160.61877 0l0 0c-8.822235 0 -15.974075 -7.1517944 -15.974075 -15.97406z" fill-rule="evenodd"/><path stroke="#8d3aed" stroke-width="3.0" stroke-linejoin="round" stroke-linecap="butt" d="m149.65608 448.954l0 0c0 -8.822235 7.15184 -15.97406 15.974075 -15.97406l160.61877 0c4.236603 0 8.299683 1.6829834 11.29538 4.678711c2.9957275 2.995697 4.678711 7.058777 4.678711 11.295349l0 63.89438c0 8.822266 -7.1518555 15.97406 -15.974091 15.97406l-160.61877 0l0 0c-8.822235 0 -15.974075 -7.1517944 -15.974075 -15.97406z" fill-rule="evenodd"/><path fill="#ffffff" d="m202.64459 474.1637q2.28125 0 3.953125 0.859375q1.671875 0.84375 2.5625 2.421875q0.890625 1.578125 0.890625 3.71875q0 2.140625 -0.890625 3.71875q-0.890625 1.5625 -2.5625 2.390625q-1.671875 0.828125 -3.953125 0.828125l-4.328125 0l0 -13.9375l4.328125 0zm0 12.4375q2.703125 0 4.125 -1.421875q1.421875 -1.4375 1.421875 -4.015625q0 -2.609375 -1.4375 -4.0625q-1.421875 -1.453125 -4.109375 -1.453125l-2.515625 0l0 10.953125l2.515625 0zm9.124359 -4.015625q0 -1.6875 0.671875 -2.953125q0.6875 -1.265625 1.875 -1.96875q1.1875 -0.703125 2.65625 -0.703125q1.4375 0 2.5 0.625q1.0625 0.609375 1.578125 1.5625l0 -2.0l1.84375 0l0 10.953125l-1.84375 0l0 -2.046875q-0.546875 0.96875 -1.625 1.609375q-1.0625 0.625 -2.46875 0.625q-1.46875 0 -2.65625 -0.71875q-1.171875 -0.734375 -1.859375 -2.03125q-0.671875 -1.296875 -0.671875 -2.953125zm9.28125 0.015625q0 -1.234375 -0.5 -2.15625q-0.5 -0.921875 -1.359375 -1.40625q-0.84375 -0.5 -1.859375 -0.5q-1.015625 0 -1.859375 0.484375q-0.84375 0.484375 -1.34375 1.40625q-0.5 0.90625 -0.5 2.15625q0 1.25 0.5 2.1875q0.5 0.921875 1.34375 1.421875q0.84375 0.484375 1.859375 0.484375q1.015625 0 1.859375 -0.484375q0.859375 -0.5 1.359375 -1.421875q0.5 -0.9375 0.5 -2.171875zm7.144989 -3.953125l0 6.453125q0 0.796875 0.328125 1.125q0.34375 0.328125 1.1875 0.328125l1.34375 0l0 1.546875l-1.640625 0q-1.53125 0 -2.296875 -0.703125q-0.75 -0.703125 -0.75 -2.296875l0 -6.453125l-1.421875 0l0 -1.5l1.421875 0l0 -2.765625l1.828125 0l0 2.765625l2.859375 0l0 1.5l-2.859375 0zm4.373749 3.9375q0 -1.6875 0.671875 -2.953125q0.6875 -1.265625 1.875 -1.96875q1.1875 -0.703125 2.65625 -0.703125q1.4375 0 2.5 0.625q1.0625 0.609375 1.578125 1.5625l0 -2.0l1.84375 0l0 10.953125l-1.84375 0l0 -2.046875q-0.546875 0.96875 -1.625 1.609375q-1.0625 0.625 -2.46875 0.625q-1.46875 0 -2.65625 -0.71875q-1.171875 -0.734375 -1.859375 -2.03125q-0.671875 -1.296875 -0.671875 -2.953125zm9.28125 0.015625q0 -1.234375 -0.5 -2.15625q-0.5 -0.921875 -1.359375 -1.40625q-0.84375 -0.5 -1.859375 -0.5q-1.015625 0 -1.859375 0.484375q-0.84375 0.484375 -1.34375 1.40625q-0.5 0.90625 -0.5 2.15625q0 1.25 0.5 2.1875q0.5 0.921875 1.34375 1.421875q0.84375 0.484375 1.859375 0.484375q1.015625 0 1.859375 -0.484375q0.859375 -0.5 1.359375 -1.421875q0.5 -0.9375 0.5 -2.171875zm6.738739 -3.421875q0.5625 -0.984375 1.640625 -1.59375q1.078125 -0.625 2.453125 -0.625q1.484375 0 2.65625 0.703125q1.1875 0.703125 1.859375 1.96875q0.6875 1.265625 0.6875 2.953125q0 1.65625 -0.6875 2.953125q-0.671875 1.296875 -1.859375 2.03125q-1.1875 0.71875 -2.65625 0.71875q-1.40625 0 -2.484375 -0.625q-1.0625 -0.625 -1.609375 -1.578125l0 2.015625l-1.8125 0l0 -14.796875l1.8125 0l0 5.875zm7.4375 3.40625q0 -1.25 -0.5 -2.15625q-0.5 -0.921875 -1.359375 -1.40625q-0.84375 -0.484375 -1.859375 -0.484375q-1.0 0 -1.859375 0.5q-0.84375 0.484375 -1.359375 1.421875q-0.5 0.921875 -0.5 2.140625q0 1.234375 0.5 2.171875q0.515625 0.921875 1.359375 1.421875q0.859375 0.484375 1.859375 0.484375q1.015625 0 1.859375 -0.484375q0.859375 -0.5 1.359375 -1.421875q0.5 -0.9375 0.5 -2.1875zm3.582489 0q0 -1.6875 0.671875 -2.953125q0.6875 -1.265625 1.875 -1.96875q1.1875 -0.703125 2.65625 -0.703125q1.4375 0 2.5 0.625q1.0625 0.609375 1.578125 1.5625l0 -2.0l1.84375 0l0 10.953125l-1.84375 0l0 -2.046875q-0.546875 0.96875 -1.625 1.609375q-1.0625 0.625 -2.46875 0.625q-1.46875 0 -2.65625 -0.71875q-1.171875 -0.734375 -1.859375 -2.03125q-0.671875 -1.296875 -0.671875 -2.953125zm9.28125 0.015625q0 -1.234375 -0.5 -2.15625q-0.5 -0.921875 -1.359375 -1.40625q-0.84375 -0.5 -1.859375 -0.5q-1.015625 0 -1.859375 0.484375q-0.84375 0.484375 -1.34375 1.40625q-0.5 0.90625 -0.5 2.15625q0 1.25 0.5 2.1875q0.5 0.921875 1.34375 1.421875q0.84375 0.484375 1.859375 0.484375q1.015625 0 1.859375 -0.484375q0.859375 -0.5 1.359375 -1.421875q0.5 -0.9375 0.5 -2.171875zm8.801239 5.6875q-1.265625 0 -2.265625 -0.4375q-1.0 -0.4375 -1.578125 -1.203125q-0.578125 -0.765625 -0.640625 -1.765625l1.875 0q0.09375 0.8125 0.78125 1.34375q0.6875 0.515625 1.8125 0.515625q1.03125 0 1.625 -0.453125q0.609375 -0.46875 0.609375 -1.171875q0 -0.71875 -0.640625 -1.0625q-0.640625 -0.359375 -1.984375 -0.6875q-1.21875 -0.328125 -1.984375 -0.65625q-0.765625 -0.328125 -1.328125 -0.96875q-0.546875 -0.65625 -0.546875 -1.71875q0 -0.84375 0.5 -1.53125q0.5 -0.703125 1.421875 -1.109375q0.921875 -0.421875 2.109375 -0.421875q1.8125 0 2.921875 0.921875q1.125 0.921875 1.203125 2.515625l-1.8125 0q-0.0625 -0.859375 -0.6875 -1.375q-0.625 -0.515625 -1.6875 -0.515625q-0.984375 0 -1.5625 0.421875q-0.578125 0.40625 -0.578125 1.09375q0 0.53125 0.34375 0.890625q0.359375 0.34375 0.875 0.5625q0.53125 0.203125 1.484375 0.46875q1.171875 0.3125 1.90625 0.625q0.75 0.3125 1.28125 0.9375q0.53125 0.609375 0.546875 1.609375q0 0.90625 -0.5 1.625q-0.5 0.71875 -1.421875 1.140625q-0.90625 0.40625 -2.078125 0.40625zm16.565002 -6.09375q0 0.53125 -0.0625 1.109375l-8.765625 0q0.09375 1.609375 1.109375 2.53125q1.015625 0.90625 2.453125 0.90625q1.171875 0 1.96875 -0.546875q0.796875 -0.546875 1.109375 -1.46875l1.953125 0q-0.4375 1.578125 -1.765625 2.578125q-1.3125 0.984375 -3.265625 0.984375q-1.5625 0 -2.796875 -0.703125q-1.21875 -0.703125 -1.921875 -1.984375q-0.703125 -1.296875 -0.703125 -3.0q0 -1.703125 0.671875 -2.984375q0.6875 -1.28125 1.921875 -1.96875q1.234375 -0.6875 2.828125 -0.6875q1.5625 0 2.75 0.6875q1.203125 0.671875 1.859375 1.859375q0.65625 1.1875 0.65625 2.6875zm-1.890625 -0.375q0 -1.03125 -0.46875 -1.78125q-0.453125 -0.75 -1.25 -1.140625q-0.78125 -0.390625 -1.734375 -0.390625q-1.390625 0 -2.359375 0.875q-0.96875 0.875 -1.109375 2.4375l6.921875 0z" fill-rule="nonzero"/><path fill="#000000" fill-opacity="0.0" d="m144.16011 121.16837l0 0c0 -10.88356 8.822861 -19.706429 19.70642 -19.706429l156.1147 0c5.226471 0 10.238892 2.0762024 13.93454 5.7718735c3.6956787 3.6956787 5.771881 8.708084 5.771881 13.934555l0 78.82336c0 10.88356 -8.822845 19.706436 -19.70642 19.706436l-156.1147 0c-10.88356 0 -19.70642 -8.822876 -19.70642 -19.706436z" fill-rule="evenodd"/><path stroke="#8d3aed" stroke-width="3.0" stroke-linejoin="round" stroke-linecap="butt" d="m144.16011 121.16837l0 0c0 -10.88356 8.822861 -19.706429 19.70642 -19.706429l156.1147 0c5.226471 0 10.238892 2.0762024 13.93454 5.7718735c3.6956787 3.6956787 5.771881 8.708084 5.771881 13.934555l0 78.82336c0 10.88356 -8.822845 19.706436 -19.70642 19.706436l-156.1147 0c-10.88356 0 -19.70642 -8.822876 -19.70642 -19.706436z" fill-rule="evenodd"/><path fill="#ffffff" d="m189.53592 140.20068l0 1.578125l-4.0625 0l0 13.28125l-1.9375 0l0 -13.28125l-4.078125 0l0 -1.578125l10.078125 0zm4.319809 5.0625q0.515625 -1.0 1.46875 -1.546875q0.953125 -0.5625 2.3125 -0.5625l0 2.015625l-0.515625 0q-3.265625 0 -3.265625 3.53125l0 6.359375l-1.9375 0l0 -11.6875l1.9375 0l0 1.890625zm5.299179 3.90625q0 -1.78125 0.71875 -3.140625q0.734375 -1.359375 2.0 -2.09375q1.265625 -0.75 2.828125 -0.75q1.53125 0 2.65625 0.65625q1.140625 0.65625 1.6875 1.65625l0 -2.125l1.96875 0l0 11.6875l-1.96875 0l0 -2.171875q-0.578125 1.015625 -1.71875 1.6875q-1.140625 0.671875 -2.65625 0.671875q-1.546875 0 -2.8125 -0.765625q-1.25 -0.765625 -1.984375 -2.140625q-0.71875 -1.390625 -0.71875 -3.171875zm9.890625 0.03125q0 -1.328125 -0.53125 -2.3125q-0.53125 -0.984375 -1.4375 -1.5q-0.90625 -0.515625 -2.0 -0.515625q-1.078125 0 -1.984375 0.515625q-0.890625 0.5 -1.421875 1.484375q-0.53125 0.984375 -0.53125 2.296875q0 1.34375 0.53125 2.34375q0.53125 0.984375 1.421875 1.515625q0.90625 0.515625 1.984375 0.515625q1.09375 0 2.0 -0.515625q0.90625 -0.53125 1.4375 -1.515625q0.53125 -1.0 0.53125 -2.3125zm10.949127 -6.046875q2.125 0 3.4375 1.296875q1.328125 1.28125 1.328125 3.71875l0 6.890625l-1.921875 0l0 -6.609375q0 -1.75 -0.875 -2.671875q-0.859375 -0.9375 -2.375 -0.9375q-1.546875 0 -2.453125 0.96875q-0.90625 0.953125 -0.90625 2.78125l0 6.46875l-1.9375 0l0 -11.6875l1.9375 0l0 1.65625q0.578125 -0.890625 1.5625 -1.375q1.0 -0.5 2.203125 -0.5zm12.087555 12.09375q-1.34375 0 -2.421875 -0.453125q-1.0625 -0.453125 -1.6875 -1.28125q-0.609375 -0.828125 -0.671875 -1.890625l2.0 0q0.09375 0.875 0.828125 1.4375q0.734375 0.546875 1.9375 0.546875q1.109375 0 1.734375 -0.484375q0.640625 -0.5 0.640625 -1.234375q0 -0.78125 -0.6875 -1.140625q-0.671875 -0.375 -2.09375 -0.75q-1.3125 -0.328125 -2.140625 -0.671875q-0.8125 -0.359375 -1.40625 -1.046875q-0.578125 -0.703125 -0.578125 -1.828125q0 -0.90625 0.53125 -1.640625q0.53125 -0.75 1.515625 -1.1875q0.984375 -0.4375 2.25 -0.4375q1.9375 0 3.125 0.984375q1.203125 0.96875 1.28125 2.671875l-1.9375 0q-0.0625 -0.90625 -0.734375 -1.453125q-0.671875 -0.5625 -1.8125 -0.5625q-1.03125 0 -1.65625 0.453125q-0.625 0.4375 -0.625 1.171875q0 0.5625 0.375 0.9375q0.375 0.375 0.9375 0.609375q0.578125 0.21875 1.578125 0.5q1.25 0.328125 2.03125 0.671875q0.796875 0.328125 1.359375 0.984375q0.578125 0.65625 0.59375 1.734375q0 0.953125 -0.53125 1.71875q-0.53125 0.765625 -1.515625 1.203125q-0.96875 0.4375 -2.21875 0.4375zm6.2739563 -6.078125q0 -1.78125 0.71875 -3.140625q0.734375 -1.359375 2.0 -2.09375q1.265625 -0.75 2.828125 -0.75q1.53125 0 2.65625 0.65625q1.140625 0.65625 1.6875 1.65625l0 -2.125l1.96875 0l0 11.6875l-1.96875 0l0 -2.171875q-0.578125 1.015625 -1.71875 1.6875q-1.140625 0.671875 -2.65625 0.671875q-1.546875 0 -2.8125 -0.765625q-1.25 -0.765625 -1.984375 -2.140625q-0.71875 -1.390625 -0.71875 -3.171875zm9.890625 0.03125q0 -1.328125 -0.53125 -2.3125q-0.53125 -0.984375 -1.4375 -1.5q-0.90625 -0.515625 -2.0 -0.515625q-1.078125 0 -1.984375 0.515625q-0.890625 0.5 -1.421875 1.484375q-0.53125 0.984375 -0.53125 2.296875q0 1.34375 0.53125 2.34375q0.53125 0.984375 1.421875 1.515625q0.90625 0.515625 1.984375 0.515625q1.09375 0 2.0 -0.515625q0.90625 -0.53125 1.4375 -1.515625q0.53125 -1.0 0.53125 -2.3125zm4.527252 0q0 -1.8125 0.71875 -3.171875q0.734375 -1.359375 2.015625 -2.09375q1.296875 -0.75 2.953125 -0.75q2.15625 0 3.546875 1.046875q1.40625 1.03125 1.84375 2.890625l-2.078125 0q-0.296875 -1.0625 -1.171875 -1.671875q-0.859375 -0.625 -2.140625 -0.625q-1.65625 0 -2.6875 1.140625q-1.015625 1.140625 -1.015625 3.234375q0 2.109375 1.015625 3.265625q1.03125 1.140625 2.6875 1.140625q1.28125 0 2.125 -0.59375q0.859375 -0.59375 1.1875 -1.703125l2.078125 0q-0.46875 1.78125 -1.875 2.859375q-1.40625 1.078125 -3.515625 1.078125q-1.65625 0 -2.953125 -0.734375q-1.28125 -0.75 -2.015625 -2.109375q-0.71875 -1.375 -0.71875 -3.203125zm16.039978 -4.234375l0 6.890625q0 0.859375 0.359375 1.21875q0.359375 0.34375 1.25 0.34375l1.4375 0l0 1.640625l-1.75 0q-1.625 0 -2.4375 -0.75q-0.8125 -0.75 -0.8125 -2.453125l0 -6.890625l-1.515625 0l0 -1.59375l1.515625 0l0 -2.9375l1.953125 0l0 2.9375l3.046875 0l0 1.59375l-3.046875 0zm6.388489 -3.5q-0.546875 0 -0.9375 -0.375q-0.375 -0.390625 -0.375 -0.9375q0 -0.5625 0.375 -0.9375q0.390625 -0.390625 0.9375 -0.390625q0.53125 0 0.90625 0.390625q0.375 0.375 0.375 0.9375q0 0.546875 -0.375 0.9375q-0.375 0.375 -0.90625 0.375zm0.9375 1.90625l0 11.6875l-1.9375 0l0 -11.6875l1.9375 0zm8.402985 11.875q-1.640625 0 -2.96875 -0.734375q-1.328125 -0.75 -2.09375 -2.125q-0.75 -1.375 -0.75 -3.1875q0 -1.796875 0.765625 -3.171875q0.78125 -1.375 2.125 -2.109375q1.34375 -0.734375 3.015625 -0.734375q1.65625 0 3.0 0.734375q1.34375 0.734375 2.125 2.109375q0.78125 1.359375 0.78125 3.171875q0 1.8125 -0.796875 3.1875q-0.796875 1.375 -2.171875 2.125q-1.359375 0.734375 -3.03125 0.734375zm0 -1.703125q1.046875 0 1.96875 -0.484375q0.921875 -0.5 1.484375 -1.46875q0.5625 -0.984375 0.5625 -2.390625q0 -1.40625 -0.5625 -2.390625q-0.546875 -0.984375 -1.453125 -1.453125q-0.890625 -0.484375 -1.9375 -0.484375q-1.0625 0 -1.953125 0.484375q-0.875 0.46875 -1.40625 1.453125q-0.53125 0.984375 -0.53125 2.390625q0 1.421875 0.515625 2.40625q0.53125 0.984375 1.390625 1.46875q0.875 0.46875 1.921875 0.46875zm14.25943 -10.390625q2.125 0 3.4375 1.296875q1.328125 1.28125 1.328125 3.71875l0 6.890625l-1.921875 0l0 -6.609375q0 -1.75 -0.875 -2.671875q-0.859375 -0.9375 -2.375 -0.9375q-1.546875 0 -2.453125 0.96875q-0.90625 0.953125 -0.90625 2.78125l0 6.46875l-1.9375 0l0 -11.6875l1.9375 0l0 1.65625q0.578125 -0.890625 1.5625 -1.375q1.0 -0.5 2.203125 -0.5z" fill-rule="nonzero"/><path fill="#ffffff" d="m231.05408 170.54443q0 1.859375 -1.265625 3.09375q-1.265625 1.21875 -3.875 1.21875l-2.859375 0l0 6.203125l-1.9375 0l0 -14.859375l4.796875 0q2.515625 0 3.828125 1.21875q1.3125 1.203125 1.3125 3.125zm-5.140625 2.703125q1.625 0 2.390625 -0.703125q0.765625 -0.703125 0.765625 -2.0q0 -2.75 -3.15625 -2.75l-2.859375 0l0 5.453125l2.859375 0zm12.645905 8.0q-1.640625 0 -2.96875 -0.734375q-1.328125 -0.75 -2.09375 -2.125q-0.75 -1.375 -0.75 -3.1875q0 -1.796875 0.765625 -3.171875q0.78125 -1.375 2.125 -2.109375q1.34375 -0.734375 3.015625 -0.734375q1.65625 0 3.0 0.734375q1.34375 0.734375 2.125 2.109375q0.78125 1.359375 0.78125 3.171875q0 1.8125 -0.796875 3.1875q-0.796875 1.375 -2.171875 2.125q-1.359375 0.734375 -3.03125 0.734375zm0 -1.703125q1.046875 0 1.96875 -0.484375q0.921875 -0.5 1.484375 -1.46875q0.5625 -0.984375 0.5625 -2.390625q0 -1.40625 -0.5625 -2.390625q-0.546875 -0.984375 -1.453125 -1.453125q-0.890625 -0.484375 -1.9375 -0.484375q-1.0625 0 -1.953125 0.484375q-0.875 0.46875 -1.40625 1.453125q-0.53125 0.984375 -0.53125 2.390625q0 1.421875 0.515625 2.40625q0.53125 0.984375 1.390625 1.46875q0.875 0.46875 1.921875 0.46875zm13.650055 1.703125q-1.640625 0 -2.96875 -0.734375q-1.328125 -0.75 -2.09375 -2.125q-0.75 -1.375 -0.75 -3.1875q0 -1.796875 0.765625 -3.171875q0.78125 -1.375 2.125 -2.109375q1.34375 -0.734375 3.015625 -0.734375q1.65625 0 3.0 0.734375q1.34375 0.734375 2.125 2.109375q0.78125 1.359375 0.78125 3.171875q0 1.8125 -0.796875 3.1875q-0.796875 1.375 -2.171875 2.125q-1.359375 0.734375 -3.03125 0.734375zm0 -1.703125q1.046875 0 1.96875 -0.484375q0.921875 -0.5 1.484375 -1.46875q0.5625 -0.984375 0.5625 -2.390625q0 -1.40625 -0.5625 -2.390625q-0.546875 -0.984375 -1.453125 -1.453125q-0.890625 -0.484375 -1.9375 -0.484375q-1.0625 0 -1.953125 0.484375q-0.875 0.46875 -1.40625 1.453125q-0.53125 0.984375 -0.53125 2.390625q0 1.421875 0.515625 2.40625q0.53125 0.984375 1.390625 1.46875q0.875 0.46875 1.921875 0.46875zm10.493805 -14.265625l0 15.78125l-1.9375 0l0 -15.78125l1.9375 0z" fill-rule="nonzero"/><path fill="#000000" fill-opacity="0.0" d="m430.27036 131.01897l0 0c0 -16.305054 13.217834 -29.522903 29.522888 -29.522903l118.08804 0l0 0c7.829956 0 15.339233 3.1104355 20.875854 8.647057c5.536621 5.536621 8.647034 13.045883 8.647034 20.875847l0 371.72583c0 16.305054 -13.217834 29.522888 -29.522888 29.522888l-118.08804 0c-16.305054 0 -29.522888 -13.217834 -29.522888 -29.522888z" fill-rule="evenodd"/><path stroke="#8d3aed" stroke-width="3.0" stroke-linejoin="round" stroke-linecap="butt" d="m430.27036 131.01897l0 0c0 -16.305054 13.217834 -29.522903 29.522888 -29.522903l118.08804 0l0 0c7.829956 0 15.339233 3.1104355 20.875854 8.647057c5.536621 5.536621 8.647034 13.045883 8.647034 20.875847l0 371.72583c0 16.305054 -13.217834 29.522888 -29.522888 29.522888l-118.08804 0c-16.305054 0 -29.522888 -13.217834 -29.522888 -29.522888z" fill-rule="evenodd"/><path fill="#ffffff" d="m507.6178 295.845l0 15.796875l-2.0625 0l0 -7.15625l-8.03125 0l0 7.15625l-2.0625 0l0 -15.796875l2.0625 0l0 6.9375l8.03125 0l0 -6.9375l2.0625 0zm8.928101 16.0q-1.734375 0 -3.15625 -0.78125q-1.4219055 -0.796875 -2.2344055 -2.25q-0.796875 -1.46875 -0.796875 -3.40625q0 -1.90625 0.828125 -3.359375q0.8281555 -1.46875 2.2500305 -2.25q1.4375 -0.78125 3.203125 -0.78125q1.765625 0 3.1875 0.78125q1.4375 0.78125 2.265625 2.234375q0.828125 1.453125 0.828125 3.375q0 1.9375 -0.859375 3.40625q-0.84375 1.453125 -2.296875 2.25q-1.453125 0.78125 -3.21875 0.78125zm0 -1.8125q1.109375 0 2.078125 -0.515625q0.984375 -0.53125 1.578125 -1.5625q0.609375 -1.046875 0.609375 -2.546875q0 -1.484375 -0.59375 -2.53125q-0.59375 -1.046875 -1.546875 -1.546875q-0.9375 -0.515625 -2.046875 -0.515625q-1.140625 0 -2.078125 0.515625q-0.9375 0.5 -1.515625 1.546875q-0.5625 1.046875 -0.5625 2.53125q0 1.515625 0.546875 2.5625q0.5625 1.046875 1.484375 1.5625q0.9375 0.5 2.046875 0.5zm13.484314 1.8125q-1.421875 0 -2.5625 -0.484375q-1.125 -0.484375 -1.796875 -1.359375q-0.65625 -0.875 -0.71875 -2.0l2.125 0q0.09375 0.921875 0.875 1.515625q0.78125 0.578125 2.046875 0.578125q1.1875 0 1.859375 -0.515625q0.6875 -0.515625 0.6875 -1.3125q0 -0.8125 -0.734375 -1.203125q-0.71875 -0.40625 -2.234375 -0.796875q-1.390625 -0.359375 -2.265625 -0.734375q-0.859375 -0.375 -1.484375 -1.109375q-0.625 -0.734375 -0.625 -1.9375q0 -0.953125 0.5625 -1.734375q0.578125 -0.796875 1.609375 -1.265625q1.046875 -0.46875 2.390625 -0.46875q2.046875 0 3.3125 1.046875q1.28125 1.046875 1.375 2.859375l-2.0625 0q-0.078125 -0.984375 -0.796875 -1.5625q-0.703125 -0.59375 -1.90625 -0.59375q-1.109375 0 -1.765625 0.484375q-0.65625 0.46875 -0.65625 1.234375q0 0.609375 0.390625 1.015625q0.40625 0.390625 1.0 0.640625q0.609375 0.234375 1.671875 0.515625q1.328125 0.375 2.171875 0.734375q0.84375 0.34375 1.4375 1.046875q0.59375 0.6875 0.625 1.828125q0 1.015625 -0.578125 1.84375q-0.5625 0.8125 -1.59375 1.28125q-1.03125 0.453125 -2.359375 0.453125zm9.951538 -10.921875l0 7.328125q0 0.90625 0.375 1.28125q0.390625 0.359375 1.34375 0.359375l1.515625 0l0 1.75l-1.859375 0q-1.71875 0 -2.578125 -0.78125q-0.859375 -0.796875 -0.859375 -2.609375l0 -7.328125l-1.609375 0l0 -1.703125l1.609375 0l0 -3.125l2.0625 0l0 3.125l3.234375 0l0 1.703125l-3.234375 0z" fill-rule="nonzero"/><path fill="#ffffff" d="m475.10028 322.845l0 1.6875l-6.859375 0l0 5.3125l5.5625 0l0 1.6875l-5.5625 0l0 7.109375l-2.0625 0l0 -15.796875l8.921875 0zm13.496857 3.375l0 12.421875l-2.0625 0l0 -1.828125q-0.578125 0.9375 -1.640625 1.484375q-1.046875 0.53125 -2.3125 0.53125q-1.453125 0 -2.609375 -0.59375q-1.15625 -0.609375 -1.828125 -1.8125q-0.671875 -1.203125 -0.671875 -2.921875l0 -7.28125l2.046875 0l0 7.0q0 1.84375 0.921875 2.828125q0.9375 0.984375 2.546875 0.984375q1.65625 0 2.59375 -1.015625q0.953125 -1.015625 0.953125 -2.96875l0 -6.828125l2.0625 0zm9.5468445 -0.21875q2.265625 0 3.671875 1.375q1.40625 1.359375 1.40625 3.953125l0 7.3125l-2.046875 0l0 -7.015625q0 -1.859375 -0.9375 -2.84375q-0.921875 -1.0 -2.53125 -1.0q-1.625 0 -2.59375 1.03125q-0.953125 1.015625 -0.953125 2.96875l0 6.859375l-2.0625 0l0 -12.421875l2.0625 0l0 1.78125q0.609375 -0.953125 1.65625 -1.46875q1.0625 -0.53125 2.328125 -0.53125zm7.6718445 6.40625q0 -1.921875 0.765625 -3.359375q0.78125 -1.4375 2.140625 -2.234375q1.375 -0.796875 3.140625 -0.796875q2.2968445 0 3.7812195 1.109375q1.484375 1.109375 1.953125 3.09375l-2.21875 0q-0.3125 -1.140625 -1.234375 -1.796875q-0.921875 -0.65625 -2.2812195 -0.65625q-1.765625 0 -2.859375 1.21875q-1.078125 1.203125 -1.078125 3.421875q0 2.25 1.078125 3.46875q1.09375 1.21875 2.859375 1.21875q1.3593445 0 2.2655945 -0.625q0.90625 -0.640625 1.25 -1.8125l2.21875 0q-0.5 1.90625 -2.0 3.046875q-1.484375 1.140625 -3.7343445 1.140625q-1.765625 0 -3.140625 -0.78125q-1.359375 -0.796875 -2.140625 -2.25q-0.765625 -1.453125 -0.765625 -3.40625zm17.049164 -4.484375l0 7.328125q0 0.90625 0.375 1.28125q0.390625 0.359375 1.34375 0.359375l1.515625 0l0 1.75l-1.859375 0q-1.71875 0 -2.578125 -0.78125q-0.859375 -0.796875 -0.859375 -2.609375l0 -7.328125l-1.609375 0l0 -1.703125l1.609375 0l0 -3.125l2.0625 0l0 3.125l3.234375 0l0 1.703125l-3.234375 0zm6.793762 -3.71875q-0.59375 0 -1.0 -0.40625q-0.40625 -0.40625 -0.40625 -1.0q0 -0.578125 0.40625 -0.984375q0.40625 -0.40625 1.0 -0.40625q0.5625 0 0.953125 0.40625q0.40625 0.40625 0.40625 0.984375q0 0.59375 -0.40625 1.0q-0.390625 0.40625 -0.953125 0.40625zm1.0 2.015625l0 12.421875l-2.0625 0l0 -12.421875l2.0625 0zm8.917175 12.625q-1.734375 0 -3.15625 -0.78125q-1.421875 -0.796875 -2.234375 -2.25q-0.796875 -1.46875 -0.796875 -3.40625q0 -1.90625 0.828125 -3.359375q0.828125 -1.46875 2.25 -2.25q1.4375 -0.78125 3.203125 -0.78125q1.765625 0 3.1875 0.78125q1.4375 0.78125 2.265625 2.234375q0.828125 1.453125 0.828125 3.375q0 1.9375 -0.859375 3.40625q-0.84375 1.453125 -2.296875 2.25q-1.453125 0.78125 -3.21875 0.78125zm0 -1.8125q1.109375 0 2.078125 -0.515625q0.984375 -0.53125 1.578125 -1.5625q0.609375 -1.046875 0.609375 -2.546875q0 -1.484375 -0.59375 -2.53125q-0.59375 -1.046875 -1.546875 -1.546875q-0.9375 -0.515625 -2.046875 -0.515625q-1.140625 0 -2.078125 0.515625q-0.9375 0.5 -1.515625 1.546875q-0.5625 1.046875 -0.5625 2.53125q0 1.515625 0.546875 2.5625q0.5625 1.046875 1.484375 1.5625q0.9375 0.5 2.046875 0.5zm15.140564 -11.03125q2.265625 0 3.671875 1.375q1.40625 1.359375 1.40625 3.953125l0 7.3125l-2.046875 0l0 -7.015625q0 -1.859375 -0.9375 -2.84375q-0.921875 -1.0 -2.53125 -1.0q-1.625 0 -2.59375 1.03125q-0.953125 1.015625 -0.953125 2.96875l0 6.859375l-2.0625 0l0 -12.421875l2.0625 0l0 1.78125q0.609375 -0.953125 1.65625 -1.46875q1.0625 -0.53125 2.328125 -0.53125zm12.84375 12.84375q-1.421875 0 -2.5625 -0.484375q-1.125 -0.484375 -1.796875 -1.359375q-0.65625 -0.875 -0.71875 -2.0l2.125 0q0.09375 0.921875 0.875 1.515625q0.78125 0.578125 2.046875 0.578125q1.1875 0 1.859375 -0.515625q0.6875 -0.515625 0.6875 -1.3125q0 -0.8125 -0.734375 -1.203125q-0.71875 -0.40625 -2.234375 -0.796875q-1.390625 -0.359375 -2.265625 -0.734375q-0.859375 -0.375 -1.484375 -1.109375q-0.625 -0.734375 -0.625 -1.9375q0 -0.953125 0.5625 -1.734375q0.578125 -0.796875 1.609375 -1.265625q1.046875 -0.46875 2.390625 -0.46875q2.046875 0 3.3125 1.046875q1.28125 1.046875 1.375 2.859375l-2.0625 0q-0.078125 -0.984375 -0.796875 -1.5625q-0.703125 -0.59375 -1.90625 -0.59375q-1.109375 0 -1.765625 0.484375q-0.65625 0.46875 -0.65625 1.234375q0 0.609375 0.390625 1.015625q0.40625 0.390625 1.0 0.640625q0.609375 0.234375 1.671875 0.515625q1.328125 0.375 2.171875 0.734375q0.84375 0.34375 1.4375 1.046875q0.59375 0.6875 0.625 1.828125q0 1.015625 -0.578125 1.84375q-0.5625 0.8125 -1.59375 1.28125q-1.03125 0.453125 -2.359375 0.453125z" fill-rule="nonzero"/><path fill="#000000" fill-opacity="0.0" d="m152.1916 282.55154l0 0c0 -10.036987 8.136597 -18.173584 18.173584 -18.173584l151.14888 0c4.8199463 0 9.442474 1.9147034 12.8506775 5.3229065c3.4082031 3.4082031 5.3229065 8.030731 5.3229065 12.8506775l0 72.6922c0 10.036987 -8.136597 18.173584 -18.173584 18.173584l-151.14888 0c-10.036987 0 -18.173584 -8.136597 -18.173584 -18.173584z" fill-rule="evenodd"/><path stroke="#8d3aed" stroke-width="3.0" stroke-linejoin="round" stroke-linecap="butt" d="m152.1916 282.55154l0 0c0 -10.036987 8.136597 -18.173584 18.173584 -18.173584l151.14888 0c4.8199463 0 9.442474 1.9147034 12.8506775 5.3229065c3.4082031 3.4082031 5.3229065 8.030731 5.3229065 12.8506775l0 72.6922c0 10.036987 -8.136597 18.173584 -18.173584 18.173584l-151.14888 0c-10.036987 0 -18.173584 -8.136597 -18.173584 -18.173584z" fill-rule="evenodd"/><path fill="#ffffff" d="m184.20619 319.017q0.859375 0.140625 1.5625 0.71875q0.71875 0.5625 1.140625 1.40625q0.421875 0.828125 0.421875 1.78125q0 1.203125 -0.625 2.171875q-0.609375 0.953125 -1.78125 1.515625q-1.15625 0.546875 -2.734375 0.546875l-5.890625 0l0 -15.796875l5.65625 0q1.609375 0 2.734375 0.546875q1.140625 0.53125 1.703125 1.4375q0.578125 0.90625 0.578125 2.03125q0 1.40625 -0.765625 2.328125q-0.765625 0.90625 -2.0 1.3125zm-5.84375 -0.828125l3.453125 0q1.453125 0 2.25 -0.671875q0.796875 -0.6875 0.796875 -1.890625q0 -1.203125 -0.796875 -1.875q-0.796875 -0.6875 -2.28125 -0.6875l-3.421875 0l0 5.125zm3.640625 7.265625q1.546875 0 2.40625 -0.71875q0.859375 -0.734375 0.859375 -2.015625q0 -1.3125 -0.90625 -2.0625q-0.90625 -0.765625 -2.421875 -0.765625l-3.578125 0l0 5.5625l3.640625 0zm10.24762 -15.0625l0 16.765625l-2.0625 0l0 -16.765625l2.0625 0zm8.917175 16.96875q-1.734375 0 -3.15625 -0.78125q-1.421875 -0.796875 -2.234375 -2.25q-0.796875 -1.46875 -0.796875 -3.40625q0 -1.90625 0.828125 -3.359375q0.828125 -1.46875 2.25 -2.25q1.4375 -0.78125 3.203125 -0.78125q1.765625 0 3.1875 0.78125q1.4375 0.78125 2.265625 2.234375q0.828125 1.453125 0.828125 3.375q0 1.9375 -0.859375 3.40625q-0.84375 1.453125 -2.296875 2.25q-1.453125 0.78125 -3.21875 0.78125zm0 -1.8125q1.109375 0 2.078125 -0.515625q0.984375 -0.53125 1.578125 -1.5625q0.609375 -1.046875 0.609375 -2.546875q0 -1.484375 -0.59375 -2.53125q-0.59375 -1.046875 -1.546875 -1.546875q-0.9375 -0.515625 -2.046875 -0.515625q-1.140625 0 -2.078125 0.515625q-0.9375 0.5 -1.515625 1.546875q-0.5625 1.046875 -0.5625 2.53125q0 1.515625 0.546875 2.5625q0.5625 1.046875 1.484375 1.5625q0.9375 0.5 2.046875 0.5zm8.3124695 -4.625q0 -1.921875 0.765625 -3.359375q0.78125 -1.4375 2.140625 -2.234375q1.375 -0.796875 3.140625 -0.796875q2.296875 0 3.78125 1.109375q1.484375 1.109375 1.953125 3.09375l-2.21875 0q-0.3125 -1.140625 -1.234375 -1.796875q-0.921875 -0.65625 -2.28125 -0.65625q-1.765625 0 -2.859375 1.21875q-1.078125 1.203125 -1.078125 3.421875q0 2.25 1.078125 3.46875q1.09375 1.21875 2.859375 1.21875q1.359375 0 2.265625 -0.625q0.90625 -0.640625 1.25 -1.8125l2.21875 0q-0.5 1.90625 -2.0 3.046875q-1.484375 1.140625 -3.734375 1.140625q-1.765625 0 -3.140625 -0.78125q-1.359375 -0.796875 -2.140625 -2.25q-0.765625 -1.453125 -0.765625 -3.40625zm21.455444 6.234375l-4.859375 -5.484375l0 5.484375l-2.0625 0l0 -16.765625l2.0625 0l0 9.859375l4.78125 -5.515625l2.875 0l-5.84375 6.1875l5.859375 6.234375l-2.8125 0zm18.701523 -8.140625q0.859375 0.140625 1.5625 0.71875q0.71875 0.5625 1.140625 1.40625q0.421875 0.828125 0.421875 1.78125q0 1.203125 -0.625 2.171875q-0.609375 0.953125 -1.78125 1.515625q-1.15625 0.546875 -2.734375 0.546875l-5.890625 0l0 -15.796875l5.65625 0q1.609375 0 2.734375 0.546875q1.140625 0.53125 1.703125 1.4375q0.578125 0.90625 0.578125 2.03125q0 1.40625 -0.765625 2.328125q-0.765625 0.90625 -2.0 1.3125zm-5.84375 -0.828125l3.453125 0q1.453125 0 2.25 -0.671875q0.796875 -0.6875 0.796875 -1.890625q0 -1.203125 -0.796875 -1.875q-0.796875 -0.6875 -2.28125 -0.6875l-3.421875 0l0 5.125zm3.640625 7.265625q1.546875 0 2.40625 -0.71875q0.859375 -0.734375 0.859375 -2.015625q0 -1.3125 -0.90625 -2.0625q-0.90625 -0.765625 -2.421875 -0.765625l-3.578125 0l0 5.5625l3.640625 0zm19.18512 -10.71875l0 12.421875l-2.0625 0l0 -1.828125q-0.578125 0.9375 -1.640625 1.484375q-1.046875 0.53125 -2.3125 0.53125q-1.453125 0 -2.609375 -0.59375q-1.15625 -0.609375 -1.828125 -1.8125q-0.671875 -1.203125 -0.671875 -2.921875l0 -7.28125l2.046875 0l0 7.0q0 1.84375 0.921875 2.828125q0.9375 0.984375 2.546875 0.984375q1.65625 0 2.59375 -1.015625q0.953125 -1.015625 0.953125 -2.96875l0 -6.828125l2.0625 0zm4.5624695 -2.015625q-0.59375 0 -1.0 -0.40625q-0.40625 -0.40625 -0.40625 -1.0q0 -0.578125 0.40625 -0.984375q0.40625 -0.40625 1.0 -0.40625q0.5625 0 0.953125 0.40625q0.40625 0.40625 0.40625 0.984375q0 0.59375 -0.40625 1.0q-0.390625 0.40625 -0.953125 0.40625zm1.0 2.015625l0 12.421875l-2.0625 0l0 -12.421875l2.0625 0zm5.5734253 -4.34375l0 16.765625l-2.0625 0l0 -16.765625l2.0625 0zm2.7296753 10.515625q0 -1.90625 0.765625 -3.34375q0.78125 -1.4375 2.125 -2.234375q1.34375 -0.796875 3.03125 -0.796875q1.453125 0 2.6875 0.671875q1.25 0.671875 1.90625 1.765625l0 -6.578125l2.09375 0l0 16.765625l-2.09375 0l0 -2.328125q-0.609375 1.109375 -1.8125 1.828125q-1.203125 0.703125 -2.8125 0.703125q-1.65625 0 -3.0 -0.8125q-1.34375 -0.8125 -2.125 -2.28125q-0.765625 -1.484375 -0.765625 -3.359375zm10.515625 0.015625q0 -1.40625 -0.5625 -2.4375q-0.5625 -1.046875 -1.53125 -1.59375q-0.96875 -0.5625 -2.125 -0.5625q-1.15625 0 -2.109375 0.546875q-0.9375 0.546875 -1.515625 1.59375q-0.5625 1.03125 -0.5625 2.4375q0 1.421875 0.5625 2.484375q0.578125 1.046875 1.515625 1.609375q0.953125 0.546875 2.109375 0.546875q1.15625 0 2.125 -0.546875q0.96875 -0.5625 1.53125 -1.609375q0.5625 -1.0625 0.5625 -2.46875zm16.909363 -0.453125q0 0.59375 -0.078125 1.25l-9.921875 0q0.109375 1.828125 1.25 2.859375q1.15625 1.03125 2.78125 1.03125q1.34375 0 2.234375 -0.609375q0.890625 -0.625 1.265625 -1.671875l2.21875 0q-0.5 1.796875 -2.0 2.921875q-1.5 1.109375 -3.71875 1.109375q-1.765625 0 -3.15625 -0.78125q-1.390625 -0.796875 -2.1875 -2.25q-0.796875 -1.46875 -0.796875 -3.40625q0 -1.921875 0.765625 -3.375q0.78125 -1.453125 2.171875 -2.234375q1.390625 -0.78125 3.203125 -0.78125q1.765625 0 3.125 0.78125q1.359375 0.765625 2.09375 2.125q0.75 1.34375 0.75 3.03125zm-2.140625 -0.421875q0 -1.1875 -0.515625 -2.03125q-0.515625 -0.84375 -1.421875 -1.28125q-0.890625 -0.453125 -1.984375 -0.453125q-1.5625 0 -2.65625 1.0q-1.09375 1.0 -1.25 2.765625l7.828125 0zm6.9218445 -3.296875q0.53125 -1.0625 1.53125 -1.640625q1.015625 -0.59375 2.46875 -0.59375l0 2.125l-0.546875 0q-3.453125 0 -3.453125 3.765625l0 6.75l-2.0625 0l0 -12.421875l2.0625 0l0 2.015625z" fill-rule="nonzero"/><path fill="#24cc85" d="m649.776 29.08118l554.48816 0l0 42.01575l-554.48816 0z" fill-rule="evenodd"/><path stroke="#24cc85" stroke-width="1.0" stroke-linejoin="round" stroke-linecap="butt" d="m649.776 29.08118l554.48816 0l0 42.01575l-554.48816 0z" fill-rule="evenodd"/><path fill="#ffffff" d="m896.6083 56.00118l-3.09375 -5.3125l-2.046875 0l0 5.3125l-1.703125 0l0 -13.0l4.203125 0q1.46875 0 2.484375 0.5q1.015625 0.5 1.515625 1.359375q0.515625 0.859375 0.515625 1.96875q0 1.34375 -0.78125 2.375q-0.78125 1.015625 -2.328125 1.34375l3.265625 5.453125l-2.03125 0zm-5.140625 -6.671875l2.5 0q1.375 0 2.0625 -0.6875q0.6875 -0.6875 0.6875 -1.8125q0 -1.15625 -0.6875 -1.796875q-0.671875 -0.640625 -2.0625 -0.640625l-2.5 0l0 4.9375zm18.702332 -3.546875l0 10.21875l-1.6875 0l0 -1.515625q-0.484375 0.78125 -1.359375 1.234375q-0.875 0.4375 -1.90625 0.4375q-1.203125 0 -2.15625 -0.5q-0.953125 -0.5 -1.5 -1.484375q-0.546875 -0.984375 -0.546875 -2.40625l0 -5.984375l1.671875 0l0 5.765625q0 1.5 0.765625 2.3125q0.765625 0.8125 2.09375 0.8125q1.359375 0 2.140625 -0.828125q0.796875 -0.84375 0.796875 -2.453125l0 -5.609375l1.6875 0zm7.8618774 -0.1875q1.859375 0 3.015625 1.125q1.15625 1.125 1.15625 3.25l0 6.03125l-1.671875 0l0 -5.78125q0 -1.53125 -0.765625 -2.34375q-0.765625 -0.8125 -2.09375 -0.8125q-1.34375 0 -2.140625 0.84375q-0.78125 0.84375 -0.78125 2.4375l0 5.65625l-1.703125 0l0 -10.21875l1.703125 0l0 1.453125q0.5 -0.78125 1.359375 -1.203125q0.875 -0.4375 1.921875 -0.4375zm9.018127 1.578125l0 6.03125q0 0.75 0.3125 1.0625q0.328125 0.296875 1.109375 0.296875l1.25 0l0 1.4375l-1.53125 0q-1.40625 0 -2.125 -0.65625q-0.703125 -0.65625 -0.703125 -2.140625l0 -6.03125l-1.328125 0l0 -1.390625l1.328125 0l0 -2.578125l1.6875 0l0 2.578125l2.671875 0l0 1.390625l-2.671875 0zm5.6033936 -3.0625q-0.484375 0 -0.828125 -0.328125q-0.328125 -0.34375 -0.328125 -0.828125q0 -0.484375 0.328125 -0.8125q0.34375 -0.34375 0.828125 -0.34375q0.46875 0 0.796875 0.34375q0.328125 0.328125 0.328125 0.8125q0 0.484375 -0.328125 0.828125q-0.328125 0.328125 -0.796875 0.328125zm0.828125 1.671875l0 10.21875l-1.703125 0l0 -10.21875l1.703125 0zm15.1831665 -0.1875q1.1875 0 2.125 0.5q0.9375 0.484375 1.46875 1.484375q0.546875 0.984375 0.546875 2.390625l0 6.03125l-1.6875 0l0 -5.78125q0 -1.53125 -0.75 -2.34375q-0.75 -0.8125 -2.046875 -0.8125q-1.3125 0 -2.109375 0.859375q-0.78125 0.84375 -0.78125 2.4375l0 5.640625l-1.671875 0l0 -5.78125q0 -1.53125 -0.765625 -2.34375q-0.75 -0.8125 -2.03125 -0.8125q-1.328125 0 -2.109375 0.859375q-0.78125 0.84375 -0.78125 2.4375l0 5.640625l-1.703125 0l0 -10.21875l1.703125 0l0 1.46875q0.5 -0.796875 1.34375 -1.21875q0.84375 -0.4375 1.875 -0.4375q1.296875 0 2.28125 0.578125q0.984375 0.578125 1.46875 1.6875q0.4375 -1.078125 1.421875 -1.671875q0.984375 -0.59375 2.203125 -0.59375zm16.247192 4.90625q0 0.484375 -0.0625 1.015625l-8.171875 0q0.09375 1.515625 1.03125 2.375q0.953125 0.84375 2.296875 0.84375q1.09375 0 1.828125 -0.515625q0.75 -0.515625 1.046875 -1.375l1.828125 0q-0.40625 1.484375 -1.640625 2.40625q-1.234375 0.921875 -3.0625 0.921875q-1.453125 0 -2.609375 -0.65625q-1.140625 -0.65625 -1.796875 -1.859375q-0.65625 -1.203125 -0.65625 -2.78125q0 -1.59375 0.640625 -2.78125q0.640625 -1.203125 1.78125 -1.84375q1.140625 -0.640625 2.640625 -0.640625q1.453125 0 2.5625 0.640625q1.125 0.625 1.734375 1.734375q0.609375 1.109375 0.609375 2.515625zm-1.75 -0.359375q0 -0.96875 -0.4375 -1.671875q-0.421875 -0.703125 -1.171875 -1.0625q-0.734375 -0.359375 -1.625 -0.359375q-1.28125 0 -2.1875 0.828125q-0.90625 0.8125 -1.03125 2.265625l6.453125 0z" fill-rule="nonzero"/><path fill="#000000" fill-opacity="0.0" d="m823.67194 163.73091l0 0c0 -34.390198 27.878723 -62.268967 62.26892 -62.268967l249.06842 0l0 0c16.51477 0 32.35315 6.5604553 44.03076 18.238152c11.677734 11.677696 18.23816 27.51606 18.23816 44.030815l0 310.2652c0 34.390198 -27.878784 62.26895 -62.26892 62.26895l-249.06842 0c-34.390198 0 -62.26892 -27.878754 -62.26892 -62.26895z" fill-rule="evenodd"/><path stroke="#24cc85" stroke-width="3.0" stroke-linejoin="round" stroke-linecap="butt" d="m823.67194 163.73091l0 0c0 -34.390198 27.878723 -62.268967 62.26892 -62.268967l249.06842 0l0 0c16.51477 0 32.35315 6.5604553 44.03076 18.238152c11.677734 11.677696 18.23816 27.51606 18.23816 44.030815l0 310.2652c0 34.390198 -27.878784 62.26895 -62.26892 62.26895l-249.06842 0c-34.390198 0 -62.26892 -27.878754 -62.26892 -62.26895z" fill-rule="evenodd"/><path fill="#ffffff" d="m907.8968 285.32977l-8.171875 15.625l0 9.46875l-3.28125 0l0 -9.46875l-8.203125 -15.625l3.625 0l6.203125 12.703125l6.1875 -12.703125l3.640625 0zm12.055237 25.421875q-2.765625 0 -5.015625 -1.265625q-2.25 -1.265625 -3.53125 -3.578125q-1.28125 -2.328125 -1.28125 -5.390625q0 -3.015625 1.3125 -5.328125q1.3125 -2.328125 3.578125 -3.5625q2.28125 -1.25 5.078125 -1.25q2.8125 0 5.078125 1.25q2.265625 1.234375 3.578125 3.546875q1.3125 2.296875 1.3125 5.34375q0 3.0625 -1.34375 5.390625q-1.34375 2.3125 -3.65625 3.578125q-2.296875 1.265625 -5.109375 1.265625zm0 -2.890625q1.765625 0 3.3125 -0.828125q1.546875 -0.828125 2.5 -2.484375q0.953125 -1.65625 0.953125 -4.03125q0 -2.375 -0.9375 -4.03125q-0.9375 -1.65625 -2.453125 -2.453125q-1.5 -0.8125 -3.265625 -0.8125q-1.796875 0 -3.296875 0.8125q-1.484375 0.796875 -2.390625 2.453125q-0.90625 1.65625 -0.90625 4.03125q0 2.421875 0.875 4.078125q0.890625 1.65625 2.359375 2.46875q1.484375 0.796875 3.25 0.796875zm31.930664 -17.171875l0 19.734375l-3.28125 0l0 -2.921875q-0.921875 1.515625 -2.609375 2.359375q-1.671875 0.84375 -3.6875 0.84375q-2.296875 0 -4.140625 -0.953125q-1.828125 -0.953125 -2.890625 -2.859375q-1.0625 -1.90625 -1.0625 -4.640625l0 -11.5625l3.234375 0l0 11.125q0 2.921875 1.46875 4.484375q1.484375 1.5625 4.046875 1.5625q2.625 0 4.125 -1.609375q1.515625 -1.625 1.515625 -4.71875l0 -10.84375l3.28125 0zm8.821228 3.203125q0.859375 -1.6875 2.453125 -2.625q1.609375 -0.9375 3.921875 -0.9375l0 3.390625l-0.859375 0q-5.515625 0 -5.515625 5.96875l0 10.734375l-3.28125 0l0 -19.734375l3.28125 0l0 3.203125zm32.336914 3.609375q1.359375 0.21875 2.484375 1.125q1.140625 0.890625 1.796875 2.21875q0.671875 1.328125 0.671875 2.84375q0 1.90625 -0.96875 3.4375q-0.96875 1.53125 -2.828125 2.421875q-1.84375 0.875 -4.375 0.875l-9.359375 0l0 -25.09375l9.0 0q2.5625 0 4.359375 0.84375q1.796875 0.84375 2.703125 2.296875q0.90625 1.4375 0.90625 3.234375q0 2.234375 -1.21875 3.6875q-1.203125 1.453125 -3.171875 2.109375zm-9.296875 -1.328125l5.515625 0q2.296875 0 3.546875 -1.078125q1.265625 -1.09375 1.265625 -3.0q0 -1.90625 -1.265625 -2.984375q-1.25 -1.078125 -3.625 -1.078125l-5.4375 0l0 8.140625zm5.796875 11.546875q2.453125 0 3.8125 -1.140625q1.375 -1.15625 1.375 -3.21875q0 -2.078125 -1.453125 -3.28125q-1.4375 -1.21875 -3.84375 -1.21875l-5.6875 0l0 8.859375l5.796875 0zm30.489868 -17.03125l0 19.734375l-3.28125 0l0 -2.921875q-0.921875 1.515625 -2.609375 2.359375q-1.671875 0.84375 -3.6875 0.84375q-2.296875 0 -4.140625 -0.953125q-1.828125 -0.953125 -2.890625 -2.859375q-1.0625 -1.90625 -1.0625 -4.640625l0 -11.5625l3.234375 0l0 11.125q0 2.921875 1.46875 4.484375q1.484375 1.5625 4.046875 1.5625q2.625 0 4.125 -1.609375q1.515625 -1.625 1.515625 -4.71875l0 -10.84375l3.28125 0zm12.524353 20.0625q-2.265625 0 -4.0625 -0.765625q-1.796875 -0.78125 -2.84375 -2.171875q-1.046875 -1.390625 -1.15625 -3.1875l3.390625 0q0.140625 1.484375 1.375 2.421875q1.25 0.921875 3.265625 0.921875q1.875 0 2.953125 -0.828125q1.078125 -0.828125 1.078125 -2.078125q0 -1.296875 -1.15625 -1.921875q-1.140625 -0.640625 -3.5625 -1.25q-2.1875 -0.578125 -3.578125 -1.171875q-1.390625 -0.59375 -2.375 -1.765625q-0.984375 -1.171875 -0.984375 -3.078125q0 -1.515625 0.890625 -2.765625q0.90625 -1.265625 2.5625 -2.0q1.65625 -0.734375 3.78125 -0.734375q3.265625 0 5.28125 1.65625q2.015625 1.65625 2.171875 4.53125l-3.28125 0q-0.109375 -1.546875 -1.25 -2.484375q-1.125 -0.9375 -3.03125 -0.9375q-1.765625 0 -2.8125 0.765625q-1.046875 0.75 -1.046875 1.96875q0 0.96875 0.625 1.609375q0.640625 0.625 1.59375 1.0q0.953125 0.375 2.640625 0.84375q2.125 0.578125 3.453125 1.140625q1.34375 0.5625 2.296875 1.6875q0.953125 1.109375 0.984375 2.90625q0 1.609375 -0.90625 2.90625q-0.890625 1.296875 -2.53125 2.046875q-1.640625 0.734375 -3.765625 0.734375zm13.510742 -23.265625q-0.9375 0 -1.59375 -0.640625q-0.640625 -0.65625 -0.640625 -1.578125q0 -0.9375 0.640625 -1.578125q0.65625 -0.65625 1.59375 -0.65625q0.890625 0 1.515625 0.65625q0.640625 0.640625 0.640625 1.578125q0 0.921875 -0.640625 1.578125q-0.625 0.640625 -1.515625 0.640625zm1.578125 3.203125l0 19.734375l-3.28125 0l0 -19.734375l3.28125 0zm15.199829 -0.359375q3.59375 0 5.828125 2.1875q2.234375 2.171875 2.234375 6.28125l0 11.625l-3.25 0l0 -11.15625q0 -2.953125 -1.484375 -4.515625q-1.46875 -1.578125 -4.015625 -1.578125q-2.59375 0 -4.125 1.625q-1.53125 1.625 -1.53125 4.71875l0 10.90625l-3.28125 0l0 -19.734375l3.28125 0l0 2.8125q0.96875 -1.515625 2.640625 -2.34375q1.6875 -0.828125 3.703125 -0.828125zm31.414917 9.46875q0 0.9375 -0.109375 1.984375l-15.765625 0q0.1875 2.921875 2.0 4.5625q1.828125 1.625 4.40625 1.625q2.125 0 3.546875 -0.984375q1.421875 -0.984375 2.0 -2.640625l3.53125 0q-0.796875 2.84375 -3.171875 4.625q-2.375 1.78125 -5.90625 1.78125q-2.796875 0 -5.015625 -1.265625q-2.21875 -1.265625 -3.484375 -3.578125q-1.25 -2.328125 -1.25 -5.390625q0 -3.046875 1.21875 -5.34375q1.234375 -2.3125 3.4375 -3.546875q2.21875 -1.25 5.09375 -1.25q2.8125 0 4.96875 1.21875q2.171875 1.21875 3.328125 3.375q1.171875 2.140625 1.171875 4.828125zm-3.375 -0.671875q0 -1.875 -0.828125 -3.21875q-0.828125 -1.359375 -2.25 -2.0625q-1.421875 -0.703125 -3.15625 -0.703125q-2.484375 0 -4.234375 1.59375q-1.734375 1.578125 -1.984375 4.390625l12.453125 0zm14.679443 11.625q-2.265625 0 -4.0625 -0.765625q-1.796875 -0.78125 -2.84375 -2.171875q-1.046875 -1.390625 -1.15625 -3.1875l3.390625 0q0.140625 1.484375 1.375 2.421875q1.25 0.921875 3.265625 0.921875q1.875 0 2.953125 -0.828125q1.078125 -0.828125 1.078125 -2.078125q0 -1.296875 -1.15625 -1.921875q-1.140625 -0.640625 -3.5625 -1.25q-2.1875 -0.578125 -3.578125 -1.171875q-1.390625 -0.59375 -2.375 -1.765625q-0.984375 -1.171875 -0.984375 -3.078125q0 -1.515625 0.890625 -2.765625q0.90625 -1.265625 2.5625 -2.0q1.65625 -0.734375 3.78125 -0.734375q3.265625 0 5.28125 1.65625q2.015625 1.65625 2.171875 4.53125l-3.28125 0q-0.109375 -1.546875 -1.25 -2.484375q-1.125 -0.9375 -3.03125 -0.9375q-1.765625 0 -2.8125 0.765625q-1.046875 0.75 -1.046875 1.96875q0 0.96875 0.625 1.609375q0.640625 0.625 1.59375 1.0q0.953125 0.375 2.640625 0.84375q2.125 0.578125 3.453125 1.140625q1.34375 0.5625 2.296875 1.6875q0.953125 1.109375 0.984375 2.90625q0 1.609375 -0.90625 2.90625q-0.890625 1.296875 -2.53125 2.046875q-1.640625 0.734375 -3.765625 0.734375zm18.791992 0q-2.265625 0 -4.0625 -0.765625q-1.796875 -0.78125 -2.84375 -2.171875q-1.046875 -1.390625 -1.15625 -3.1875l3.390625 0q0.140625 1.484375 1.375 2.421875q1.25 0.921875 3.265625 0.921875q1.875 0 2.953125 -0.828125q1.078125 -0.828125 1.078125 -2.078125q0 -1.296875 -1.15625 -1.921875q-1.140625 -0.640625 -3.5625 -1.25q-2.1875 -0.578125 -3.578125 -1.171875q-1.390625 -0.59375 -2.375 -1.765625q-0.984375 -1.171875 -0.984375 -3.078125q0 -1.515625 0.890625 -2.765625q0.90625 -1.265625 2.5625 -2.0q1.65625 -0.734375 3.78125 -0.734375q3.265625 0 5.28125 1.65625q2.015625 1.65625 2.171875 4.53125l-3.28125 0q-0.109375 -1.546875 -1.25 -2.484375q-1.125 -0.9375 -3.03125 -0.9375q-1.765625 0 -2.8125 0.765625q-1.046875 0.75 -1.046875 1.96875q0 0.96875 0.625 1.609375q0.640625 0.625 1.59375 1.0q0.953125 0.375 2.640625 0.84375q2.125 0.578125 3.453125 1.140625q1.34375 0.5625 2.296875 1.6875q0.953125 1.109375 0.984375 2.90625q0 1.609375 -0.90625 2.90625q-0.890625 1.296875 -2.53125 2.046875q-1.640625 0.734375 -3.765625 0.734375z" fill-rule="nonzero"/><path fill="#ffffff" d="m969.7039 350.76727l8.78125 0l0 2.65625l-12.0625 0l0 -25.09375l3.28125 0l0 22.4375zm20.880127 2.984375q-2.765625 0 -5.015625 -1.265625q-2.25 -1.265625 -3.53125 -3.578125q-1.28125 -2.328125 -1.28125 -5.390625q0 -3.015625 1.3125 -5.328125q1.3125 -2.328125 3.578125 -3.5625q2.28125 -1.25 5.078125 -1.25q2.8125 0 5.078125 1.25q2.265625 1.234375 3.578125 3.546875q1.3125 2.296875 1.3125 5.34375q0 3.0625 -1.34375 5.390625q-1.34375 2.3125 -3.65625 3.578125q-2.296875 1.265625 -5.109375 1.265625zm0 -2.890625q1.765625 0 3.3125 -0.828125q1.546875 -0.828125 2.5 -2.484375q0.953125 -1.65625 0.953125 -4.03125q0 -2.375 -0.9375 -4.03125q-0.9375 -1.65625 -2.453125 -2.453125q-1.5 -0.8125 -3.265625 -0.8125q-1.796875 0 -3.296875 0.8125q-1.484375 0.796875 -2.390625 2.453125q-0.90625 1.65625 -0.90625 4.03125q0 2.421875 0.875 4.078125q0.890625 1.65625 2.359375 2.46875q1.484375 0.796875 3.25 0.796875zm22.57129 -17.484375q2.5625 0 4.484375 1.125q1.921875 1.109375 2.859375 2.796875l0 -3.609375l3.3125 0l0 20.171875q0 2.6875 -1.15625 4.796875q-1.140625 2.109375 -3.296875 3.296875q-2.140625 1.1875 -4.984375 1.1875q-3.875 0 -6.46875 -1.84375q-2.59375 -1.828125 -3.0625 -5.0l3.234375 0q0.546875 1.8125 2.234375 2.90625q1.6875 1.09375 4.0625 1.09375q2.703125 0 4.40625 -1.703125q1.71875 -1.6875 1.71875 -4.734375l0 -4.140625q-0.96875 1.71875 -2.875 2.875q-1.90625 1.15625 -4.46875 1.15625q-2.625 0 -4.765625 -1.296875q-2.140625 -1.296875 -3.375 -3.640625q-1.21875 -2.34375 -1.21875 -5.328125q0 -3.015625 1.21875 -5.296875q1.234375 -2.296875 3.375 -3.546875q2.140625 -1.265625 4.765625 -1.265625zm7.34375 10.140625q0 -2.21875 -0.90625 -3.875q-0.890625 -1.65625 -2.421875 -2.53125q-1.53125 -0.890625 -3.359375 -0.890625q-1.84375 0 -3.359375 0.859375q-1.5 0.859375 -2.40625 2.515625q-0.90625 1.65625 -0.90625 3.890625q0 2.265625 0.90625 3.953125q0.90625 1.671875 2.40625 2.546875q1.515625 0.875 3.359375 0.875q1.828125 0 3.359375 -0.875q1.53125 -0.875 2.421875 -2.546875q0.90625 -1.6875 0.90625 -3.921875zm10.554749 -13.03125q-0.9375 0 -1.59375 -0.640625q-0.640625 -0.65625 -0.640625 -1.578125q0 -0.9375 0.640625 -1.578125q0.65625 -0.65625 1.59375 -0.65625q0.890625 0 1.515625 0.65625q0.640625 0.640625 0.640625 1.578125q0 0.921875 -0.640625 1.578125q-0.625 0.640625 -1.515625 0.640625zm1.578125 3.203125l0 19.734375l-3.28125 0l0 -19.734375l3.28125 0zm4.355957 9.828125q0 -3.046875 1.21875 -5.328125q1.234375 -2.296875 3.40625 -3.546875q2.1875 -1.265625 4.984375 -1.265625q3.640625 0 6.0 1.765625q2.359375 1.75 3.109375 4.890625l-3.53125 0q-0.5 -1.796875 -1.96875 -2.84375q-1.453125 -1.046875 -3.609375 -1.046875q-2.796875 0 -4.53125 1.9375q-1.734375 1.921875 -1.734375 5.4375q0 3.5625 1.734375 5.515625q1.734375 1.9375 4.53125 1.9375q2.15625 0 3.59375 -1.0q1.453125 -1.015625 1.984375 -2.890625l3.53125 0q-0.796875 3.03125 -3.171875 4.859375q-2.375 1.8125 -5.9375 1.8125q-2.796875 0 -4.984375 -1.265625q-2.171875 -1.265625 -3.40625 -3.5625q-1.21875 -2.296875 -1.21875 -5.40625z" fill-rule="nonzero"/><path fill="#000000" fill-opacity="0.0" d="m659.70074 123.748474l0 0c0 -12.289665 9.9627075 -22.25241 22.25238 -22.25241l89.00702 0l0 0c5.9016724 0 11.561707 2.3444443 15.734802 6.517578c4.1731567 4.1731415 6.517578 9.83313 6.517578 15.734833l0 390.29834c0 12.289673 -9.9627075 22.25238 -22.25238 22.25238l-89.00702 0c-12.289673 0 -22.25238 -9.9627075 -22.25238 -22.25238z" fill-rule="evenodd"/><path stroke="#24cc85" stroke-width="3.0" stroke-linejoin="round" stroke-linecap="butt" d="m659.70074 123.748474l0 0c0 -12.289665 9.9627075 -22.25241 22.25238 -22.25241l89.00702 0l0 0c5.9016724 0 11.561707 2.3444443 15.734802 6.517578c4.1731567 4.1731415 6.517578 9.83313 6.517578 15.734833l0 390.29834c0 12.289673 -9.9627075 22.25238 -22.25238 22.25238l-89.00702 0c-12.289673 0 -22.25238 -9.9627075 -22.25238 -22.25238z" fill-rule="evenodd"/><path fill="#ffffff" d="m691.6907 313.37762l-3.546875 -6.078125l-2.34375 0l0 6.078125l-1.9375 0l0 -14.859375l4.796875 0q1.6875 0 2.84375 0.578125q1.171875 0.5625 1.75 1.546875q0.578125 0.984375 0.578125 2.234375q0 1.546875 -0.890625 2.71875q-0.890625 1.171875 -2.65625 1.546875l3.734375 6.234375l-2.328125 0zm-5.890625 -7.640625l2.859375 0q1.578125 0 2.359375 -0.765625q0.796875 -0.78125 0.796875 -2.09375q0 -1.3125 -0.78125 -2.03125q-0.765625 -0.734375 -2.375 -0.734375l-2.859375 0l0 5.625zm21.389404 -4.046875l0 11.6875l-1.9375 0l0 -1.734375q-0.546875 0.90625 -1.546875 1.40625q-0.984375 0.5 -2.1875 0.5q-1.359375 0 -2.453125 -0.5625q-1.078125 -0.5625 -1.71875 -1.6875q-0.625 -1.140625 -0.625 -2.765625l0 -6.84375l1.921875 0l0 6.59375q0 1.71875 0.875 2.65625q0.875 0.921875 2.390625 0.921875q1.5625 0 2.453125 -0.953125q0.890625 -0.96875 0.890625 -2.796875l0 -6.421875l1.9375 0zm8.993835 -0.21875q2.125 0 3.4375 1.296875q1.328125 1.28125 1.328125 3.71875l0 6.890625l-1.921875 0l0 -6.609375q0 -1.75 -0.875 -2.671875q-0.859375 -0.9375 -2.375 -0.9375q-1.546875 0 -2.453125 0.96875q-0.90625 0.953125 -0.90625 2.78125l0 6.46875l-1.9375 0l0 -11.6875l1.9375 0l0 1.65625q0.578125 -0.890625 1.5625 -1.375q1.0 -0.5 2.203125 -0.5zm10.321899 1.8125l0 6.890625q0 0.859375 0.359375 1.21875q0.359375 0.34375 1.25 0.34375l1.4375 0l0 1.640625l-1.75 0q-1.625 0 -2.4375 -0.75q-0.8125 -0.75 -0.8125 -2.453125l0 -6.890625l-1.515625 0l0 -1.59375l1.515625 0l0 -2.9375l1.953125 0l0 2.9375l3.046875 0l0 1.59375l-3.046875 0zm6.388489 -3.5q-0.546875 0 -0.9375 -0.375q-0.375 -0.390625 -0.375 -0.9375q0 -0.5625 0.375 -0.9375q0.390625 -0.390625 0.9375 -0.390625q0.53125 0 0.90625 0.390625q0.375 0.375 0.375 0.9375q0 0.546875 -0.375 0.9375q-0.375 0.375 -0.90625 0.375zm0.9375 1.90625l0 11.6875l-1.9375 0l0 -11.6875l1.9375 0zm17.371765 -0.21875q1.359375 0 2.421875 0.578125q1.078125 0.5625 1.6875 1.6875q0.625 1.125 0.625 2.75l0 6.890625l-1.921875 0l0 -6.609375q0 -1.75 -0.875 -2.671875q-0.859375 -0.9375 -2.328125 -0.9375q-1.515625 0 -2.421875 0.96875q-0.890625 0.96875 -0.890625 2.8125l0 6.4375l-1.90625 0l0 -6.609375q0 -1.75 -0.875 -2.671875q-0.859375 -0.9375 -2.328125 -0.9375q-1.515625 0 -2.421875 0.96875q-0.890625 0.96875 -0.890625 2.8125l0 6.4375l-1.9375 0l0 -11.6875l1.9375 0l0 1.6875q0.578125 -0.921875 1.546875 -1.40625q0.96875 -0.5 2.140625 -0.5q1.484375 0 2.609375 0.671875q1.125 0.65625 1.6875 1.9375q0.484375 -1.234375 1.609375 -1.921875q1.140625 -0.6875 2.53125 -0.6875zm18.577393 5.609375q0 0.5625 -0.0625 1.171875l-9.34375 0q0.09375 1.734375 1.171875 2.703125q1.078125 0.96875 2.625 0.96875q1.25 0 2.09375 -0.578125q0.84375 -0.59375 1.1875 -1.578125l2.09375 0q-0.46875 1.6875 -1.890625 2.75q-1.40625 1.046875 -3.484375 1.046875q-1.671875 0 -2.984375 -0.734375q-1.3125 -0.75 -2.0625 -2.125q-0.734375 -1.375 -0.734375 -3.1875q0 -1.8125 0.71875 -3.171875q0.734375 -1.375 2.03125 -2.109375q1.3125 -0.734375 3.03125 -0.734375q1.65625 0 2.9375 0.734375q1.28125 0.71875 1.96875 1.984375q0.703125 1.265625 0.703125 2.859375zm-2.015625 -0.40625q0 -1.109375 -0.484375 -1.90625q-0.484375 -0.796875 -1.328125 -1.203125q-0.84375 -0.421875 -1.875 -0.421875q-1.46875 0 -2.5 0.9375q-1.03125 0.9375 -1.1875 2.59375l7.375 0z" fill-rule="nonzero"/><path fill="#ffffff" d="m720.893 336.06512l-6.46875 0l-1.203125 3.3125l-2.046875 0l5.375 -14.78125l2.234375 0l5.359375 14.78125l-2.046875 0l-1.203125 -3.3125zm-0.546875 -1.578125l-2.6875 -7.5l-2.6875 7.5l5.375 0zm16.07837 -5.625q0 1.859375 -1.265625 3.09375q-1.265625 1.21875 -3.875 1.21875l-2.859375 0l0 6.203125l-1.9375 0l0 -14.859375l4.796875 0q2.515625 0 3.828125 1.21875q1.3125 1.203125 1.3125 3.125zm-5.140625 2.703125q1.625 0 2.390625 -0.703125q0.765625 -0.703125 0.765625 -2.0q0 -2.75 -3.15625 -2.75l-2.859375 0l0 5.453125l2.859375 0zm9.489624 -7.046875l0 14.859375l-1.9375 0l0 -14.859375l1.9375 0z" fill-rule="nonzero"/></g></svg>