<?xml version="1.0" encoding="UTF-8" standalone="no"?>
<svg
   width="1545"
   height="866"
   viewBox="0 0 1545 866"
   fill="none"
   version="1.1"
   id="svg6968"
   sodipodi:docname="bs-erasure-encoding-data-layout-2.svg"
   inkscape:version="1.2.1 (9c6d41e410, 2022-07-14)"
   xmlns:inkscape="http://www.inkscape.org/namespaces/inkscape"
   xmlns:sodipodi="http://sodipodi.sourceforge.net/DTD/sodipodi-0.dtd"
   xmlns:xlink="http://www.w3.org/1999/xlink"
   xmlns="http://www.w3.org/2000/svg"
   xmlns:svg="http://www.w3.org/2000/svg">
  <defs
     id="defs6972">
    <rect
       x="1289.9934"
       y="519.05557"
       width="529.40411"
       height="101.98059"
       id="rect13323" />
    <pattern
       inkscape:collect="always"
       xlink:href="#Strips1_1"
       id="pattern12073"
       patternTransform="matrix(10,0,0,10,-1225.4652,-563.2821)" />
    <pattern
       inkscape:collect="always"
       patternUnits="userSpaceOnUse"
       width="2"
       height="1"
       patternTransform="translate(0,0) scale(10,10)"
       id="Strips1_1"
       inkscape:stockid="Stripes 1:1"
       inkscape:isstock="true">
      <rect
         style="fill:black;stroke:none"
         x="0"
         y="-0.5"
         width="1"
         height="2"
         id="rect10991" />
    </pattern>
    <pattern
       patternUnits="userSpaceOnUse"
       width="77"
       height="77"
       patternTransform="translate(1225.4652,563.2821)"
       id="pattern12070">
      <rect
         x="0"
         y="0"
         width="77"
         height="77"
         rx="10"
         fill="#8d3aed"
         id="rect9741-2"
         style="fill:url(#pattern12073);fill-opacity:1" />
    </pattern>
  </defs>
  <sodipodi:namedview
     id="namedview6970"
     pagecolor="#505050"
     bordercolor="#eeeeee"
     borderopacity="1"
     inkscape:showpageshadow="0"
     inkscape:pageopacity="0"
     inkscape:pagecheckerboard="0"
     inkscape:deskcolor="#505050"
     showgrid="false"
     inkscape:zoom="0.88516383"
     inkscape:cx="747.88415"
     inkscape:cy="510.07507"
     inkscape:window-width="2560"
     inkscape:window-height="1363"
     inkscape:window-x="0"
     inkscape:window-y="0"
     inkscape:window-maximized="1"
     inkscape:current-layer="svg6968"
     showguides="true">
    <sodipodi:guide
       position="374.48046,304.97215"
       orientation="0,-1"
       id="guide13054"
       inkscape:locked="false" />
  </sodipodi:namedview>
  <rect
     x="529"
     width="77"
     height="77"
     rx="10"
     fill="#8D3AED"
     id="rect6896" />
  <rect
     x="622"
     width="77"
     height="77"
     rx="10"
     fill="#8D3AED"
     id="rect6902" />
  <path
     d="m 669.8137,264.35576 c -0.75676,0.33668 -1.09713,1.22394 -0.76046,1.9807 l 5.4909,12.33297 c 0.33667,0.75676 1.22262,1.09767 1.97976,0.76009 0.75677,-0.33669 1.09675,-1.22302 0.7601,-1.97977 l -4.87947,-10.96293 10.96239,-4.88078 c 0.75675,-0.33668 1.09767,-1.22263 0.76009,-1.97976 -0.33668,-0.75677 -1.223,-1.09676 -1.97977,-0.76009 z m 118.18403,-59.35524 c -21.92494,53.1018 -74.02069,75.84023 -117.03566,59.32524 l -1.07653,2.80116 c 44.76692,17.1875 98.43848,-6.61617 120.88511,-60.9815 z"
     fill="#8d3aed"
     id="path6958" />
  <text
     xml:space="preserve"
     style="font-style:normal;font-weight:normal;font-size:40px;line-height:1.25;font-family:sans-serif;fill:#000000;fill-opacity:1;stroke:none"
     x="14.494835"
     y="49.861732"
     id="text7051"><tspan
       sodipodi:role="line"
       id="tspan7049"
       x="14.494835"
       y="49.861732">original payload in field elements</tspan></text>
  <text
     xml:space="preserve"
     style="font-style:normal;font-weight:normal;font-size:40px;line-height:1.25;font-family:sans-serif;fill:#000000;fill-opacity:1;stroke:none"
     x="840.29663"
     y="253.19913"
     id="text8125"><tspan
       sodipodi:role="line"
       id="tspan8123"
       x="840.29663"
       y="253.19913">Apply efficient transformation 2^2^z</tspan></text>
  <rect
     x="384.52792"
     y="133.09712"
     width="77"
     height="77"
     rx="10"
     fill="#8d3aed"
     id="rect9737"
     style="fill:#666666" />
  <rect
     x="385.17215"
     y="231.73706"
     width="77"
     height="77"
     rx="10"
     fill="#8d3aed"
     id="rect9739"
     style="fill:#666666" />
  <rect
     x="385.28238"
     y="326.08313"
     width="77"
     height="77"
     rx="10"
     fill="#8d3aed"
     id="rect9741"
     style="fill:#666666;fill-opacity:1" />
  <rect
     x="387.72711"
     y="417.73724"
     width="77"
     height="77"
     rx="10"
     fill="#8d3aed"
     id="rect9743"
     style="fill:#666666;fill-opacity:1" />
  <rect
     x="387.60339"
     y="605.78949"
     width="77"
     height="77"
     rx="10"
     fill="#8d3aed"
     id="rect9745"
     style="fill:#666666;fill-opacity:1" />
  <rect
     x="388.35367"
     y="511.65964"
     width="77"
     height="77"
     rx="10"
     fill="#8d3aed"
     id="rect9749"
     style="fill:#666666;fill-opacity:1" />
  <path
     style="fill:none;stroke:#000000;stroke-width:0.780127px;stroke-linecap:butt;stroke-linejoin:miter;stroke-opacity:1"
     d="m 371.10032,697.62338 c -32.1088,1.7561 2.00423,76.48255 -34.68131,76.92706 47.12255,10.7322 8.80907,80.28461 37.80566,79.48555"
     id="path13056"
     sodipodi:nodetypes="ccc" />
  <text
     xml:space="preserve"
     style="font-style:normal;font-weight:normal;font-size:40px;line-height:1.25;font-family:sans-serif;fill:#000000;fill-opacity:1;stroke:none"
     x="122.77039"
     y="784.01361"
     id="text13078"><tspan
       sodipodi:role="line"
       id="tspan13076"
       x="122.77039"
       y="784.01361">Discarded</tspan></text>
  <text
     xml:space="preserve"
     id="text13321"
     style="font-style:normal;font-weight:normal;font-size:40px;line-height:1.25;font-family:sans-serif;white-space:pre;shape-inside:url(#rect13323);display:inline;fill:#000000;fill-opacity:1;stroke:none" />
  <rect
     x="715.02844"
     width="77"
     height="77"
     rx="10"
     fill="#8d3aed"
     id="rect6896-9"
     y="0.90831298" />
  <rect
     x="808.02844"
     width="77"
     height="77"
     rx="10"
     fill="#8d3aed"
     id="rect6902-2"
     y="0.90831298" />
  <rect
     x="898.01898"
     width="77"
     height="77"
     rx="10"
     fill="#8d3aed"
     id="rect6896-9-2"
     y="1.0053983" />
  <rect
     x="991.01898"
     width="77"
     height="77"
     rx="10"
     fill="#8d3aed"
     id="rect6902-2-8"
     y="1.0053983" />
  <path
     style="fill:none;stroke:#000000;stroke-width:0.834398px;stroke-linecap:butt;stroke-linejoin:miter;stroke-opacity:1"
     d="m 713.63406,93.559201 c 1.59119,32.141729 87.54806,0.371474 87.5787,37.046129 12.89531,-46.757645 91.98758,-6.31071 91.45102,-35.312569"
     id="path13056-9"
     sodipodi:nodetypes="ccc" />
  <text
     xml:space="preserve"
     style="font-style:normal;font-weight:normal;font-size:40px;line-height:1.25;font-family:sans-serif;fill:#000000;fill-opacity:1;stroke:none"
     x="692.88776"
     y="174.70296"
     id="text13078-7"><tspan
       sodipodi:role="line"
       id="tspan13076-3"
       x="692.88776"
       y="174.70296">Segment into Shards</tspan></text>
  <text
     xml:space="preserve"
     style="font-style:normal;font-weight:normal;font-size:40px;line-height:1.25;font-family:sans-serif;fill:#000000;fill-opacity:1;stroke:none"
     x="50.440872"
     y="172.85378"
     id="text15096"><tspan
       sodipodi:role="line"
       id="tspan15094"
       x="50.440872"
       y="172.85378">validator idx 0</tspan></text>
  <text
     xml:space="preserve"
     style="font-style:normal;font-weight:normal;font-size:40px;line-height:1.25;font-family:sans-serif;fill:#000000;fill-opacity:1;stroke:none"
     x="51.197838"
     y="288.17065"
     id="text15096-1"><tspan
       sodipodi:role="line"
       id="tspan15094-2"
       x="51.197838"
       y="288.17065">validator idx 1</tspan></text>
  <text
     xml:space="preserve"
     style="font-style:normal;font-weight:normal;font-size:40px;line-height:1.25;font-family:sans-serif;fill:#000000;fill-opacity:1;stroke:none"
     x="50.330166"
     y="656.56555"
     id="text15096-1-9"><tspan
       sodipodi:role="line"
       id="tspan15094-2-3"
       x="50.330166"
       y="656.56555">validator idx n-1</tspan></text>
  <rect
     x="488.52792"
     y="133.09712"
     width="77"
     height="77"
     rx="10"
     fill="#8d3aed"
     id="rect15308" />
  <rect
     x="489.17215"
     y="231.73706"
     width="77"
     height="77"
     rx="10"
     fill="#8d3aed"
     id="rect15310" />
  <rect
     x="489.28238"
     y="326.08313"
     width="77"
     height="77"
     rx="10"
     fill="#8d3aed"
     id="rect15312"
     style="fill:#3eb6d4;fill-opacity:1" />
  <rect
     x="491.72711"
     y="417.73724"
     width="77"
     height="77"
     rx="10"
     fill="#8d3aed"
     id="rect15314"
     style="fill:#3eb6d4;fill-opacity:1" />
  <rect
     x="491.60339"
     y="605.78949"
     width="77"
     height="77"
     rx="10"
     fill="#8d3aed"
     id="rect15316"
     style="fill:#3eb6d4;fill-opacity:1" />
  <rect
     x="492.35367"
     y="511.65964"
     width="77"
     height="77"
     rx="10"
     fill="#8d3aed"
     id="rect15318"
     style="fill:#3eb6d4;fill-opacity:1" />
  <rect
     x="491.59531"
     y="697.81763"
     width="77"
     height="77"
     rx="10"
     fill="#3eb6d4"
     id="rect15320"
     style="fill:#cfe68d;fill-opacity:1" />
  <rect
     x="490.46555"
     y="786.06482"
     width="77"
     height="77"
     rx="10"
     fill="#3eb6d4"
     id="rect15322"
     style="fill:#cfe68d;fill-opacity:1" />
  <path
     id="path15324"
     style="fill:#8d3aed"
     d="m 498.98711,323.20478 h 57 c 5.54,0 10,4.46 10,10 v 57 c 0,5.54 -4.46,10 -10,10 -19.25428,-24.48497 -39.33475,-44.93317 -67,-67 0,-5.54 4.46,-10 10,-10 z"
     sodipodi:nodetypes="ssssccs" />
</svg>
