<svg version="1.1" viewBox="0.0 0.0 439.01049868766404 382.96587926509187" fill="none" stroke="none" stroke-linecap="square" stroke-miterlimit="10" xmlns:xlink="http://www.w3.org/1999/xlink" xmlns="http://www.w3.org/2000/svg"><clipPath id="p.0"><path d="m0 0l439.0105 0l0 382.96588l-439.0105 0l0 -382.96588z" clip-rule="nonzero"/></clipPath><g clip-path="url(#p.0)"><path fill="#000000" fill-opacity="0.0" d="m0 0l439.0105 0l0 382.96588l-439.0105 0z" fill-rule="evenodd"/><path fill="#434343" d="m69.50633 217.58595c0 -76.467514 61.989166 -138.4567 138.4567 -138.4567c36.720993 0 71.938 14.587357 97.90367 40.553024c25.965668 25.96566 40.55301 61.18267 40.55301 97.90366c0 76.467514 -61.989166 138.45668 -138.45668 138.45668c-76.46753 0 -138.4567 -61.989166 -138.4567 -138.45668z" fill-rule="evenodd"/><path stroke="#000000" stroke-width="1.0" stroke-linejoin="round" stroke-linecap="butt" d="m69.50633 217.58595c0 -76.467514 61.989166 -138.4567 138.4567 -138.4567c36.720993 0 71.938 14.587357 97.90367 40.553024c25.965668 25.96566 40.55301 61.18267 40.55301 97.90366c0 76.467514 -61.989166 138.45668 -138.45668 138.45668c-76.46753 0 -138.4567 -61.989166 -138.4567 -138.45668z" fill-rule="evenodd"/><path fill="#000000" fill-opacity="0.0" d="m45.330475 11.541335l369.22836 0l0 61.543304l-369.22836 0z" fill-rule="evenodd"/><path fill="#ffffff" d="m130.34004 38.461334l0 -12.312502l4.390625 0q2.171875 0 3.171875 0.921875q1.015625 0.90625 1.015625 2.46875q0 0.9375 -0.546875 1.703125q-0.53125 0.75 -1.515625 0.9531269l0 0.015625q1.09375 0.203125 1.734375 1.0q0.640625 0.796875 0.640625 1.796875q0 1.5625 -1.171875 2.515625q-1.171875 0.9375 -3.359375 0.9375l-4.359375 0zm1.484375 -1.40625l3.234375 0q1.328125 0 1.96875 -0.53125q0.640625 -0.546875 0.640625 -1.515625q0 -0.984375 -0.640625 -1.515625q-0.640625 -0.53125 -1.96875 -0.53125l-3.234375 0l0 4.09375zm0 -5.500002l2.921875 0q2.609375 0 2.609375 -2.015625q0 -1.984375 -2.609375 -1.984375l-2.921875 0l0 4.0zm11.838791 -6.71875l0 11.250002q0 0.71875 0.25 0.984375q0.265625 0.265625 0.84375 0.265625q0.375 0 0.609375 -0.046875q0.25 -0.0625 0.65625 -0.203125l-0.234375 1.296875q-0.296875 0.140625 -0.65625 0.203125q-0.359375 0.0625 -0.71875 0.0625q-1.140625 0 -1.703125 -0.609375q-0.546875 -0.625 -0.546875 -1.890625l0 -11.312502l1.5 0zm8.146317 4.109375q1.328125 0 2.34375 0.578125q1.015625 0.578125 1.59375 1.671875q0.578125 1.0937519 0.578125 2.593752q0 1.515625 -0.578125 2.609375q-0.578125 1.09375 -1.59375 1.671875q-1.015625 0.578125 -2.34375 0.578125q-1.296875 0 -2.328125 -0.578125q-1.03125 -0.578125 -1.609375 -1.671875q-0.578125 -1.09375 -0.578125 -2.609375q0 -1.5 0.578125 -2.593752q0.578125 -1.09375 1.609375 -1.671875q1.03125 -0.578125 2.328125 -0.578125zm0 1.28125q-0.953125 0 -1.625 0.4375q-0.671875 0.421875 -1.03125 1.21875q-0.359375 0.7968769 -0.359375 1.9062519q0 1.109375 0.359375 1.921875q0.359375 0.796875 1.03125 1.234375q0.671875 0.421875 1.625 0.421875q0.953125 0 1.625 -0.421875q0.671875 -0.4375 1.03125 -1.234375q0.375 -0.8125 0.375 -1.921875q0 -1.109375 -0.375 -1.9062519q-0.359375 -0.796875 -1.03125 -1.21875q-0.671875 -0.4375 -1.625 -0.4375zm11.193756 -1.28125q0.96875 0 1.703125 0.296875q0.75 0.296875 1.28125 0.859375q0.546875 0.5625 0.875 1.328125l-1.40625 0.6718769q-0.296875 -0.8906269 -0.90625 -1.3593769q-0.609375 -0.484375 -1.578125 -0.484375q-0.9375 0 -1.609375 0.421875q-0.671875 0.40625 -1.03125 1.203125q-0.34375 0.7968769 -0.34375 1.9062519q0 1.109375 0.34375 1.921875q0.359375 0.796875 1.03125 1.21875q0.671875 0.40625 1.609375 0.40625q0.71875 0 1.25 -0.21875q0.53125 -0.21875 0.875 -0.640625q0.359375 -0.4375 0.484375 -1.0625l1.375 0.484375q-0.3125 0.859375 -0.859375 1.484375q-0.546875 0.609375 -1.328125 0.9375q-0.78125 0.328125 -1.765625 0.328125q-1.296875 0 -2.328125 -0.578125q-1.03125 -0.578125 -1.609375 -1.671875q-0.578125 -1.09375 -0.578125 -2.609375q0 -1.5 0.578125 -2.593752q0.578125 -1.09375 1.609375 -1.671875q1.03125 -0.578125 2.328125 -0.578125zm14.7756195 0.1875l-4.03125 4.031252l-0.34375 0.359375l-3.0624847 3.046875l0 -1.859375l5.5624847 -5.578127l1.875 0zm-6.6874847 -4.296875l0 13.625002l-1.5 0l0 -13.625002l1.5 0zm2.7968597 7.562502l4.125 6.0625l-1.8125 0l-3.5624847 -5.21875l1.2499847 -0.84375zm9.804596 -3.453127q0.96875 0 1.703125 0.296875q0.75 0.296875 1.28125 0.859375q0.546875 0.5625 0.875 1.328125l-1.40625 0.6718769q-0.296875 -0.8906269 -0.90625 -1.3593769q-0.609375 -0.484375 -1.578125 -0.484375q-0.9375 0 -1.609375 0.421875q-0.671875 0.40625 -1.03125 1.203125q-0.34375 0.7968769 -0.34375 1.9062519q0 1.109375 0.34375 1.921875q0.359375 0.796875 1.03125 1.21875q0.671875 0.40625 1.609375 0.40625q0.71875 0 1.25 -0.21875q0.53125 -0.21875 0.875 -0.640625q0.359375 -0.4375 0.484375 -1.0625l1.375 0.484375q-0.3125 0.859375 -0.859375 1.484375q-0.546875 0.609375 -1.328125 0.9375q-0.78125 0.328125 -1.765625 0.328125q-1.296875 0 -2.328125 -0.578125q-1.03125 -0.578125 -1.609375 -1.671875q-0.578125 -1.09375 -0.578125 -2.609375q0 -1.5 0.578125 -2.593752q0.578125 -1.09375 1.609375 -1.671875q1.03125 -0.578125 2.328125 -0.578125zm6.588135 9.515627l0 -13.625002l1.5 0l0 5.703125q0.484375 -0.84375 1.28125 -1.21875q0.796875 -0.375 1.75 -0.375q1.015625 0 1.828125 0.390625q0.828125 0.375 1.3125 1.15625q0.5 0.78125 0.5 2.000002l0 5.96875l-1.5 0l0 -5.453125q0 -1.5468769 -0.65625 -2.140627q-0.65625 -0.609375 -1.625 -0.609375q-0.671875 0 -1.34375 0.3125q-0.671875 0.3125 -1.109375 1.03125q-0.4375 0.7187519 -0.4375 1.9218769l0 4.9375l-1.5 0zm17.001343 -6.03125q0 -1.0468769 -0.5625 -1.6093769q-0.5625 -0.5625 -1.59375 -0.5625q-0.96875 0 -1.640625 0.421875q-0.671875 0.40625 -0.984375 1.3437519l-1.21875 -0.7500019q0.375 -1.046875 1.375 -1.6875q1.015625 -0.640625 2.515625 -0.640625q1.0 0 1.8125 0.34375q0.828125 0.34375 1.296875 1.046875q0.484375 0.703125 0.484375 1.7968769l0 4.515625q0 0.671875 0.71875 0.671875q0.34375 0 0.6875 -0.09375l-0.078125 1.171875q-0.375 0.1875 -0.96875 0.1875q-0.546875 0 -0.984375 -0.203125q-0.421875 -0.203125 -0.671875 -0.625q-0.234375 -0.421875 -0.234375 -1.046875l0 -0.1875l0.375 0.046875q-0.21875 0.734375 -0.765625 1.1875q-0.53125 0.453125 -1.203125 0.671875q-0.671875 0.21875 -1.328125 0.21875q-0.828125 0 -1.53125 -0.28125q-0.703125 -0.28125 -1.125 -0.84375q-0.421875 -0.578125 -0.421875 -1.40625q0 -1.046875 0.6875 -1.71875q0.703125 -0.6875 1.953125 -0.9375l3.703125 -0.734375l0 1.234375l-3.0 0.625q-0.921875 0.1875 -1.375 0.53125q-0.4375 0.328125 -0.4375 0.921875q0 0.578125 0.453125 0.9375q0.453125 0.359375 1.296875 0.359375q0.546875 0 1.03125 -0.140625q0.5 -0.140625 0.890625 -0.421875q0.390625 -0.296875 0.609375 -0.734375q0.234375 -0.4375 0.234375 -1.03125l0 -2.578125zm5.8563232 -5.093752q-0.5 0 -0.8125 -0.296875q-0.3125 -0.3125 -0.3125 -0.8125q0 -0.515625 0.3125 -0.8125q0.3125 -0.3125 0.8125 -0.3125q0.5 0 0.796875 0.3125q0.3125 0.296875 0.3125 0.8125q0 0.5 -0.3125 0.8125q-0.296875 0.296875 -0.796875 0.296875zm0.75 1.796875l0 9.328127l-1.5 0l0 -9.328127l1.5 0zm3.462555 9.328127l0 -9.328127l1.3125 0l0.125 2.09375l-0.25 -0.203125q0.3125 -0.75 0.8125 -1.203125q0.5 -0.46875 1.15625 -0.671875q0.671875 -0.203125 1.375 -0.203125q1.015625 0 1.828125 0.390625q0.828125 0.375 1.3125 1.15625q0.5 0.78125 0.5 2.000002l0 5.96875l-1.5 0l0 -5.453125q0 -1.5468769 -0.65625 -2.140627q-0.65625 -0.609375 -1.625 -0.609375q-0.671875 0 -1.34375 0.3125q-0.671875 0.3125 -1.109375 1.03125q-0.4375 0.7031269 -0.4375 1.8906269l0 4.96875l-1.5 0zm18.191254 0l0 -12.312502l8.640625 0l0 1.40625l-7.15625 0l0 3.96875l5.5625 0l0 1.3906269l-5.5625 0l0 4.140625l7.4375 0l0 1.40625l-8.921875 0zm15.12616 -9.515627q0.96875 0 1.703125 0.296875q0.75 0.296875 1.28125 0.859375q0.546875 0.5625 0.875 1.328125l-1.40625 0.6718769q-0.296875 -0.8906269 -0.90625 -1.3593769q-0.609375 -0.484375 -1.578125 -0.484375q-0.9375 0 -1.609375 0.421875q-0.671875 0.40625 -1.03125 1.203125q-0.34375 0.7968769 -0.34375 1.9062519q0 1.109375 0.34375 1.921875q0.359375 0.796875 1.03125 1.21875q0.671875 0.40625 1.609375 0.40625q0.71875 0 1.25 -0.21875q0.53125 -0.21875 0.875 -0.640625q0.359375 -0.4375 0.484375 -1.0625l1.375 0.484375q-0.3125 0.859375 -0.859375 1.484375q-0.546875 0.609375 -1.328125 0.9375q-0.78125 0.328125 -1.765625 0.328125q-1.296875 0 -2.328125 -0.578125q-1.03125 -0.578125 -1.609375 -1.671875q-0.578125 -1.09375 -0.578125 -2.609375q0 -1.5 0.578125 -2.593752q0.578125 -1.09375 1.609375 -1.671875q1.03125 -0.578125 2.328125 -0.578125zm10.44751 0q1.328125 0 2.34375 0.578125q1.015625 0.578125 1.59375 1.671875q0.578125 1.0937519 0.578125 2.593752q0 1.515625 -0.578125 2.609375q-0.578125 1.09375 -1.59375 1.671875q-1.015625 0.578125 -2.34375 0.578125q-1.296875 0 -2.328125 -0.578125q-1.03125 -0.578125 -1.609375 -1.671875q-0.578125 -1.09375 -0.578125 -2.609375q0 -1.5 0.578125 -2.593752q0.578125 -1.09375 1.609375 -1.671875q1.03125 -0.578125 2.328125 -0.578125zm0 1.28125q-0.953125 0 -1.625 0.4375q-0.671875 0.421875 -1.03125 1.21875q-0.359375 0.7968769 -0.359375 1.9062519q0 1.109375 0.359375 1.921875q0.359375 0.796875 1.03125 1.234375q0.671875 0.421875 1.625 0.421875q0.953125 0 1.625 -0.421875q0.671875 -0.4375 1.03125 -1.234375q0.375 -0.8125 0.375 -1.921875q0 -1.109375 -0.375 -1.9062519q-0.359375 -0.796875 -1.03125 -1.21875q-0.671875 -0.4375 -1.625 -0.4375zm10.693756 8.421877q-1.359375 0 -2.515625 -0.578125q-1.140625 -0.578125 -1.75 -1.640625l1.265625 -0.921875q0.40625 0.859375 1.1875 1.34375q0.796875 0.484375 1.921875 0.484375q0.984375 0 1.546875 -0.375q0.5625 -0.390625 0.5625 -1.0q0 -0.390625 -0.25 -0.71875q-0.25 -0.328125 -0.96875 -0.46875l-2.234375 -0.46875q-1.359375 -0.28125 -1.953125 -0.9375q-0.578125 -0.65625 -0.578125 -1.6250019q0 -0.765625 0.4375 -1.390625q0.4375 -0.640625 1.25 -1.015625q0.8125 -0.390625 1.90625 -0.390625q1.390625 0 2.328125 0.546875q0.953125 0.53125 1.421875 1.53125l-1.25 0.8125q-0.3125 -0.8125 -1.03125 -1.1875q-0.703125 -0.390625 -1.46875 -0.390625q-0.671875 0 -1.15625 0.1875q-0.46875 0.1875 -0.71875 0.515625q-0.25 0.3125 -0.25 0.734375q0 0.4062519 0.28125 0.7500019q0.28125 0.34375 1.046875 0.5l2.328125 0.484375q1.3125 0.25 1.828125 0.859375q0.53125 0.59375 0.53125 1.453125q0 0.875 -0.46875 1.546875q-0.46875 0.65625 -1.3125 1.015625q-0.84375 0.34375 -1.9375 0.34375zm13.584351 -9.515627l-4.390625 10.890627q-0.34375 0.921875 -0.765625 1.453125q-0.421875 0.53125 -0.9375 0.765625q-0.515625 0.234375 -1.1875 0.234375q-0.625 0 -1.171875 -0.1875q-0.53125 -0.171875 -0.9375 -0.46875l0.40625 -1.3125q0.375 0.34375 0.796875 0.5q0.421875 0.15625 0.828125 0.15625q0.484375 0 0.90625 -0.296875q0.4375 -0.296875 0.796875 -1.21875l0.484375 -1.203125l-0.9375 -2.21875l-2.96875 -7.093752l1.703125 0l2.328125 6.078127l0.578125 1.671875l0.671875 -1.859375l2.1875 -5.890627l1.609375 0zm5.071472 9.515627q-1.359375 0 -2.515625 -0.578125q-1.140625 -0.578125 -1.75 -1.640625l1.265625 -0.921875q0.40625 0.859375 1.1875 1.34375q0.796875 0.484375 1.921875 0.484375q0.984375 0 1.546875 -0.375q0.5625 -0.390625 0.5625 -1.0q0 -0.390625 -0.25 -0.71875q-0.25 -0.328125 -0.96875 -0.46875l-2.234375 -0.46875q-1.359375 -0.28125 -1.953125 -0.9375q-0.578125 -0.65625 -0.578125 -1.6250019q0 -0.765625 0.4375 -1.390625q0.4375 -0.640625 1.25 -1.015625q0.8125 -0.390625 1.90625 -0.390625q1.390625 0 2.328125 0.546875q0.953125 0.53125 1.421875 1.53125l-1.25 0.8125q-0.3125 -0.8125 -1.03125 -1.1875q-0.703125 -0.390625 -1.46875 -0.390625q-0.671875 0 -1.15625 0.1875q-0.46875 0.1875 -0.71875 0.515625q-0.25 0.3125 -0.25 0.734375q0 0.4062519 0.28125 0.7500019q0.28125 0.34375 1.046875 0.5l2.328125 0.484375q1.3125 0.25 1.828125 0.859375q0.53125 0.59375 0.53125 1.453125q0 0.875 -0.46875 1.546875q-0.46875 0.65625 -1.3125 1.015625q-0.84375 0.34375 -1.9375 0.34375zm8.675598 -12.171877l0 9.406252q0 0.6875 0.390625 1.03125q0.390625 0.328125 1.0 0.328125q0.546875 0 0.9375 -0.171875q0.390625 -0.1875 0.71875 -0.515625l0.515625 1.25q-0.421875 0.390625 -1.015625 0.625q-0.59375 0.21875 -1.359375 0.21875q-0.703125 0 -1.328125 -0.25q-0.609375 -0.25 -0.96875 -0.796875q-0.359375 -0.5625 -0.390625 -1.453125l0 -9.250002l1.5 -0.421875zm3.390625 2.65625l0 1.28125l-6.75 0l0 -1.28125l6.75 0zm6.129486 9.515627q-1.328125 0 -2.375 -0.578125q-1.03125 -0.578125 -1.609375 -1.671875q-0.578125 -1.09375 -0.578125 -2.609375q0 -1.5 0.578125 -2.593752q0.578125 -1.09375 1.578125 -1.671875q1.015625 -0.578125 2.3125 -0.578125q1.296875 0 2.21875 0.5625q0.921875 0.5625 1.40625 1.53125q0.484375 0.953125 0.484375 2.140627q0 0.3125 -0.015625 0.578125q-0.015625 0.265625 -0.046875 0.46875l-7.546875 0l0 -1.328125l6.890625 0l-0.765625 0.15625q0 -1.3437519 -0.734375 -2.062502q-0.734375 -0.734375 -1.9375 -0.734375q-0.90625 0 -1.578125 0.421875q-0.65625 0.40625 -1.03125 1.203125q-0.359375 0.7968769 -0.359375 1.9062519q0 1.109375 0.375 1.921875q0.375 0.796875 1.046875 1.21875q0.6875 0.40625 1.640625 0.40625q1.03125 0 1.671875 -0.390625q0.640625 -0.390625 1.03125 -1.0625l1.1875 0.6875q-0.359375 0.640625 -0.921875 1.109375q-0.546875 0.46875 -1.28125 0.71875q-0.734375 0.25 -1.640625 0.25zm6.8583984 -0.1875l0 -9.328127l1.3125 0l0.09375 1.453125q0.5 -0.859375 1.3125 -1.25q0.8125 -0.390625 1.671875 -0.390625q0.984375 0 1.859375 0.453125q0.875 0.4375 1.34375 1.375q0.296875 -0.640625 0.828125 -1.03125q0.546875 -0.40625 1.1875 -0.59375q0.65625 -0.203125 1.234375 -0.203125q0.890625 0 1.703125 0.375q0.8125 0.375 1.328125 1.15625q0.53125 0.78125 0.53125 2.015627l0 5.96875l-1.5 0l0 -5.828125q0 -1.2656269 -0.640625 -1.8125019q-0.625 -0.5625 -1.5625 -0.5625q-0.71875 0 -1.359375 0.359375q-0.625 0.34375 -1.015625 1.03125q-0.375 0.6875019 -0.375 1.7031269l0 5.109375l-1.5 0l0 -5.828125q0 -1.2656269 -0.640625 -1.8125019q-0.625 -0.5625 -1.5625 -0.5625q-0.609375 0 -1.265625 0.328125q-0.640625 0.3125 -1.0625 1.03125q-0.421875 0.7031269 -0.421875 1.8593769l0 4.984375l-1.5 0z" fill-rule="nonzero"/><path fill="#ffffff" d="m79.17987 57.330082q-0.359375 1.296875 -1.140625 2.125q-0.78125 0.828125 -1.875 1.21875q-1.078125 0.375 -2.375 0.375q-1.875 0 -3.234375 -0.75q-1.359375 -0.765625 -2.09375 -2.171875q-0.71875 -1.421875 -0.71875 -3.421875q0 -2.0 0.71875 -3.40625q0.734375 -1.421875 2.09375 -2.171875q1.359375 -0.765625 3.203125 -0.765625q1.296875 0 2.375 0.375q1.078125 0.359375 1.828125 1.109375q0.75 0.734375 1.0625 1.90625l-2.8125 1.140625q-0.265625 -1.15625 -0.859375 -1.578125q-0.578125 -0.4375 -1.46875 -0.4375q-0.890625 0 -1.53125 0.4375q-0.640625 0.421875 -0.984375 1.28125q-0.34375 0.84375 -0.34375 2.109375q0 1.25 0.3125 2.109375q0.3125 0.859375 0.953125 1.296875q0.65625 0.421875 1.609375 0.421875q0.890625 0 1.515625 -0.5q0.625 -0.5 0.84375 -1.515625l2.921875 0.8125zm6.0017853 -5.984375q1.46875 0 2.578125 0.578125q1.109375 0.5625 1.734375 1.65625q0.625 1.09375 0.625 2.609375q0 1.53125 -0.625 2.625q-0.625 1.09375 -1.734375 1.671875q-1.109375 0.5625 -2.578125 0.5625q-1.4375 0 -2.5625 -0.5625q-1.109375 -0.578125 -1.734375 -1.671875q-0.625 -1.09375 -0.625 -2.625q0 -1.515625 0.625 -2.609375q0.625 -1.09375 1.734375 -1.65625q1.125 -0.578125 2.5625 -0.578125zm0 2.265625q-0.546875 0 -0.9375 0.265625q-0.390625 0.25 -0.59375 0.828125q-0.203125 0.578125 -0.203125 1.484375q0 0.921875 0.203125 1.5q0.203125 0.5625 0.59375 0.828125q0.390625 0.265625 0.9375 0.265625q0.5625 0 0.953125 -0.265625q0.390625 -0.265625 0.59375 -0.828125q0.203125 -0.578125 0.203125 -1.5q0 -0.90625 -0.203125 -1.484375q-0.203125 -0.578125 -0.59375 -0.828125q-0.390625 -0.265625 -0.953125 -0.265625zm6.7375946 7.25l0 -9.328125l2.828125 0l0.09375 1.8125q0.453125 -0.984375 1.265625 -1.484375q0.8125 -0.515625 1.875 -0.515625q1.046875 0 1.8125 0.46875q0.765625 0.46875 1.140625 1.375q0.296875 -0.609375 0.765625 -1.015625q0.484375 -0.421875 1.09375 -0.625q0.609375 -0.203125 1.265625 -0.203125q0.9375 0 1.640625 0.375q0.71875 0.359375 1.125 1.09375q0.421875 0.734375 0.421875 1.828125l0 6.21875l-3.171875 0l0 -5.484375q0 -0.890625 -0.34375 -1.25q-0.34375 -0.359375 -0.921875 -0.359375q-0.46875 0 -0.859375 0.234375q-0.375 0.234375 -0.578125 0.703125q-0.203125 0.46875 -0.203125 1.171875l0 4.984375l-3.171875 0l0 -5.484375q0 -0.890625 -0.359375 -1.25q-0.34375 -0.359375 -0.90625 -0.359375q-0.4375 0 -0.828125 0.234375q-0.375 0.21875 -0.59375 0.703125q-0.21875 0.46875 -0.21875 1.234375l0 4.921875l-3.171875 0zm17.555542 3.9218712l0 -13.249996l2.859375 0l0.15625 3.375l-0.375 -0.390625q0.140625 -0.9375 0.578125 -1.640625q0.453125 -0.703125 1.15625 -1.109375q0.71875 -0.421875 1.625 -0.421875q1.15625 0 2.015625 0.578125q0.859375 0.5625 1.328125 1.640625q0.484375 1.0625 0.484375 2.59375q0 1.53125 -0.484375 2.640625q-0.484375 1.09375 -1.359375 1.671875q-0.859375 0.578125 -2.015625 0.578125q-1.265625 0 -2.0625 -0.75q-0.78125 -0.765625 -1.03125 -1.921875l0.296875 -0.4375l0 6.843746l-3.171875 0zm4.890625 -6.062496q0.8125 0 1.28125 -0.609375q0.46875 -0.609375 0.46875 -1.921875q0 -1.296875 -0.46875 -1.90625q-0.453125 -0.609375 -1.265625 -0.609375q-0.53125 0 -0.921875 0.296875q-0.390625 0.28125 -0.609375 0.84375q-0.203125 0.5625 -0.203125 1.375q0 0.796875 0.1875 1.359375q0.203125 0.5625 0.59375 0.875q0.390625 0.296875 0.9375 0.296875zm9.963089 2.328125q-0.953125 0 -1.671875 -0.328125q-0.71875 -0.328125 -1.140625 -1.046875q-0.40625 -0.734375 -0.40625 -1.90625l0 -6.234375l3.171875 0l0 5.484375q0 0.890625 0.359375 1.25q0.359375 0.359375 1.0 0.359375q0.34375 0 0.640625 -0.125q0.296875 -0.125 0.515625 -0.375q0.234375 -0.25 0.34375 -0.640625q0.125 -0.40625 0.125 -0.953125l0 -5.0l3.171875 0l0 9.328125l-2.828125 0l-0.09375 -1.75q-0.453125 0.984375 -1.265625 1.46875q-0.796875 0.46875 -1.921875 0.46875zm12.282593 -12.484375l0 8.96875q0 0.671875 0.328125 0.96875q0.328125 0.28125 0.90625 0.28125q0.453125 0 0.78125 -0.09375q0.328125 -0.109375 0.578125 -0.3125l0.34375 1.96875q-0.46875 0.328125 -1.1875 0.515625q-0.703125 0.1875 -1.453125 0.1875q-1.0625 0 -1.84375 -0.296875q-0.765625 -0.296875 -1.1875 -0.953125q-0.40625 -0.65625 -0.4375 -1.734375l0 -8.625l3.171875 -0.875zm2.78125 2.96875l0 2.25l-7.546875 0l0 -2.25l7.546875 0zm6.0277863 9.515625q-1.546875 0 -2.671875 -0.578125q-1.125 -0.578125 -1.75 -1.65625q-0.609375 -1.09375 -0.609375 -2.625q0 -1.515625 0.609375 -2.59375q0.625 -1.09375 1.734375 -1.671875q1.109375 -0.578125 2.546875 -0.578125q1.46875 0 2.5 0.578125q1.03125 0.5625 1.578125 1.5625q0.546875 1.0 0.546875 2.28125q0 0.34375 -0.03125 0.6875q-0.015625 0.328125 -0.046875 0.546875l-7.390625 0l0 -1.703125l5.984375 0l-1.5 0.578125q0 -1.109375 -0.40625 -1.703125q-0.40625 -0.609375 -1.234375 -0.609375q-0.609375 0 -1.03125 0.28125q-0.40625 0.28125 -0.625 0.875q-0.21875 0.59375 -0.21875 1.53125q0 0.921875 0.234375 1.484375q0.25 0.5625 0.703125 0.828125q0.453125 0.25 1.078125 0.25q0.71875 0 1.125 -0.28125q0.421875 -0.28125 0.625 -0.78125l2.546875 0.828125q-0.265625 0.8125 -0.90625 1.359375q-0.640625 0.546875 -1.53125 0.828125q-0.890625 0.28125 -1.859375 0.28125zm13.119598 -13.46875l-5.21875 14.59375l-2.953125 0l5.21875 -14.59375l2.953125 0zm6.039215 0.78125q1.71875 0 3.03125 0.53125q1.3125 0.53125 2.296875 1.5625l-1.5625 2.0625q-0.796875 -0.828125 -1.71875 -1.25q-0.921875 -0.421875 -2.09375 -0.421875q-0.703125 0 -1.125 0.15625q-0.421875 0.140625 -0.609375 0.40625q-0.1875 0.25 -0.1875 0.59375q0 0.390625 0.359375 0.671875q0.359375 0.265625 1.1875 0.4375l2.0625 0.46875q1.84375 0.4375 2.703125 1.265625q0.859375 0.8125 0.859375 2.171875q0 1.3125 -0.671875 2.21875q-0.671875 0.890625 -1.84375 1.359375q-1.171875 0.453125 -2.6875 0.453125q-1.234375 0 -2.359375 -0.265625q-1.109375 -0.28125 -2.0 -0.78125q-0.890625 -0.5 -1.515625 -1.15625l1.546875 -2.140625q0.46875 0.53125 1.140625 0.953125q0.6875 0.421875 1.5 0.671875q0.8125 0.234375 1.65625 0.234375q0.65625 0 1.09375 -0.125q0.4375 -0.140625 0.640625 -0.390625q0.203125 -0.265625 0.203125 -0.625q0 -0.390625 -0.28125 -0.65625q-0.28125 -0.265625 -1.0625 -0.453125l-2.28125 -0.515625q-1.03125 -0.234375 -1.84375 -0.625q-0.8125 -0.40625 -1.28125 -1.09375q-0.46875 -0.6875 -0.46875 -1.703125q0 -1.15625 0.625 -2.0625q0.640625 -0.90625 1.828125 -1.421875q1.203125 -0.53125 2.859375 -0.53125zm10.892654 0.203125l0 8.96875q0 0.671875 0.328125 0.96875q0.328125 0.28125 0.90625 0.28125q0.453125 0 0.78125 -0.09375q0.328125 -0.109375 0.578125 -0.3125l0.34375 1.96875q-0.46875 0.328125 -1.1875 0.515625q-0.703125 0.1875 -1.453125 0.1875q-1.0625 0 -1.84375 -0.296875q-0.765625 -0.296875 -1.1875 -0.953125q-0.40625 -0.65625 -0.4375 -1.734375l0 -8.625l3.171875 -0.875zm2.78125 2.96875l0 2.25l-7.546875 0l0 -2.25l7.546875 0zm5.9184113 -0.1875q1.46875 0 2.578125 0.578125q1.109375 0.5625 1.734375 1.65625q0.625 1.09375 0.625 2.609375q0 1.53125 -0.625 2.625q-0.625 1.09375 -1.734375 1.671875q-1.109375 0.5625 -2.578125 0.5625q-1.4375 0 -2.5625 -0.5625q-1.109375 -0.578125 -1.734375 -1.671875q-0.625 -1.09375 -0.625 -2.625q0 -1.515625 0.625 -2.609375q0.625 -1.09375 1.734375 -1.65625q1.125 -0.578125 2.5625 -0.578125zm0 2.265625q-0.546875 0 -0.9375 0.265625q-0.390625 0.25 -0.59375 0.828125q-0.203125 0.578125 -0.203125 1.484375q0 0.921875 0.203125 1.5q0.203125 0.5625 0.59375 0.828125q0.390625 0.265625 0.9375 0.265625q0.5625 0 0.953125 -0.265625q0.390625 -0.265625 0.59375 -0.828125q0.203125 -0.578125 0.203125 -1.5q0 -0.90625 -0.203125 -1.484375q-0.203125 -0.578125 -0.59375 -0.828125q-0.390625 -0.265625 -0.953125 -0.265625zm6.7375946 7.25l0 -9.328125l2.796875 0l0.125 2.015625q0.359375 -1.046875 1.0625 -1.625q0.703125 -0.578125 1.78125 -0.578125q0.34375 0 0.59375 0.0625q0.265625 0.046875 0.40625 0.140625l-0.3125 2.609375q-0.1875 -0.0625 -0.484375 -0.109375q-0.28125 -0.046875 -0.6875 -0.046875q-0.5625 0 -1.046875 0.25q-0.484375 0.234375 -0.78125 0.71875q-0.28125 0.46875 -0.28125 1.1875l0 4.703125l-3.171875 0zm13.113312 -5.90625q0 -0.65625 -0.375 -1.03125q-0.359375 -0.390625 -0.96875 -0.390625q-0.609375 0 -1.0625 0.3125q-0.4375 0.296875 -0.59375 1.078125l-2.6875 -0.625q0.265625 -1.34375 1.375 -2.140625q1.125 -0.8125 3.15625 -0.8125q1.359375 0 2.3125 0.40625q0.96875 0.390625 1.484375 1.1875q0.515625 0.796875 0.515625 1.953125l0 3.40625q0 0.734375 0.65625 0.734375q0.328125 0 0.53125 -0.078125l-0.1875 1.8125q-0.5625 0.265625 -1.359375 0.265625q-0.734375 0 -1.296875 -0.234375q-0.546875 -0.234375 -0.875 -0.703125q-0.3125 -0.484375 -0.3125 -1.21875l0 -0.109375l0.359375 -0.125q0 0.796875 -0.484375 1.34375q-0.46875 0.546875 -1.234375 0.8125q-0.75 0.25 -1.5625 0.25q-0.953125 0 -1.671875 -0.296875q-0.703125 -0.296875 -1.09375 -0.859375q-0.375 -0.578125 -0.375 -1.421875q0 -1.0 0.609375 -1.65625q0.609375 -0.671875 1.90625 -0.9375l3.53125 -0.71875l-0.015625 1.671875l-1.796875 0.375q-0.5625 0.109375 -0.828125 0.328125q-0.265625 0.21875 -0.265625 0.640625q0 0.40625 0.296875 0.625q0.296875 0.203125 0.703125 0.203125q0.328125 0 0.609375 -0.09375q0.296875 -0.09375 0.515625 -0.28125q0.21875 -0.203125 0.34375 -0.5q0.140625 -0.3125 0.140625 -0.71875l0 -2.453125zm14.723434 -5.921875l0.25 2.125q-0.109375 -0.03125 -0.21875 -0.03125q-0.109375 -0.015625 -0.21875 -0.015625q-0.828125 0 -1.234375 0.40625q-0.390625 0.390625 -0.390625 0.984375l-1.125 -0.40625q0 -0.765625 0.28125 -1.46875q0.28125 -0.71875 0.859375 -1.15625q0.59375 -0.453125 1.5 -0.453125q0.046875 0 0.125 0q0.09375 0 0.171875 0.015625zm-3.21875 9.75q1.625 0 2.484375 0.6875q0.875 0.6875 0.875 1.953125q0 1.15625 -0.640625 1.921875q-0.625 0.7656212 -1.78125 1.1406212q-1.140625 0.390625 -2.703125 0.390625q-2.53125 0 -3.65625 -0.640625q-1.125 -0.6249962 -1.125 -1.7187462q0 -0.78125 0.625 -1.265625q0.640625 -0.484375 2.125 -0.515625l-0.078125 0.296875q-1.140625 -0.15625 -1.703125 -0.671875q-0.546875 -0.53125 -0.546875 -1.421875q0 -0.890625 0.703125 -1.453125q0.703125 -0.5625 1.890625 -0.625l1.15625 0.546875l-0.3125 0q-0.71875 0.03125 -1.015625 0.25q-0.296875 0.203125 -0.296875 0.5q0 0.3125 0.25 0.46875q0.265625 0.15625 0.796875 0.15625l2.953125 0zm-1.75 4.03125q0.890625 0 1.484375 -0.125q0.59375 -0.109375 0.890625 -0.328125q0.296875 -0.21875 0.296875 -0.5q0 -0.265625 -0.203125 -0.4375q-0.203125 -0.15625 -0.75 -0.15625l-3.34375 0q-0.34375 0 -0.5625 0.1875q-0.21875 0.1875 -0.21875 0.46875q0 0.4375 0.625 0.65625q0.640625 0.234375 1.78125 0.234375zm0.109375 -11.46875q1.421875 0 2.421875 0.375q1.015625 0.375 1.546875 1.078125q0.53125 0.6875 0.53125 1.71875q0 1.015625 -0.53125 1.71875q-0.53125 0.703125 -1.546875 1.078125q-1.0 0.359375 -2.421875 0.359375q-2.21875 0 -3.375 -0.8125q-1.140625 -0.828125 -1.140625 -2.34375q0 -1.03125 0.53125 -1.71875q0.53125 -0.703125 1.53125 -1.078125q1.015625 -0.375 2.453125 -0.375zm0 1.8125q-0.609375 0 -1.0 0.359375q-0.375 0.34375 -0.375 1.0q0 0.640625 0.375 1.0q0.390625 0.34375 1.0 0.34375q0.59375 0 0.984375 -0.34375q0.40625 -0.359375 0.40625 -1.0q0 -0.65625 -0.40625 -1.0q-0.390625 -0.359375 -0.984375 -0.359375zm10.82251 7.890625q-1.546875 0 -2.671875 -0.578125q-1.125 -0.578125 -1.75 -1.65625q-0.609375 -1.09375 -0.609375 -2.625q0 -1.515625 0.609375 -2.59375q0.625 -1.09375 1.734375 -1.671875q1.109375 -0.578125 2.546875 -0.578125q1.46875 0 2.5 0.578125q1.03125 0.5625 1.578125 1.5625q0.546875 1.0 0.546875 2.28125q0 0.34375 -0.03125 0.6875q-0.015625 0.328125 -0.046875 0.546875l-7.390625 0l0 -1.703125l5.984375 0l-1.5 0.578125q0 -1.109375 -0.40625 -1.703125q-0.40625 -0.609375 -1.234375 -0.609375q-0.609375 0 -1.03125 0.28125q-0.40625 0.28125 -0.625 0.875q-0.21875 0.59375 -0.21875 1.53125q0 0.921875 0.234375 1.484375q0.25 0.5625 0.703125 0.828125q0.453125 0.25 1.078125 0.25q0.71875 0 1.125 -0.28125q0.421875 -0.28125 0.625 -0.78125l2.546875 0.828125q-0.265625 0.8125 -0.90625 1.359375q-0.640625 0.546875 -1.53125 0.828125q-0.890625 0.28125 -1.859375 0.28125zm14.74704 0q-0.953125 0 -1.671875 -0.328125q-0.71875 -0.328125 -1.140625 -1.046875q-0.40625 -0.734375 -0.40625 -1.90625l0 -6.234375l3.171875 0l0 5.484375q0 0.890625 0.359375 1.25q0.359375 0.359375 1.0 0.359375q0.34375 0 0.640625 -0.125q0.296875 -0.125 0.515625 -0.375q0.234375 -0.25 0.34375 -0.640625q0.125 -0.40625 0.125 -0.953125l0 -5.0l3.171875 0l0 9.328125l-2.828125 0l-0.09375 -1.75q-0.453125 0.984375 -1.265625 1.46875q-0.796875 0.46875 -1.921875 0.46875zm8.391968 -0.1875l0 -9.328125l2.828125 0l0.171875 3.203125l-0.359375 -0.34375q0.1875 -1.015625 0.65625 -1.6875q0.484375 -0.671875 1.203125 -1.015625q0.71875 -0.34375 1.609375 -0.34375q0.984375 0 1.6875 0.375q0.71875 0.375 1.125 1.109375q0.421875 0.71875 0.421875 1.8125l0 6.21875l-3.171875 0l0 -5.375q0 -0.96875 -0.375 -1.34375q-0.375 -0.375 -0.953125 -0.375q-0.4375 0 -0.84375 0.21875q-0.390625 0.21875 -0.609375 0.6875q-0.21875 0.453125 -0.21875 1.25l0 4.9375l-3.171875 0zm15.004395 0.1875q-1.15625 0 -2.03125 -0.5625q-0.875 -0.578125 -1.34375 -1.65625q-0.46875 -1.078125 -0.46875 -2.59375q0 -1.5625 0.484375 -2.640625q0.5 -1.09375 1.375 -1.671875q0.890625 -0.578125 2.046875 -0.578125q1.265625 0 2.046875 0.78125q0.78125 0.765625 1.0 1.96875l-0.296875 0.390625l0 -6.90625l3.171875 0l0 13.28125l-2.84375 0l-0.203125 -3.171875l0.375 0.28125q-0.109375 0.9375 -0.578125 1.625q-0.453125 0.6875 -1.15625 1.078125q-0.6875 0.375 -1.578125 0.375zm1.09375 -2.328125q0.546875 0 0.921875 -0.28125q0.390625 -0.296875 0.59375 -0.875q0.203125 -0.578125 0.203125 -1.421875q0 -0.78125 -0.203125 -1.328125q-0.1875 -0.5625 -0.578125 -0.84375q-0.375 -0.296875 -0.921875 -0.296875q-0.8125 0 -1.296875 0.609375q-0.46875 0.609375 -0.46875 1.90625q0 1.3125 0.453125 1.921875q0.46875 0.609375 1.296875 0.609375zm11.713074 2.328125q-1.546875 0 -2.671875 -0.578125q-1.125 -0.578125 -1.75 -1.65625q-0.609375 -1.09375 -0.609375 -2.625q0 -1.515625 0.609375 -2.59375q0.625 -1.09375 1.734375 -1.671875q1.109375 -0.578125 2.546875 -0.578125q1.46875 0 2.5 0.578125q1.03125 0.5625 1.578125 1.5625q0.546875 1.0 0.546875 2.28125q0 0.34375 -0.03125 0.6875q-0.015625 0.328125 -0.046875 0.546875l-7.390625 0l0 -1.703125l5.984375 0l-1.5 0.578125q0 -1.109375 -0.40625 -1.703125q-0.40625 -0.609375 -1.234375 -0.609375q-0.609375 0 -1.03125 0.28125q-0.40625 0.28125 -0.625 0.875q-0.21875 0.59375 -0.21875 1.53125q0 0.921875 0.234375 1.484375q0.25 0.5625 0.703125 0.828125q0.453125 0.25 1.078125 0.25q0.71875 0 1.125 -0.28125q0.421875 -0.28125 0.625 -0.78125l2.546875 0.828125q-0.265625 0.8125 -0.90625 1.359375q-0.640625 0.546875 -1.53125 0.828125q-0.890625 0.28125 -1.859375 0.28125zm6.2550964 -0.1875l0 -9.328125l2.796875 0l0.125 2.015625q0.359375 -1.046875 1.0625 -1.625q0.703125 -0.578125 1.78125 -0.578125q0.34375 0 0.59375 0.0625q0.265625 0.046875 0.40625 0.140625l-0.3125 2.609375q-0.1875 -0.0625 -0.484375 -0.109375q-0.28125 -0.046875 -0.6875 -0.046875q-0.5625 0 -1.046875 0.25q-0.484375 0.234375 -0.78125 0.71875q-0.28125 0.46875 -0.28125 1.1875l0 4.703125l-3.171875 0zm24.218506 -3.53125q-0.359375 1.296875 -1.140625 2.125q-0.78125 0.828125 -1.875 1.21875q-1.078125 0.375 -2.375 0.375q-1.875 0 -3.234375 -0.75q-1.359375 -0.765625 -2.09375 -2.171875q-0.71875 -1.421875 -0.71875 -3.421875q0 -2.0 0.71875 -3.40625q0.734375 -1.421875 2.09375 -2.171875q1.359375 -0.765625 3.203125 -0.765625q1.296875 0 2.375 0.375q1.078125 0.359375 1.828125 1.109375q0.75 0.734375 1.0625 1.90625l-2.8125 1.140625q-0.265625 -1.15625 -0.859375 -1.578125q-0.578125 -0.4375 -1.46875 -0.4375q-0.890625 0 -1.53125 0.4375q-0.640625 0.421875 -0.984375 1.28125q-0.34375 0.84375 -0.34375 2.109375q0 1.25 0.3125 2.109375q0.3125 0.859375 0.953125 1.296875q0.65625 0.421875 1.609375 0.421875q0.890625 0 1.515625 -0.5q0.625 -0.5 0.84375 -1.515625l2.921875 0.8125zm6.0018005 -5.984375q1.46875 0 2.578125 0.578125q1.109375 0.5625 1.734375 1.65625q0.625 1.09375 0.625 2.609375q0 1.53125 -0.625 2.625q-0.625 1.09375 -1.734375 1.671875q-1.109375 0.5625 -2.578125 0.5625q-1.4375 0 -2.5625 -0.5625q-1.109375 -0.578125 -1.734375 -1.671875q-0.625 -1.09375 -0.625 -2.625q0 -1.515625 0.625 -2.609375q0.625 -1.09375 1.734375 -1.65625q1.125 -0.578125 2.5625 -0.578125zm0 2.265625q-0.546875 0 -0.9375 0.265625q-0.390625 0.25 -0.59375 0.828125q-0.203125 0.578125 -0.203125 1.484375q0 0.921875 0.203125 1.5q0.203125 0.5625 0.59375 0.828125q0.390625 0.265625 0.9375 0.265625q0.5625 0 0.953125 -0.265625q0.390625 -0.265625 0.59375 -0.828125q0.203125 -0.578125 0.203125 -1.5q0 -0.90625 -0.203125 -1.484375q-0.203125 -0.578125 -0.59375 -0.828125q-0.390625 -0.265625 -0.953125 -0.265625zm6.7375793 7.25l0 -9.328125l2.828125 0l0.171875 3.203125l-0.359375 -0.34375q0.1875 -1.015625 0.65625 -1.6875q0.484375 -0.671875 1.203125 -1.015625q0.71875 -0.34375 1.609375 -0.34375q0.984375 0 1.6875 0.375q0.71875 0.375 1.125 1.109375q0.421875 0.71875 0.421875 1.8125l0 6.21875l-3.171875 0l0 -5.375q0 -0.96875 -0.375 -1.34375q-0.375 -0.375 -0.953125 -0.375q-0.4375 0 -0.84375 0.21875q-0.390625 0.21875 -0.609375 0.6875q-0.21875 0.453125 -0.21875 1.25l0 4.9375l-3.171875 0zm15.48877 0.1875q-1.40625 0 -2.609375 -0.453125q-1.203125 -0.46875 -1.984375 -1.3125l1.484375 -1.765625q0.46875 0.59375 1.234375 1.0q0.78125 0.40625 1.734375 0.40625q0.578125 0 0.953125 -0.171875q0.375 -0.171875 0.375 -0.515625q0 -0.265625 -0.1875 -0.421875q-0.1875 -0.15625 -0.75 -0.28125l-1.296875 -0.25q-1.765625 -0.359375 -2.5 -1.046875q-0.734375 -0.703125 -0.734375 -1.84375q0 -0.765625 0.46875 -1.46875q0.46875 -0.703125 1.4375 -1.140625q0.96875 -0.4375 2.484375 -0.4375q1.40625 0 2.484375 0.421875q1.09375 0.40625 1.734375 1.1875l-1.515625 1.71875q-0.453125 -0.5625 -1.171875 -0.875q-0.703125 -0.328125 -1.40625 -0.328125q-0.453125 0 -0.765625 0.09375q-0.296875 0.078125 -0.453125 0.234375q-0.140625 0.140625 -0.140625 0.359375q0 0.25 0.234375 0.4375q0.234375 0.171875 0.859375 0.296875l1.703125 0.328125q1.4375 0.265625 2.0625 0.953125q0.640625 0.6875 0.640625 1.671875q0 0.90625 -0.484375 1.640625q-0.484375 0.71875 -1.453125 1.140625q-0.96875 0.421875 -2.4375 0.421875zm10.512787 0q-1.546875 0 -2.671875 -0.578125q-1.125 -0.578125 -1.75 -1.65625q-0.609375 -1.09375 -0.609375 -2.625q0 -1.515625 0.609375 -2.59375q0.625 -1.09375 1.734375 -1.671875q1.109375 -0.578125 2.546875 -0.578125q1.46875 0 2.5 0.578125q1.03125 0.5625 1.578125 1.5625q0.546875 1.0 0.546875 2.28125q0 0.34375 -0.03125 0.6875q-0.015625 0.328125 -0.046875 0.546875l-7.390625 0l0 -1.703125l5.984375 0l-1.5 0.578125q0 -1.109375 -0.40625 -1.703125q-0.40625 -0.609375 -1.234375 -0.609375q-0.609375 0 -1.03125 0.28125q-0.40625 0.28125 -0.625 0.875q-0.21875 0.59375 -0.21875 1.53125q0 0.921875 0.234375 1.484375q0.25 0.5625 0.703125 0.828125q0.453125 0.25 1.078125 0.25q0.71875 0 1.125 -0.28125q0.421875 -0.28125 0.625 -0.78125l2.546875 0.828125q-0.265625 0.8125 -0.90625 1.359375q-0.640625 0.546875 -1.53125 0.828125q-0.890625 0.28125 -1.859375 0.28125zm6.2550964 -0.1875l0 -9.328125l2.828125 0l0.171875 3.203125l-0.359375 -0.34375q0.1875 -1.015625 0.65625 -1.6875q0.484375 -0.671875 1.203125 -1.015625q0.71875 -0.34375 1.609375 -0.34375q0.984375 0 1.6875 0.375q0.71875 0.375 1.125 1.109375q0.421875 0.71875 0.421875 1.8125l0 6.21875l-3.171875 0l0 -5.375q0 -0.96875 -0.375 -1.34375q-0.375 -0.375 -0.953125 -0.375q-0.4375 0 -0.84375 0.21875q-0.390625 0.21875 -0.609375 0.6875q-0.21875 0.453125 -0.21875 1.25l0 4.9375l-3.171875 0zm15.48877 0.1875q-1.40625 0 -2.609375 -0.453125q-1.203125 -0.46875 -1.984375 -1.3125l1.484375 -1.765625q0.46875 0.59375 1.234375 1.0q0.78125 0.40625 1.734375 0.40625q0.578125 0 0.953125 -0.171875q0.375 -0.171875 0.375 -0.515625q0 -0.265625 -0.1875 -0.421875q-0.1875 -0.15625 -0.75 -0.28125l-1.296875 -0.25q-1.765625 -0.359375 -2.5 -1.046875q-0.734375 -0.703125 -0.734375 -1.84375q0 -0.765625 0.46875 -1.46875q0.46875 -0.703125 1.4375 -1.140625q0.96875 -0.4375 2.484375 -0.4375q1.40625 0 2.484375 0.421875q1.09375 0.40625 1.734375 1.1875l-1.515625 1.71875q-0.453125 -0.5625 -1.171875 -0.875q-0.703125 -0.328125 -1.40625 -0.328125q-0.453125 0 -0.765625 0.09375q-0.296875 0.078125 -0.453125 0.234375q-0.140625 0.140625 -0.140625 0.359375q0 0.25 0.234375 0.4375q0.234375 0.171875 0.859375 0.296875l1.703125 0.328125q1.4375 0.265625 2.0625 0.953125q0.640625 0.6875 0.640625 1.671875q0 0.90625 -0.484375 1.640625q-0.484375 0.71875 -1.453125 1.140625q-0.96875 0.421875 -2.4375 0.421875zm9.178162 0q-0.953125 0 -1.671875 -0.328125q-0.71875 -0.328125 -1.140625 -1.046875q-0.40625 -0.734375 -0.40625 -1.90625l0 -6.234375l3.171875 0l0 5.484375q0 0.890625 0.359375 1.25q0.359375 0.359375 1.0 0.359375q0.34375 0 0.640625 -0.125q0.296875 -0.125 0.515625 -0.375q0.234375 -0.25 0.34375 -0.640625q0.125 -0.40625 0.125 -0.953125l0 -5.0l3.171875 0l0 9.328125l-2.828125 0l-0.09375 -1.75q-0.453125 0.984375 -1.265625 1.46875q-0.796875 0.46875 -1.921875 0.46875zm12.313843 0q-1.40625 0 -2.609375 -0.453125q-1.203125 -0.46875 -1.984375 -1.3125l1.484375 -1.765625q0.46875 0.59375 1.234375 1.0q0.78125 0.40625 1.734375 0.40625q0.578125 0 0.953125 -0.171875q0.375 -0.171875 0.375 -0.515625q0 -0.265625 -0.1875 -0.421875q-0.1875 -0.15625 -0.75 -0.28125l-1.296875 -0.25q-1.765625 -0.359375 -2.5 -1.046875q-0.734375 -0.703125 -0.734375 -1.84375q0 -0.765625 0.46875 -1.46875q0.46875 -0.703125 1.4375 -1.140625q0.96875 -0.4375 2.484375 -0.4375q1.40625 0 2.484375 0.421875q1.09375 0.40625 1.734375 1.1875l-1.515625 1.71875q-0.453125 -0.5625 -1.171875 -0.875q-0.703125 -0.328125 -1.40625 -0.328125q-0.453125 0 -0.765625 0.09375q-0.296875 0.078125 -0.453125 0.234375q-0.140625 0.140625 -0.140625 0.359375q0 0.25 0.234375 0.4375q0.234375 0.171875 0.859375 0.296875l1.703125 0.328125q1.4375 0.265625 2.0625 0.953125q0.640625 0.6875 0.640625 1.671875q0 0.90625 -0.484375 1.640625q-0.484375 0.71875 -1.453125 1.140625q-0.96875 0.421875 -2.4375 0.421875z" fill-rule="nonzero"/><path fill="#ffffff" d="m189.01086 115.65934c0 -3.4906235 2.829712 -6.3203354 6.320343 -6.3203354l78.005005 0c1.676239 0 3.283844 0.6658859 4.4691467 1.851181c1.1853027 1.1852951 1.8511963 2.7929 1.8511963 4.4691544l0 25.280586c0 3.490631 -2.829712 6.320343 -6.320343 6.320343l-78.005005 0c-3.490631 0 -6.320343 -2.829712 -6.320343 -6.320343z" fill-rule="evenodd"/><path stroke="#000000" stroke-width="1.0" stroke-linejoin="round" stroke-linecap="butt" d="m189.01086 115.65934c0 -3.4906235 2.829712 -6.3203354 6.320343 -6.3203354l78.005005 0c1.676239 0 3.283844 0.6658859 4.4691467 1.851181c1.1853027 1.1852951 1.8511963 2.7929 1.8511963 4.4691544l0 25.280586c0 3.490631 -2.829712 6.320343 -6.320343 6.320343l-78.005005 0c-3.490631 0 -6.320343 -2.829712 -6.320343 -6.320343z" fill-rule="evenodd"/><path fill="#000000" d="m213.08965 124.30276q1.359375 0 2.171875 0.703125q0.8125 0.6875 0.8125 1.875q0 1.1874924 -0.828125 1.8437424q-0.8125 0.65625 -2.15625 0.65625l-0.09375 0.0625l-2.171875 0l0 3.65625l-1.0625 0l0 -8.796867l3.328125 0zm0 4.1406174q0.9375 0 1.390625 -0.390625q0.46875 -0.39061737 0.46875 -1.1718674q0 -0.796875 -0.46875 -1.1875q-0.453125 -0.390625 -1.390625 -0.390625l-2.265625 0l0 3.1406174l2.265625 0zm0.609375 0.21875l2.90625 4.4375l-1.265625 0l-2.53125 -3.859375l0.890625 -0.578125zm7.261505 -2.3593674q0.9375 0 1.65625 0.421875q0.734375 0.40625 1.140625 1.1875q0.421875 0.7812424 0.421875 1.8593674q0 1.078125 -0.421875 1.859375q-0.40625 0.78125 -1.140625 1.203125q-0.71875 0.40625 -1.65625 0.40625q-0.9375 0 -1.671875 -0.40625q-0.734375 -0.421875 -1.15625 -1.203125q-0.40625 -0.78125 -0.40625 -1.859375q0 -1.078125 0.40625 -1.8593674q0.421875 -0.78125 1.15625 -1.1875q0.734375 -0.421875 1.671875 -0.421875zm0 0.921875q-0.6875 0 -1.171875 0.3125q-0.46875 0.296875 -0.734375 0.8749924q-0.25 0.5625 -0.25 1.359375q0 0.78125 0.25 1.359375q0.265625 0.5625 0.734375 0.875q0.484375 0.3125 1.171875 0.3125q0.671875 0 1.15625 -0.3125q0.484375 -0.3125 0.734375 -0.875q0.265625 -0.578125 0.265625 -1.359375q0 -0.796875 -0.265625 -1.359375q-0.25 -0.5781174 -0.734375 -0.8749924q-0.484375 -0.3125 -1.15625 -0.3125zm6.2468414 -3.859375l0 8.046867q0 0.5 0.1875 0.703125q0.1875 0.1875 0.59375 0.1875q0.28125 0 0.453125 -0.03125q0.171875 -0.046875 0.453125 -0.15625l-0.171875 0.9375q-0.203125 0.09375 -0.46875 0.140625q-0.25 0.046875 -0.515625 0.046875q-0.8125 0 -1.203125 -0.4375q-0.390625 -0.453125 -0.390625 -1.359375l0 -8.078117l1.0625 0zm4.0783844 0l0 8.046867q0 0.5 0.1875 0.703125q0.1875 0.1875 0.59375 0.1875q0.28125 0 0.453125 -0.03125q0.171875 -0.046875 0.453125 -0.15625l-0.171875 0.9375q-0.203125 0.09375 -0.46875 0.140625q-0.25 0.046875 -0.515625 0.046875q-0.8125 0 -1.203125 -0.4375q-0.390625 -0.453125 -0.390625 -1.359375l0 -8.078117l1.0625 0zm5.4846344 9.874992q-0.640625 0 -1.21875 -0.234375q-0.5625 -0.25 -0.921875 -0.78125q-0.34375 -0.546875 -0.34375 -1.421875l0 -4.3593674l1.0625 0l0 4.0781174q0 1.015625 0.4375 1.40625q0.453125 0.375 1.25 0.375q0.375 0 0.734375 -0.125q0.359375 -0.125 0.640625 -0.390625q0.28125 -0.28125 0.453125 -0.703125q0.171875 -0.4375 0.171875 -1.015625l0 -3.6249924l1.0625 0l0 6.6562424l-0.9375 0l-0.0625 -1.015625q-0.34375 0.609375 -0.9375 0.890625q-0.59375 0.265625 -1.390625 0.265625zm5.801544 2.65625l0 -9.453117l0.9375 0l0.09375 1.6249924l-0.140625 -0.18749237q0.171875 -0.46875 0.515625 -0.8125q0.34375 -0.359375 0.828125 -0.5625q0.5 -0.203125 1.078125 -0.203125q0.8125 0 1.5 0.421875q0.6875 0.40625 1.09375 1.1875q0.421875 0.7656174 0.421875 1.8593674q0 1.078125 -0.421875 1.859375q-0.421875 0.78125 -1.125 1.203125q-0.6875 0.40625 -1.515625 0.40625q-0.828125 0 -1.453125 -0.40625q-0.609375 -0.421875 -0.875 -1.046875l0.140625 -0.1875l0 4.296875l-1.078125 0zm3.15625 -3.59375q1.0 0 1.546875 -0.6875q0.546875 -0.703125 0.546875 -1.84375q0 -1.15625 -0.546875 -1.8437424q-0.53125 -0.6875 -1.5 -0.6875q-0.640625 0 -1.125 0.3125q-0.46875 0.3125 -0.734375 0.8749924q-0.265625 0.5625 -0.265625 1.34375q0 0.75 0.25 1.328125q0.265625 0.578125 0.734375 0.890625q0.46875 0.3125 1.09375 0.3125zm7.6067047 0.9375q-0.96875 0 -1.796875 -0.40625q-0.8125 -0.421875 -1.25 -1.1875l0.90625 -0.65625q0.28125 0.609375 0.84375 0.96875q0.578125 0.34375 1.375 0.34375q0.703125 0 1.09375 -0.265625q0.40625 -0.28125 0.40625 -0.71875q0 -0.28125 -0.1875 -0.515625q-0.171875 -0.234375 -0.671875 -0.34375l-1.59375 -0.328125q-0.984375 -0.203125 -1.40625 -0.671875q-0.40625 -0.46875 -0.40625 -1.15625q0 -0.5468674 0.3125 -0.9999924q0.3125 -0.453125 0.890625 -0.71875q0.578125 -0.28125 1.359375 -0.28125q0.984375 0 1.65625 0.390625q0.6875 0.375 1.03125 1.09375l-0.90625 0.5781174q-0.21875 -0.5781174 -0.734375 -0.8437424q-0.5 -0.28125 -1.046875 -0.28125q-0.484375 0 -0.828125 0.140625q-0.328125 0.125 -0.515625 0.359375q-0.171875 0.234375 -0.171875 0.5156174q0 0.296875 0.203125 0.546875q0.203125 0.25 0.75 0.359375l1.65625 0.34375q0.9375 0.1875 1.3125 0.609375q0.375 0.421875 0.375 1.03125q0 0.640625 -0.34375 1.109375q-0.328125 0.46875 -0.9375 0.734375q-0.59375 0.25 -1.375 0.25zm5.758255 -8.937492l0 3.8124924l-0.15625 2.21875l-0.8125 0l-0.15625 -2.21875l0 -3.8124924l1.125 0zm-0.5625 7.2031174q0.390625 0 0.625 0.234375q0.234375 0.234375 0.234375 0.625q0 0.390625 -0.234375 0.640625q-0.234375 0.234375 -0.625 0.234375q-0.390625 0 -0.625 -0.234375q-0.234375 -0.25 -0.234375 -0.640625q0 -0.390625 0.234375 -0.625q0.234375 -0.234375 0.625 -0.234375z" fill-rule="nonzero"/><path fill="#ffffff" d="m94.00502 164.07689c0 -3.4906158 2.829712 -6.3203278 6.3203354 -6.3203278l96.08373 0c1.6762543 0 3.2838593 0.66589355 4.469162 1.851181c1.1852875 1.1852875 1.851181 2.7928925 1.851181 4.4691467l0 25.280594c0 3.490631 -2.829712 6.3203278 -6.320343 6.3203278l-96.08373 0c-3.4906235 0 -6.3203354 -2.8296967 -6.3203354 -6.3203278z" fill-rule="evenodd"/><path stroke="#000000" stroke-width="1.0" stroke-linejoin="round" stroke-linecap="butt" d="m94.00502 164.07689c0 -3.4906158 2.829712 -6.3203278 6.3203354 -6.3203278l96.08373 0c1.6762543 0 3.2838593 0.66589355 4.469162 1.851181c1.1852875 1.1852875 1.851181 2.7928925 1.851181 4.4691467l0 25.280594c0 3.490631 -2.829712 6.3203278 -6.320343 6.3203278l-96.08373 0c-3.4906235 0 -6.3203354 -2.8296967 -6.3203354 -6.3203278z" fill-rule="evenodd"/><path fill="#000000" d="m115.9507 180.9078l-0.1875 -0.390625l6.140625 0l0 1.0l-6.90625 0l0 -0.953125l5.78125 -7.234375l0.1875 0.390625l-5.84375 0l0 -1.0l6.609375 0l0 0.953125l-5.78125 7.234375zm15.021683 -8.1875l-3.84375 3.9375l-0.15625 0.171875l-2.359375 2.40625l0 -1.4375l4.96875 -5.078125l1.390625 0zm-5.828125 0l0 8.796875l-1.0625 0l0 -8.796875l1.0625 0zm2.09375 3.25l3.78125 5.546875l-1.28125 0l-3.375 -4.9375l0.875 -0.609375zm8.929886 1.515625l0 1.09375l-4.390625 0l0 -1.09375l4.390625 0zm5.7504425 -4.765625q0.890625 0 1.546875 0.328125q0.65625 0.328125 1.03125 0.9375q0.375 0.59375 0.375 1.40625q0 0.828125 -0.375 1.4375q-0.375 0.59375 -1.03125 0.921875q-0.65625 0.328125 -1.546875 0.328125l-2.046875 0l0 3.4375l-1.0625 0l0 -8.796875l3.109375 0zm-0.15625 4.359375q1.03125 0 1.515625 -0.421875q0.484375 -0.4375 0.484375 -1.265625q0 -0.8125 -0.484375 -1.234375q-0.484375 -0.4375 -1.515625 -0.4375l-1.890625 0l0 3.359375l1.890625 0zm4.973877 4.4375l0 -6.65625l0.875 0l0.140625 1.078125q0.28125 -0.609375 0.8125 -0.90625q0.546875 -0.3125 1.328125 -0.3125q0.171875 0 0.375 0.03125q0.203125 0.015625 0.359375 0.109375l-0.1875 0.96875q-0.15625 -0.0625 -0.328125 -0.078125q-0.171875 -0.03125 -0.484375 -0.03125q-0.421875 0 -0.84375 0.25q-0.421875 0.234375 -0.703125 0.71875q-0.265625 0.484375 -0.265625 1.234375l0 3.59375l-1.078125 0zm7.990143 -6.796875q0.9375 0 1.65625 0.421875q0.734375 0.40625 1.140625 1.1875q0.421875 0.78125 0.421875 1.859375q0 1.078125 -0.421875 1.859375q-0.40625 0.78125 -1.140625 1.203125q-0.71875 0.40625 -1.65625 0.40625q-0.9375 0 -1.671875 -0.40625q-0.734375 -0.421875 -1.15625 -1.203125q-0.40625 -0.78125 -0.40625 -1.859375q0 -1.078125 0.40625 -1.859375q0.421875 -0.78125 1.15625 -1.1875q0.734375 -0.421875 1.671875 -0.421875zm0 0.921875q-0.6875 0 -1.171875 0.3125q-0.46875 0.296875 -0.734375 0.875q-0.25 0.5625 -0.25 1.359375q0 0.78125 0.25 1.359375q0.265625 0.5625 0.734375 0.875q0.484375 0.3125 1.171875 0.3125q0.671875 0 1.15625 -0.3125q0.484375 -0.3125 0.734375 -0.875q0.265625 -0.578125 0.265625 -1.359375q0 -0.796875 -0.265625 -1.359375q-0.25 -0.578125 -0.734375 -0.875q-0.484375 -0.3125 -1.15625 -0.3125zm7.9968414 -0.921875q0.9375 0 1.65625 0.421875q0.734375 0.40625 1.140625 1.1875q0.421875 0.78125 0.421875 1.859375q0 1.078125 -0.421875 1.859375q-0.40625 0.78125 -1.140625 1.203125q-0.71875 0.40625 -1.65625 0.40625q-0.9375 0 -1.671875 -0.40625q-0.734375 -0.421875 -1.15625 -1.203125q-0.40625 -0.78125 -0.40625 -1.859375q0 -1.078125 0.40625 -1.859375q0.421875 -0.78125 1.15625 -1.1875q0.734375 -0.421875 1.671875 -0.421875zm0 0.921875q-0.6875 0 -1.171875 0.3125q-0.46875 0.296875 -0.734375 0.875q-0.25 0.5625 -0.25 1.359375q0 0.78125 0.25 1.359375q0.265625 0.5625 0.734375 0.875q0.484375 0.3125 1.171875 0.3125q0.671875 0 1.15625 -0.3125q0.484375 -0.3125 0.734375 -0.875q0.265625 -0.578125 0.265625 -1.359375q0 -0.796875 -0.265625 -1.359375q-0.25 -0.578125 -0.734375 -0.875q-0.484375 -0.3125 -1.15625 -0.3125zm7.8143463 -3.921875q0.359375 0 0.65625 0.078125q0.3125 0.078125 0.484375 0.234375l-0.28125 0.859375q-0.15625 -0.109375 -0.34375 -0.15625q-0.1875 -0.046875 -0.421875 -0.046875q-0.5625 0 -0.890625 0.28125q-0.3125 0.265625 -0.3125 0.875l0 1.015625l0 0.34375l0 6.3125l-1.0625 0l0 -7.78125q0 -0.4375 0.125 -0.8125q0.140625 -0.375 0.40625 -0.640625q0.28125 -0.265625 0.6875 -0.40625q0.421875 -0.15625 0.953125 -0.15625zm1.109375 3.140625l0 0.90625l-4.625 0l0 -0.90625l4.625 0zm3.8316803 6.796875q-0.96875 0 -1.796875 -0.40625q-0.8125 -0.421875 -1.25 -1.1875l0.90625 -0.65625q0.28125 0.609375 0.84375 0.96875q0.578125 0.34375 1.375 0.34375q0.703125 0 1.09375 -0.265625q0.40625 -0.28125 0.40625 -0.71875q0 -0.28125 -0.1875 -0.515625q-0.171875 -0.234375 -0.671875 -0.34375l-1.59375 -0.328125q-0.984375 -0.203125 -1.40625 -0.671875q-0.40625 -0.46875 -0.40625 -1.15625q0 -0.546875 0.3125 -1.0q0.3125 -0.453125 0.890625 -0.71875q0.578125 -0.28125 1.359375 -0.28125q0.984375 0 1.65625 0.390625q0.6875 0.375 1.03125 1.09375l-0.90625 0.578125q-0.21875 -0.578125 -0.734375 -0.84375q-0.5 -0.28125 -1.046875 -0.28125q-0.484375 0 -0.828125 0.140625q-0.328125 0.125 -0.515625 0.359375q-0.171875 0.234375 -0.171875 0.515625q0 0.296875 0.203125 0.546875q0.203125 0.25 0.75 0.359375l1.65625 0.34375q0.9375 0.1875 1.3125 0.609375q0.375 0.421875 0.375 1.03125q0 0.640625 -0.34375 1.109375q-0.328125 0.46875 -0.9375 0.734375q-0.59375 0.25 -1.375 0.25zm5.7582703 -8.9375l0 3.8125l-0.15625 2.21875l-0.8125 0l-0.15625 -2.21875l0 -3.8125l1.125 0zm-0.5625 7.203125q0.390625 0 0.625 0.234375q0.234375 0.234375 0.234375 0.625q0 0.390625 -0.234375 0.640625q-0.234375 0.234375 -0.625 0.234375q-0.390625 0 -0.625 -0.234375q-0.234375 -0.25 -0.234375 -0.640625q0 -0.390625 0.234375 -0.625q0.234375 -0.234375 0.625 -0.234375z" fill-rule="nonzero"/><path fill="#ffffff" d="m178.62477 211.67336c0 -3.490631 2.8296967 -6.320343 6.3203278 -6.320343l138.94989 0c1.676239 0 3.283844 0.66589355 4.4691467 1.8511963c1.1853027 1.1852875 1.8511658 2.7928925 1.8511658 4.4691467l0 25.280594c0 3.4906158 -2.829712 6.3203278 -6.3203125 6.3203278l-138.94989 0c-3.490631 0 -6.3203278 -2.829712 -6.3203278 -6.3203278z" fill-rule="evenodd"/><path stroke="#000000" stroke-width="1.0" stroke-linejoin="round" stroke-linecap="butt" d="m178.62477 211.67336c0 -3.490631 2.8296967 -6.320343 6.3203278 -6.320343l138.94989 0c1.676239 0 3.283844 0.66589355 4.4691467 1.8511963c1.1853027 1.1852875 1.8511658 2.7928925 1.8511658 4.4691467l0 25.280594c0 3.4906158 -2.829712 6.3203278 -6.3203125 6.3203278l-138.94989 0c-3.490631 0 -6.3203278 -2.829712 -6.3203278 -6.3203278z" fill-rule="evenodd"/><path fill="#000000" d="m209.33832 220.31677l0 8.796875l-1.3125 0l-3.6875 -5.890625l-0.9375 -1.65625l0 0l0.046875 1.34375l0 6.203125l-1.015625 0l0 -8.796875l1.328125 0l3.65625 5.859375l0.953125 1.703125l0.015625 0l-0.0625 -1.34375l0 -6.21875l1.015625 0zm5.363632 8.9375q-0.953125 0 -1.703125 -0.40625q-0.734375 -0.421875 -1.15625 -1.203125q-0.40625 -0.78125 -0.40625 -1.859375q0 -1.078125 0.40625 -1.859375q0.421875 -0.78125 1.140625 -1.1875q0.71875 -0.421875 1.640625 -0.421875q0.9375 0 1.59375 0.40625q0.65625 0.390625 1.0 1.078125q0.359375 0.6875 0.359375 1.546875q0 0.21875 -0.015625 0.40625q-0.015625 0.1875 -0.046875 0.328125l-5.375 0l0 -0.9375l4.921875 0l-0.546875 0.109375q0 -0.96875 -0.53125 -1.484375q-0.53125 -0.515625 -1.375 -0.515625q-0.65625 0 -1.140625 0.296875q-0.46875 0.296875 -0.734375 0.875q-0.25 0.5625 -0.25 1.359375q0 0.78125 0.265625 1.359375q0.265625 0.5625 0.75 0.875q0.484375 0.296875 1.171875 0.296875q0.734375 0 1.1875 -0.28125q0.46875 -0.28125 0.75 -0.765625l0.828125 0.5q-0.25 0.453125 -0.640625 0.78125q-0.390625 0.328125 -0.921875 0.515625q-0.53125 0.1875 -1.171875 0.1875zm13.092789 -6.796875l1.1875 0l-2.3125 6.65625l-1.078125 0l-1.875 -5.296875l-1.765625 5.296875l-1.078125 0l-2.3125 -6.65625l1.1875 0l1.671875 5.421875l1.8125 -5.421875l1.078125 0l1.8125 5.421875l1.671875 -5.421875zm14.331314 4.40625q-0.28125 0.75 -0.8125 1.296875q-0.515625 0.53125 -1.21875 0.8125q-0.6875 0.28125 -1.515625 0.28125q-1.25 0 -2.171875 -0.546875q-0.90625 -0.5625 -1.40625 -1.578125q-0.5 -1.015625 -0.5 -2.40625q0 -1.40625 0.5 -2.421875q0.5 -1.015625 1.40625 -1.5625q0.921875 -0.5625 2.140625 -0.5625q0.859375 0 1.515625 0.234375q0.671875 0.234375 1.140625 0.703125q0.484375 0.453125 0.765625 1.125l-1.0625 0.484375q-0.28125 -0.75 -0.84375 -1.140625q-0.546875 -0.40625 -1.4375 -0.40625q-0.890625 0 -1.578125 0.421875q-0.671875 0.421875 -1.046875 1.21875q-0.375 0.78125 -0.375 1.90625q0 1.09375 0.359375 1.890625q0.359375 0.796875 1.015625 1.21875q0.671875 0.421875 1.578125 0.421875q0.875 0 1.53125 -0.453125q0.65625 -0.453125 0.953125 -1.34375l1.0625 0.40625zm4.6118164 -4.546875q0.9375 0 1.65625 0.421875q0.734375 0.40625 1.140625 1.1875q0.421875 0.78125 0.421875 1.859375q0 1.078125 -0.421875 1.859375q-0.40625 0.78125 -1.140625 1.203125q-0.71875 0.40625 -1.65625 0.40625q-0.9375 0 -1.671875 -0.40625q-0.734375 -0.421875 -1.15625 -1.203125q-0.40625 -0.78125 -0.40625 -1.859375q0 -1.078125 0.40625 -1.859375q0.421875 -0.78125 1.15625 -1.1875q0.734375 -0.421875 1.671875 -0.421875zm0 0.921875q-0.6875 0 -1.171875 0.3125q-0.46875 0.296875 -0.734375 0.875q-0.25 0.5625 -0.25 1.359375q0 0.78125 0.25 1.359375q0.265625 0.5625 0.734375 0.875q0.484375 0.3125 1.171875 0.3125q0.671875 0 1.15625 -0.3125q0.484375 -0.3125 0.734375 -0.875q0.265625 -0.578125 0.265625 -1.359375q0 -0.796875 -0.265625 -1.359375q-0.25 -0.578125 -0.734375 -0.875q-0.484375 -0.3125 -1.15625 -0.3125zm5.2312164 5.875l0 -6.65625l0.9375 0l0.09375 1.484375l-0.171875 -0.140625q0.21875 -0.53125 0.578125 -0.859375q0.359375 -0.328125 0.828125 -0.46875q0.46875 -0.15625 0.984375 -0.15625q0.71875 0 1.296875 0.28125q0.59375 0.265625 0.9375 0.828125q0.359375 0.5625 0.359375 1.421875l0 4.265625l-1.0625 0l0 -3.890625q0 -1.109375 -0.484375 -1.53125q-0.46875 -0.4375 -1.15625 -0.4375q-0.484375 0 -0.96875 0.234375q-0.46875 0.21875 -0.78125 0.734375q-0.3125 0.5 -0.3125 1.34375l0 3.546875l-1.078125 0zm10.656342 0.140625q-0.96875 0 -1.796875 -0.40625q-0.8125 -0.421875 -1.25 -1.1875l0.90625 -0.65625q0.28125 0.609375 0.84375 0.96875q0.578125 0.34375 1.375 0.34375q0.703125 0 1.09375 -0.265625q0.40625 -0.28125 0.40625 -0.71875q0 -0.28125 -0.1875 -0.515625q-0.171875 -0.234375 -0.671875 -0.34375l-1.59375 -0.328125q-0.984375 -0.203125 -1.40625 -0.671875q-0.40625 -0.46875 -0.40625 -1.15625q0 -0.546875 0.3125 -1.0q0.3125 -0.453125 0.890625 -0.71875q0.578125 -0.28125 1.359375 -0.28125q0.984375 0 1.65625 0.390625q0.6875 0.375 1.03125 1.09375l-0.90625 0.578125q-0.21875 -0.578125 -0.734375 -0.84375q-0.5 -0.28125 -1.046875 -0.28125q-0.484375 0 -0.828125 0.140625q-0.328125 0.125 -0.515625 0.359375q-0.171875 0.234375 -0.171875 0.515625q0 0.296875 0.203125 0.546875q0.203125 0.25 0.75 0.359375l1.65625 0.34375q0.9375 0.1875 1.3125 0.609375q0.375 0.421875 0.375 1.03125q0 0.640625 -0.34375 1.109375q-0.328125 0.46875 -0.9375 0.734375q-0.59375 0.25 -1.375 0.25zm7.4145203 0q-0.953125 0 -1.703125 -0.40625q-0.734375 -0.421875 -1.15625 -1.203125q-0.40625 -0.78125 -0.40625 -1.859375q0 -1.078125 0.40625 -1.859375q0.421875 -0.78125 1.140625 -1.1875q0.71875 -0.421875 1.640625 -0.421875q0.9375 0 1.59375 0.40625q0.65625 0.390625 1.0 1.078125q0.359375 0.6875 0.359375 1.546875q0 0.21875 -0.015625 0.40625q-0.015625 0.1875 -0.046875 0.328125l-5.375 0l0 -0.9375l4.921875 0l-0.546875 0.109375q0 -0.96875 -0.53125 -1.484375q-0.53125 -0.515625 -1.375 -0.515625q-0.65625 0 -1.140625 0.296875q-0.46875 0.296875 -0.734375 0.875q-0.25 0.5625 -0.25 1.359375q0 0.78125 0.265625 1.359375q0.265625 0.5625 0.75 0.875q0.484375 0.296875 1.171875 0.296875q0.734375 0 1.1875 -0.28125q0.46875 -0.28125 0.75 -0.765625l0.828125 0.5q-0.25 0.453125 -0.640625 0.78125q-0.390625 0.328125 -0.921875 0.515625q-0.53125 0.1875 -1.171875 0.1875zm4.893402 -0.140625l0 -6.65625l0.9375 0l0.09375 1.484375l-0.171875 -0.140625q0.21875 -0.53125 0.578125 -0.859375q0.359375 -0.328125 0.828125 -0.46875q0.46875 -0.15625 0.984375 -0.15625q0.71875 0 1.296875 0.28125q0.59375 0.265625 0.9375 0.828125q0.359375 0.5625 0.359375 1.421875l0 4.265625l-1.0625 0l0 -3.890625q0 -1.109375 -0.484375 -1.53125q-0.46875 -0.4375 -1.15625 -0.4375q-0.484375 0 -0.96875 0.234375q-0.46875 0.21875 -0.78125 0.734375q-0.3125 0.5 -0.3125 1.34375l0 3.546875l-1.078125 0zm10.656342 0.140625q-0.96875 0 -1.796875 -0.40625q-0.8125 -0.421875 -1.25 -1.1875l0.90625 -0.65625q0.28125 0.609375 0.84375 0.96875q0.578125 0.34375 1.375 0.34375q0.703125 0 1.09375 -0.265625q0.40625 -0.28125 0.40625 -0.71875q0 -0.28125 -0.1875 -0.515625q-0.171875 -0.234375 -0.671875 -0.34375l-1.59375 -0.328125q-0.984375 -0.203125 -1.40625 -0.671875q-0.40625 -0.46875 -0.40625 -1.15625q0 -0.546875 0.3125 -1.0q0.3125 -0.453125 0.890625 -0.71875q0.578125 -0.28125 1.359375 -0.28125q0.984375 0 1.65625 0.390625q0.6875 0.375 1.03125 1.09375l-0.90625 0.578125q-0.21875 -0.578125 -0.734375 -0.84375q-0.5 -0.28125 -1.046875 -0.28125q-0.484375 0 -0.828125 0.140625q-0.328125 0.125 -0.515625 0.359375q-0.171875 0.234375 -0.171875 0.515625q0 0.296875 0.203125 0.546875q0.203125 0.25 0.75 0.359375l1.65625 0.34375q0.9375 0.1875 1.3125 0.609375q0.375 0.421875 0.375 1.03125q0 0.640625 -0.34375 1.109375q-0.328125 0.46875 -0.9375 0.734375q-0.59375 0.25 -1.375 0.25zm7.0395203 0q-0.640625 0 -1.21875 -0.234375q-0.5625 -0.25 -0.921875 -0.78125q-0.34375 -0.546875 -0.34375 -1.421875l0 -4.359375l1.0625 0l0 4.078125q0 1.015625 0.4375 1.40625q0.453125 0.375 1.25 0.375q0.375 0 0.734375 -0.125q0.359375 -0.125 0.640625 -0.390625q0.28125 -0.28125 0.453125 -0.703125q0.171875 -0.4375 0.171875 -1.015625l0 -3.625l1.0625 0l0 6.65625l-0.9375 0l-0.0625 -1.015625q-0.34375 0.609375 -0.9375 0.890625q-0.59375 0.265625 -1.390625 0.265625zm8.207794 0q-0.96875 0 -1.796875 -0.40625q-0.8125 -0.421875 -1.25 -1.1875l0.90625 -0.65625q0.28125 0.609375 0.84375 0.96875q0.578125 0.34375 1.375 0.34375q0.703125 0 1.09375 -0.265625q0.40625 -0.28125 0.40625 -0.71875q0 -0.28125 -0.1875 -0.515625q-0.171875 -0.234375 -0.671875 -0.34375l-1.59375 -0.328125q-0.984375 -0.203125 -1.40625 -0.671875q-0.40625 -0.46875 -0.40625 -1.15625q0 -0.546875 0.3125 -1.0q0.3125 -0.453125 0.890625 -0.71875q0.578125 -0.28125 1.359375 -0.28125q0.984375 0 1.65625 0.390625q0.6875 0.375 1.03125 1.09375l-0.90625 0.578125q-0.21875 -0.578125 -0.734375 -0.84375q-0.5 -0.28125 -1.046875 -0.28125q-0.484375 0 -0.828125 0.140625q-0.328125 0.125 -0.515625 0.359375q-0.171875 0.234375 -0.171875 0.515625q0 0.296875 0.203125 0.546875q0.203125 0.25 0.75 0.359375l1.65625 0.34375q0.9375 0.1875 1.3125 0.609375q0.375 0.421875 0.375 1.03125q0 0.640625 -0.34375 1.109375q-0.328125 0.46875 -0.9375 0.734375q-0.59375 0.25 -1.375 0.25zm5.7582703 -8.9375l0 3.8125l-0.15625 2.21875l-0.8125 0l-0.15625 -2.21875l0 -3.8125l1.125 0zm-0.5625 7.203125q0.390625 0 0.625 0.234375q0.234375 0.234375 0.234375 0.625q0 0.390625 -0.234375 0.640625q-0.234375 0.234375 -0.625 0.234375q-0.390625 0 -0.625 -0.234375q-0.234375 -0.25 -0.234375 -0.640625q0 -0.390625 0.234375 -0.625q0.234375 -0.234375 0.625 -0.234375z" fill-rule="nonzero"/><path fill="#ffffff" d="m94.00502 259.27112c0 -3.4906158 2.829712 -6.3203278 6.3203354 -6.3203278l111.89475 0c1.6762695 0 3.2838593 0.6658783 4.469162 1.851181c1.1852875 1.1852875 1.851181 2.7928772 1.851181 4.4691467l0 25.280579c0 3.490631 -2.829712 6.320343 -6.320343 6.320343l-111.89475 0c-3.4906235 0 -6.3203354 -2.829712 -6.3203354 -6.320343z" fill-rule="evenodd"/><path stroke="#000000" stroke-width="1.0" stroke-linejoin="round" stroke-linecap="butt" d="m94.00502 259.27112c0 -3.4906158 2.829712 -6.3203278 6.3203354 -6.3203278l111.89475 0c1.6762695 0 3.2838593 0.6658783 4.469162 1.851181c1.1852875 1.1852875 1.851181 2.7928772 1.851181 4.4691467l0 25.280579c0 3.490631 -2.829712 6.320343 -6.320343 6.320343l-111.89475 0c-3.4906235 0 -6.3203354 -2.829712 -6.3203354 -6.320343z" fill-rule="evenodd"/><path fill="#000000" d="m118.231384 268.91455l-5.09375 0l0 2.84375l3.984375 0l0 1.0l-3.984375 0l0 3.953125l-1.0625 0l0 -8.796875l6.15625 0l0 1.0zm4.9813843 3.484375q0 -0.734375 -0.40625 -1.140625q-0.390625 -0.40625 -1.125 -0.40625q-0.6875 0 -1.171875 0.296875q-0.46875 0.296875 -0.703125 0.96875l-0.859375 -0.53125q0.265625 -0.75 0.984375 -1.203125q0.71875 -0.46875 1.78125 -0.46875q0.71875 0 1.296875 0.25q0.59375 0.25 0.9375 0.75q0.34375 0.5 0.34375 1.28125l0 3.21875q0 0.484375 0.5 0.484375q0.25 0 0.5 -0.0625l-0.0625 0.828125q-0.265625 0.140625 -0.6875 0.140625q-0.390625 0 -0.703125 -0.140625q-0.296875 -0.15625 -0.46875 -0.453125q-0.171875 -0.296875 -0.171875 -0.75l0 -0.140625l0.265625 0.046875q-0.15625 0.515625 -0.546875 0.84375q-0.390625 0.328125 -0.875 0.484375q-0.46875 0.15625 -0.9375 0.15625q-0.59375 0 -1.109375 -0.203125q-0.5 -0.203125 -0.796875 -0.609375q-0.296875 -0.40625 -0.296875 -1.0q0 -0.75 0.5 -1.234375q0.5 -0.5 1.390625 -0.671875l2.640625 -0.515625l0 0.875l-2.140625 0.453125q-0.65625 0.125 -0.984375 0.375q-0.3125 0.234375 -0.3125 0.65625q0 0.421875 0.328125 0.6875q0.328125 0.25 0.921875 0.25q0.390625 0 0.734375 -0.09375q0.359375 -0.109375 0.640625 -0.3125q0.28125 -0.203125 0.4375 -0.515625q0.15625 -0.328125 0.15625 -0.75l0 -1.84375zm6.059311 4.453125q-0.96875 0 -1.796875 -0.40625q-0.8125 -0.421875 -1.25 -1.1875l0.90625 -0.65625q0.28125 0.609375 0.84375 0.96875q0.578125 0.34375 1.375 0.34375q0.703125 0 1.09375 -0.265625q0.40625 -0.28125 0.40625 -0.71875q0 -0.28125 -0.1875 -0.515625q-0.171875 -0.234375 -0.671875 -0.34375l-1.59375 -0.328125q-0.984375 -0.203125 -1.40625 -0.671875q-0.40625 -0.46875 -0.40625 -1.15625q0 -0.546875 0.3125 -1.0q0.3125 -0.453125 0.890625 -0.71875q0.578125 -0.28125 1.359375 -0.28125q0.984375 0 1.65625 0.390625q0.6875 0.375 1.03125 1.09375l-0.90625 0.578125q-0.21875 -0.578125 -0.734375 -0.84375q-0.5 -0.28125 -1.046875 -0.28125q-0.484375 0 -0.828125 0.140625q-0.328125 0.125 -0.515625 0.359375q-0.171875 0.234375 -0.171875 0.515625q0 0.296875 0.203125 0.546875q0.203125 0.25 0.75 0.359375l1.65625 0.34375q0.9375 0.1875 1.3125 0.609375q0.375 0.421875 0.375 1.03125q0 0.640625 -0.34375 1.109375q-0.328125 0.46875 -0.9375 0.734375q-0.59375 0.25 -1.375 0.25zm6.1957703 -8.703125l0 6.71875q0 0.5 0.28125 0.75q0.28125 0.234375 0.71875 0.234375q0.390625 0 0.671875 -0.140625q0.28125 -0.140625 0.5 -0.359375l0.375 0.890625q-0.3125 0.28125 -0.734375 0.453125q-0.40625 0.15625 -0.953125 0.15625q-0.515625 0 -0.953125 -0.1875q-0.4375 -0.1875 -0.703125 -0.578125q-0.25 -0.390625 -0.265625 -1.03125l0 -6.609375l1.0625 -0.296875zm2.421875 1.90625l0 0.90625l-4.828125 0l0 -0.90625l4.828125 0zm4.3813324 6.796875q-0.953125 0 -1.703125 -0.40625q-0.734375 -0.421875 -1.15625 -1.203125q-0.40625 -0.78125 -0.40625 -1.859375q0 -1.078125 0.40625 -1.859375q0.421875 -0.78125 1.140625 -1.1875q0.71875 -0.421875 1.640625 -0.421875q0.9375 0 1.59375 0.40625q0.65625 0.390625 1.0 1.078125q0.359375 0.6875 0.359375 1.546875q0 0.21875 -0.015625 0.40625q-0.015625 0.1875 -0.046875 0.328125l-5.375 0l0 -0.9375l4.921875 0l-0.546875 0.109375q0 -0.96875 -0.53125 -1.484375q-0.53125 -0.515625 -1.375 -0.515625q-0.65625 0 -1.140625 0.296875q-0.46875 0.296875 -0.734375 0.875q-0.25 0.5625 -0.25 1.359375q0 0.78125 0.265625 1.359375q0.265625 0.5625 0.75 0.875q0.484375 0.296875 1.171875 0.296875q0.734375 0 1.1875 -0.28125q0.46875 -0.28125 0.75 -0.765625l0.828125 0.5q-0.25 0.453125 -0.640625 0.78125q-0.390625 0.328125 -0.921875 0.515625q-0.53125 0.1875 -1.171875 0.1875zm4.8934174 -0.140625l0 -6.65625l0.875 0l0.140625 1.078125q0.28125 -0.609375 0.8125 -0.90625q0.546875 -0.3125 1.328125 -0.3125q0.171875 0 0.375 0.03125q0.203125 0.015625 0.359375 0.109375l-0.1875 0.96875q-0.15625 -0.0625 -0.328125 -0.078125q-0.171875 -0.03125 -0.484375 -0.03125q-0.421875 0 -0.84375 0.25q-0.421875 0.234375 -0.703125 0.71875q-0.265625 0.484375 -0.265625 1.234375l0 3.59375l-1.078125 0zm9.879181 0l0 -8.796875l3.140625 0q1.546875 0 2.265625 0.65625q0.734375 0.65625 0.734375 1.765625q0 0.671875 -0.390625 1.21875q-0.390625 0.53125 -1.09375 0.671875l0 0.015625q0.78125 0.15625 1.234375 0.71875q0.46875 0.5625 0.46875 1.28125q0 1.125 -0.84375 1.796875q-0.828125 0.671875 -2.390625 0.671875l-3.125 0zm1.0625 -1.0l2.3125 0q0.9375 0 1.390625 -0.375q0.46875 -0.390625 0.46875 -1.09375q0 -0.703125 -0.46875 -1.078125q-0.453125 -0.390625 -1.390625 -0.390625l-2.3125 0l0 2.9375zm0 -3.9375l2.078125 0q1.875 0 1.875 -1.4375q0 -1.421875 -1.875 -1.421875l-2.078125 0l0 2.859375zm8.453232 -4.796875l0 8.046875q0 0.5 0.1875 0.703125q0.1875 0.1875 0.59375 0.1875q0.28125 0 0.453125 -0.03125q0.171875 -0.046875 0.453125 -0.15625l-0.171875 0.9375q-0.203125 0.09375 -0.46875 0.140625q-0.25 0.046875 -0.515625 0.046875q-0.8125 0 -1.203125 -0.4375q-0.390625 -0.453125 -0.390625 -1.359375l0 -8.078125l1.0625 0zm5.8283844 2.9375q0.9375 0 1.65625 0.421875q0.734375 0.40625 1.140625 1.1875q0.421875 0.78125 0.421875 1.859375q0 1.078125 -0.421875 1.859375q-0.40625 0.78125 -1.140625 1.203125q-0.71875 0.40625 -1.65625 0.40625q-0.9375 0 -1.671875 -0.40625q-0.734375 -0.421875 -1.15625 -1.203125q-0.40625 -0.78125 -0.40625 -1.859375q0 -1.078125 0.40625 -1.859375q0.421875 -0.78125 1.15625 -1.1875q0.734375 -0.421875 1.671875 -0.421875zm0 0.921875q-0.6875 0 -1.171875 0.3125q-0.46875 0.296875 -0.734375 0.875q-0.25 0.5625 -0.25 1.359375q0 0.78125 0.25 1.359375q0.265625 0.5625 0.734375 0.875q0.484375 0.3125 1.171875 0.3125q0.671875 0 1.15625 -0.3125q0.484375 -0.3125 0.734375 -0.875q0.265625 -0.578125 0.265625 -1.359375q0 -0.796875 -0.265625 -1.359375q-0.25 -0.578125 -0.734375 -0.875q-0.484375 -0.3125 -1.15625 -0.3125zm7.9968414 -0.921875q0.6875 0 1.21875 0.21875q0.53125 0.203125 0.90625 0.609375q0.390625 0.390625 0.625 0.9375l-1.0 0.484375q-0.21875 -0.640625 -0.65625 -0.96875q-0.421875 -0.34375 -1.125 -0.34375q-0.65625 0 -1.140625 0.296875q-0.484375 0.296875 -0.734375 0.875q-0.25 0.5625 -0.25 1.359375q0 0.78125 0.25 1.359375q0.25 0.5625 0.734375 0.875q0.484375 0.296875 1.140625 0.296875q0.515625 0 0.890625 -0.15625q0.390625 -0.171875 0.640625 -0.46875q0.25 -0.3125 0.34375 -0.75l0.984375 0.34375q-0.234375 0.609375 -0.625 1.0625q-0.390625 0.4375 -0.953125 0.671875q-0.546875 0.234375 -1.25 0.234375q-0.9375 0 -1.671875 -0.40625q-0.734375 -0.421875 -1.15625 -1.203125q-0.40625 -0.78125 -0.40625 -1.859375q0 -1.078125 0.40625 -1.859375q0.421875 -0.78125 1.15625 -1.1875q0.734375 -0.421875 1.671875 -0.421875zm10.55748 0.140625l-2.875 2.875l-0.265625 0.25l-2.1875 2.1875l0 -1.328125l3.984375 -3.984375l1.34375 0zm-4.78125 -3.078125l0 9.734375l-1.078125 0l0 -9.734375l1.078125 0zm2.0 5.40625l2.9375 4.328125l-1.296875 0l-2.546875 -3.734375l0.90625 -0.59375zm6.7384796 4.46875q-0.96875 0 -1.796875 -0.40625q-0.8125 -0.421875 -1.25 -1.1875l0.90625 -0.65625q0.28125 0.609375 0.84375 0.96875q0.578125 0.34375 1.375 0.34375q0.703125 0 1.09375 -0.265625q0.40625 -0.28125 0.40625 -0.71875q0 -0.28125 -0.1875 -0.515625q-0.171875 -0.234375 -0.671875 -0.34375l-1.59375 -0.328125q-0.984375 -0.203125 -1.40625 -0.671875q-0.40625 -0.46875 -0.40625 -1.15625q0 -0.546875 0.3125 -1.0q0.3125 -0.453125 0.890625 -0.71875q0.578125 -0.28125 1.359375 -0.28125q0.984375 0 1.65625 0.390625q0.6875 0.375 1.03125 1.09375l-0.90625 0.578125q-0.21875 -0.578125 -0.734375 -0.84375q-0.5 -0.28125 -1.046875 -0.28125q-0.484375 0 -0.828125 0.140625q-0.328125 0.125 -0.515625 0.359375q-0.171875 0.234375 -0.171875 0.515625q0 0.296875 0.203125 0.546875q0.203125 0.25 0.75 0.359375l1.65625 0.34375q0.9375 0.1875 1.3125 0.609375q0.375 0.421875 0.375 1.03125q0 0.640625 -0.34375 1.109375q-0.328125 0.46875 -0.9375 0.734375q-0.59375 0.25 -1.375 0.25zm5.7582703 -8.9375l0 3.8125l-0.15625 2.21875l-0.8125 0l-0.15625 -2.21875l0 -3.8125l1.125 0zm-0.5625 7.203125q0.390625 0 0.625 0.234375q0.234375 0.234375 0.234375 0.625q0 0.390625 -0.234375 0.640625q-0.234375 0.234375 -0.625 0.234375q-0.390625 0 -0.625 -0.234375q-0.234375 -0.25 -0.234375 -0.640625q0 -0.390625 0.234375 -0.625q0.234375 -0.234375 0.625 -0.234375z" fill-rule="nonzero"/><path fill="#ffffff" d="m242.0079 275.82166c0 -3.490631 2.829712 -6.320343 6.320343 -6.320343l47.54831 0c1.676239 0 3.283844 0.66589355 4.4691467 1.8511963c1.1853027 1.1852722 1.8511658 2.7928772 1.8511658 4.4691467l0 25.280579c0 3.490631 -2.829712 6.320343 -6.3203125 6.320343l-47.54831 0c-3.490631 0 -6.320343 -2.829712 -6.320343 -6.320343z" fill-rule="evenodd"/><path stroke="#000000" stroke-width="1.0" stroke-linejoin="round" stroke-linecap="butt" d="m242.0079 275.82166c0 -3.490631 2.829712 -6.320343 6.320343 -6.320343l47.54831 0c1.676239 0 3.283844 0.66589355 4.4691467 1.8511963c1.1853027 1.1852722 1.8511658 2.7928772 1.8511658 4.4691467l0 25.280579c0 3.490631 -2.829712 6.320343 -6.3203125 6.320343l-47.54831 0c-3.490631 0 -6.320343 -2.829712 -6.320343 -6.320343z" fill-rule="evenodd"/><path fill="#000000" d="m265.96622 284.46506l0 8.796875l-1.0 0l0 -5.53125l0.109375 -2.3125l-0.015625 0l-2.890625 7.84375l-0.90625 0l-2.890625 -7.84375l-0.015625 0l0.125 2.3125l0 5.53125l-1.015625 0l0 -8.796875l1.640625 0l1.9375 5.34375l0.65625 2.203125l0.03125 0l0.6875 -2.1875l1.90625 -5.359375l1.640625 0zm2.8821716 8.796875l0 -8.796875l6.171875 0l0 1.0l-5.109375 0l0 2.84375l3.984375 0l0 1.0l-3.984375 0l0 2.953125l5.3125 0l0 1.0l-6.375 0zm15.331451 -8.796875l-3.328125 8.796875l-1.21875 0l-3.34375 -8.796875l1.140625 0l2.25 6.078125l0.546875 1.75l0.5625 -1.734375l2.25 -6.09375l1.140625 0zm2.7459717 0l0 3.8125l-0.15625 2.21875l-0.8125 0l-0.15625 -2.21875l0 -3.8125l1.125 0zm-0.5625 7.203125q0.390625 0 0.625 0.234375q0.234375 0.234375 0.234375 0.625q0 0.390625 -0.234375 0.640625q-0.234375 0.234375 -0.625 0.234375q-0.390625 0 -0.625 -0.234375q-0.234375 -0.25 -0.234375 -0.640625q0 -0.390625 0.234375 -0.625q0.234375 -0.234375 0.625 -0.234375z" fill-rule="nonzero"/></g></svg>