<svg version="1.1" viewBox="0.0 0.0 1310.8556430446195 704.2992125984252" fill="none" stroke="none" stroke-linecap="square" stroke-miterlimit="10" xmlns:xlink="http://www.w3.org/1999/xlink" xmlns="http://www.w3.org/2000/svg"><clipPath id="p.0"><path d="m0 0l1310.8556 0l0 704.2992l-1310.8556 0l0 -704.2992z" clip-rule="nonzero"/></clipPath><g clip-path="url(#p.0)"><path fill="#140526" d="m0 0l1310.8556 0l0 704.2992l-1310.8556 0z" fill-rule="evenodd"/><path fill="#000000" fill-opacity="0.0" d="m124.43569 166.80875l0 0c0 -9.776062 7.9250717 -17.701141 17.701149 -17.701141l167.33786 0c4.694641 0 9.196991 1.8649445 12.516602 5.184555c3.3196106 3.3196106 5.18454 7.8219604 5.18454 12.516586l0 70.802444c0 9.776077 -7.925049 17.701141 -17.701141 17.701141l-167.33786 0c-9.776077 0 -17.701149 -7.925064 -17.701149 -17.701141z" fill-rule="evenodd"/><path stroke="#8d3aed" stroke-width="4.0" stroke-linejoin="round" stroke-linecap="butt" d="m124.43569 166.80875l0 0c0 -9.776062 7.9250717 -17.701141 17.701149 -17.701141l167.33786 0c4.694641 0 9.196991 1.8649445 12.516602 5.184555c3.3196106 3.3196106 5.18454 7.8219604 5.18454 12.516586l0 70.802444c0 9.776077 -7.925049 17.701141 -17.701141 17.701141l-167.33786 0c-9.776077 0 -17.701149 -7.925064 -17.701149 -17.701141z" fill-rule="evenodd"/><path fill="#efefef" d="m179.30107 196.81747q2.203125 0 3.421875 1.03125q1.234375 1.03125 1.234375 2.75q0 1.890625 -1.21875 2.875q-1.21875 0.984375 -3.421875 0.984375l-0.296875 0.171875l-2.4375 0l0 4.5l-3.15625 0l0 -12.3125l5.875 0zm-0.4375 5.546875q0.921875 0 1.390625 -0.375q0.46875 -0.375 0.46875 -1.203125q0 -0.796875 -0.46875 -1.171875q-0.46875 -0.375 -1.390625 -0.375l-2.28125 0l0 3.125l2.28125 0zm1.875 0.671875l3.9375 6.09375l-3.546875 0l-3.15625 -5.390625l2.765625 -0.703125zm9.7391205 6.28125q-1.546875 0 -2.671875 -0.578125q-1.125 -0.578125 -1.75 -1.65625q-0.609375 -1.09375 -0.609375 -2.625q0 -1.515625 0.609375 -2.59375q0.625 -1.09375 1.734375 -1.671875q1.109375 -0.578125 2.546875 -0.578125q1.46875 0 2.5 0.578125q1.03125 0.5625 1.578125 1.5625q0.546875 1.0 0.546875 2.28125q0 0.34375 -0.03125 0.6875q-0.015625 0.328125 -0.046875 0.546875l-7.390625 0l0 -1.703125l5.984375 0l-1.5 0.578125q0 -1.109375 -0.40625 -1.703125q-0.40625 -0.609375 -1.234375 -0.609375q-0.609375 0 -1.03125 0.28125q-0.40625 0.28125 -0.625 0.875q-0.21875 0.59375 -0.21875 1.53125q0 0.921875 0.234375 1.484375q0.25 0.5625 0.703125 0.828125q0.453125 0.25 1.078125 0.25q0.71875 0 1.125 -0.28125q0.421875 -0.28125 0.625 -0.78125l2.546875 0.828125q-0.265625 0.8125 -0.90625 1.359375q-0.640625 0.546875 -1.53125 0.828125q-0.890625 0.28125 -1.859375 0.28125zm9.380096 -13.46875l0 10.109375q0 0.609375 0.203125 0.875q0.21875 0.265625 0.703125 0.265625q0.28125 0 0.46875 -0.03125q0.1875 -0.046875 0.4375 -0.125l-0.203125 1.90625q-0.328125 0.203125 -0.875 0.328125q-0.546875 0.140625 -1.0625 0.140625q-1.5 0 -2.171875 -0.6875q-0.671875 -0.6875 -0.671875 -2.265625l0 -10.515625l3.171875 0zm8.328064 7.375q0 -0.65625 -0.375 -1.03125q-0.359375 -0.390625 -0.96875 -0.390625q-0.609375 0 -1.0625 0.3125q-0.4375 0.296875 -0.59375 1.078125l-2.6875 -0.625q0.265625 -1.34375 1.375 -2.140625q1.125 -0.8125 3.15625 -0.8125q1.359375 0 2.3125 0.40625q0.96875 0.390625 1.484375 1.1875q0.515625 0.796875 0.515625 1.953125l0 3.40625q0 0.734375 0.65625 0.734375q0.328125 0 0.53125 -0.078125l-0.1875 1.8125q-0.5625 0.265625 -1.359375 0.265625q-0.734375 0 -1.296875 -0.234375q-0.546875 -0.234375 -0.875 -0.703125q-0.3125 -0.484375 -0.3125 -1.21875l0 -0.109375l0.359375 -0.125q0 0.796875 -0.484375 1.34375q-0.46875 0.546875 -1.234375 0.8125q-0.75 0.25 -1.5625 0.25q-0.953125 0 -1.671875 -0.296875q-0.703125 -0.296875 -1.09375 -0.859375q-0.375 -0.578125 -0.375 -1.421875q0 -1.0 0.609375 -1.65625q0.609375 -0.671875 1.90625 -0.9375l3.53125 -0.71875l-0.015625 1.671875l-1.796875 0.375q-0.5625 0.109375 -0.828125 0.328125q-0.265625 0.21875 -0.265625 0.640625q0 0.40625 0.296875 0.625q0.296875 0.203125 0.703125 0.203125q0.328125 0 0.609375 -0.09375q0.296875 -0.09375 0.515625 -0.28125q0.21875 -0.203125 0.34375 -0.5q0.140625 -0.3125 0.140625 -0.71875l0 -2.453125zm14.376511 -3.421875l-3.390625 9.328125q-0.515625 1.46875 -1.140625 2.34375q-0.609375 0.890625 -1.453125 1.28125q-0.84375 0.390625 -2.015625 0.390625q-0.78125 0 -1.4375 -0.171875q-0.65625 -0.171875 -1.140625 -0.46875l0.640625 -2.140625q0.34375 0.234375 0.703125 0.328125q0.375 0.109375 0.953125 0.109375q0.546875 0 0.890625 -0.1875q0.34375 -0.171875 0.546875 -0.703125l0.25 -0.578125l-1.09375 -2.53125l-2.796875 -7.0l3.5 0l1.4375 5.3125l0.4375 1.984375l0.53125 -2.046875l1.4375 -5.25l3.140625 0zm17.194122 5.796875q-0.359375 1.296875 -1.140625 2.125q-0.78125 0.828125 -1.875 1.21875q-1.078125 0.375 -2.375 0.375q-1.875 0 -3.234375 -0.75q-1.359375 -0.765625 -2.09375 -2.171875q-0.71875 -1.421875 -0.71875 -3.421875q0 -2.0 0.71875 -3.40625q0.734375 -1.421875 2.09375 -2.171875q1.359375 -0.765625 3.203125 -0.765625q1.296875 0 2.375 0.375q1.078125 0.359375 1.828125 1.109375q0.75 0.734375 1.0625 1.90625l-2.8125 1.140625q-0.265625 -1.15625 -0.859375 -1.578125q-0.578125 -0.4375 -1.46875 -0.4375q-0.890625 0 -1.53125 0.4375q-0.640625 0.421875 -0.984375 1.28125q-0.34375 0.84375 -0.34375 2.109375q0 1.25 0.3125 2.109375q0.3125 0.859375 0.953125 1.296875q0.65625 0.421875 1.609375 0.421875q0.890625 0 1.515625 -0.5q0.625 -0.5 0.84375 -1.515625l2.921875 0.8125zm1.5642853 3.53125l0 -13.28125l3.171875 0l0 5.65625q0.40625 -0.9375 1.171875 -1.40625q0.765625 -0.484375 1.765625 -0.484375q0.984375 0 1.6875 0.375q0.71875 0.375 1.125 1.109375q0.421875 0.71875 0.421875 1.8125l0 6.21875l-3.171875 0l0 -5.328125q0 -1.015625 -0.375 -1.390625q-0.359375 -0.390625 -0.953125 -0.390625q-0.4375 0 -0.84375 0.234375q-0.390625 0.21875 -0.609375 0.703125q-0.21875 0.484375 -0.21875 1.265625l0 4.90625l-3.171875 0zm16.77002 -5.90625q0 -0.65625 -0.375 -1.03125q-0.359375 -0.390625 -0.96875 -0.390625q-0.609375 0 -1.0625153 0.3125q-0.4375 0.296875 -0.59375 1.078125l-2.6875 -0.625q0.265625 -1.34375 1.375 -2.140625q1.125 -0.8125 3.1562653 -0.8125q1.359375 0 2.3125 0.40625q0.96875 0.390625 1.484375 1.1875q0.515625 0.796875 0.515625 1.953125l0 3.40625q0 0.734375 0.65625 0.734375q0.328125 0 0.53125 -0.078125l-0.1875 1.8125q-0.5625 0.265625 -1.359375 0.265625q-0.734375 0 -1.296875 -0.234375q-0.546875 -0.234375 -0.875 -0.703125q-0.3125 -0.484375 -0.3125 -1.21875l0 -0.109375l0.359375 -0.125q0 0.796875 -0.484375 1.34375q-0.46875 0.546875 -1.234375 0.8125q-0.75 0.25 -1.5625153 0.25q-0.953125 0 -1.671875 -0.296875q-0.703125 -0.296875 -1.09375 -0.859375q-0.375 -0.578125 -0.375 -1.421875q0 -1.0 0.609375 -1.65625q0.609375 -0.671875 1.90625 -0.9375l3.5312653 -0.71875l-0.015625 1.671875l-1.796875 0.375q-0.5625 0.109375 -0.82814026 0.328125q-0.265625 0.21875 -0.265625 0.640625q0 0.40625 0.296875 0.625q0.29689026 0.203125 0.70314026 0.203125q0.328125 0 0.609375 -0.09375q0.296875 -0.09375 0.515625 -0.28125q0.21875 -0.203125 0.34375 -0.5q0.140625 -0.3125 0.140625 -0.71875l0 -2.453125zm7.1769714 -4.5q-0.96875 0 -1.40625 -0.359375q-0.4375 -0.375 -0.4375 -1.15625q0 -0.796875 0.4375 -1.15625q0.4375 -0.375 1.40625 -0.375q0.953125 0 1.40625 0.375q0.453125 0.359375 0.453125 1.15625q0 0.78125 -0.453125 1.15625q-0.453125 0.359375 -1.40625 0.359375zm1.59375 1.078125l0 9.328125l-3.171875 0l0 -9.328125l3.171875 0zm2.25708 9.328125l0 -9.328125l2.828125 0l0.171875 3.203125l-0.359375 -0.34375q0.1875 -1.015625 0.65625 -1.6875q0.484375 -0.671875 1.203125 -1.015625q0.71875 -0.34375 1.609375 -0.34375q0.984375 0 1.6875 0.375q0.71875 0.375 1.125 1.109375q0.421875 0.71875 0.421875 1.8125l0 6.21875l-3.171875 0l0 -5.375q0 -0.96875 -0.375 -1.34375q-0.375 -0.375 -0.953125 -0.375q-0.4375 0 -0.84375 0.21875q-0.390625 0.21875 -0.609375 0.6875q-0.21875 0.453125 -0.21875 1.25l0 4.9375l-3.171875 0z" fill-rule="nonzero"/><path fill="#000000" fill-opacity="0.0" d="m124.43569 414.51743l0 0c0 -9.776093 7.9250717 -17.701141 17.701149 -17.701141l167.33786 0c4.694641 0 9.196991 1.8649292 12.516602 5.18454c3.3196106 3.3196106 5.18454 7.8219604 5.18454 12.516602l0 70.80243c0 9.776062 -7.925049 17.701141 -17.701141 17.701141l-167.33786 0c-9.776077 0 -17.701149 -7.9250793 -17.701149 -17.701141z" fill-rule="evenodd"/><path stroke="#8d3aed" stroke-width="4.0" stroke-linejoin="round" stroke-linecap="butt" d="m124.43569 414.51743l0 0c0 -9.776093 7.9250717 -17.701141 17.701149 -17.701141l167.33786 0c4.694641 0 9.196991 1.8649292 12.516602 5.18454c3.3196106 3.3196106 5.18454 7.8219604 5.18454 12.516602l0 70.80243c0 9.776062 -7.925049 17.701141 -17.701141 17.701141l-167.33786 0c-9.776077 0 -17.701149 -7.9250793 -17.701149 -17.701141z" fill-rule="evenodd"/><path fill="#efefef" d="m186.89908 444.52612q1.515625 0 2.578125 0.484375q1.0625 0.484375 1.609375 1.40625q0.5625 0.90625 0.5625 2.21875q0 1.296875 -0.5625 2.21875q-0.546875 0.90625 -1.609375 1.390625q-1.0625 0.484375 -2.578125 0.484375l-2.4375 0l0 4.109375l-3.21875 0l0 -12.3125l5.65625 0zm-0.5 5.796875q1.0 0 1.515625 -0.40625q0.515625 -0.421875 0.515625 -1.28125q0 -0.859375 -0.515625 -1.28125q-0.515625 -0.421875 -1.515625 -0.421875l-1.9375 0l0 3.390625l1.9375 0zm12.290497 0.609375q0 -0.65625 -0.375 -1.03125q-0.359375 -0.390625 -0.96875 -0.390625q-0.609375 0 -1.0625 0.3125q-0.4375 0.296875 -0.59375 1.078125l-2.6875 -0.625q0.265625 -1.34375 1.375 -2.140625q1.125 -0.8125 3.15625 -0.8125q1.359375 0 2.3125 0.40625q0.96875 0.390625 1.484375 1.1875q0.515625 0.796875 0.515625 1.953125l0 3.40625q0 0.734375 0.65625 0.734375q0.328125 0 0.53125 -0.078125l-0.1875 1.8125q-0.5625 0.265625 -1.359375 0.265625q-0.734375 0 -1.296875 -0.234375q-0.546875 -0.234375 -0.875 -0.703125q-0.3125 -0.484375 -0.3125 -1.21875l0 -0.109375l0.359375 -0.125q0 0.796875 -0.484375 1.34375q-0.46875 0.546875 -1.234375 0.8125q-0.75 0.25 -1.5625 0.25q-0.953125 0 -1.671875 -0.296875q-0.703125 -0.296875 -1.09375 -0.859375q-0.375 -0.578125 -0.375 -1.421875q0 -1.0 0.609375 -1.65625q0.609375 -0.671875 1.90625 -0.9375l3.53125 -0.71875l-0.015625 1.671875l-1.796875 0.375q-0.5625 0.109375 -0.828125 0.328125q-0.265625 0.21875 -0.265625 0.640625q0 0.40625 0.296875 0.625q0.296875 0.203125 0.703125 0.203125q0.328125 0 0.609375 -0.09375q0.296875 -0.09375 0.515625 -0.28125q0.21875 -0.203125 0.34375 -0.5q0.140625 -0.3125 0.140625 -0.71875l0 -2.453125zm5.5988464 5.90625l0 -9.328125l2.796875 0l0.125 2.015625q0.359375 -1.046875 1.0625 -1.625q0.703125 -0.578125 1.78125 -0.578125q0.34375 0 0.59375 0.0625q0.265625 0.046875 0.40625 0.140625l-0.3125 2.609375q-0.1875 -0.0625 -0.484375 -0.109375q-0.28125 -0.046875 -0.6875 -0.046875q-0.5625 0 -1.046875 0.25q-0.484375 0.234375 -0.78125 0.71875q-0.28125 0.46875 -0.28125 1.1875l0 4.703125l-3.171875 0zm13.113312 -5.90625q0 -0.65625 -0.375 -1.03125q-0.359375 -0.390625 -0.96875 -0.390625q-0.609375 0 -1.0625 0.3125q-0.4375 0.296875 -0.59375 1.078125l-2.6875 -0.625q0.265625 -1.34375 1.375 -2.140625q1.125 -0.8125 3.15625 -0.8125q1.359375 0 2.3125 0.40625q0.96875 0.390625 1.484375 1.1875q0.515625 0.796875 0.515625 1.953125l0 3.40625q0 0.734375 0.65625 0.734375q0.328125 0 0.53125 -0.078125l-0.1875 1.8125q-0.5625 0.265625 -1.359375 0.265625q-0.734375 0 -1.296875 -0.234375q-0.546875 -0.234375 -0.875 -0.703125q-0.3125 -0.484375 -0.3125 -1.21875l0 -0.109375l0.359375 -0.125q0 0.796875 -0.484375 1.34375q-0.46875 0.546875 -1.234375 0.8125q-0.75 0.25 -1.5625 0.25q-0.953125 0 -1.671875 -0.296875q-0.703125 -0.296875 -1.09375 -0.859375q-0.375 -0.578125 -0.375 -1.421875q0 -1.0 0.609375 -1.65625q0.609375 -0.671875 1.90625 -0.9375l3.53125 -0.71875l-0.015625 1.671875l-1.796875 0.375q-0.5625 0.109375 -0.828125 0.328125q-0.265625 0.21875 -0.265625 0.640625q0 0.40625 0.296875 0.625q0.296875 0.203125 0.703125 0.203125q0.328125 0 0.609375 -0.09375q0.296875 -0.09375 0.515625 -0.28125q0.21875 -0.203125 0.34375 -0.5q0.140625 -0.3125 0.140625 -0.71875l0 -2.453125zm9.94606 -3.609375q1.421875 0 2.359375 0.40625q0.9375 0.390625 1.46875 1.0625q0.53125 0.65625 0.671875 1.421875l-2.9375 0.96875q-0.125 -0.796875 -0.46875 -1.1875q-0.34375 -0.40625 -1.0 -0.40625q-0.59375 0 -1.0 0.265625q-0.40625 0.265625 -0.609375 0.859375q-0.203125 0.578125 -0.203125 1.5q0 0.90625 0.21875 1.484375q0.234375 0.5625 0.640625 0.8125q0.40625 0.25 0.96875 0.25q0.46875 0 0.765625 -0.171875q0.3125 -0.171875 0.515625 -0.5q0.203125 -0.34375 0.265625 -0.828125l2.859375 0.90625q-0.140625 0.828125 -0.703125 1.46875q-0.5625 0.640625 -1.5 1.015625q-0.9375 0.375 -2.1875 0.375q-1.53125 0 -2.671875 -0.5625q-1.125 -0.578125 -1.75 -1.671875q-0.609375 -1.09375 -0.609375 -2.625q0 -1.515625 0.609375 -2.609375q0.625 -1.09375 1.734375 -1.65625q1.109375 -0.578125 2.5625 -0.578125zm6.1562195 9.515625l0 -13.28125l3.171875 0l0 5.65625q0.40625 -0.9375 1.171875 -1.40625q0.765625 -0.484375 1.765625 -0.484375q0.984375 0 1.6875 0.375q0.71875 0.375 1.125 1.109375q0.421875 0.71875 0.421875 1.8125l0 6.21875l-3.171875 0l0 -5.328125q0 -1.015625 -0.375 -1.390625q-0.359375 -0.390625 -0.953125 -0.390625q-0.4375 0 -0.84375 0.234375q-0.390625 0.21875 -0.609375 0.703125q-0.21875 0.484375 -0.21875 1.265625l0 4.90625l-3.171875 0zm16.770004 -5.90625q0 -0.65625 -0.375 -1.03125q-0.359375 -0.390625 -0.96875 -0.390625q-0.609375 0 -1.0625 0.3125q-0.4375 0.296875 -0.59375 1.078125l-2.6875 -0.625q0.265625 -1.34375 1.375 -2.140625q1.125 -0.8125 3.15625 -0.8125q1.359375 0 2.3125 0.40625q0.96875 0.390625 1.484375 1.1875q0.515625 0.796875 0.515625 1.953125l0 3.40625q0 0.734375 0.65625 0.734375q0.328125 0 0.53125 -0.078125l-0.1875 1.8125q-0.5625 0.265625 -1.359375 0.265625q-0.734375 0 -1.296875 -0.234375q-0.546875 -0.234375 -0.875 -0.703125q-0.3125 -0.484375 -0.3125 -1.21875l0 -0.109375l0.359375 -0.125q0 0.796875 -0.484375 1.34375q-0.46875 0.546875 -1.234375 0.8125q-0.75 0.25 -1.5625 0.25q-0.953125 0 -1.671875 -0.296875q-0.703125 -0.296875 -1.09375 -0.859375q-0.375 -0.578125 -0.375 -1.421875q0 -1.0 0.609375 -1.65625q0.609375 -0.671875 1.90625 -0.9375l3.53125 -0.71875l-0.015625 1.671875l-1.796875 0.375q-0.5625 0.109375 -0.828125 0.328125q-0.265625 0.21875 -0.265625 0.640625q0 0.40625 0.296875 0.625q0.296875 0.203125 0.703125 0.203125q0.328125 0 0.609375 -0.09375q0.296875 -0.09375 0.515625 -0.28125q0.21875 -0.203125 0.34375 -0.5q0.140625 -0.3125 0.140625 -0.71875l0 -2.453125zm7.1769714 -4.5q-0.96875 0 -1.40625 -0.359375q-0.4375 -0.375 -0.4375 -1.15625q0 -0.796875 0.4375 -1.15625q0.4375 -0.375 1.40625 -0.375q0.953125 0 1.40625 0.375q0.453125 0.359375 0.453125 1.15625q0 0.78125 -0.453125 1.15625q-0.453125 0.359375 -1.40625 0.359375zm1.59375 1.078125l0 9.328125l-3.171875 0l0 -9.328125l3.171875 0zm2.2571106 9.328125l0 -9.328125l2.828125 0l0.171875 3.203125l-0.359375 -0.34375q0.1875 -1.015625 0.65625 -1.6875q0.484375 -0.671875 1.203125 -1.015625q0.71875 -0.34375 1.609375 -0.34375q0.984375 0 1.6875 0.375q0.71875 0.375 1.125 1.109375q0.421875 0.71875 0.421875 1.8125l0 6.21875l-3.171875 0l0 -5.375q0 -0.96875 -0.375 -1.34375q-0.375 -0.375 -0.953125 -0.375q-0.4375 0 -0.84375 0.21875q-0.390625 0.21875 -0.609375 0.6875q-0.21875 0.453125 -0.21875 1.25l0 4.9375l-3.171875 0z" fill-rule="nonzero"/><path fill="#000000" fill-opacity="0.0" d="m225.80577 255.31233l0 141.51183" fill-rule="evenodd"/><path stroke="#8d3aed" stroke-width="4.0" stroke-linejoin="round" stroke-linecap="butt" d="m225.80577 255.31233l0 117.511826" fill-rule="evenodd"/><path fill="#8d3aed" stroke="#8d3aed" stroke-width="4.0" stroke-linecap="butt" d="m219.19884 372.82416l6.6069336 18.152374l6.6069336 -18.152374z" fill-rule="evenodd"/><path fill="#000000" fill-opacity="0.0" d="m512.6522 172.71689l0 0c0 -9.776062 7.92511 -17.701141 17.701172 -17.701141l167.33783 0c4.694641 0 9.1970215 1.8649445 12.516602 5.18454c3.319641 3.3196106 5.1845703 7.8219604 5.1845703 12.516602l0 70.802444c0 9.776062 -7.925049 17.701126 -17.701172 17.701126l-167.33783 0c-9.776062 0 -17.701172 -7.925064 -17.701172 -17.701126z" fill-rule="evenodd"/><path stroke="#8d3aed" stroke-width="4.0" stroke-linejoin="round" stroke-linecap="butt" d="m512.6522 172.71689l0 0c0 -9.776062 7.92511 -17.701141 17.701172 -17.701141l167.33783 0c4.694641 0 9.1970215 1.8649445 12.516602 5.18454c3.319641 3.3196106 5.1845703 7.8219604 5.1845703 12.516602l0 70.802444c0 9.776062 -7.925049 17.701126 -17.701172 17.701126l-167.33783 0c-9.776062 0 -17.701172 -7.925064 -17.701172 -17.701126z" fill-rule="evenodd"/><path fill="#efefef" d="m567.51764 202.7256q2.203125 0 3.421875 1.03125q1.234375 1.03125 1.234375 2.75q0 1.890625 -1.21875 2.875q-1.21875 0.984375 -3.421875 0.984375l-0.296875 0.171875l-2.4375 0l0 4.5l-3.15625 0l0 -12.3125l5.875 0zm-0.4375 5.546875q0.921875 0 1.390625 -0.375q0.46875 -0.375 0.46875 -1.203125q0 -0.796875 -0.46875 -1.171875q-0.46875 -0.375 -1.390625 -0.375l-2.28125 0l0 3.125l2.28125 0zm1.875 0.671875l3.9375 6.09375l-3.546875 0l-3.15625 -5.390625l2.765625 -0.703125zm9.739075 6.28125q-1.546875 0 -2.671875 -0.578125q-1.125 -0.578125 -1.75 -1.65625q-0.609375 -1.09375 -0.609375 -2.625q0 -1.515625 0.609375 -2.59375q0.625 -1.09375 1.734375 -1.671875q1.109375 -0.578125 2.546875 -0.578125q1.46875 0 2.5 0.578125q1.03125 0.5625 1.578125 1.5625q0.546875 1.0 0.546875 2.28125q0 0.34375 -0.03125 0.6875q-0.015625 0.328125 -0.046875 0.546875l-7.390625 0l0 -1.703125l5.984375 0l-1.5 0.578125q0 -1.109375 -0.40625 -1.703125q-0.40625 -0.609375 -1.234375 -0.609375q-0.609375 0 -1.03125 0.28125q-0.40625 0.28125 -0.625 0.875q-0.21875 0.59375 -0.21875 1.53125q0 0.921875 0.234375 1.484375q0.25 0.5625 0.703125 0.828125q0.453125 0.25 1.078125 0.25q0.71875 0 1.125 -0.28125q0.421875 -0.28125 0.625 -0.78125l2.546875 0.828125q-0.265625 0.8125 -0.90625 1.359375q-0.640625 0.546875 -1.53125 0.828125q-0.890625 0.28125 -1.859375 0.28125zm9.380127 -13.46875l0 10.109375q0 0.609375 0.203125 0.875q0.21875 0.265625 0.703125 0.265625q0.28125 0 0.46875 -0.03125q0.1875 -0.046875 0.4375 -0.125l-0.203125 1.90625q-0.328125 0.203125 -0.875 0.328125q-0.546875 0.140625 -1.0625 0.140625q-1.5 0 -2.171875 -0.6875q-0.671875 -0.6875 -0.671875 -2.265625l0 -10.515625l3.171875 0zm8.328064 7.375q0 -0.65625 -0.375 -1.03125q-0.359375 -0.390625 -0.96875 -0.390625q-0.609375 0 -1.0625 0.3125q-0.4375 0.296875 -0.59375 1.078125l-2.6875 -0.625q0.265625 -1.34375 1.375 -2.140625q1.125 -0.8125 3.15625 -0.8125q1.359375 0 2.3125 0.40625q0.96875 0.390625 1.484375 1.1875q0.515625 0.796875 0.515625 1.953125l0 3.40625q0 0.734375 0.65625 0.734375q0.328125 0 0.53125 -0.078125l-0.1875 1.8125q-0.5625 0.265625 -1.359375 0.265625q-0.734375 0 -1.296875 -0.234375q-0.546875 -0.234375 -0.875 -0.703125q-0.3125 -0.484375 -0.3125 -1.21875l0 -0.109375l0.359375 -0.125q0 0.796875 -0.484375 1.34375q-0.46875 0.546875 -1.234375 0.8125q-0.75 0.25 -1.5625 0.25q-0.953125 0 -1.671875 -0.296875q-0.703125 -0.296875 -1.09375 -0.859375q-0.375 -0.578125 -0.375 -1.421875q0 -1.0 0.609375 -1.65625q0.609375 -0.671875 1.90625 -0.9375l3.53125 -0.71875l-0.015625 1.671875l-1.796875 0.375q-0.5625 0.109375 -0.828125 0.328125q-0.265625 0.21875 -0.265625 0.640625q0 0.40625 0.296875 0.625q0.296875 0.203125 0.703125 0.203125q0.328125 0 0.609375 -0.09375q0.296875 -0.09375 0.515625 -0.28125q0.21875 -0.203125 0.34375 -0.5q0.140625 -0.3125 0.140625 -0.71875l0 -2.453125zm14.376526 -3.421875l-3.390625 9.328125q-0.515625 1.46875 -1.140625 2.34375q-0.609375 0.890625 -1.453125 1.28125q-0.84375 0.390625 -2.015625 0.390625q-0.78125 0 -1.4375 -0.171875q-0.65625 -0.171875 -1.140625 -0.46875l0.640625 -2.140625q0.34375 0.234375 0.703125 0.328125q0.375 0.109375 0.953125 0.109375q0.546875 0 0.890625 -0.1875q0.34375 -0.171875 0.546875 -0.703125l0.25 -0.578125l-1.09375 -2.53125l-2.796875 -7.0l3.5 0l1.4375 5.3125l0.4375 1.984375l0.53125 -2.046875l1.4375 -5.25l3.140625 0zm17.194092 5.796875q-0.359375 1.296875 -1.140625 2.125q-0.78125 0.828125 -1.875 1.21875q-1.078125 0.375 -2.375 0.375q-1.875 0 -3.234375 -0.75q-1.359375 -0.765625 -2.09375 -2.171875q-0.71875 -1.421875 -0.71875 -3.421875q0 -2.0 0.71875 -3.40625q0.734375 -1.421875 2.09375 -2.171875q1.359375 -0.765625 3.203125 -0.765625q1.296875 0 2.375 0.375q1.078125 0.359375 1.828125 1.109375q0.75 0.734375 1.0625 1.90625l-2.8125 1.140625q-0.265625 -1.15625 -0.859375 -1.578125q-0.578125 -0.4375 -1.46875 -0.4375q-0.890625 0 -1.53125 0.4375q-0.640625 0.421875 -0.984375 1.28125q-0.34375 0.84375 -0.34375 2.109375q0 1.25 0.3125 2.109375q0.3125 0.859375 0.953125 1.296875q0.65625 0.421875 1.609375 0.421875q0.890625 0 1.515625 -0.5q0.625 -0.5 0.84375 -1.515625l2.921875 0.8125zm1.56427 3.53125l0 -13.28125l3.171875 0l0 5.65625q0.40625 -0.9375 1.171875 -1.40625q0.765625 -0.484375 1.765625 -0.484375q0.984375 0 1.6875 0.375q0.71875 0.375 1.125 1.109375q0.421875 0.71875 0.421875 1.8125l0 6.21875l-3.171875 0l0 -5.328125q0 -1.015625 -0.375 -1.390625q-0.359375 -0.390625 -0.953125 -0.390625q-0.4375 0 -0.84375 0.234375q-0.390625 0.21875 -0.609375 0.703125q-0.21875 0.484375 -0.21875 1.265625l0 4.90625l-3.171875 0zm16.77002 -5.90625q0 -0.65625 -0.375 -1.03125q-0.359375 -0.390625 -0.96875 -0.390625q-0.609375 0 -1.0625 0.3125q-0.4375 0.296875 -0.59375 1.078125l-2.6875 -0.625q0.265625 -1.34375 1.375 -2.140625q1.125 -0.8125 3.15625 -0.8125q1.359375 0 2.3125 0.40625q0.96875 0.390625 1.484375 1.1875q0.515625 0.796875 0.515625 1.953125l0 3.40625q0 0.734375 0.65625 0.734375q0.328125 0 0.53125 -0.078125l-0.1875 1.8125q-0.5625 0.265625 -1.359375 0.265625q-0.734375 0 -1.296875 -0.234375q-0.546875 -0.234375 -0.875 -0.703125q-0.3125 -0.484375 -0.3125 -1.21875l0 -0.109375l0.359375 -0.125q0 0.796875 -0.484375 1.34375q-0.46875 0.546875 -1.234375 0.8125q-0.75 0.25 -1.5625 0.25q-0.953125 0 -1.671875 -0.296875q-0.703125 -0.296875 -1.09375 -0.859375q-0.375 -0.578125 -0.375 -1.421875q0 -1.0 0.609375 -1.65625q0.609375 -0.671875 1.90625 -0.9375l3.53125 -0.71875l-0.015625 1.671875l-1.796875 0.375q-0.5625 0.109375 -0.828125 0.328125q-0.265625 0.21875 -0.265625 0.640625q0 0.40625 0.296875 0.625q0.296875 0.203125 0.703125 0.203125q0.328125 0 0.609375 -0.09375q0.296875 -0.09375 0.515625 -0.28125q0.21875 -0.203125 0.34375 -0.5q0.140625 -0.3125 0.140625 -0.71875l0 -2.453125zm7.177002 -4.5q-0.96875 0 -1.40625 -0.359375q-0.4375 -0.375 -0.4375 -1.15625q0 -0.796875 0.4375 -1.15625q0.4375 -0.375 1.40625 -0.375q0.953125 0 1.40625 0.375q0.453125 0.359375 0.453125 1.15625q0 0.78125 -0.453125 1.15625q-0.453125 0.359375 -1.40625 0.359375zm1.59375 1.078125l0 9.328125l-3.171875 0l0 -9.328125l3.171875 0zm2.25708 9.328125l0 -9.328125l2.828125 0l0.171875 3.203125l-0.359375 -0.34375q0.1875 -1.015625 0.65625 -1.6875q0.484375 -0.671875 1.203125 -1.015625q0.71875 -0.34375 1.609375 -0.34375q0.984375 0 1.6875 0.375q0.71875 0.375 1.125 1.109375q0.421875 0.71875 0.421875 1.8125l0 6.21875l-3.171875 0l0 -5.375q0 -0.96875 -0.375 -1.34375q-0.375 -0.375 -0.953125 -0.375q-0.4375 0 -0.84375 0.21875q-0.390625 0.21875 -0.609375 0.6875q-0.21875 0.453125 -0.21875 1.25l0 4.9375l-3.171875 0z" fill-rule="nonzero"/><path fill="#000000" fill-opacity="0.0" d="m512.6522 420.42554l0 0c0 -9.776062 7.92511 -17.701141 17.701172 -17.701141l167.33783 0c4.694641 0 9.1970215 1.8649597 12.516602 5.1845703c3.319641 3.3196106 5.1845703 7.8219604 5.1845703 12.516571l0 70.80246c0 9.776062 -7.925049 17.701141 -17.701172 17.701141l-167.33783 0c-9.776062 0 -17.701172 -7.9250793 -17.701172 -17.701141z" fill-rule="evenodd"/><path stroke="#8d3aed" stroke-width="4.0" stroke-linejoin="round" stroke-linecap="butt" d="m512.6522 420.42554l0 0c0 -9.776062 7.92511 -17.701141 17.701172 -17.701141l167.33783 0c4.694641 0 9.1970215 1.8649597 12.516602 5.1845703c3.319641 3.3196106 5.1845703 7.8219604 5.1845703 12.516571l0 70.80246c0 9.776062 -7.925049 17.701141 -17.701172 17.701141l-167.33783 0c-9.776062 0 -17.701172 -7.9250793 -17.701172 -17.701141z" fill-rule="evenodd"/><path fill="#efefef" d="m575.1156 450.43427q1.515625 0 2.578125 0.484375q1.0625 0.484375 1.609375 1.40625q0.5625 0.90625 0.5625 2.21875q0 1.296875 -0.5625 2.21875q-0.546875 0.90625 -1.609375 1.390625q-1.0625 0.484375 -2.578125 0.484375l-2.4375 0l0 4.109375l-3.21875 0l0 -12.3125l5.65625 0zm-0.5 5.796875q1.0 0 1.515625 -0.40625q0.515625 -0.421875 0.515625 -1.28125q0 -0.859375 -0.515625 -1.28125q-0.515625 -0.421875 -1.515625 -0.421875l-1.9375 0l0 3.390625l1.9375 0zm12.290527 0.609375q0 -0.65625 -0.375 -1.03125q-0.359375 -0.390625 -0.96875 -0.390625q-0.609375 0 -1.0625 0.3125q-0.4375 0.296875 -0.59375 1.078125l-2.6875 -0.625q0.265625 -1.34375 1.375 -2.140625q1.125 -0.8125 3.15625 -0.8125q1.359375 0 2.3125 0.40625q0.96875 0.390625 1.484375 1.1875q0.515625 0.796875 0.515625 1.953125l0 3.40625q0 0.734375 0.65625 0.734375q0.328125 0 0.53125 -0.078125l-0.1875 1.8125q-0.5625 0.265625 -1.359375 0.265625q-0.734375 0 -1.296875 -0.234375q-0.546875 -0.234375 -0.875 -0.703125q-0.3125 -0.484375 -0.3125 -1.21875l0 -0.109375l0.359375 -0.125q0 0.796875 -0.484375 1.34375q-0.46875 0.546875 -1.234375 0.8125q-0.75 0.25 -1.5625 0.25q-0.953125 0 -1.671875 -0.296875q-0.703125 -0.296875 -1.09375 -0.859375q-0.375 -0.578125 -0.375 -1.421875q0 -1.0 0.609375 -1.65625q0.609375 -0.671875 1.90625 -0.9375l3.53125 -0.71875l-0.015625 1.671875l-1.796875 0.375q-0.5625 0.109375 -0.828125 0.328125q-0.265625 0.21875 -0.265625 0.640625q0 0.40625 0.296875 0.625q0.296875 0.203125 0.703125 0.203125q0.328125 0 0.609375 -0.09375q0.296875 -0.09375 0.515625 -0.28125q0.21875 -0.203125 0.34375 -0.5q0.140625 -0.3125 0.140625 -0.71875l0 -2.453125zm5.598816 5.90625l0 -9.328125l2.796875 0l0.125 2.015625q0.359375 -1.046875 1.0625 -1.625q0.703125 -0.578125 1.78125 -0.578125q0.34375 0 0.59375 0.0625q0.265625 0.046875 0.40625 0.140625l-0.3125 2.609375q-0.1875 -0.0625 -0.484375 -0.109375q-0.28125 -0.046875 -0.6875 -0.046875q-0.5625 0 -1.046875 0.25q-0.484375 0.234375 -0.78125 0.71875q-0.28125 0.46875 -0.28125 1.1875l0 4.703125l-3.171875 0zm13.113342 -5.90625q0 -0.65625 -0.375 -1.03125q-0.359375 -0.390625 -0.96875 -0.390625q-0.609375 0 -1.0625 0.3125q-0.4375 0.296875 -0.59375 1.078125l-2.6875 -0.625q0.265625 -1.34375 1.375 -2.140625q1.125 -0.8125 3.15625 -0.8125q1.359375 0 2.3125 0.40625q0.96875 0.390625 1.484375 1.1875q0.515625 0.796875 0.515625 1.953125l0 3.40625q0 0.734375 0.65625 0.734375q0.328125 0 0.53125 -0.078125l-0.1875 1.8125q-0.5625 0.265625 -1.359375 0.265625q-0.734375 0 -1.296875 -0.234375q-0.546875 -0.234375 -0.875 -0.703125q-0.3125 -0.484375 -0.3125 -1.21875l0 -0.109375l0.359375 -0.125q0 0.796875 -0.484375 1.34375q-0.46875 0.546875 -1.234375 0.8125q-0.75 0.25 -1.5625 0.25q-0.953125 0 -1.671875 -0.296875q-0.703125 -0.296875 -1.09375 -0.859375q-0.375 -0.578125 -0.375 -1.421875q0 -1.0 0.609375 -1.65625q0.609375 -0.671875 1.90625 -0.9375l3.53125 -0.71875l-0.015625 1.671875l-1.796875 0.375q-0.5625 0.109375 -0.828125 0.328125q-0.265625 0.21875 -0.265625 0.640625q0 0.40625 0.296875 0.625q0.296875 0.203125 0.703125 0.203125q0.328125 0 0.609375 -0.09375q0.296875 -0.09375 0.515625 -0.28125q0.21875 -0.203125 0.34375 -0.5q0.140625 -0.3125 0.140625 -0.71875l0 -2.453125zm9.946045 -3.609375q1.421875 0 2.359375 0.40625q0.9375 0.390625 1.46875 1.0625q0.53125 0.65625 0.671875 1.421875l-2.9375 0.96875q-0.125 -0.796875 -0.46875 -1.1875q-0.34375 -0.40625 -1.0 -0.40625q-0.59375 0 -1.0 0.265625q-0.40625 0.265625 -0.609375 0.859375q-0.203125 0.578125 -0.203125 1.5q0 0.90625 0.21875 1.484375q0.234375 0.5625 0.640625 0.8125q0.40625 0.25 0.96875 0.25q0.46875 0 0.765625 -0.171875q0.3125 -0.171875 0.515625 -0.5q0.203125 -0.34375 0.265625 -0.828125l2.859375 0.90625q-0.140625 0.828125 -0.703125 1.46875q-0.5625 0.640625 -1.5 1.015625q-0.9375 0.375 -2.1875 0.375q-1.53125 0 -2.671875 -0.5625q-1.125 -0.578125 -1.75 -1.671875q-0.609375 -1.09375 -0.609375 -2.625q0 -1.515625 0.609375 -2.609375q0.625 -1.09375 1.734375 -1.65625q1.109375 -0.578125 2.5625 -0.578125zm6.15625 9.515625l0 -13.28125l3.171875 0l0 5.65625q0.40625 -0.9375 1.171875 -1.40625q0.765625 -0.484375 1.765625 -0.484375q0.984375 0 1.6875 0.375q0.71875 0.375 1.125 1.109375q0.421875 0.71875 0.421875 1.8125l0 6.21875l-3.171875 0l0 -5.328125q0 -1.015625 -0.375 -1.390625q-0.359375 -0.390625 -0.953125 -0.390625q-0.4375 0 -0.84375 0.234375q-0.390625 0.21875 -0.609375 0.703125q-0.21875 0.484375 -0.21875 1.265625l0 4.90625l-3.171875 0zm16.769958 -5.90625q0 -0.65625 -0.375 -1.03125q-0.359375 -0.390625 -0.96875 -0.390625q-0.609375 0 -1.0625 0.3125q-0.4375 0.296875 -0.59375 1.078125l-2.6875 -0.625q0.265625 -1.34375 1.375 -2.140625q1.125 -0.8125 3.15625 -0.8125q1.359375 0 2.3125 0.40625q0.96875 0.390625 1.484375 1.1875q0.515625 0.796875 0.515625 1.953125l0 3.40625q0 0.734375 0.65625 0.734375q0.328125 0 0.53125 -0.078125l-0.1875 1.8125q-0.5625 0.265625 -1.359375 0.265625q-0.734375 0 -1.296875 -0.234375q-0.546875 -0.234375 -0.875 -0.703125q-0.3125 -0.484375 -0.3125 -1.21875l0 -0.109375l0.359375 -0.125q0 0.796875 -0.484375 1.34375q-0.46875 0.546875 -1.234375 0.8125q-0.75 0.25 -1.5625 0.25q-0.953125 0 -1.671875 -0.296875q-0.703125 -0.296875 -1.09375 -0.859375q-0.375 -0.578125 -0.375 -1.421875q0 -1.0 0.609375 -1.65625q0.609375 -0.671875 1.90625 -0.9375l3.53125 -0.71875l-0.015625 1.671875l-1.796875 0.375q-0.5625 0.109375 -0.828125 0.328125q-0.265625 0.21875 -0.265625 0.640625q0 0.40625 0.296875 0.625q0.296875 0.203125 0.703125 0.203125q0.328125 0 0.609375 -0.09375q0.296875 -0.09375 0.515625 -0.28125q0.21875 -0.203125 0.34375 -0.5q0.140625 -0.3125 0.140625 -0.71875l0 -2.453125zm7.177002 -4.5q-0.96875 0 -1.40625 -0.359375q-0.4375 -0.375 -0.4375 -1.15625q0 -0.796875 0.4375 -1.15625q0.4375 -0.375 1.40625 -0.375q0.953125 0 1.40625 0.375q0.453125 0.359375 0.453125 1.15625q0 0.78125 -0.453125 1.15625q-0.453125 0.359375 -1.40625 0.359375zm1.59375 1.078125l0 9.328125l-3.171875 0l0 -9.328125l3.171875 0zm2.25708 9.328125l0 -9.328125l2.828125 0l0.171875 3.203125l-0.359375 -0.34375q0.1875 -1.015625 0.65625 -1.6875q0.484375 -0.671875 1.203125 -1.015625q0.71875 -0.34375 1.609375 -0.34375q0.984375 0 1.6875 0.375q0.71875 0.375 1.125 1.109375q0.421875 0.71875 0.421875 1.8125l0 6.21875l-3.171875 0l0 -5.375q0 -0.96875 -0.375 -1.34375q-0.375 -0.375 -0.953125 -0.375q-0.4375 0 -0.84375 0.21875q-0.390625 0.21875 -0.609375 0.6875q-0.21875 0.453125 -0.21875 1.25l0 4.9375l-3.171875 0z" fill-rule="nonzero"/><path fill="#000000" fill-opacity="0.0" d="m614.02234 261.22046l0 141.51181" fill-rule="evenodd"/><path stroke="#8d3aed" stroke-width="4.0" stroke-linejoin="round" stroke-linecap="butt" d="m614.02234 285.22046l0 117.51181" fill-rule="evenodd"/><path fill="#8d3aed" stroke="#8d3aed" stroke-width="4.0" stroke-linecap="butt" d="m620.6292 285.22046l-6.6068726 -18.152374l-6.6069336 18.152374z" fill-rule="evenodd"/><path fill="#000000" fill-opacity="0.0" d="m387.24933 2.448819l-2.1417236 699.4016" fill-rule="evenodd"/><path stroke="#8d3aed" stroke-width="8.0" stroke-linejoin="round" stroke-linecap="butt" d="m387.24933 2.448819l-2.1417236 699.4016" fill-rule="evenodd"/><path fill="#000000" fill-opacity="0.0" d="m837.6063 2.448819l-2.1417847 699.4016" fill-rule="evenodd"/><path stroke="#8d3aed" stroke-width="8.0" stroke-linejoin="round" stroke-linecap="butt" d="m837.6063 2.448819l-2.1417847 699.4016" fill-rule="evenodd"/><path fill="#000000" fill-opacity="0.0" d="m48.272964 36.472443l296.8819 0l0 46.866142l-296.8819 0z" fill-rule="evenodd"/><path fill="#efefef" d="m65.272964 52.279316q3.515625 0 5.375 1.953125q1.875 1.9375 1.875 5.53125q0 3.578125 -1.875 5.531246q-1.859375 1.9375 -5.375 1.9375l-6.34375 0l0 -14.953121l6.34375 0zm-0.390625 12.015621q1.90625 0 2.78125 -1.1406212q0.875 -1.15625 0.875 -3.390625q0 -2.25 -0.875 -3.390625q-0.875 -1.140625 -2.78125 -1.140625l-2.0625 0l0 9.062496l2.0625 0zm15.439026 -8.609371q1.78125 0 3.125 0.6875q1.359375 0.6875 2.109375 2.015625q0.765625 1.328125 0.765625 3.1875q0 1.84375 -0.765625 3.1718712q-0.75 1.328125 -2.109375 2.015625q-1.34375 0.6875 -3.125 0.6875q-1.75 0 -3.109375 -0.6875q-1.359375 -0.6875 -2.125 -2.015625q-0.75 -1.3281212 -0.75 -3.1718712q0 -1.859375 0.75 -3.1875q0.765625 -1.328125 2.125 -2.015625q1.359375 -0.6875 3.109375 -0.6875zm0 2.734375q-0.671875 0 -1.140625 0.328125q-0.46875 0.3125 -0.71875 1.015625q-0.25 0.6875 -0.25 1.8125q0 1.109375 0.25 1.796875q0.25 0.6874962 0.71875 1.0156212q0.46875 0.328125 1.140625 0.328125q0.671875 0 1.140625 -0.328125q0.484375 -0.328125 0.734375 -1.0156212q0.25 -0.6875 0.25 -1.796875q0 -1.125 -0.25 -1.8125q-0.25 -0.703125 -0.734375 -1.015625q-0.46875 -0.328125 -1.140625 -0.328125zm22.713898 -2.515625l4.03125 0l-3.421875 11.328121l-4.609375 0l-2.0625 -6.953121l-2.0 6.953121l-4.59375 0l-3.453125 -11.328121l4.0625 0l1.90625 8.359371l2.21875 -8.359371l3.796875 0l2.203125 8.359371l1.921875 -8.359371zm5.546829 11.328121l0 -11.328121l3.453125 0l0.203125 3.890625l-0.4375 -0.421875q0.234375 -1.21875 0.8125 -2.03125q0.578125 -0.828125 1.4375 -1.234375q0.875 -0.421875 1.96875 -0.421875q1.171875 0 2.046875 0.453125q0.875 0.453125 1.375 1.34375q0.5 0.875 0.5 2.203125l0 7.546871l-3.859375 0l0 -6.531246q0 -1.171875 -0.453125 -1.625q-0.453125 -0.453125 -1.15625 -0.453125q-0.53125 0 -1.015625 0.265625q-0.46875 0.25 -0.75 0.828125q-0.265625 0.5625 -0.265625 1.515625l0 5.999996l-3.859375 0zm28.822601 -11.328121l4.03125 0l-3.421875 11.328121l-4.609375 0l-2.0625 -6.953121l-2.0 6.953121l-4.59375 0l-3.453125 -11.328121l4.0625 0l1.90625 8.359371l2.21875 -8.359371l3.796875 0l2.203125 8.359371l1.921875 -8.359371zm11.738953 4.140625q0 -0.78125 -0.453125 -1.25q-0.4375 -0.46875 -1.171875 -0.46875q-0.75 0 -1.28125 0.375q-0.53125 0.375 -0.734375 1.328125l-3.265625 -0.765625q0.3125 -1.640625 1.671875 -2.609375q1.359375 -0.96875 3.828125 -0.96875q1.65625 0 2.8125 0.484375q1.171875 0.484375 1.796875 1.453125q0.625 0.953125 0.625 2.359375l0 4.140621q0 0.890625 0.796875 0.890625q0.40625 0 0.65625 -0.09375l-0.234375 2.203125q-0.671875 0.3125 -1.65625 0.3125q-0.875 0 -1.5625 -0.28125q-0.671875 -0.28125 -1.0625 -0.859375q-0.375 -0.578125 -0.375 -1.46875l0 -0.125l0.421875 -0.171875q0 0.984375 -0.578125 1.640625q-0.578125 0.65625 -1.5 0.96875q-0.90625 0.3125 -1.90625 0.3125q-1.15625 0 -2.015625 -0.359375q-0.859375 -0.359375 -1.328125 -1.046875q-0.46875 -0.6875 -0.46875 -1.71875q0 -1.2187462 0.734375 -2.0156212q0.75 -0.8125 2.328125 -1.125l4.28125 -0.890625l-0.015625 2.046875l-2.171875 0.453125q-0.6875 0.140625 -1.015625 0.40625q-0.328125 0.25 -0.328125 0.765625q0 0.4999962 0.359375 0.7499962q0.359375 0.25 0.859375 0.25q0.390625 0 0.734375 -0.109375q0.359375 -0.109375 0.625 -0.34375q0.28125 -0.25 0.4375 -0.6093712q0.15625 -0.359375 0.15625 -0.859375l0 -3.0zm6.78981 7.187496l0 -11.328121l3.40625 0l0.15625 2.453125q0.4375 -1.28125 1.28125 -1.96875q0.84375 -0.703125 2.15625 -0.703125q0.4375 0 0.734375 0.0625q0.3125 0.0625 0.5 0.171875l-0.390625 3.171875q-0.21875 -0.078125 -0.578125 -0.140625q-0.34375 -0.0625 -0.84375 -0.0625q-0.6875 0 -1.28125 0.296875q-0.578125 0.296875 -0.9375 0.875q-0.34375 0.578125 -0.34375 1.46875l0 5.703121l-3.859375 0zm13.778046 0.21875q-1.40625 0 -2.46875 -0.6875q-1.046875 -0.6875 -1.625 -2.0q-0.5625 -1.3124962 -0.5625 -3.1562462q0 -1.890625 0.59375 -3.203125q0.59375 -1.328125 1.671875 -2.015625q1.078125 -0.703125 2.484375 -0.703125q1.546875 0 2.484375 0.9375q0.9375 0.9375 1.203125 2.390625l-0.359375 0.46875l0 -8.375l3.859375 0l0 16.124996l-3.453125 0l-0.25 -3.8437462l0.453125 0.328125q-0.125 1.1406212 -0.6875 1.9843712q-0.546875 0.828125 -1.40625 1.296875q-0.84375 0.453125 -1.9375 0.453125zm1.34375 -2.828125q0.65625 0 1.109375 -0.34375q0.46875 -0.3593712 0.71875 -1.0624962q0.25 -0.703125 0.25 -1.71875q0 -0.953125 -0.234375 -1.609375q-0.234375 -0.671875 -0.703125 -1.015625q-0.46875 -0.359375 -1.125 -0.359375q-1.0 0 -1.578125 0.734375q-0.578125 0.734375 -0.578125 2.328125q0 1.578125 0.5625 2.3125q0.578125 0.7343712 1.578125 0.7343712zm32.763245 -12.343746l0 14.953121l-3.453125 0l0 -6.859371l0.109375 -4.609375l-0.03125 0l-3.703125 11.468746l-3.140625 0l-3.703125 -11.468746l-0.046875 0l0.125 4.609375l0 6.859371l-3.46875 0l0 -14.953121l5.546875 0l2.359375 7.609375l0.84375 3.171875l0.03125 0l0.875 -3.140625l2.328125 -7.640625l5.328125 0zm8.486649 15.171871q-1.875 0 -3.25 -0.6875q-1.375 -0.703125 -2.125 -2.015625q-0.734375 -1.3281212 -0.734375 -3.1718712q0 -1.859375 0.734375 -3.171875q0.75 -1.328125 2.09375 -2.015625q1.359375 -0.703125 3.109375 -0.703125q1.78125 0 3.03125 0.6875q1.265625 0.6875 1.921875 1.90625q0.65625 1.203125 0.65625 2.765625q0 0.40625 -0.03125 0.8125q-0.015625 0.40625 -0.0625 0.6875l-8.96875 0l0 -2.0625l7.28125 0l-1.84375 0.703125q0 -1.359375 -0.484375 -2.078125q-0.484375 -0.734375 -1.5 -0.734375q-0.734375 0 -1.25 0.34375q-0.5 0.34375 -0.765625 1.0625q-0.25 0.71875 -0.25 1.859375q0 1.109375 0.28125 1.796875q0.296875 0.6874962 0.84375 0.9999962q0.546875 0.3125 1.3125 0.3125q0.859375 0 1.375 -0.34375q0.515625 -0.34375 0.765625 -0.9531212l3.078125 1.0156212q-0.328125 0.96875 -1.109375 1.640625q-0.78125 0.671875 -1.859375 1.015625q-1.0625 0.328125 -2.25 0.328125zm12.35231 0q-1.703125 0 -3.171875 -0.546875q-1.453125 -0.5625 -2.40625 -1.59375l1.8125 -2.1406212q0.5625 0.734375 1.5 1.2187462q0.953125 0.484375 2.109375 0.484375q0.703125 0 1.15625 -0.203125q0.453125 -0.203125 0.453125 -0.625q0 -0.3281212 -0.234375 -0.5156212q-0.21875 -0.1875 -0.90625 -0.328125l-1.578125 -0.3125q-2.140625 -0.4375 -3.03125 -1.28125q-0.890625 -0.859375 -0.890625 -2.234375q0 -0.9375 0.5625 -1.78125q0.5625 -0.84375 1.734375 -1.375q1.1875 -0.53125 3.03125 -0.53125q1.71875 0 3.03125 0.5q1.3125 0.484375 2.078125 1.4375l-1.828125 2.09375q-0.546875 -0.6875 -1.40625 -1.0625q-0.859375 -0.390625 -1.71875 -0.390625q-0.546875 0 -0.921875 0.109375q-0.375 0.09375 -0.5625 0.28125q-0.171875 0.171875 -0.171875 0.4375q0 0.296875 0.28125 0.515625q0.28125 0.21875 1.046875 0.375l2.0625 0.40625q1.75 0.3125 2.515625 1.15625q0.78125 0.84375 0.78125 2.015625q0 1.1093712 -0.59375 1.9999962q-0.59375 0.875 -1.78125 1.390625q-1.171875 0.5 -2.953125 0.5zm12.07576 0q-1.703125 0 -3.171875 -0.546875q-1.453125 -0.5625 -2.40625 -1.59375l1.8125 -2.1406212q0.5625 0.734375 1.5 1.2187462q0.953125 0.484375 2.109375 0.484375q0.703125 0 1.15625 -0.203125q0.453125 -0.203125 0.453125 -0.625q0 -0.3281212 -0.234375 -0.5156212q-0.21875 -0.1875 -0.90625 -0.328125l-1.578125 -0.3125q-2.140625 -0.4375 -3.03125 -1.28125q-0.890625 -0.859375 -0.890625 -2.234375q0 -0.9375 0.5625 -1.78125q0.5625 -0.84375 1.734375 -1.375q1.1875 -0.53125 3.03125 -0.53125q1.71875 0 3.03125 0.5q1.3125 0.484375 2.078125 1.4375l-1.828125 2.09375q-0.546875 -0.6875 -1.40625 -1.0625q-0.859375 -0.390625 -1.71875 -0.390625q-0.546875 0 -0.921875 0.109375q-0.375 0.09375 -0.5625 0.28125q-0.171875 0.171875 -0.171875 0.4375q0 0.296875 0.28125 0.515625q0.28125 0.21875 1.046875 0.375l2.0625 0.40625q1.75 0.3125 2.515625 1.15625q0.78125 0.84375 0.78125 2.015625q0 1.1093712 -0.59375 1.9999962q-0.59375 0.875 -1.78125 1.390625q-1.171875 0.5 -2.953125 0.5zm13.63826 -7.406246q0 -0.78125 -0.453125 -1.25q-0.4375 -0.46875 -1.171875 -0.46875q-0.75 0 -1.28125 0.375q-0.53125 0.375 -0.734375 1.328125l-3.265625 -0.765625q0.3125 -1.640625 1.671875 -2.609375q1.359375 -0.96875 3.828125 -0.96875q1.65625 0 2.8125 0.484375q1.171875 0.484375 1.796875 1.453125q0.625 0.953125 0.625 2.359375l0 4.140621q0 0.890625 0.796875 0.890625q0.40625 0 0.65625 -0.09375l-0.234375 2.203125q-0.671875 0.3125 -1.65625 0.3125q-0.875 0 -1.5625 -0.28125q-0.671875 -0.28125 -1.0625 -0.859375q-0.375 -0.578125 -0.375 -1.46875l0 -0.125l0.421875 -0.171875q0 0.984375 -0.578125 1.640625q-0.578125 0.65625 -1.5 0.96875q-0.90625 0.3125 -1.90625 0.3125q-1.15625 0 -2.015625 -0.359375q-0.859375 -0.359375 -1.328125 -1.046875q-0.46875 -0.6875 -0.46875 -1.71875q0 -1.2187462 0.734375 -2.0156212q0.75 -0.8125 2.328125 -1.125l4.28125 -0.890625l-0.015625 2.046875l-2.171875 0.453125q-0.6875 0.140625 -1.015625 0.40625q-0.328125 0.25 -0.328125 0.765625q0 0.4999962 0.359375 0.7499962q0.359375 0.25 0.859375 0.25q0.390625 0 0.734375 -0.109375q0.359375 -0.109375 0.625 -0.34375q0.28125 -0.25 0.4375 -0.6093712q0.15625 -0.359375 0.15625 -0.859375l0 -3.0zm17.871902 -7.171875l0.328125 2.578125q-0.140625 -0.046875 -0.28125 -0.046875q-0.140625 -0.015625 -0.265625 -0.015625q-1.0 0 -1.484375 0.484375q-0.484375 0.484375 -0.484375 1.203125l-1.359375 -0.484375q0 -0.9375 0.328125 -1.796875q0.34375 -0.859375 1.046875 -1.40625q0.71875 -0.546875 1.8125 -0.546875q0.0625 0 0.15625 0q0.109375 0 0.203125 0.03125zm-3.890625 11.843746q1.96875 0 3.015625 0.828125q1.0625 0.828125 1.0625 2.359375q0 1.40625 -0.78125 2.328125q-0.765625 0.9375 -2.15625 1.40625q-1.390625 0.46875 -3.296875 0.46875q-3.078125 0 -4.4375 -0.78125q-1.359375 -0.765625 -1.359375 -2.078125q0 -0.953125 0.765625 -1.546875q0.765625 -0.578125 2.5625 -0.625l-0.09375 0.359375q-1.375 -0.1875 -2.0625 -0.8125q-0.671875 -0.640625 -0.671875 -1.71875q0 -1.0937462 0.859375 -1.7656212q0.859375 -0.6875 2.28125 -0.75l1.40625 0.65625l-0.359375 0q-0.890625 0.046875 -1.25 0.296875q-0.359375 0.25 -0.359375 0.609375q0 0.3749962 0.3125 0.5781212q0.328125 0.1875 0.953125 0.1875l3.609375 0zm-2.125 4.890625q1.078125 0 1.78125 -0.15625q0.71875 -0.140625 1.078125 -0.40625q0.375 -0.25 0.375 -0.59375q0 -0.328125 -0.25 -0.53125q-0.25 -0.1875 -0.90625 -0.1875l-4.0625 0q-0.421875 0 -0.6875 0.21875q-0.265625 0.234375 -0.265625 0.578125q0 0.515625 0.765625 0.796875q0.78125 0.28125 2.171875 0.28125zm0.125 -13.921871q1.71875 0 2.9375 0.453125q1.234375 0.453125 1.875 1.296875q0.65625 0.84375 0.65625 2.09375q0 1.21875 -0.65625 2.09375q-0.640625 0.859375 -1.875 1.296875q-1.21875 0.4375 -2.9375 0.4375q-2.6875 0 -4.09375 -1.0q-1.390625 -1.0 -1.390625 -2.828125q0 -1.25 0.640625 -2.09375q0.65625 -0.84375 1.875 -1.296875q1.234375 -0.453125 2.96875 -0.453125zm0 2.1875q-0.75 0 -1.21875 0.4375q-0.453125 0.421875 -0.453125 1.21875q0 0.765625 0.453125 1.203125q0.46875 0.421875 1.21875 0.421875q0.734375 0 1.203125 -0.421875q0.484375 -0.4375 0.484375 -1.203125q0 -0.796875 -0.484375 -1.21875q-0.46875 -0.4375 -1.203125 -0.4375zm9.5468445 -3.28125q-1.1875 0 -1.71875 -0.4375q-0.53125 -0.453125 -0.53125 -1.40625q0 -0.96875 0.53125 -1.40625q0.53125 -0.4375 1.71875 -0.4375q1.15625 0 1.6875 0.4375q0.546875 0.4375 0.546875 1.40625q0 0.953125 -0.546875 1.40625q-0.53125 0.4375 -1.6875 0.4375zm1.921875 1.3125l0 11.328121l-3.859375 0l0 -11.328121l3.859375 0zm2.7335815 11.328121l0 -11.328121l3.453125 0l0.203125 3.890625l-0.4375 -0.421875q0.234375 -1.21875 0.8125 -2.03125q0.578125 -0.828125 1.4375 -1.234375q0.875 -0.421875 1.96875 -0.421875q1.171875 0 2.046875 0.453125q0.875 0.453125 1.375 1.34375q0.5 0.875 0.5 2.203125l0 7.546871l-3.859375 0l0 -6.531246q0 -1.171875 -0.453125 -1.625q-0.453125 -0.453125 -1.15625 -0.453125q-0.53125 0 -1.015625 0.265625q-0.46875 0.25 -0.75 0.828125q-0.265625 0.5625 -0.265625 1.515625l0 5.999996l-3.859375 0zm25.015594 -14.359371l0.328125 2.578125q-0.140625 -0.046875 -0.28125 -0.046875q-0.140625 -0.015625 -0.265625 -0.015625q-1.0 0 -1.484375 0.484375q-0.484375 0.484375 -0.484375 1.203125l-1.359375 -0.484375q0 -0.9375 0.328125 -1.796875q0.34375 -0.859375 1.046875 -1.40625q0.71875 -0.546875 1.8125 -0.546875q0.0625 0 0.15625 0q0.109375 0 0.203125 0.03125zm-3.890625 11.843746q1.96875 0 3.015625 0.828125q1.0625 0.828125 1.0625 2.359375q0 1.40625 -0.78125 2.328125q-0.765625 0.9375 -2.15625 1.40625q-1.390625 0.46875 -3.296875 0.46875q-3.078125 0 -4.4375 -0.78125q-1.359375 -0.765625 -1.359375 -2.078125q0 -0.953125 0.765625 -1.546875q0.765625 -0.578125 2.5625 -0.625l-0.09375 0.359375q-1.375 -0.1875 -2.0625 -0.8125q-0.671875 -0.640625 -0.671875 -1.71875q0 -1.0937462 0.859375 -1.7656212q0.859375 -0.6875 2.28125 -0.75l1.40625 0.65625l-0.359375 0q-0.890625 0.046875 -1.25 0.296875q-0.359375 0.25 -0.359375 0.609375q0 0.3749962 0.3125 0.5781212q0.328125 0.1875 0.953125 0.1875l3.609375 0zm-2.125 4.890625q1.078125 0 1.78125 -0.15625q0.71875 -0.140625 1.078125 -0.40625q0.375 -0.25 0.375 -0.59375q0 -0.328125 -0.25 -0.53125q-0.25 -0.1875 -0.90625 -0.1875l-4.0625 0q-0.421875 0 -0.6875 0.21875q-0.265625 0.234375 -0.265625 0.578125q0 0.515625 0.765625 0.796875q0.78125 0.28125 2.171875 0.28125zm0.125 -13.921871q1.71875 0 2.9375 0.453125q1.234375 0.453125 1.875 1.296875q0.65625 0.84375 0.65625 2.09375q0 1.21875 -0.65625 2.09375q-0.640625 0.859375 -1.875 1.296875q-1.21875 0.4375 -2.9375 0.4375q-2.6875 0 -4.09375 -1.0q-1.390625 -1.0 -1.390625 -2.828125q0 -1.25 0.640625 -2.09375q0.65625 -0.84375 1.875 -1.296875q1.234375 -0.453125 2.96875 -0.453125zm0 2.1875q-0.75 0 -1.21875 0.4375q-0.453125 0.421875 -0.453125 1.21875q0 0.765625 0.453125 1.203125q0.46875 0.421875 1.21875 0.421875q0.734375 0 1.203125 -0.421875q0.484375 -0.4375 0.484375 -1.203125q0 -0.796875 -0.484375 -1.21875q-0.46875 -0.4375 -1.203125 -0.4375z" fill-rule="nonzero"/><path fill="#000000" fill-opacity="0.0" d="m501.12204 42.37664l238.67715 0l0 46.866142l-238.67715 0z" fill-rule="evenodd"/><path fill="#efefef" d="m524.8408 58.183514l0 8.859379q0 3.171875 -1.6875 4.75q-1.6875 1.5625 -4.984375 1.5625q-3.296875 0 -5.0 -1.5625q-1.6875305 -1.578125 -1.6875305 -4.75l0 -8.859379l3.9219055 0l0 8.921879q0 1.609375 0.6875 2.40625q0.6875 0.796875 2.078125 0.796875q1.40625 0 2.09375 -0.796875q0.6875 -0.796875 0.6875 -2.40625l0 -8.921879l3.890625 0zm2.6967773 19.703129l0 -16.078129l3.46875 0l0.203125 4.093754l-0.453125 -0.46875q0.15625 -1.125 0.703125 -1.9843788q0.546875 -0.875 1.40625 -1.359375q0.859375 -0.5 1.96875 -0.5q1.40625 0 2.453125 0.6875q1.046875 0.6875 1.625 2.0000038q0.578125 1.296875 0.578125 3.15625q0 1.859375 -0.59375 3.203125q-0.59375 1.328125 -1.65625 2.03125q-1.046875 0.6875 -2.453125 0.6875q-1.53125 0 -2.484375 -0.90625q-0.953125 -0.921875 -1.265625 -2.328125l0.359375 -0.546875l0 8.3125l-3.859375 0zm5.9375 -7.359375q1.0 0 1.5625 -0.734375q0.578125 -0.734375 0.578125 -2.3125q0 -1.59375 -0.5625 -2.328125q-0.546875 -0.734375 -1.546875 -0.734375q-0.640625 0 -1.125 0.359375q-0.46875 0.34375 -0.734375 1.03125q-0.25 0.671875 -0.25 1.671875q0 0.9375 0.234375 1.640625q0.234375 0.6875 0.703125 1.046875q0.484375 0.359375 1.140625 0.359375zm22.817078 -8.718754l4.03125 0l-3.421875 11.328129l-4.609375 0l-2.0625 -6.953125l-2.0 6.953125l-4.59375 0l-3.453125 -11.328129l4.0625 0l1.90625 8.359379l2.21875 -8.359379l3.796875 0l2.203125 8.359379l1.921875 -8.359379zm11.738953 4.140629q0 -0.78125 -0.453125 -1.25q-0.4375 -0.46875 -1.171875 -0.46875q-0.75 0 -1.28125 0.375q-0.53125 0.375 -0.734375 1.328125l-3.265625 -0.765625q0.3125 -1.6406288 1.671875 -2.6093788q1.359375 -0.96875 3.828125 -0.96875q1.65625 0 2.8125 0.484375q1.171875 0.484375 1.796875 1.453125q0.625 0.9531288 0.625 2.3593788l0 4.140625q0 0.890625 0.796875 0.890625q0.40625 0 0.65625 -0.09375l-0.234375 2.203125q-0.671875 0.3125 -1.65625 0.3125q-0.875 0 -1.5625 -0.28125q-0.671875 -0.28125 -1.0625 -0.859375q-0.375 -0.578125 -0.375 -1.46875l0 -0.125l0.421875 -0.171875q0 0.984375 -0.578125 1.640625q-0.578125 0.65625 -1.5 0.96875q-0.90625 0.3125 -1.90625 0.3125q-1.15625 0 -2.015625 -0.359375q-0.859375 -0.359375 -1.328125 -1.046875q-0.46875 -0.6875 -0.46875 -1.71875q0 -1.21875 0.734375 -2.015625q0.75 -0.8125 2.328125 -1.125l4.28125 -0.890625l-0.015625 2.046875l-2.171875 0.453125q-0.6875 0.140625 -1.015625 0.40625q-0.328125 0.25 -0.328125 0.765625q0 0.5 0.359375 0.75q0.359375 0.25 0.859375 0.25q0.390625 0 0.734375 -0.109375q0.359375 -0.109375 0.625 -0.34375q0.28125 -0.25 0.4375 -0.609375q0.15625 -0.359375 0.15625 -0.859375l0 -3.0zm6.789795 7.1875l0 -11.328129l3.40625 0l0.15625 2.4531288q0.4375 -1.2812538 1.28125 -1.9687538q0.84375 -0.703125 2.15625 -0.703125q0.4375 0 0.734375 0.0625q0.3125 0.0625 0.5 0.171875l-0.390625 3.1718788q-0.21875 -0.078125 -0.578125 -0.140625q-0.34375 -0.0625 -0.84375 -0.0625q-0.6875 0 -1.28125 0.296875q-0.578125 0.296875 -0.9375 0.875q-0.34375 0.578125 -0.34375 1.46875l0 5.703125l-3.859375 0zm13.778015 0.21875q-1.40625 0 -2.46875 -0.6875q-1.046875 -0.6875 -1.625 -2.0q-0.5625 -1.3125 -0.5625 -3.15625q0 -1.890625 0.59375 -3.203125q0.59375 -1.3281288 1.671875 -2.0156288q1.078125 -0.703125 2.484375 -0.703125q1.546875 0 2.484375 0.9375q0.9375 0.9375 1.203125 2.3906288l-0.359375 0.46875l0 -8.375004l3.859375 0l0 16.125004l-3.453125 0l-0.25 -3.84375l0.453125 0.328125q-0.125 1.140625 -0.6875 1.984375q-0.546875 0.828125 -1.40625 1.296875q-0.84375 0.453125 -1.9375 0.453125zm1.34375 -2.828125q0.65625 0 1.109375 -0.34375q0.46875 -0.359375 0.71875 -1.0625q0.25 -0.703125 0.25 -1.71875q0 -0.953125 -0.234375 -1.609375q-0.234375 -0.671875 -0.703125 -1.015625q-0.46875 -0.359375 -1.125 -0.359375q-1.0 0 -1.578125 0.734375q-0.578125 0.734375 -0.578125 2.328125q0 1.578125 0.5625 2.3125q0.578125 0.734375 1.578125 0.734375zm32.763245 -12.343754l0 14.953129l-3.453125 0l0 -6.859375l0.109375 -4.609379l-0.03125 0l-3.703125 11.468754l-3.140625 0l-3.703125 -11.468754l-0.046875 0l0.125 4.609379l0 6.859375l-3.46875 0l0 -14.953129l5.546875 0l2.359375 7.609379l0.84375 3.171875l0.03125 0l0.875 -3.140625l2.328125 -7.640629l5.328125 0zm8.486694 15.171879q-1.875 0 -3.25 -0.6875q-1.375 -0.703125 -2.125 -2.015625q-0.734375 -1.328125 -0.734375 -3.171875q0 -1.859375 0.734375 -3.171875q0.75 -1.3281288 2.09375 -2.0156288q1.359375 -0.703125 3.109375 -0.703125q1.78125 0 3.03125 0.6875q1.265625 0.6875 1.921875 1.9062538q0.65625 1.203125 0.65625 2.765625q0 0.40625 -0.03125 0.8125q-0.015625 0.40625 -0.0625 0.6875l-8.96875 0l0 -2.0625l7.28125 0l-1.84375 0.703125q0 -1.359375 -0.484375 -2.078125q-0.484375 -0.734375 -1.5 -0.734375q-0.734375 0 -1.25 0.34375q-0.5 0.34375 -0.765625 1.0625q-0.25 0.71875 -0.25 1.859375q0 1.109375 0.28125 1.796875q0.296875 0.6875 0.84375 1.0q0.546875 0.3125 1.3125 0.3125q0.859375 0 1.375 -0.34375q0.515625 -0.34375 0.765625 -0.953125l3.078125 1.015625q-0.328125 0.96875 -1.109375 1.640625q-0.78125 0.671875 -1.859375 1.015625q-1.0625 0.328125 -2.25 0.328125zm12.352295 0q-1.703125 0 -3.171875 -0.546875q-1.453125 -0.5625 -2.40625 -1.59375l1.8125 -2.140625q0.5625 0.734375 1.5 1.21875q0.953125 0.484375 2.109375 0.484375q0.703125 0 1.15625 -0.203125q0.453125 -0.203125 0.453125 -0.625q0 -0.328125 -0.234375 -0.515625q-0.21875 -0.1875 -0.90625 -0.328125l-1.578125 -0.3125q-2.140625 -0.4375 -3.03125 -1.28125q-0.890625 -0.859375 -0.890625 -2.234375q0 -0.9375 0.5625 -1.7812538q0.5625 -0.84375 1.734375 -1.375q1.1875 -0.53125 3.03125 -0.53125q1.71875 0 3.03125 0.5q1.3125 0.484375 2.078125 1.4375l-1.828125 2.0937538q-0.546875 -0.6875 -1.40625 -1.0625q-0.859375 -0.390625 -1.71875 -0.390625q-0.546875 0 -0.921875 0.109375q-0.375 0.09375 -0.5625 0.28125q-0.171875 0.171875 -0.171875 0.4375q0 0.296875 0.28125 0.515625q0.28125 0.21875 1.046875 0.375l2.0625 0.40625q1.75 0.3125 2.515625 1.15625q0.78125 0.84375 0.78125 2.015625q0 1.109375 -0.59375 2.0q-0.59375 0.875 -1.78125 1.390625q-1.171875 0.5 -2.953125 0.5zm12.075745 0q-1.703125 0 -3.171875 -0.546875q-1.453125 -0.5625 -2.40625 -1.59375l1.8125 -2.140625q0.5625 0.734375 1.5 1.21875q0.953125 0.484375 2.109375 0.484375q0.703125 0 1.15625 -0.203125q0.453125 -0.203125 0.453125 -0.625q0 -0.328125 -0.234375 -0.515625q-0.21875 -0.1875 -0.90625 -0.328125l-1.578125 -0.3125q-2.140625 -0.4375 -3.03125 -1.28125q-0.890625 -0.859375 -0.890625 -2.234375q0 -0.9375 0.5625 -1.7812538q0.5625 -0.84375 1.734375 -1.375q1.1875 -0.53125 3.03125 -0.53125q1.71875 0 3.03125 0.5q1.3125 0.484375 2.078125 1.4375l-1.828125 2.0937538q-0.546875 -0.6875 -1.40625 -1.0625q-0.859375 -0.390625 -1.71875 -0.390625q-0.546875 0 -0.921875 0.109375q-0.375 0.09375 -0.5625 0.28125q-0.171875 0.171875 -0.171875 0.4375q0 0.296875 0.28125 0.515625q0.28125 0.21875 1.046875 0.375l2.0625 0.40625q1.75 0.3125 2.515625 1.15625q0.78125 0.84375 0.78125 2.015625q0 1.109375 -0.59375 2.0q-0.59375 0.875 -1.78125 1.390625q-1.171875 0.5 -2.953125 0.5zm13.638245 -7.40625q0 -0.78125 -0.453125 -1.25q-0.4375 -0.46875 -1.171875 -0.46875q-0.75 0 -1.28125 0.375q-0.53125 0.375 -0.734375 1.328125l-3.265625 -0.765625q0.3125 -1.6406288 1.671875 -2.6093788q1.359375 -0.96875 3.828125 -0.96875q1.65625 0 2.8125 0.484375q1.171875 0.484375 1.796875 1.453125q0.625 0.9531288 0.625 2.3593788l0 4.140625q0 0.890625 0.796875 0.890625q0.40625 0 0.65625 -0.09375l-0.234375 2.203125q-0.671875 0.3125 -1.65625 0.3125q-0.875 0 -1.5625 -0.28125q-0.671875 -0.28125 -1.0625 -0.859375q-0.375 -0.578125 -0.375 -1.46875l0 -0.125l0.421875 -0.171875q0 0.984375 -0.578125 1.640625q-0.578125 0.65625 -1.5 0.96875q-0.90625 0.3125 -1.90625 0.3125q-1.15625 0 -2.015625 -0.359375q-0.859375 -0.359375 -1.328125 -1.046875q-0.46875 -0.6875 -0.46875 -1.71875q0 -1.21875 0.734375 -2.015625q0.75 -0.8125 2.328125 -1.125l4.28125 -0.890625l-0.015625 2.046875l-2.171875 0.453125q-0.6875 0.140625 -1.015625 0.40625q-0.328125 0.25 -0.328125 0.765625q0 0.5 0.359375 0.75q0.359375 0.25 0.859375 0.25q0.390625 0 0.734375 -0.109375q0.359375 -0.109375 0.625 -0.34375q0.28125 -0.25 0.4375 -0.609375q0.15625 -0.359375 0.15625 -0.859375l0 -3.0zm17.871887 -7.171879l0.328125 2.578125q-0.140625 -0.046875 -0.28125 -0.046875q-0.140625 -0.015625 -0.265625 -0.015625q-1.0 0 -1.484375 0.484375q-0.484375 0.484375 -0.484375 1.203125l-1.359375 -0.484375q0 -0.9375 0.328125 -1.796875q0.34375 -0.859375 1.046875 -1.40625q0.71875 -0.546875 1.8125 -0.546875q0.0625 0 0.15625 0q0.109375 0 0.203125 0.03125zm-3.890625 11.843754q1.96875 0 3.015625 0.828125q1.0625 0.828125 1.0625 2.359375q0 1.40625 -0.78125 2.328125q-0.765625 0.9375 -2.15625 1.40625q-1.390625 0.46875 -3.296875 0.46875q-3.078125 0 -4.4375 -0.78125q-1.359375 -0.765625 -1.359375 -2.078125q0 -0.953125 0.765625 -1.546875q0.765625 -0.578125 2.5625 -0.625l-0.09375 0.359375q-1.375 -0.1875 -2.0625 -0.8125q-0.671875 -0.640625 -0.671875 -1.71875q0 -1.09375 0.859375 -1.765625q0.859375 -0.6875 2.28125 -0.75l1.40625 0.65625l-0.359375 0q-0.890625 0.046875 -1.25 0.296875q-0.359375 0.25 -0.359375 0.609375q0 0.375 0.3125 0.578125q0.328125 0.1875 0.953125 0.1875l3.609375 0zm-2.125 4.890625q1.078125 0 1.78125 -0.15625q0.71875 -0.140625 1.078125 -0.40625q0.375 -0.25 0.375 -0.59375q0 -0.328125 -0.25 -0.53125q-0.25 -0.1875 -0.90625 -0.1875l-4.0625 0q-0.421875 0 -0.6875 0.21875q-0.265625 0.234375 -0.265625 0.578125q0 0.515625 0.765625 0.796875q0.78125 0.28125 2.171875 0.28125zm0.125 -13.921879q1.71875 0 2.9375 0.453125q1.234375 0.453125 1.875 1.296875q0.65625 0.8437538 0.65625 2.0937538q0 1.21875 -0.65625 2.09375q-0.640625 0.859375 -1.875 1.296875q-1.21875 0.4375 -2.9375 0.4375q-2.6875 0 -4.09375 -1.0q-1.390625 -1.0 -1.390625 -2.828125q0 -1.25 0.640625 -2.0937538q0.65625 -0.84375 1.875 -1.296875q1.234375 -0.453125 2.96875 -0.453125zm0 2.1875q-0.75 0 -1.21875 0.4375038q-0.453125 0.421875 -0.453125 1.21875q0 0.765625 0.453125 1.203125q0.46875 0.421875 1.21875 0.421875q0.734375 0 1.203125 -0.421875q0.484375 -0.4375 0.484375 -1.203125q0 -0.796875 -0.484375 -1.21875q-0.46875 -0.4375038 -1.203125 -0.4375038zm9.546875 -3.28125q-1.1875 0 -1.71875 -0.4375q-0.53125 -0.453125 -0.53125 -1.40625q0 -0.96875 0.53125 -1.40625q0.53125 -0.4375 1.71875 -0.4375q1.15625 0 1.6875 0.4375q0.546875 0.4375 0.546875 1.40625q0 0.953125 -0.546875 1.40625q-0.53125 0.4375 -1.6875 0.4375zm1.921875 1.3125l0 11.328129l-3.859375 0l0 -11.328129l3.859375 0zm2.7335815 11.328129l0 -11.328129l3.453125 0l0.203125 3.8906288l-0.4375 -0.421875q0.234375 -1.21875 0.8125 -2.0312538q0.578125 -0.828125 1.4375 -1.234375q0.875 -0.421875 1.96875 -0.421875q1.171875 0 2.046875 0.453125q0.875 0.453125 1.375 1.34375q0.5 0.8750038 0.5 2.2031288l0 7.546875l-3.859375 0l0 -6.53125q0 -1.171875 -0.453125 -1.625q-0.453125 -0.453125 -1.15625 -0.453125q-0.53125 0 -1.015625 0.265625q-0.46875 0.25 -0.75 0.828125q-0.265625 0.5625 -0.265625 1.515625l0 6.0l-3.859375 0zm25.015564 -14.359379l0.328125 2.578125q-0.140625 -0.046875 -0.28125 -0.046875q-0.140625 -0.015625 -0.265625 -0.015625q-1.0 0 -1.484375 0.484375q-0.484375 0.484375 -0.484375 1.203125l-1.359375 -0.484375q0 -0.9375 0.328125 -1.796875q0.34375 -0.859375 1.046875 -1.40625q0.71875 -0.546875 1.8125 -0.546875q0.0625 0 0.15625 0q0.109375 0 0.203125 0.03125zm-3.890625 11.843754q1.96875 0 3.015625 0.828125q1.0625 0.828125 1.0625 2.359375q0 1.40625 -0.78125 2.328125q-0.765625 0.9375 -2.15625 1.40625q-1.390625 0.46875 -3.296875 0.46875q-3.078125 0 -4.4375 -0.78125q-1.359375 -0.765625 -1.359375 -2.078125q0 -0.953125 0.765625 -1.546875q0.765625 -0.578125 2.5625 -0.625l-0.09375 0.359375q-1.375 -0.1875 -2.0625 -0.8125q-0.671875 -0.640625 -0.671875 -1.71875q0 -1.09375 0.859375 -1.765625q0.859375 -0.6875 2.28125 -0.75l1.40625 0.65625l-0.359375 0q-0.890625 0.046875 -1.25 0.296875q-0.359375 0.25 -0.359375 0.609375q0 0.375 0.3125 0.578125q0.328125 0.1875 0.953125 0.1875l3.609375 0zm-2.125 4.890625q1.078125 0 1.78125 -0.15625q0.71875 -0.140625 1.078125 -0.40625q0.375 -0.25 0.375 -0.59375q0 -0.328125 -0.25 -0.53125q-0.25 -0.1875 -0.90625 -0.1875l-4.0625 0q-0.421875 0 -0.6875 0.21875q-0.265625 0.234375 -0.265625 0.578125q0 0.515625 0.765625 0.796875q0.78125 0.28125 2.171875 0.28125zm0.125 -13.921879q1.71875 0 2.9375 0.453125q1.234375 0.453125 1.875 1.296875q0.65625 0.8437538 0.65625 2.0937538q0 1.21875 -0.65625 2.09375q-0.640625 0.859375 -1.875 1.296875q-1.21875 0.4375 -2.9375 0.4375q-2.6875 0 -4.09375 -1.0q-1.390625 -1.0 -1.390625 -2.828125q0 -1.25 0.640625 -2.0937538q0.65625 -0.84375 1.875 -1.296875q1.234375 -0.453125 2.96875 -0.453125zm0 2.1875q-0.75 0 -1.21875 0.4375038q-0.453125 0.421875 -0.453125 1.21875q0 0.765625 0.453125 1.203125q0.46875 0.421875 1.21875 0.421875q0.734375 0 1.203125 -0.421875q0.484375 -0.4375 0.484375 -1.203125q0 -0.796875 -0.484375 -1.21875q-0.46875 -0.4375038 -1.203125 -0.4375038z" fill-rule="nonzero"/><path fill="#000000" fill-opacity="0.0" d="m895.76904 53.404198l339.9685 0l0 46.866142l-339.9685 0z" fill-rule="evenodd"/><path fill="#efefef" d="m919.9253 69.211075l0 14.953125l-3.890625 0l0 -14.953125l3.890625 0zm-9.609375 0l0 14.953125l-3.890625 0l0 -14.953125l3.890625 0zm7.796875 5.90625l0 3.015625l-9.78125 0l0 -3.015625l9.78125 0zm10.18042 -2.5q1.78125 0 3.125 0.6875q1.359375 0.6875 2.109375 2.015625q0.765625 1.328125 0.765625 3.1875q0 1.84375 -0.765625 3.171875q-0.75 1.328125 -2.109375 2.015625q-1.34375 0.6875 -3.125 0.6875q-1.75 0 -3.109375 -0.6875q-1.359375 -0.6875 -2.125 -2.015625q-0.75 -1.328125 -0.75 -3.171875q0 -1.859375 0.75 -3.1875q0.765625 -1.328125 2.125 -2.015625q1.359375 -0.6875 3.109375 -0.6875zm0 2.734375q-0.671875 0 -1.140625 0.328125q-0.46875 0.3125 -0.71875 1.015625q-0.25 0.6875 -0.25 1.8125q0 1.109375 0.25 1.796875q0.25 0.6875 0.71875 1.015625q0.46875 0.328125 1.140625 0.328125q0.671875 0 1.140625 -0.328125q0.484375 -0.328125 0.734375 -1.015625q0.25 -0.6875 0.25 -1.796875q0 -1.125 -0.25 -1.8125q-0.25 -0.703125 -0.734375 -1.015625q-0.46875 -0.328125 -1.140625 -0.328125zm8.164795 8.8125l0 -11.328125l3.40625 0l0.15625 2.453125q0.4375 -1.28125 1.28125 -1.96875q0.84375 -0.703125 2.15625 -0.703125q0.4375 0 0.734375 0.0625q0.3125 0.0625 0.5 0.171875l-0.390625 3.171875q-0.21875 -0.078125 -0.578125 -0.140625q-0.34375 -0.0625 -0.84375 -0.0625q-0.6875 0 -1.28125 0.296875q-0.578125 0.296875 -0.9375 0.875q-0.34375 0.578125 -0.34375 1.46875l0 5.703125l-3.859375 0zm11.6796875 -12.640625q-1.1875 0 -1.71875 -0.4375q-0.53125 -0.453125 -0.53125 -1.40625q0 -0.96875 0.53125 -1.40625q0.53125 -0.4375 1.71875 -0.4375q1.15625 0 1.6875 0.4375q0.546875 0.4375 0.546875 1.40625q0 0.953125 -0.546875 1.40625q-0.53125 0.4375 -1.6875 0.4375zm1.921875 1.3125l0 11.328125l-3.859375 0l0 -11.328125l3.859375 0zm2.1554565 11.328125l0 -2.359375l4.5 -5.109375l1.203125 -1.203125l-1.78125 0.046875l-3.875 0l0 -2.703125l9.921875 0l0 2.359375l-4.4375 5.078125l-1.25 1.234375l1.984375 -0.046875l3.90625 0l0 2.703125l-10.171875 0zm17.606934 -11.546875q1.78125 0 3.125 0.6875q1.359375 0.6875 2.109375 2.015625q0.765625 1.328125 0.765625 3.1875q0 1.84375 -0.765625 3.171875q-0.75 1.328125 -2.109375 2.015625q-1.34375 0.6875 -3.125 0.6875q-1.75 0 -3.109375 -0.6875q-1.359375 -0.6875 -2.125 -2.015625q-0.75 -1.328125 -0.75 -3.171875q0 -1.859375 0.75 -3.1875q0.765625 -1.328125 2.125 -2.015625q1.359375 -0.6875 3.109375 -0.6875zm0 2.734375q-0.671875 0 -1.140625 0.328125q-0.46875 0.3125 -0.71875 1.015625q-0.25 0.6875 -0.25 1.8125q0 1.109375 0.25 1.796875q0.25 0.6875 0.71875 1.015625q0.46875 0.328125 1.140625 0.328125q0.671875 0 1.140625 -0.328125q0.484375 -0.328125 0.734375 -1.015625q0.25 -0.6875 0.25 -1.796875q0 -1.125 -0.25 -1.8125q-0.25 -0.703125 -0.734375 -1.015625q-0.46875 -0.328125 -1.140625 -0.328125zm8.164856 8.8125l0 -11.328125l3.453125 0l0.203125 3.890625l-0.4375 -0.421875q0.234375 -1.21875 0.8125 -2.03125q0.578125 -0.828125 1.4375 -1.234375q0.875 -0.421875 1.96875 -0.421875q1.171875 0 2.046875 0.453125q0.875 0.453125 1.375 1.34375q0.5 0.875 0.5 2.203125l0 7.546875l-3.859375 0l0 -6.53125q0 -1.171875 -0.453125 -1.625q-0.453125 -0.453125 -1.15625 -0.453125q-0.53125 0 -1.015625 0.265625q-0.46875 0.25 -0.75 0.828125q-0.265625 0.5625 -0.265625 1.515625l0 6.0l-3.859375 0zm18.713196 -14.9375l0 10.90625q0 0.8125 0.390625 1.171875q0.40625 0.34375 1.109375 0.34375q0.546875 0 0.9375 -0.125q0.40625 -0.125 0.71875 -0.375l0.40625 2.375q-0.5625 0.421875 -1.421875 0.640625q-0.859375 0.21875 -1.765625 0.21875q-1.296875 0 -2.234375 -0.359375q-0.9375 -0.359375 -1.453125 -1.140625q-0.515625 -0.796875 -0.53125 -2.109375l0 -10.46875l3.84375 -1.078125zm3.390625 3.609375l0 2.734375l-9.1875 0l0 -2.734375l9.1875 0zm8.285217 4.140625q0 -0.78125 -0.453125 -1.25q-0.4375 -0.46875 -1.171875 -0.46875q-0.75 0 -1.28125 0.375q-0.53125 0.375 -0.734375 1.328125l-3.265625 -0.765625q0.3125 -1.640625 1.671875 -2.609375q1.359375 -0.96875 3.828125 -0.96875q1.65625 0 2.8125 0.484375q1.171875 0.484375 1.796875 1.453125q0.625 0.953125 0.625 2.359375l0 4.140625q0 0.890625 0.796875 0.890625q0.40625 0 0.65625 -0.09375l-0.234375 2.203125q-0.671875 0.3125 -1.65625 0.3125q-0.875 0 -1.5625 -0.28125q-0.671875 -0.28125 -1.0625 -0.859375q-0.375 -0.578125 -0.375 -1.46875l0 -0.125l0.421875 -0.171875q0 0.984375 -0.578125 1.640625q-0.578125 0.65625 -1.5 0.96875q-0.90625 0.3125 -1.90625 0.3125q-1.15625 0 -2.015625 -0.359375q-0.859375 -0.359375 -1.328125 -1.046875q-0.46875 -0.6875 -0.46875 -1.71875q0 -1.21875 0.734375 -2.015625q0.75 -0.8125 2.328125 -1.125l4.28125 -0.890625l-0.015625 2.046875l-2.171875 0.453125q-0.6875 0.140625 -1.015625 0.40625q-0.328125 0.25 -0.328125 0.765625q0 0.5 0.359375 0.75q0.359375 0.25 0.859375 0.25q0.390625 0 0.734375 -0.109375q0.359375 -0.109375 0.625 -0.34375q0.28125 -0.25 0.4375 -0.609375q0.15625 -0.359375 0.15625 -0.859375l0 -3.0zm10.602295 -8.9375l0 12.28125q0 0.734375 0.25 1.0625q0.25 0.3125 0.84375 0.3125q0.328125 0 0.546875 -0.046875q0.234375 -0.046875 0.5625 -0.140625l-0.25 2.3125q-0.40625 0.25 -1.0625 0.40625q-0.65625 0.15625 -1.296875 0.15625q-1.8125 0 -2.625 -0.828125q-0.8125 -0.84375 -0.8125 -2.75l0 -12.765625l3.84375 0zm27.352173 1.171875l0 14.953125l-3.453125 0l0 -6.859375l0.109375 -4.609375l-0.03125 0l-3.703125 11.46875l-3.140625 0l-3.703125 -11.46875l-0.046875 0l0.125 4.609375l0 6.859375l-3.46875 0l0 -14.953125l5.546875 0l2.359375 7.609375l0.84375 3.171875l0.03125 0l0.875 -3.140625l2.328125 -7.640625l5.328125 0zm8.486694 15.171875q-1.875 0 -3.25 -0.6875q-1.375 -0.703125 -2.125 -2.015625q-0.734375 -1.328125 -0.734375 -3.171875q0 -1.859375 0.734375 -3.171875q0.75 -1.328125 2.09375 -2.015625q1.359375 -0.703125 3.109375 -0.703125q1.78125 0 3.03125 0.6875q1.265625 0.6875 1.921875 1.90625q0.65625 1.203125 0.65625 2.765625q0 0.40625 -0.03125 0.8125q-0.015625 0.40625 -0.0625 0.6875l-8.96875 0l0 -2.0625l7.28125 0l-1.84375 0.703125q0 -1.359375 -0.484375 -2.078125q-0.484375 -0.734375 -1.5 -0.734375q-0.734375 0 -1.25 0.34375q-0.5 0.34375 -0.765625 1.0625q-0.25 0.71875 -0.25 1.859375q0 1.109375 0.28125 1.796875q0.296875 0.6875 0.84375 1.0q0.546875 0.3125 1.3125 0.3125q0.859375 0 1.375 -0.34375q0.515625 -0.34375 0.765625 -0.953125l3.078125 1.015625q-0.328125 0.96875 -1.109375 1.640625q-0.78125 0.671875 -1.859375 1.015625q-1.0625 0.328125 -2.25 0.328125zm12.352295 0q-1.703125 0 -3.171875 -0.546875q-1.453125 -0.5625 -2.40625 -1.59375l1.8125 -2.140625q0.5625 0.734375 1.5 1.21875q0.953125 0.484375 2.109375 0.484375q0.703125 0 1.15625 -0.203125q0.453125 -0.203125 0.453125 -0.625q0 -0.328125 -0.234375 -0.515625q-0.21875 -0.1875 -0.90625 -0.328125l-1.578125 -0.3125q-2.140625 -0.4375 -3.03125 -1.28125q-0.890625 -0.859375 -0.890625 -2.234375q0 -0.9375 0.5625 -1.78125q0.5625 -0.84375 1.734375 -1.375q1.1875 -0.53125 3.03125 -0.53125q1.71875 0 3.03125 0.5q1.3125 0.484375 2.078125 1.4375l-1.828125 2.09375q-0.546875 -0.6875 -1.40625 -1.0625q-0.859375 -0.390625 -1.71875 -0.390625q-0.546875 0 -0.921875 0.109375q-0.375 0.09375 -0.5625 0.28125q-0.171875 0.171875 -0.171875 0.4375q0 0.296875 0.28125 0.515625q0.28125 0.21875 1.046875 0.375l2.0625 0.40625q1.75 0.3125 2.515625 1.15625q0.78125 0.84375 0.78125 2.015625q0 1.109375 -0.59375 2.0q-0.59375 0.875 -1.78125 1.390625q-1.171875 0.5 -2.953125 0.5zm12.075806 0q-1.703125 0 -3.171875 -0.546875q-1.453125 -0.5625 -2.40625 -1.59375l1.8125 -2.140625q0.5625 0.734375 1.5 1.21875q0.953125 0.484375 2.109375 0.484375q0.703125 0 1.15625 -0.203125q0.453125 -0.203125 0.453125 -0.625q0 -0.328125 -0.234375 -0.515625q-0.21875 -0.1875 -0.90625 -0.328125l-1.578125 -0.3125q-2.140625 -0.4375 -3.03125 -1.28125q-0.890625 -0.859375 -0.890625 -2.234375q0 -0.9375 0.5625 -1.78125q0.5625 -0.84375 1.734375 -1.375q1.1875 -0.53125 3.03125 -0.53125q1.71875 0 3.03125 0.5q1.3125 0.484375 2.078125 1.4375l-1.828125 2.09375q-0.546875 -0.6875 -1.40625 -1.0625q-0.859375 -0.390625 -1.71875 -0.390625q-0.546875 0 -0.921875 0.109375q-0.375 0.09375 -0.5625 0.28125q-0.171875 0.171875 -0.171875 0.4375q0 0.296875 0.28125 0.515625q0.28125 0.21875 1.046875 0.375l2.0625 0.40625q1.75 0.3125 2.515625 1.15625q0.78125 0.84375 0.78125 2.015625q0 1.109375 -0.59375 2.0q-0.59375 0.875 -1.78125 1.390625q-1.171875 0.5 -2.953125 0.5zm13.638184 -7.40625q0 -0.78125 -0.453125 -1.25q-0.4375 -0.46875 -1.171875 -0.46875q-0.75 0 -1.28125 0.375q-0.53125 0.375 -0.734375 1.328125l-3.265625 -0.765625q0.3125 -1.640625 1.671875 -2.609375q1.359375 -0.96875 3.828125 -0.96875q1.65625 0 2.8125 0.484375q1.171875 0.484375 1.796875 1.453125q0.625 0.953125 0.625 2.359375l0 4.140625q0 0.890625 0.796875 0.890625q0.40625 0 0.65625 -0.09375l-0.234375 2.203125q-0.671875 0.3125 -1.65625 0.3125q-0.875 0 -1.5625 -0.28125q-0.671875 -0.28125 -1.0625 -0.859375q-0.375 -0.578125 -0.375 -1.46875l0 -0.125l0.421875 -0.171875q0 0.984375 -0.578125 1.640625q-0.578125 0.65625 -1.5 0.96875q-0.90625 0.3125 -1.90625 0.3125q-1.15625 0 -2.015625 -0.359375q-0.859375 -0.359375 -1.328125 -1.046875q-0.46875 -0.6875 -0.46875 -1.71875q0 -1.21875 0.734375 -2.015625q0.75 -0.8125 2.328125 -1.125l4.28125 -0.890625l-0.015625 2.046875l-2.171875 0.453125q-0.6875 0.140625 -1.015625 0.40625q-0.328125 0.25 -0.328125 0.765625q0 0.5 0.359375 0.75q0.359375 0.25 0.859375 0.25q0.390625 0 0.734375 -0.109375q0.359375 -0.109375 0.625 -0.34375q0.28125 -0.25 0.4375 -0.609375q0.15625 -0.359375 0.15625 -0.859375l0 -3.0zm17.871948 -7.171875l0.328125 2.578125q-0.140625 -0.046875 -0.28125 -0.046875q-0.140625 -0.015625 -0.265625 -0.015625q-1.0 0 -1.484375 0.484375q-0.484375 0.484375 -0.484375 1.203125l-1.359375 -0.484375q0 -0.9375 0.328125 -1.796875q0.34375 -0.859375 1.046875 -1.40625q0.71875 -0.546875 1.8125 -0.546875q0.0625 0 0.15625 0q0.109375 0 0.203125 0.03125zm-3.890625 11.84375q1.96875 0 3.015625 0.828125q1.0625 0.828125 1.0625 2.359375q0 1.40625 -0.78125 2.328125q-0.765625 0.9375 -2.15625 1.40625q-1.390625 0.46875 -3.296875 0.46875q-3.078125 0 -4.4375 -0.78125q-1.359375 -0.765625 -1.359375 -2.078125q0 -0.953125 0.765625 -1.546875q0.765625 -0.578125 2.5625 -0.625l-0.09375 0.359375q-1.375 -0.1875 -2.0625 -0.8125q-0.671875 -0.640625 -0.671875 -1.71875q0 -1.09375 0.859375 -1.765625q0.859375 -0.6875 2.28125 -0.75l1.40625 0.65625l-0.359375 0q-0.890625 0.046875 -1.25 0.296875q-0.359375 0.25 -0.359375 0.609375q0 0.375 0.3125 0.578125q0.328125 0.1875 0.953125 0.1875l3.609375 0zm-2.125 4.890625q1.078125 0 1.78125 -0.15625q0.71875 -0.140625 1.078125 -0.40625q0.375 -0.25 0.375 -0.59375q0 -0.328125 -0.25 -0.53125q-0.25 -0.1875 -0.90625 -0.1875l-4.0625 0q-0.421875 0 -0.6875 0.21875q-0.265625 0.234375 -0.265625 0.578125q0 0.515625 0.765625 0.796875q0.78125 0.28125 2.171875 0.28125zm0.125 -13.921875q1.71875 0 2.9375 0.453125q1.234375 0.453125 1.875 1.296875q0.65625 0.84375 0.65625 2.09375q0 1.21875 -0.65625 2.09375q-0.640625 0.859375 -1.875 1.296875q-1.21875 0.4375 -2.9375 0.4375q-2.6875 0 -4.09375 -1.0q-1.390625 -1.0 -1.390625 -2.828125q0 -1.25 0.640625 -2.09375q0.65625 -0.84375 1.875 -1.296875q1.234375 -0.453125 2.96875 -0.453125zm0 2.1875q-0.75 0 -1.21875 0.4375q-0.453125 0.421875 -0.453125 1.21875q0 0.765625 0.453125 1.203125q0.46875 0.421875 1.21875 0.421875q0.734375 0 1.203125 -0.421875q0.484375 -0.4375 0.484375 -1.203125q0 -0.796875 -0.484375 -1.21875q-0.46875 -0.4375 -1.203125 -0.4375zm9.546753 -3.28125q-1.1875 0 -1.71875 -0.4375q-0.53125 -0.453125 -0.53125 -1.40625q0 -0.96875 0.53125 -1.40625q0.53125 -0.4375 1.71875 -0.4375q1.15625 0 1.6875 0.4375q0.546875 0.4375 0.546875 1.40625q0 0.953125 -0.546875 1.40625q-0.53125 0.4375 -1.6875 0.4375zm1.921875 1.3125l0 11.328125l-3.859375 0l0 -11.328125l3.859375 0zm2.7336426 11.328125l0 -11.328125l3.453125 0l0.203125 3.890625l-0.4375 -0.421875q0.234375 -1.21875 0.8125 -2.03125q0.578125 -0.828125 1.4375 -1.234375q0.875 -0.421875 1.96875 -0.421875q1.171875 0 2.046875 0.453125q0.875 0.453125 1.375 1.34375q0.5 0.875 0.5 2.203125l0 7.546875l-3.859375 0l0 -6.53125q0 -1.171875 -0.453125 -1.625q-0.453125 -0.453125 -1.15625 -0.453125q-0.53125 0 -1.015625 0.265625q-0.46875 0.25 -0.75 0.828125q-0.265625 0.5625 -0.265625 1.515625l0 6.0l-3.859375 0zm25.015625 -14.359375l0.328125 2.578125q-0.140625 -0.046875 -0.28125 -0.046875q-0.140625 -0.015625 -0.265625 -0.015625q-1.0 0 -1.484375 0.484375q-0.484375 0.484375 -0.484375 1.203125l-1.359375 -0.484375q0 -0.9375 0.328125 -1.796875q0.34375 -0.859375 1.046875 -1.40625q0.71875 -0.546875 1.8125 -0.546875q0.0625 0 0.15625 0q0.109375 0 0.203125 0.03125zm-3.890625 11.84375q1.96875 0 3.015625 0.828125q1.0625 0.828125 1.0625 2.359375q0 1.40625 -0.78125 2.328125q-0.765625 0.9375 -2.15625 1.40625q-1.390625 0.46875 -3.296875 0.46875q-3.078125 0 -4.4375 -0.78125q-1.359375 -0.765625 -1.359375 -2.078125q0 -0.953125 0.765625 -1.546875q0.765625 -0.578125 2.5625 -0.625l-0.09375 0.359375q-1.375 -0.1875 -2.0625 -0.8125q-0.671875 -0.640625 -0.671875 -1.71875q0 -1.09375 0.859375 -1.765625q0.859375 -0.6875 2.28125 -0.75l1.40625 0.65625l-0.359375 0q-0.890625 0.046875 -1.25 0.296875q-0.359375 0.25 -0.359375 0.609375q0 0.375 0.3125 0.578125q0.328125 0.1875 0.953125 0.1875l3.609375 0zm-2.125 4.890625q1.078125 0 1.78125 -0.15625q0.71875 -0.140625 1.078125 -0.40625q0.375 -0.25 0.375 -0.59375q0 -0.328125 -0.25 -0.53125q-0.25 -0.1875 -0.90625 -0.1875l-4.0625 0q-0.421875 0 -0.6875 0.21875q-0.265625 0.234375 -0.265625 0.578125q0 0.515625 0.765625 0.796875q0.78125 0.28125 2.171875 0.28125zm0.125 -13.921875q1.71875 0 2.9375 0.453125q1.234375 0.453125 1.875 1.296875q0.65625 0.84375 0.65625 2.09375q0 1.21875 -0.65625 2.09375q-0.640625 0.859375 -1.875 1.296875q-1.21875 0.4375 -2.9375 0.4375q-2.6875 0 -4.09375 -1.0q-1.390625 -1.0 -1.390625 -2.828125q0 -1.25 0.640625 -2.09375q0.65625 -0.84375 1.875 -1.296875q1.234375 -0.453125 2.96875 -0.453125zm0 2.1875q-0.75 0 -1.21875 0.4375q-0.453125 0.421875 -0.453125 1.21875q0 0.765625 0.453125 1.203125q0.46875 0.421875 1.21875 0.421875q0.734375 0 1.203125 -0.421875q0.484375 -0.4375 0.484375 -1.203125q0 -0.796875 -0.484375 -1.21875q-0.46875 -0.4375 -1.203125 -0.4375z" fill-rule="nonzero"/><path fill="#000000" fill-opacity="0.0" d="m925.7664 341.53055l0 0c0 -9.776093 7.925049 -17.701141 17.70111 -17.701141l167.33789 0c4.69458 0 9.1970215 1.8649292 12.516602 5.18454c3.31958 3.3196106 5.1845703 7.8219604 5.1845703 12.516602l0 70.80243c0 9.776062 -7.925049 17.701141 -17.701172 17.701141l-167.33789 0c-9.776062 0 -17.70111 -7.9250793 -17.70111 -17.701141z" fill-rule="evenodd"/><path stroke="#8d3aed" stroke-width="4.0" stroke-linejoin="round" stroke-linecap="butt" d="m925.7664 341.53055l0 0c0 -9.776093 7.925049 -17.701141 17.70111 -17.701141l167.33789 0c4.69458 0 9.1970215 1.8649292 12.516602 5.18454c3.31958 3.3196106 5.1845703 7.8219604 5.1845703 12.516602l0 70.80243c0 9.776062 -7.925049 17.701141 -17.701172 17.701141l-167.33789 0c-9.776062 0 -17.70111 -7.9250793 -17.70111 -17.701141z" fill-rule="evenodd"/><path fill="#efefef" d="m980.6318 371.53925q2.203125 0 3.421875 1.03125q1.234375 1.03125 1.234375 2.75q0 1.890625 -1.21875 2.875q-1.21875 0.984375 -3.421875 0.984375l-0.296875 0.171875l-2.4375 0l0 4.5l-3.15625 0l0 -12.3125l5.875 0zm-0.4375 5.546875q0.921875 0 1.390625 -0.375q0.46875 -0.375 0.46875 -1.203125q0 -0.796875 -0.46875 -1.171875q-0.46875 -0.375 -1.390625 -0.375l-2.28125 0l0 3.125l2.28125 0zm1.875 0.671875l3.9375 6.09375l-3.546875 0l-3.15625 -5.390625l2.765625 -0.703125zm9.739136 6.28125q-1.546875 0 -2.671875 -0.578125q-1.125 -0.578125 -1.75 -1.65625q-0.609375 -1.09375 -0.609375 -2.625q0 -1.515625 0.609375 -2.59375q0.625 -1.09375 1.734375 -1.671875q1.109375 -0.578125 2.546875 -0.578125q1.46875 0 2.5 0.578125q1.03125 0.5625 1.578125 1.5625q0.546875 1.0 0.546875 2.28125q0 0.34375 -0.03125 0.6875q-0.015625 0.328125 -0.046875 0.546875l-7.390625 0l0 -1.703125l5.984375 0l-1.5 0.578125q0 -1.109375 -0.40625 -1.703125q-0.40625 -0.609375 -1.234375 -0.609375q-0.609375 0 -1.03125 0.28125q-0.40625 0.28125 -0.625 0.875q-0.21875 0.59375 -0.21875 1.53125q0 0.921875 0.234375 1.484375q0.25 0.5625 0.703125 0.828125q0.453125 0.25 1.078125 0.25q0.71875 0 1.125 -0.28125q0.421875 -0.28125 0.625 -0.78125l2.546875 0.828125q-0.265625 0.8125 -0.90625 1.359375q-0.640625 0.546875 -1.53125 0.828125q-0.890625 0.28125 -1.859375 0.28125zm9.380066 -13.46875l0 10.109375q0 0.609375 0.203125 0.875q0.21875 0.265625 0.703125 0.265625q0.28125 0 0.46875 -0.03125q0.1875 -0.046875 0.4375 -0.125l-0.203125 1.90625q-0.328125 0.203125 -0.875 0.328125q-0.546875 0.140625 -1.0625 0.140625q-1.5 0 -2.171875 -0.6875q-0.671875 -0.6875 -0.671875 -2.265625l0 -10.515625l3.171875 0zm8.328064 7.375q0 -0.65625 -0.375 -1.03125q-0.359375 -0.390625 -0.96875 -0.390625q-0.609375 0 -1.0625 0.3125q-0.4375 0.296875 -0.59375 1.078125l-2.6875 -0.625q0.265625 -1.34375 1.375 -2.140625q1.125 -0.8125 3.15625 -0.8125q1.359375 0 2.3125 0.40625q0.96875 0.390625 1.484375 1.1875q0.515625 0.796875 0.515625 1.953125l0 3.40625q0 0.734375 0.65625 0.734375q0.328125 0 0.53125 -0.078125l-0.1875 1.8125q-0.5625 0.265625 -1.359375 0.265625q-0.734375 0 -1.296875 -0.234375q-0.546875 -0.234375 -0.875 -0.703125q-0.3125 -0.484375 -0.3125 -1.21875l0 -0.109375l0.359375 -0.125q0 0.796875 -0.484375 1.34375q-0.46875 0.546875 -1.234375 0.8125q-0.75 0.25 -1.5625 0.25q-0.953125 0 -1.671875 -0.296875q-0.703125 -0.296875 -1.09375 -0.859375q-0.375 -0.578125 -0.375 -1.421875q0 -1.0 0.609375 -1.65625q0.609375 -0.671875 1.90625 -0.9375l3.53125 -0.71875l-0.015625 1.671875l-1.796875 0.375q-0.5625 0.109375 -0.828125 0.328125q-0.265625 0.21875 -0.265625 0.640625q0 0.40625 0.296875 0.625q0.296875 0.203125 0.703125 0.203125q0.328125 0 0.609375 -0.09375q0.296875 -0.09375 0.515625 -0.28125q0.21875 -0.203125 0.34375 -0.5q0.140625 -0.3125 0.140625 -0.71875l0 -2.453125zm14.376526 -3.421875l-3.390625 9.328125q-0.515625 1.46875 -1.140625 2.34375q-0.609375 0.890625 -1.453125 1.28125q-0.84375 0.390625 -2.015625 0.390625q-0.78125 0 -1.4375 -0.171875q-0.65625 -0.171875 -1.140625 -0.46875l0.640625 -2.140625q0.34375 0.234375 0.703125 0.328125q0.375 0.109375 0.953125 0.109375q0.546875 0 0.890625 -0.1875q0.34375 -0.171875 0.546875 -0.703125l0.25 -0.578125l-1.09375 -2.53125l-2.796875 -7.0l3.5 0l1.4375 5.3125l0.4375 1.984375l0.53125 -2.046875l1.4375 -5.25l3.140625 0zm17.194092 5.796875q-0.359375 1.296875 -1.140625 2.125q-0.78125 0.828125 -1.875 1.21875q-1.078125 0.375 -2.375 0.375q-1.875 0 -3.234375 -0.75q-1.359375 -0.765625 -2.09375 -2.171875q-0.71875 -1.421875 -0.71875 -3.421875q0 -2.0 0.71875 -3.40625q0.734375 -1.421875 2.09375 -2.171875q1.359375 -0.765625 3.203125 -0.765625q1.296875 0 2.375 0.375q1.078125 0.359375 1.828125 1.109375q0.75 0.734375 1.0625 1.90625l-2.8125 1.140625q-0.265625 -1.15625 -0.859375 -1.578125q-0.578125 -0.4375 -1.46875 -0.4375q-0.890625 0 -1.53125 0.4375q-0.640625 0.421875 -0.984375 1.28125q-0.34375 0.84375 -0.34375 2.109375q0 1.25 0.3125 2.109375q0.3125 0.859375 0.953125 1.296875q0.65625 0.421875 1.609375 0.421875q0.890625 0 1.515625 -0.5q0.625 -0.5 0.84375 -1.515625l2.921875 0.8125zm1.564331 3.53125l0 -13.28125l3.171875 0l0 5.65625q0.40625 -0.9375 1.171875 -1.40625q0.765625 -0.484375 1.765625 -0.484375q0.984375 0 1.6875 0.375q0.71875 0.375 1.125 1.109375q0.421875 0.71875 0.421875 1.8125l0 6.21875l-3.171875 0l0 -5.328125q0 -1.015625 -0.375 -1.390625q-0.359375 -0.390625 -0.953125 -0.390625q-0.4375 0 -0.84375 0.234375q-0.390625 0.21875 -0.609375 0.703125q-0.21875 0.484375 -0.21875 1.265625l0 4.90625l-3.171875 0zm16.77002 -5.90625q0 -0.65625 -0.375 -1.03125q-0.359375 -0.390625 -0.96875 -0.390625q-0.609375 0 -1.0625 0.3125q-0.4375 0.296875 -0.59375 1.078125l-2.6875 -0.625q0.265625 -1.34375 1.375 -2.140625q1.125 -0.8125 3.15625 -0.8125q1.359375 0 2.3125 0.40625q0.96875 0.390625 1.484375 1.1875q0.515625 0.796875 0.515625 1.953125l0 3.40625q0 0.734375 0.65625 0.734375q0.328125 0 0.53125 -0.078125l-0.1875 1.8125q-0.5625 0.265625 -1.359375 0.265625q-0.734375 0 -1.296875 -0.234375q-0.546875 -0.234375 -0.875 -0.703125q-0.3125 -0.484375 -0.3125 -1.21875l0 -0.109375l0.359375 -0.125q0 0.796875 -0.484375 1.34375q-0.46875 0.546875 -1.234375 0.8125q-0.75 0.25 -1.5625 0.25q-0.953125 0 -1.671875 -0.296875q-0.703125 -0.296875 -1.09375 -0.859375q-0.375 -0.578125 -0.375 -1.421875q0 -1.0 0.609375 -1.65625q0.609375 -0.671875 1.90625 -0.9375l3.53125 -0.71875l-0.015625 1.671875l-1.796875 0.375q-0.5625 0.109375 -0.828125 0.328125q-0.265625 0.21875 -0.265625 0.640625q0 0.40625 0.296875 0.625q0.296875 0.203125 0.703125 0.203125q0.328125 0 0.609375 -0.09375q0.296875 -0.09375 0.515625 -0.28125q0.21875 -0.203125 0.34375 -0.5q0.140625 -0.3125 0.140625 -0.71875l0 -2.453125zm7.177002 -4.5q-0.96875 0 -1.40625 -0.359375q-0.4375 -0.375 -0.4375 -1.15625q0 -0.796875 0.4375 -1.15625q0.4375 -0.375 1.40625 -0.375q0.953125 0 1.40625 0.375q0.453125 0.359375 0.453125 1.15625q0 0.78125 -0.453125 1.15625q-0.453125 0.359375 -1.40625 0.359375zm1.59375 1.078125l0 9.328125l-3.171875 0l0 -9.328125l3.171875 0zm2.25708 9.328125l0 -9.328125l2.828125 0l0.171875 3.203125l-0.359375 -0.34375q0.1875 -1.015625 0.65625 -1.6875q0.484375 -0.671875 1.203125 -1.015625q0.71875 -0.34375 1.609375 -0.34375q0.984375 0 1.6875 0.375q0.71875 0.375 1.125 1.109375q0.421875 0.71875 0.421875 1.8125l0 6.21875l-3.171875 0l0 -5.375q0 -0.96875 -0.375 -1.34375q-0.375 -0.375 -0.953125 -0.375q-0.4375 0 -0.84375 0.21875q-0.390625 0.21875 -0.609375 0.6875q-0.21875 0.453125 -0.21875 1.25l0 4.9375l-3.171875 0z" fill-rule="nonzero"/><path fill="#000000" fill-opacity="0.0" d="m925.7664 172.83238l0 0c0 -9.776077 7.925049 -17.701141 17.70111 -17.701141l167.33789 0c4.69458 0 9.1970215 1.8649292 12.516602 5.18454c3.31958 3.3196106 5.1845703 7.8219604 5.1845703 12.516602l0 70.80243c0 9.776077 -7.925049 17.701157 -17.701172 17.701157l-167.33789 0c-9.776062 0 -17.70111 -7.9250793 -17.70111 -17.701157z" fill-rule="evenodd"/><path stroke="#8d3aed" stroke-width="4.0" stroke-linejoin="round" stroke-linecap="butt" d="m925.7664 172.83238l0 0c0 -9.776077 7.925049 -17.701141 17.70111 -17.701141l167.33789 0c4.69458 0 9.1970215 1.8649292 12.516602 5.18454c3.31958 3.3196106 5.1845703 7.8219604 5.1845703 12.516602l0 70.80243c0 9.776077 -7.925049 17.701157 -17.701172 17.701157l-167.33789 0c-9.776062 0 -17.70111 -7.9250793 -17.70111 -17.701157z" fill-rule="evenodd"/><path fill="#efefef" d="m988.2298 202.8411q1.515625 0 2.578125 0.484375q1.0625 0.484375 1.609375 1.40625q0.5625 0.90625 0.5625 2.21875q0 1.296875 -0.5625 2.21875q-0.546875 0.90625 -1.609375 1.390625q-1.0625 0.484375 -2.578125 0.484375l-2.4375 0l0 4.109375l-3.21875 0l0 -12.3125l5.65625 0zm-0.5 5.796875q1.0 0 1.515625 -0.40625q0.515625 -0.421875 0.515625 -1.28125q0 -0.859375 -0.515625 -1.28125q-0.515625 -0.421875 -1.515625 -0.421875l-1.9375 0l0 3.390625l1.9375 0zm12.290466 0.609375q0 -0.65625 -0.375 -1.03125q-0.359375 -0.390625 -0.96875 -0.390625q-0.609375 0 -1.0625 0.3125q-0.4375 0.296875 -0.59375 1.078125l-2.6875 -0.625q0.265625 -1.34375 1.375 -2.140625q1.125 -0.8125 3.15625 -0.8125q1.359375 0 2.3125 0.40625q0.96875 0.390625 1.484375 1.1875q0.515625 0.796875 0.515625 1.953125l0 3.40625q0 0.734375 0.65625 0.734375q0.328125 0 0.53125 -0.078125l-0.1875 1.8125q-0.5625 0.265625 -1.359375 0.265625q-0.734375 0 -1.296875 -0.234375q-0.546875 -0.234375 -0.875 -0.703125q-0.3125 -0.484375 -0.3125 -1.21875l0 -0.109375l0.359375 -0.125q0 0.796875 -0.484375 1.34375q-0.46875 0.546875 -1.234375 0.8125q-0.75 0.25 -1.5625 0.25q-0.953125 0 -1.671875 -0.296875q-0.703125 -0.296875 -1.09375 -0.859375q-0.375 -0.578125 -0.375 -1.421875q0 -1.0 0.609375 -1.65625q0.609375 -0.671875 1.90625 -0.9375l3.53125 -0.71875l-0.015625 1.671875l-1.796875 0.375q-0.5625 0.109375 -0.828125 0.328125q-0.265625 0.21875 -0.265625 0.640625q0 0.40625 0.296875 0.625q0.296875 0.203125 0.703125 0.203125q0.328125 0 0.609375 -0.09375q0.296875 -0.09375 0.515625 -0.28125q0.21875 -0.203125 0.34375 -0.5q0.140625 -0.3125 0.140625 -0.71875l0 -2.453125zm5.598877 5.90625l0 -9.328125l2.796875 0l0.125 2.015625q0.359375 -1.046875 1.0625 -1.625q0.703125 -0.578125 1.78125 -0.578125q0.34375 0 0.59375 0.0625q0.265625 0.046875 0.40625 0.140625l-0.3125 2.609375q-0.1875 -0.0625 -0.484375 -0.109375q-0.28125 -0.046875 -0.6875 -0.046875q-0.5625 0 -1.046875 0.25q-0.484375 0.234375 -0.78125 0.71875q-0.28125 0.46875 -0.28125 1.1875l0 4.703125l-3.171875 0zm13.113281 -5.90625q0 -0.65625 -0.375 -1.03125q-0.359375 -0.390625 -0.96875 -0.390625q-0.609375 0 -1.0625 0.3125q-0.4375 0.296875 -0.59375 1.078125l-2.6875 -0.625q0.265625 -1.34375 1.375 -2.140625q1.125 -0.8125 3.15625 -0.8125q1.359375 0 2.3125 0.40625q0.96875 0.390625 1.484375 1.1875q0.515625 0.796875 0.515625 1.953125l0 3.40625q0 0.734375 0.65625 0.734375q0.328125 0 0.53125 -0.078125l-0.1875 1.8125q-0.5625 0.265625 -1.359375 0.265625q-0.734375 0 -1.296875 -0.234375q-0.546875 -0.234375 -0.875 -0.703125q-0.3125 -0.484375 -0.3125 -1.21875l0 -0.109375l0.359375 -0.125q0 0.796875 -0.484375 1.34375q-0.46875 0.546875 -1.234375 0.8125q-0.75 0.25 -1.5625 0.25q-0.953125 0 -1.671875 -0.296875q-0.703125 -0.296875 -1.09375 -0.859375q-0.375 -0.578125 -0.375 -1.421875q0 -1.0 0.609375 -1.65625q0.609375 -0.671875 1.90625 -0.9375l3.53125 -0.71875l-0.015625 1.671875l-1.796875 0.375q-0.5625 0.109375 -0.828125 0.328125q-0.265625 0.21875 -0.265625 0.640625q0 0.40625 0.296875 0.625q0.296875 0.203125 0.703125 0.203125q0.328125 0 0.609375 -0.09375q0.296875 -0.09375 0.515625 -0.28125q0.21875 -0.203125 0.34375 -0.5q0.140625 -0.3125 0.140625 -0.71875l0 -2.453125zm9.946045 -3.609375q1.421875 0 2.359375 0.40625q0.9375 0.390625 1.46875 1.0625q0.53125 0.65625 0.671875 1.421875l-2.9375 0.96875q-0.125 -0.796875 -0.46875 -1.1875q-0.34375 -0.40625 -1.0 -0.40625q-0.59375 0 -1.0 0.265625q-0.40625 0.265625 -0.609375 0.859375q-0.203125 0.578125 -0.203125 1.5q0 0.90625 0.21875 1.484375q0.234375 0.5625 0.640625 0.8125q0.40625 0.25 0.96875 0.25q0.46875 0 0.765625 -0.171875q0.3125 -0.171875 0.515625 -0.5q0.203125 -0.34375 0.265625 -0.828125l2.859375 0.90625q-0.140625 0.828125 -0.703125 1.46875q-0.5625 0.640625 -1.5 1.015625q-0.9375 0.375 -2.1875 0.375q-1.53125 0 -2.671875 -0.5625q-1.125 -0.578125 -1.75 -1.671875q-0.60931396 -1.09375 -0.60931396 -2.625q0 -1.515625 0.60931396 -2.609375q0.625 -1.09375 1.734375 -1.65625q1.109375 -0.578125 2.5625 -0.578125zm6.15625 9.515625l0 -13.28125l3.171875 0l0 5.65625q0.40625 -0.9375 1.171875 -1.40625q0.765625 -0.484375 1.765625 -0.484375q0.984375 0 1.6875 0.375q0.71875 0.375 1.125 1.109375q0.421875 0.71875 0.421875 1.8125l0 6.21875l-3.171875 0l0 -5.328125q0 -1.015625 -0.375 -1.390625q-0.359375 -0.390625 -0.953125 -0.390625q-0.4375 0 -0.84375 0.234375q-0.390625 0.21875 -0.609375 0.703125q-0.21875 0.484375 -0.21875 1.265625l0 4.90625l-3.171875 0zm16.77002 -5.90625q0 -0.65625 -0.375 -1.03125q-0.359375 -0.390625 -0.96875 -0.390625q-0.609375 0 -1.0625 0.3125q-0.4375 0.296875 -0.59375 1.078125l-2.6875 -0.625q0.265625 -1.34375 1.375 -2.140625q1.125 -0.8125 3.15625 -0.8125q1.359375 0 2.3125 0.40625q0.96875 0.390625 1.484375 1.1875q0.515625 0.796875 0.515625 1.953125l0 3.40625q0 0.734375 0.65625 0.734375q0.328125 0 0.53125 -0.078125l-0.1875 1.8125q-0.5625 0.265625 -1.359375 0.265625q-0.734375 0 -1.296875 -0.234375q-0.546875 -0.234375 -0.875 -0.703125q-0.3125 -0.484375 -0.3125 -1.21875l0 -0.109375l0.359375 -0.125q0 0.796875 -0.484375 1.34375q-0.46875 0.546875 -1.234375 0.8125q-0.75 0.25 -1.5625 0.25q-0.953125 0 -1.671875 -0.296875q-0.703125 -0.296875 -1.09375 -0.859375q-0.375 -0.578125 -0.375 -1.421875q0 -1.0 0.609375 -1.65625q0.609375 -0.671875 1.90625 -0.9375l3.53125 -0.71875l-0.015625 1.671875l-1.796875 0.375q-0.5625 0.109375 -0.828125 0.328125q-0.265625 0.21875 -0.265625 0.640625q0 0.40625 0.296875 0.625q0.296875 0.203125 0.703125 0.203125q0.328125 0 0.609375 -0.09375q0.296875 -0.09375 0.515625 -0.28125q0.21875 -0.203125 0.34375 -0.5q0.140625 -0.3125 0.140625 -0.71875l0 -2.453125zm7.177002 -4.5q-0.96875 0 -1.40625 -0.359375q-0.4375 -0.375 -0.4375 -1.15625q0 -0.796875 0.4375 -1.15625q0.4375 -0.375 1.40625 -0.375q0.953125 0 1.40625 0.375q0.453125 0.359375 0.453125 1.15625q0 0.78125 -0.453125 1.15625q-0.453125 0.359375 -1.40625 0.359375zm1.59375 1.078125l0 9.328125l-3.171875 0l0 -9.328125l3.171875 0zm2.25708 9.328125l0 -9.328125l2.828125 0l0.171875 3.203125l-0.359375 -0.34375q0.1875 -1.015625 0.65625 -1.6875q0.484375 -0.671875 1.203125 -1.015625q0.71875 -0.34375 1.609375 -0.34375q0.984375 0 1.6875 0.375q0.71875 0.375 1.125 1.109375q0.421875 0.71875 0.421875 1.8125l0 6.21875l-3.171875 0l0 -5.375q0 -0.96875 -0.375 -1.34375q-0.375 -0.375 -0.953125 -0.375q-0.4375 0 -0.84375 0.21875q-0.390625 0.21875 -0.609375 0.6875q-0.21875 0.453125 -0.21875 1.25l0 4.9375l-3.171875 0z" fill-rule="nonzero"/><path fill="#000000" fill-opacity="0.0" d="m925.7664 510.2287l0 0c0 -9.776062 7.925049 -17.701141 17.70111 -17.701141l167.33789 0c4.69458 0 9.1970215 1.8649292 12.516602 5.18454c3.31958 3.3196106 5.1845703 7.8219604 5.1845703 12.516602l0 70.80243c0 9.776062 -7.925049 17.701172 -17.701172 17.701172l-167.33789 0c-9.776062 0 -17.70111 -7.92511 -17.70111 -17.701172z" fill-rule="evenodd"/><path stroke="#8d3aed" stroke-width="4.0" stroke-linejoin="round" stroke-linecap="butt" d="m925.7664 510.2287l0 0c0 -9.776062 7.925049 -17.701141 17.70111 -17.701141l167.33789 0c4.69458 0 9.1970215 1.8649292 12.516602 5.18454c3.31958 3.3196106 5.1845703 7.8219604 5.1845703 12.516602l0 70.80243c0 9.776062 -7.925049 17.701172 -17.701172 17.701172l-167.33789 0c-9.776062 0 -17.70111 -7.92511 -17.70111 -17.701172z" fill-rule="evenodd"/><path fill="#efefef" d="m988.2298 540.2374q1.515625 0 2.578125 0.484375q1.0625 0.484375 1.609375 1.40625q0.5625 0.90625 0.5625 2.21875q0 1.296875 -0.5625 2.21875q-0.546875 0.90625 -1.609375 1.390625q-1.0625 0.484375 -2.578125 0.484375l-2.4375 0l0 4.109375l-3.21875 0l0 -12.3125l5.65625 0zm-0.5 5.796875q1.0 0 1.515625 -0.40625q0.515625 -0.421875 0.515625 -1.28125q0 -0.859375 -0.515625 -1.28125q-0.515625 -0.421875 -1.515625 -0.421875l-1.9375 0l0 3.390625l1.9375 0zm12.290466 0.609375q0 -0.65625 -0.375 -1.03125q-0.359375 -0.390625 -0.96875 -0.390625q-0.609375 0 -1.0625 0.3125q-0.4375 0.296875 -0.59375 1.078125l-2.6875 -0.625q0.265625 -1.34375 1.375 -2.140625q1.125 -0.8125 3.15625 -0.8125q1.359375 0 2.3125 0.40625q0.96875 0.390625 1.484375 1.1875q0.515625 0.796875 0.515625 1.953125l0 3.40625q0 0.734375 0.65625 0.734375q0.328125 0 0.53125 -0.078125l-0.1875 1.8125q-0.5625 0.265625 -1.359375 0.265625q-0.734375 0 -1.296875 -0.234375q-0.546875 -0.234375 -0.875 -0.703125q-0.3125 -0.484375 -0.3125 -1.21875l0 -0.109375l0.359375 -0.125q0 0.796875 -0.484375 1.34375q-0.46875 0.546875 -1.234375 0.8125q-0.75 0.25 -1.5625 0.25q-0.953125 0 -1.671875 -0.296875q-0.703125 -0.296875 -1.09375 -0.859375q-0.375 -0.578125 -0.375 -1.421875q0 -1.0 0.609375 -1.65625q0.609375 -0.671875 1.90625 -0.9375l3.53125 -0.71875l-0.015625 1.671875l-1.796875 0.375q-0.5625 0.109375 -0.828125 0.328125q-0.265625 0.21875 -0.265625 0.640625q0 0.40625 0.296875 0.625q0.296875 0.203125 0.703125 0.203125q0.328125 0 0.609375 -0.09375q0.296875 -0.09375 0.515625 -0.28125q0.21875 -0.203125 0.34375 -0.5q0.140625 -0.3125 0.140625 -0.71875l0 -2.453125zm5.598877 5.90625l0 -9.328125l2.796875 0l0.125 2.015625q0.359375 -1.046875 1.0625 -1.625q0.703125 -0.578125 1.78125 -0.578125q0.34375 0 0.59375 0.0625q0.265625 0.046875 0.40625 0.140625l-0.3125 2.609375q-0.1875 -0.0625 -0.484375 -0.109375q-0.28125 -0.046875 -0.6875 -0.046875q-0.5625 0 -1.046875 0.25q-0.484375 0.234375 -0.78125 0.71875q-0.28125 0.46875 -0.28125 1.1875l0 4.703125l-3.171875 0zm13.113281 -5.90625q0 -0.65625 -0.375 -1.03125q-0.359375 -0.390625 -0.96875 -0.390625q-0.609375 0 -1.0625 0.3125q-0.4375 0.296875 -0.59375 1.078125l-2.6875 -0.625q0.265625 -1.34375 1.375 -2.140625q1.125 -0.8125 3.15625 -0.8125q1.359375 0 2.3125 0.40625q0.96875 0.390625 1.484375 1.1875q0.515625 0.796875 0.515625 1.953125l0 3.40625q0 0.734375 0.65625 0.734375q0.328125 0 0.53125 -0.078125l-0.1875 1.8125q-0.5625 0.265625 -1.359375 0.265625q-0.734375 0 -1.296875 -0.234375q-0.546875 -0.234375 -0.875 -0.703125q-0.3125 -0.484375 -0.3125 -1.21875l0 -0.109375l0.359375 -0.125q0 0.796875 -0.484375 1.34375q-0.46875 0.546875 -1.234375 0.8125q-0.75 0.25 -1.5625 0.25q-0.953125 0 -1.671875 -0.296875q-0.703125 -0.296875 -1.09375 -0.859375q-0.375 -0.578125 -0.375 -1.421875q0 -1.0 0.609375 -1.65625q0.609375 -0.671875 1.90625 -0.9375l3.53125 -0.71875l-0.015625 1.671875l-1.796875 0.375q-0.5625 0.109375 -0.828125 0.328125q-0.265625 0.21875 -0.265625 0.640625q0 0.40625 0.296875 0.625q0.296875 0.203125 0.703125 0.203125q0.328125 0 0.609375 -0.09375q0.296875 -0.09375 0.515625 -0.28125q0.21875 -0.203125 0.34375 -0.5q0.140625 -0.3125 0.140625 -0.71875l0 -2.453125zm9.946045 -3.609375q1.421875 0 2.359375 0.40625q0.9375 0.390625 1.46875 1.0625q0.53125 0.65625 0.671875 1.421875l-2.9375 0.96875q-0.125 -0.796875 -0.46875 -1.1875q-0.34375 -0.40625 -1.0 -0.40625q-0.59375 0 -1.0 0.265625q-0.40625 0.265625 -0.609375 0.859375q-0.203125 0.578125 -0.203125 1.5q0 0.90625 0.21875 1.484375q0.234375 0.5625 0.640625 0.8125q0.40625 0.25 0.96875 0.25q0.46875 0 0.765625 -0.171875q0.3125 -0.171875 0.515625 -0.5q0.203125 -0.34375 0.265625 -0.828125l2.859375 0.90625q-0.140625 0.828125 -0.703125 1.46875q-0.5625 0.640625 -1.5 1.015625q-0.9375 0.375 -2.1875 0.375q-1.53125 0 -2.671875 -0.5625q-1.125 -0.578125 -1.75 -1.671875q-0.60931396 -1.09375 -0.60931396 -2.625q0 -1.515625 0.60931396 -2.609375q0.625 -1.09375 1.734375 -1.65625q1.109375 -0.578125 2.5625 -0.578125zm6.15625 9.515625l0 -13.28125l3.171875 0l0 5.65625q0.40625 -0.9375 1.171875 -1.40625q0.765625 -0.484375 1.765625 -0.484375q0.984375 0 1.6875 0.375q0.71875 0.375 1.125 1.109375q0.421875 0.71875 0.421875 1.8125l0 6.21875l-3.171875 0l0 -5.328125q0 -1.015625 -0.375 -1.390625q-0.359375 -0.390625 -0.953125 -0.390625q-0.4375 0 -0.84375 0.234375q-0.390625 0.21875 -0.609375 0.703125q-0.21875 0.484375 -0.21875 1.265625l0 4.90625l-3.171875 0zm16.77002 -5.90625q0 -0.65625 -0.375 -1.03125q-0.359375 -0.390625 -0.96875 -0.390625q-0.609375 0 -1.0625 0.3125q-0.4375 0.296875 -0.59375 1.078125l-2.6875 -0.625q0.265625 -1.34375 1.375 -2.140625q1.125 -0.8125 3.15625 -0.8125q1.359375 0 2.3125 0.40625q0.96875 0.390625 1.484375 1.1875q0.515625 0.796875 0.515625 1.953125l0 3.40625q0 0.734375 0.65625 0.734375q0.328125 0 0.53125 -0.078125l-0.1875 1.8125q-0.5625 0.265625 -1.359375 0.265625q-0.734375 0 -1.296875 -0.234375q-0.546875 -0.234375 -0.875 -0.703125q-0.3125 -0.484375 -0.3125 -1.21875l0 -0.109375l0.359375 -0.125q0 0.796875 -0.484375 1.34375q-0.46875 0.546875 -1.234375 0.8125q-0.75 0.25 -1.5625 0.25q-0.953125 0 -1.671875 -0.296875q-0.703125 -0.296875 -1.09375 -0.859375q-0.375 -0.578125 -0.375 -1.421875q0 -1.0 0.609375 -1.65625q0.609375 -0.671875 1.90625 -0.9375l3.53125 -0.71875l-0.015625 1.671875l-1.796875 0.375q-0.5625 0.109375 -0.828125 0.328125q-0.265625 0.21875 -0.265625 0.640625q0 0.40625 0.296875 0.625q0.296875 0.203125 0.703125 0.203125q0.328125 0 0.609375 -0.09375q0.296875 -0.09375 0.515625 -0.28125q0.21875 -0.203125 0.34375 -0.5q0.140625 -0.3125 0.140625 -0.71875l0 -2.453125zm7.177002 -4.5q-0.96875 0 -1.40625 -0.359375q-0.4375 -0.375 -0.4375 -1.15625q0 -0.796875 0.4375 -1.15625q0.4375 -0.375 1.40625 -0.375q0.953125 0 1.40625 0.375q0.453125 0.359375 0.453125 1.15625q0 0.78125 -0.453125 1.15625q-0.453125 0.359375 -1.40625 0.359375zm1.59375 1.078125l0 9.328125l-3.171875 0l0 -9.328125l3.171875 0zm2.25708 9.328125l0 -9.328125l2.828125 0l0.171875 3.203125l-0.359375 -0.34375q0.1875 -1.015625 0.65625 -1.6875q0.484375 -0.671875 1.203125 -1.015625q0.71875 -0.34375 1.609375 -0.34375q0.984375 0 1.6875 0.375q0.71875 0.375 1.125 1.109375q0.421875 0.71875 0.421875 1.8125l0 6.21875l-3.171875 0l0 -5.375q0 -0.96875 -0.375 -1.34375q-0.375 -0.375 -0.953125 -0.375q-0.4375 0 -0.84375 0.21875q-0.390625 0.21875 -0.609375 0.6875q-0.21875 0.453125 -0.21875 1.25l0 4.9375l-3.171875 0z" fill-rule="nonzero"/><path fill="#000000" fill-opacity="0.0" d="m1027.1365 261.34122l0 62.48819" fill-rule="evenodd"/><path stroke="#8d3aed" stroke-width="4.0" stroke-linejoin="round" stroke-linecap="butt" d="m1027.1365 261.34122l0 38.48819" fill-rule="evenodd"/><path fill="#8d3aed" stroke="#8d3aed" stroke-width="4.0" stroke-linecap="butt" d="m1020.52954 299.8294l6.6069336 18.152374l6.6069336 -18.152374z" fill-rule="evenodd"/><path fill="#000000" fill-opacity="0.0" d="m1027.1365 430.03412l0 62.48819" fill-rule="evenodd"/><path stroke="#8d3aed" stroke-width="4.0" stroke-linejoin="round" stroke-linecap="butt" d="m1027.1365 430.03412l0 38.48819" fill-rule="evenodd"/><path fill="#8d3aed" stroke="#8d3aed" stroke-width="4.0" stroke-linecap="butt" d="m1020.52954 468.5223l6.6069336 18.152405l6.6069336 -18.152405z" fill-rule="evenodd"/><path fill="#000000" fill-opacity="0.0" d="m8.3202095 2.448819l-2.1417317 699.4016" fill-rule="evenodd"/><path stroke="#8d3aed" stroke-width="8.0" stroke-linejoin="round" stroke-linecap="butt" d="m8.3202095 2.448819l-2.1417317 699.4016" fill-rule="evenodd"/><path fill="#000000" fill-opacity="0.0" d="m1304.6221 2.448819l-2.1417236 699.4016" fill-rule="evenodd"/><path stroke="#8d3aed" stroke-width="8.0" stroke-linejoin="round" stroke-linecap="butt" d="m1304.6221 2.448819l-2.1417236 699.4016" fill-rule="evenodd"/><path fill="#000000" fill-opacity="0.0" d="m6.4356956 3.2178478l1304.4094 2.1417322" fill-rule="evenodd"/><path stroke="#8d3aed" stroke-width="8.0" stroke-linejoin="round" stroke-linecap="butt" d="m6.4356956 3.2178478l1304.4094 2.1417322" fill-rule="evenodd"/><path fill="#000000" fill-opacity="0.0" d="m3.223097 701.8504l1304.4094 2.1417236" fill-rule="evenodd"/><path stroke="#8d3aed" stroke-width="8.0" stroke-linejoin="round" stroke-linecap="butt" d="m3.223097 701.8504l1304.4094 2.1417236" fill-rule="evenodd"/></g></svg>