<svg version="1.1" viewBox="0.0 0.0 631.8792650918635 119.48031496062993" fill="none" stroke="none" stroke-linecap="square" stroke-miterlimit="10" xmlns:xlink="http://www.w3.org/1999/xlink" xmlns="http://www.w3.org/2000/svg"><clipPath id="p.0"><path d="m0 0l631.8793 0l0 119.480316l-631.8793 0l0 -119.480316z" clip-rule="nonzero"/></clipPath><g clip-path="url(#p.0)"><path fill="#000000" fill-opacity="0.0" d="m0 0l631.8793 0l0 119.480316l-631.8793 0z" fill-rule="evenodd"/><path fill="#eeeeee" d="m3.1391077 11.198681l0 0c0 -4.470386 3.6239638 -8.09435 8.09435 -8.09435l51.118385 0c2.1467514 0 4.2055817 0.8527951 5.723572 2.3707802c1.5179825 1.5179853 2.370781 3.5768147 2.370781 5.72357l0 100.75618c0 4.4703827 -3.62397 8.094345 -8.094353 8.094345l-51.118385 0c-4.470386 0 -8.09435 -3.6239624 -8.09435 -8.094345z" fill-rule="evenodd"/><path stroke="#595959" stroke-width="1.0" stroke-linejoin="round" stroke-linecap="butt" d="m3.1391077 11.198681l0 0c0 -4.470386 3.6239638 -8.09435 8.09435 -8.09435l51.118385 0c2.1467514 0 4.2055817 0.8527951 5.723572 2.3707802c1.5179825 1.5179853 2.370781 3.5768147 2.370781 5.72357l0 100.75618c0 4.4703827 -3.62397 8.094345 -8.094353 8.094345l-51.118385 0c-4.470386 0 -8.09435 -3.6239624 -8.09435 -8.094345z" fill-rule="evenodd"/><path fill="#000000" d="m12.477691 15.417984l48.62992 0l0 81.98425l-48.62992 0z" fill-rule="evenodd"/><path stroke="#595959" stroke-width="1.0" stroke-linejoin="round" stroke-linecap="butt" d="m12.477691 15.417984l48.62992 0l0 81.98425l-48.62992 0z" fill-rule="evenodd"/><path fill="#000000" d="m18.619423 9.558407l0 0c0 -0.22613621 0.18331909 -0.40945625 0.40945625 -0.40945625l35.527542 0c0.10859299 0 0.21274185 0.043138504 0.2895279 0.11992645c0.076789856 0.07678795 0.11992645 0.1809349 0.11992645 0.2895298l0 1.6377792c0 0.22613716 -0.18331909 0.4094572 -0.40945435 0.4094572l-35.527542 0c-0.22613716 0 -0.40945625 -0.18332005 -0.40945625 -0.4094572z" fill-rule="evenodd"/><path stroke="#595959" stroke-width="1.0" stroke-linejoin="round" stroke-linecap="butt" d="m18.619423 9.558407l0 0c0 -0.22613621 0.18331909 -0.40945625 0.40945625 -0.40945625l35.527542 0c0.10859299 0 0.21274185 0.043138504 0.2895279 0.11992645c0.076789856 0.07678795 0.11992645 0.1809349 0.11992645 0.2895298l0 1.6377792c0 0.22613716 -0.18331909 0.4094572 -0.40945435 0.4094572l-35.527542 0c-0.22613716 0 -0.40945625 -0.18332005 -0.40945625 -0.4094572z" fill-rule="evenodd"/><path fill="#000000" d="m30.39895 107.61206l0 0c0 -3.5311432 2.8625584 -6.3936996 6.3937016 -6.3936996l0 0c1.695713 0 3.3219757 0.6736145 4.5210266 1.8726654c1.1990547 1.1990509 1.872673 2.8253174 1.872673 4.5210342l0 0c0 3.5311432 -2.8625565 6.3936996 -6.3936996 6.3936996l0 0c-3.5311432 0 -6.3937016 -2.8625565 -6.3937016 -6.3936996z" fill-rule="evenodd"/><path stroke="#595959" stroke-width="1.0" stroke-linejoin="round" stroke-linecap="butt" d="m30.39895 107.61206l0 0c0 -3.5311432 2.8625584 -6.3936996 6.3937016 -6.3936996l0 0c1.695713 0 3.3219757 0.6736145 4.5210266 1.8726654c1.1990547 1.1990509 1.872673 2.8253174 1.872673 4.5210342l0 0c0 3.5311432 -2.8625565 6.3936996 -6.3936996 6.3936996l0 0c-3.5311432 0 -6.3937016 -2.8625565 -6.3937016 -6.3936996z" fill-rule="evenodd"/><path fill="#8e7cc3" d="m263.3517 27.41273l81.102356 0l0 67.84252l-81.102356 0z" fill-rule="evenodd"/><path stroke="#595959" stroke-width="1.0" stroke-linejoin="round" stroke-linecap="butt" d="m263.3517 27.41273l81.102356 0l0 67.84252l-81.102356 0z" fill-rule="evenodd"/><path fill="#351c75" d="m257.5853 10.299939l0 0c0 -1.9453564 1.5770264 -3.5223799 3.5224 -3.5223799l85.33319 0c0.9341736 0 1.8301086 0.37110662 2.4906921 1.0316811c0.660553 0.66057396 1.0316772 1.5565052 1.0316772 2.4906988l0 14.089099c0 1.9453564 -1.5770264 3.522379 -3.5223694 3.522379l-85.33319 0c-1.9453735 0 -3.5224 -1.5770226 -3.5224 -3.522379z" fill-rule="evenodd"/><path stroke="#595959" stroke-width="1.0" stroke-linejoin="round" stroke-linecap="butt" d="m257.5853 10.299939l0 0c0 -1.9453564 1.5770264 -3.5223799 3.5224 -3.5223799l85.33319 0c0.9341736 0 1.8301086 0.37110662 2.4906921 1.0316811c0.660553 0.66057396 1.0316772 1.5565052 1.0316772 2.4906988l0 14.089099c0 1.9453564 -1.5770264 3.522379 -3.5223694 3.522379l-85.33319 0c-1.9453735 0 -3.5224 -1.5770226 -3.5224 -3.522379z" fill-rule="evenodd"/><path fill="#00ff00" d="m266.43045 13.17126l8.346466 0l0 8.3464575l-8.346466 0z" fill-rule="evenodd"/><path stroke="#595959" stroke-width="1.0" stroke-linejoin="round" stroke-linecap="butt" d="m266.43045 13.17126l8.346466 0l0 8.3464575l-8.346466 0z" fill-rule="evenodd"/><path fill="#ff9900" d="m278.99213 13.17126l8.346466 0l0 8.3464575l-8.346466 0z" fill-rule="evenodd"/><path stroke="#595959" stroke-width="1.0" stroke-linejoin="round" stroke-linecap="butt" d="m278.99213 13.17126l8.346466 0l0 8.3464575l-8.346466 0z" fill-rule="evenodd"/><path fill="#ff0000" d="m291.5538 13.17126l8.346466 0l0 8.3464575l-8.346466 0z" fill-rule="evenodd"/><path stroke="#595959" stroke-width="1.0" stroke-linejoin="round" stroke-linecap="butt" d="m291.5538 13.17126l8.346466 0l0 8.3464575l-8.346466 0z" fill-rule="evenodd"/><path fill="#351c75" d="m257.5853 39.788128l0 0c0 -1.9453583 1.5770264 -3.5223808 3.5224 -3.5223808l85.33319 0c0.9341736 0 1.8301086 0.371109 2.4906921 1.0316811c0.660553 0.66057587 1.0316772 1.5565071 1.0316772 2.4906998l0 14.0891c0 1.9453545 -1.5770264 3.522377 -3.5223694 3.522377l-85.33319 0c-1.9453735 0 -3.5224 -1.5770226 -3.5224 -3.522377z" fill-rule="evenodd"/><path stroke="#595959" stroke-width="1.0" stroke-linejoin="round" stroke-linecap="butt" d="m257.5853 39.788128l0 0c0 -1.9453583 1.5770264 -3.5223808 3.5224 -3.5223808l85.33319 0c0.9341736 0 1.8301086 0.371109 2.4906921 1.0316811c0.660553 0.66057587 1.0316772 1.5565071 1.0316772 2.4906998l0 14.0891c0 1.9453545 -1.5770264 3.522377 -3.5223694 3.522377l-85.33319 0c-1.9453735 0 -3.5224 -1.5770226 -3.5224 -3.522377z" fill-rule="evenodd"/><path fill="#00ff00" d="m266.43045 42.65945l8.346466 0l0 8.346455l-8.346466 0z" fill-rule="evenodd"/><path stroke="#595959" stroke-width="1.0" stroke-linejoin="round" stroke-linecap="butt" d="m266.43045 42.65945l8.346466 0l0 8.346455l-8.346466 0z" fill-rule="evenodd"/><path fill="#ff9900" d="m278.99213 42.65945l8.346466 0l0 8.346455l-8.346466 0z" fill-rule="evenodd"/><path stroke="#595959" stroke-width="1.0" stroke-linejoin="round" stroke-linecap="butt" d="m278.99213 42.65945l8.346466 0l0 8.346455l-8.346466 0z" fill-rule="evenodd"/><path fill="#ff0000" d="m291.5538 42.65945l8.346466 0l0 8.346455l-8.346466 0z" fill-rule="evenodd"/><path stroke="#595959" stroke-width="1.0" stroke-linejoin="round" stroke-linecap="butt" d="m291.5538 42.65945l8.346466 0l0 8.346455l-8.346466 0z" fill-rule="evenodd"/><path fill="#351c75" d="m257.5853 69.27631l0 0c0 -1.9453506 1.5770264 -3.522377 3.5224 -3.522377l85.33319 0c0.9341736 0 1.8301086 0.371109 2.4906921 1.0316849c0.660553 0.66056824 1.0316772 1.5565033 1.0316772 2.4906921l0 14.089104c0 1.9453583 -1.5770264 3.522377 -3.5223694 3.522377l-85.33319 0c-1.9453735 0 -3.5224 -1.5770187 -3.5224 -3.522377z" fill-rule="evenodd"/><path stroke="#595959" stroke-width="1.0" stroke-linejoin="round" stroke-linecap="butt" d="m257.5853 69.27631l0 0c0 -1.9453506 1.5770264 -3.522377 3.5224 -3.522377l85.33319 0c0.9341736 0 1.8301086 0.371109 2.4906921 1.0316849c0.660553 0.66056824 1.0316772 1.5565033 1.0316772 2.4906921l0 14.089104c0 1.9453583 -1.5770264 3.522377 -3.5223694 3.522377l-85.33319 0c-1.9453735 0 -3.5224 -1.5770187 -3.5224 -3.522377z" fill-rule="evenodd"/><path fill="#00ff00" d="m266.43045 72.14764l8.346466 0l0 8.346458l-8.346466 0z" fill-rule="evenodd"/><path stroke="#595959" stroke-width="1.0" stroke-linejoin="round" stroke-linecap="butt" d="m266.43045 72.14764l8.346466 0l0 8.346458l-8.346466 0z" fill-rule="evenodd"/><path fill="#ff9900" d="m278.99213 72.14764l8.346466 0l0 8.346458l-8.346466 0z" fill-rule="evenodd"/><path stroke="#595959" stroke-width="1.0" stroke-linejoin="round" stroke-linecap="butt" d="m278.99213 72.14764l8.346466 0l0 8.346458l-8.346466 0z" fill-rule="evenodd"/><path fill="#ff0000" d="m291.5538 72.14764l8.346466 0l0 8.346458l-8.346466 0z" fill-rule="evenodd"/><path stroke="#595959" stroke-width="1.0" stroke-linejoin="round" stroke-linecap="butt" d="m291.5538 72.14764l8.346466 0l0 8.346458l-8.346466 0z" fill-rule="evenodd"/><path fill="#351c75" d="m257.5853 98.7645l0 0c0 -1.9453506 1.5770264 -3.522377 3.5224 -3.522377l85.33319 0c0.9341736 0 1.8301086 0.371109 2.4906921 1.0316772c0.660553 0.66057587 1.0316772 1.5565109 1.0316772 2.4906998l0 14.089104c0 1.9453506 -1.5770264 3.522377 -3.5223694 3.522377l-85.33319 0c-1.9453735 0 -3.5224 -1.5770264 -3.5224 -3.522377z" fill-rule="evenodd"/><path stroke="#595959" stroke-width="1.0" stroke-linejoin="round" stroke-linecap="butt" d="m257.5853 98.7645l0 0c0 -1.9453506 1.5770264 -3.522377 3.5224 -3.522377l85.33319 0c0.9341736 0 1.8301086 0.371109 2.4906921 1.0316772c0.660553 0.66057587 1.0316772 1.5565109 1.0316772 2.4906998l0 14.089104c0 1.9453506 -1.5770264 3.522377 -3.5223694 3.522377l-85.33319 0c-1.9453735 0 -3.5224 -1.5770264 -3.5224 -3.522377z" fill-rule="evenodd"/><path fill="#00ff00" d="m266.43045 101.635826l8.346466 0l0 8.346458l-8.346466 0z" fill-rule="evenodd"/><path stroke="#595959" stroke-width="1.0" stroke-linejoin="round" stroke-linecap="butt" d="m266.43045 101.635826l8.346466 0l0 8.346458l-8.346466 0z" fill-rule="evenodd"/><path fill="#ff9900" d="m278.99213 101.635826l8.346466 0l0 8.346458l-8.346466 0z" fill-rule="evenodd"/><path stroke="#595959" stroke-width="1.0" stroke-linejoin="round" stroke-linecap="butt" d="m278.99213 101.635826l8.346466 0l0 8.346458l-8.346466 0z" fill-rule="evenodd"/><path fill="#ff0000" d="m291.5538 101.635826l8.346466 0l0 8.346458l-8.346466 0z" fill-rule="evenodd"/><path stroke="#595959" stroke-width="1.0" stroke-linejoin="round" stroke-linecap="butt" d="m291.5538 101.635826l8.346466 0l0 8.346458l-8.346466 0z" fill-rule="evenodd"/><path fill="#ffd966" d="m542.8688 27.41273l81.102356 0l0 67.84252l-81.102356 0z" fill-rule="evenodd"/><path stroke="#595959" stroke-width="1.0" stroke-linejoin="round" stroke-linecap="butt" d="m542.8688 27.41273l81.102356 0l0 67.84252l-81.102356 0z" fill-rule="evenodd"/><path fill="#bf9000" d="m537.10236 10.299939l0 0c0 -1.9453564 1.5770264 -3.5223799 3.5224 -3.5223799l85.33319 0c0.9342041 0 1.8301392 0.37110662 2.4906616 1.0316811c0.6605835 0.66057396 1.0316772 1.5565052 1.0316772 2.4906988l0 14.089099c0 1.9453564 -1.5769653 3.522379 -3.5223389 3.522379l-85.33319 0c-1.9453735 0 -3.5224 -1.5770226 -3.5224 -3.522379z" fill-rule="evenodd"/><path stroke="#595959" stroke-width="1.0" stroke-linejoin="round" stroke-linecap="butt" d="m537.10236 10.299939l0 0c0 -1.9453564 1.5770264 -3.5223799 3.5224 -3.5223799l85.33319 0c0.9342041 0 1.8301392 0.37110662 2.4906616 1.0316811c0.6605835 0.66057396 1.0316772 1.5565052 1.0316772 2.4906988l0 14.089099c0 1.9453564 -1.5769653 3.522379 -3.5223389 3.522379l-85.33319 0c-1.9453735 0 -3.5224 -1.5770226 -3.5224 -3.522379z" fill-rule="evenodd"/><path fill="#00ff00" d="m545.9475 13.17126l8.346436 0l0 8.3464575l-8.346436 0z" fill-rule="evenodd"/><path stroke="#595959" stroke-width="1.0" stroke-linejoin="round" stroke-linecap="butt" d="m545.9475 13.17126l8.346436 0l0 8.3464575l-8.346436 0z" fill-rule="evenodd"/><path fill="#ff9900" d="m558.5092 13.17126l8.346436 0l0 8.3464575l-8.346436 0z" fill-rule="evenodd"/><path stroke="#595959" stroke-width="1.0" stroke-linejoin="round" stroke-linecap="butt" d="m558.5092 13.17126l8.346436 0l0 8.3464575l-8.346436 0z" fill-rule="evenodd"/><path fill="#ff0000" d="m571.07086 13.17126l8.346436 0l0 8.3464575l-8.346436 0z" fill-rule="evenodd"/><path stroke="#595959" stroke-width="1.0" stroke-linejoin="round" stroke-linecap="butt" d="m571.07086 13.17126l8.346436 0l0 8.3464575l-8.346436 0z" fill-rule="evenodd"/><path fill="#bf9000" d="m537.10236 39.788128l0 0c0 -1.9453583 1.5770264 -3.5223808 3.5224 -3.5223808l85.33319 0c0.9342041 0 1.8301392 0.371109 2.4906616 1.0316811c0.6605835 0.66057587 1.0316772 1.5565071 1.0316772 2.4906998l0 14.0891c0 1.9453545 -1.5769653 3.522377 -3.5223389 3.522377l-85.33319 0c-1.9453735 0 -3.5224 -1.5770226 -3.5224 -3.522377z" fill-rule="evenodd"/><path stroke="#595959" stroke-width="1.0" stroke-linejoin="round" stroke-linecap="butt" d="m537.10236 39.788128l0 0c0 -1.9453583 1.5770264 -3.5223808 3.5224 -3.5223808l85.33319 0c0.9342041 0 1.8301392 0.371109 2.4906616 1.0316811c0.6605835 0.66057587 1.0316772 1.5565071 1.0316772 2.4906998l0 14.0891c0 1.9453545 -1.5769653 3.522377 -3.5223389 3.522377l-85.33319 0c-1.9453735 0 -3.5224 -1.5770226 -3.5224 -3.522377z" fill-rule="evenodd"/><path fill="#00ff00" d="m545.9475 42.65945l8.346436 0l0 8.346455l-8.346436 0z" fill-rule="evenodd"/><path stroke="#595959" stroke-width="1.0" stroke-linejoin="round" stroke-linecap="butt" d="m545.9475 42.65945l8.346436 0l0 8.346455l-8.346436 0z" fill-rule="evenodd"/><path fill="#ff9900" d="m558.5092 42.65945l8.346436 0l0 8.346455l-8.346436 0z" fill-rule="evenodd"/><path stroke="#595959" stroke-width="1.0" stroke-linejoin="round" stroke-linecap="butt" d="m558.5092 42.65945l8.346436 0l0 8.346455l-8.346436 0z" fill-rule="evenodd"/><path fill="#ff0000" d="m571.07086 42.65945l8.346436 0l0 8.346455l-8.346436 0z" fill-rule="evenodd"/><path stroke="#595959" stroke-width="1.0" stroke-linejoin="round" stroke-linecap="butt" d="m571.07086 42.65945l8.346436 0l0 8.346455l-8.346436 0z" fill-rule="evenodd"/><path fill="#bf9000" d="m537.10236 69.27631l0 0c0 -1.9453506 1.5770264 -3.522377 3.5224 -3.522377l85.33319 0c0.9342041 0 1.8301392 0.371109 2.4906616 1.0316849c0.6605835 0.66056824 1.0316772 1.5565033 1.0316772 2.4906921l0 14.089104c0 1.9453583 -1.5769653 3.522377 -3.5223389 3.522377l-85.33319 0c-1.9453735 0 -3.5224 -1.5770187 -3.5224 -3.522377z" fill-rule="evenodd"/><path stroke="#595959" stroke-width="1.0" stroke-linejoin="round" stroke-linecap="butt" d="m537.10236 69.27631l0 0c0 -1.9453506 1.5770264 -3.522377 3.5224 -3.522377l85.33319 0c0.9342041 0 1.8301392 0.371109 2.4906616 1.0316849c0.6605835 0.66056824 1.0316772 1.5565033 1.0316772 2.4906921l0 14.089104c0 1.9453583 -1.5769653 3.522377 -3.5223389 3.522377l-85.33319 0c-1.9453735 0 -3.5224 -1.5770187 -3.5224 -3.522377z" fill-rule="evenodd"/><path fill="#00ff00" d="m545.9475 72.14764l8.346436 0l0 8.346458l-8.346436 0z" fill-rule="evenodd"/><path stroke="#595959" stroke-width="1.0" stroke-linejoin="round" stroke-linecap="butt" d="m545.9475 72.14764l8.346436 0l0 8.346458l-8.346436 0z" fill-rule="evenodd"/><path fill="#ff9900" d="m558.5092 72.14764l8.346436 0l0 8.346458l-8.346436 0z" fill-rule="evenodd"/><path stroke="#595959" stroke-width="1.0" stroke-linejoin="round" stroke-linecap="butt" d="m558.5092 72.14764l8.346436 0l0 8.346458l-8.346436 0z" fill-rule="evenodd"/><path fill="#ff0000" d="m571.07086 72.14764l8.346436 0l0 8.346458l-8.346436 0z" fill-rule="evenodd"/><path stroke="#595959" stroke-width="1.0" stroke-linejoin="round" stroke-linecap="butt" d="m571.07086 72.14764l8.346436 0l0 8.346458l-8.346436 0z" fill-rule="evenodd"/><path fill="#bf9000" d="m537.10236 98.7645l0 0c0 -1.9453506 1.5770264 -3.522377 3.5224 -3.522377l85.33319 0c0.9342041 0 1.8301392 0.371109 2.4906616 1.0316772c0.6605835 0.66057587 1.0316772 1.5565109 1.0316772 2.4906998l0 14.089104c0 1.9453506 -1.5769653 3.522377 -3.5223389 3.522377l-85.33319 0c-1.9453735 0 -3.5224 -1.5770264 -3.5224 -3.522377z" fill-rule="evenodd"/><path stroke="#595959" stroke-width="1.0" stroke-linejoin="round" stroke-linecap="butt" d="m537.10236 98.7645l0 0c0 -1.9453506 1.5770264 -3.522377 3.5224 -3.522377l85.33319 0c0.9342041 0 1.8301392 0.371109 2.4906616 1.0316772c0.6605835 0.66057587 1.0316772 1.5565109 1.0316772 2.4906998l0 14.089104c0 1.9453506 -1.5769653 3.522377 -3.5223389 3.522377l-85.33319 0c-1.9453735 0 -3.5224 -1.5770264 -3.5224 -3.522377z" fill-rule="evenodd"/><path fill="#00ff00" d="m545.9475 101.635826l8.346436 0l0 8.346458l-8.346436 0z" fill-rule="evenodd"/><path stroke="#595959" stroke-width="1.0" stroke-linejoin="round" stroke-linecap="butt" d="m545.9475 101.635826l8.346436 0l0 8.346458l-8.346436 0z" fill-rule="evenodd"/><path fill="#ff9900" d="m558.5092 101.635826l8.346436 0l0 8.346458l-8.346436 0z" fill-rule="evenodd"/><path stroke="#595959" stroke-width="1.0" stroke-linejoin="round" stroke-linecap="butt" d="m558.5092 101.635826l8.346436 0l0 8.346458l-8.346436 0z" fill-rule="evenodd"/><path fill="#ff0000" d="m571.07086 101.635826l8.346436 0l0 8.346458l-8.346436 0z" fill-rule="evenodd"/><path stroke="#595959" stroke-width="1.0" stroke-linejoin="round" stroke-linecap="butt" d="m571.07086 101.635826l8.346436 0l0 8.346458l-8.346436 0z" fill-rule="evenodd"/><path fill="#000000" fill-opacity="0.0" d="m82.944885 32.352093l162.14172 1.4803123" fill-rule="evenodd"/><path stroke="#595959" stroke-width="1.0" stroke-linejoin="round" stroke-linecap="butt" d="m82.944885 32.352093l156.14197 1.4255371" fill-rule="evenodd"/><path fill="#595959" stroke="#595959" stroke-width="1.0" stroke-linecap="butt" d="m239.0718 35.429295l4.5529785 -1.6102333l-4.522827 -1.6930923z" fill-rule="evenodd"/><path fill="#000000" fill-opacity="0.0" d="m362.46194 30.871777l162.14175 1.4803162" fill-rule="evenodd"/><path stroke="#595959" stroke-width="1.0" stroke-linejoin="round" stroke-linecap="butt" d="m362.46194 30.871778l156.142 1.425539" fill-rule="evenodd"/><path fill="#595959" stroke="#595959" stroke-width="1.0" stroke-linecap="butt" d="m518.58887 33.948982l4.5529785 -1.6102371l-4.522827 -1.6930923z" fill-rule="evenodd"/><path fill="#000000" fill-opacity="0.0" d="m82.944885 90.74346l162.14172 1.4803162" fill-rule="evenodd"/><path stroke="#595959" stroke-width="1.0" stroke-linejoin="round" stroke-linecap="butt" d="m88.94463 90.79824l156.14197 1.4255295" fill-rule="evenodd"/><path fill="#595959" stroke="#595959" stroke-width="1.0" stroke-linecap="butt" d="m88.95971 89.14657l-4.552986 1.6102371l4.522827 1.6930923z" fill-rule="evenodd"/><path fill="#000000" fill-opacity="0.0" d="m362.46194 89.263145l162.14175 1.4803162" fill-rule="evenodd"/><path stroke="#595959" stroke-width="1.0" stroke-linejoin="round" stroke-linecap="butt" d="m368.4617 89.317924l156.142 1.4255371" fill-rule="evenodd"/><path fill="#595959" stroke="#595959" stroke-width="1.0" stroke-linecap="butt" d="m368.47678 87.66626l-4.5529785 1.6102295l4.522827 1.6930923z" fill-rule="evenodd"/></g></svg>