<svg aria-labelledby="chart-title-graph-div" aria-roledescription="quadrantChart" role="graphics-document document" viewBox="0 0 500 500" style="max-width: 100%;" xmlns="http://www.w3.org/2000/svg" width="100%" id="graph-div" height="100%" xmlns:xlink="http://www.w3.org/1999/xlink"><style>@import url("https://cdnjs.cloudflare.com/ajax/libs/font-awesome/6.4.0/css/all.min.css");'</style><title id="chart-title-graph-div">Verification Tools</title><style>#graph-div{font-family:"trebuchet ms",verdana,arial,sans-serif;font-size:50px;fill:#ccc;}#graph-div .error-icon{fill:#a44141;}#graph-div .error-text{fill:#ddd;stroke:#ddd;}#graph-div .edge-thickness-normal{stroke-width:2px;}#graph-div .edge-thickness-thick{stroke-width:3.5px;}#graph-div .edge-pattern-solid{stroke-dasharray:0;}#graph-div .edge-pattern-dashed{stroke-dasharray:3;}#graph-div .edge-pattern-dotted{stroke-dasharray:2;}#graph-div .marker{fill:lightgrey;stroke:lightgrey;}#graph-div .marker.cross{stroke:lightgrey;}#graph-div svg{font-family:"trebuchet ms",verdana,arial,sans-serif;font-size:50px;}#graph-div :root{--mermaid-font-family:"trebuchet ms",verdana,arial,sans-serif;}</style><g></g><g class="main"><g class="quadrants"><g class="quadrant"><rect fill="#1f2020" height="212" width="232" y="45" x="263"></rect><text transform="translate(379, 50) rotate(0)" text-anchor="middle" dominant-baseline="hanging" font-size="16" fill="#e0dfdf" y="0" x="0"></text></g><g class="quadrant"><rect fill="#242525" height="212" width="232" y="45" x="31"></rect><text transform="translate(147, 50) rotate(0)" text-anchor="middle" dominant-baseline="hanging" font-size="16" fill="#dbdada" y="0" x="0"></text></g><g class="quadrant"><rect fill="#292a2a" height="212" width="232" y="257" x="31"></rect><text transform="translate(147, 262) rotate(0)" text-anchor="middle" dominant-baseline="hanging" font-size="16" fill="#d6d5d5" y="0" x="0"></text></g><g class="quadrant"><rect fill="#2e2f2f" height="212" width="232" y="257" x="263"></rect><text transform="translate(379, 262) rotate(0)" text-anchor="middle" dominant-baseline="hanging" font-size="16" fill="#d1d0d0" y="0" x="0"></text></g></g><g class="border"><line style="stroke: rgb(204, 204, 204); stroke-width: 2;" y2="45" x2="496" y1="45" x1="30"></line><line style="stroke: rgb(204, 204, 204); stroke-width: 2;" y2="468" x2="495" y1="46" x1="495"></line><line style="stroke: rgb(204, 204, 204); stroke-width: 2;" y2="469" x2="496" y1="469" x1="30"></line><line style="stroke: rgb(204, 204, 204); stroke-width: 2;" y2="468" x2="31" y1="46" x1="31"></line><line style="stroke: rgb(204, 204, 204); stroke-width: 1;" y2="468" x2="263" y1="46" x1="263"></line><line style="stroke: rgb(204, 204, 204); stroke-width: 1;" y2="257" x2="494" y1="257" x1="32"></line></g><g class="data-points"><g class="data-point"><circle fill="hsl(180, 1.5873015873%, NaN%)" r="5" cy="396.91999999999996" cx="490.36"></circle><text transform="translate(490.36, 401.91999999999996) rotate(0)" text-anchor="middle" dominant-baseline="hanging" font-size="12" fill="#e0dfdf" y="0" x="0">Clippy</text></g><g class="data-point"><circle fill="hsl(180, 1.5873015873%, NaN%)" r="5" cy="363" cx="402.2"></circle><text transform="translate(402.2, 368) rotate(0)" text-anchor="middle" dominant-baseline="hanging" font-size="12" fill="#e0dfdf" y="0" x="0">Flowistry</text></g><g class="data-point"><circle fill="hsl(180, 1.5873015873%, NaN%)" r="5" cy="371.48" cx="448.6"></circle><text transform="translate(448.6, 376.48) rotate(0)" text-anchor="middle" dominant-baseline="hanging" font-size="12" fill="#e0dfdf" y="0" x="0">Substrace</text></g><g class="data-point"><circle fill="hsl(180, 1.5873015873%, NaN%)" r="5" cy="265.48" cx="216.6"></circle><text transform="translate(216.6, 270.48) rotate(0)" text-anchor="middle" dominant-baseline="hanging" font-size="12" fill="#e0dfdf" y="0" x="0">Prusti</text></g><g class="data-point"><circle fill="hsl(180, 1.5873015873%, NaN%)" r="5" cy="240.04" cx="170.2"></circle><text transform="translate(170.2, 245.04) rotate(0)" text-anchor="middle" dominant-baseline="hanging" font-size="12" fill="#e0dfdf" y="0" x="0">State-Right</text></g><g class="data-point"><circle fill="hsl(180, 1.5873015873%, NaN%)" r="5" cy="299.4" cx="318.67999999999995"></circle><text transform="translate(318.67999999999995, 304.4) rotate(0)" text-anchor="middle" dominant-baseline="hanging" font-size="12" fill="#e0dfdf" y="0" x="0">KANI</text></g><g class="data-point"><circle fill="hsl(180, 1.5873015873%, NaN%)" r="5" cy="324.84" cx="300.11999999999995"></circle><text transform="translate(300.11999999999995, 329.84) rotate(0)" text-anchor="middle" dominant-baseline="hanging" font-size="12" fill="#e0dfdf" y="0" x="0">MIRAI</text></g><g class="data-point"><circle fill="hsl(180, 1.5873015873%, NaN%)" r="5" cy="214.60000000000002" cx="137.72"></circle><text transform="translate(137.72, 219.60000000000002) rotate(0)" text-anchor="middle" dominant-baseline="hanging" font-size="12" fill="#e0dfdf" y="0" x="0">Quint/TLA+</text></g><g class="data-point"><circle fill="hsl(180, 1.5873015873%, NaN%)" r="5" cy="151" cx="114.52"></circle><text transform="translate(114.52, 156) rotate(0)" text-anchor="middle" dominant-baseline="hanging" font-size="12" fill="#e0dfdf" y="0" x="0">Coq</text></g><g class="data-point"><circle fill="hsl(180, 1.5873015873%, NaN%)" r="5" cy="129.79999999999998" cx="100.6"></circle><text transform="translate(100.6, 134.79999999999998) rotate(0)" text-anchor="middle" dominant-baseline="hanging" font-size="12" fill="#e0dfdf" y="0" x="0">Isabelle</text></g></g><g class="labels"><g class="label"><text transform="translate(31, 479) rotate(0)" text-anchor="start" dominant-baseline="hanging" font-size="16" fill="#e0dfdf" y="0" x="0">Low Automation</text></g><g class="label"><text transform="translate(263, 479) rotate(0)" text-anchor="start" dominant-baseline="hanging" font-size="16" fill="#e0dfdf" y="0" x="0">High Automation</text></g><g class="label"><text transform="translate(5, 469) rotate(-90)" text-anchor="start" dominant-baseline="hanging" font-size="16" fill="#e0dfdf" y="0" x="0">Low Expressiveness</text></g><g class="label"><text transform="translate(5, 257) rotate(-90)" text-anchor="start" dominant-baseline="hanging" font-size="16" fill="#e0dfdf" y="0" x="0">High Expressiveness</text></g></g><g class="title"><text transform="translate(250, 10) rotate(0)" text-anchor="middle" dominant-baseline="hanging" font-size="20" fill="#e0dfdf" y="0" x="0">Verification Tools</text></g></g></svg>