<svg version="1.1" viewBox="0.0 0.0 952.7769028871392 791.6666666666666" fill="none" stroke="none" stroke-linecap="square" stroke-miterlimit="10" xmlns:xlink="http://www.w3.org/1999/xlink" xmlns="http://www.w3.org/2000/svg"><clipPath id="p.0"><path d="m0 0l952.7769 0l0 791.6667l-952.7769 0l0 -791.6667z" clip-rule="nonzero"/></clipPath><g clip-path="url(#p.0)"><path fill="#000000" fill-opacity="0.0" d="m0 0l952.7769 0l0 791.6667l-952.7769 0z" fill-rule="evenodd"/><path fill="#8d3aed" d="m70.56693 59.006172l0 0c0 -25.46939 20.647018 -46.111645 46.1164 -46.105766l726.6333 0.16769028c12.230835 0.002822876 23.960754 4.864209 32.609253 13.5147085c8.648499 8.650501 13.507141 20.381512 13.507141 32.612343l0 184.4601c0 25.46939 -20.646973 46.111633 -46.116394 46.105774l-726.6333 -0.16769409c-25.469383 -0.0058898926 -46.1164 -20.657654 -46.1164 -46.12706z" fill-rule="evenodd"/><path fill="#ffffff" d="m127.81166 178.44505q-5.15625 -0.0011901855 -9.234375 -1.8302612q-4.0625 -1.8290558 -6.375 -5.063965q-2.3125 -3.250534 -2.390625 -7.5161896l7.25 0.0016784668q0.375 3.6563416 3.015625 6.172577q2.65625 2.5006104 7.734375 2.5017853q4.84375 0.0011138916 7.640625 -2.4201202q2.8125 -2.4368439 2.8125 -6.249344q0 -2.984375 -1.640625 -4.8441315q-1.640625 -1.8753815 -4.109375 -2.844696q-2.46875 -0.96932983 -6.640625 -2.0952911q-5.15625 -1.3449402 -8.265625 -2.6894073q-3.09375 -1.3444672 -5.296875 -4.2199707q-2.203125 -2.8755035 -2.203125 -7.7192535q0 -4.25 2.171875 -7.5307465q2.171875 -3.2963867 6.078125 -5.076729q3.921875 -1.7959671 9.0 -1.7947998q7.3125 0.0016937256 11.984375 3.6590195q4.671875 3.6573334 5.265625 9.704346l-7.46875 -0.0017242432q-0.375 -2.9844666 -3.140625 -5.2663574q-2.75 -2.2818756 -7.3125 -2.2829285q-4.25 -9.918213E-4 -6.9375 2.2015228q-2.6875 2.2024994 -2.6875 6.1712494q0 2.828125 1.59375 4.625366q1.609375 1.7816162 3.953125 2.7196655q2.359375 0.9380493 6.625 2.1265259q5.140625 1.4230652 8.28125 2.8144073q3.140625 1.3757324 5.375 4.251251q2.234375 2.8755035 2.234375 7.7973785q0 3.8125 -2.015625 7.171417q-2.015625 3.358902 -5.96875 5.4517517q-3.953125 2.0772095 -9.328125 2.0759735zm24.776337 -21.041168q0 -6.34375 2.53125 -11.07753q2.546875 -4.74942 7.0625 -7.3577576q4.515625 -2.6083221 10.34375 -2.6069794q7.546875 0.001739502 12.4375 3.6591187q4.890625 3.6573792 6.453125 10.157745l-7.3125 -0.0016937256q-1.046875 -3.7346191 -4.078125 -5.891571q-3.015625 -2.1725616 -7.5 -2.1735992q-5.828125 -0.0013427734 -9.40625 3.9978333q-3.578125 3.9835358 -3.578125 11.296036q0 7.390625 3.578125 11.422714q3.578125 4.032074 9.40625 4.0334167q4.484375 0.0010375977 7.46875 -2.0764008q2.984375 -2.0930634 4.109375 -5.983429l7.3125 0.0016937256q-1.640625 6.2652435 -6.578125 10.045349q-4.921875 3.7644958 -12.3125 3.7627869q-5.828125 -0.0013427734 -10.34375 -2.6117706q-4.515625 -2.6104126 -7.0625 -7.3922424q-2.53125 -4.781845 -2.53125 -11.20372zm45.316345 -0.06765747q0 -6.265625 2.53125 -10.99942q2.546875 -4.74942 6.984375 -7.3577576q4.453125 -2.6083527 9.90625 -2.6071014q5.375 0.0012512207 9.328125 2.3146515q3.953125 2.3134155 5.890625 5.8138733l0 -7.453125l6.875 0.0015869141l0 40.90625l-6.875 -0.0015869141l0 -7.609375q-2.015625 3.577652 -6.015625 5.9361115q-3.984375 2.3428192 -9.28125 2.3415985q-5.453125 -0.0012512207 -9.859375 -2.6897736q-4.40625 -2.688507 -6.953125 -7.532852q-2.53125 -4.859955 -2.53125 -11.06308zm34.640625 0.086120605q0 -4.625 -1.859375 -8.0629425q-1.859375 -3.4379272 -5.046875 -5.2667847q-3.171875 -1.8288574 -6.96875 -1.8297272q-3.8125 -8.8500977E-4 -6.953125 1.7952728q-3.125 1.7805176 -5.0 5.2175903q-1.859375 3.4370728 -1.859375 8.062073q0 4.703125 1.859375 8.187927q1.875 3.4691772 5.0 5.2980347q3.140625 1.8288422 6.953125 1.8297272q3.796875 8.69751E-4 6.96875 -1.8265228q3.1875 -1.8273926 5.046875 -5.2957q1.859375 -3.4839478 1.859375 -8.108948zm25.17073 -34.71295l0 55.25l-6.7968597 -0.0015563965l0 -55.250008l6.7968597 0.0015640259zm9.021698 34.642715q0 -6.265625 2.53125 -10.99942q2.546875 -4.749405 6.984375 -7.3577576q4.453125 -2.6083527 9.90625 -2.6071014q5.375 0.0012512207 9.328125 2.3146667q3.953125 2.3134003 5.890625 5.813858l0 -7.453125l6.875 0.0015869141l0 40.90625l-6.875 -0.0015869141l0 -7.609375q-2.015625 3.577652 -6.015625 5.9361115q-3.984375 2.3428192 -9.28125 2.3415985q-5.453125 -0.0012512207 -9.859375 -2.6897736q-4.40625 -2.688507 -6.953125 -7.532852q-2.53125 -4.859955 -2.53125 -11.06308zm34.640625 0.086120605q0 -4.625 -1.859375 -8.062927q-1.859375 -3.4379425 -5.046875 -5.2668q-3.171875 -1.8288574 -6.96875 -1.8297272q-3.8125 -8.8500977E-4 -6.953125 1.7952728q-3.125 1.7805176 -5.0 5.2175903q-1.859375 3.4370728 -1.859375 8.062073q0 4.703125 1.859375 8.187927q1.875 3.4691772 5.0 5.2980347q3.140625 1.8288422 6.953125 1.8297272q3.796875 8.69751E-4 6.96875 -1.8265228q3.1875 -1.8273926 5.046875 -5.2957q1.859375 -3.4839478 1.859375 -8.108948zm25.170746 -12.759827q2.078125 -3.6557617 6.109375 -5.967331q4.046875 -2.3115692 9.1874695 -2.310379q5.53125 0.0012664795 9.9375 2.6116638q4.40625 2.6103973 6.9375 7.360977q2.53125 4.734955 2.53125 11.00058q0 6.203125 -2.53125 11.06192q-2.53125 4.84317 -6.984375 7.5296326q-4.4375 2.6864777 -9.890625 2.6852264q-5.2968445 -0.0012207031 -9.2968445 -2.3146515q-3.984375 -2.3134155 -6.0 -5.9076385l0 7.546875l-6.796875 -0.0015563965l0 -55.250008l6.796875 0.0015716553l0 21.953117zm27.765594 12.693909q0 -4.625 -1.875 -8.062927q-1.859375 -3.4379272 -5.03125 -5.2199097q-3.171875 -1.7976074 -6.984375 -1.7984924q-3.7187195 -8.544922E-4 -6.9062195 1.8265381q-3.171875 1.8273926 -5.078125 5.311325q-1.890625 3.4683075 -1.890625 8.0151825q0 4.625 1.890625 8.1098175q1.90625 3.4691925 5.078125 5.29805q3.1875 1.8288574 6.9062195 1.8297119q3.8125 8.8500977E-4 6.984375 -1.8265076q3.171875 -1.8273926 5.03125 -5.2957153q1.875 -3.4839478 1.875 -8.187073zm22.701996 -34.635384l0 55.250008l-6.796875 -0.0015716553l0 -55.25l6.796875 0.0015640259zm48.896667 33.230034q0 1.953125 -0.21875 4.109329l-32.703125 -0.0075531006q0.375 6.0469666 4.140625 9.454086q3.765625 3.3914948 9.140625 3.3927307q4.40625 0.0010223389 7.359375 -2.0451813q2.953125 -2.0618134 4.140625 -5.4834137l7.3125 0.0016937256q-1.640625 5.8902435 -6.5625 9.592224q-4.921875 3.6863708 -12.25 3.6846771q-5.8125 -0.0013427734 -10.40625 -2.6117706q-4.59375 -2.610443 -7.21875 -7.423538q-2.609375 -4.8287354 -2.609375 -11.172485q0 -6.34375 2.53125 -11.12442q2.546875 -4.780655 7.140625 -7.342102q4.59375 -2.577057 10.5625 -2.5756836q5.828125 0.0013427734 10.296875 2.5492554q4.484375 2.5322876 6.90625 6.970337q2.4375 4.4380646 2.4375 10.031815zm-7.015625 -1.4078674q0 -3.890625 -1.71875 -6.6878967q-1.71875 -2.7972717 -4.671875 -4.2510834q-2.9375 -1.4537964 -6.53125 -1.4546204q-5.15625 -0.0011901855 -8.78125 3.2792206q-3.609375 3.2804108 -4.125 9.108414l25.828125 0.0059661865zm61.954468 -3.3450775q2.84375 0.43815613 5.1875 2.3137054q2.359375 1.859909 3.734375 4.6258545q1.390625 2.7659454 1.390625 5.9065704q0 3.953125 -2.015625 7.124542q-2.015625 3.171402 -5.859375 4.998642q-3.84375 1.82724 -9.078125 1.8260345l-19.40625 -0.004486084l0 -52.03125l18.65625 0.0043029785q5.3125 0.0012283325 9.03125 1.7520905q3.734375 1.7508545 5.59375 4.7512817q1.875 2.9848175 1.875 6.7035675q0 4.640625 -2.5 7.671295q-2.5 3.0150452 -6.609375 4.357849zm-19.25 -2.7700653l11.421875 0.0026397705q4.78125 0.0010986328 7.390625 -2.2326813q2.609375 -2.2493896 2.609375 -6.2025146q0 -3.953125 -2.609375 -6.1881104q-2.609375 -2.250595 -7.546875 -2.2517395l-11.265625 -0.0025939941l0 16.875zm12.015625 23.971527q5.078125 0.001159668 7.90625 -2.3888092q2.84375 -2.3899689 2.84375 -6.639969q0 -4.34375 -2.984375 -6.8444366q-2.984375 -2.5006866 -7.984375 -2.5018463l-11.796875 -0.0027160645l0 18.375l12.015625 0.0027770996zm33.748657 -49.648468l0 55.25l-6.796875 -0.0015716553l0 -55.25l6.796875 0.0015716553zm29.412292 55.928665q-5.75 -0.0013275146 -10.421875 -2.611786q-4.65625 -2.610443 -7.3125 -7.4235535q-2.65625 -4.8287354 -2.65625 -11.172485q0 -6.265625 2.71875 -11.077499q2.734375 -4.8274994 7.4375 -7.388916q4.703125 -2.5770416 10.53125 -2.5756989q5.828125 0.0013580322 10.53125 2.5805664q4.703125 2.5635834 7.421875 7.345459q2.71875 4.7818756 2.71875 11.125626q0 6.34375 -2.796875 11.171234q-2.796875 4.811844 -7.578125 7.4201202q-4.765625 2.6082764 -10.59375 2.6069336zm0 -5.96875q3.65625 8.392334E-4 6.859375 -1.7171631q3.21875 -1.7180176 5.1875 -5.15506q1.984375 -3.4370422 1.984375 -8.358917q0 -4.921875 -1.9375 -8.3598175q-1.9375 -3.4379425 -5.078125 -5.11055q-3.140625 -1.6882172 -6.796875 -1.6890717q-3.734375 -8.544922E-4 -6.828125 1.6859283q-3.09375 1.6711578 -4.96875 5.1082306q-1.859375 3.4370728 -1.859375 8.358948q0 5.0 1.828125 8.437912q1.828125 3.4379272 4.890625 5.126129q3.0625 1.6725922 6.71875 1.6734314zm27.389404 -15.228058q0 -6.34375 2.53125 -11.077545q2.546875 -4.749405 7.0625 -7.3577423q4.515625 -2.6083221 10.34375 -2.6069794q7.546875 0.001739502 12.4375 3.6591187q4.890625 3.6573792 6.453125 10.15773l-7.3125 -0.0016784668q-1.046875 -3.7346191 -4.078125 -5.891571q-3.015625 -2.1725616 -7.5 -2.1735992q-5.828125 -0.0013427734 -9.40625 3.997818q-3.578125 3.983551 -3.578125 11.296051q0 7.390625 3.578125 11.422699q3.578125 4.032089 9.40625 4.033432q4.484375 0.0010375977 7.46875 -2.0764008q2.984375 -2.0930634 4.109375 -5.983429l7.3125 0.0016784668q-1.640625 6.265259 -6.578125 10.045364q-4.921875 3.7644958 -12.3125 3.7627869q-5.828125 -0.0013427734 -10.34375 -2.6117706q-4.515625 -2.6104126 -7.0625 -7.3922577q-2.53125 -4.78183 -2.53125 -11.203705zm70.70697 20.547577l-16.046875 -18.066208l0 18.0625l-6.796875 -0.0015716553l0 -55.25l6.796875 0.0015716553l0 32.484375l15.75 -18.136993l9.484375 0.0021820068l-19.265625 20.37056l19.328125 20.535706l-9.25 -0.0021209717zm13.057312 -20.528244q0 -6.34375 2.53125 -11.077545q2.546875 -4.749405 7.0625 -7.3577423q4.515625 -2.6083374 10.34375 -2.6069794q7.546875 0.001739502 12.4375 3.6591187q4.890625 3.6573792 6.453125 10.15773l-7.3125 -0.0016784668q-1.046875 -3.7346191 -4.078125 -5.891571q-3.015625 -2.172577 -7.5 -2.1735992q-5.828125 -0.0013580322 -9.40625 3.997818q-3.578125 3.983551 -3.578125 11.296051q0 7.390625 3.578125 11.422699q3.578125 4.032074 9.40625 4.033432q4.484375 0.0010223389 7.46875 -2.0764008q2.984375 -2.0930634 4.109375 -5.983429l7.3125 0.0016784668q-1.640625 6.265259 -6.578125 10.045364q-4.921875 3.7644806 -12.3125 3.7627869q-5.828125 -0.0013580322 -10.34375 -2.6117706q-4.515625 -2.6104126 -7.0625 -7.3922577q-2.53125 -4.78183 -2.53125 -11.203705zm68.17578 -21.109268q4.625 0.0010681152 8.359375 1.9863129q3.734375 1.9696045 5.859375 5.938843q2.125 3.9536133 2.125 9.625488l0 24.109375l-6.71875 -0.0015411377l0 -23.140625q0 -6.125 -3.0625 -9.375717q-3.0625 -3.250702 -8.359375 -3.2519226q-5.375 -0.0012359619 -8.546875 3.3574066q-3.171875 3.3586426 -3.171875 9.780518l0 22.625l-6.796875 -0.0015716553l0 -55.25l6.796875 0.0015640259l0 20.156258q2.015625 -3.1245422 5.5625 -4.8424683q3.546875 -1.7179413 7.953125 -1.716919zm24.920532 21.052628q0 -6.265625 2.53125 -10.99942q2.546875 -4.749405 6.984375 -7.3577576q4.453125 -2.6083527 9.90625 -2.6070862q5.375 0.0012359619 9.328125 2.3146515q3.953125 2.3134155 5.890625 5.813858l0 -7.453125l6.875 0.0015869141l0 40.90625l-6.875 -0.0015869141l0 -7.609375q-2.015625 3.5776672 -6.015625 5.9361115q-3.984375 2.3428345 -9.28125 2.3416138q-5.453125 -0.0012664795 -9.859375 -2.6897736q-4.40625 -2.6885223 -6.953125 -7.5328674q-2.53125 -4.859955 -2.53125 -11.06308zm34.640625 0.086120605q0 -4.625 -1.859375 -8.062927q-1.859375 -3.4379272 -5.046875 -5.2668q-3.171875 -1.8288422 -6.96875 -1.8297272q-3.8125 -8.8500977E-4 -6.953125 1.7952728q-3.125 1.7805328 -5.0 5.2175903q-1.859375 3.4370728 -1.859375 8.062073q0 4.703125 1.859375 8.187927q1.875 3.4691925 5.0 5.2980347q3.140625 1.8288422 6.953125 1.8297272q3.796875 8.8500977E-4 6.96875 -1.8265076q3.1875 -1.8273926 5.046875 -5.2957153q1.859375 -3.4839478 1.859375 -8.108948zm21.873901 -27.0262q-1.9375 -4.5776367E-4 -3.28125 -1.3445129q-1.34375 -1.3440552 -1.34375 -3.2815552q0 -1.9375 1.34375 -3.2809448q1.34375 -1.3434372 3.28125 -1.3429947q1.875 4.348755E-4 3.171875 1.3444824q1.3125 1.3440552 1.3125 3.2815552q0 1.9375 -1.3125 3.2809525q-1.296875 1.3434448 -3.171875 1.3430176zm3.296875 6.657013l0 40.90625l-6.796875 -0.0015716553l0 -40.90625l6.796875 0.0015716553zm31.506042 -0.7427368q7.453125 0.0017242432 12.078125 4.5184174q4.640625 4.516693 4.640625 13.032318l0 24.109375l-6.71875 -0.0015563965l0 -23.140625q0 -6.125 -3.0625 -9.375702q-3.0625 -3.250702 -8.359375 -3.2519226q-5.375 -0.0012512207 -8.546875 3.3573914q-3.171875 3.3586426 -3.171875 9.780518l0 22.625l-6.796875 -0.0015563965l0 -40.90625l6.796875 0.0015563965l0 5.8125q2.015625 -3.124527 5.484375 -4.8424835q3.46875 -1.7179413 7.65625 -1.71698z" fill-rule="nonzero"/><path fill="#25cc85" d="m184.29659 339.87183l0 0c0 -12.12442 9.828781 -21.95102 21.953201 -21.948334l98.266846 0.02178955c5.8223267 0.0012817383 11.4062195 2.3154297 15.523254 6.43338c4.1170044 4.11792 6.4299316 9.702301 6.4299316 15.524658l0 87.81015c0 12.12442 -9.828796 21.95102 -21.953186 21.948334l-98.266846 -0.021759033c-12.12442 -0.0026855469 -21.953201 -9.833649 -21.953201 -21.958069z" fill-rule="evenodd"/><path fill="#25cc85" d="m184.29659 499.77734l0 0c0 -12.12442 9.828781 -21.95102 21.953201 -21.948334l98.266846 0.021759033c5.8223267 0.0013122559 11.4062195 2.3154602 15.523254 6.43338c4.1170044 4.1179504 6.4299316 9.702332 6.4299316 15.524689l0 87.81012c0 12.124451 -9.828796 21.95105 -21.953186 21.948364l-98.266846 -0.02178955c-12.12442 -0.0026855469 -21.953201 -9.833618 -21.953201 -21.958069z" fill-rule="evenodd"/><path fill="#25cc85" d="m184.29659 659.68286l0 0c0 -12.124451 9.828781 -21.95105 21.953201 -21.948364l98.266846 0.02178955c5.8223267 0.0012817383 11.4062195 2.3154297 15.523254 6.4334106c4.1170044 4.11792 6.4299316 9.702332 6.4299316 15.524658l0 87.81012c0 12.124451 -9.828796 21.95105 -21.953186 21.948364l-98.266846 -0.02178955c-12.12442 -0.0026855469 -21.953201 -9.833618 -21.953201 -21.958069z" fill-rule="evenodd"/><path fill="#000000" fill-opacity="0.0" d="m255.38321 477.8399l0 -28.188995" fill-rule="evenodd"/><path stroke="#000000" stroke-width="1.0" stroke-linejoin="round" stroke-linecap="butt" d="m255.38321 477.8399l0 -22.188995" fill-rule="evenodd"/><path fill="#000000" stroke="#000000" stroke-width="1.0" stroke-linecap="butt" d="m257.03494 455.6509l-1.6517334 -4.538086l-1.6517334 4.538086z" fill-rule="evenodd"/><path fill="#000000" fill-opacity="0.0" d="m255.38321 637.7454l0 -28.188965" fill-rule="evenodd"/><path stroke="#000000" stroke-width="1.0" stroke-linejoin="round" stroke-linecap="butt" d="m255.38321 637.7454l0 -22.188965" fill-rule="evenodd"/><path fill="#000000" stroke="#000000" stroke-width="1.0" stroke-linecap="butt" d="m257.03494 615.55646l-1.6517334 -4.538147l-1.6517334 4.538147z" fill-rule="evenodd"/><path fill="#25cc85" d="m405.30185 339.87183l0 0c0 -12.12442 9.828766 -21.95102 21.953186 -21.948334l98.266815 0.02178955c5.8223877 0.0012817383 11.40625 2.3154297 15.523254 6.43338c4.1170654 4.11792 6.4299316 9.702301 6.4299316 15.524658l0 87.81015c0 12.12442 -9.828735 21.95102 -21.953186 21.948334l-98.266815 -0.021759033c-12.12442 -0.0026855469 -21.953186 -9.833649 -21.953186 -21.958069z" fill-rule="evenodd"/><path fill="#25cc85" d="m405.30185 499.77734l0 0c0 -12.12442 9.828766 -21.95102 21.953186 -21.948334l98.266815 0.021759033c5.8223877 0.0013122559 11.40625 2.3154602 15.523254 6.43338c4.1170654 4.1179504 6.4299316 9.702332 6.4299316 15.524689l0 87.81012c0 12.124451 -9.828735 21.95105 -21.953186 21.948364l-98.266815 -0.02178955c-12.12442 -0.0026855469 -21.953186 -9.833618 -21.953186 -21.958069z" fill-rule="evenodd"/><path fill="#25cc85" d="m405.30185 659.68286l0 0c0 -12.124451 9.828766 -21.95105 21.953186 -21.948364l98.266815 0.02178955c5.8223877 0.0012817383 11.40625 2.3154297 15.523254 6.4334106c4.1170654 4.11792 6.4299316 9.702332 6.4299316 15.524658l0 87.81012c0 12.124451 -9.828735 21.95105 -21.953186 21.948364l-98.266815 -0.02178955c-12.12442 -0.0026855469 -21.953186 -9.833618 -21.953186 -21.958069z" fill-rule="evenodd"/><path fill="#000000" fill-opacity="0.0" d="m476.38846 477.8399l0 -28.188995" fill-rule="evenodd"/><path stroke="#000000" stroke-width="1.0" stroke-linejoin="round" stroke-linecap="butt" d="m476.38846 477.8399l0 -22.188995" fill-rule="evenodd"/><path fill="#000000" stroke="#000000" stroke-width="1.0" stroke-linecap="butt" d="m478.0402 455.6509l-1.6517334 -4.538086l-1.6517334 4.538086z" fill-rule="evenodd"/><path fill="#000000" fill-opacity="0.0" d="m476.38846 637.7454l0 -28.188965" fill-rule="evenodd"/><path stroke="#000000" stroke-width="1.0" stroke-linejoin="round" stroke-linecap="butt" d="m476.38846 637.7454l0 -22.188965" fill-rule="evenodd"/><path fill="#000000" stroke="#000000" stroke-width="1.0" stroke-linecap="butt" d="m478.0402 615.55646l-1.6517334 -4.538147l-1.6517334 4.538147z" fill-rule="evenodd"/><path fill="#25cc85" d="m626.30707 339.87183l0 0c0 -12.12442 9.828796 -21.95102 21.953186 -21.948334l98.266846 0.02178955c5.8223877 0.0012817383 11.40625 2.3154297 15.523254 6.43338c4.1170654 4.11792 6.4299316 9.702301 6.4299316 15.524658l0 87.81015c0 12.12442 -9.828735 21.95102 -21.953186 21.948334l-98.266846 -0.021759033c-12.12439 -0.0026855469 -21.953186 -9.833649 -21.953186 -21.958069z" fill-rule="evenodd"/><path fill="#25cc85" d="m626.30707 499.77734l0 0c0 -12.12442 9.828796 -21.95102 21.953186 -21.948334l98.266846 0.021759033c5.8223877 0.0013122559 11.40625 2.3154602 15.523254 6.43338c4.1170654 4.1179504 6.4299316 9.702332 6.4299316 15.524689l0 87.81012c0 12.124451 -9.828735 21.95105 -21.953186 21.948364l-98.266846 -0.02178955c-12.12439 -0.0026855469 -21.953186 -9.833618 -21.953186 -21.958069z" fill-rule="evenodd"/><path fill="#25cc85" d="m626.30707 659.68286l0 0c0 -12.124451 9.828796 -21.95105 21.953186 -21.948364l98.266846 0.02178955c5.8223877 0.0012817383 11.40625 2.3154297 15.523254 6.4334106c4.1170654 4.11792 6.4299316 9.702332 6.4299316 15.524658l0 87.81012c0 12.124451 -9.828735 21.95105 -21.953186 21.948364l-98.266846 -0.02178955c-12.12439 -0.0026855469 -21.953186 -9.833618 -21.953186 -21.958069z" fill-rule="evenodd"/><path fill="#000000" fill-opacity="0.0" d="m697.3937 477.8399l0 -28.188995" fill-rule="evenodd"/><path stroke="#000000" stroke-width="1.0" stroke-linejoin="round" stroke-linecap="butt" d="m697.3937 477.8399l0 -24.761902" fill-rule="evenodd"/><path fill="#000000" stroke="#000000" stroke-width="1.0" stroke-linecap="butt" d="m697.3937 453.078l1.1246338 1.1245728l-1.1246338 -3.0897522l-1.1245728 3.0897522z" fill-rule="evenodd"/><path fill="#000000" fill-opacity="0.0" d="m697.3937 637.7454l0 -28.188965" fill-rule="evenodd"/><path stroke="#000000" stroke-width="1.0" stroke-linejoin="round" stroke-linecap="butt" d="m697.3937 637.7454l0 -24.761902" fill-rule="evenodd"/><path fill="#000000" stroke="#000000" stroke-width="1.0" stroke-linecap="butt" d="m697.3937 612.9835l1.1246338 1.1245728l-1.1246338 -3.0897827l-1.1245728 3.0897827z" fill-rule="evenodd"/></g></svg>