<svg version="1.1" viewBox="0.0 0.0 952.7769028871392 791.6666666666666" fill="none" stroke="none" stroke-linecap="square" stroke-miterlimit="10" xmlns:xlink="http://www.w3.org/1999/xlink" xmlns="http://www.w3.org/2000/svg"><clipPath id="p.0"><path d="m0 0l952.7769 0l0 791.6667l-952.7769 0l0 -791.6667z" clip-rule="nonzero"/></clipPath><g clip-path="url(#p.0)"><path fill="#000000" fill-opacity="0.0" d="m0 0l952.7769 0l0 791.6667l-952.7769 0z" fill-rule="evenodd"/><path fill="#8d3aed" d="m70.56693 71.08732l0 0c0 -19.465164 15.779633 -35.241158 35.244797 -35.236664l748.3766 0.1727066c9.347473 0.0021591187 18.312134 3.7175064 24.921814 10.328716c6.60968 6.611206 10.322937 15.576717 10.322937 24.924221l0 140.97498c0 19.465164 -15.779602 35.24115 -35.24475 35.236664l-748.3766 -0.17271423c-19.465164 -0.004486084 -35.244797 -15.7877655 -35.244797 -35.25293z" fill-rule="evenodd"/><path fill="#ffffff" d="m313.37186 121.795204l0 17.406258l18.953125 0.0043640137l0 5.59375l-18.953125 -0.0043640137l0 17.921875l21.203125 0.0048828125l0 5.59375l-28.0 -0.006454468l0 -52.109383l28.0 0.006462097l0 5.59375l-21.203125 -0.004890442zm39.78305 11.212303l0 24.109375q0 2.984375 1.265625 4.21904q1.28125 1.2346802 4.40625 1.2353973l5.015625 0.001159668l0 5.75l-6.125 -0.0014190674q-5.671875 -0.0013122559 -8.515625 -2.6113434q-2.84375 -2.6100311 -2.84375 -8.594406l0 -24.109375l-5.296875 -0.0012207031l0 -5.5937424l5.296875 0.0012207031l0 -10.3125l6.796875 0.0015640259l0 10.3125l10.6875 0.0024719238l0 5.59375l-10.6875 -0.0024719238zm39.206116 -6.3347015q4.625 0.0010681152 8.359375 1.9863129q3.734375 1.9696045 5.859375 5.938843q2.125 3.9536133 2.125 9.625488l0 24.109375l-6.71875 -0.0015411377l0 -23.140625q0 -6.125 -3.0625 -9.375717q-3.0625 -3.250702 -8.359375 -3.2519226q-5.375 -0.0012359619 -8.546875 3.3574066q-3.171875 3.3586426 -3.171875 9.780518l0 22.625l-6.796875 -0.0015716553l0 -55.25l6.796875 0.0015640259l0 20.156258q2.015625 -3.1245422 5.5625 -4.8424683q3.546875 -1.7179337 7.953125 -1.716919zm64.79562 19.639954q0 1.953125 -0.21875 4.109329l-32.703125 -0.0075531006q0.375 6.0469666 4.140625 9.454086q3.765625 3.3914948 9.140625 3.3927307q4.40625 0.0010223389 7.359375 -2.0451813q2.953125 -2.0618134 4.140625 -5.4834137l7.3125 0.0016937256q-1.640625 5.8902435 -6.5625 9.592224q-4.921875 3.6863708 -12.25 3.6846771q-5.8125 -0.0013427734 -10.40625 -2.6117706q-4.59375 -2.610443 -7.21875 -7.423538q-2.609375 -4.8287354 -2.609375 -11.172485q0 -6.34375 2.53125 -11.12442q2.546875 -4.780655 7.140625 -7.342102q4.59375 -2.577057 10.5625 -2.5756836q5.828125 0.0013427734 10.296875 2.5492554q4.484375 2.5322876 6.90625 6.970337q2.4375 4.4380646 2.4375 10.031815zm-7.015625 -1.4078674q0 -3.890625 -1.71875 -6.6878967q-1.71875 -2.7972717 -4.671875 -4.2510834q-2.9375 -1.4537964 -6.53125 -1.4546204q-5.15625 -0.0011901855 -8.78125 3.2792206q-3.609375 3.2804108 -4.125 9.108414l25.828125 0.0059661865zm22.77127 -10.822876q1.78125 -3.515213 5.109375 -5.451935q3.328125 -1.9367371 8.09375 -1.9356384l0 7.015625l-1.78125 -4.119873E-4q-11.421875 -0.0026397705 -11.421875 12.387985l0 22.250015l-6.796875 -0.0015716553l0 -40.906258l6.796875 0.0015716553l0 6.6406174zm58.37799 12.2478485q0 1.953125 -0.21875 4.109329l-32.703094 -0.0075531006q0.375 6.0469666 4.140625 9.454086q3.765625 3.3914948 9.140625 3.3927307q4.4062195 0.0010223389 7.3593445 -2.045166q2.953125 -2.0618286 4.140625 -5.483429l7.3125 0.0016937256q-1.640625 5.8902435 -6.5625 9.592239q-4.921875 3.6863556 -12.2499695 3.6846619q-5.8125 -0.0013427734 -10.40625 -2.6117706q-4.59375 -2.6104279 -7.21875 -7.423538q-2.609375 -4.8287354 -2.609375 -11.172485q0 -6.34375 2.53125 -11.124405q2.546875 -4.78067 7.140625 -7.342102q4.59375 -2.5770721 10.5625 -2.5756912q5.8280945 0.0013427734 10.2968445 2.5492477q4.484375 2.5322876 6.90625 6.970352q2.4375 4.4380493 2.4375 10.031799zm-7.015625 -1.4078674q0 -3.890625 -1.71875 -6.6878967q-1.71875 -2.7972717 -4.671875 -4.251068q-2.9375 -1.4538116 -6.5312195 -1.4546356q-5.15625 -0.0011901855 -8.78125 3.2792206q-3.609375 3.2804108 -4.125 9.108429l25.828094 0.0059509277zm52.255676 -17.456688l0 40.906258l-6.796875 -0.0015716553l0 -6.046875q-1.9375 3.1401825 -5.40625 4.889374q-3.46875 1.7492065 -7.65625 1.74823q-4.78125 -0.0010986328 -8.59375 -1.9707336q-3.796875 -1.9852448 -6.0 -5.9388733q-2.203125 -3.9536438 -2.203125 -9.641144l0 -23.953125l6.71875 0.0015563965l0 23.0625q0 6.046875 3.0625 9.297577q3.0625 3.2507172 8.359375 3.2519379q5.453125 0.0012512207 8.578125 -3.3574066q3.140625 -3.3586426 3.140625 -9.780518l0 -22.46875l6.796875 0.0015640259zm60.701843 -0.73599243q4.765625 0.0010986328 8.5 1.9863358q3.734375 1.9696198 5.890625 5.938858q2.171875 3.9536285 2.171875 9.625504l0 24.109375l-6.71875 -0.0015411377l0 -23.140625q0 -6.125 -3.03125 -9.375702q-3.015625 -3.250702 -8.15625 -3.251892q-5.3125 -0.0012207031 -8.453125 3.4043121q-3.125 3.3898926 -3.125 9.811768l0 22.546875l-6.71875 -0.0015411377l0 -23.140625q0 -6.125 -3.03125 -9.375702q-3.015625 -3.250702 -8.171875 -3.251892q-5.296875 -0.0012207031 -8.4375 3.4043121q-3.125 3.3898926 -3.125 9.811768l0 22.546875l-6.796875 -0.0015563965l0 -40.906258l6.796875 0.0015716553l0 5.8906174q2.015625 -3.202652 5.40625 -4.920624q3.40625 -1.7179642 7.5 -1.7170181q5.15625 0.0011901855 9.109375 2.314598q3.953125 2.3134155 5.90625 6.7982483q1.71875 -4.3277283 5.671875 -6.717453q3.953125 -2.3897095 8.8125 -2.388588z" fill-rule="nonzero"/><path fill="#25cc85" d="m345.0866 315.88495l0 0c0 -12.12442 9.828796 -21.952057 21.953186 -21.950623l225.92041 0.026367188c5.8223267 6.713867E-4 11.406189 2.3142395 15.523254 6.4317627c4.1170044 4.1174927 6.4299316 9.70163 6.4299316 15.523987l0 87.81015c0 12.12442 -9.828796 21.952057 -21.953186 21.950623l-225.92041 -0.026367188c-12.12439 -0.0014038086 -21.953186 -9.831329 -21.953186 -21.95575z" fill-rule="evenodd"/><path fill="#ffffff" d="m379.8775 360.0391q1.46875 0.23452759 2.6875 1.2034302q1.21875 0.9532776 1.921875 2.3908386q0.71875 1.4219666 0.71875 3.0469666q0 2.046875 -1.046875 3.703003q-1.03125 1.6405029 -3.03125 2.5934143q-1.984375 0.93725586 -4.6875 0.9369507l-10.0625 -0.0011901855l0 -26.9375l9.671875 0.0011291504q2.75 3.3569336E-4 4.671875 0.9067993q1.9375 0.9064636 2.90625 2.4534607q0.96875 1.5469971 0.96875 3.484497q0 2.390625 -1.296875 3.9529724q-1.296875 1.5623474 -3.421875 2.2652283zm-9.96875 -1.4386597l5.90625 6.713867E-4q2.46875 3.0517578E-4 3.828125 -1.1557922q1.359375 -1.1560974 1.359375 -3.2029724q0 -2.046875 -1.359375 -3.2032776q-1.359375 -1.1720276 -3.90625 -1.1723328l-5.828125 -6.713867E-4l0 8.734375zm6.21875 12.406952q2.625 3.0517578E-4 4.09375 -1.2338867q1.46875 -1.2341919 1.46875 -3.437317q0 -2.234375 -1.546875 -3.531433q-1.546875 -1.2970581 -4.125 -1.2973633l-6.109375 -7.019043E-4l0 9.5l6.21875 7.019043E-4zm17.477509 -25.70108l0 28.609375l-3.53125 -3.9672852E-4l0 -28.609375l3.53125 3.9672852E-4zm15.22818 28.954895q-2.984375 -3.3569336E-4 -5.40625 -1.3443604q-2.40625 -1.3596497 -3.78125 -3.8442078q-1.375 -2.5001526 -1.375 -5.7814026q0 -3.25 1.40625 -5.7342224q1.421875 -2.499817 3.859375 -3.8276672q2.4375 -1.3434448 5.453125 -1.3431091q3.015625 3.6621094E-4 5.4375 1.3443909q2.4375 1.3283997 3.84375 3.7973328q1.421875 2.4689026 1.421875 5.7657776q0 3.28125 -1.453125 5.781067q-1.453125 2.4842224 -3.921875 3.8432922q-2.46875 1.3434753 -5.484375 1.3431091zm0 -3.09375q1.890625 2.4414062E-4 3.546875 -0.87457275q1.671875 -0.8904419 2.6875 -2.6715698q1.03125 -1.7811279 1.03125 -4.328003q0 -2.5625 -1.015625 -4.328247q-1.0 -1.7813416 -2.625 -2.6565552q-1.625 -0.8751831 -3.515625 -0.8753967q-1.921875 -2.1362305E-4 -3.53125 0.87457275q-1.609375 0.8748169 -2.578125 2.6559753q-0.96875 1.7655029 -0.96875 4.328003q0 2.578125 0.953125 4.3594666q0.953125 1.7813721 2.53125 2.6565552q1.59375 0.8595581 3.484375 0.8597717zm14.17749 -7.8733215q0 -3.296875 1.3125 -5.7498474q1.328125 -2.4529724 3.65625 -3.7964478q2.34375 -1.3591003 5.359375 -1.3587646q3.90625 4.5776367E-4 6.4375 1.8913879q2.53125 1.8909302 3.34375 5.2660217l-3.796875 -4.5776367E-4q-0.53125 -1.937561 -2.109375 -3.0627441q-1.5625 -1.1251831 -3.875 -1.1254578q-3.015625 -3.3569336E-4 -4.875 2.0775757q-1.859375 2.0622559 -1.859375 5.859131q0 3.828125 1.859375 5.922119q1.859375 2.0783386 4.875 2.0786743q2.3125 2.746582E-4 3.859375 -1.0776672q1.546875 -1.0935669 2.125 -3.0935059l3.796875 4.5776367E-4q-0.859375 3.234253 -3.40625 5.1871033q-2.546875 1.9528198 -6.375 1.9523621q-3.015625 -3.3569336E-4 -5.359375 -1.3443604q-2.328125 -1.3596497 -3.65625 -3.8285522q-1.3125 -2.4845276 -1.3125 -5.7970276zm36.620605 10.629272l-8.3125 -9.360352l0 9.359375l-3.53125 -4.272461E-4l0 -28.609375l3.53125 4.272461E-4l0 16.8125l8.15625 -9.389679l4.90625 5.79834E-4l-9.96875 10.56134l10.0 10.62616l-4.78125 -5.493164E-4zm17.111084 7.1894836q-3.703125 -3.6254272 -5.78125 -9.235046q-2.0625 -5.609619 -2.0625 -12.093994q0 -6.65625 2.1875 -12.437225q2.1875 -5.781006 6.25 -9.530548l3.671875 4.5776367E-4l0 0.359375q-4.34375 4.046356 -6.53125 9.749237q-2.171875 5.7028503 -2.171875 11.8591q0 5.984375 2.0625 11.437744q2.078125 5.453369 6.046875 9.547577l0 0.34375l-3.671875 -4.272461E-4z" fill-rule="nonzero"/><path fill="#ffffff" d="m483.24542 367.69177q0 -1.921875 0.765625 -3.3592834q0.78125 -1.4374084 2.140625 -2.2341309q1.375 -0.7967224 3.140625 -0.7965088q2.296875 2.746582E-4 3.78125 1.1098328q1.484375 1.1095276 1.953125 3.0939636l-2.21875 -2.4414062E-4q-0.3125 -1.140686 -1.234375 -1.7970276q-0.921875 -0.6563721 -2.28125 -0.65652466q-1.765625 -2.1362305E-4 -2.859375 1.2184143q-1.078125 1.2030029 -1.078125 3.421753q0 2.25 1.078125 3.468872q1.09375 1.2188721 2.859375 1.2190857q1.359375 1.5258789E-4 2.265625 -0.62472534q0.90625 -0.64053345 1.25 -1.8123474l2.21875 2.4414062E-4q-0.5 1.906189 -2.0 3.0466614q-1.484375 1.1404419 -3.734375 1.1401672q-1.765625 -2.1362305E-4 -3.140625 -0.7816162q-1.359375 -0.7970276 -2.140625 -2.2502441q-0.765625 -1.4532166 -0.765625 -3.4063416zm19.93982 6.4398193q-1.734375 -1.8310547E-4 -3.15625 -0.7816162q-1.421875 -0.7970276 -2.234375 -2.2502441q-0.796875 -1.4688416 -0.796875 -3.4063416q0 -1.90625 0.828125 -3.3592834q0.828125 -1.4686584 2.25 -2.2497559q1.4375 -0.7810669 3.203125 -0.7808533q1.765625 1.8310547E-4 3.1875 0.7816162q1.4375 0.7814026 2.265625 2.2346497q0.828125 1.4532166 0.828125 3.3750916q0 1.9375 -0.859375 3.406128q-0.84375 1.4530334 -2.296875 2.2497559q-1.453125 0.7810669 -3.21875 0.7808533zm0 -1.8125q1.109375 1.5258789E-4 2.078125 -0.51538086q0.984375 -0.5311279 1.578125 -1.5623169q0.609375 -1.0467834 0.609375 -2.5467834q0 -1.484375 -0.59375 -2.5313416q-0.59375 -1.046936 -1.546875 -1.5470581q-0.9375 -0.51571655 -2.046875 -0.5158386q-1.140625 -1.5258789E-4 -2.078125 0.51538086q-0.9375 0.49987793 -1.515625 1.5466919q-0.5625 1.046814 -0.5625 2.531189q0 1.515625 0.546875 2.562561q0.5625 1.046936 1.484375 1.5626831q0.9375 0.50009155 2.046875 0.5002136zm15.140625 -11.02948q2.265625 2.746582E-4 3.671875 1.3754272q1.40625 1.3595581 1.40625 3.953308l0 7.3125l-2.046875 -2.4414062E-4l0 -7.015625q0 -1.859375 -0.9375 -2.843872q-0.921875 -1.0000916 -2.53125 -1.0002747q-1.625 -2.1362305E-4 -2.59375 1.0309448q-0.953125 1.0155029 -0.953125 2.968628l0 6.859375l-2.0625 -2.4414062E-4l0 -12.421875l2.0625 2.4414062E-4l0 1.78125q0.609375 -0.95306396 1.65625 -1.4685669q1.0625 -0.5311279 2.328125 -0.53097534zm10.968689 1.9231567l0 7.328125q0 0.90625 0.375 1.281311q0.390625 0.35940552 1.34375 0.3595276l1.515625 1.8310547E-4l0 1.75l-1.859375 -2.4414062E-4q-1.71875 -1.8310547E-4 -2.578125 -0.78152466q-0.859375 -0.7969971 -0.859375 -2.609497l0 -7.328125l-1.609375 -1.8310547E-4l0 -1.703125l1.609375 1.8310547E-4l0 -3.125l2.0625 2.4414062E-4l0 3.125l3.234375 3.9672852E-4l0 1.703125l-3.234375 -3.9672852E-4zm7.793762 0.31341553q0.53125 -1.062439 1.53125 -1.6404419q1.015625 -0.5936279 2.46875 -0.59347534l0 2.125l-0.546875 -6.1035156E-5q-3.453125 -3.9672852E-4 -3.453125 3.7652283l0 6.75l-2.0625 -2.4414062E-4l0 -12.421875l2.0625 2.4414062E-4l0 2.015625zm5.6069946 4.156891q0 -1.90625 0.765625 -3.3436584q0.78125 -1.4374084 2.125 -2.2341003q1.34375 -0.7967224 3.0 -0.7965393q1.640625 1.8310547E-4 2.828125 0.7034607q1.203125 0.7032471 1.796875 1.7658386l0 -2.265625l2.09375 2.4414062E-4l0 12.421875l-2.09375 -2.4414062E-4l0 -2.3125q-0.609375 1.0936584 -1.828125 1.8122864q-1.203125 0.7029724 -2.8125 0.7027893q-1.65625 -1.8310547E-4 -3.0 -0.8128662q-1.328125 -0.8126526 -2.109375 -2.2814941q-0.765625 -1.4844666 -0.765625 -3.3594666zm10.515625 0.01687622q0 -1.40625 -0.5625 -2.437561q-0.5625 -1.0469666 -1.53125 -1.5939331q-0.96875 -0.5626221 -2.125 -0.56274414q-1.15625 -1.5258789E-4 -2.109375 0.54663086q-0.9375 0.5467529 -1.515625 1.5935669q-0.5625 1.031189 -0.5625 2.437439q0 1.421875 0.5625 2.484436q0.578125 1.046936 1.515625 1.6095581q0.953125 0.54696655 2.109375 0.54711914q1.15625 1.2207031E-4 2.125 -0.54663086q0.96875 -0.56240845 1.53125 -1.6091919q0.5625 -1.062439 0.5625 -2.468689zm4.799988 5.493164E-4q0 -1.921875 0.765625 -3.3592834q0.78125 -1.4374084 2.140625 -2.2341309q1.375 -0.7967224 3.140625 -0.7965088q2.296875 2.746582E-4 3.78125 1.1098328q1.484375 1.1095276 1.953125 3.0939636l-2.21875 -2.4414062E-4q-0.3125 -1.140686 -1.234375 -1.7970276q-0.921875 -0.6563721 -2.28125 -0.65652466q-1.765625 -2.1362305E-4 -2.859375 1.2184143q-1.078125 1.2030029 -1.078125 3.421753q0 2.25 1.078125 3.468872q1.09375 1.2188721 2.859375 1.2190857q1.359375 1.5258789E-4 2.265625 -0.62472534q0.90625 -0.64053345 1.25 -1.8123474l2.21875 2.4414062E-4q-0.5 1.906189 -2.0 3.0466309q-1.484375 1.1404724 -3.734375 1.1401978q-1.765625 -2.1362305E-4 -3.140625 -0.7816162q-1.359375 -0.7970276 -2.140625 -2.2502441q-0.765625 -1.4532166 -0.765625 -3.4063416zm17.049194 -4.4823914l0 7.328125q0 0.90625 0.375 1.281311q0.390625 0.35940552 1.34375 0.3595276l1.515625 1.8310547E-4l0 1.75l-1.859375 -2.1362305E-4q-1.71875 -2.1362305E-4 -2.578125 -0.7815552q-0.859375 -0.7969971 -0.859375 -2.609497l0 -7.328125l-1.609375 -1.8310547E-4l0 -1.703125l1.609375 1.8310547E-4l0 -3.125l2.0625 2.4414062E-4l0 3.125l3.234375 3.9672852E-4l0 1.703125l-3.234375 -3.9672852E-4z" fill-rule="nonzero"/><path fill="#ffffff" d="m580.9007 381.12506l0 -0.34375q3.984375 -4.093292 6.046875 -9.546173q2.0625 -5.452881 2.0625 -11.437256q0 -6.15625 -2.1875 -11.85965q-2.171875 -5.703369 -6.5 -9.750763l0 -0.359375l3.671875 4.272461E-4q4.046875 3.7504883 6.234375 9.531982q2.1875 5.7815247 2.1875 12.437775q0 6.484375 -2.078125 12.093506q-2.0625 5.609131 -5.765625 9.233704l-3.671875 -4.272461E-4z" fill-rule="nonzero"/><path fill="#25cc85" d="m345.0866 475.79047l0 0c0 -12.12442 9.828796 -21.952057 21.953186 -21.950623l225.92041 0.026367188c5.8223267 6.713867E-4 11.406189 2.3142395 15.523254 6.431732c4.1170044 4.117523 6.4299316 9.70166 6.4299316 15.524017l0 87.81012c0 12.124451 -9.828796 21.952087 -21.953186 21.950684l-225.92041 -0.026367188c-12.12439 -0.0014648438 -21.953186 -9.83136 -21.953186 -21.95581z" fill-rule="evenodd"/><path fill="#ffffff" d="m379.8775 519.9446q1.46875 0.2345581 2.6875 1.2034302q1.21875 0.9533081 1.921875 2.3908691q0.71875 1.421936 0.71875 3.046936q0 2.046875 -1.046875 3.703003q-1.03125 1.6405029 -3.03125 2.5934448q-1.984375 0.93725586 -4.6875 0.9369507l-10.0625 -0.0012207031l0 -26.93747l9.671875 0.0011291504q2.75 3.0517578E-4 4.671875 0.9067993q1.9375 0.9064636 2.90625 2.4534607q0.96875 1.5469971 0.96875 3.4844666q0 2.390625 -1.296875 3.953003q-1.296875 1.5623169 -3.421875 2.2651978zm-9.96875 -1.4386597l5.90625 6.713867E-4q2.46875 3.0517578E-4 3.828125 -1.1557617q1.359375 -1.1561279 1.359375 -3.203003q0 -2.046875 -1.359375 -3.203247q-1.359375 -1.1720581 -3.90625 -1.1723328l-5.828125 -7.019043E-4l0 8.734375zm6.21875 12.406982q2.625 3.0517578E-4 4.09375 -1.2338867q1.46875 -1.2341919 1.46875 -3.437317q0 -2.234375 -1.546875 -3.531433q-1.546875 -1.2970581 -4.125 -1.2973633l-6.109375 -7.324219E-4l0 9.5l6.21875 7.324219E-4zm17.477509 -25.70108l0 28.609406l-3.53125 -4.272461E-4l0 -28.609375l3.53125 3.9672852E-4zm15.22818 28.954926q-2.984375 -3.6621094E-4 -5.40625 -1.3444214q-2.40625 -1.3596191 -3.78125 -3.8441772q-1.375 -2.500183 -1.375 -5.781433q0 -3.25 1.40625 -5.734192q1.421875 -2.499817 3.859375 -3.8276367q2.4375 -1.3435059 5.453125 -1.3431396q3.015625 3.6621094E-4 5.4375 1.3443604q2.4375 1.3284302 3.84375 3.7973633q1.421875 2.468872 1.421875 5.765747q0 3.28125 -1.453125 5.781128q-1.453125 2.484192 -3.921875 3.8432617q-2.46875 1.3434448 -5.484375 1.3431396zm0 -3.09375q1.890625 1.8310547E-4 3.546875 -0.8746338q1.671875 -0.89038086 2.6875 -2.6715088q1.03125 -1.7811279 1.03125 -4.328003q0 -2.5625 -1.015625 -4.328247q-1.0 -1.7813721 -2.625 -2.6565552q-1.625 -0.87524414 -3.515625 -0.87542725q-1.921875 -2.4414062E-4 -3.53125 0.87457275q-1.609375 0.8748169 -2.578125 2.6559448q-0.96875 1.7655029 -0.96875 4.328003q0 2.578125 0.953125 4.359497q0.953125 1.7813721 2.53125 2.6565552q1.59375 0.8595581 3.484375 0.85980225zm14.17749 -7.873352q0 -3.296875 1.3125 -5.749878q1.328125 -2.452942 3.65625 -3.7964478q2.34375 -1.3590698 5.359375 -1.3587036q3.90625 4.272461E-4 6.4375 1.8913574q2.53125 1.8909302 3.34375 5.265991l-3.796875 -4.272461E-4q-0.53125 -1.937561 -2.109375 -3.0627441q-1.5625 -1.1251831 -3.875 -1.1254272q-3.015625 -3.6621094E-4 -4.875 2.0775146q-1.859375 2.062317 -1.859375 5.859192q0 3.828125 1.859375 5.922058q1.859375 2.0783691 4.875 2.0787354q2.3125 2.4414062E-4 3.859375 -1.0776978q1.546875 -1.0935669 2.125 -3.0935059l3.796875 4.272461E-4q-0.859375 3.234314 -3.40625 5.187134q-2.546875 1.9528198 -6.375 1.9523926q-3.015625 -3.6621094E-4 -5.359375 -1.3444214q-2.328125 -1.3596191 -3.65625 -3.8285522q-1.3125 -2.484497 -1.3125 -5.796997zm36.620605 10.629272l-8.3125 -9.360352l0 9.359375l-3.53125 -4.272461E-4l0 -28.609375l3.53125 4.272461E-4l0 16.8125l8.15625 -9.389709l4.90625 6.1035156E-4l-9.96875 10.56134l10.0 10.62616l-4.78125 -5.493164E-4zm17.111084 7.189514q-3.703125 -3.6254883 -5.78125 -9.235107q-2.0625 -5.609558 -2.0625 -12.093933q0 -6.65625 2.1875 -12.437286q2.1875 -5.7809753 6.25 -9.530518l3.671875 4.272461E-4l0 0.359375q-4.34375 4.0463867 -6.53125 9.749237q-2.171875 5.702881 -2.171875 11.859131q0 5.984375 2.0625 11.437744q2.078125 5.453369 6.046875 9.547607l0 0.34375l-3.671875 -4.272461E-4z" fill-rule="nonzero"/><path fill="#ffffff" d="m483.24542 527.5973q0 -1.921875 0.765625 -3.359314q0.78125 -1.4373779 2.140625 -2.2340698q1.375 -0.7967529 3.140625 -0.7965088q2.296875 2.4414062E-4 3.78125 1.1098022q1.484375 1.1095581 1.953125 3.093933l-2.21875 -2.4414062E-4q-0.3125 -1.140625 -1.234375 -1.7969971q-0.921875 -0.6563721 -2.28125 -0.65649414q-1.765625 -2.4414062E-4 -2.859375 1.2183838q-1.078125 1.2030029 -1.078125 3.421753q0 2.25 1.078125 3.468872q1.09375 1.2188721 2.859375 1.2191162q1.359375 1.2207031E-4 2.265625 -0.62475586q0.90625 -0.6405029 1.25 -1.8123779l2.21875 2.4414062E-4q-0.5 1.90625 -2.0 3.046692q-1.484375 1.1404419 -3.734375 1.1401978q-1.765625 -2.4414062E-4 -3.140625 -0.7816162q-1.359375 -0.7970581 -2.140625 -2.2503052q-0.765625 -1.453186 -0.765625 -3.406311zm19.93982 6.4398193q-1.734375 -1.8310547E-4 -3.15625 -0.7816162q-1.421875 -0.7970581 -2.234375 -2.2502441q-0.796875 -1.4688721 -0.796875 -3.406372q0 -1.90625 0.828125 -3.359253q0.828125 -1.468689 2.25 -2.2497559q1.4375 -0.7810669 3.203125 -0.7808838q1.765625 2.4414062E-4 3.1875 0.7816162q1.4375 0.7814331 2.265625 2.2346802q0.828125 1.453186 0.828125 3.375061q0 1.9375 -0.859375 3.406189q-0.84375 1.4530029 -2.296875 2.2496948q-1.453125 0.7810669 -3.21875 0.7808838zm0 -1.8125q1.109375 1.2207031E-4 2.078125 -0.51538086q0.984375 -0.5311279 1.578125 -1.5623169q0.609375 -1.046814 0.609375 -2.546814q0 -1.484375 -0.59375 -2.531311q-0.59375 -1.046936 -1.546875 -1.5470581q-0.9375 -0.5157471 -2.046875 -0.51586914q-1.140625 -1.2207031E-4 -2.078125 0.51538086q-0.9375 0.49987793 -1.515625 1.5466919q-0.5625 1.046814 -0.5625 2.531189q0 1.515625 0.546875 2.562561q0.5625 1.046936 1.484375 1.5626831q0.9375 0.5001221 2.046875 0.50024414zm15.140625 -11.02948q2.265625 2.4414062E-4 3.671875 1.3754272q1.40625 1.3595581 1.40625 3.953308l0 7.3125l-2.046875 -2.4414062E-4l0 -7.015625q0 -1.859375 -0.9375 -2.843872q-0.921875 -1.0001221 -2.53125 -1.0003052q-1.625 -1.8310547E-4 -2.59375 1.0309448q-0.953125 1.0155029 -0.953125 2.968628l0 6.859375l-2.0625 -2.4414062E-4l0 -12.421875l2.0625 2.4414062E-4l0 1.78125q0.609375 -0.9530029 1.65625 -1.4685059q1.0625 -0.5311279 2.328125 -0.53100586zm10.968689 1.9231567l0 7.328125q0 0.90625 0.375 1.281311q0.390625 0.359375 1.34375 0.35949707l1.515625 1.8310547E-4l0 1.75l-1.859375 -1.8310547E-4q-1.71875 -2.4414062E-4 -2.578125 -0.7815552q-0.859375 -0.7969971 -0.859375 -2.609497l0 -7.328125l-1.609375 -1.8310547E-4l0 -1.703125l1.609375 1.8310547E-4l0 -3.125l2.0625 2.4414062E-4l0 3.125l3.234375 3.6621094E-4l0 1.703125l-3.234375 -3.6621094E-4zm7.793762 0.31341553q0.53125 -1.062439 1.53125 -1.6404419q1.015625 -0.5936279 2.46875 -0.5934448l0 2.125l-0.546875 -6.1035156E-5q-3.453125 -4.272461E-4 -3.453125 3.7651978l0 6.75l-2.0625 -2.4414062E-4l0 -12.421875l2.0625 2.4414062E-4l0 2.015625zm5.6069946 4.1569214q0 -1.90625 0.765625 -3.343689q0.78125 -1.4373779 2.125 -2.2341309q1.34375 -0.7966919 3.0 -0.7965088q1.640625 1.8310547E-4 2.828125 0.7034302q1.203125 0.7033081 1.796875 1.7658691l0 -2.265625l2.09375 2.4414062E-4l0 12.421875l-2.09375 -2.4414062E-4l0 -2.3125q-0.609375 1.093689 -1.828125 1.8122559q-1.203125 0.7030029 -2.8125 0.7028198q-1.65625 -1.8310547E-4 -3.0 -0.8128662q-1.328125 -0.8126221 -2.109375 -2.2814941q-0.765625 -1.484436 -0.765625 -3.359436zm10.515625 0.016845703q0 -1.40625 -0.5625 -2.437561q-0.5625 -1.046936 -1.53125 -1.5939331q-0.96875 -0.5626221 -2.125 -0.56274414q-1.15625 -1.8310547E-4 -2.109375 0.54663086q-0.9375 0.5467529 -1.515625 1.5935669q-0.5625 1.031189 -0.5625 2.437439q0 1.421875 0.5625 2.484436q0.578125 1.046936 1.515625 1.6095581q0.953125 0.54693604 2.109375 0.54711914q1.15625 1.2207031E-4 2.125 -0.54663086q0.96875 -0.5623779 1.53125 -1.6091919q0.5625 -1.062439 0.5625 -2.468689zm4.799988 5.493164E-4q0 -1.921875 0.765625 -3.359314q0.78125 -1.4373779 2.140625 -2.2341309q1.375 -0.7966919 3.140625 -0.79644775q2.296875 2.4414062E-4 3.78125 1.1098022q1.484375 1.1095581 1.953125 3.093933l-2.21875 -2.4414062E-4q-0.3125 -1.140625 -1.234375 -1.7969971q-0.921875 -0.6563721 -2.28125 -0.65649414q-1.765625 -2.4414062E-4 -2.859375 1.2183838q-1.078125 1.2030029 -1.078125 3.421753q0 2.25 1.078125 3.468872q1.09375 1.2188721 2.859375 1.2191162q1.359375 1.2207031E-4 2.265625 -0.62475586q0.90625 -0.6405029 1.25 -1.8123779l2.21875 2.4414062E-4q-0.5 1.90625 -2.0 3.046692q-1.484375 1.1404419 -3.734375 1.1401978q-1.765625 -2.4414062E-4 -3.140625 -0.78167725q-1.359375 -0.7969971 -2.140625 -2.2502441q-0.765625 -1.453186 -0.765625 -3.406311zm17.049194 -4.482361l0 7.328125q0 0.90625 0.375 1.28125q0.390625 0.35943604 1.34375 0.3595581l1.515625 1.8310547E-4l0 1.75l-1.859375 -2.4414062E-4q-1.71875 -1.8310547E-4 -2.578125 -0.7815552q-0.859375 -0.79693604 -0.859375 -2.609436l0 -7.328125l-1.609375 -1.8310547E-4l0 -1.703125l1.609375 1.8310547E-4l0 -3.125l2.0625 2.4414062E-4l0 3.125l3.234375 3.6621094E-4l0 1.703125l-3.234375 -3.6621094E-4z" fill-rule="nonzero"/><path fill="#ffffff" d="m580.9007 541.0306l0 -0.34375q3.984375 -4.0933228 6.046875 -9.546204q2.0625 -5.452881 2.0625 -11.437256q0 -6.15625 -2.1875 -11.859619q-2.171875 -5.703369 -6.5 -9.750763l0 -0.359375l3.671875 4.272461E-4q4.046875 3.7504883 6.234375 9.531982q2.1875 5.7815247 2.1875 12.437775q0 6.484375 -2.078125 12.093506q-2.0625 5.609131 -5.765625 9.233704l-3.671875 -4.272461E-4z" fill-rule="nonzero"/><path fill="#25cc85" d="m345.0866 635.696l0 0c0 -12.124451 9.828796 -21.952026 21.953186 -21.950623l225.92041 0.026367188c5.8223267 6.713867E-4 11.406189 2.314209 15.523254 6.4317627c4.1170044 4.1174927 6.4299316 9.70166 6.4299316 15.523987l0 87.81012c0 12.124451 -9.828796 21.952087 -21.953186 21.950684l-225.92041 -0.026428223c-12.12439 -0.0014038086 -21.953186 -9.831299 -21.953186 -21.95575z" fill-rule="evenodd"/><path fill="#ffffff" d="m379.8775 679.8501q1.46875 0.2345581 2.6875 1.2034302q1.21875 0.9533081 1.921875 2.3908691q0.71875 1.421936 0.71875 3.046936q0 2.046875 -1.046875 3.703003q-1.03125 1.6405029 -3.03125 2.5934448q-1.984375 0.93725586 -4.6875 0.9369507l-10.0625 -0.0012207031l0 -26.9375l9.671875 0.001159668q2.75 3.0517578E-4 4.671875 0.9067993q1.9375 0.9064331 2.90625 2.4534302q0.96875 1.5469971 0.96875 3.484497q0 2.390625 -1.296875 3.953003q-1.296875 1.5623169 -3.421875 2.2651978zm-9.96875 -1.4386597l5.90625 6.713867E-4q2.46875 3.0517578E-4 3.828125 -1.1557617q1.359375 -1.1561279 1.359375 -3.203003q0 -2.046875 -1.359375 -3.203247q-1.359375 -1.1720581 -3.90625 -1.1723633l-5.828125 -6.713867E-4l0 8.734375zm6.21875 12.406982q2.625 3.0517578E-4 4.09375 -1.2338867q1.46875 -1.2341919 1.46875 -3.437317q0 -2.234375 -1.546875 -3.531433q-1.546875 -1.2970581 -4.125 -1.2973633l-6.109375 -7.324219E-4l0 9.5l6.21875 7.324219E-4zm17.477509 -25.70111l0 28.609375l-3.53125 -3.6621094E-4l0 -28.609375l3.53125 3.6621094E-4zm15.22818 28.954956q-2.984375 -3.6621094E-4 -5.40625 -1.3444214q-2.40625 -1.3596191 -3.78125 -3.8441772q-1.375 -2.500183 -1.375 -5.781433q0 -3.25 1.40625 -5.734192q1.421875 -2.499817 3.859375 -3.8276978q2.4375 -1.3434448 5.453125 -1.3430786q3.015625 3.6621094E-4 5.4375 1.3443604q2.4375 1.3284302 3.84375 3.7973633q1.421875 2.468872 1.421875 5.765747q0 3.28125 -1.453125 5.781128q-1.453125 2.484192 -3.921875 3.8432617q-2.46875 1.3434448 -5.484375 1.3431396zm0 -3.09375q1.890625 1.8310547E-4 3.546875 -0.8746338q1.671875 -0.89038086 2.6875 -2.6715698q1.03125 -1.7811279 1.03125 -4.328003q0 -2.5625 -1.015625 -4.328186q-1.0 -1.7813721 -2.625 -2.6566162q-1.625 -0.8751831 -3.515625 -0.8753662q-1.921875 -2.4414062E-4 -3.53125 0.87457275q-1.609375 0.8748169 -2.578125 2.6559448q-0.96875 1.7655029 -0.96875 4.328003q0 2.578125 0.953125 4.359497q0.953125 1.7813721 2.53125 2.6565552q1.59375 0.8595581 3.484375 0.85980225zm14.17749 -7.873352q0 -3.296875 1.3125 -5.749878q1.328125 -2.452942 3.65625 -3.7964478q2.34375 -1.3590698 5.359375 -1.3587646q3.90625 4.8828125E-4 6.4375 1.8914185q2.53125 1.8909302 3.34375 5.265991l-3.796875 -4.272461E-4q-0.53125 -1.937561 -2.109375 -3.0627441q-1.5625 -1.1251831 -3.875 -1.1254883q-3.015625 -3.0517578E-4 -4.875 2.0775757q-1.859375 2.062317 -1.859375 5.859192q0 3.828125 1.859375 5.922058q1.859375 2.0783691 4.875 2.0786743q2.3125 3.0517578E-4 3.859375 -1.0776367q1.546875 -1.0935669 2.125 -3.0935059l3.796875 4.272461E-4q-0.859375 3.234253 -3.40625 5.187134q-2.546875 1.9528198 -6.375 1.9523315q-3.015625 -3.0517578E-4 -5.359375 -1.3443604q-2.328125 -1.3596191 -3.65625 -3.8285522q-1.3125 -2.484497 -1.3125 -5.796997zm36.620605 10.629272l-8.3125 -9.360352l0 9.359375l-3.53125 -4.272461E-4l0 -28.609375l3.53125 4.272461E-4l0 16.8125l8.15625 -9.389709l4.90625 6.1035156E-4l-9.96875 10.56134l10.0 10.62616l-4.78125 -5.493164E-4zm17.111084 7.189453q-3.703125 -3.6254272 -5.78125 -9.235046q-2.0625 -5.609619 -2.0625 -12.093994q0 -6.65625 2.1875 -12.437195q2.1875 -5.781006 6.25 -9.530518l3.671875 4.272461E-4l0 0.359375q-4.34375 4.0463257 -6.53125 9.749207q-2.171875 5.702881 -2.171875 11.859131q0 5.984375 2.0625 11.437744q2.078125 5.453369 6.046875 9.547546l0 0.34375l-3.671875 -4.272461E-4z" fill-rule="nonzero"/><path fill="#ffffff" d="m483.24542 687.5028q0 -1.921875 0.765625 -3.359314q0.78125 -1.4373779 2.140625 -2.2341309q1.375 -0.7966919 3.140625 -0.7965088q2.296875 3.0517578E-4 3.78125 1.1098633q1.484375 1.1094971 1.953125 3.093933l-2.21875 -2.4414062E-4q-0.3125 -1.140625 -1.234375 -1.7969971q-0.921875 -0.6563721 -2.28125 -0.6565552q-1.765625 -1.8310547E-4 -2.859375 1.2184448q-1.078125 1.2030029 -1.078125 3.421753q0 2.25 1.078125 3.468872q1.09375 1.2188721 2.859375 1.2190552q1.359375 1.8310547E-4 2.265625 -0.6246948q0.90625 -0.64056396 1.25 -1.8123779l2.21875 2.4414062E-4q-0.5 1.906189 -2.0 3.046692q-1.484375 1.1404419 -3.734375 1.1401367q-1.765625 -1.8310547E-4 -3.140625 -0.7816162q-1.359375 -0.7969971 -2.140625 -2.2502441q-0.765625 -1.453186 -0.765625 -3.406311zm19.93982 6.4398193q-1.734375 -1.8310547E-4 -3.15625 -0.7816162q-1.421875 -0.7970581 -2.234375 -2.2502441q-0.796875 -1.4688721 -0.796875 -3.406372q0 -1.90625 0.828125 -3.359253q0.828125 -1.468689 2.25 -2.2497559q1.4375 -0.7810669 3.203125 -0.7808838q1.765625 2.4414062E-4 3.1875 0.7816162q1.4375 0.7814331 2.265625 2.2346802q0.828125 1.453186 0.828125 3.375061q0 1.9375 -0.859375 3.406189q-0.84375 1.4530029 -2.296875 2.2496948q-1.453125 0.7810669 -3.21875 0.7808838zm0 -1.8125q1.109375 1.2207031E-4 2.078125 -0.51538086q0.984375 -0.5311279 1.578125 -1.5623169q0.609375 -1.046814 0.609375 -2.546814q0 -1.484375 -0.59375 -2.531311q-0.59375 -1.046936 -1.546875 -1.5470581q-0.9375 -0.5157471 -2.046875 -0.51586914q-1.140625 -1.2207031E-4 -2.078125 0.51538086q-0.9375 0.49987793 -1.515625 1.5466919q-0.5625 1.046814 -0.5625 2.531189q0 1.515625 0.546875 2.562561q0.5625 1.046936 1.484375 1.5626831q0.9375 0.5001221 2.046875 0.50024414zm15.140625 -11.02948q2.265625 2.4414062E-4 3.671875 1.3754272q1.40625 1.3595581 1.40625 3.953308l0 7.3125l-2.046875 -2.4414062E-4l0 -7.015625q0 -1.859375 -0.9375 -2.843872q-0.921875 -1.0001221 -2.53125 -1.0003052q-1.625 -1.8310547E-4 -2.59375 1.0309448q-0.953125 1.0155029 -0.953125 2.968628l0 6.859375l-2.0625 -2.4414062E-4l0 -12.421875l2.0625 2.4414062E-4l0 1.78125q0.609375 -0.95306396 1.65625 -1.4685669q1.0625 -0.5310669 2.328125 -0.5309448zm10.968689 1.9231567l0 7.328125q0 0.90625 0.375 1.281311q0.390625 0.359375 1.34375 0.35949707l1.515625 1.8310547E-4l0 1.75l-1.859375 -1.8310547E-4q-1.71875 -2.4414062E-4 -2.578125 -0.7815552q-0.859375 -0.7969971 -0.859375 -2.609497l0 -7.328125l-1.609375 -1.8310547E-4l0 -1.703125l1.609375 1.8310547E-4l0 -3.125l2.0625 2.4414062E-4l0 3.125l3.234375 3.6621094E-4l0 1.703125l-3.234375 -3.6621094E-4zm7.793762 0.31341553q0.53125 -1.062439 1.53125 -1.6404419q1.015625 -0.5936279 2.46875 -0.59350586l0 2.125l-0.546875 -6.1035156E-5q-3.453125 -3.6621094E-4 -3.453125 3.7652588l0 6.75l-2.0625 -2.4414062E-4l0 -12.421875l2.0625 2.4414062E-4l0 2.015625zm5.6069946 4.1569214q0 -1.90625 0.765625 -3.343689q0.78125 -1.4373779 2.125 -2.2341309q1.34375 -0.7966919 3.0 -0.7965088q1.640625 1.8310547E-4 2.828125 0.7034302q1.203125 0.7033081 1.796875 1.7658691l0 -2.265625l2.09375 2.4414062E-4l0 12.421875l-2.09375 -2.4414062E-4l0 -2.3125q-0.609375 1.0936279 -1.828125 1.8122559q-1.203125 0.7030029 -2.8125 0.7028198q-1.65625 -1.8310547E-4 -3.0 -0.8128662q-1.328125 -0.8126221 -2.109375 -2.2814941q-0.765625 -1.484436 -0.765625 -3.359436zm10.515625 0.016845703q0 -1.40625 -0.5625 -2.437561q-0.5625 -1.046936 -1.53125 -1.5939331q-0.96875 -0.5626221 -2.125 -0.56274414q-1.15625 -1.8310547E-4 -2.109375 0.54663086q-0.9375 0.5467529 -1.515625 1.5935669q-0.5625 1.031189 -0.5625 2.437439q0 1.421875 0.5625 2.484436q0.578125 1.046936 1.515625 1.6095581q0.953125 0.54693604 2.109375 0.54711914q1.15625 1.2207031E-4 2.125 -0.54663086q0.96875 -0.5623779 1.53125 -1.6091919q0.5625 -1.062439 0.5625 -2.468689zm4.799988 5.493164E-4q0 -1.921875 0.765625 -3.359314q0.78125 -1.4373779 2.140625 -2.2341309q1.375 -0.7966919 3.140625 -0.7965088q2.296875 3.0517578E-4 3.78125 1.1098633q1.484375 1.1094971 1.953125 3.093933l-2.21875 -2.4414062E-4q-0.3125 -1.140625 -1.234375 -1.7969971q-0.921875 -0.6563721 -2.28125 -0.6565552q-1.765625 -1.8310547E-4 -2.859375 1.2184448q-1.078125 1.2030029 -1.078125 3.421753q0 2.25 1.078125 3.468872q1.09375 1.2188721 2.859375 1.2190552q1.359375 1.8310547E-4 2.265625 -0.6246948q0.90625 -0.64056396 1.25 -1.8123779l2.21875 2.4414062E-4q-0.5 1.906189 -2.0 3.046692q-1.484375 1.1404419 -3.734375 1.1401367q-1.765625 -1.8310547E-4 -3.140625 -0.7816162q-1.359375 -0.7969971 -2.140625 -2.2502441q-0.765625 -1.453186 -0.765625 -3.406311zm17.049194 -4.482422l0 7.328125q0 0.90625 0.375 1.281311q0.390625 0.35943604 1.34375 0.3595581l1.515625 1.8310547E-4l0 1.75l-1.859375 -2.4414062E-4q-1.71875 -1.8310547E-4 -2.578125 -0.7815552q-0.859375 -0.79693604 -0.859375 -2.609436l0 -7.328125l-1.609375 -2.4414062E-4l0 -1.703125l1.609375 2.4414062E-4l0 -3.125l2.0625 1.8310547E-4l0 3.125l3.234375 4.272461E-4l0 1.703125l-3.234375 -4.272461E-4z" fill-rule="nonzero"/><path fill="#ffffff" d="m580.9007 700.9361l0 -0.34375q3.984375 -4.0933228 6.046875 -9.546204q2.0625 -5.452881 2.0625 -11.437256q0 -6.15625 -2.1875 -11.859619q-2.171875 -5.703369 -6.5 -9.750732l0 -0.359375l3.671875 4.272461E-4q4.046875 3.7504272 6.234375 9.531921q2.1875 5.781555 2.1875 12.437805q0 6.484375 -2.078125 12.093506q-2.0625 5.609131 -5.765625 9.233704l-3.671875 -4.272461E-4z" fill-rule="nonzero"/><path fill="#000000" fill-opacity="0.0" d="m480.0 293.9475l0 -46.551178" fill-rule="evenodd"/><path stroke="#000000" stroke-width="1.0" stroke-linejoin="round" stroke-linecap="butt" d="m480.0 293.9475l0 -40.551178" fill-rule="evenodd"/><path fill="#000000" stroke="#000000" stroke-width="1.0" stroke-linecap="butt" d="m481.65173 253.39633l-1.6517334 -4.538101l-1.6517334 4.538101z" fill-rule="evenodd"/><path fill="#000000" fill-opacity="0.0" d="m480.0 453.85303l0 -28.188995" fill-rule="evenodd"/><path stroke="#000000" stroke-width="1.0" stroke-linejoin="round" stroke-linecap="butt" d="m480.0 453.85303l0 -22.188995" fill-rule="evenodd"/><path fill="#000000" stroke="#000000" stroke-width="1.0" stroke-linecap="butt" d="m481.65173 431.66403l-1.6517334 -4.538086l-1.6517334 4.538086z" fill-rule="evenodd"/><path fill="#000000" fill-opacity="0.0" d="m480.0 613.75854l0 -28.188965" fill-rule="evenodd"/><path stroke="#000000" stroke-width="1.0" stroke-linejoin="round" stroke-linecap="butt" d="m480.0 613.75854l0 -22.188965" fill-rule="evenodd"/><path fill="#000000" stroke="#000000" stroke-width="1.0" stroke-linecap="butt" d="m481.65173 591.5696l-1.6517334 -4.538147l-1.6517334 4.538147z" fill-rule="evenodd"/></g></svg>