<svg version="1.1" viewBox="0.0 0.0 542.1076115485564 368.9711286089239" fill="none" stroke="none" stroke-linecap="square" stroke-miterlimit="10" xmlns:xlink="http://www.w3.org/1999/xlink" xmlns="http://www.w3.org/2000/svg"><clipPath id="p.0"><path d="m0 0l542.1076 0l0 368.97113l-542.1076 0l0 -368.97113z" clip-rule="nonzero"/></clipPath><g clip-path="url(#p.0)"><path fill="#140526" d="m0 0l542.1076 0l0 368.97113l-542.1076 0z" fill-rule="evenodd"/><path fill="#cfe2f3" d="m130.66072 303.32022l140.39369 -237.66931l140.3937 237.66931z" fill-rule="evenodd"/><path stroke="#000000" stroke-width="1.0" stroke-linejoin="round" stroke-linecap="butt" d="m130.66072 303.32022l140.39369 -237.66931l140.3937 237.66931z" fill-rule="evenodd"/><path fill="#000000" fill-opacity="0.0" d="m225.46326 26.653543l91.18109 0l0 42.015747l-91.18109 0z" fill-rule="evenodd"/><path fill="#cfe2f3" d="m235.307 49.276665l1.65625 -0.140625q0.125 1.0 0.546875 1.640625q0.4375 0.640625 1.34375 1.046875q0.921875 0.390625 2.0625 0.390625q1.0 0 1.78125 -0.296875q0.78125 -0.296875 1.15625 -0.8125q0.375 -0.53125 0.375 -1.15625q0 -0.625 -0.375 -1.09375q-0.359375 -0.46875 -1.1875 -0.796875q-0.546875 -0.203125 -2.390625 -0.640625q-1.828125 -0.453125 -2.5625 -0.84375q-0.96875 -0.5 -1.4375 -1.234375q-0.46875 -0.75 -0.46875 -1.671875q0 -1.0 0.578125 -1.875q0.578125 -0.890625 1.671875 -1.34375q1.109375 -0.453125 2.453125 -0.453125q1.484375 0 2.609375 0.484375q1.140625 0.46875 1.75 1.40625q0.609375 0.921875 0.65625 2.09375l-1.6875 0.125q-0.140625 -1.265625 -0.9375 -1.90625q-0.78125 -0.65625 -2.3125 -0.65625q-1.609375 0 -2.34375 0.59375q-0.734375 0.59375 -0.734375 1.421875q0 0.71875 0.53125 1.171875q0.5 0.46875 2.65625 0.96875q2.15625 0.484375 2.953125 0.84375q1.171875 0.53125 1.71875 1.359375q0.5625 0.828125 0.5625 1.90625q0 1.0625 -0.609375 2.015625q-0.609375 0.9375 -1.75 1.46875q-1.140625 0.515625 -2.578125 0.515625q-1.8125 0 -3.046875 -0.53125q-1.21875 -0.53125 -1.921875 -1.59375q-0.6875 -1.0625 -0.71875 -2.40625zm19.146698 0.75l1.609375 0.21875q-0.265625 1.65625 -1.359375 2.609375q-1.078125 0.9375 -2.671875 0.9375q-1.984375 0 -3.1875 -1.296875q-1.203125 -1.296875 -1.203125 -3.71875q0 -1.578125 0.515625 -2.75q0.515625 -1.171875 1.578125 -1.75q1.0625 -0.59375 2.3125 -0.59375q1.578125 0 2.578125 0.796875q1.0 0.796875 1.28125 2.265625l-1.59375 0.234375q-0.234375 -0.96875 -0.8125 -1.453125q-0.578125 -0.5 -1.390625 -0.5q-1.234375 0 -2.015625 0.890625q-0.78125 0.890625 -0.78125 2.8125q0 1.953125 0.75 2.84375q0.75 0.875 1.953125 0.875q0.96875 0 1.609375 -0.59375q0.65625 -0.59375 0.828125 -1.828125zm9.328125 2.359375q-0.921875 0.765625 -1.765625 1.09375q-0.828125 0.3125 -1.796875 0.3125q-1.59375 0 -2.453125 -0.78125q-0.859375 -0.78125 -0.859375 -1.984375q0 -0.71875 0.328125 -1.296875q0.328125 -0.59375 0.84375 -0.9375q0.53125 -0.359375 1.1875 -0.546875q0.46875 -0.125 1.453125 -0.25q1.984375 -0.234375 2.921875 -0.5625q0.015625 -0.34375 0.015625 -0.421875q0 -1.0 -0.46875 -1.421875q-0.625 -0.546875 -1.875 -0.546875q-1.15625 0 -1.703125 0.40625q-0.546875 0.40625 -0.8125 1.421875l-1.609375 -0.21875q0.21875 -1.015625 0.71875 -1.640625q0.5 -0.640625 1.453125 -0.984375q0.953125 -0.34375 2.1875 -0.34375q1.25 0 2.015625 0.296875q0.78125 0.28125 1.140625 0.734375q0.375 0.4375 0.515625 1.109375q0.078125 0.421875 0.078125 1.515625l0 2.1875q0 2.28125 0.109375 2.890625q0.109375 0.59375 0.40625 1.15625l-1.703125 0q-0.265625 -0.515625 -0.328125 -1.1875zm-0.140625 -3.671875q-0.890625 0.375 -2.671875 0.625q-1.015625 0.140625 -1.4375 0.328125q-0.421875 0.1875 -0.65625 0.53125q-0.21875 0.34375 -0.21875 0.78125q0 0.65625 0.5 1.09375q0.5 0.4375 1.453125 0.4375q0.9375 0 1.671875 -0.40625q0.75 -0.421875 1.09375 -1.140625q0.265625 -0.5625 0.265625 -1.640625l0 -0.609375zm4.156952 4.859375l0 -13.359375l1.640625 0l0 13.359375l-1.640625 0zm10.504211 -1.1875q-0.921875 0.765625 -1.765625 1.09375q-0.828125 0.3125 -1.796875 0.3125q-1.59375 0 -2.453125 -0.78125q-0.859375 -0.78125 -0.859375 -1.984375q0 -0.71875 0.328125 -1.296875q0.328125 -0.59375 0.84375 -0.9375q0.53125 -0.359375 1.1875 -0.546875q0.46875 -0.125 1.453125 -0.25q1.984375 -0.234375 2.921875 -0.5625q0.015625 -0.34375 0.015625 -0.421875q0 -1.0 -0.46875 -1.421875q-0.625 -0.546875 -1.875 -0.546875q-1.15625 0 -1.703125 0.40625q-0.546875 0.40625 -0.8125 1.421875l-1.609375 -0.21875q0.21875 -1.015625 0.71875 -1.640625q0.5 -0.640625 1.453125 -0.984375q0.953125 -0.34375 2.1875 -0.34375q1.25 0 2.015625 0.296875q0.78125 0.28125 1.140625 0.734375q0.375 0.4375 0.515625 1.109375q0.078125 0.421875 0.078125 1.515625l0 2.1875q0 2.28125 0.109375 2.890625q0.109375 0.59375 0.40625 1.15625l-1.703125 0q-0.265625 -0.515625 -0.328125 -1.1875zm-0.140625 -3.671875q-0.890625 0.375 -2.671875 0.625q-1.015625 0.140625 -1.4375 0.328125q-0.421875 0.1875 -0.65625 0.53125q-0.21875 0.34375 -0.21875 0.78125q0 0.65625 0.5 1.09375q0.5 0.4375 1.453125 0.4375q0.9375 0 1.671875 -0.40625q0.75 -0.421875 1.09375 -1.140625q0.265625 -0.5625 0.265625 -1.640625l0 -0.609375zm5.703827 4.859375l-1.515625 0l0 -13.359375l1.640625 0l0 4.765625q1.046875 -1.296875 2.65625 -1.296875q0.890625 0 1.6875 0.359375q0.796875 0.359375 1.3125 1.015625q0.515625 0.640625 0.796875 1.5625q0.296875 0.921875 0.296875 1.96875q0 2.484375 -1.234375 3.84375q-1.21875 1.359375 -2.953125 1.359375q-1.703125 0 -2.6875 -1.4375l0 1.21875zm-0.015625 -4.90625q0 1.734375 0.484375 2.515625q0.765625 1.265625 2.09375 1.265625q1.078125 0 1.859375 -0.9375q0.78125 -0.9375 0.78125 -2.78125q0 -1.890625 -0.75 -2.796875q-0.75 -0.90625 -1.828125 -0.90625q-1.0625 0 -1.859375 0.9375q-0.78125 0.9375 -0.78125 2.703125zm8.844482 4.90625l0 -13.359375l1.640625 0l0 13.359375l-1.640625 0zm10.816681 -3.109375l1.6875 0.203125q-0.40625 1.484375 -1.484375 2.3125q-1.078125 0.8125 -2.765625 0.8125q-2.125 0 -3.375 -1.296875q-1.234375 -1.3125 -1.234375 -3.671875q0 -2.453125 1.25 -3.796875q1.265625 -1.34375 3.265625 -1.34375q1.9375 0 3.15625 1.328125q1.234375 1.3125 1.234375 3.703125q0 0.15625 0 0.4375l-7.21875 0q0.09375 1.59375 0.90625 2.453125q0.8125 0.84375 2.015625 0.84375q0.90625 0 1.546875 -0.46875q0.640625 -0.484375 1.015625 -1.515625zm-5.390625 -2.65625l5.40625 0q-0.109375 -1.21875 -0.625 -1.828125q-0.78125 -0.953125 -2.03125 -0.953125q-1.125 0 -1.90625 0.765625q-0.765625 0.75 -0.84375 2.015625z" fill-rule="nonzero"/><path fill="#000000" fill-opacity="0.0" d="m105.18769 270.06186l63.811028 89.35434l-34.204727 24.409454l-63.811028 -89.35434z" fill-rule="evenodd"/><path fill="#cfe2f3" d="m92.49353 291.21405l1.0770111 1.2661438q-0.74134064 0.6826172 -1.0176315 1.3980408q-0.26720428 0.72817993 -0.07121277 1.7016602q0.21779633 0.9771118 0.88067627 1.9053345q0.58115387 0.81381226 1.2768402 1.2771301q0.6956787 0.46331787 1.3333206 0.46896362q0.65036774 -0.0034179688 1.159111 -0.36645508q0.5087433 -0.36306763 0.6723633 -0.94052124q0.17269897 -0.5647278 -0.041481018 -1.4292603q-0.15248108 -0.5630493 -0.8678665 -2.3175964q-0.69358826 -1.750946 -0.80241394 -2.57547q-0.15599823 -1.0787964 0.16934967 -1.8868408q0.33807373 -0.8171387 1.0884705 -1.3526306q0.81398773 -0.5809021 1.8622055 -0.61868286q1.060936 -0.046875 2.0654144 0.5799866q1.0135574 0.6395874 1.794487 1.7331238q0.86265564 1.2079773 1.1221848 2.4048462q0.2813263 1.200531 -0.1276474 2.2409973q-0.39624786 1.0314026 -1.3228989 1.7502747l-1.0824509 -1.3006592q0.9484787 -0.8496094 1.0068283 -1.8702393q0.08015442 -1.0169678 -0.8097458 -2.263092q-0.9352951 -1.3096924 -1.8453903 -1.562439q-0.9100952 -0.25271606 -1.5841751 0.22833252q-0.5850525 0.417511 -0.64514923 1.1130371q-0.09098053 0.6791992 0.75514984 2.7243652q0.85884094 2.0361023 1.0294266 2.893341q0.24861145 1.2622681 -0.10765076 2.1883545q-0.34718323 0.93881226 -1.224762 1.5650635q-0.86486053 0.6171875 -1.9948349 0.6749573q-1.1172562 0.048675537 -2.2125702 -0.5709839q-1.0825882 -0.6286926 -1.9180069 -1.798523q-1.0533447 -1.4750061 -1.3382797 -2.7881165q-0.27585602 -1.300415 0.18038177 -2.4898071q0.46531677 -1.1766663 1.540947 -1.9826355zm10.342239 16.525513l0.815361 1.491272q-1.4443588 0.5316467 -2.7450027 0.13531494q-1.2879181 -0.4053955 -2.2686234 -1.778656q-1.2349548 -1.7293091 -0.9057617 -3.4999084q0.3509903 -1.7669067 2.271492 -3.1374512q1.9968109 -1.4249573 3.817047 -1.1882935q1.8293228 0.24938965 2.9916382 1.8769836q1.1259918 1.5767212 0.7531967 3.3399963q-0.3509903 1.7669373 -2.2969284 3.1556091q-0.127182 0.09075928 -0.35611725 0.2541504l-4.1952286 -5.8745728q-1.2428055 1.0020752 -1.4701385 2.1624756q-0.21460724 1.1513367 0.48459625 2.1304321q0.52667236 0.7374878 1.2805328 0.98654175q0.7665787 0.23995972 1.8239365 -0.053894043zm-0.9706497 -5.9298096l3.1418839 4.3995667q0.92848206 -0.79696655 1.1248398 -1.5705566q0.32180786 -1.1894226 -0.4046402 -2.206665q-0.65380096 -0.91552734 -1.731041 -1.1065674q-1.0554352 -0.18737793 -2.1310425 0.4842224zm7.1750717 13.865051l0.7572403 1.4367371q-1.502533 0.74594116 -2.9140015 0.40951538q-1.389679 -0.3327942 -2.315895 -1.6297913q-1.1532288 -1.6148682 -0.7967987 -3.34729q0.35643768 -1.7324219 2.3278122 -3.1392517q1.2845688 -0.916687 2.538124 -1.1778259q1.2535477 -0.2611084 2.3416138 0.2677307q1.1007843 0.5197449 1.8272247 1.5369873q0.91713715 1.2842712 0.8496475 2.5609436q-0.067481995 1.2767029 -1.0995789 2.3587341l-1.1169968 -1.1608276q0.65234375 -0.7534485 0.7106323 -1.50531q0.071014404 -0.7608948 -0.40117645 -1.4221191q-0.71736145 -1.0045166 -1.896347 -1.1229248q-1.1789856 -0.11843872 -2.74337 0.9979553q-1.5898132 1.1345215 -1.8789062 2.2622375q-0.2763672 1.1185913 0.4228363 2.0976868q0.5629959 0.7883606 1.418602 0.96481323q0.8646927 0.18914795 1.9693375 -0.3880005zm2.5430756 9.664185l1.1573868 -0.82595825q-1.9892426 0.037506104 -3.1152344 -1.5392151q-0.49943542 -0.69937134 -0.6682129 -1.5003052q-0.15969849 -0.7882385 0.03844452 -1.3711243q0.19813538 -0.58291626 0.7014694 -1.1148376q0.31798553 -0.3612976 1.1828461 -0.9784851l4.871208 -3.4762268l0.9534607 1.3351135l-4.362465 3.1131592q-1.0429153 0.7442627 -1.3481903 1.0964966q-0.43065643 0.49926758 -0.44532013 1.1239929q-0.014671326 0.62475586 0.412117 1.2223816q0.42678833 0.59762573 1.1043396 0.90112305q0.6993408 0.3071289 1.3751755 0.15118408q0.6885452 -0.16503906 1.6933136 -0.8820801l4.222557 -3.0133362l0.9534607 1.335144l-7.87278 5.618225l-0.85357666 -1.1952515zm2.3432083 3.2811584l7.872772 -5.618225l0.85357666 1.1952515l-1.1955414 0.85317993q1.1663208 -0.14126587 1.7058334 0.049591064q0.548584 0.20358276 0.88456726 0.67404175q0.48126984 0.6739197 0.5482712 1.6818848l-1.5606003 0.42263794q-0.06161499 -0.7046814 -0.40667725 -1.1878662q-0.3178177 -0.44503784 -0.83008575 -0.5977478q-0.51226807 -0.15270996 -1.0791016 0.021453857q-0.87568665 0.27938843 -1.727829 0.8875122l-4.120804 2.9407043l-0.9443817 -1.3224182zm10.000771 8.653748l0.815361 1.4912415q-1.4443512 0.5316467 -2.744995 0.13534546q-1.2879257 -0.40542603 -2.268631 -1.7786865q-1.2349548 -1.7293091 -0.9057617 -3.499878q0.3509903 -1.7669373 2.271492 -3.1374512q1.9968109 -1.4249878 3.817047 -1.188324q1.8293228 0.24942017 2.9916382 1.8769836q1.1259918 1.5767212 0.75320435 3.3400269q-0.35099792 1.7669373 -2.296936 3.1556091q-0.127182 0.09075928 -0.35611725 0.25411987l-4.195221 -5.874542q-1.2428131 1.0020752 -1.4701385 2.1624756q-0.21461487 1.1513367 0.48458862 2.1304321q0.52667236 0.7374878 1.2805328 0.98654175q0.7665787 0.23995972 1.8239365 -0.053894043zm-0.9706421 -5.92984l3.1418762 4.3995667q0.92848206 -0.79696655 1.1248474 -1.5705566q0.32180023 -1.1894226 -0.40464783 -2.206665q-0.65380096 -0.9154968 -1.7310333 -1.1065369q-1.0554428 -0.18740845 -2.1310425 0.4841919z" fill-rule="nonzero"/><path fill="#000000" fill-opacity="0.0" d="m361.92868 331.69806l123.40155 -81.7323l23.212616 35.02362l-123.40158 81.7323z" fill-rule="evenodd"/><path fill="#cfe2f3" d="m385.50253 348.3736l-7.3804016 -11.135651l3.842926 -2.5452576q1.2896423 -0.854187 2.0922852 -1.1421509q1.0890808 -0.42147827 2.1549072 -0.2840271q1.3778381 0.15567017 2.5759888 1.0300903q1.2111511 0.8657837 2.1951904 2.3505554q0.8373108 1.2633362 1.1937256 2.4516296q0.34780884 1.1752625 0.30178833 2.124054q-0.032958984 0.940155 -0.32974243 1.6802368q-0.30545044 0.7270508 -0.95758057 1.440094q-0.6607361 0.7000122 -1.6638184 1.3643799l-4.0252686 2.6660461zm0.6001892 -2.2904053l2.3839111 -1.5789185q1.0942383 -0.72476196 1.5900574 -1.334259q0.4871521 -0.6225281 0.614624 -1.2504578q0.17578125 -0.86608887 -0.12460327 -1.9415283q-0.28735352 -1.0841064 -1.1246643 -2.3474426q-1.1567078 -1.7452393 -2.3513794 -2.3033447q-1.1947021 -0.55810547 -2.2225342 -0.32711792q-0.74160767 0.1538086 -2.057312 1.025238l-2.344818 1.5530701l5.6367188 8.504761zm14.268646 -11.28717l1.5191345 -0.7625122q0.48132324 1.4616089 0.039978027 2.747223q-0.4499817 1.272583 -1.8568726 2.2044067q-1.7716675 1.1734314 -3.530243 0.7826538q-1.7542114 -0.41241455 -3.0576477 -2.3790588q-1.3552246 -2.0447998 -1.0554504 -3.8551025q0.3128357 -1.8189697 1.9802551 -2.9233398q1.6153259 -1.0698853 3.3651428 -0.6358032q1.7542114 0.41241455 3.0748901 2.4050903q0.08633423 0.13024902 0.24169922 0.36468506l-6.0183716 3.986145q0.95861816 1.2767029 2.1107788 1.5443726q1.1435242 0.25463867 2.146576 -0.4096985q0.7555542 -0.50042725 1.0307007 -1.2449036q0.26651 -0.7575073 0.009429932 -1.8241577zm-5.96167 0.7625427l4.507263 -2.9852905q-0.76449585 -0.9555054 -1.5310059 -1.1787109q-1.1779175 -0.36306763 -2.2200623 0.32717896q-0.93792725 0.6212158 -1.1662903 1.6907959q-0.2239685 1.0479431 0.4100952 2.1460266zm14.109863 -6.684082l1.4625854 -0.70632935q0.6935425 1.5272217 0.30822754 2.9256592q-0.3809204 1.3768005 -1.7096558 2.256836q-1.654419 1.0957642 -3.373932 0.67910767q-1.7195129 -0.41662598 -3.057495 -2.4353943q-0.8718262 -1.3154297 -1.0893555 -2.5769653q-0.21749878 -1.2615356 0.348938 -2.3301392q0.5578003 -1.0816345 1.5999451 -1.7718506q1.3157043 -0.87142944 2.5896606 -0.7593994q1.2739563 0.11203003 2.3198242 1.1809998l-1.1992493 1.0754089q-0.7305908 -0.67807007 -1.4801636 -0.76257324q-0.7582092 -0.09753418 -1.4356079 0.35110474q-1.0291138 0.6816406 -1.188446 1.8554077q-0.15930176 1.1737671 0.9024353 2.7757568q1.07901 1.6280212 2.1963196 1.9562378q1.1086731 0.31521606 2.1117249 -0.3491516q0.8076782 -0.5349426 1.0137634 -1.383606q0.21911621 -0.8572693 -0.31951904 -1.9811096zm8.279236 -4.9588013l1.519104 -0.7625122q0.48135376 1.4616089 0.039978027 2.747223q-0.4499817 1.2726135 -1.8568726 2.2044373q-1.771637 1.1734009 -3.530243 0.7826233q-1.7542114 -0.41241455 -3.0576477 -2.3790588q-1.3552246 -2.0447998 -1.0554199 -3.8551025q0.31280518 -1.8189392 1.9802246 -2.9233398q1.6153259 -1.0698853 3.3651428 -0.6358032q1.7542114 0.41241455 3.0749207 2.4051208q0.08630371 0.13024902 0.24169922 0.36468506l-6.018402 3.986145q0.9586487 1.2766724 2.1107788 1.544342q1.1435242 0.2546692 2.1466064 -0.4096985q0.7555542 -0.50042725 1.0307007 -1.2449036q0.2664795 -0.7575073 0.009429932 -1.8241577zm-5.9617004 0.7625427l4.507263 -2.9852905q-0.76446533 -0.95547485 -1.5310059 -1.1787109q-1.177887 -0.36306763 -2.2200317 0.32717896q-0.93792725 0.6212158 -1.1663208 1.6907959q-0.2239685 1.0479431 0.4100952 2.1460266zm10.806488 -0.2418518l-5.3432007 -8.061951l1.2245178 -0.81103516l0.75961304 1.1461182q0.005340576 -1.9151611 1.6858215 -3.0281982q0.7294922 -0.4831543 1.5144043 -0.62820435q0.7848816 -0.14501953 1.3693542 0.08633423q0.5888672 0.20968628 1.094574 0.71813965q0.3284912 0.32592773 0.95861816 1.2767029l3.2887878 4.9621887l-1.3677979 0.9059448l-3.2542725 -4.910095q-0.5524597 -0.8335571 -0.9894104 -1.1251526q-0.43252563 -0.31323242 -1.0003662 -0.2932129q-0.5678406 0.019989014 -1.1149902 0.38238525q-0.8727722 0.57806396 -1.1399231 1.5608826q-0.26272583 0.9611511 0.76446533 2.5110474l2.917633 4.4021606l-1.3678284 0.9059448zm10.822144 -8.929504l0.99816895 1.0818481q-0.4954834 0.49682617 -0.951416 0.7988281q-0.7425232 0.49179077 -1.3147583 0.53344727q-0.5592041 0.033050537 -0.97888184 -0.23251343q-0.4283142 -0.27853394 -1.2397156 -1.5028076l-3.0816345 -4.6496277l-1.0030823 0.66433716l-0.69918823 -1.0549622l1.0030518 -0.66433716l-1.3206787 -1.9927063l0.8109741 -1.7178345l1.864502 2.8132324l1.3808594 -0.9145813l0.69918823 1.0549622l-1.3808594 0.9145508l3.1334229 4.727783q0.37982178 0.5730591 0.5571594 0.69924927q0.19039917 0.11752319 0.41577148 0.11819458q0.22976685 -0.020996094 0.54241943 -0.22805786q0.22143555 -0.146698 0.56469727 -0.44900513zm2.1366577 0.3465271l-5.343231 -8.061951l1.2245178 -0.81103516l0.81140137 1.2242737q-0.100738525 -1.1701965 0.108795166 -1.7025452q0.2225647 -0.5409851 0.7045593 -0.8602295q0.69039917 -0.4572754 1.7003784 -0.48898315l0.36834717 1.5739441q-0.706604 0.03692627 -1.2015991 0.36480713q-0.45596313 0.30197144 -0.6264038 0.80844116q-0.17044067 0.5064697 -0.016021729 1.0788574q0.24890137 0.8846741 0.8272705 1.7572937l2.796753 4.219818l-1.3547668 0.89730835zm9.799438 -7.9147644q-0.3456421 1.1472168 -0.86779785 1.8866577q-0.51779175 0.71777344 -1.3254395 1.2526855q-1.3287354 0.8800659 -2.4768066 0.70339966q-1.1481018 -0.17666626 -1.8127441 -1.1795349q-0.39709473 -0.5990906 -0.4429016 -1.2621765q-0.05444336 -0.67611694 0.18551636 -1.2473755q0.24438477 -0.5928955 0.68792725 -1.1115723q0.32174683 -0.3630371 1.0733643 -1.0108032q1.5249329 -1.2911072 2.1252747 -2.082306q-0.17687988 -0.2951355 -0.22003174 -0.36026q-0.5524597 -0.8335571 -1.1763306 -0.9263611q-0.82318115 -0.11071777 -1.8653259 0.5794983q-0.96398926 0.63848877 -1.1954956 1.2790833q-0.23150635 0.640625 0.10812378 1.6338806l-1.462616 0.70632935q-0.37869263 -0.9673462 -0.3071289 -1.7644348q0.06295776 -0.8100586 0.6676636 -1.6229248q0.6047363 -0.8128357 1.6338501 -1.4944458q1.0421448 -0.6902466 1.8444824 -0.86553955q0.80670166 -0.19699097 1.3566589 -0.017730713q0.5543518 0.15762329 1.0427551 0.63998413q0.29821777 0.3085327 0.9024353 1.2202148l1.2084961 1.8233948q1.2602844 1.9015198 1.6881104 2.34906q0.41918945 0.4345398 0.977478 0.73947144l-1.4199219 0.9404602q-0.50631714 -0.2831421 -0.92959595 -0.8086548zm-2.1457825 -2.9830322q-0.5353699 0.8043823 -1.8822937 1.9963684q-0.7690735 0.67803955 -1.0172119 1.0672607q-0.24813843 0.3892517 -0.2536316 0.8052063q0.007537842 0.40731812 0.24923706 0.7720032q0.36254883 0.5470276 1.0210876 0.6355896q0.65856934 0.08859253 1.453186 -0.43771362q0.7816162 -0.5177002 1.1694336 -1.2618408q0.39224243 -0.7657776 0.28173828 -1.554718q-0.08929443 -0.61553955 -0.684906 -1.5142212l-0.3366394 -0.5079346zm6.150299 1.7550659l-7.3804016 -11.135651l1.3678284 -0.9059448l7.380371 11.135651l-1.3677979 0.9059448zm-2.841217 -11.874359l-1.0444946 -1.5759277l1.3678284 -0.9059448l1.0444641 1.5759277l-1.3677979 0.9059448zm6.335907 9.559723l-5.343231 -8.061951l1.3677979 -0.9059448l5.343231 8.061951l-1.3677979 0.9059448zm2.7261047 -1.8055725l-0.73373413 -1.1070557l1.2222595 -9.299377q-0.83825684 0.630188 -1.5026245 1.0701904l-3.2827759 2.174286l-0.7337036 -1.1070557l6.5915527 -4.3657837l0.5956116 0.8986511l-0.98461914 8.017517l-0.21221924 1.4899292q0.8687134 -0.6690674 1.6763916 -1.20401l3.725647 -2.4676208l0.776886 1.1721802l-7.138672 4.7281494zm12.312103 -11.884186l1.519104 -0.7625122q0.48135376 1.4616394 0.039978027 2.7472534q-0.4499817 1.272583 -1.8568726 2.2044067q-1.771637 1.1734009 -3.530243 0.7826538q-1.7542114 -0.41241455 -3.0576477 -2.3790588q-1.3552246 -2.0447998 -1.0554504 -3.855133q0.3128357 -1.8189392 1.9802551 -2.9233398q1.6153259 -1.0698547 3.3651428 -0.6358032q1.7542114 0.41241455 3.0749207 2.4051208q0.08630371 0.13024902 0.24169922 0.36468506l-6.018402 3.986145q0.95861816 1.2767029 2.1107788 1.5443726q1.1435242 0.25463867 2.1466064 -0.409729q0.7555542 -0.50042725 1.0306702 -1.2449036q0.26651 -0.7574768 0.009460449 -1.8241577zm-5.9617004 0.76257324l4.507263 -2.9852905q-0.76446533 -0.9555054 -1.5310059 -1.1787109q-1.177887 -0.36306763 -2.2200317 0.32714844q-0.93795776 0.62124634 -1.1663208 1.6908264q-0.2239685 1.0479126 0.4100952 2.1460266zm16.030243 -3.7017212l-0.6732788 -1.0158691q0.03857422 1.6986389 -1.4595032 2.690857q-0.96398926 0.63848877 -2.1255493 0.6394348q-1.1615906 9.460449E-4 -2.2346497 -0.6564636q-1.0730286 -0.65740967 -1.8930664 -1.8947144q-0.8027954 -1.2112427 -1.0463562 -2.455536q-0.25219727 -1.2572937 0.19714355 -2.3045654q0.46237183 -1.0559082 1.4654541 -1.7202759q0.7294922 -0.4831543 1.4968262 -0.54159546q0.771698 -0.080078125 1.4514465 0.18188477l-2.6500244 -3.998413l1.3677979 -0.9059448l7.3804016 11.135651l-1.2766418 0.84555054zm-6.9791565 -1.1685791q1.0271912 1.5498657 2.1878357 1.8869019q1.160614 0.33700562 2.0464478 -0.24969482q0.89886475 -0.5953369 1.040741 -1.7388306q0.13327026 -1.1565247 -0.8594055 -2.6542969q-1.096283 -1.6540527 -2.2438965 -1.9997253q-1.1562195 -0.3586731 -2.0941467 0.26254272q-0.89886475 0.5953369 -1.019104 1.7432251q-0.12020874 1.1478882 0.9415283 2.749878z" fill-rule="nonzero"/><path fill="#000000" fill-opacity="0.0" d="m272.16797 83.24147l-93.511795 193.13387" fill-rule="evenodd"/><path stroke="#000000" stroke-width="1.0" stroke-linejoin="round" stroke-linecap="butt" d="m272.16797 83.24147l-93.511795 193.13387" fill-rule="evenodd"/><path fill="#000000" fill-opacity="0.0" d="m178.17323 275.44357l209.5118 17.763763" fill-rule="evenodd"/><path stroke="#000000" stroke-width="1.0" stroke-linejoin="round" stroke-linecap="butt" d="m178.17323 275.44357l209.5118 17.763763" fill-rule="evenodd"/><path fill="#000000" fill-opacity="0.0" d="m272.63516 83.24147l115.52756 209.98424" fill-rule="evenodd"/><path stroke="#000000" stroke-width="1.0" stroke-linejoin="round" stroke-linecap="butt" d="m272.63516 83.24147l115.52756 209.98424" fill-rule="evenodd"/><path fill="#000000" fill-opacity="0.0" d="m341.09805 100.334984l83.3071 139.77954l-33.322845 19.842514l-83.30707 -139.77953z" fill-rule="evenodd"/><path fill="#cfe2f3" d="m325.43134 121.6299l9.840637 -5.8597183l0.77593994 1.3019333l-4.0409546 2.4062424l3.04776 5.1137924l4.0409546 -2.40625l0.77593994 1.3019409l-9.840607 5.859726l-0.77593994 -1.3019409l4.6450806 -2.7659836l-3.04776 -5.113785l-4.645111 2.7659836l-0.77593994 -1.3019409zm14.261383 4.701355l1.382782 -0.8234024l0.7199707 1.2079849l-1.3828125 0.8233948l-0.7199402 -1.2079773zm-8.457825 5.036316l7.1287537 -4.244896l0.7199402 1.2079849l-7.1287537 4.2449036l-0.7199402 -1.2079926zm1.0931702 3.1770782l0.52941895 1.2850647q-0.510437 0.39486694 -0.5520935 0.87431335q-0.06365967 0.6562042 0.40029907 1.4346924q0.49597168 0.8321533 1.1035767 1.0886536q0.607605 0.25650024 1.3077393 0.05781555q0.41845703 -0.12188721 1.6133118 -0.83335876q-1.4117432 -0.23231506 -2.1156921 -1.4134521q-0.87991333 -1.4764252 -0.2992859 -2.9132843q0.5805969 -1.4368591 2.0708008 -2.3242035q1.0202942 -0.6075592 2.0954895 -0.75679016q1.0831909 -0.13581848 1.9690552 0.28233337q0.89382935 0.4315796 1.4537964 1.371109q0.7519531 1.261673 0.21960449 2.687973l0.8591919 -0.5116272l0.6639404 1.1140289l-6.1621094 3.6693268q-1.6647339 0.991272 -2.5628052 1.0714264q-0.8981018 0.08013916 -1.7408142 -0.4182434q-0.8427429 -0.49838257 -1.482666 -1.5721436q-0.75994873 -1.2751007 -0.65463257 -2.4107513q0.11331177 -1.1222229 1.2838745 -1.7828827zm4.8825684 -1.5434875q-1.3962097 0.83140564 -1.7126465 1.7654266q-0.30844116 0.9474335 0.18753052 1.779602q0.49597168 0.8321686 1.4629211 1.0201721q0.9803772 0.17999268 2.3497314 -0.6354065q1.3156738 -0.783432 1.6295166 -1.7522888q0.32730103 -0.9768524 -0.16067505 -1.7955933q-0.47994995 -0.80532837 -1.4737549 -0.9773407q-0.99380493 -0.17201233 -2.2826233 0.59542847zm0.39978027 9.0637665l9.840607 -5.859726l0.7199402 1.2079773l-3.5307922 2.1024628q1.4839783 0.26202393 2.2519226 1.5505371q0.47195435 0.79190063 0.50717163 1.5529022q0.043182373 0.7744446 -0.36325073 1.3437958q-0.3984375 0.58277893 -1.4456177 1.2063293l-4.5242615 2.6940308l-0.7199402 -1.2079773l4.5242615 -2.6940308q0.8994751 -0.535614 1.0836792 -1.1726685q0.1842041 -0.6370697 -0.24777222 -1.3618469q-0.3199768 -0.5368805 -0.88186646 -0.83877563q-0.56192017 -0.30189514 -1.1652222 -0.21543884q-0.58984375 0.07846069 -1.4222107 0.57411194l-3.9067078 2.326294l-0.7199402 -1.2079773zm8.267334 13.871658l8.686066 -5.172226l-1.935852 -3.2481384l1.1545715 -0.6875l4.647644 7.7982025l-1.1545715 0.6875l-1.935852 -3.2481384l-8.686066 5.172226l-0.77593994 -1.3019257zm3.5077515 5.885544l9.840607 -5.8597107l2.2158203 3.7178955q0.58395386 0.97979736 0.7939453 1.5458069q0.31115723 0.7967224 0.2635193 1.4797821q-0.03967285 0.6964569 -0.4812317 1.3594818q-0.4201355 0.6684418 -1.1585388 1.1081238q-1.2485352 0.743454 -2.6011353 0.4577484q-1.344574 -0.27227783 -2.5924988 -2.3661041l-1.5038757 -2.523346l-4.0006714 2.3822632l-0.77593994 -1.3019409zm5.9446106 -1.7758179l1.519867 2.5501862q0.7519531 1.261673 1.5338135 1.5053406q0.78985596 0.25708008 1.6356201 -0.24655151q0.6175537 -0.36773682 0.8685913 -0.9536743q0.25906372 -0.57250977 0.08932495 -1.1624908q-0.09799194 -0.37808228 -0.62594604 -1.2639313l-1.5039062 -2.523346l-3.5173645 2.0944672zm2.4233093 8.61351l0.84332275 1.1708679q-0.69036865 0.5202179 -0.98168945 1.1301422q-0.27789307 0.60191345 -0.17327881 1.4488983q0.11804199 0.838974 0.6140137 1.6711426q0.44796753 0.7516327 0.99871826 1.187439q0.5722046 0.44125366 1.1080933 0.4858551q0.557312 0.05003357 1.013794 -0.22177124q0.46987915 -0.27980042 0.6455078 -0.74809265q0.1890564 -0.47628784 0.06274414 -1.2375946q-0.08432007 -0.47717285 -0.57003784 -2.0246582q-0.47232056 -1.555481 -0.5183716 -2.2736511q-0.040039062 -0.92178345 0.28897095 -1.5905304q0.34243774 -0.6767273 1.0271301 -1.0844269q0.7383728 -0.439682 1.6307678 -0.40731812q0.91381836 0.03778076 1.7294006 0.6432495q0.8235779 0.6188965 1.4155579 1.6121216q0.6559448 1.1006012 0.7894287 2.1486206q0.14691162 1.0400085 -0.2738037 1.8906403q-0.4126892 0.8640442 -1.2479248 1.4159393l-0.83792114 -1.1922913q0.8623657 -0.65896606 0.98825073 -1.5159149q0.13934326 -0.8649292 -0.5406189 -2.0057983q-0.703949 -1.1811371 -1.4535217 -1.4622192q-0.74957275 -0.2810669 -1.3671265 0.08666992q-0.5235901 0.31176758 -0.6486511 0.8954315q-0.1116333 0.5756836 0.46981812 2.3753204q0.589447 1.8130646 0.6729126 2.563507q0.12261963 1.0908508 -0.25494385 1.8612366q-0.35617065 0.7758179 -1.1482544 1.2474823q-0.778656 0.46365356 -1.7487183 0.42300415q-0.96209717 -0.02722168 -1.8553772 -0.6409912q-0.89331055 -0.6137543 -1.5172424 -1.660675q-0.7999573 -1.3421936 -0.9465637 -2.473297q-0.13320923 -1.1390991 0.33346558 -2.1262207q0.4746704 -0.9737091 1.4521484 -1.5921173zm5.1447754 9.1206665l1.2216797 -0.727478l2.2078247 3.704483l-1.2216797 0.72746277l-2.2078247 -3.7044678zm5.439911 9.890549l0.5508423 1.2904816q-1.3416748 0.5261383 -2.5197449 0.13652039q-1.1700745 -0.37620544 -1.8659973 -1.5439148q-0.87194824 -1.4629974 -0.4547119 -2.9298706q0.43865967 -1.4614258 2.2241821 -2.5246582q1.1545715 -0.68748474 2.2377625 -0.8233032q1.1046143 -0.13038635 1.998169 0.3922882q0.9015808 0.53608704 1.4455261 1.4487762q0.69595337 1.1677246 0.54522705 2.2576752q-0.1373291 1.081955 -1.1047668 1.9308167l-0.8704834 -1.063797q0.60754395 -0.59817505 0.7140503 -1.243515q0.11450195 -0.6319275 -0.2454834 -1.2359161q-0.5439453 -0.91270447 -1.5457458 -1.0981293q-0.9804077 -0.18000793 -2.4034424 0.66737366q-1.4364929 0.8553772 -1.7663574 1.7973938q-0.31643677 0.934021 0.21151733 1.81987q0.4239807 0.71136475 1.1335449 0.9253235q0.73101807 0.21939087 1.7159119 -0.20341492zm-1.289978 3.786911l9.840607 -5.859726l0.7199402 1.2079926l-3.5308228 2.1024628q1.4840088 0.26200867 2.2519531 1.5505219q0.47195435 0.79190063 0.5071411 1.5529175q0.04321289 0.7744293 -0.3632202 1.3437958q-0.39846802 0.58277893 -1.4456177 1.2063141l-4.5242615 2.6940308l-0.7199402 -1.2079773l4.5242615 -2.6940308q0.8994751 -0.535614 1.0836792 -1.1726685q0.1842041 -0.63705444 -0.24777222 -1.3618469q-0.3199768 -0.5368805 -0.88186646 -0.83877563q-0.56192017 -0.30189514 -1.1652222 -0.21542358q-0.58987427 0.07846069 -1.4222107 0.5740967l-3.9067078 2.3263092l-0.7199402 -1.2079926zm8.209473 11.760254q-0.9772339 -0.32736206 -1.5868835 -0.8008728q-0.5961914 -0.4815216 -1.0201416 -1.1928864q-0.703949 -1.1811371 -0.502655 -2.155716q0.20132446 -0.97457886 1.0873718 -1.5021973q0.5235901 -0.31178284 1.097168 -0.32598877q0.58703613 -0.022216797 1.0661011 0.20170593q0.50045776 0.22935486 0.922699 0.63261414q0.30996704 0.306427 0.81448364 0.9698334q1.0464478 1.3590851 1.704071 1.9131317q0.25506592 -0.15188599 0.3222046 -0.19186401q0.7383728 -0.439682 0.83374023 -0.9510956q0.13619995 -0.71759033 -0.40774536 -1.6302948q-0.5039673 -0.84558105 -1.06073 -1.0778046q-0.53533936 -0.22679138 -1.3991089 0.032974243l-0.5428467 -1.2770691q0.8477783 -0.28660583 1.5336609 -0.20401001q0.69384766 0.09602356 1.351471 0.6500702q0.671051 0.5460663 1.2149963 1.4587555q0.54397583 0.91270447 0.6651306 1.6043396q0.12918091 0.7050476 -0.033050537 1.1653442q-0.16220093 0.46029663 -0.5949402 0.86346436q-0.2687683 0.25097656 -1.0742798 0.73062134l-1.611023 0.9593048q-1.6915588 1.0072632 -2.0946045 1.3381805q-0.39501953 0.3443451 -0.6752014 0.82032776l-0.7519531 -1.2616577q0.26391602 -0.41174316 0.7420654 -0.7692108zm2.642456 -1.7007904q-0.6604614 -0.49778748 -1.6323547 -1.7012329q-0.5553589 -0.6876831 -0.8735962 -0.9164429q-0.3182373 -0.22875977 -0.69073486 -0.24336243q-0.35107422 -0.009185791 -0.6598511 0.17468262q-0.48330688 0.28779602 -0.5895386 0.842041q-0.09820557 0.567688 0.31774902 1.265625q0.4159851 0.6979523 1.031311 1.05896q0.63674927 0.36643982 1.3257446 0.30168152q0.5227356 -0.038497925 1.3282471 -0.5181427l0.44302368 -0.2638092zm6.717163 0.19189453l1.3828125 -0.8233948l0.7199402 1.2079773l-1.382782 0.8233948l-0.7199707 -1.2079773zm-8.457825 5.036331l7.1287537 -4.2449036l0.7199402 1.2079773l-7.1287537 4.2449036l-0.7199402 -1.2079773zm1.8198547 3.0534973l7.1287537 -4.2449036l0.6479492 1.0871887l-1.006897 0.5995636q1.631958 0.08299255 2.5198975 1.5728302q0.38397217 0.6442566 0.475708 1.3170319q0.09176636 0.6727905 -0.12414551 1.1650696q-0.21594238 0.49227905 -0.6755066 0.9114227q-0.2956543 0.26696777 -1.1279907 0.76260376l-4.3900146 2.61409l-0.7199402 -1.2079773l4.3363037 -2.5821228q0.7383728 -0.439682 1.0128784 -0.8031616q0.29589844 -0.35806274 0.29470825 -0.84835815q0.0068359375 -0.47688293 -0.28115845 -0.96006775q-0.46395874 -0.77848816 -1.2966614 -1.0464172q-0.8112793 -0.2625122 -2.1806335 0.55288696l-3.89328 2.3183136l-0.7199707 -1.2079926zm6.4022827 5.8895874l0.89990234 1.0826416q-0.66897583 0.52563477 -0.7863159 1.2138062q-0.09591675 0.6936188 0.3920288 1.5123596q0.49597168 0.8321686 1.0715637 1.0349731q0.5890503 0.19480896 1.0455017 -0.07699585q0.40274048 -0.23982239 0.43643188 -0.73269653q0.009094238 -0.3509369 -0.33319092 -1.4746399q-0.45632935 -1.5286407 -0.52664185 -2.1959991q-0.04888916 -0.66192627 0.22070312 -1.1861725q0.2776184 -0.51083374 0.8012085 -0.8226013q0.48330688 -0.28779602 1.0140381 -0.3128662q0.5307617 -0.02507019 1.0232239 0.19085693q0.3828125 0.15396118 0.8050232 0.5572052q0.44366455 0.40867615 0.77163696 0.9589844q0.5039673 0.8455963 0.63827515 1.6203156q0.13430786 0.7747345 -0.10586548 1.3178406q-0.21878052 0.54852295 -0.84487915 1.085022l-0.86505127 -1.0852051q0.5024414 -0.40829468 0.57922363 -0.98139954q0.076812744 -0.57310486 -0.33917236 -1.2710419q-0.49597168 -0.8321686 -0.99386597 -1.0266876q-0.47650146 -0.18908691 -0.83895874 0.026748657q-0.2416687 0.14389038 -0.34161377 0.40345764q-0.099975586 0.25956726 -0.050231934 0.6482086q0.04486084 0.22787476 0.33117676 1.2576294q0.4243164 1.4749451 0.50006104 2.1208801q0.08917236 0.63793945 -0.1590271 1.167633q-0.24017334 0.5430908 -0.85772705 0.91082764q-0.6041565 0.3597412 -1.3571167 0.31710815q-0.7315674 -0.037200928 -1.4269104 -0.5324249q-0.6873169 -0.48181152 -1.183258 -1.3139801q-0.8319397 -1.3958893 -0.6866455 -2.4644165q0.1453247 -1.0685425 1.1664734 -1.9493713z" fill-rule="nonzero"/><path fill="#000000" fill-opacity="0.0" d="m137.30423 205.01767l63.74803 -108.44094l33.448822 19.653542l-63.74803 108.44095z" fill-rule="evenodd"/><path fill="#cfe2f3" d="m163.46986 208.57591l-9.87471 -5.8020935l1.1560974 -1.9665985l8.369583 1.764389q1.1600037 0.24664307 1.7320709 0.3834381q-0.4438324 -0.47827148 -1.2673492 -1.4514465l-5.4848175 -6.394165l1.037323 -1.7645569l9.874695 5.8020782l-0.74432373 1.2661743l-8.271591 -4.860138l6.584961 7.729233l-0.6889038 1.1718903l-10.085007 -2.083664l8.406311 4.9392853l-0.744339 1.2661743zm9.446686 -16.069626l-1.0507965 -0.6174164q0.72151184 1.5475311 -0.12576294 2.9888153q-0.37216187 0.63308716 -0.93930054 1.0428772q-0.5592346 0.39631653 -1.0813293 0.45199585q-0.5355835 0.04776001 -1.1243286 -0.15318298q-0.4033203 -0.1463623 -1.1712036 -0.59754944l-4.4321747 -2.6042175l0.71266174 -1.2122955l3.9606628 2.3271637q0.95648193 0.5620117 1.319397 0.68463135q0.5562439 0.1637268 1.0394745 -0.041641235q0.4911499 -0.21885681 0.80789185 -0.75764465q0.324646 -0.5522766 0.33236694 -1.1820374q0.0021514893 -0.6511383 -0.3719635 -1.1246796q-0.36621094 -0.4869995 -1.2822723 -1.0252533l-3.825943 -2.2480164l0.71266174 -1.2122955l7.153427 4.2031555l-0.6334686 1.077591zm1.7380981 -2.9566498l-9.87471 -5.8020935l0.71266174 -1.2122955l9.874695 5.8020935l-0.7126465 1.2122955zm2.2780762 -6.3726196l1.1806793 0.45812988q-0.1931305 0.57518005 -0.43067932 0.97927856q-0.3880005 0.6600342 -0.8038788 0.9049835q-0.42933655 0.23704529 -0.85324097 0.1873169q-0.43736267 -0.057632446 -1.5285645 -0.6987915l-4.108841 -2.4142303l-0.5226288 0.88900757l-0.9430084 -0.55407715l0.5226135 -0.8890228l-1.778244 -1.0448456l-0.014816284 -1.63974l2.505722 1.47229l0.71266174 -1.2122955l0.9430084 0.5540924l-0.71266174 1.2122955l4.1762085 2.4538116q0.5254059 0.30871582 0.70526123 0.3419037q0.18777466 0.019714355 0.3691864 -0.07304382q0.16792297 -0.10067749 0.32629395 -0.3700714q0.118774414 -0.20205688 0.2549286 -0.5569916zm-6.6951447 -5.5377197l-1.3875732 -0.81529236l0.71266174 -1.2122955l1.3875732 0.81529236l-0.71266174 1.2122955zm8.487137 4.986786l-7.1534424 -4.2031403l0.71266174 -1.2122955l7.1534424 4.2031403l-0.71266174 1.2122955zm-1.4394684 -4.334381l-1.2259064 -0.7203064l2.1854858 -3.7177124l1.2259064 0.72032166l-2.1854858 3.7176971zm6.053894 -9.527405l0.8664093 -1.103836q1.107132 0.9223633 1.3325653 2.1421661q0.2333374 1.2063446 -0.4555664 2.3782196q-0.8631134 1.4682312 -2.3501282 1.8087006q-1.4925842 0.31910706 -3.2843018 -0.73365784q-1.1585693 -0.68074036 -1.7990417 -1.5644989q-0.64601135 -0.9051361 -0.6178436 -1.939682q0.036102295 -1.0480194 0.57455444 -1.9639893q0.6889038 -1.171875 1.7171631 -1.5644379q1.014801 -0.40048218 2.2247772 0.038635254l-0.5137787 1.2747803q-0.81692505 -0.24441528 -1.4340515 -0.02709961q-0.60920715 0.20385742 -0.9655304 0.80999756q-0.5384674 0.9159546 -0.21884155 1.8830261q0.3140564 0.9456787 1.7420502 1.784729q1.4414673 0.8469696 2.426239 0.68255615q0.9712982 -0.1723175 1.4939117 -1.0613403q0.41967773 -0.7138977 0.2657318 -1.4386444q-0.15950012 -0.7461395 -1.0043182 -1.4056244zm3.9414368 -0.69247437l-9.87471 -5.8020935l0.71266174 -1.2122955l3.5430298 2.081787q-0.4845581 -1.4264374 0.27560425 -2.7195435q0.4671936 -0.79473877 1.1175232 -1.1918793q0.65826416 -0.410614 1.3531342 -0.328537q0.7027893 0.068603516 1.7535706 0.6860199l4.5399475 2.6675262l-0.71266174 1.2122955l-4.5399475 -2.6675415q-0.9025879 -0.5303345 -1.5498505 -0.38508606q-0.6472473 0.14524841 -1.0748444 0.8726196q-0.31674194 0.5388031 -0.31097412 1.1764679q0.0057525635 0.63768005 0.37194824 1.1246948q0.35273743 0.4790802 1.187973 0.96984863l3.9202576 2.303421l-0.71266174 1.2122955zm6.3601837 -12.8541565q0.18336487 1.0138702 0.06159973 1.7759705q-0.13522339 0.7541809 -0.5549011 1.4680786q-0.6968231 1.1853638 -1.6482697 1.4780731q-0.95144653 0.2927246 -1.8405762 -0.22970581q-0.5253906 -0.30870056 -0.8139496 -0.8044586q-0.30203247 -0.50367737 -0.3362732 -1.0312195q-0.039794922 -0.5489502 0.11054993 -1.1130219q0.11949158 -0.4190979 0.4583435 -1.1804962q0.687973 -1.5711212 0.85723877 -2.414032q-0.2559662 -0.15040588 -0.32331848 -0.18997192q-0.7409363 -0.43536377 -1.2352753 -0.27275085q-0.6947632 0.22605896 -1.2332153 1.1420135q-0.49887085 0.84861755 -0.43449402 1.4482422q0.05882263 0.5782318 0.7023773 1.210083l-0.85847473 1.0903625q-0.6593933 -0.6049042 -0.917099 -1.245636q-0.24978638 -0.6542053 -0.08052063 -1.4971161q0.15579224 -0.8508301 0.6942444 -1.7667847q0.53845215 -0.9159546 1.0865784 -1.3550415q0.5560303 -0.45256042 1.0377197 -0.5319977q0.48168945 -0.079422 1.0434875 0.10569763q0.34944153 0.11470032 1.1577454 0.5896454l1.6165924 0.9498596q1.6974182 0.9973602 2.1815796 1.1912231q0.4920807 0.1803894 1.0443115 0.19677734l-0.744339 1.2661743q-0.48805237 -0.033050537 -1.031662 -0.27996826zm-2.763214 -1.4967346q-0.11857605 0.8183441 -0.7059784 2.2492218q-0.33566284 0.81762695 -0.3830719 1.206604q-0.047409058 0.3889618 0.11909485 0.7223816q0.16093445 0.31202698 0.47077942 0.49409485q0.48498535 0.2849579 1.0220947 0.11123657q0.54504395 -0.18717957 0.95680237 -0.887619q0.41175842 -0.70043945 0.43211365 -1.4133759q0.014801025 -0.7343292 -0.37361145 -1.3068695q-0.28536987 -0.43952942 -1.0936737 -0.9144592l-0.44454956 -0.2612152zm-3.0650177 -5.9781494l-1.3875732 -0.8153076l0.71266174 -1.2122955l1.3875732 0.8153076l-0.71266174 1.2122955zm8.487137 4.986786l-7.1534424 -4.2031555l0.71266174 -1.2122955l7.1534424 4.2031555l-0.71266174 1.2122955zm1.8014374 -3.0644073l-7.1534424 -4.2031555l0.6414032 -1.0910645l1.010376 0.5936737q-0.71276855 -1.4699097 0.16616821 -2.9650726q0.38009644 -0.64656067 0.9258423 -1.0507965q0.5457611 -0.40423584 1.0813293 -0.45199585q0.5355835 -0.04776001 1.1243134 0.15318298q0.37638855 0.13053894 1.2116241 0.6213074l4.4052277 2.588379l-0.71266174 1.2122955l-4.3513336 -2.556717q-0.7409363 -0.43536377 -1.1917725 -0.5009155q-0.45639038 -0.08692932 -0.8857422 0.15011597q-0.42141724 0.22355652 -0.70648193 0.70848083q-0.4592743 0.78125 -0.293396 1.6398621q0.1603241 0.8372345 1.5344391 1.6446228l3.9067688 2.2955017l-0.71266174 1.2122955z" fill-rule="nonzero"/><path fill="#000000" fill-opacity="0.0" d="m232.41995 307.7979l115.52756 0l0 38.771637l-115.52756 0z" fill-rule="evenodd"/><path fill="#cfe2f3" d="m242.59183 332.1579l0 -11.453125l4.296875 0q1.3125 0 2.109375 0.34375q0.796875 0.34375 1.234375 1.078125q0.453125 0.71875 0.453125 1.5q0 0.734375 -0.40625 1.390625q-0.390625 0.640625 -1.1875 1.046875q1.03125 0.296875 1.59375 1.03125q0.5625 0.734375 0.5625 1.734375q0 0.8125 -0.34375 1.5q-0.34375 0.6875 -0.84375 1.0625q-0.5 0.375 -1.25 0.578125q-0.75 0.1875 -1.84375 0.1875l-4.375 0zm1.515625 -6.640625l2.484375 0q1.0 0 1.4375 -0.140625q0.578125 -0.171875 0.875 -0.5625q0.296875 -0.40625 0.296875 -1.0q0 -0.578125 -0.28125 -1.0q-0.265625 -0.4375 -0.78125 -0.59375q-0.5 -0.171875 -1.734375 -0.171875l-2.296875 0l0 3.46875zm0 5.28125l2.859375 0q0.734375 0 1.03125 -0.046875q0.515625 -0.09375 0.859375 -0.3125q0.359375 -0.21875 0.578125 -0.640625q0.234375 -0.421875 0.234375 -0.96875q0 -0.640625 -0.328125 -1.109375q-0.328125 -0.46875 -0.90625 -0.65625q-0.578125 -0.203125 -1.671875 -0.203125l-2.65625 0l0 3.9375zm12.140625 1.359375l0 -10.109375l-3.78125 0l0 -1.34375l9.078125 0l0 1.34375l-3.78125 0l0 10.109375l-1.515625 0zm15.0234375 -4.015625l1.515625 0.375q-0.46875 1.875 -1.71875 2.859375q-1.234375 0.984375 -3.015625 0.984375q-1.859375 0 -3.015625 -0.75q-1.15625 -0.765625 -1.765625 -2.1875q-0.609375 -1.4375 -0.609375 -3.078125q0 -1.796875 0.6875 -3.125q0.6875 -1.328125 1.9375 -2.015625q1.265625 -0.703125 2.78125 -0.703125q1.71875 0 2.890625 0.875q1.171875 0.875 1.640625 2.46875l-1.5 0.34375q-0.390625 -1.25 -1.15625 -1.8125q-0.75 -0.578125 -1.90625 -0.578125q-1.3125 0 -2.203125 0.640625q-0.890625 0.625 -1.25 1.703125q-0.359375 1.0625 -0.359375 2.1875q0 1.46875 0.421875 2.5625q0.4375 1.078125 1.328125 1.625q0.90625 0.53125 1.953125 0.53125q1.265625 0 2.140625 -0.734375q0.890625 -0.734375 1.203125 -2.171875zm3.5703125 4.015625l0 -1.609375l1.609375 0l0 1.609375q0 0.890625 -0.3125 1.421875q-0.3125 0.546875 -1.0 0.84375l-0.390625 -0.59375q0.453125 -0.203125 0.65625 -0.578125q0.21875 -0.375 0.234375 -1.09375l-0.796875 0zm8.734375 0l0 -11.453125l8.28125 0l0 1.34375l-6.765625 0l0 3.515625l6.34375 0l0 1.34375l-6.34375 0l0 3.890625l7.03125 0l0 1.359375l-8.546875 0zm13.5625 0l0 -10.109375l-3.78125 0l0 -1.34375l9.078125 0l0 1.34375l-3.78125 0l0 10.109375l-1.515625 0zm6.8984375 0l0 -11.453125l1.515625 0l0 4.703125l5.953125 0l0 -4.703125l1.515625 0l0 11.453125l-1.515625 0l0 -5.40625l-5.953125 0l0 5.40625l-1.515625 0z" fill-rule="nonzero"/><path fill="#000000" fill-opacity="0.0" d="m234.28871 201.08661l269.3543 0l0 42.015747l-269.3543 0z" fill-rule="evenodd"/><path fill="#000000" d="m244.13246 223.70973l1.65625 -0.140625q0.125 1.0 0.546875 1.640625q0.4375 0.640625 1.34375 1.046875q0.921875 0.390625 2.0625 0.390625q1.0 0 1.78125 -0.296875q0.78125 -0.296875 1.15625 -0.8125q0.375 -0.53125 0.375 -1.15625q0 -0.625 -0.375 -1.09375q-0.359375 -0.46875 -1.1875 -0.796875q-0.546875 -0.203125 -2.390625 -0.640625q-1.828125 -0.453125 -2.5625 -0.84375q-0.96875 -0.5 -1.4375 -1.234375q-0.46875 -0.75 -0.46875 -1.671875q0 -1.0 0.578125 -1.875q0.578125 -0.890625 1.671875 -1.34375q1.109375 -0.453125 2.453125 -0.453125q1.484375 0 2.609375 0.484375q1.140625 0.46875 1.75 1.40625q0.609375 0.921875 0.65625 2.09375l-1.6875 0.125q-0.140625 -1.265625 -0.9375 -1.90625q-0.78125 -0.65625 -2.3125 -0.65625q-1.609375 0 -2.34375 0.59375q-0.734375 0.59375 -0.734375 1.421875q0 0.71875 0.53125 1.171875q0.5 0.46875 2.65625 0.96875q2.15625 0.484375 2.953125 0.84375q1.171875 0.53125 1.71875 1.359375q0.5625 0.828125 0.5625 1.90625q0 1.0625 -0.609375 2.015625q-0.609375 0.9375 -1.75 1.46875q-1.140625 0.515625 -2.578125 0.515625q-1.8125 0 -3.046875 -0.53125q-1.21875 -0.53125 -1.921875 -1.59375q-0.6875 -1.0625 -0.71875 -2.40625zm12.834213 4.296875l0 -13.359375l1.640625 0l0 4.796875q1.140625 -1.328125 2.890625 -1.328125q1.078125 0 1.859375 0.421875q0.796875 0.421875 1.140625 1.171875q0.34375 0.75 0.34375 2.171875l0 6.125l-1.640625 0l0 -6.125q0 -1.234375 -0.53125 -1.796875q-0.53125 -0.5625 -1.515625 -0.5625q-0.71875 0 -1.359375 0.390625q-0.640625 0.375 -0.921875 1.015625q-0.265625 0.640625 -0.265625 1.78125l0 5.296875l-1.640625 0zm16.688202 -1.1875q-0.921875 0.765625 -1.765625 1.09375q-0.828125 0.3125 -1.796875 0.3125q-1.59375 0 -2.453125 -0.78125q-0.859375 -0.78125 -0.859375 -1.984375q0 -0.71875 0.328125 -1.296875q0.328125 -0.59375 0.84375 -0.9375q0.53125 -0.359375 1.1875 -0.546875q0.46875 -0.125 1.453125 -0.25q1.984375 -0.234375 2.921875 -0.5625q0.015625 -0.34375 0.015625 -0.421875q0 -1.0 -0.46875 -1.421875q-0.625 -0.546875 -1.875 -0.546875q-1.15625 0 -1.703125 0.40625q-0.546875 0.40625 -0.8125 1.421875l-1.609375 -0.21875q0.21875 -1.015625 0.71875 -1.640625q0.5 -0.640625 1.453125 -0.984375q0.953125 -0.34375 2.1875 -0.34375q1.25 0 2.015625 0.296875q0.78125 0.28125 1.140625 0.734375q0.375 0.4375 0.515625 1.109375q0.078125 0.421875 0.078125 1.515625l0 2.1875q0 2.28125 0.109375 2.890625q0.109375 0.59375 0.40625 1.15625l-1.703125 0q-0.265625 -0.515625 -0.328125 -1.1875zm-0.140625 -3.671875q-0.890625 0.375 -2.671875 0.625q-1.015625 0.140625 -1.4375 0.328125q-0.421875 0.1875 -0.65625 0.53125q-0.21875 0.34375 -0.21875 0.78125q0 0.65625 0.5 1.09375q0.5 0.4375 1.453125 0.4375q0.9375 0 1.671875 -0.40625q0.75 -0.421875 1.09375 -1.140625q0.265625 -0.5625 0.265625 -1.640625l0 -0.609375zm4.1882324 4.859375l0 -9.671875l1.46875 0l0 1.46875q0.5625 -1.03125 1.03125 -1.359375q0.484375 -0.328125 1.0625 -0.328125q0.828125 0 1.6875 0.53125l-0.5625 1.515625q-0.609375 -0.359375 -1.203125 -0.359375q-0.546875 0 -0.96875 0.328125q-0.421875 0.328125 -0.609375 0.890625q-0.28125 0.875 -0.28125 1.921875l0 5.0625l-1.625 0zm12.493927 0l0 -1.21875q-0.90625 1.4375 -2.703125 1.4375q-1.15625 0 -2.125 -0.640625q-0.96875 -0.640625 -1.5 -1.78125q-0.53125 -1.140625 -0.53125 -2.625q0 -1.453125 0.484375 -2.625q0.484375 -1.1875 1.4375 -1.8125q0.96875 -0.625 2.171875 -0.625q0.875 0 1.546875 0.375q0.6875 0.359375 1.109375 0.953125l0 -4.796875l1.640625 0l0 13.359375l-1.53125 0zm-5.171875 -4.828125q0 1.859375 0.78125 2.78125q0.78125 0.921875 1.84375 0.921875q1.078125 0 1.828125 -0.875q0.75 -0.890625 0.75 -2.6875q0 -1.984375 -0.765625 -2.90625q-0.765625 -0.9375 -1.890625 -0.9375q-1.078125 0 -1.8125 0.890625q-0.734375 0.890625 -0.734375 2.8125zm9.281952 -6.640625l0 -1.890625l1.640625 0l0 1.890625l-1.640625 0zm0 11.46875l0 -9.671875l1.640625 0l0 9.671875l-1.640625 0zm4.1448364 0l0 -9.671875l1.46875 0l0 1.375q1.0625 -1.59375 3.078125 -1.59375q0.875 0 1.609375 0.3125q0.734375 0.3125 1.09375 0.828125q0.375 0.5 0.515625 1.203125q0.09375 0.453125 0.09375 1.59375l0 5.953125l-1.640625 0l0 -5.890625q0 -1.0 -0.203125 -1.484375q-0.1875 -0.5 -0.671875 -0.796875q-0.484375 -0.296875 -1.140625 -0.296875q-1.046875 0 -1.8125 0.671875q-0.75 0.65625 -0.75 2.515625l0 5.28125l-1.640625 0zm10.063202 0.796875l1.59375 0.234375q0.109375 0.75 0.5625 1.078125q0.609375 0.453125 1.671875 0.453125q1.140625 0 1.75 -0.453125q0.625 -0.453125 0.84375 -1.265625q0.125 -0.5 0.109375 -2.109375q-1.0625 1.265625 -2.671875 1.265625q-2.0 0 -3.09375 -1.4375q-1.09375 -1.4375 -1.09375 -3.453125q0 -1.390625 0.5 -2.5625q0.515625 -1.171875 1.453125 -1.796875q0.953125 -0.640625 2.25 -0.640625q1.703125 0 2.8125 1.375l0 -1.15625l1.515625 0l0 8.359375q0 2.265625 -0.46875 3.203125q-0.453125 0.9375 -1.453125 1.484375q-0.984375 0.546875 -2.453125 0.546875q-1.71875 0 -2.796875 -0.78125q-1.0625 -0.765625 -1.03125 -2.34375zm1.359375 -5.8125q0 1.90625 0.75 2.78125q0.765625 0.875 1.90625 0.875q1.125 0 1.890625 -0.859375q0.765625 -0.875 0.765625 -2.734375q0 -1.78125 -0.796875 -2.671875q-0.78125 -0.90625 -1.890625 -0.90625q-1.09375 0 -1.859375 0.890625q-0.765625 0.875 -0.765625 2.625z" fill-rule="nonzero"/></g></svg>