<svg xmlns="http://www.w3.org/2000/svg" version="1.1" width="673" height="92">
<path d="M 26.435547 2.254883 L 26.435547 3.355957 Q 25.941406 3.039062 25.444580 2.877930 Q 24.947754 2.716797 24.442871 2.716797 Q 23.674805 2.716797 23.229004 3.073975 Q 22.783203 3.431152 22.783203 4.038086 Q 22.783203 4.569824 23.075928 4.849121 Q 23.368652 5.128418 24.168945 5.316406 L 24.738281 5.445312 Q 25.866211 5.708496 26.381836 6.272461 Q 26.897461 6.836426 26.897461 7.808594 Q 26.897461 8.952637 26.188477 9.554199 Q 25.479492 10.155762 24.125977 10.155762 Q 23.562012 10.155762 22.992676 10.034912 Q 22.423340 9.914062 21.848633 9.672363 L 21.848633 8.517578 Q 22.466309 8.909668 23.016846 9.092285 Q 23.567383 9.274902 24.125977 9.274902 Q 24.947754 9.274902 25.404297 8.906982 Q 25.860840 8.539062 25.860840 7.878418 Q 25.860840 7.276855 25.546631 6.959961 Q 25.232422 6.643066 24.453613 6.471191 L 23.873535 6.336914 Q 22.756348 6.084473 22.251465 5.574219 Q 21.746582 5.063965 21.746582 4.204590 Q 21.746582 3.130371 22.468994 2.483154 Q 23.191406 1.835938 24.389160 1.835938 Q 24.851074 1.835938 25.361328 1.940674 Q 25.871582 2.045410 26.435547 2.254883 Z " fill="rgb(0, 0, 0)" fill-opacity="1.000000" />
<path d="M 21.547852 19.111328 L 27.241211 19.111328 L 27.241211 20.019043 L 21.547852 20.019043 Z " fill="rgb(0, 0, 0)" fill-opacity="1.000000" />
<path d="M 28.547852 19.111328 L 34.241211 19.111328 L 34.241211 20.019043 L 28.547852 20.019043 Z " fill="rgb(0, 0, 0)" fill-opacity="1.000000" />
<path d="M 35.547852 19.111328 L 41.241211 19.111328 L 41.241211 20.019043 L 35.547852 20.019043 Z " fill="rgb(0, 0, 0)" fill-opacity="1.000000" />
<path d="M 42.547852 19.111328 L 48.241211 19.111328 L 48.241211 20.019043 L 42.547852 20.019043 Z " fill="rgb(0, 0, 0)" fill-opacity="1.000000" />
<path d="M 49.547852 19.111328 L 55.241211 19.111328 L 55.241211 20.019043 L 49.547852 20.019043 Z " fill="rgb(0, 0, 0)" fill-opacity="1.000000" />
<path d="M 56.547852 19.111328 L 62.241211 19.111328 L 62.241211 20.019043 L 56.547852 20.019043 Z " fill="rgb(0, 0, 0)" fill-opacity="1.000000" />
<path d="M 63.547852 19.111328 L 69.241211 19.111328 L 69.241211 20.019043 L 63.547852 20.019043 Z " fill="rgb(0, 0, 0)" fill-opacity="1.000000" />
<path d="M 24.308594 41.937012 L 23.164551 46.040527 L 25.452637 46.040527 Z M 23.653320 40.980957 L 24.969238 40.980957 L 27.423828 49.000000 L 26.301270 49.000000 L 25.710449 46.910645 L 22.901367 46.910645 L 22.321289 49.000000 L 21.198730 49.000000 Z " fill="rgb(0, 0, 0)" fill-opacity="1.000000" />
<path d="M 22.981934 57.955566 L 22.981934 61.108398 L 24.265625 61.108398 Q 25.210938 61.108398 25.613770 60.778076 Q 26.016602 60.447754 26.016602 59.690430 Q 26.016602 58.691406 25.592285 58.323486 Q 25.167969 57.955566 24.265625 57.955566 Z M 22.981934 54.872559 L 22.981934 57.074707 L 24.244141 57.074707 Q 25.028320 57.074707 25.380127 56.773926 Q 25.731934 56.473145 25.731934 56.016602 Q 25.731934 55.409668 25.385498 55.141113 Q 25.039062 54.872559 24.244141 54.872559 Z M 21.891602 53.980957 L 24.265625 53.980957 Q 25.495605 53.980957 26.161621 54.512695 Q 26.827637 55.044434 26.827637 56.016602 Q 26.827637 56.537598 26.475830 56.961914 Q 26.124023 57.386230 25.420410 57.493652 Q 26.209961 57.611816 26.658447 58.167725 Q 27.106934 58.723633 27.106934 59.797852 Q 27.106934 60.888184 26.392578 61.444092 Q 25.678223 62.000000 24.265625 62.000000 L 21.891602 62.000000 Z " fill="rgb(0, 0, 0)" fill-opacity="1.000000" />
<path d="M 26.763184 74.715332 Q 26.349609 74.935547 25.914551 75.045654 Q 25.479492 75.155762 24.990723 75.155762 Q 23.449219 75.155762 22.597900 74.065430 Q 21.746582 72.975098 21.746582 70.998535 Q 21.746582 69.032715 22.603271 67.934326 Q 23.459961 66.835938 24.990723 66.835938 Q 25.479492 66.835938 25.914551 66.946045 Q 26.349609 67.056152 26.763184 67.276367 L 26.763184 68.388184 Q 26.365723 68.060547 25.909180 67.888672 Q 25.452637 67.716797 24.990723 67.716797 Q 23.932617 67.716797 23.406250 68.533203 Q 22.879883 69.349609 22.879883 70.998535 Q 22.879883 72.642090 23.406250 73.458496 Q 23.932617 74.274902 24.990723 74.274902 Q 25.463379 74.274902 25.917236 74.103027 Q 26.371094 73.931152 26.763184 73.603516 Z " fill="rgb(0, 0, 0)" fill-opacity="1.000000" />
<path d="M 33.645020 71.272461 L 33.645020 75.000000 L 32.651367 75.000000 L 32.651367 71.272461 Q 32.651367 70.461426 32.366699 70.080078 Q 32.082031 69.698730 31.475098 69.698730 Q 30.782227 69.698730 30.408936 70.190186 Q 30.035645 70.681641 30.035645 71.600098 L 30.035645 75.000000 L 29.047363 75.000000 L 29.047363 66.642578 L 30.035645 66.642578 L 30.035645 69.886719 Q 30.298828 69.371094 30.750000 69.105225 Q 31.201172 68.839355 31.818848 68.839355 Q 32.737305 68.839355 33.191162 69.443604 Q 33.645020 70.047852 33.645020 71.272461 Z " fill="rgb(0, 0, 0)" fill-opacity="1.000000" />
<path d="M 38.770508 71.976074 L 38.442871 71.976074 Q 37.578125 71.976074 37.140381 72.279541 Q 36.702637 72.583008 36.702637 73.184570 Q 36.702637 73.727051 37.030273 74.027832 Q 37.357910 74.328613 37.937988 74.328613 Q 38.754395 74.328613 39.221680 73.761963 Q 39.688965 73.195312 39.694336 72.196289 L 39.694336 71.976074 Z M 40.687988 71.567871 L 40.687988 75.000000 L 39.694336 75.000000 L 39.694336 74.108398 Q 39.377441 74.645508 38.896729 74.900635 Q 38.416016 75.155762 37.728516 75.155762 Q 36.810059 75.155762 36.262207 74.637451 Q 35.714355 74.119141 35.714355 73.249023 Q 35.714355 72.244629 36.388428 71.723633 Q 37.062500 71.202637 38.367676 71.202637 L 39.694336 71.202637 L 39.694336 71.046875 Q 39.688965 70.327148 39.329102 70.002197 Q 38.969238 69.677246 38.179688 69.677246 Q 37.674805 69.677246 37.159180 69.822266 Q 36.643555 69.967285 36.154785 70.246582 L 36.154785 69.258301 Q 36.702637 69.048828 37.204834 68.944092 Q 37.707031 68.839355 38.179688 68.839355 Q 38.926270 68.839355 39.455322 69.059570 Q 39.984375 69.279785 40.312012 69.720215 Q 40.516113 69.988770 40.602051 70.383545 Q 40.687988 70.778320 40.687988 71.567871 Z " fill="rgb(0, 0, 0)" fill-opacity="1.000000" />
<path d="M 48.203613 70.225098 Q 47.886719 69.978027 47.559082 69.865234 Q 47.231445 69.752441 46.839355 69.752441 Q 45.915527 69.752441 45.426758 70.332520 Q 44.937988 70.912598 44.937988 72.008301 L 44.937988 75.000000 L 43.944336 75.000000 L 43.944336 68.984375 L 44.937988 68.984375 L 44.937988 70.160645 Q 45.185059 69.521484 45.697998 69.180420 Q 46.210938 68.839355 46.914551 68.839355 Q 47.279785 68.839355 47.596680 68.930664 Q 47.913574 69.021973 48.203613 69.215332 Z " fill="rgb(0, 0, 0)" fill-opacity="1.000000" />
<path d="M 52.861816 72.824707 Q 52.861816 73.490723 53.106201 73.829102 Q 53.350586 74.167480 53.828613 74.167480 L 54.983398 74.167480 L 54.983398 75.000000 L 53.731934 75.000000 Q 52.845703 75.000000 52.359619 74.433350 Q 51.873535 73.866699 51.873535 72.824707 L 51.873535 67.383789 L 50.289062 67.383789 L 50.289062 66.610352 L 52.861816 66.610352 Z " fill="rgb(0, 0, 0)" fill-opacity="1.000000" />
<path d="M 57.697266 69.005859 L 60.227051 69.005859 L 60.227051 74.231934 L 62.187500 74.231934 L 62.187500 75.000000 L 57.278320 75.000000 L 57.278320 74.231934 L 59.238770 74.231934 L 59.238770 69.773926 L 57.697266 69.773926 Z M 59.238770 66.669434 L 60.227051 66.669434 L 60.227051 67.915527 L 59.238770 67.915527 Z " fill="rgb(0, 0, 0)" fill-opacity="1.000000" />
<path d="M 69.015625 71.498047 L 69.015625 71.981445 L 64.734863 71.981445 L 64.734863 72.013672 Q 64.691895 73.243652 65.204834 73.780762 Q 65.717773 74.317871 66.652344 74.317871 Q 67.125000 74.317871 67.640625 74.167480 Q 68.156250 74.017090 68.741699 73.710938 L 68.741699 74.693848 Q 68.177734 74.924805 67.654053 75.040283 Q 67.130371 75.155762 66.641602 75.155762 Q 65.239746 75.155762 64.450195 74.315186 Q 63.660645 73.474609 63.660645 71.997559 Q 63.660645 70.558105 64.434082 69.698730 Q 65.207520 68.839355 66.496582 68.839355 Q 67.645996 68.839355 68.309326 69.618164 Q 68.972656 70.396973 69.015625 71.498047 Z M 68.027344 71.208008 Q 67.962891 70.584961 67.573486 70.131104 Q 67.184082 69.677246 66.453613 69.677246 Q 65.739258 69.677246 65.277344 70.149902 Q 64.815430 70.622559 64.772461 71.213379 Z " fill="rgb(0, 0, 0)" fill-opacity="1.000000" />
<path d="M 72.304199 68.989746 L 73.979980 68.989746 L 73.979980 70.928711 L 72.304199 70.928711 Z M 72.304199 73.044922 L 73.979980 73.044922 L 73.979980 75.000000 L 72.304199 75.000000 Z " fill="rgb(0, 0, 0)" fill-opacity="1.000000" />
<path d="M 86.003418 74.086914 L 89.687988 74.086914 L 89.687988 75.000000 L 84.816406 75.000000 L 84.816406 74.086914 Q 85.820801 73.028809 86.572754 72.217773 Q 87.324707 71.406738 87.609375 71.073730 Q 88.146484 70.418457 88.334473 70.012939 Q 88.522461 69.607422 88.522461 69.183105 Q 88.522461 68.511719 88.127686 68.130371 Q 87.732910 67.749023 87.045410 67.749023 Q 86.556641 67.749023 86.019531 67.926270 Q 85.482422 68.103516 84.880859 68.463379 L 84.880859 67.367676 Q 85.434082 67.104492 85.968506 66.970215 Q 86.502930 66.835938 87.023926 66.835938 Q 88.200195 66.835938 88.917236 67.461670 Q 89.634277 68.087402 89.634277 69.102539 Q 89.634277 69.618164 89.395264 70.133789 Q 89.156250 70.649414 88.619141 71.272461 Q 88.318359 71.621582 87.746338 72.239258 Q 87.174316 72.856934 86.003418 74.086914 Z " fill="rgb(0, 0, 0)" fill-opacity="1.000000" />
<path d="M 92.981934 70.955566 L 92.981934 74.108398 L 94.265625 74.108398 Q 95.210938 74.108398 95.613770 73.778076 Q 96.016602 73.447754 96.016602 72.690430 Q 96.016602 71.691406 95.592285 71.323486 Q 95.167969 70.955566 94.265625 70.955566 Z M 92.981934 67.872559 L 92.981934 70.074707 L 94.244141 70.074707 Q 95.028320 70.074707 95.380127 69.773926 Q 95.731934 69.473145 95.731934 69.016602 Q 95.731934 68.409668 95.385498 68.141113 Q 95.039062 67.872559 94.244141 67.872559 Z M 91.891602 66.980957 L 94.265625 66.980957 Q 95.495605 66.980957 96.161621 67.512695 Q 96.827637 68.044434 96.827637 69.016602 Q 96.827637 69.537598 96.475830 69.961914 Q 96.124023 70.386230 95.420410 70.493652 Q 96.209961 70.611816 96.658447 71.167725 Q 97.106934 71.723633 97.106934 72.797852 Q 97.106934 73.888184 96.392578 74.444092 Q 95.678223 75.000000 94.265625 75.000000 L 91.891602 75.000000 Z " fill="rgb(0, 0, 0)" fill-opacity="1.000000" />
<path d="M 98.252441 66.980957 L 104.370117 66.980957 L 104.370117 67.894043 L 101.861816 67.894043 L 101.861816 75.000000 L 100.771484 75.000000 L 100.771484 67.894043 L 98.252441 67.894043 Z " fill="rgb(0, 0, 0)" fill-opacity="1.000000" />
<path d="M 110.763184 74.715332 Q 110.349609 74.935547 109.914551 75.045654 Q 109.479492 75.155762 108.990723 75.155762 Q 107.449219 75.155762 106.597900 74.065430 Q 105.746582 72.975098 105.746582 70.998535 Q 105.746582 69.032715 106.603271 67.934326 Q 107.459961 66.835938 108.990723 66.835938 Q 109.479492 66.835938 109.914551 66.946045 Q 110.349609 67.056152 110.763184 67.276367 L 110.763184 68.388184 Q 110.365723 68.060547 109.909180 67.888672 Q 109.452637 67.716797 108.990723 67.716797 Q 107.932617 67.716797 107.406250 68.533203 Q 106.879883 69.349609 106.879883 70.998535 Q 106.879883 72.642090 107.406250 73.458496 Q 107.932617 74.274902 108.990723 74.274902 Q 109.463379 74.274902 109.917236 74.103027 Q 110.371094 73.931152 110.763184 73.603516 Z " fill="rgb(0, 0, 0)" fill-opacity="1.000000" />
<path d="M 213.867188 66.105469 L 213.867188 75.913086 L 211.589844 75.913086 L 211.589844 75.145020 L 212.878906 75.145020 L 212.878906 66.873535 L 211.589844 66.873535 L 211.589844 66.105469 Z " fill="rgb(0, 0, 0)" fill-opacity="1.000000" />
<path d="M 218.869141 66.116211 L 219.728516 66.116211 Q 220.539551 67.383789 220.937012 68.597656 Q 221.334473 69.811523 221.334473 71.009277 Q 221.334473 72.217773 220.937012 73.431641 Q 220.539551 74.645508 219.728516 75.913086 L 218.869141 75.913086 Q 219.583496 74.666992 219.935303 73.447754 Q 220.287109 72.228516 220.287109 71.009277 Q 220.287109 69.784668 219.935303 68.565430 Q 219.583496 67.346191 218.869141 66.116211 Z " fill="rgb(0, 0, 0)" fill-opacity="1.000000" />
<path d="M 579.763184 74.715332 Q 579.349609 74.935547 578.914551 75.045654 Q 578.479492 75.155762 577.990723 75.155762 Q 576.449219 75.155762 575.597900 74.065430 Q 574.746582 72.975098 574.746582 70.998535 Q 574.746582 69.032715 575.603271 67.934326 Q 576.459961 66.835938 577.990723 66.835938 Q 578.479492 66.835938 578.914551 66.946045 Q 579.349609 67.056152 579.763184 67.276367 L 579.763184 68.388184 Q 579.365723 68.060547 578.909180 67.888672 Q 578.452637 67.716797 577.990723 67.716797 Q 576.932617 67.716797 576.406250 68.533203 Q 575.879883 69.349609 575.879883 70.998535 Q 575.879883 72.642090 576.406250 73.458496 Q 576.932617 74.274902 577.990723 74.274902 Q 578.463379 74.274902 578.917236 74.103027 Q 579.371094 73.931152 579.763184 73.603516 Z " fill="rgb(0, 0, 0)" fill-opacity="1.000000" />
<path d="M 586.645020 71.272461 L 586.645020 75.000000 L 585.651367 75.000000 L 585.651367 71.272461 Q 585.651367 70.461426 585.366699 70.080078 Q 585.082031 69.698730 584.475098 69.698730 Q 583.782227 69.698730 583.408936 70.190186 Q 583.035645 70.681641 583.035645 71.600098 L 583.035645 75.000000 L 582.047363 75.000000 L 582.047363 66.642578 L 583.035645 66.642578 L 583.035645 69.886719 Q 583.298828 69.371094 583.750000 69.105225 Q 584.201172 68.839355 584.818848 68.839355 Q 585.737305 68.839355 586.191162 69.443604 Q 586.645020 70.047852 586.645020 71.272461 Z " fill="rgb(0, 0, 0)" fill-opacity="1.000000" />
<path d="M 591.770508 71.976074 L 591.442871 71.976074 Q 590.578125 71.976074 590.140381 72.279541 Q 589.702637 72.583008 589.702637 73.184570 Q 589.702637 73.727051 590.030273 74.027832 Q 590.357910 74.328613 590.937988 74.328613 Q 591.754395 74.328613 592.221680 73.761963 Q 592.688965 73.195312 592.694336 72.196289 L 592.694336 71.976074 Z M 593.687988 71.567871 L 593.687988 75.000000 L 592.694336 75.000000 L 592.694336 74.108398 Q 592.377441 74.645508 591.896729 74.900635 Q 591.416016 75.155762 590.728516 75.155762 Q 589.810059 75.155762 589.262207 74.637451 Q 588.714355 74.119141 588.714355 73.249023 Q 588.714355 72.244629 589.388428 71.723633 Q 590.062500 71.202637 591.367676 71.202637 L 592.694336 71.202637 L 592.694336 71.046875 Q 592.688965 70.327148 592.329102 70.002197 Q 591.969238 69.677246 591.179688 69.677246 Q 590.674805 69.677246 590.159180 69.822266 Q 589.643555 69.967285 589.154785 70.246582 L 589.154785 69.258301 Q 589.702637 69.048828 590.204834 68.944092 Q 590.707031 68.839355 591.179688 68.839355 Q 591.926270 68.839355 592.455322 69.059570 Q 592.984375 69.279785 593.312012 69.720215 Q 593.516113 69.988770 593.602051 70.383545 Q 593.687988 70.778320 593.687988 71.567871 Z " fill="rgb(0, 0, 0)" fill-opacity="1.000000" />
<path d="M 601.203613 70.225098 Q 600.886719 69.978027 600.559082 69.865234 Q 600.231445 69.752441 599.839355 69.752441 Q 598.915527 69.752441 598.426758 70.332520 Q 597.937988 70.912598 597.937988 72.008301 L 597.937988 75.000000 L 596.944336 75.000000 L 596.944336 68.984375 L 597.937988 68.984375 L 597.937988 70.160645 Q 598.185059 69.521484 598.697998 69.180420 Q 599.210938 68.839355 599.914551 68.839355 Q 600.279785 68.839355 600.596680 68.930664 Q 600.913574 69.021973 601.203613 69.215332 Z " fill="rgb(0, 0, 0)" fill-opacity="1.000000" />
<path d="M 605.861816 72.824707 Q 605.861816 73.490723 606.106201 73.829102 Q 606.350586 74.167480 606.828613 74.167480 L 607.983398 74.167480 L 607.983398 75.000000 L 606.731934 75.000000 Q 605.845703 75.000000 605.359619 74.433350 Q 604.873535 73.866699 604.873535 72.824707 L 604.873535 67.383789 L 603.289062 67.383789 L 603.289062 66.610352 L 605.861816 66.610352 Z " fill="rgb(0, 0, 0)" fill-opacity="1.000000" />
<path d="M 610.697266 69.005859 L 613.227051 69.005859 L 613.227051 74.231934 L 615.187500 74.231934 L 615.187500 75.000000 L 610.278320 75.000000 L 610.278320 74.231934 L 612.238770 74.231934 L 612.238770 69.773926 L 610.697266 69.773926 Z M 612.238770 66.669434 L 613.227051 66.669434 L 613.227051 67.915527 L 612.238770 67.915527 Z " fill="rgb(0, 0, 0)" fill-opacity="1.000000" />
<path d="M 622.015625 71.498047 L 622.015625 71.981445 L 617.734863 71.981445 L 617.734863 72.013672 Q 617.691895 73.243652 618.204834 73.780762 Q 618.717773 74.317871 619.652344 74.317871 Q 620.125000 74.317871 620.640625 74.167480 Q 621.156250 74.017090 621.741699 73.710938 L 621.741699 74.693848 Q 621.177734 74.924805 620.654053 75.040283 Q 620.130371 75.155762 619.641602 75.155762 Q 618.239746 75.155762 617.450195 74.315186 Q 616.660645 73.474609 616.660645 71.997559 Q 616.660645 70.558105 617.434082 69.698730 Q 618.207520 68.839355 619.496582 68.839355 Q 620.645996 68.839355 621.309326 69.618164 Q 621.972656 70.396973 622.015625 71.498047 Z M 621.027344 71.208008 Q 620.962891 70.584961 620.573486 70.131104 Q 620.184082 69.677246 619.453613 69.677246 Q 618.739258 69.677246 618.277344 70.149902 Q 617.815430 70.622559 617.772461 71.213379 Z " fill="rgb(0, 0, 0)" fill-opacity="1.000000" />
<path d="M 631.450195 74.092285 L 633.136719 74.092285 L 633.136719 68.033691 L 631.117188 69.005859 L 631.117188 67.963867 L 633.125977 67.007812 L 634.210938 67.007812 L 634.210938 74.092285 L 635.875977 74.092285 L 635.875977 75.000000 L 631.450195 75.000000 Z " fill="rgb(0, 0, 0)" fill-opacity="1.000000" />
<path d="M 638.981934 70.955566 L 638.981934 74.108398 L 640.265625 74.108398 Q 641.210938 74.108398 641.613770 73.778076 Q 642.016602 73.447754 642.016602 72.690430 Q 642.016602 71.691406 641.592285 71.323486 Q 641.167969 70.955566 640.265625 70.955566 Z M 638.981934 67.872559 L 638.981934 70.074707 L 640.244141 70.074707 Q 641.028320 70.074707 641.380127 69.773926 Q 641.731934 69.473145 641.731934 69.016602 Q 641.731934 68.409668 641.385498 68.141113 Q 641.039062 67.872559 640.244141 67.872559 Z M 637.891602 66.980957 L 640.265625 66.980957 Q 641.495605 66.980957 642.161621 67.512695 Q 642.827637 68.044434 642.827637 69.016602 Q 642.827637 69.537598 642.475830 69.961914 Q 642.124023 70.386230 641.420410 70.493652 Q 642.209961 70.611816 642.658447 71.167725 Q 643.106934 71.723633 643.106934 72.797852 Q 643.106934 73.888184 642.392578 74.444092 Q 641.678223 75.000000 640.265625 75.000000 L 637.891602 75.000000 Z " fill="rgb(0, 0, 0)" fill-opacity="1.000000" />
<path d="M 644.252441 66.980957 L 650.370117 66.980957 L 650.370117 67.894043 L 647.861816 67.894043 L 647.861816 75.000000 L 646.771484 75.000000 L 646.771484 67.894043 L 644.252441 67.894043 Z " fill="rgb(0, 0, 0)" fill-opacity="1.000000" />
<path d="M 656.763184 74.715332 Q 656.349609 74.935547 655.914551 75.045654 Q 655.479492 75.155762 654.990723 75.155762 Q 653.449219 75.155762 652.597900 74.065430 Q 651.746582 72.975098 651.746582 70.998535 Q 651.746582 69.032715 652.603271 67.934326 Q 653.459961 66.835938 654.990723 66.835938 Q 655.479492 66.835938 655.914551 66.946045 Q 656.349609 67.056152 656.763184 67.276367 L 656.763184 68.388184 Q 656.365723 68.060547 655.909180 67.888672 Q 655.452637 67.716797 654.990723 67.716797 Q 653.932617 67.716797 653.406250 68.533203 Q 652.879883 69.349609 652.879883 70.998535 Q 652.879883 72.642090 653.406250 73.458496 Q 653.932617 74.274902 654.990723 74.274902 Q 655.463379 74.274902 655.917236 74.103027 Q 656.371094 73.931152 656.763184 73.603516 Z " fill="rgb(0, 0, 0)" fill-opacity="1.000000" />
<path d="M 31.308594 56.677246 Q 30.556641 56.677246 30.169922 57.262695 Q 29.783203 57.848145 29.783203 58.997559 Q 29.783203 60.141602 30.169922 60.729736 Q 30.556641 61.317871 31.308594 61.317871 Q 32.065918 61.317871 32.452637 60.729736 Q 32.839355 60.141602 32.839355 58.997559 Q 32.839355 57.848145 32.452637 57.262695 Q 32.065918 56.677246 31.308594 56.677246 Z M 31.308594 55.839355 Q 32.560059 55.839355 33.223389 56.650391 Q 33.886719 57.461426 33.886719 58.997559 Q 33.886719 60.539062 33.226074 61.347412 Q 32.565430 62.155762 31.308594 62.155762 Q 30.057129 62.155762 29.396484 61.347412 Q 28.735840 60.539062 28.735840 58.997559 Q 28.735840 57.461426 29.396484 56.650391 Q 30.057129 55.839355 31.308594 55.839355 Z " fill="rgb(0, 0, 0)" fill-opacity="1.000000" />
<path d="M 39.930664 58.997559 Q 39.930664 57.848145 39.565430 57.262695 Q 39.200195 56.677246 38.485840 56.677246 Q 37.766113 56.677246 37.395508 57.265381 Q 37.024902 57.853516 37.024902 58.997559 Q 37.024902 60.136230 37.395508 60.727051 Q 37.766113 61.317871 38.485840 61.317871 Q 39.200195 61.317871 39.565430 60.732422 Q 39.930664 60.146973 39.930664 58.997559 Z M 37.024902 56.752441 Q 37.261230 56.312012 37.677490 56.075684 Q 38.093750 55.839355 38.641602 55.839355 Q 39.726562 55.839355 40.349609 56.674561 Q 40.972656 57.509766 40.972656 58.976074 Q 40.972656 60.463867 40.346924 61.309814 Q 39.721191 62.155762 38.630859 62.155762 Q 38.093750 62.155762 37.682861 61.922119 Q 37.271973 61.688477 37.024902 61.242676 L 37.024902 62.000000 L 36.036621 62.000000 L 36.036621 53.642578 L 37.024902 53.642578 Z " fill="rgb(0, 0, 0)" fill-opacity="1.000000" />
<path d="M 44.304199 55.989746 L 45.979980 55.989746 L 45.979980 57.928711 L 44.304199 57.928711 Z M 44.304199 60.044922 L 45.979980 60.044922 L 45.979980 62.000000 L 44.304199 62.000000 Z " fill="rgb(0, 0, 0)" fill-opacity="1.000000" />
<path d="M 85.450195 61.092285 L 87.136719 61.092285 L 87.136719 55.033691 L 85.117188 56.005859 L 85.117188 54.963867 L 87.125977 54.007812 L 88.210938 54.007812 L 88.210938 61.092285 L 89.875977 61.092285 L 89.875977 62.000000 L 85.450195 62.000000 Z " fill="rgb(0, 0, 0)" fill-opacity="1.000000" />
<path d="M 92.981934 57.955566 L 92.981934 61.108398 L 94.265625 61.108398 Q 95.210938 61.108398 95.613770 60.778076 Q 96.016602 60.447754 96.016602 59.690430 Q 96.016602 58.691406 95.592285 58.323486 Q 95.167969 57.955566 94.265625 57.955566 Z M 92.981934 54.872559 L 92.981934 57.074707 L 94.244141 57.074707 Q 95.028320 57.074707 95.380127 56.773926 Q 95.731934 56.473145 95.731934 56.016602 Q 95.731934 55.409668 95.385498 55.141113 Q 95.039062 54.872559 94.244141 54.872559 Z M 91.891602 53.980957 L 94.265625 53.980957 Q 95.495605 53.980957 96.161621 54.512695 Q 96.827637 55.044434 96.827637 56.016602 Q 96.827637 56.537598 96.475830 56.961914 Q 96.124023 57.386230 95.420410 57.493652 Q 96.209961 57.611816 96.658447 58.167725 Q 97.106934 58.723633 97.106934 59.797852 Q 97.106934 60.888184 96.392578 61.444092 Q 95.678223 62.000000 94.265625 62.000000 L 91.891602 62.000000 Z " fill="rgb(0, 0, 0)" fill-opacity="1.000000" />
<path d="M 98.252441 53.980957 L 104.370117 53.980957 L 104.370117 54.894043 L 101.861816 54.894043 L 101.861816 62.000000 L 100.771484 62.000000 L 100.771484 54.894043 L 98.252441 54.894043 Z " fill="rgb(0, 0, 0)" fill-opacity="1.000000" />
<path d="M 110.763184 61.715332 Q 110.349609 61.935547 109.914551 62.045654 Q 109.479492 62.155762 108.990723 62.155762 Q 107.449219 62.155762 106.597900 61.065430 Q 105.746582 59.975098 105.746582 57.998535 Q 105.746582 56.032715 106.603271 54.934326 Q 107.459961 53.835938 108.990723 53.835938 Q 109.479492 53.835938 109.914551 53.946045 Q 110.349609 54.056152 110.763184 54.276367 L 110.763184 55.388184 Q 110.365723 55.060547 109.909180 54.888672 Q 109.452637 54.716797 108.990723 54.716797 Q 107.932617 54.716797 107.406250 55.533203 Q 106.879883 56.349609 106.879883 57.998535 Q 106.879883 59.642090 107.406250 60.458496 Q 107.932617 61.274902 108.990723 61.274902 Q 109.463379 61.274902 109.917236 61.103027 Q 110.371094 60.931152 110.763184 60.603516 Z " fill="rgb(0, 0, 0)" fill-opacity="1.000000" />
<path d="M 226.089355 59.830078 L 227.979980 59.830078 L 227.979980 62.000000 L 226.089355 62.000000 Z " fill="rgb(0, 0, 0)" fill-opacity="1.000000" />
<path d="M 233.089355 59.830078 L 234.979980 59.830078 L 234.979980 62.000000 L 233.089355 62.000000 Z " fill="rgb(0, 0, 0)" fill-opacity="1.000000" />
<path d="M 240.089355 59.830078 L 241.979980 59.830078 L 241.979980 62.000000 L 240.089355 62.000000 Z " fill="rgb(0, 0, 0)" fill-opacity="1.000000" />
<path d="M 575.981934 57.955566 L 575.981934 61.108398 L 577.265625 61.108398 Q 578.210938 61.108398 578.613770 60.778076 Q 579.016602 60.447754 579.016602 59.690430 Q 579.016602 58.691406 578.592285 58.323486 Q 578.167969 57.955566 577.265625 57.955566 Z M 575.981934 54.872559 L 575.981934 57.074707 L 577.244141 57.074707 Q 578.028320 57.074707 578.380127 56.773926 Q 578.731934 56.473145 578.731934 56.016602 Q 578.731934 55.409668 578.385498 55.141113 Q 578.039062 54.872559 577.244141 54.872559 Z M 574.891602 53.980957 L 577.265625 53.980957 Q 578.495605 53.980957 579.161621 54.512695 Q 579.827637 55.044434 579.827637 56.016602 Q 579.827637 56.537598 579.475830 56.961914 Q 579.124023 57.386230 578.420410 57.493652 Q 579.209961 57.611816 579.658447 58.167725 Q 580.106934 58.723633 580.106934 59.797852 Q 580.106934 60.888184 579.392578 61.444092 Q 578.678223 62.000000 577.265625 62.000000 L 574.891602 62.000000 Z " fill="rgb(0, 0, 0)" fill-opacity="1.000000" />
<path d="M 584.308594 56.677246 Q 583.556641 56.677246 583.169922 57.262695 Q 582.783203 57.848145 582.783203 58.997559 Q 582.783203 60.141602 583.169922 60.729736 Q 583.556641 61.317871 584.308594 61.317871 Q 585.065918 61.317871 585.452637 60.729736 Q 585.839355 60.141602 585.839355 58.997559 Q 585.839355 57.848145 585.452637 57.262695 Q 585.065918 56.677246 584.308594 56.677246 Z M 584.308594 55.839355 Q 585.560059 55.839355 586.223389 56.650391 Q 586.886719 57.461426 586.886719 58.997559 Q 586.886719 60.539062 586.226074 61.347412 Q 585.565430 62.155762 584.308594 62.155762 Q 583.057129 62.155762 582.396484 61.347412 Q 581.735840 60.539062 581.735840 58.997559 Q 581.735840 57.461426 582.396484 56.650391 Q 583.057129 55.839355 584.308594 55.839355 Z " fill="rgb(0, 0, 0)" fill-opacity="1.000000" />
<path d="M 592.930664 58.997559 Q 592.930664 57.848145 592.565430 57.262695 Q 592.200195 56.677246 591.485840 56.677246 Q 590.766113 56.677246 590.395508 57.265381 Q 590.024902 57.853516 590.024902 58.997559 Q 590.024902 60.136230 590.395508 60.727051 Q 590.766113 61.317871 591.485840 61.317871 Q 592.200195 61.317871 592.565430 60.732422 Q 592.930664 60.146973 592.930664 58.997559 Z M 590.024902 56.752441 Q 590.261230 56.312012 590.677490 56.075684 Q 591.093750 55.839355 591.641602 55.839355 Q 592.726562 55.839355 593.349609 56.674561 Q 593.972656 57.509766 593.972656 58.976074 Q 593.972656 60.463867 593.346924 61.309814 Q 592.721191 62.155762 591.630859 62.155762 Q 591.093750 62.155762 590.682861 61.922119 Q 590.271973 61.688477 590.024902 61.242676 L 590.024902 62.000000 L 589.036621 62.000000 L 589.036621 53.642578 L 590.024902 53.642578 Z " fill="rgb(0, 0, 0)" fill-opacity="1.000000" />
<path d="M 597.304199 55.989746 L 598.979980 55.989746 L 598.979980 57.928711 L 597.304199 57.928711 Z M 597.304199 60.044922 L 598.979980 60.044922 L 598.979980 62.000000 L 597.304199 62.000000 Z " fill="rgb(0, 0, 0)" fill-opacity="1.000000" />
<path d="M 634.167969 57.708496 Q 634.957520 57.917969 635.376465 58.452393 Q 635.795410 58.986816 635.795410 59.787109 Q 635.795410 60.893555 635.051514 61.524658 Q 634.307617 62.155762 632.991699 62.155762 Q 632.438477 62.155762 631.863770 62.053711 Q 631.289062 61.951660 630.735840 61.758301 L 630.735840 60.678711 Q 631.283691 60.963379 631.815430 61.103027 Q 632.347168 61.242676 632.873535 61.242676 Q 633.765137 61.242676 634.243164 60.839844 Q 634.721191 60.437012 634.721191 59.679688 Q 634.721191 58.981445 634.243164 58.570557 Q 633.765137 58.159668 632.948730 58.159668 L 632.121582 58.159668 L 632.121582 57.268066 L 632.948730 57.268066 Q 633.695312 57.268066 634.114258 56.940430 Q 634.533203 56.612793 634.533203 56.027344 Q 634.533203 55.409668 634.143799 55.079346 Q 633.754395 54.749023 633.034668 54.749023 Q 632.556641 54.749023 632.046387 54.856445 Q 631.536133 54.963867 630.977539 55.178711 L 630.977539 54.179688 Q 631.627441 54.007812 632.135010 53.921875 Q 632.642578 53.835938 633.034668 53.835938 Q 634.205566 53.835938 634.906494 54.424072 Q 635.607422 55.012207 635.607422 55.984375 Q 635.607422 56.645020 635.239502 57.085449 Q 634.871582 57.525879 634.167969 57.708496 Z " fill="rgb(0, 0, 0)" fill-opacity="1.000000" />
<path d="M 638.981934 57.955566 L 638.981934 61.108398 L 640.265625 61.108398 Q 641.210938 61.108398 641.613770 60.778076 Q 642.016602 60.447754 642.016602 59.690430 Q 642.016602 58.691406 641.592285 58.323486 Q 641.167969 57.955566 640.265625 57.955566 Z M 638.981934 54.872559 L 638.981934 57.074707 L 640.244141 57.074707 Q 641.028320 57.074707 641.380127 56.773926 Q 641.731934 56.473145 641.731934 56.016602 Q 641.731934 55.409668 641.385498 55.141113 Q 641.039062 54.872559 640.244141 54.872559 Z M 637.891602 53.980957 L 640.265625 53.980957 Q 641.495605 53.980957 642.161621 54.512695 Q 642.827637 55.044434 642.827637 56.016602 Q 642.827637 56.537598 642.475830 56.961914 Q 642.124023 57.386230 641.420410 57.493652 Q 642.209961 57.611816 642.658447 58.167725 Q 643.106934 58.723633 643.106934 59.797852 Q 643.106934 60.888184 642.392578 61.444092 Q 641.678223 62.000000 640.265625 62.000000 L 637.891602 62.000000 Z " fill="rgb(0, 0, 0)" fill-opacity="1.000000" />
<path d="M 644.252441 53.980957 L 650.370117 53.980957 L 650.370117 54.894043 L 647.861816 54.894043 L 647.861816 62.000000 L 646.771484 62.000000 L 646.771484 54.894043 L 644.252441 54.894043 Z " fill="rgb(0, 0, 0)" fill-opacity="1.000000" />
<path d="M 656.763184 61.715332 Q 656.349609 61.935547 655.914551 62.045654 Q 655.479492 62.155762 654.990723 62.155762 Q 653.449219 62.155762 652.597900 61.065430 Q 651.746582 59.975098 651.746582 57.998535 Q 651.746582 56.032715 652.603271 54.934326 Q 653.459961 53.835938 654.990723 53.835938 Q 655.479492 53.835938 655.914551 53.946045 Q 656.349609 54.056152 656.763184 54.276367 L 656.763184 55.388184 Q 656.365723 55.060547 655.909180 54.888672 Q 655.452637 54.716797 654.990723 54.716797 Q 653.932617 54.716797 653.406250 55.533203 Q 652.879883 56.349609 652.879883 57.998535 Q 652.879883 59.642090 653.406250 60.458496 Q 653.932617 61.274902 654.990723 61.274902 Q 655.463379 61.274902 655.917236 61.103027 Q 656.371094 60.931152 656.763184 60.603516 Z " fill="rgb(0, 0, 0)" fill-opacity="1.000000" />
<path d="M 31.861816 46.824707 Q 31.861816 47.490723 32.106201 47.829102 Q 32.350586 48.167480 32.828613 48.167480 L 33.983398 48.167480 L 33.983398 49.000000 L 32.731934 49.000000 Q 31.845703 49.000000 31.359619 48.433350 Q 30.873535 47.866699 30.873535 46.824707 L 30.873535 41.383789 L 29.289062 41.383789 L 29.289062 40.610352 L 31.861816 40.610352 Z " fill="rgb(0, 0, 0)" fill-opacity="1.000000" />
<path d="M 36.697266 43.005859 L 39.227051 43.005859 L 39.227051 48.231934 L 41.187500 48.231934 L 41.187500 49.000000 L 36.278320 49.000000 L 36.278320 48.231934 L 38.238770 48.231934 L 38.238770 43.773926 L 36.697266 43.773926 Z M 38.238770 40.669434 L 39.227051 40.669434 L 39.227051 41.915527 L 38.238770 41.915527 Z " fill="rgb(0, 0, 0)" fill-opacity="1.000000" />
<path d="M 47.698730 48.693848 Q 47.301270 48.924805 46.879639 49.040283 Q 46.458008 49.155762 46.017578 49.155762 Q 44.621094 49.155762 43.834229 48.317871 Q 43.047363 47.479980 43.047363 45.997559 Q 43.047363 44.515137 43.834229 43.677246 Q 44.621094 42.839355 46.017578 42.839355 Q 46.452637 42.839355 46.866211 42.952148 Q 47.279785 43.064941 47.698730 43.301270 L 47.698730 44.337891 Q 47.306641 43.988770 46.911865 43.833008 Q 46.517090 43.677246 46.017578 43.677246 Q 45.088379 43.677246 44.588867 44.278809 Q 44.089355 44.880371 44.089355 45.997559 Q 44.089355 47.109375 44.591553 47.713623 Q 45.093750 48.317871 46.017578 48.317871 Q 46.533203 48.317871 46.941406 48.159424 Q 47.349609 48.000977 47.698730 47.667969 Z " fill="rgb(0, 0, 0)" fill-opacity="1.000000" />
<path d="M 55.015625 45.498047 L 55.015625 45.981445 L 50.734863 45.981445 L 50.734863 46.013672 Q 50.691895 47.243652 51.204834 47.780762 Q 51.717773 48.317871 52.652344 48.317871 Q 53.125000 48.317871 53.640625 48.167480 Q 54.156250 48.017090 54.741699 47.710938 L 54.741699 48.693848 Q 54.177734 48.924805 53.654053 49.040283 Q 53.130371 49.155762 52.641602 49.155762 Q 51.239746 49.155762 50.450195 48.315186 Q 49.660645 47.474609 49.660645 45.997559 Q 49.660645 44.558105 50.434082 43.698730 Q 51.207520 42.839355 52.496582 42.839355 Q 53.645996 42.839355 54.309326 43.618164 Q 54.972656 44.396973 55.015625 45.498047 Z M 54.027344 45.208008 Q 53.962891 44.584961 53.573486 44.131104 Q 53.184082 43.677246 52.453613 43.677246 Q 51.739258 43.677246 51.277344 44.149902 Q 50.815430 44.622559 50.772461 45.213379 Z " fill="rgb(0, 0, 0)" fill-opacity="1.000000" />
<path d="M 58.304199 42.989746 L 59.979980 42.989746 L 59.979980 44.928711 L 58.304199 44.928711 Z M 58.304199 47.044922 L 59.979980 47.044922 L 59.979980 49.000000 L 58.304199 49.000000 Z " fill="rgb(0, 0, 0)" fill-opacity="1.000000" />
<path d="M 86.003418 48.086914 L 89.687988 48.086914 L 89.687988 49.000000 L 84.816406 49.000000 L 84.816406 48.086914 Q 85.820801 47.028809 86.572754 46.217773 Q 87.324707 45.406738 87.609375 45.073730 Q 88.146484 44.418457 88.334473 44.012939 Q 88.522461 43.607422 88.522461 43.183105 Q 88.522461 42.511719 88.127686 42.130371 Q 87.732910 41.749023 87.045410 41.749023 Q 86.556641 41.749023 86.019531 41.926270 Q 85.482422 42.103516 84.880859 42.463379 L 84.880859 41.367676 Q 85.434082 41.104492 85.968506 40.970215 Q 86.502930 40.835938 87.023926 40.835938 Q 88.200195 40.835938 88.917236 41.461670 Q 89.634277 42.087402 89.634277 43.102539 Q 89.634277 43.618164 89.395264 44.133789 Q 89.156250 44.649414 88.619141 45.272461 Q 88.318359 45.621582 87.746338 46.239258 Q 87.174316 46.856934 86.003418 48.086914 Z " fill="rgb(0, 0, 0)" fill-opacity="1.000000" />
<path d="M 92.058105 40.980957 L 96.816895 40.980957 L 96.816895 41.894043 L 93.143066 41.894043 L 93.143066 44.053223 L 96.655762 44.053223 L 96.655762 44.966309 L 93.143066 44.966309 L 93.143066 48.086914 L 96.918945 48.086914 L 96.918945 49.000000 L 92.058105 49.000000 Z " fill="rgb(0, 0, 0)" fill-opacity="1.000000" />
<path d="M 98.252441 40.980957 L 104.370117 40.980957 L 104.370117 41.894043 L 101.861816 41.894043 L 101.861816 49.000000 L 100.771484 49.000000 L 100.771484 41.894043 L 98.252441 41.894043 Z " fill="rgb(0, 0, 0)" fill-opacity="1.000000" />
<path d="M 105.735840 40.980957 L 106.826172 40.980957 L 106.826172 44.053223 L 109.796387 44.053223 L 109.796387 40.980957 L 110.886719 40.980957 L 110.886719 49.000000 L 109.796387 49.000000 L 109.796387 44.966309 L 106.826172 44.966309 L 106.826172 49.000000 L 105.735840 49.000000 Z " fill="rgb(0, 0, 0)" fill-opacity="1.000000" />
<path d="M 146.892578 46.335938 L 146.892578 45.412109 L 153.729980 45.412109 L 153.729980 46.335938 Z " fill="rgb(0, 0, 0)" fill-opacity="1.000000" />
<path d="M 153.892578 46.335938 L 153.892578 45.412109 L 160.729980 45.412109 L 160.729980 46.335938 Z " fill="rgb(0, 0, 0)" fill-opacity="1.000000" />
<path d="M 160.892578 46.335938 L 160.892578 45.412109 L 167.729980 45.412109 L 167.729980 46.335938 Z " fill="rgb(0, 0, 0)" fill-opacity="1.000000" />
<path d="M 167.892578 46.335938 L 167.892578 45.412109 L 174.729980 45.412109 L 174.729980 46.335938 Z " fill="rgb(0, 0, 0)" fill-opacity="1.000000" />
<path d="M 175.032227 49.418945 L 175.032227 42.866211 L 181.590332 46.142578 Z " fill="rgb(0, 0, 0)" fill-opacity="1.000000" />
<path d="M 227.297852 41.276367 L 227.297852 42.984375 L 229.542969 42.984375 L 229.542969 43.752441 L 227.297852 43.752441 L 227.297852 47.018066 Q 227.297852 47.684082 227.550293 47.947266 Q 227.802734 48.210449 228.431152 48.210449 L 229.542969 48.210449 L 229.542969 49.000000 L 228.334473 49.000000 Q 227.222656 49.000000 226.766113 48.554199 Q 226.309570 48.108398 226.309570 47.018066 L 226.309570 43.752441 L 224.703613 43.752441 L 224.703613 42.984375 L 226.309570 42.984375 L 226.309570 41.276367 Z " fill="rgb(0, 0, 0)" fill-opacity="1.000000" />
<path d="M 237.004883 42.984375 L 234.851074 45.863281 L 237.214355 49.000000 L 236.070312 49.000000 L 234.308594 46.588379 L 232.552246 49.000000 L 231.408203 49.000000 L 233.771484 45.863281 L 231.617676 42.984375 L 232.713379 42.984375 L 234.308594 45.159668 L 235.893066 42.984375 Z " fill="rgb(0, 0, 0)" fill-opacity="1.000000" />
<path d="M 240.003418 48.086914 L 243.687988 48.086914 L 243.687988 49.000000 L 238.816406 49.000000 L 238.816406 48.086914 Q 239.820801 47.028809 240.572754 46.217773 Q 241.324707 45.406738 241.609375 45.073730 Q 242.146484 44.418457 242.334473 44.012939 Q 242.522461 43.607422 242.522461 43.183105 Q 242.522461 42.511719 242.127686 42.130371 Q 241.732910 41.749023 241.045410 41.749023 Q 240.556641 41.749023 240.019531 41.926270 Q 239.482422 42.103516 238.880859 42.463379 L 238.880859 41.367676 Q 239.434082 41.104492 239.968506 40.970215 Q 240.502930 40.835938 241.023926 40.835938 Q 242.200195 40.835938 242.917236 41.461670 Q 243.634277 42.087402 243.634277 43.102539 Q 243.634277 43.618164 243.395264 44.133789 Q 243.156250 44.649414 242.619141 45.272461 Q 242.318359 45.621582 241.746338 46.239258 Q 241.174316 46.856934 240.003418 48.086914 Z " fill="rgb(0, 0, 0)" fill-opacity="1.000000" />
<path d="M 247.304199 42.989746 L 248.979980 42.989746 L 248.979980 44.928711 L 247.304199 44.928711 Z M 247.304199 47.044922 L 248.979980 47.044922 L 248.979980 49.000000 L 247.304199 49.000000 Z " fill="rgb(0, 0, 0)" fill-opacity="1.000000" />
<path d="M 262.297852 41.276367 L 262.297852 42.984375 L 264.542969 42.984375 L 264.542969 43.752441 L 262.297852 43.752441 L 262.297852 47.018066 Q 262.297852 47.684082 262.550293 47.947266 Q 262.802734 48.210449 263.431152 48.210449 L 264.542969 48.210449 L 264.542969 49.000000 L 263.334473 49.000000 Q 262.222656 49.000000 261.766113 48.554199 Q 261.309570 48.108398 261.309570 47.018066 L 261.309570 43.752441 L 259.703613 43.752441 L 259.703613 42.984375 L 261.309570 42.984375 L 261.309570 41.276367 Z " fill="rgb(0, 0, 0)" fill-opacity="1.000000" />
<path d="M 272.203613 44.225098 Q 271.886719 43.978027 271.559082 43.865234 Q 271.231445 43.752441 270.839355 43.752441 Q 269.915527 43.752441 269.426758 44.332520 Q 268.937988 44.912598 268.937988 46.008301 L 268.937988 49.000000 L 267.944336 49.000000 L 267.944336 42.984375 L 268.937988 42.984375 L 268.937988 44.160645 Q 269.185059 43.521484 269.697998 43.180420 Q 270.210938 42.839355 270.914551 42.839355 Q 271.279785 42.839355 271.596680 42.930664 Q 271.913574 43.021973 272.203613 43.215332 Z " fill="rgb(0, 0, 0)" fill-opacity="1.000000" />
<path d="M 276.770508 45.976074 L 276.442871 45.976074 Q 275.578125 45.976074 275.140381 46.279541 Q 274.702637 46.583008 274.702637 47.184570 Q 274.702637 47.727051 275.030273 48.027832 Q 275.357910 48.328613 275.937988 48.328613 Q 276.754395 48.328613 277.221680 47.761963 Q 277.688965 47.195312 277.694336 46.196289 L 277.694336 45.976074 Z M 278.687988 45.567871 L 278.687988 49.000000 L 277.694336 49.000000 L 277.694336 48.108398 Q 277.377441 48.645508 276.896729 48.900635 Q 276.416016 49.155762 275.728516 49.155762 Q 274.810059 49.155762 274.262207 48.637451 Q 273.714355 48.119141 273.714355 47.249023 Q 273.714355 46.244629 274.388428 45.723633 Q 275.062500 45.202637 276.367676 45.202637 L 277.694336 45.202637 L 277.694336 45.046875 Q 277.688965 44.327148 277.329102 44.002197 Q 276.969238 43.677246 276.179688 43.677246 Q 275.674805 43.677246 275.159180 43.822266 Q 274.643555 43.967285 274.154785 44.246582 L 274.154785 43.258301 Q 274.702637 43.048828 275.204834 42.944092 Q 275.707031 42.839355 276.179688 42.839355 Q 276.926270 42.839355 277.455322 43.059570 Q 277.984375 43.279785 278.312012 43.720215 Q 278.516113 43.988770 278.602051 44.383545 Q 278.687988 44.778320 278.687988 45.567871 Z " fill="rgb(0, 0, 0)" fill-opacity="1.000000" />
<path d="M 285.645020 45.272461 L 285.645020 49.000000 L 284.651367 49.000000 L 284.651367 45.272461 Q 284.651367 44.461426 284.366699 44.080078 Q 284.082031 43.698730 283.475098 43.698730 Q 282.782227 43.698730 282.408936 44.190186 Q 282.035645 44.681641 282.035645 45.600098 L 282.035645 49.000000 L 281.047363 49.000000 L 281.047363 42.984375 L 282.035645 42.984375 L 282.035645 43.886719 Q 282.298828 43.371094 282.750000 43.105225 Q 283.201172 42.839355 283.818848 42.839355 Q 284.737305 42.839355 285.191162 43.443604 Q 285.645020 44.047852 285.645020 45.272461 Z " fill="rgb(0, 0, 0)" fill-opacity="1.000000" />
<path d="M 292.226074 43.193848 L 292.226074 44.160645 Q 291.801758 43.913574 291.372070 43.790039 Q 290.942383 43.666504 290.496582 43.666504 Q 289.825195 43.666504 289.494873 43.884033 Q 289.164551 44.101562 289.164551 44.547363 Q 289.164551 44.950195 289.411621 45.148926 Q 289.658691 45.347656 290.641602 45.535645 L 291.039062 45.610840 Q 291.774902 45.750488 292.153564 46.169434 Q 292.532227 46.588379 292.532227 47.259766 Q 292.532227 48.151367 291.898438 48.653564 Q 291.264648 49.155762 290.136719 49.155762 Q 289.690918 49.155762 289.202148 49.061768 Q 288.713379 48.967773 288.144043 48.779785 L 288.144043 47.759277 Q 288.697266 48.043945 289.202148 48.186279 Q 289.707031 48.328613 290.158203 48.328613 Q 290.813477 48.328613 291.173340 48.062744 Q 291.533203 47.796875 291.533203 47.318848 Q 291.533203 46.631348 290.217285 46.368164 L 290.174316 46.357422 L 289.803711 46.282227 Q 288.949707 46.115723 288.557617 45.720947 Q 288.165527 45.326172 288.165527 44.644043 Q 288.165527 43.779297 288.750977 43.309326 Q 289.336426 42.839355 290.421387 42.839355 Q 290.904785 42.839355 291.350586 42.927979 Q 291.796387 43.016602 292.226074 43.193848 Z " fill="rgb(0, 0, 0)" fill-opacity="1.000000" />
<path d="M 299.709473 40.642578 L 299.709473 41.464355 L 298.586914 41.464355 Q 298.055176 41.464355 297.848389 41.681885 Q 297.641602 41.899414 297.641602 42.452637 L 297.641602 42.984375 L 299.709473 42.984375 L 299.709473 43.752441 L 297.641602 43.752441 L 297.641602 49.000000 L 296.653320 49.000000 L 296.653320 43.752441 L 295.047363 43.752441 L 295.047363 42.984375 L 296.653320 42.984375 L 296.653320 42.565430 Q 296.653320 41.577148 297.107178 41.109863 Q 297.561035 40.642578 298.522461 40.642578 Z " fill="rgb(0, 0, 0)" fill-opacity="1.000000" />
<path d="M 307.015625 45.498047 L 307.015625 45.981445 L 302.734863 45.981445 L 302.734863 46.013672 Q 302.691895 47.243652 303.204834 47.780762 Q 303.717773 48.317871 304.652344 48.317871 Q 305.125000 48.317871 305.640625 48.167480 Q 306.156250 48.017090 306.741699 47.710938 L 306.741699 48.693848 Q 306.177734 48.924805 305.654053 49.040283 Q 305.130371 49.155762 304.641602 49.155762 Q 303.239746 49.155762 302.450195 48.315186 Q 301.660645 47.474609 301.660645 45.997559 Q 301.660645 44.558105 302.434082 43.698730 Q 303.207520 42.839355 304.496582 42.839355 Q 305.645996 42.839355 306.309326 43.618164 Q 306.972656 44.396973 307.015625 45.498047 Z M 306.027344 45.208008 Q 305.962891 44.584961 305.573486 44.131104 Q 305.184082 43.677246 304.453613 43.677246 Q 303.739258 43.677246 303.277344 44.149902 Q 302.815430 44.622559 302.772461 45.213379 Z " fill="rgb(0, 0, 0)" fill-opacity="1.000000" />
<path d="M 314.203613 44.225098 Q 313.886719 43.978027 313.559082 43.865234 Q 313.231445 43.752441 312.839355 43.752441 Q 311.915527 43.752441 311.426758 44.332520 Q 310.937988 44.912598 310.937988 46.008301 L 310.937988 49.000000 L 309.944336 49.000000 L 309.944336 42.984375 L 310.937988 42.984375 L 310.937988 44.160645 Q 311.185059 43.521484 311.697998 43.180420 Q 312.210938 42.839355 312.914551 42.839355 Q 313.279785 42.839355 313.596680 42.930664 Q 313.913574 43.021973 314.203613 43.215332 Z " fill="rgb(0, 0, 0)" fill-opacity="1.000000" />
<path d="M 319.592285 40.116211 Q 318.877930 41.340820 318.526123 42.557373 Q 318.174316 43.773926 318.174316 45.009277 Q 318.174316 46.239258 318.526123 47.458496 Q 318.877930 48.677734 319.592285 49.913086 L 318.732910 49.913086 Q 317.921875 48.634766 317.524414 47.423584 Q 317.126953 46.212402 317.126953 45.009277 Q 317.126953 43.811523 317.524414 42.597656 Q 317.921875 41.383789 318.732910 40.116211 Z " fill="rgb(0, 0, 0)" fill-opacity="1.000000" />
<path d="M 323.450195 48.092285 L 325.136719 48.092285 L 325.136719 42.033691 L 323.117188 43.005859 L 323.117188 41.963867 L 325.125977 41.007812 L 326.210938 41.007812 L 326.210938 48.092285 L 327.875977 48.092285 L 327.875977 49.000000 L 323.450195 49.000000 Z " fill="rgb(0, 0, 0)" fill-opacity="1.000000" />
<path d="M 330.981934 44.955566 L 330.981934 48.108398 L 332.265625 48.108398 Q 333.210938 48.108398 333.613770 47.778076 Q 334.016602 47.447754 334.016602 46.690430 Q 334.016602 45.691406 333.592285 45.323486 Q 333.167969 44.955566 332.265625 44.955566 Z M 330.981934 41.872559 L 330.981934 44.074707 L 332.244141 44.074707 Q 333.028320 44.074707 333.380127 43.773926 Q 333.731934 43.473145 333.731934 43.016602 Q 333.731934 42.409668 333.385498 42.141113 Q 333.039062 41.872559 332.244141 41.872559 Z M 329.891602 40.980957 L 332.265625 40.980957 Q 333.495605 40.980957 334.161621 41.512695 Q 334.827637 42.044434 334.827637 43.016602 Q 334.827637 43.537598 334.475830 43.961914 Q 334.124023 44.386230 333.420410 44.493652 Q 334.209961 44.611816 334.658447 45.167725 Q 335.106934 45.723633 335.106934 46.797852 Q 335.106934 47.888184 334.392578 48.444092 Q 333.678223 49.000000 332.265625 49.000000 L 329.891602 49.000000 Z " fill="rgb(0, 0, 0)" fill-opacity="1.000000" />
<path d="M 336.252441 40.980957 L 342.370117 40.980957 L 342.370117 41.894043 L 339.861816 41.894043 L 339.861816 49.000000 L 338.771484 49.000000 L 338.771484 41.894043 L 336.252441 41.894043 Z " fill="rgb(0, 0, 0)" fill-opacity="1.000000" />
<path d="M 348.763184 48.715332 Q 348.349609 48.935547 347.914551 49.045654 Q 347.479492 49.155762 346.990723 49.155762 Q 345.449219 49.155762 344.597900 48.065430 Q 343.746582 46.975098 343.746582 44.998535 Q 343.746582 43.032715 344.603271 41.934326 Q 345.459961 40.835938 346.990723 40.835938 Q 347.479492 40.835938 347.914551 40.946045 Q 348.349609 41.056152 348.763184 41.276367 L 348.763184 42.388184 Q 348.365723 42.060547 347.909180 41.888672 Q 347.452637 41.716797 346.990723 41.716797 Q 345.932617 41.716797 345.406250 42.533203 Q 344.879883 43.349609 344.879883 44.998535 Q 344.879883 46.642090 345.406250 47.458496 Q 345.932617 48.274902 346.990723 48.274902 Q 347.463379 48.274902 347.917236 48.103027 Q 348.371094 47.931152 348.763184 47.603516 Z " fill="rgb(0, 0, 0)" fill-opacity="1.000000" />
<path d="M 362.763184 48.715332 Q 362.349609 48.935547 361.914551 49.045654 Q 361.479492 49.155762 360.990723 49.155762 Q 359.449219 49.155762 358.597900 48.065430 Q 357.746582 46.975098 357.746582 44.998535 Q 357.746582 43.032715 358.603271 41.934326 Q 359.459961 40.835938 360.990723 40.835938 Q 361.479492 40.835938 361.914551 40.946045 Q 362.349609 41.056152 362.763184 41.276367 L 362.763184 42.388184 Q 362.365723 42.060547 361.909180 41.888672 Q 361.452637 41.716797 360.990723 41.716797 Q 359.932617 41.716797 359.406250 42.533203 Q 358.879883 43.349609 358.879883 44.998535 Q 358.879883 46.642090 359.406250 47.458496 Q 359.932617 48.274902 360.990723 48.274902 Q 361.463379 48.274902 361.917236 48.103027 Q 362.371094 47.931152 362.763184 47.603516 Z " fill="rgb(0, 0, 0)" fill-opacity="1.000000" />
<path d="M 369.645020 45.272461 L 369.645020 49.000000 L 368.651367 49.000000 L 368.651367 45.272461 Q 368.651367 44.461426 368.366699 44.080078 Q 368.082031 43.698730 367.475098 43.698730 Q 366.782227 43.698730 366.408936 44.190186 Q 366.035645 44.681641 366.035645 45.600098 L 366.035645 49.000000 L 365.047363 49.000000 L 365.047363 40.642578 L 366.035645 40.642578 L 366.035645 43.886719 Q 366.298828 43.371094 366.750000 43.105225 Q 367.201172 42.839355 367.818848 42.839355 Q 368.737305 42.839355 369.191162 43.443604 Q 369.645020 44.047852 369.645020 45.272461 Z " fill="rgb(0, 0, 0)" fill-opacity="1.000000" />
<path d="M 374.770508 45.976074 L 374.442871 45.976074 Q 373.578125 45.976074 373.140381 46.279541 Q 372.702637 46.583008 372.702637 47.184570 Q 372.702637 47.727051 373.030273 48.027832 Q 373.357910 48.328613 373.937988 48.328613 Q 374.754395 48.328613 375.221680 47.761963 Q 375.688965 47.195312 375.694336 46.196289 L 375.694336 45.976074 Z M 376.687988 45.567871 L 376.687988 49.000000 L 375.694336 49.000000 L 375.694336 48.108398 Q 375.377441 48.645508 374.896729 48.900635 Q 374.416016 49.155762 373.728516 49.155762 Q 372.810059 49.155762 372.262207 48.637451 Q 371.714355 48.119141 371.714355 47.249023 Q 371.714355 46.244629 372.388428 45.723633 Q 373.062500 45.202637 374.367676 45.202637 L 375.694336 45.202637 L 375.694336 45.046875 Q 375.688965 44.327148 375.329102 44.002197 Q 374.969238 43.677246 374.179688 43.677246 Q 373.674805 43.677246 373.159180 43.822266 Q 372.643555 43.967285 372.154785 44.246582 L 372.154785 43.258301 Q 372.702637 43.048828 373.204834 42.944092 Q 373.707031 42.839355 374.179688 42.839355 Q 374.926270 42.839355 375.455322 43.059570 Q 375.984375 43.279785 376.312012 43.720215 Q 376.516113 43.988770 376.602051 44.383545 Q 376.687988 44.778320 376.687988 45.567871 Z " fill="rgb(0, 0, 0)" fill-opacity="1.000000" />
<path d="M 384.203613 44.225098 Q 383.886719 43.978027 383.559082 43.865234 Q 383.231445 43.752441 382.839355 43.752441 Q 381.915527 43.752441 381.426758 44.332520 Q 380.937988 44.912598 380.937988 46.008301 L 380.937988 49.000000 L 379.944336 49.000000 L 379.944336 42.984375 L 380.937988 42.984375 L 380.937988 44.160645 Q 381.185059 43.521484 381.697998 43.180420 Q 382.210938 42.839355 382.914551 42.839355 Q 383.279785 42.839355 383.596680 42.930664 Q 383.913574 43.021973 384.203613 43.215332 Z " fill="rgb(0, 0, 0)" fill-opacity="1.000000" />
<path d="M 388.861816 46.824707 Q 388.861816 47.490723 389.106201 47.829102 Q 389.350586 48.167480 389.828613 48.167480 L 390.983398 48.167480 L 390.983398 49.000000 L 389.731934 49.000000 Q 388.845703 49.000000 388.359619 48.433350 Q 387.873535 47.866699 387.873535 46.824707 L 387.873535 41.383789 L 386.289062 41.383789 L 386.289062 40.610352 L 388.861816 40.610352 Z " fill="rgb(0, 0, 0)" fill-opacity="1.000000" />
<path d="M 393.697266 43.005859 L 396.227051 43.005859 L 396.227051 48.231934 L 398.187500 48.231934 L 398.187500 49.000000 L 393.278320 49.000000 L 393.278320 48.231934 L 395.238770 48.231934 L 395.238770 43.773926 L 393.697266 43.773926 Z M 395.238770 40.669434 L 396.227051 40.669434 L 396.227051 41.915527 L 395.238770 41.915527 Z " fill="rgb(0, 0, 0)" fill-opacity="1.000000" />
<path d="M 405.015625 45.498047 L 405.015625 45.981445 L 400.734863 45.981445 L 400.734863 46.013672 Q 400.691895 47.243652 401.204834 47.780762 Q 401.717773 48.317871 402.652344 48.317871 Q 403.125000 48.317871 403.640625 48.167480 Q 404.156250 48.017090 404.741699 47.710938 L 404.741699 48.693848 Q 404.177734 48.924805 403.654053 49.040283 Q 403.130371 49.155762 402.641602 49.155762 Q 401.239746 49.155762 400.450195 48.315186 Q 399.660645 47.474609 399.660645 45.997559 Q 399.660645 44.558105 400.434082 43.698730 Q 401.207520 42.839355 402.496582 42.839355 Q 403.645996 42.839355 404.309326 43.618164 Q 404.972656 44.396973 405.015625 45.498047 Z M 404.027344 45.208008 Q 403.962891 44.584961 403.573486 44.131104 Q 403.184082 43.677246 402.453613 43.677246 Q 401.739258 43.677246 401.277344 44.149902 Q 400.815430 44.622559 400.772461 45.213379 Z " fill="rgb(0, 0, 0)" fill-opacity="1.000000" />
<path d="M 413.547852 45.111328 L 419.241211 45.111328 L 419.241211 46.019043 L 413.547852 46.019043 Z " fill="rgb(0, 0, 0)" fill-opacity="1.000000" />
<path d="M 420.472656 43.838379 L 420.472656 42.860840 L 426.149902 45.105957 L 426.149902 45.997559 L 420.472656 48.242676 L 420.472656 47.259766 L 425.038086 45.557129 Z " fill="rgb(0, 0, 0)" fill-opacity="1.000000" />
<path d="M 435.981934 44.955566 L 435.981934 48.108398 L 437.265625 48.108398 Q 438.210938 48.108398 438.613770 47.778076 Q 439.016602 47.447754 439.016602 46.690430 Q 439.016602 45.691406 438.592285 45.323486 Q 438.167969 44.955566 437.265625 44.955566 Z M 435.981934 41.872559 L 435.981934 44.074707 L 437.244141 44.074707 Q 438.028320 44.074707 438.380127 43.773926 Q 438.731934 43.473145 438.731934 43.016602 Q 438.731934 42.409668 438.385498 42.141113 Q 438.039062 41.872559 437.244141 41.872559 Z M 434.891602 40.980957 L 437.265625 40.980957 Q 438.495605 40.980957 439.161621 41.512695 Q 439.827637 42.044434 439.827637 43.016602 Q 439.827637 43.537598 439.475830 43.961914 Q 439.124023 44.386230 438.420410 44.493652 Q 439.209961 44.611816 439.658447 45.167725 Q 440.106934 45.723633 440.106934 46.797852 Q 440.106934 47.888184 439.392578 48.444092 Q 438.678223 49.000000 437.265625 49.000000 L 434.891602 49.000000 Z " fill="rgb(0, 0, 0)" fill-opacity="1.000000" />
<path d="M 445.860840 44.998535 Q 445.860840 43.231445 445.498291 42.474121 Q 445.135742 41.716797 444.308594 41.716797 Q 443.486816 41.716797 443.124268 42.474121 Q 442.761719 43.231445 442.761719 44.998535 Q 442.761719 46.760254 443.124268 47.517578 Q 443.486816 48.274902 444.308594 48.274902 Q 445.135742 48.274902 445.498291 47.520264 Q 445.860840 46.765625 445.860840 44.998535 Z M 446.994141 44.998535 Q 446.994141 47.093262 446.330811 48.124512 Q 445.667480 49.155762 444.308594 49.155762 Q 442.949707 49.155762 442.289062 48.129883 Q 441.628418 47.104004 441.628418 44.998535 Q 441.628418 42.898438 442.291748 41.867188 Q 442.955078 40.835938 444.308594 40.835938 Q 445.667480 40.835938 446.330811 41.867188 Q 446.994141 42.898438 446.994141 44.998535 Z " fill="rgb(0, 0, 0)" fill-opacity="1.000000" />
<path d="M 449.981934 44.955566 L 449.981934 48.108398 L 451.265625 48.108398 Q 452.210938 48.108398 452.613770 47.778076 Q 453.016602 47.447754 453.016602 46.690430 Q 453.016602 45.691406 452.592285 45.323486 Q 452.167969 44.955566 451.265625 44.955566 Z M 449.981934 41.872559 L 449.981934 44.074707 L 451.244141 44.074707 Q 452.028320 44.074707 452.380127 43.773926 Q 452.731934 43.473145 452.731934 43.016602 Q 452.731934 42.409668 452.385498 42.141113 Q 452.039062 41.872559 451.244141 41.872559 Z M 448.891602 40.980957 L 451.265625 40.980957 Q 452.495605 40.980957 453.161621 41.512695 Q 453.827637 42.044434 453.827637 43.016602 Q 453.827637 43.537598 453.475830 43.961914 Q 453.124023 44.386230 452.420410 44.493652 Q 453.209961 44.611816 453.658447 45.167725 Q 454.106934 45.723633 454.106934 46.797852 Q 454.106934 47.888184 453.392578 48.444092 Q 452.678223 49.000000 451.265625 49.000000 L 448.891602 49.000000 Z " fill="rgb(0, 0, 0)" fill-opacity="1.000000" />
<path d="M 456.869141 40.116211 L 457.728516 40.116211 Q 458.539551 41.383789 458.937012 42.597656 Q 459.334473 43.811523 459.334473 45.009277 Q 459.334473 46.217773 458.937012 47.431641 Q 458.539551 48.645508 457.728516 49.913086 L 456.869141 49.913086 Q 457.583496 48.666992 457.935303 47.447754 Q 458.287109 46.228516 458.287109 45.009277 Q 458.287109 43.784668 457.935303 42.565430 Q 457.583496 41.346191 456.869141 40.116211 Z " fill="rgb(0, 0, 0)" fill-opacity="1.000000" />
<path d="M 464.374023 47.061035 L 466.049805 47.061035 L 466.049805 48.484375 L 464.857422 50.799316 L 463.783203 50.804688 L 464.374023 48.484375 Z " fill="rgb(0, 0, 0)" fill-opacity="1.000000" />
<path d="M 577.308594 41.937012 L 576.164551 46.040527 L 578.452637 46.040527 Z M 576.653320 40.980957 L 577.969238 40.980957 L 580.423828 49.000000 L 579.301270 49.000000 L 578.710449 46.910645 L 575.901367 46.910645 L 575.321289 49.000000 L 574.198730 49.000000 Z " fill="rgb(0, 0, 0)" fill-opacity="1.000000" />
<path d="M 584.861816 46.824707 Q 584.861816 47.490723 585.106201 47.829102 Q 585.350586 48.167480 585.828613 48.167480 L 586.983398 48.167480 L 586.983398 49.000000 L 585.731934 49.000000 Q 584.845703 49.000000 584.359619 48.433350 Q 583.873535 47.866699 583.873535 46.824707 L 583.873535 41.383789 L 582.289062 41.383789 L 582.289062 40.610352 L 584.861816 40.610352 Z " fill="rgb(0, 0, 0)" fill-opacity="1.000000" />
<path d="M 589.697266 43.005859 L 592.227051 43.005859 L 592.227051 48.231934 L 594.187500 48.231934 L 594.187500 49.000000 L 589.278320 49.000000 L 589.278320 48.231934 L 591.238770 48.231934 L 591.238770 43.773926 L 589.697266 43.773926 Z M 591.238770 40.669434 L 592.227051 40.669434 L 592.227051 41.915527 L 591.238770 41.915527 Z " fill="rgb(0, 0, 0)" fill-opacity="1.000000" />
<path d="M 600.698730 48.693848 Q 600.301270 48.924805 599.879639 49.040283 Q 599.458008 49.155762 599.017578 49.155762 Q 597.621094 49.155762 596.834229 48.317871 Q 596.047363 47.479980 596.047363 45.997559 Q 596.047363 44.515137 596.834229 43.677246 Q 597.621094 42.839355 599.017578 42.839355 Q 599.452637 42.839355 599.866211 42.952148 Q 600.279785 43.064941 600.698730 43.301270 L 600.698730 44.337891 Q 600.306641 43.988770 599.911865 43.833008 Q 599.517090 43.677246 599.017578 43.677246 Q 598.088379 43.677246 597.588867 44.278809 Q 597.089355 44.880371 597.089355 45.997559 Q 597.089355 47.109375 597.591553 47.713623 Q 598.093750 48.317871 599.017578 48.317871 Q 599.533203 48.317871 599.941406 48.159424 Q 600.349609 48.000977 600.698730 47.667969 Z " fill="rgb(0, 0, 0)" fill-opacity="1.000000" />
<path d="M 608.015625 45.498047 L 608.015625 45.981445 L 603.734863 45.981445 L 603.734863 46.013672 Q 603.691895 47.243652 604.204834 47.780762 Q 604.717773 48.317871 605.652344 48.317871 Q 606.125000 48.317871 606.640625 48.167480 Q 607.156250 48.017090 607.741699 47.710938 L 607.741699 48.693848 Q 607.177734 48.924805 606.654053 49.040283 Q 606.130371 49.155762 605.641602 49.155762 Q 604.239746 49.155762 603.450195 48.315186 Q 602.660645 47.474609 602.660645 45.997559 Q 602.660645 44.558105 603.434082 43.698730 Q 604.207520 42.839355 605.496582 42.839355 Q 606.645996 42.839355 607.309326 43.618164 Q 607.972656 44.396973 608.015625 45.498047 Z M 607.027344 45.208008 Q 606.962891 44.584961 606.573486 44.131104 Q 606.184082 43.677246 605.453613 43.677246 Q 604.739258 43.677246 604.277344 44.149902 Q 603.815430 44.622559 603.772461 45.213379 Z " fill="rgb(0, 0, 0)" fill-opacity="1.000000" />
<path d="M 611.304199 42.989746 L 612.979980 42.989746 L 612.979980 44.928711 L 611.304199 44.928711 Z M 611.304199 47.044922 L 612.979980 47.044922 L 612.979980 49.000000 L 611.304199 49.000000 Z " fill="rgb(0, 0, 0)" fill-opacity="1.000000" />
<path d="M 631.450195 48.092285 L 633.136719 48.092285 L 633.136719 42.033691 L 631.117188 43.005859 L 631.117188 41.963867 L 633.125977 41.007812 L 634.210938 41.007812 L 634.210938 48.092285 L 635.875977 48.092285 L 635.875977 49.000000 L 631.450195 49.000000 Z " fill="rgb(0, 0, 0)" fill-opacity="1.000000" />
<path d="M 638.981934 44.955566 L 638.981934 48.108398 L 640.265625 48.108398 Q 641.210938 48.108398 641.613770 47.778076 Q 642.016602 47.447754 642.016602 46.690430 Q 642.016602 45.691406 641.592285 45.323486 Q 641.167969 44.955566 640.265625 44.955566 Z M 638.981934 41.872559 L 638.981934 44.074707 L 640.244141 44.074707 Q 641.028320 44.074707 641.380127 43.773926 Q 641.731934 43.473145 641.731934 43.016602 Q 641.731934 42.409668 641.385498 42.141113 Q 641.039062 41.872559 640.244141 41.872559 Z M 637.891602 40.980957 L 640.265625 40.980957 Q 641.495605 40.980957 642.161621 41.512695 Q 642.827637 42.044434 642.827637 43.016602 Q 642.827637 43.537598 642.475830 43.961914 Q 642.124023 44.386230 641.420410 44.493652 Q 642.209961 44.611816 642.658447 45.167725 Q 643.106934 45.723633 643.106934 46.797852 Q 643.106934 47.888184 642.392578 48.444092 Q 641.678223 49.000000 640.265625 49.000000 L 637.891602 49.000000 Z " fill="rgb(0, 0, 0)" fill-opacity="1.000000" />
<path d="M 644.252441 40.980957 L 650.370117 40.980957 L 650.370117 41.894043 L 647.861816 41.894043 L 647.861816 49.000000 L 646.771484 49.000000 L 646.771484 41.894043 L 644.252441 41.894043 Z " fill="rgb(0, 0, 0)" fill-opacity="1.000000" />
<path d="M 656.763184 48.715332 Q 656.349609 48.935547 655.914551 49.045654 Q 655.479492 49.155762 654.990723 49.155762 Q 653.449219 49.155762 652.597900 48.065430 Q 651.746582 46.975098 651.746582 44.998535 Q 651.746582 43.032715 652.603271 41.934326 Q 653.459961 40.835938 654.990723 40.835938 Q 655.479492 40.835938 655.914551 40.946045 Q 656.349609 41.056152 656.763184 41.276367 L 656.763184 42.388184 Q 656.365723 42.060547 655.909180 41.888672 Q 655.452637 41.716797 654.990723 41.716797 Q 653.932617 41.716797 653.406250 42.533203 Q 652.879883 43.349609 652.879883 44.998535 Q 652.879883 46.642090 653.406250 47.458496 Q 653.932617 48.274902 654.990723 48.274902 Q 655.463379 48.274902 655.917236 48.103027 Q 656.371094 47.931152 656.763184 47.603516 Z " fill="rgb(0, 0, 0)" fill-opacity="1.000000" />
<path d="M 227.297852 28.276367 L 227.297852 29.984375 L 229.542969 29.984375 L 229.542969 30.752441 L 227.297852 30.752441 L 227.297852 34.018066 Q 227.297852 34.684082 227.550293 34.947266 Q 227.802734 35.210449 228.431152 35.210449 L 229.542969 35.210449 L 229.542969 36.000000 L 228.334473 36.000000 Q 227.222656 36.000000 226.766113 35.554199 Q 226.309570 35.108398 226.309570 34.018066 L 226.309570 30.752441 L 224.703613 30.752441 L 224.703613 29.984375 L 226.309570 29.984375 L 226.309570 28.276367 Z " fill="rgb(0, 0, 0)" fill-opacity="1.000000" />
<path d="M 237.004883 29.984375 L 234.851074 32.863281 L 237.214355 36.000000 L 236.070312 36.000000 L 234.308594 33.588379 L 232.552246 36.000000 L 231.408203 36.000000 L 233.771484 32.863281 L 231.617676 29.984375 L 232.713379 29.984375 L 234.308594 32.159668 L 235.893066 29.984375 Z " fill="rgb(0, 0, 0)" fill-opacity="1.000000" />
<path d="M 239.450195 35.092285 L 241.136719 35.092285 L 241.136719 29.033691 L 239.117188 30.005859 L 239.117188 28.963867 L 241.125977 28.007812 L 242.210938 28.007812 L 242.210938 35.092285 L 243.875977 35.092285 L 243.875977 36.000000 L 239.450195 36.000000 Z " fill="rgb(0, 0, 0)" fill-opacity="1.000000" />
<path d="M 247.304199 29.989746 L 248.979980 29.989746 L 248.979980 31.928711 L 247.304199 31.928711 Z M 247.304199 34.044922 L 248.979980 34.044922 L 248.979980 36.000000 L 247.304199 36.000000 Z " fill="rgb(0, 0, 0)" fill-opacity="1.000000" />
<path d="M 262.297852 28.276367 L 262.297852 29.984375 L 264.542969 29.984375 L 264.542969 30.752441 L 262.297852 30.752441 L 262.297852 34.018066 Q 262.297852 34.684082 262.550293 34.947266 Q 262.802734 35.210449 263.431152 35.210449 L 264.542969 35.210449 L 264.542969 36.000000 L 263.334473 36.000000 Q 262.222656 36.000000 261.766113 35.554199 Q 261.309570 35.108398 261.309570 34.018066 L 261.309570 30.752441 L 259.703613 30.752441 L 259.703613 29.984375 L 261.309570 29.984375 L 261.309570 28.276367 Z " fill="rgb(0, 0, 0)" fill-opacity="1.000000" />
<path d="M 272.203613 31.225098 Q 271.886719 30.978027 271.559082 30.865234 Q 271.231445 30.752441 270.839355 30.752441 Q 269.915527 30.752441 269.426758 31.332520 Q 268.937988 31.912598 268.937988 33.008301 L 268.937988 36.000000 L 267.944336 36.000000 L 267.944336 29.984375 L 268.937988 29.984375 L 268.937988 31.160645 Q 269.185059 30.521484 269.697998 30.180420 Q 270.210938 29.839355 270.914551 29.839355 Q 271.279785 29.839355 271.596680 29.930664 Q 271.913574 30.021973 272.203613 30.215332 Z " fill="rgb(0, 0, 0)" fill-opacity="1.000000" />
<path d="M 276.770508 32.976074 L 276.442871 32.976074 Q 275.578125 32.976074 275.140381 33.279541 Q 274.702637 33.583008 274.702637 34.184570 Q 274.702637 34.727051 275.030273 35.027832 Q 275.357910 35.328613 275.937988 35.328613 Q 276.754395 35.328613 277.221680 34.761963 Q 277.688965 34.195312 277.694336 33.196289 L 277.694336 32.976074 Z M 278.687988 32.567871 L 278.687988 36.000000 L 277.694336 36.000000 L 277.694336 35.108398 Q 277.377441 35.645508 276.896729 35.900635 Q 276.416016 36.155762 275.728516 36.155762 Q 274.810059 36.155762 274.262207 35.637451 Q 273.714355 35.119141 273.714355 34.249023 Q 273.714355 33.244629 274.388428 32.723633 Q 275.062500 32.202637 276.367676 32.202637 L 277.694336 32.202637 L 277.694336 32.046875 Q 277.688965 31.327148 277.329102 31.002197 Q 276.969238 30.677246 276.179688 30.677246 Q 275.674805 30.677246 275.159180 30.822266 Q 274.643555 30.967285 274.154785 31.246582 L 274.154785 30.258301 Q 274.702637 30.048828 275.204834 29.944092 Q 275.707031 29.839355 276.179688 29.839355 Q 276.926270 29.839355 277.455322 30.059570 Q 277.984375 30.279785 278.312012 30.720215 Q 278.516113 30.988770 278.602051 31.383545 Q 278.687988 31.778320 278.687988 32.567871 Z " fill="rgb(0, 0, 0)" fill-opacity="1.000000" />
<path d="M 285.645020 32.272461 L 285.645020 36.000000 L 284.651367 36.000000 L 284.651367 32.272461 Q 284.651367 31.461426 284.366699 31.080078 Q 284.082031 30.698730 283.475098 30.698730 Q 282.782227 30.698730 282.408936 31.190186 Q 282.035645 31.681641 282.035645 32.600098 L 282.035645 36.000000 L 281.047363 36.000000 L 281.047363 29.984375 L 282.035645 29.984375 L 282.035645 30.886719 Q 282.298828 30.371094 282.750000 30.105225 Q 283.201172 29.839355 283.818848 29.839355 Q 284.737305 29.839355 285.191162 30.443604 Q 285.645020 31.047852 285.645020 32.272461 Z " fill="rgb(0, 0, 0)" fill-opacity="1.000000" />
<path d="M 292.226074 30.193848 L 292.226074 31.160645 Q 291.801758 30.913574 291.372070 30.790039 Q 290.942383 30.666504 290.496582 30.666504 Q 289.825195 30.666504 289.494873 30.884033 Q 289.164551 31.101562 289.164551 31.547363 Q 289.164551 31.950195 289.411621 32.148926 Q 289.658691 32.347656 290.641602 32.535645 L 291.039062 32.610840 Q 291.774902 32.750488 292.153564 33.169434 Q 292.532227 33.588379 292.532227 34.259766 Q 292.532227 35.151367 291.898438 35.653564 Q 291.264648 36.155762 290.136719 36.155762 Q 289.690918 36.155762 289.202148 36.061768 Q 288.713379 35.967773 288.144043 35.779785 L 288.144043 34.759277 Q 288.697266 35.043945 289.202148 35.186279 Q 289.707031 35.328613 290.158203 35.328613 Q 290.813477 35.328613 291.173340 35.062744 Q 291.533203 34.796875 291.533203 34.318848 Q 291.533203 33.631348 290.217285 33.368164 L 290.174316 33.357422 L 289.803711 33.282227 Q 288.949707 33.115723 288.557617 32.720947 Q 288.165527 32.326172 288.165527 31.644043 Q 288.165527 30.779297 288.750977 30.309326 Q 289.336426 29.839355 290.421387 29.839355 Q 290.904785 29.839355 291.350586 29.927979 Q 291.796387 30.016602 292.226074 30.193848 Z " fill="rgb(0, 0, 0)" fill-opacity="1.000000" />
<path d="M 299.709473 27.642578 L 299.709473 28.464355 L 298.586914 28.464355 Q 298.055176 28.464355 297.848389 28.681885 Q 297.641602 28.899414 297.641602 29.452637 L 297.641602 29.984375 L 299.709473 29.984375 L 299.709473 30.752441 L 297.641602 30.752441 L 297.641602 36.000000 L 296.653320 36.000000 L 296.653320 30.752441 L 295.047363 30.752441 L 295.047363 29.984375 L 296.653320 29.984375 L 296.653320 29.565430 Q 296.653320 28.577148 297.107178 28.109863 Q 297.561035 27.642578 298.522461 27.642578 Z " fill="rgb(0, 0, 0)" fill-opacity="1.000000" />
<path d="M 307.015625 32.498047 L 307.015625 32.981445 L 302.734863 32.981445 L 302.734863 33.013672 Q 302.691895 34.243652 303.204834 34.780762 Q 303.717773 35.317871 304.652344 35.317871 Q 305.125000 35.317871 305.640625 35.167480 Q 306.156250 35.017090 306.741699 34.710938 L 306.741699 35.693848 Q 306.177734 35.924805 305.654053 36.040283 Q 305.130371 36.155762 304.641602 36.155762 Q 303.239746 36.155762 302.450195 35.315186 Q 301.660645 34.474609 301.660645 32.997559 Q 301.660645 31.558105 302.434082 30.698730 Q 303.207520 29.839355 304.496582 29.839355 Q 305.645996 29.839355 306.309326 30.618164 Q 306.972656 31.396973 307.015625 32.498047 Z M 306.027344 32.208008 Q 305.962891 31.584961 305.573486 31.131104 Q 305.184082 30.677246 304.453613 30.677246 Q 303.739258 30.677246 303.277344 31.149902 Q 302.815430 31.622559 302.772461 32.213379 Z " fill="rgb(0, 0, 0)" fill-opacity="1.000000" />
<path d="M 314.203613 31.225098 Q 313.886719 30.978027 313.559082 30.865234 Q 313.231445 30.752441 312.839355 30.752441 Q 311.915527 30.752441 311.426758 31.332520 Q 310.937988 31.912598 310.937988 33.008301 L 310.937988 36.000000 L 309.944336 36.000000 L 309.944336 29.984375 L 310.937988 29.984375 L 310.937988 31.160645 Q 311.185059 30.521484 311.697998 30.180420 Q 312.210938 29.839355 312.914551 29.839355 Q 313.279785 29.839355 313.596680 29.930664 Q 313.913574 30.021973 314.203613 30.215332 Z " fill="rgb(0, 0, 0)" fill-opacity="1.000000" />
<path d="M 319.592285 27.116211 Q 318.877930 28.340820 318.526123 29.557373 Q 318.174316 30.773926 318.174316 32.009277 Q 318.174316 33.239258 318.526123 34.458496 Q 318.877930 35.677734 319.592285 36.913086 L 318.732910 36.913086 Q 317.921875 35.634766 317.524414 34.423584 Q 317.126953 33.212402 317.126953 32.009277 Q 317.126953 30.811523 317.524414 29.597656 Q 317.921875 28.383789 318.732910 27.116211 Z " fill="rgb(0, 0, 0)" fill-opacity="1.000000" />
<path d="M 323.450195 35.092285 L 325.136719 35.092285 L 325.136719 29.033691 L 323.117188 30.005859 L 323.117188 28.963867 L 325.125977 28.007812 L 326.210938 28.007812 L 326.210938 35.092285 L 327.875977 35.092285 L 327.875977 36.000000 L 323.450195 36.000000 Z " fill="rgb(0, 0, 0)" fill-opacity="1.000000" />
<path d="M 330.981934 31.955566 L 330.981934 35.108398 L 332.265625 35.108398 Q 333.210938 35.108398 333.613770 34.778076 Q 334.016602 34.447754 334.016602 33.690430 Q 334.016602 32.691406 333.592285 32.323486 Q 333.167969 31.955566 332.265625 31.955566 Z M 330.981934 28.872559 L 330.981934 31.074707 L 332.244141 31.074707 Q 333.028320 31.074707 333.380127 30.773926 Q 333.731934 30.473145 333.731934 30.016602 Q 333.731934 29.409668 333.385498 29.141113 Q 333.039062 28.872559 332.244141 28.872559 Z M 329.891602 27.980957 L 332.265625 27.980957 Q 333.495605 27.980957 334.161621 28.512695 Q 334.827637 29.044434 334.827637 30.016602 Q 334.827637 30.537598 334.475830 30.961914 Q 334.124023 31.386230 333.420410 31.493652 Q 334.209961 31.611816 334.658447 32.167725 Q 335.106934 32.723633 335.106934 33.797852 Q 335.106934 34.888184 334.392578 35.444092 Q 333.678223 36.000000 332.265625 36.000000 L 329.891602 36.000000 Z " fill="rgb(0, 0, 0)" fill-opacity="1.000000" />
<path d="M 336.252441 27.980957 L 342.370117 27.980957 L 342.370117 28.894043 L 339.861816 28.894043 L 339.861816 36.000000 L 338.771484 36.000000 L 338.771484 28.894043 L 336.252441 28.894043 Z " fill="rgb(0, 0, 0)" fill-opacity="1.000000" />
<path d="M 348.763184 35.715332 Q 348.349609 35.935547 347.914551 36.045654 Q 347.479492 36.155762 346.990723 36.155762 Q 345.449219 36.155762 344.597900 35.065430 Q 343.746582 33.975098 343.746582 31.998535 Q 343.746582 30.032715 344.603271 28.934326 Q 345.459961 27.835938 346.990723 27.835938 Q 347.479492 27.835938 347.914551 27.946045 Q 348.349609 28.056152 348.763184 28.276367 L 348.763184 29.388184 Q 348.365723 29.060547 347.909180 28.888672 Q 347.452637 28.716797 346.990723 28.716797 Q 345.932617 28.716797 345.406250 29.533203 Q 344.879883 30.349609 344.879883 31.998535 Q 344.879883 33.642090 345.406250 34.458496 Q 345.932617 35.274902 346.990723 35.274902 Q 347.463379 35.274902 347.917236 35.103027 Q 348.371094 34.931152 348.763184 34.603516 Z " fill="rgb(0, 0, 0)" fill-opacity="1.000000" />
<path d="M 360.308594 28.937012 L 359.164551 33.040527 L 361.452637 33.040527 Z M 359.653320 27.980957 L 360.969238 27.980957 L 363.423828 36.000000 L 362.301270 36.000000 L 361.710449 33.910645 L 358.901367 33.910645 L 358.321289 36.000000 L 357.198730 36.000000 Z " fill="rgb(0, 0, 0)" fill-opacity="1.000000" />
<path d="M 367.861816 33.824707 Q 367.861816 34.490723 368.106201 34.829102 Q 368.350586 35.167480 368.828613 35.167480 L 369.983398 35.167480 L 369.983398 36.000000 L 368.731934 36.000000 Q 367.845703 36.000000 367.359619 35.433350 Q 366.873535 34.866699 366.873535 33.824707 L 366.873535 28.383789 L 365.289062 28.383789 L 365.289062 27.610352 L 367.861816 27.610352 Z " fill="rgb(0, 0, 0)" fill-opacity="1.000000" />
<path d="M 372.697266 30.005859 L 375.227051 30.005859 L 375.227051 35.231934 L 377.187500 35.231934 L 377.187500 36.000000 L 372.278320 36.000000 L 372.278320 35.231934 L 374.238770 35.231934 L 374.238770 30.773926 L 372.697266 30.773926 Z M 374.238770 27.669434 L 375.227051 27.669434 L 375.227051 28.915527 L 374.238770 28.915527 Z " fill="rgb(0, 0, 0)" fill-opacity="1.000000" />
<path d="M 383.698730 35.693848 Q 383.301270 35.924805 382.879639 36.040283 Q 382.458008 36.155762 382.017578 36.155762 Q 380.621094 36.155762 379.834229 35.317871 Q 379.047363 34.479980 379.047363 32.997559 Q 379.047363 31.515137 379.834229 30.677246 Q 380.621094 29.839355 382.017578 29.839355 Q 382.452637 29.839355 382.866211 29.952148 Q 383.279785 30.064941 383.698730 30.301270 L 383.698730 31.337891 Q 383.306641 30.988770 382.911865 30.833008 Q 382.517090 30.677246 382.017578 30.677246 Q 381.088379 30.677246 380.588867 31.278809 Q 380.089355 31.880371 380.089355 32.997559 Q 380.089355 34.109375 380.591553 34.713623 Q 381.093750 35.317871 382.017578 35.317871 Q 382.533203 35.317871 382.941406 35.159424 Q 383.349609 35.000977 383.698730 34.667969 Z " fill="rgb(0, 0, 0)" fill-opacity="1.000000" />
<path d="M 391.015625 32.498047 L 391.015625 32.981445 L 386.734863 32.981445 L 386.734863 33.013672 Q 386.691895 34.243652 387.204834 34.780762 Q 387.717773 35.317871 388.652344 35.317871 Q 389.125000 35.317871 389.640625 35.167480 Q 390.156250 35.017090 390.741699 34.710938 L 390.741699 35.693848 Q 390.177734 35.924805 389.654053 36.040283 Q 389.130371 36.155762 388.641602 36.155762 Q 387.239746 36.155762 386.450195 35.315186 Q 385.660645 34.474609 385.660645 32.997559 Q 385.660645 31.558105 386.434082 30.698730 Q 387.207520 29.839355 388.496582 29.839355 Q 389.645996 29.839355 390.309326 30.618164 Q 390.972656 31.396973 391.015625 32.498047 Z M 390.027344 32.208008 Q 389.962891 31.584961 389.573486 31.131104 Q 389.184082 30.677246 388.453613 30.677246 Q 387.739258 30.677246 387.277344 31.149902 Q 386.815430 31.622559 386.772461 32.213379 Z " fill="rgb(0, 0, 0)" fill-opacity="1.000000" />
<path d="M 399.547852 32.111328 L 405.241211 32.111328 L 405.241211 33.019043 L 399.547852 33.019043 Z " fill="rgb(0, 0, 0)" fill-opacity="1.000000" />
<path d="M 406.472656 30.838379 L 406.472656 29.860840 L 412.149902 32.105957 L 412.149902 32.997559 L 406.472656 35.242676 L 406.472656 34.259766 L 411.038086 32.557129 Z " fill="rgb(0, 0, 0)" fill-opacity="1.000000" />
<path d="M 421.981934 31.955566 L 421.981934 35.108398 L 423.265625 35.108398 Q 424.210938 35.108398 424.613770 34.778076 Q 425.016602 34.447754 425.016602 33.690430 Q 425.016602 32.691406 424.592285 32.323486 Q 424.167969 31.955566 423.265625 31.955566 Z M 421.981934 28.872559 L 421.981934 31.074707 L 423.244141 31.074707 Q 424.028320 31.074707 424.380127 30.773926 Q 424.731934 30.473145 424.731934 30.016602 Q 424.731934 29.409668 424.385498 29.141113 Q 424.039062 28.872559 423.244141 28.872559 Z M 420.891602 27.980957 L 423.265625 27.980957 Q 424.495605 27.980957 425.161621 28.512695 Q 425.827637 29.044434 425.827637 30.016602 Q 425.827637 30.537598 425.475830 30.961914 Q 425.124023 31.386230 424.420410 31.493652 Q 425.209961 31.611816 425.658447 32.167725 Q 426.106934 32.723633 426.106934 33.797852 Q 426.106934 34.888184 425.392578 35.444092 Q 424.678223 36.000000 423.265625 36.000000 L 420.891602 36.000000 Z " fill="rgb(0, 0, 0)" fill-opacity="1.000000" />
<path d="M 431.860840 31.998535 Q 431.860840 30.231445 431.498291 29.474121 Q 431.135742 28.716797 430.308594 28.716797 Q 429.486816 28.716797 429.124268 29.474121 Q 428.761719 30.231445 428.761719 31.998535 Q 428.761719 33.760254 429.124268 34.517578 Q 429.486816 35.274902 430.308594 35.274902 Q 431.135742 35.274902 431.498291 34.520264 Q 431.860840 33.765625 431.860840 31.998535 Z M 432.994141 31.998535 Q 432.994141 34.093262 432.330811 35.124512 Q 431.667480 36.155762 430.308594 36.155762 Q 428.949707 36.155762 428.289062 35.129883 Q 427.628418 34.104004 427.628418 31.998535 Q 427.628418 29.898438 428.291748 28.867188 Q 428.955078 27.835938 430.308594 27.835938 Q 431.667480 27.835938 432.330811 28.867188 Q 432.994141 29.898438 432.994141 31.998535 Z " fill="rgb(0, 0, 0)" fill-opacity="1.000000" />
<path d="M 435.981934 31.955566 L 435.981934 35.108398 L 437.265625 35.108398 Q 438.210938 35.108398 438.613770 34.778076 Q 439.016602 34.447754 439.016602 33.690430 Q 439.016602 32.691406 438.592285 32.323486 Q 438.167969 31.955566 437.265625 31.955566 Z M 435.981934 28.872559 L 435.981934 31.074707 L 437.244141 31.074707 Q 438.028320 31.074707 438.380127 30.773926 Q 438.731934 30.473145 438.731934 30.016602 Q 438.731934 29.409668 438.385498 29.141113 Q 438.039062 28.872559 437.244141 28.872559 Z M 434.891602 27.980957 L 437.265625 27.980957 Q 438.495605 27.980957 439.161621 28.512695 Q 439.827637 29.044434 439.827637 30.016602 Q 439.827637 30.537598 439.475830 30.961914 Q 439.124023 31.386230 438.420410 31.493652 Q 439.209961 31.611816 439.658447 32.167725 Q 440.106934 32.723633 440.106934 33.797852 Q 440.106934 34.888184 439.392578 35.444092 Q 438.678223 36.000000 437.265625 36.000000 L 434.891602 36.000000 Z " fill="rgb(0, 0, 0)" fill-opacity="1.000000" />
<path d="M 442.869141 27.116211 L 443.728516 27.116211 Q 444.539551 28.383789 444.937012 29.597656 Q 445.334473 30.811523 445.334473 32.009277 Q 445.334473 33.217773 444.937012 34.431641 Q 444.539551 35.645508 443.728516 36.913086 L 442.869141 36.913086 Q 443.583496 35.666992 443.935303 34.447754 Q 444.287109 33.228516 444.287109 32.009277 Q 444.287109 30.784668 443.935303 29.565430 Q 443.583496 28.346191 442.869141 27.116211 Z " fill="rgb(0, 0, 0)" fill-opacity="1.000000" />
<path d="M 450.374023 34.061035 L 452.049805 34.061035 L 452.049805 35.484375 L 450.857422 37.799316 L 449.783203 37.804688 L 450.374023 35.484375 Z " fill="rgb(0, 0, 0)" fill-opacity="1.000000" />
<path d="M 496.892578 33.335938 L 496.892578 32.412109 L 503.729980 32.412109 L 503.729980 33.335938 Z " fill="rgb(0, 0, 0)" fill-opacity="1.000000" />
<path d="M 503.892578 33.335938 L 503.892578 32.412109 L 510.729980 32.412109 L 510.729980 33.335938 Z " fill="rgb(0, 0, 0)" fill-opacity="1.000000" />
<path d="M 510.892578 33.335938 L 510.892578 32.412109 L 517.729980 32.412109 L 517.729980 33.335938 Z " fill="rgb(0, 0, 0)" fill-opacity="1.000000" />
<path d="M 517.892578 33.335938 L 517.892578 32.412109 L 524.729980 32.412109 L 524.729980 33.335938 Z " fill="rgb(0, 0, 0)" fill-opacity="1.000000" />
<path d="M 524.892578 33.335938 L 524.892578 32.412109 L 531.729980 32.412109 L 531.729980 33.335938 Z " fill="rgb(0, 0, 0)" fill-opacity="1.000000" />
<path d="M 532.032227 36.418945 L 532.032227 29.866211 L 538.590332 33.142578 Z " fill="rgb(0, 0, 0)" fill-opacity="1.000000" />
<path d="M 215.435547 15.254883 L 215.435547 16.355957 Q 214.941406 16.039062 214.444580 15.877930 Q 213.947754 15.716797 213.442871 15.716797 Q 212.674805 15.716797 212.229004 16.073975 Q 211.783203 16.431152 211.783203 17.038086 Q 211.783203 17.569824 212.075928 17.849121 Q 212.368652 18.128418 213.168945 18.316406 L 213.738281 18.445312 Q 214.866211 18.708496 215.381836 19.272461 Q 215.897461 19.836426 215.897461 20.808594 Q 215.897461 21.952637 215.188477 22.554199 Q 214.479492 23.155762 213.125977 23.155762 Q 212.562012 23.155762 211.992676 23.034912 Q 211.423340 22.914062 210.848633 22.672363 L 210.848633 21.517578 Q 211.466309 21.909668 212.016846 22.092285 Q 212.567383 22.274902 213.125977 22.274902 Q 213.947754 22.274902 214.404297 21.906982 Q 214.860840 21.539062 214.860840 20.878418 Q 214.860840 20.276855 214.546631 19.959961 Q 214.232422 19.643066 213.453613 19.471191 L 212.873535 19.336914 Q 211.756348 19.084473 211.251465 18.574219 Q 210.746582 18.063965 210.746582 17.204590 Q 210.746582 16.130371 211.468994 15.483154 Q 212.191406 14.835938 213.389160 14.835938 Q 213.851074 14.835938 214.361328 14.940674 Q 214.871582 15.045410 215.435547 15.254883 Z " fill="rgb(0, 0, 0)" fill-opacity="1.000000" />
<path d="M 217.252441 14.980957 L 223.370117 14.980957 L 223.370117 15.894043 L 220.861816 15.894043 L 220.861816 23.000000 L 219.771484 23.000000 L 219.771484 15.894043 L 217.252441 15.894043 Z " fill="rgb(0, 0, 0)" fill-opacity="1.000000" />
<path d="M 225.251465 14.980957 L 229.972656 14.980957 L 229.972656 15.894043 L 226.341797 15.894043 L 226.341797 18.042480 L 229.634277 18.042480 L 229.634277 18.955566 L 226.341797 18.955566 L 226.341797 23.000000 L 225.251465 23.000000 Z " fill="rgb(0, 0, 0)" fill-opacity="1.000000" />
<path d="M 235.592285 14.116211 Q 234.877930 15.340820 234.526123 16.557373 Q 234.174316 17.773926 234.174316 19.009277 Q 234.174316 20.239258 234.526123 21.458496 Q 234.877930 22.677734 235.592285 23.913086 L 234.732910 23.913086 Q 233.921875 22.634766 233.524414 21.423584 Q 233.126953 20.212402 233.126953 19.009277 Q 233.126953 17.811523 233.524414 16.597656 Q 233.921875 15.383789 234.732910 14.116211 Z " fill="rgb(0, 0, 0)" fill-opacity="1.000000" />
<path d="M 243.435547 15.254883 L 243.435547 16.355957 Q 242.941406 16.039062 242.444580 15.877930 Q 241.947754 15.716797 241.442871 15.716797 Q 240.674805 15.716797 240.229004 16.073975 Q 239.783203 16.431152 239.783203 17.038086 Q 239.783203 17.569824 240.075928 17.849121 Q 240.368652 18.128418 241.168945 18.316406 L 241.738281 18.445312 Q 242.866211 18.708496 243.381836 19.272461 Q 243.897461 19.836426 243.897461 20.808594 Q 243.897461 21.952637 243.188477 22.554199 Q 242.479492 23.155762 241.125977 23.155762 Q 240.562012 23.155762 239.992676 23.034912 Q 239.423340 22.914062 238.848633 22.672363 L 238.848633 21.517578 Q 239.466309 21.909668 240.016846 22.092285 Q 240.567383 22.274902 241.125977 22.274902 Q 241.947754 22.274902 242.404297 21.906982 Q 242.860840 21.539062 242.860840 20.878418 Q 242.860840 20.276855 242.546631 19.959961 Q 242.232422 19.643066 241.453613 19.471191 L 240.873535 19.336914 Q 239.756348 19.084473 239.251465 18.574219 Q 238.746582 18.063965 238.746582 17.204590 Q 238.746582 16.130371 239.468994 15.483154 Q 240.191406 14.835938 241.389160 14.835938 Q 241.851074 14.835938 242.361328 14.940674 Q 242.871582 15.045410 243.435547 15.254883 Z " fill="rgb(0, 0, 0)" fill-opacity="1.000000" />
<path d="M 248.297852 15.276367 L 248.297852 16.984375 L 250.542969 16.984375 L 250.542969 17.752441 L 248.297852 17.752441 L 248.297852 21.018066 Q 248.297852 21.684082 248.550293 21.947266 Q 248.802734 22.210449 249.431152 22.210449 L 250.542969 22.210449 L 250.542969 23.000000 L 249.334473 23.000000 Q 248.222656 23.000000 247.766113 22.554199 Q 247.309570 22.108398 247.309570 21.018066 L 247.309570 17.752441 L 245.703613 17.752441 L 245.703613 16.984375 L 247.309570 16.984375 L 247.309570 15.276367 Z " fill="rgb(0, 0, 0)" fill-opacity="1.000000" />
<path d="M 255.770508 19.976074 L 255.442871 19.976074 Q 254.578125 19.976074 254.140381 20.279541 Q 253.702637 20.583008 253.702637 21.184570 Q 253.702637 21.727051 254.030273 22.027832 Q 254.357910 22.328613 254.937988 22.328613 Q 255.754395 22.328613 256.221680 21.761963 Q 256.688965 21.195312 256.694336 20.196289 L 256.694336 19.976074 Z M 257.687988 19.567871 L 257.687988 23.000000 L 256.694336 23.000000 L 256.694336 22.108398 Q 256.377441 22.645508 255.896729 22.900635 Q 255.416016 23.155762 254.728516 23.155762 Q 253.810059 23.155762 253.262207 22.637451 Q 252.714355 22.119141 252.714355 21.249023 Q 252.714355 20.244629 253.388428 19.723633 Q 254.062500 19.202637 255.367676 19.202637 L 256.694336 19.202637 L 256.694336 19.046875 Q 256.688965 18.327148 256.329102 18.002197 Q 255.969238 17.677246 255.179688 17.677246 Q 254.674805 17.677246 254.159180 17.822266 Q 253.643555 17.967285 253.154785 18.246582 L 253.154785 17.258301 Q 253.702637 17.048828 254.204834 16.944092 Q 254.707031 16.839355 255.179688 16.839355 Q 255.926270 16.839355 256.455322 17.059570 Q 256.984375 17.279785 257.312012 17.720215 Q 257.516113 17.988770 257.602051 18.383545 Q 257.687988 18.778320 257.687988 19.567871 Z " fill="rgb(0, 0, 0)" fill-opacity="1.000000" />
<path d="M 262.297852 15.276367 L 262.297852 16.984375 L 264.542969 16.984375 L 264.542969 17.752441 L 262.297852 17.752441 L 262.297852 21.018066 Q 262.297852 21.684082 262.550293 21.947266 Q 262.802734 22.210449 263.431152 22.210449 L 264.542969 22.210449 L 264.542969 23.000000 L 263.334473 23.000000 Q 262.222656 23.000000 261.766113 22.554199 Q 261.309570 22.108398 261.309570 21.018066 L 261.309570 17.752441 L 259.703613 17.752441 L 259.703613 16.984375 L 261.309570 16.984375 L 261.309570 15.276367 Z " fill="rgb(0, 0, 0)" fill-opacity="1.000000" />
<path d="M 272.015625 19.498047 L 272.015625 19.981445 L 267.734863 19.981445 L 267.734863 20.013672 Q 267.691895 21.243652 268.204834 21.780762 Q 268.717773 22.317871 269.652344 22.317871 Q 270.125000 22.317871 270.640625 22.167480 Q 271.156250 22.017090 271.741699 21.710938 L 271.741699 22.693848 Q 271.177734 22.924805 270.654053 23.040283 Q 270.130371 23.155762 269.641602 23.155762 Q 268.239746 23.155762 267.450195 22.315186 Q 266.660645 21.474609 266.660645 19.997559 Q 266.660645 18.558105 267.434082 17.698730 Q 268.207520 16.839355 269.496582 16.839355 Q 270.645996 16.839355 271.309326 17.618164 Q 271.972656 18.396973 272.015625 19.498047 Z M 271.027344 19.208008 Q 270.962891 18.584961 270.573486 18.131104 Q 270.184082 17.677246 269.453613 17.677246 Q 268.739258 17.677246 268.277344 18.149902 Q 267.815430 18.622559 267.772461 19.213379 Z " fill="rgb(0, 0, 0)" fill-opacity="1.000000" />
<path d="M 285.645020 19.272461 L 285.645020 23.000000 L 284.651367 23.000000 L 284.651367 19.272461 Q 284.651367 18.461426 284.366699 18.080078 Q 284.082031 17.698730 283.475098 17.698730 Q 282.782227 17.698730 282.408936 18.190186 Q 282.035645 18.681641 282.035645 19.600098 L 282.035645 23.000000 L 281.047363 23.000000 L 281.047363 16.984375 L 282.035645 16.984375 L 282.035645 17.886719 Q 282.298828 17.371094 282.750000 17.105225 Q 283.201172 16.839355 283.818848 16.839355 Q 284.737305 16.839355 285.191162 17.443604 Q 285.645020 18.047852 285.645020 19.272461 Z " fill="rgb(0, 0, 0)" fill-opacity="1.000000" />
<path d="M 289.374023 21.061035 L 291.049805 21.061035 L 291.049805 22.484375 L 289.857422 24.799316 L 288.783203 24.804688 L 289.374023 22.484375 Z " fill="rgb(0, 0, 0)" fill-opacity="1.000000" />
<path d="M 304.023926 14.105469 L 306.301270 14.105469 L 306.301270 14.873535 L 305.012207 14.873535 L 305.012207 23.145020 L 306.301270 23.145020 L 306.301270 23.913086 L 304.023926 23.913086 Z " fill="rgb(0, 0, 0)" fill-opacity="1.000000" />
<path d="M 574.547852 19.111328 L 580.241211 19.111328 L 580.241211 20.019043 L 574.547852 20.019043 Z " fill="rgb(0, 0, 0)" fill-opacity="1.000000" />
<path d="M 581.547852 19.111328 L 587.241211 19.111328 L 587.241211 20.019043 L 581.547852 20.019043 Z " fill="rgb(0, 0, 0)" fill-opacity="1.000000" />
<path d="M 588.547852 19.111328 L 594.241211 19.111328 L 594.241211 20.019043 L 588.547852 20.019043 Z " fill="rgb(0, 0, 0)" fill-opacity="1.000000" />
<path d="M 595.547852 19.111328 L 601.241211 19.111328 L 601.241211 20.019043 L 595.547852 20.019043 Z " fill="rgb(0, 0, 0)" fill-opacity="1.000000" />
<path d="M 602.547852 19.111328 L 608.241211 19.111328 L 608.241211 20.019043 L 602.547852 20.019043 Z " fill="rgb(0, 0, 0)" fill-opacity="1.000000" />
<path d="M 609.547852 19.111328 L 615.241211 19.111328 L 615.241211 20.019043 L 609.547852 20.019043 Z " fill="rgb(0, 0, 0)" fill-opacity="1.000000" />
<path d="M 616.547852 19.111328 L 622.241211 19.111328 L 622.241211 20.019043 L 616.547852 20.019043 Z " fill="rgb(0, 0, 0)" fill-opacity="1.000000" />
<path d="M 623.547852 19.111328 L 629.241211 19.111328 L 629.241211 20.019043 L 623.547852 20.019043 Z " fill="rgb(0, 0, 0)" fill-opacity="1.000000" />
<path d="M 630.547852 19.111328 L 636.241211 19.111328 L 636.241211 20.019043 L 630.547852 20.019043 Z " fill="rgb(0, 0, 0)" fill-opacity="1.000000" />
<path d="M 637.547852 19.111328 L 643.241211 19.111328 L 643.241211 20.019043 L 637.547852 20.019043 Z " fill="rgb(0, 0, 0)" fill-opacity="1.000000" />
<path d="M 644.547852 19.111328 L 650.241211 19.111328 L 650.241211 20.019043 L 644.547852 20.019043 Z " fill="rgb(0, 0, 0)" fill-opacity="1.000000" />
<path d="M 31.297852 2.276367 L 31.297852 3.984375 L 33.542969 3.984375 L 33.542969 4.752441 L 31.297852 4.752441 L 31.297852 8.018066 Q 31.297852 8.684082 31.550293 8.947266 Q 31.802734 9.210449 32.431152 9.210449 L 33.542969 9.210449 L 33.542969 10.000000 L 32.334473 10.000000 Q 31.222656 10.000000 30.766113 9.554199 Q 30.309570 9.108398 30.309570 8.018066 L 30.309570 4.752441 L 28.703613 4.752441 L 28.703613 3.984375 L 30.309570 3.984375 L 30.309570 2.276367 Z " fill="rgb(0, 0, 0)" fill-opacity="1.000000" />
<path d="M 38.770508 6.976074 L 38.442871 6.976074 Q 37.578125 6.976074 37.140381 7.279541 Q 36.702637 7.583008 36.702637 8.184570 Q 36.702637 8.727051 37.030273 9.027832 Q 37.357910 9.328613 37.937988 9.328613 Q 38.754395 9.328613 39.221680 8.761963 Q 39.688965 8.195312 39.694336 7.196289 L 39.694336 6.976074 Z M 40.687988 6.567871 L 40.687988 10.000000 L 39.694336 10.000000 L 39.694336 9.108398 Q 39.377441 9.645508 38.896729 9.900635 Q 38.416016 10.155762 37.728516 10.155762 Q 36.810059 10.155762 36.262207 9.637451 Q 35.714355 9.119141 35.714355 8.249023 Q 35.714355 7.244629 36.388428 6.723633 Q 37.062500 6.202637 38.367676 6.202637 L 39.694336 6.202637 L 39.694336 6.046875 Q 39.688965 5.327148 39.329102 5.002197 Q 38.969238 4.677246 38.179688 4.677246 Q 37.674805 4.677246 37.159180 4.822266 Q 36.643555 4.967285 36.154785 5.246582 L 36.154785 4.258301 Q 36.702637 4.048828 37.204834 3.944092 Q 37.707031 3.839355 38.179688 3.839355 Q 38.926270 3.839355 39.455322 4.059570 Q 39.984375 4.279785 40.312012 4.720215 Q 40.516113 4.988770 40.602051 5.383545 Q 40.687988 5.778320 40.687988 6.567871 Z " fill="rgb(0, 0, 0)" fill-opacity="1.000000" />
<path d="M 45.297852 2.276367 L 45.297852 3.984375 L 47.542969 3.984375 L 47.542969 4.752441 L 45.297852 4.752441 L 45.297852 8.018066 Q 45.297852 8.684082 45.550293 8.947266 Q 45.802734 9.210449 46.431152 9.210449 L 47.542969 9.210449 L 47.542969 10.000000 L 46.334473 10.000000 Q 45.222656 10.000000 44.766113 9.554199 Q 44.309570 9.108398 44.309570 8.018066 L 44.309570 4.752441 L 42.703613 4.752441 L 42.703613 3.984375 L 44.309570 3.984375 L 44.309570 2.276367 Z " fill="rgb(0, 0, 0)" fill-opacity="1.000000" />
<path d="M 55.015625 6.498047 L 55.015625 6.981445 L 50.734863 6.981445 L 50.734863 7.013672 Q 50.691895 8.243652 51.204834 8.780762 Q 51.717773 9.317871 52.652344 9.317871 Q 53.125000 9.317871 53.640625 9.167480 Q 54.156250 9.017090 54.741699 8.710938 L 54.741699 9.693848 Q 54.177734 9.924805 53.654053 10.040283 Q 53.130371 10.155762 52.641602 10.155762 Q 51.239746 10.155762 50.450195 9.315186 Q 49.660645 8.474609 49.660645 6.997559 Q 49.660645 5.558105 50.434082 4.698730 Q 51.207520 3.839355 52.496582 3.839355 Q 53.645996 3.839355 54.309326 4.618164 Q 54.972656 5.396973 55.015625 6.498047 Z M 54.027344 6.208008 Q 53.962891 5.584961 53.573486 5.131104 Q 53.184082 4.677246 52.453613 4.677246 Q 51.739258 4.677246 51.277344 5.149902 Q 50.815430 5.622559 50.772461 6.213379 Z " fill="rgb(0, 0, 0)" fill-opacity="1.000000" />
<path d="M 68.645020 6.272461 L 68.645020 10.000000 L 67.651367 10.000000 L 67.651367 6.272461 Q 67.651367 5.461426 67.366699 5.080078 Q 67.082031 4.698730 66.475098 4.698730 Q 65.782227 4.698730 65.408936 5.190186 Q 65.035645 5.681641 65.035645 6.600098 L 65.035645 10.000000 L 64.047363 10.000000 L 64.047363 3.984375 L 65.035645 3.984375 L 65.035645 4.886719 Q 65.298828 4.371094 65.750000 4.105225 Q 66.201172 3.839355 66.818848 3.839355 Q 67.737305 3.839355 68.191162 4.443604 Q 68.645020 5.047852 68.645020 6.272461 Z " fill="rgb(0, 0, 0)" fill-opacity="1.000000" />
<path d="M 579.435547 2.254883 L 579.435547 3.355957 Q 578.941406 3.039062 578.444580 2.877930 Q 577.947754 2.716797 577.442871 2.716797 Q 576.674805 2.716797 576.229004 3.073975 Q 575.783203 3.431152 575.783203 4.038086 Q 575.783203 4.569824 576.075928 4.849121 Q 576.368652 5.128418 577.168945 5.316406 L 577.738281 5.445312 Q 578.866211 5.708496 579.381836 6.272461 Q 579.897461 6.836426 579.897461 7.808594 Q 579.897461 8.952637 579.188477 9.554199 Q 578.479492 10.155762 577.125977 10.155762 Q 576.562012 10.155762 575.992676 10.034912 Q 575.423340 9.914062 574.848633 9.672363 L 574.848633 8.517578 Q 575.466309 8.909668 576.016846 9.092285 Q 576.567383 9.274902 577.125977 9.274902 Q 577.947754 9.274902 578.404297 8.906982 Q 578.860840 8.539062 578.860840 7.878418 Q 578.860840 7.276855 578.546631 6.959961 Q 578.232422 6.643066 577.453613 6.471191 L 576.873535 6.336914 Q 575.756348 6.084473 575.251465 5.574219 Q 574.746582 5.063965 574.746582 4.204590 Q 574.746582 3.130371 575.468994 2.483154 Q 576.191406 1.835938 577.389160 1.835938 Q 577.851074 1.835938 578.361328 1.940674 Q 578.871582 2.045410 579.435547 2.254883 Z " fill="rgb(0, 0, 0)" fill-opacity="1.000000" />
<path d="M 584.297852 2.276367 L 584.297852 3.984375 L 586.542969 3.984375 L 586.542969 4.752441 L 584.297852 4.752441 L 584.297852 8.018066 Q 584.297852 8.684082 584.550293 8.947266 Q 584.802734 9.210449 585.431152 9.210449 L 586.542969 9.210449 L 586.542969 10.000000 L 585.334473 10.000000 Q 584.222656 10.000000 583.766113 9.554199 Q 583.309570 9.108398 583.309570 8.018066 L 583.309570 4.752441 L 581.703613 4.752441 L 581.703613 3.984375 L 583.309570 3.984375 L 583.309570 2.276367 Z " fill="rgb(0, 0, 0)" fill-opacity="1.000000" />
<path d="M 591.770508 6.976074 L 591.442871 6.976074 Q 590.578125 6.976074 590.140381 7.279541 Q 589.702637 7.583008 589.702637 8.184570 Q 589.702637 8.727051 590.030273 9.027832 Q 590.357910 9.328613 590.937988 9.328613 Q 591.754395 9.328613 592.221680 8.761963 Q 592.688965 8.195312 592.694336 7.196289 L 592.694336 6.976074 Z M 593.687988 6.567871 L 593.687988 10.000000 L 592.694336 10.000000 L 592.694336 9.108398 Q 592.377441 9.645508 591.896729 9.900635 Q 591.416016 10.155762 590.728516 10.155762 Q 589.810059 10.155762 589.262207 9.637451 Q 588.714355 9.119141 588.714355 8.249023 Q 588.714355 7.244629 589.388428 6.723633 Q 590.062500 6.202637 591.367676 6.202637 L 592.694336 6.202637 L 592.694336 6.046875 Q 592.688965 5.327148 592.329102 5.002197 Q 591.969238 4.677246 591.179688 4.677246 Q 590.674805 4.677246 590.159180 4.822266 Q 589.643555 4.967285 589.154785 5.246582 L 589.154785 4.258301 Q 589.702637 4.048828 590.204834 3.944092 Q 590.707031 3.839355 591.179688 3.839355 Q 591.926270 3.839355 592.455322 4.059570 Q 592.984375 4.279785 593.312012 4.720215 Q 593.516113 4.988770 593.602051 5.383545 Q 593.687988 5.778320 593.687988 6.567871 Z " fill="rgb(0, 0, 0)" fill-opacity="1.000000" />
<path d="M 598.297852 2.276367 L 598.297852 3.984375 L 600.542969 3.984375 L 600.542969 4.752441 L 598.297852 4.752441 L 598.297852 8.018066 Q 598.297852 8.684082 598.550293 8.947266 Q 598.802734 9.210449 599.431152 9.210449 L 600.542969 9.210449 L 600.542969 10.000000 L 599.334473 10.000000 Q 598.222656 10.000000 597.766113 9.554199 Q 597.309570 9.108398 597.309570 8.018066 L 597.309570 4.752441 L 595.703613 4.752441 L 595.703613 3.984375 L 597.309570 3.984375 L 597.309570 2.276367 Z " fill="rgb(0, 0, 0)" fill-opacity="1.000000" />
<path d="M 608.015625 6.498047 L 608.015625 6.981445 L 603.734863 6.981445 L 603.734863 7.013672 Q 603.691895 8.243652 604.204834 8.780762 Q 604.717773 9.317871 605.652344 9.317871 Q 606.125000 9.317871 606.640625 9.167480 Q 607.156250 9.017090 607.741699 8.710938 L 607.741699 9.693848 Q 607.177734 9.924805 606.654053 10.040283 Q 606.130371 10.155762 605.641602 10.155762 Q 604.239746 10.155762 603.450195 9.315186 Q 602.660645 8.474609 602.660645 6.997559 Q 602.660645 5.558105 603.434082 4.698730 Q 604.207520 3.839355 605.496582 3.839355 Q 606.645996 3.839355 607.309326 4.618164 Q 607.972656 5.396973 608.015625 6.498047 Z M 607.027344 6.208008 Q 606.962891 5.584961 606.573486 5.131104 Q 606.184082 4.677246 605.453613 4.677246 Q 604.739258 4.677246 604.277344 5.149902 Q 603.815430 5.622559 603.772461 6.213379 Z " fill="rgb(0, 0, 0)" fill-opacity="1.000000" />
<path d="M 621.645020 6.272461 L 621.645020 10.000000 L 620.651367 10.000000 L 620.651367 6.272461 Q 620.651367 5.461426 620.366699 5.080078 Q 620.082031 4.698730 619.475098 4.698730 Q 618.782227 4.698730 618.408936 5.190186 Q 618.035645 5.681641 618.035645 6.600098 L 618.035645 10.000000 L 617.047363 10.000000 L 617.047363 3.984375 L 618.035645 3.984375 L 618.035645 4.886719 Q 618.298828 4.371094 618.750000 4.105225 Q 619.201172 3.839355 619.818848 3.839355 Q 620.737305 3.839355 621.191162 4.443604 Q 621.645020 5.047852 621.645020 6.272461 Z " fill="rgb(0, 0, 0)" fill-opacity="1.000000" />
<path d="M 633.867188 3.672852 L 633.867188 6.052246 L 636.257324 6.052246 L 636.257324 6.959961 L 633.867188 6.959961 L 633.867188 9.339355 L 632.964844 9.339355 L 632.964844 6.959961 L 630.580078 6.959961 L 630.580078 6.052246 L 632.964844 6.052246 L 632.964844 3.672852 Z " fill="rgb(0, 0, 0)" fill-opacity="1.000000" />
<path d="M 645.450195 9.092285 L 647.136719 9.092285 L 647.136719 3.033691 L 645.117188 4.005859 L 645.117188 2.963867 L 647.125977 2.007812 L 648.210938 2.007812 L 648.210938 9.092285 L 649.875977 9.092285 L 649.875977 10.000000 L 645.450195 10.000000 Z " fill="rgb(0, 0, 0)" fill-opacity="1.000000" />
</svg>