<svg version="1.1" viewBox="0.0 0.0 1256.5564304461943 628.7480314960629" fill="none" stroke="none" stroke-linecap="square" stroke-miterlimit="10" xmlns:xlink="http://www.w3.org/1999/xlink" xmlns="http://www.w3.org/2000/svg"><clipPath id="p.0"><path d="m0 0l1256.5564 0l0 628.74805l-1256.5564 0l0 -628.74805z" clip-rule="nonzero"/></clipPath><g clip-path="url(#p.0)"><path fill="#000000" fill-opacity="0.0" d="m0 0l1256.5564 0l0 628.74805l-1256.5564 0z" fill-rule="evenodd"/><path fill="#07154b" d="m31.164042 12.724409l1200.6929 0l0 596.31494l-1200.6929 0z" fill-rule="evenodd"/><path fill="#000000" fill-opacity="0.0" d="m631.5105 12.724409l0 596.31494" fill-rule="evenodd"/><path stroke="#ffffff" stroke-width="1.0" stroke-linejoin="round" stroke-linecap="butt" stroke-dasharray="1.0,3.0" d="m631.5105 12.724409l0 596.31494" fill-rule="evenodd"/><path fill="#000000" fill-opacity="0.0" d="m239.2546 369.89822l0 0c0 -16.18039 13.116791 -29.29718 29.297165 -29.29718l117.18518 0l0 0c7.770111 0 15.221954 3.08667 20.716248 8.580963c5.4942627 5.4942627 8.580933 12.946136 8.580933 20.716217l0 148.64975c0 16.180359 -13.116791 29.29718 -29.29718 29.29718l-117.18518 0c-16.180374 0 -29.297165 -13.116821 -29.297165 -29.29718z" fill-rule="evenodd"/><path stroke="#8d3aed" stroke-width="1.0" stroke-linejoin="round" stroke-linecap="butt" d="m239.2546 369.89822l0 0c0 -16.18039 13.116791 -29.29718 29.297165 -29.29718l117.18518 0l0 0c7.770111 0 15.221954 3.08667 20.716248 8.580963c5.4942627 5.4942627 8.580933 12.946136 8.580933 20.716217l0 148.64975c0 16.180359 -13.116791 29.29718 -29.29718 29.29718l-117.18518 0c-16.180374 0 -29.297165 -13.116821 -29.297165 -29.29718z" fill-rule="evenodd"/><path fill="#ffffff" d="m278.10034 436.68622q2.59375 0 4.484375 0.96875q1.890625 0.96875 2.890625 2.765625q1.015625 1.78125 1.015625 4.203125q0 2.421875 -1.015625 4.203125q-1.0 1.78125 -2.890625 2.71875q-1.890625 0.9375 -4.484375 0.9375l-4.90625 0l0 -15.796875l4.90625 0zm0 14.09375q3.0625 0 4.671875 -1.609375q1.609375 -1.625 1.609375 -4.546875q0 -2.953125 -1.625 -4.59375q-1.609375 -1.65625 -4.65625 -1.65625l-2.84375 0l0 12.40625l2.84375 0zm10.330414 -4.546875q0 -1.90625 0.765625 -3.34375q0.78125 -1.4375 2.125 -2.234375q1.34375 -0.796875 3.0 -0.796875q1.640625 0 2.828125 0.703125q1.203125 0.703125 1.796875 1.765625l0 -2.265625l2.09375 0l0 12.421875l-2.09375 0l0 -2.3125q-0.609375 1.09375 -1.828125 1.8125q-1.203125 0.703125 -2.8125 0.703125q-1.65625 0 -3.0 -0.8125q-1.328125 -0.8125 -2.109375 -2.28125q-0.765625 -1.484375 -0.765625 -3.359375zm10.515625 0.015625q0 -1.40625 -0.5625 -2.4375q-0.5625 -1.046875 -1.53125 -1.59375q-0.96875 -0.5625 -2.125 -0.5625q-1.15625 0 -2.109375 0.546875q-0.9375 0.546875 -1.515625 1.59375q-0.5625 1.03125 -0.5625 2.4375q0 1.421875 0.5625 2.484375q0.578125 1.046875 1.515625 1.609375q0.953125 0.546875 2.109375 0.546875q1.15625 0 2.125 -0.546875q0.96875 -0.5625 1.53125 -1.609375q0.5625 -1.0625 0.5625 -2.46875zm8.096863 -4.484375l0 7.328125q0 0.90625 0.375 1.28125q0.390625 0.359375 1.34375 0.359375l1.515625 0l0 1.75l-1.859375 0q-1.71875 0 -2.578125 -0.78125q-0.859375 -0.796875 -0.859375 -2.609375l0 -7.328125l-1.609375 0l0 -1.703125l1.609375 0l0 -3.125l2.0625 0l0 3.125l3.234375 0l0 1.703125l-3.234375 0zm4.9499817 4.46875q0 -1.90625 0.765625 -3.34375q0.78125 -1.4375 2.125 -2.234375q1.34375 -0.796875 3.0 -0.796875q1.640625 0 2.828125 0.703125q1.203125 0.703125 1.796875 1.765625l0 -2.265625l2.09375 0l0 12.421875l-2.09375 0l0 -2.3125q-0.609375 1.09375 -1.828125 1.8125q-1.203125 0.703125 -2.8125 0.703125q-1.65625 0 -3.0 -0.8125q-1.328125 -0.8125 -2.109375 -2.28125q-0.765625 -1.484375 -0.765625 -3.359375zm10.515625 0.015625q0 -1.40625 -0.5625 -2.4375q-0.5625 -1.046875 -1.53125 -1.59375q-0.96875 -0.5625 -2.125 -0.5625q-1.15625 0 -2.109375 0.546875q-0.9375 0.546875 -1.515625 1.59375q-0.5625 1.03125 -0.5625 2.4375q0 1.421875 0.5625 2.484375q0.578125 1.046875 1.515625 1.609375q0.953125 0.546875 2.109375 0.546875q1.15625 0 2.125 -0.546875q0.96875 -0.5625 1.53125 -1.609375q0.5625 -1.0625 0.5625 -2.46875zm7.6437073 -3.875q0.625 -1.109375 1.84375 -1.8125q1.234375 -0.703125 2.796875 -0.703125q1.671875 0 3.0 0.796875q1.34375 0.796875 2.109375 2.234375q0.78125 1.4375 0.78125 3.34375q0 1.875 -0.78125 3.359375q-0.765625 1.46875 -2.109375 2.28125q-1.34375 0.8125 -3.0 0.8125q-1.609375 0 -2.828125 -0.703125q-1.203125 -0.703125 -1.8125 -1.78125l0 2.28125l-2.0625 0l0 -16.765625l2.0625 0l0 6.65625zm8.421875 3.859375q0 -1.40625 -0.578125 -2.4375q-0.5625 -1.046875 -1.53125 -1.59375q-0.953125 -0.546875 -2.109375 -0.546875q-1.125 0 -2.09375 0.5625q-0.953125 0.546875 -1.53125 1.609375q-0.578125 1.046875 -0.578125 2.421875q0 1.40625 0.578125 2.46875q0.578125 1.046875 1.53125 1.609375q0.96875 0.546875 2.09375 0.546875q1.15625 0 2.109375 -0.546875q0.96875 -0.5625 1.53125 -1.609375q0.578125 -1.0625 0.578125 -2.484375zm4.049988 0q0 -1.90625 0.765625 -3.34375q0.78125 -1.4375 2.125 -2.234375q1.34375 -0.796875 3.0 -0.796875q1.640625 0 2.828125 0.703125q1.203125 0.703125 1.796875 1.765625l0 -2.265625l2.09375 0l0 12.421875l-2.09375 0l0 -2.3125q-0.609375 1.09375 -1.828125 1.8125q-1.203125 0.703125 -2.8125 0.703125q-1.65625 0 -3.0 -0.8125q-1.328125 -0.8125 -2.109375 -2.28125q-0.765625 -1.484375 -0.765625 -3.359375zm10.515625 0.015625q0 -1.40625 -0.5625 -2.4375q-0.5625 -1.046875 -1.53125 -1.59375q-0.96875 -0.5625 -2.125 -0.5625q-1.15625 0 -2.109375 0.546875q-0.9375 0.546875 -1.515625 1.59375q-0.5625 1.03125 -0.5625 2.4375q0 1.421875 0.5625 2.484375q0.578125 1.046875 1.515625 1.609375q0.953125 0.546875 2.109375 0.546875q1.15625 0 2.125 -0.546875q0.96875 -0.5625 1.53125 -1.609375q0.5625 -1.0625 0.5625 -2.46875zm9.971832 6.4375q-1.421875 0 -2.5625 -0.484375q-1.125 -0.484375 -1.796875 -1.359375q-0.65625 -0.875 -0.71875 -2.0l2.125 0q0.09375 0.921875 0.875 1.515625q0.78125 0.578125 2.046875 0.578125q1.1875 0 1.859375 -0.515625q0.6875 -0.515625 0.6875 -1.3125q0 -0.8125 -0.734375 -1.203125q-0.71875 -0.40625 -2.234375 -0.796875q-1.390625 -0.359375 -2.265625 -0.734375q-0.859375 -0.375 -1.484375 -1.109375q-0.625 -0.734375 -0.625 -1.9375q0 -0.953125 0.5625 -1.734375q0.578125 -0.796875 1.609375 -1.265625q1.046875 -0.46875 2.390625 -0.46875q2.046875 0 3.3125 1.046875q1.28125 1.046875 1.375 2.859375l-2.0625 0q-0.078125 -0.984375 -0.796875 -1.5625q-0.703125 -0.59375 -1.90625 -0.59375q-1.109375 0 -1.765625 0.484375q-0.65625 0.46875 -0.65625 1.234375q0 0.609375 0.390625 1.015625q0.40625 0.390625 1.0 0.640625q0.609375 0.234375 1.671875 0.515625q1.328125 0.375 2.171875 0.734375q0.84375 0.34375 1.4375 1.046875q0.59375 0.6875 0.625 1.828125q0 1.015625 -0.578125 1.84375q-0.5625 0.8125 -1.59375 1.28125q-1.03125 0.453125 -2.359375 0.453125zm18.764038 -6.890625q0 0.59375 -0.078125 1.25l-9.921875 0q0.109375 1.828125 1.25 2.859375q1.15625 1.03125 2.78125 1.03125q1.34375 0 2.234375 -0.609375q0.890625 -0.625 1.265625 -1.671875l2.21875 0q-0.5 1.796875 -2.0 2.921875q-1.5 1.109375 -3.71875 1.109375q-1.765625 0 -3.15625 -0.78125q-1.390625 -0.796875 -2.1875 -2.25q-0.796875 -1.46875 -0.796875 -3.40625q0 -1.921875 0.765625 -3.375q0.78125 -1.453125 2.171875 -2.234375q1.390625 -0.78125 3.203125 -0.78125q1.765625 0 3.125 0.78125q1.359375 0.765625 2.09375 2.125q0.75 1.34375 0.75 3.03125zm-2.140625 -0.421875q0 -1.1875 -0.515625 -2.03125q-0.515625 -0.84375 -1.421875 -1.28125q-0.890625 -0.453125 -1.984375 -0.453125q-1.5625 0 -2.65625 1.0q-1.09375 1.0 -1.25 2.765625l7.828125 0z" fill-rule="nonzero"/><path fill="#000000" fill-opacity="0.0" d="m221.36687 106.12895l0 0c0 -9.515144 7.7135468 -17.228691 17.228683 -17.228691l147.68436 0c4.569336 0 8.951508 1.8151627 12.182526 5.0461655c3.2309875 3.2310104 5.046173 7.6131973 5.046173 12.182526l0 68.912704c0 9.515137 -7.713562 17.228683 -17.228699 17.228683l-147.68436 0c-9.515137 0 -17.228683 -7.7135468 -17.228683 -17.228683z" fill-rule="evenodd"/><path stroke="#8d3aed" stroke-width="1.0" stroke-linejoin="round" stroke-linecap="butt" d="m221.36687 106.12895l0 0c0 -9.515144 7.7135468 -17.228691 17.228683 -17.228691l147.68436 0c4.569336 0 8.951508 1.8151627 12.182526 5.0461655c3.2309875 3.2310104 5.046173 7.6131973 5.046173 12.182526l0 68.912704c0 9.515137 -7.713562 17.228683 -17.228699 17.228683l-147.68436 0c-9.515137 0 -17.228683 -7.7135468 -17.228683 -17.228683z" fill-rule="evenodd"/><path fill="#ffffff" d="m284.83276 133.84781l0 1.484375l-3.8125 0l0 12.453125l-1.8125 0l0 -12.453125l-3.8125 0l0 -1.484375l9.4375 0zm7.960602 13.9375l-2.609375 -4.078125l-2.5 4.078125l-1.890625 0l3.53125 -5.4375l-3.53125 -5.515625l2.046875 0l2.609375 4.046875l2.484375 -4.046875l1.890625 0l-3.515625 5.40625l3.53125 5.546875l-2.046875 0zm11.454987 -8.09375l0 1.53125l-7.984375 0l0 -1.53125l7.984375 0zm5.238739 -0.84375q0.546875 -0.9375 1.609375 -1.5625q1.078125 -0.640625 2.484375 -0.640625q1.46875 0 2.65625 0.703125q1.1875 0.703125 1.859375 1.96875q0.6875 1.265625 0.6875 2.953125q0 1.65625 -0.6875 2.953125q-0.671875 1.296875 -1.859375 2.03125q-1.1875 0.71875 -2.65625 0.71875q-1.390625 0 -2.46875 -0.625q-1.0625 -0.640625 -1.625 -1.578125l0 7.21875l-1.8125 0l0 -16.15625l1.8125 0l0 2.015625zm7.4375 3.421875q0 -1.25 -0.5 -2.15625q-0.5 -0.921875 -1.359375 -1.40625q-0.84375 -0.484375 -1.859375 -0.484375q-1.0 0 -1.859375 0.5q-0.84375 0.484375 -1.359375 1.421875q-0.5 0.921875 -0.5 2.140625q0 1.234375 0.5 2.171875q0.515625 0.921875 1.359375 1.421875q0.859375 0.484375 1.859375 0.484375q1.015625 0 1.859375 -0.484375q0.859375 -0.5 1.359375 -1.421875q0.5 -0.9375 0.5 -2.1875zm9.035614 5.703125q-1.53125 0 -2.78125 -0.703125q-1.25 -0.703125 -1.96875 -1.984375q-0.703125 -1.296875 -0.703125 -3.0q0 -1.6875 0.71875 -2.96875q0.734375 -1.296875 2.0 -1.984375q1.265625 -0.6875 2.828125 -0.6875q1.546875 0 2.8125 0.6875q1.265625 0.6875 1.984375 1.96875q0.734375 1.28125 0.734375 2.984375q0 1.703125 -0.75 3.0q-0.75 1.28125 -2.03125 1.984375q-1.28125 0.703125 -2.84375 0.703125zm0 -1.609375q0.984375 0 1.84375 -0.453125q0.859375 -0.46875 1.390625 -1.390625q0.53125 -0.921875 0.53125 -2.234375q0 -1.3125 -0.515625 -2.234375q-0.515625 -0.921875 -1.359375 -1.375q-0.84375 -0.453125 -1.828125 -0.453125q-1.0 0 -1.828125 0.453125q-0.828125 0.453125 -1.328125 1.375q-0.5 0.921875 -0.5 2.234375q0 1.34375 0.484375 2.265625q0.5 0.921875 1.3125 1.375q0.828125 0.4375 1.796875 0.4375zm12.799988 1.609375q-1.53125 0 -2.78125 -0.703125q-1.25 -0.703125 -1.96875 -1.984375q-0.703125 -1.296875 -0.703125 -3.0q0 -1.6875 0.71875 -2.96875q0.734375 -1.296875 2.0 -1.984375q1.265625 -0.6875 2.828125 -0.6875q1.546875 0 2.8125 0.6875q1.265625 0.6875 1.984375 1.96875q0.734375 1.28125 0.734375 2.984375q0 1.703125 -0.75 3.0q-0.75 1.28125 -2.03125 1.984375q-1.28125 0.703125 -2.84375 0.703125zm0 -1.609375q0.984375 0 1.84375 -0.453125q0.859375 -0.46875 1.390625 -1.390625q0.53125 -0.921875 0.53125 -2.234375q0 -1.3125 -0.515625 -2.234375q-0.515625 -0.921875 -1.359375 -1.375q-0.84375 -0.453125 -1.828125 -0.453125q-1.0 0 -1.828125 0.453125q-0.828125 0.453125 -1.328125 1.375q-0.5 0.921875 -0.5 2.234375q0 1.34375 0.484375 2.265625q0.5 0.921875 1.3125 1.375q0.828125 0.4375 1.796875 0.4375zm9.846863 -13.375l0 14.796875l-1.8125 0l0 -14.796875l1.8125 0z" fill-rule="nonzero"/><path fill="#8d3aed" d="m50.39486 29.81609l554.4882 0l0 42.01575l-554.4882 0z" fill-rule="evenodd"/><path stroke="#8d3aed" stroke-width="1.0" stroke-linejoin="round" stroke-linecap="butt" d="m50.39486 29.81609l554.4882 0l0 42.01575l-554.4882 0z" fill-rule="evenodd"/><path fill="#ffffff" d="m271.46893 50.220463q0 -1.890625 0.859375 -3.40625q0.859375 -1.53125 2.34375 -2.390625q1.484375 -0.859375 3.296875 -0.859375q2.125 0 3.703125 1.03125q1.59375 1.015625 2.328125 2.90625l-2.046875 0q-0.53125 -1.171875 -1.546875 -1.796875q-1.015625 -0.640625 -2.4375 -0.640625q-1.359375 0 -2.453125 0.640625q-1.078125 0.625 -1.703125 1.796875q-0.609375 1.15625 -0.609375 2.71875q0 1.546875 0.609375 2.71875q0.625 1.171875 1.703125 1.8125q1.09375 0.625 2.453125 0.625q1.421875 0 2.4375 -0.625q1.015625 -0.625 1.546875 -1.796875l2.046875 0q-0.734375 1.859375 -2.328125 2.875q-1.578125 1.015625 -3.703125 1.015625q-1.8125 0 -3.296875 -0.84375q-1.484375 -0.84375 -2.34375 -2.359375q-0.859375 -1.515625 -0.859375 -3.421875zm16.746399 -7.296875l0 13.8125l-1.703125 0l0 -13.8125l1.703125 0zm3.7612915 1.921875q-0.484375 0 -0.828125 -0.328125q-0.328125 -0.34375 -0.328125 -0.828125q0 -0.484375 0.328125 -0.8125q0.34375 -0.34375 0.828125 -0.34375q0.46875 0 0.796875 0.34375q0.328125 0.328125 0.328125 0.8125q0 0.484375 -0.328125 0.828125q-0.328125 0.328125 -0.796875 0.328125zm0.828125 1.671875l0 10.21875l-1.703125 0l0 -10.21875l1.703125 0zm12.214447 4.71875q0 0.484375 -0.0625 1.015625l-8.171875 0q0.09375 1.515625 1.03125 2.375q0.953125 0.84375 2.296875 0.84375q1.09375 0 1.828125 -0.515625q0.75 -0.515625 1.046875 -1.375l1.828125 0q-0.40625 1.484375 -1.640625 2.40625q-1.234375 0.921875 -3.0625 0.921875q-1.453125 0 -2.609375 -0.65625q-1.140625 -0.65625 -1.796875 -1.859375q-0.65625 -1.203125 -0.65625 -2.78125q0 -1.59375 0.640625 -2.78125q0.640625 -1.203125 1.78125 -1.84375q1.140625 -0.640625 2.640625 -0.640625q1.453125 0 2.5625 0.640625q1.125 0.625 1.734375 1.734375q0.609375 1.109375 0.609375 2.515625zm-1.75 -0.359375q0 -0.96875 -0.4375 -1.671875q-0.421875 -0.703125 -1.171875 -1.0625q-0.734375 -0.359375 -1.625 -0.359375q-1.28125 0 -2.1875 0.828125q-0.90625 0.8125 -1.03125 2.265625l6.453125 0zm8.973145 -4.546875q1.859375 0 3.015625 1.125q1.15625 1.125 1.15625 3.25l0 6.03125l-1.671875 0l0 -5.78125q0 -1.53125 -0.765625 -2.34375q-0.765625 -0.8125 -2.09375 -0.8125q-1.34375 0 -2.140625 0.84375q-0.78125 0.84375 -0.78125 2.4375l0 5.65625l-1.703125 0l0 -10.21875l1.703125 0l0 1.453125q0.5 -0.78125 1.359375 -1.203125q0.875 -0.4375 1.921875 -0.4375zm9.018127 1.578125l0 6.03125q0 0.75 0.3125 1.0625q0.328125 0.296875 1.109375 0.296875l1.25 0l0 1.4375l-1.53125 0q-1.40625 0 -2.125 -0.65625q-0.703125 -0.65625 -0.703125 -2.140625l0 -6.03125l-1.328125 0l0 -1.390625l1.328125 0l0 -2.578125l1.6875 0l0 2.578125l2.671875 0l0 1.390625l-2.671875 0zm16.803345 1.265625l0 1.4375l-7.4375 0l0 -1.4375l7.4375 0zm15.010803 7.5625l-3.09375 -5.3125l-2.046875 0l0 5.3125l-1.703125 0l0 -13.0l4.203125 0q1.46875 0 2.484375 0.5q1.015625 0.5 1.515625 1.359375q0.515625 0.859375 0.515625 1.96875q0 1.34375 -0.78125 2.375q-0.78125 1.015625 -2.328125 1.34375l3.265625 5.453125l-2.03125 0zm-5.140625 -6.671875l2.5 0q1.375 0 2.0625 -0.6875q0.6875 -0.6875 0.6875 -1.8125q0 -1.15625 -0.6875 -1.796875q-0.671875 -0.640625 -2.0625 -0.640625l-2.5 0l0 4.9375zm18.702393 -3.546875l0 10.21875l-1.6875 0l0 -1.515625q-0.484375 0.78125 -1.359375 1.234375q-0.875 0.4375 -1.90625 0.4375q-1.203125 0 -2.15625 -0.5q-0.953125 -0.5 -1.5 -1.484375q-0.546875 -0.984375 -0.546875 -2.40625l0 -5.984375l1.671875 0l0 5.765625q0 1.5 0.765625 2.3125q0.765625 0.8125 2.09375 0.8125q1.359375 0 2.140625 -0.828125q0.796875 -0.84375 0.796875 -2.453125l0 -5.609375l1.6875 0zm6.5025024 10.390625q-1.1875 0 -2.125 -0.40625q-0.921875 -0.40625 -1.46875 -1.125q-0.53125 -0.71875 -0.59375 -1.640625l1.75 0q0.078125 0.765625 0.71875 1.25q0.65625 0.484375 1.6875 0.484375q0.96875 0 1.53125 -0.421875q0.5625 -0.4375 0.5625 -1.09375q0 -0.671875 -0.59375 -1.0q-0.59375 -0.328125 -1.84375 -0.640625q-1.140625 -0.296875 -1.859375 -0.59375q-0.71875 -0.3125 -1.234375 -0.921875q-0.515625 -0.609375 -0.515625 -1.59375q0 -0.796875 0.46875 -1.4375q0.46875 -0.65625 1.328125 -1.03125q0.859375 -0.390625 1.953125 -0.390625q1.703125 0 2.75 0.859375q1.046875 0.859375 1.109375 2.34375l-1.6875 0q-0.0625 -0.796875 -0.65625 -1.28125q-0.578125 -0.484375 -1.5625 -0.484375q-0.921875 0 -1.46875 0.390625q-0.53125 0.390625 -0.53125 1.03125q0 0.5 0.328125 0.828125q0.328125 0.328125 0.8125 0.53125q0.5 0.1875 1.375 0.421875q1.109375 0.296875 1.796875 0.59375q0.6875 0.28125 1.171875 0.859375q0.5 0.578125 0.515625 1.515625q0 0.84375 -0.46875 1.515625q-0.453125 0.671875 -1.3125 1.0625q-0.84375 0.375 -1.9375 0.375zm8.176056 -9.0l0 6.03125q0 0.75 0.3125 1.0625q0.328125 0.296875 1.109375 0.296875l1.25 0l0 1.4375l-1.53125 0q-1.40625 0 -2.125 -0.65625q-0.703125 -0.65625 -0.703125 -2.140625l0 -6.03125l-1.328125 0l0 -1.390625l1.328125 0l0 -2.578125l1.6875 0l0 2.578125l2.671875 0l0 1.390625l-2.671875 0z" fill-rule="nonzero"/><path fill="#000000" fill-opacity="0.0" d="m49.081364 103.16835l0 0c0 -10.33271 8.37632 -18.70903 18.709034 -18.70903l116.25123 0c4.9619446 0 9.720657 1.9711227 13.229279 5.479744c3.5086212 3.5086288 5.4797516 8.267342 5.4797516 13.229286l0 74.83389c0 10.332718 -8.3763275 18.709045 -18.70903 18.709045l-116.25123 0c-10.332714 0 -18.709034 -8.3763275 -18.709034 -18.709045z" fill-rule="evenodd"/><path stroke="#8d3aed" stroke-width="1.0" stroke-linejoin="round" stroke-linecap="butt" d="m49.081364 103.16835l0 0c0 -10.33271 8.37632 -18.70903 18.709034 -18.70903l116.25123 0c4.9619446 0 9.720657 1.9711227 13.229279 5.479744c3.5086212 3.5086288 5.4797516 8.267342 5.4797516 13.229286l0 74.83389c0 10.332718 -8.3763275 18.709045 -18.70903 18.709045l-116.25123 0c-10.332714 0 -18.709034 -8.3763275 -18.709034 -18.709045z" fill-rule="evenodd"/><path fill="#ffffff" d="m94.05659 145.6653l-1.328125 0l-5.359375 -8.140625l0 8.140625l-1.34375 0l0 -10.234375l1.34375 0l5.359375 8.125l0 -8.125l1.328125 0l0 10.234375zm9.60025 -4.328125q0 0.390625 -0.046875 0.8125l-6.40625 0q0.0625 1.1875 0.796875 1.859375q0.75 0.65625 1.8125 0.65625q0.859375 0 1.4375 -0.390625q0.578125 -0.40625 0.8125 -1.09375l1.4375 0q-0.328125 1.171875 -1.296875 1.890625q-0.96875 0.71875 -2.390625 0.71875q-1.15625 0 -2.0625 -0.5q-0.890625 -0.515625 -1.40625 -1.453125q-0.515625 -0.953125 -0.515625 -2.203125q0 -1.25 0.5 -2.1875q0.5 -0.9375 1.390625 -1.4375q0.90625 -0.5 2.09375 -0.5q1.140625 0 2.015625 0.5q0.875 0.484375 1.34375 1.359375q0.484375 0.875 0.484375 1.96875zm-1.375 -0.28125q0 -0.75 -0.34375 -1.296875q-0.328125 -0.5625 -0.90625 -0.84375q-0.578125 -0.28125 -1.28125 -0.28125q-1.015625 0 -1.734375 0.640625q-0.703125 0.640625 -0.796875 1.78125l5.0625 0zm4.758789 -2.328125l0 4.734375q0 0.59375 0.25 0.84375q0.25 0.234375 0.875 0.234375l0.96875 0l0 1.125l-1.1875 0q-1.125 0 -1.6875 -0.515625q-0.546875 -0.515625 -0.546875 -1.6875l0 -4.734375l-1.046875 0l0 -1.09375l1.046875 0l0 -2.015625l1.328125 0l0 2.015625l2.09375 0l0 1.09375l-2.09375 0zm14.413025 -1.09375l-2.5 8.03125l-1.390625 0l-1.921875 -6.375l-1.9375 6.375l-1.375 0l-2.53125 -8.03125l1.359375 0l1.859375 6.734375l1.984375 -6.734375l1.359375 0l1.953125 6.75l1.828125 -6.75l1.3125 0zm4.815048 8.15625q-1.125 0 -2.046875 -0.5q-0.90625 -0.515625 -1.4375 -1.453125q-0.515625 -0.953125 -0.515625 -2.203125q0 -1.234375 0.53125 -2.171875q0.546875 -0.953125 1.46875 -1.453125q0.921875 -0.5 2.0625 -0.5q1.140625 0 2.0624924 0.5q0.9375 0.5 1.46875 1.4375q0.53125 0.9375 0.53125 2.1875q0 1.25 -0.546875 2.203125q-0.546875 0.9375 -1.484375 1.453125q-0.9374924 0.5 -2.0937424 0.5zm0 -1.171875q0.71875 0 1.34375 -0.328125q0.6406174 -0.34375 1.0312424 -1.015625q0.390625 -0.671875 0.390625 -1.640625q0 -0.96875 -0.390625 -1.640625q-0.375 -0.671875 -0.9999924 -1.0q-0.609375 -0.328125 -1.328125 -0.328125q-0.734375 0 -1.34375 0.328125q-0.609375 0.328125 -0.96875 1.0q-0.359375 0.671875 -0.359375 1.640625q0 0.984375 0.359375 1.65625q0.359375 0.671875 0.953125 1.0q0.59375 0.328125 1.3125 0.328125zm7.223778 -5.6875q0.34375 -0.6875 1.0 -1.0625q0.65625 -0.375 1.59375 -0.375l0 1.375l-0.359375 0q-2.234375 0 -2.234375 2.421875l0 4.375l-1.34375 0l0 -8.03125l1.34375 0l0 1.296875zm8.607422 6.734375l-3.140625 -3.546875l0 3.546875l-1.34375 0l0 -10.84375l1.34375 0l0 6.375l3.09375 -3.5625l1.859375 0l-3.78125 4.0l3.796875 4.03125l-1.828125 0zm3.7511292 -9.34375q-0.375 0 -0.640625 -0.25q-0.265625 -0.265625 -0.265625 -0.65625q0 -0.375 0.265625 -0.640625q0.265625 -0.265625 0.640625 -0.265625q0.375 0 0.625 0.265625q0.265625 0.265625 0.265625 0.640625q0 0.390625 -0.265625 0.65625q-0.25 0.25 -0.625 0.25zm0.65625 1.3125l0 8.03125l-1.34375 0l0 -8.03125l1.34375 0zm6.1835785 -0.140625q1.453125 0 2.359375 0.890625q0.921875 0.875 0.921875 2.546875l0 4.734375l-1.328125 0l0 -4.546875q0 -1.203125 -0.609375 -1.828125q-0.59375 -0.640625 -1.625 -0.640625q-1.0625 0 -1.6875 0.65625q-0.609375 0.65625 -0.609375 1.921875l0 4.4375l-1.34375 0l0 -8.03125l1.34375 0l0 1.140625q0.390625 -0.609375 1.0625 -0.9375q0.6875 -0.34375 1.515625 -0.34375zm8.77066 0.015625q1.046875 0 1.828125 0.453125q0.78125 0.453125 1.171875 1.140625l0 -1.46875l1.34375 0l0 8.203125q0 1.109375 -0.46875 1.953125q-0.46875 0.859375 -1.34375 1.34375q-0.875 0.484375 -2.03125 0.484375q-1.578125 0 -2.640625 -0.75q-1.046875 -0.734375 -1.234375 -2.03125l1.3125 0q0.21875 0.734375 0.90625 1.171875q0.6875 0.453125 1.65625 0.453125q1.09375 0 1.796875 -0.6875q0.703125 -0.6875 0.703125 -1.9375l0 -1.6875q-0.40625 0.703125 -1.1875 1.171875q-0.765625 0.46875 -1.8125 0.46875q-1.0625 0 -1.9375 -0.515625q-0.875 -0.53125 -1.375 -1.484375q-0.5 -0.953125 -0.5 -2.171875q0 -1.234375 0.5 -2.15625q0.5 -0.9375 1.375 -1.4375q0.875 -0.515625 1.9375 -0.515625zm3.0 4.125q0 -0.90625 -0.375 -1.578125q-0.359375 -0.671875 -0.984375 -1.03125q-0.625 -0.359375 -1.375 -0.359375q-0.75 0 -1.375 0.359375q-0.609375 0.34375 -0.96875 1.015625q-0.359375 0.671875 -0.359375 1.578125q0 0.921875 0.359375 1.609375q0.359375 0.671875 0.96875 1.03125q0.625 0.359375 1.375 0.359375q0.75 0 1.375 -0.359375q0.625 -0.359375 0.984375 -1.03125q0.375 -0.6875 0.375 -1.59375z" fill-rule="nonzero"/><path fill="#bb8ba6" d="m720.6942 29.816273l406.17322 0l0 42.01575l-406.17322 0z" fill-rule="evenodd"/><path stroke="#bb8ba6" stroke-width="1.0" stroke-linejoin="round" stroke-linecap="butt" d="m720.6942 29.816273l406.17322 0l0 42.01575l-406.17322 0z" fill-rule="evenodd"/><path fill="#ffffff" d="m816.7851 56.73627l-3.09375 -5.3125l-2.046875 0l0 5.3125l-1.703125 0l0 -13.0l4.203125 0q1.46875 0 2.484375 0.5q1.015625 0.5 1.515625 1.359375q0.515625 0.859375 0.515625 1.96875q0 1.34375 -0.78125 2.375q-0.78125 1.015625 -2.328125 1.34375l3.265625 5.453125l-2.03125 0zm-5.140625 -6.671875l2.5 0q1.375 0 2.0625 -0.6875q0.6875 -0.6875 0.6875 -1.8125q0 -1.15625 -0.6875 -1.796875q-0.671875 -0.640625 -2.0625 -0.640625l-2.5 0l0 4.9375zm18.702393 -3.546875l0 10.21875l-1.6875 0l0 -1.515625q-0.484375 0.78125 -1.359375 1.234375q-0.875 0.4375 -1.90625 0.4375q-1.203125 0 -2.15625 -0.5q-0.953125 -0.5 -1.5 -1.484375q-0.546875 -0.984375 -0.546875 -2.40625l0 -5.984375l1.671875 0l0 5.765625q0 1.5 0.765625 2.3125q0.765625 0.8125 2.09375 0.8125q1.359375 0 2.140625 -0.828125q0.796875 -0.84375 0.796875 -2.453125l0 -5.609375l1.6875 0zm7.8618774 -0.1875q1.859375 0 3.015625 1.125q1.15625 1.125 1.15625 3.25l0 6.03125l-1.671875 0l0 -5.78125q0 -1.53125 -0.765625 -2.34375q-0.765625 -0.8125 -2.09375 -0.8125q-1.34375 0 -2.140625 0.84375q-0.78125 0.84375 -0.78125 2.4375l0 5.65625l-1.703125 0l0 -10.21875l1.703125 0l0 1.453125q0.5 -0.78125 1.359375 -1.203125q0.875 -0.4375 1.921875 -0.4375zm9.018127 1.578125l0 6.03125q0 0.75 0.3125 1.0625q0.328125 0.296875 1.109375 0.296875l1.25 0l0 1.4375l-1.53125 0q-1.40625 0 -2.125 -0.65625q-0.703125 -0.65625 -0.703125 -2.140625l0 -6.03125l-1.328125 0l0 -1.390625l1.328125 0l0 -2.578125l1.6875 0l0 2.578125l2.671875 0l0 1.390625l-2.671875 0zm5.6033325 -3.0625q-0.484375 0 -0.828125 -0.328125q-0.328125 -0.34375 -0.328125 -0.828125q0 -0.484375 0.328125 -0.8125q0.34375 -0.34375 0.828125 -0.34375q0.46875 0 0.796875 0.34375q0.328125 0.328125 0.328125 0.8125q0 0.484375 -0.328125 0.828125q-0.328125 0.328125 -0.796875 0.328125zm0.828125 1.671875l0 10.21875l-1.703125 0l0 -10.21875l1.703125 0zm15.183228 -0.1875q1.1875 0 2.125 0.5q0.9375 0.484375 1.46875 1.484375q0.546875 0.984375 0.546875 2.390625l0 6.03125l-1.6875 0l0 -5.78125q0 -1.53125 -0.75 -2.34375q-0.75 -0.8125 -2.046875 -0.8125q-1.3125 0 -2.109375 0.859375q-0.78125 0.84375 -0.78125 2.4375l0 5.640625l-1.671875 0l0 -5.78125q0 -1.53125 -0.765625 -2.34375q-0.75 -0.8125 -2.03125 -0.8125q-1.328125 0 -2.109375 0.859375q-0.78125 0.84375 -0.78125 2.4375l0 5.640625l-1.703125 0l0 -10.21875l1.703125 0l0 1.46875q0.5 -0.796875 1.34375 -1.21875q0.84375 -0.4375 1.875 -0.4375q1.296875 0 2.28125 0.578125q0.984375 0.578125 1.46875 1.6875q0.4375 -1.078125 1.421875 -1.671875q0.984375 -0.59375 2.203125 -0.59375zm16.247192 4.90625q0 0.484375 -0.0625 1.015625l-8.171875 0q0.09375 1.515625 1.03125 2.375q0.953125 0.84375 2.296875 0.84375q1.09375 0 1.828125 -0.515625q0.75 -0.515625 1.046875 -1.375l1.828125 0q-0.40625 1.484375 -1.640625 2.40625q-1.234375 0.921875 -3.0625 0.921875q-1.453125 0 -2.609375 -0.65625q-1.140625 -0.65625 -1.796875 -1.859375q-0.65625 -1.203125 -0.65625 -2.78125q0 -1.59375 0.640625 -2.78125q0.640625 -1.203125 1.78125 -1.84375q1.140625 -0.640625 2.640625 -0.640625q1.453125 0 2.5625 0.640625q1.125 0.625 1.734375 1.734375q0.609375 1.109375 0.609375 2.515625zm-1.75 -0.359375q0 -0.96875 -0.4375 -1.671875q-0.421875 -0.703125 -1.171875 -1.0625q-0.734375 -0.359375 -1.625 -0.359375q-1.28125 0 -2.1875 0.828125q-0.90625 0.8125 -1.03125 2.265625l6.453125 0zm16.06372 -1.703125l0 1.4375l-7.4375 0l0 -1.4375l7.4375 0zm24.510803 -5.4375l-3.765625 13.0l-1.90625 0l-3.03125 -10.46875l-3.125 10.46875l-1.890625 0.015625l-3.640625 -13.015625l1.8125 0l2.84375 11.015625l3.125 -11.015625l1.90625 0l2.984375 10.984375l2.859375 -10.984375l1.828125 0zm11.192871 7.5q0 0.484375 -0.0625 1.015625l-8.171875 0q0.09375 1.515625 1.03125 2.375q0.953125 0.84375 2.296875 0.84375q1.09375 0 1.828125 -0.515625q0.75 -0.515625 1.046875 -1.375l1.828125 0q-0.40625 1.484375 -1.640625 2.40625q-1.234375 0.921875 -3.0625 0.921875q-1.453125 0 -2.609375 -0.65625q-1.140625 -0.65625 -1.796875 -1.859375q-0.65625 -1.203125 -0.65625 -2.78125q0 -1.59375 0.640625 -2.78125q0.640625 -1.203125 1.78125 -1.84375q1.140625 -0.640625 2.640625 -0.640625q1.453125 0 2.5625 0.640625q1.125 0.625 1.734375 1.734375q0.609375 1.109375 0.609375 2.515625zm-1.75 -0.359375q0 -0.96875 -0.4375 -1.671875q-0.421875 -0.703125 -1.171875 -1.0625q-0.734375 -0.359375 -1.625 -0.359375q-1.28125 0 -2.1875 0.828125q-0.90625 0.8125 -1.03125 2.265625l6.453125 0zm5.6918945 -2.46875q0.515625 -0.90625 1.515625 -1.484375q1.015625 -0.578125 2.296875 -0.578125q1.390625 0 2.484375 0.65625q1.109375 0.65625 1.734375 1.84375q0.640625 1.171875 0.640625 2.734375q0 1.5625 -0.640625 2.78125q-0.625 1.203125 -1.734375 1.875q-1.109375 0.671875 -2.484375 0.671875q-1.3125 0 -2.3125 -0.578125q-1.0 -0.578125 -1.5 -1.484375l0 1.890625l-1.703125 0l0 -13.8125l1.703125 0l0 5.484375zm6.9375 3.171875q0 -1.15625 -0.46875 -2.0q-0.46875 -0.859375 -1.265625 -1.3125q-0.78125 -0.453125 -1.734375 -0.453125q-0.9375 0 -1.734375 0.46875q-0.796875 0.453125 -1.265625 1.328125q-0.46875 0.859375 -0.46875 2.0q0 1.15625 0.46875 2.03125q0.46875 0.859375 1.265625 1.3125q0.796875 0.453125 1.734375 0.453125q0.953125 0 1.734375 -0.453125q0.796875 -0.453125 1.265625 -1.3125q0.46875 -0.875 0.46875 -2.0625zm11.658508 2.265625l-5.671875 0l-1.046875 2.890625l-1.796875 0l4.703125 -12.921875l1.96875 0l4.671875 12.921875l-1.78125 0l-1.046875 -2.890625zm-0.484375 -1.375l-2.359375 -6.578125l-2.34375 6.578125l4.703125 0zm8.996155 4.4375q-1.1875 0 -2.125 -0.40625q-0.921875 -0.40625 -1.46875 -1.125q-0.53125 -0.71875 -0.59375 -1.640625l1.75 0q0.078125 0.765625 0.71875 1.25q0.65625 0.484375 1.6875 0.484375q0.96875 0 1.53125 -0.421875q0.5625 -0.4375 0.5625 -1.09375q0 -0.671875 -0.59375 -1.0q-0.59375 -0.328125 -1.84375 -0.640625q-1.140625 -0.296875 -1.859375 -0.59375q-0.71875 -0.3125 -1.234375 -0.921875q-0.515625 -0.609375 -0.515625 -1.59375q0 -0.796875 0.46875 -1.4375q0.46875 -0.65625 1.328125 -1.03125q0.859375 -0.390625 1.953125 -0.390625q1.703125 0 2.75 0.859375q1.046875 0.859375 1.109375 2.34375l-1.6875 0q-0.0625 -0.796875 -0.65625 -1.28125q-0.578125 -0.484375 -1.5625 -0.484375q-0.921875 0 -1.46875 0.390625q-0.53125 0.390625 -0.53125 1.03125q0 0.5 0.328125 0.828125q0.328125 0.328125 0.8125 0.53125q0.5 0.1875 1.375 0.421875q1.109375 0.296875 1.796875 0.59375q0.6875 0.28125 1.171875 0.859375q0.5 0.578125 0.515625 1.515625q0 0.84375 -0.46875 1.515625q-0.453125 0.671875 -1.3125 1.0625q-0.84375 0.375 -1.9375 0.375zm9.738586 0q-1.1875 0 -2.125 -0.40625q-0.921875 -0.40625 -1.46875 -1.125q-0.53125 -0.71875 -0.59375 -1.640625l1.75 0q0.078125 0.765625 0.71875 1.25q0.65625 0.484375 1.6875 0.484375q0.96875 0 1.53125 -0.421875q0.5625 -0.4375 0.5625 -1.09375q0 -0.671875 -0.59375 -1.0q-0.59375 -0.328125 -1.84375 -0.640625q-1.140625 -0.296875 -1.859375 -0.59375q-0.71875 -0.3125 -1.234375 -0.921875q-0.515625 -0.609375 -0.515625 -1.59375q0 -0.796875 0.46875 -1.4375q0.46875 -0.65625 1.328125 -1.03125q0.859375 -0.390625 1.953125 -0.390625q1.703125 0 2.75 0.859375q1.046875 0.859375 1.109375 2.34375l-1.6875 0q-0.0625 -0.796875 -0.65625 -1.28125q-0.578125 -0.484375 -1.5625 -0.484375q-0.921875 0 -1.46875 0.390625q-0.53125 0.390625 -0.53125 1.03125q0 0.5 0.328125 0.828125q0.328125 0.328125 0.8125 0.53125q0.5 0.1875 1.375 0.421875q1.109375 0.296875 1.796875 0.59375q0.6875 0.28125 1.171875 0.859375q0.5 0.578125 0.515625 1.515625q0 0.84375 -0.46875 1.515625q-0.453125 0.671875 -1.3125 1.0625q-0.84375 0.375 -1.9375 0.375zm15.441711 -5.671875q0 0.484375 -0.0625 1.015625l-8.171875 0q0.09375 1.515625 1.03125 2.375q0.953125 0.84375 2.296875 0.84375q1.09375 0 1.828125 -0.515625q0.75 -0.515625 1.046875 -1.375l1.828125 0q-0.40625 1.484375 -1.640625 2.40625q-1.234375 0.921875 -3.0625 0.921875q-1.453125 0 -2.609375 -0.65625q-1.140625 -0.65625 -1.796875 -1.859375q-0.65625 -1.203125 -0.65625 -2.78125q0 -1.59375 0.640625 -2.78125q0.640625 -1.203125 1.78125 -1.84375q1.140625 -0.640625 2.640625 -0.640625q1.453125 0 2.5625 0.640625q1.125 0.625 1.734375 1.734375q0.609375 1.109375 0.609375 2.515625zm-1.75 -0.359375q0 -0.96875 -0.4375 -1.671875q-0.421875 -0.703125 -1.171875 -1.0625q-0.734375 -0.359375 -1.625 -0.359375q-1.28125 0 -2.1875 0.828125q-0.90625 0.8125 -1.03125 2.265625l6.453125 0zm16.285645 -4.546875q1.1875 0 2.125 0.5q0.9375 0.484375 1.46875 1.484375q0.546875 0.984375 0.546875 2.390625l0 6.03125l-1.6875 0l0 -5.78125q0 -1.53125 -0.75 -2.34375q-0.75 -0.8125 -2.046875 -0.8125q-1.3125 0 -2.109375 0.859375q-0.78125 0.84375 -0.78125 2.4375l0 5.640625l-1.671875 0l0 -5.78125q0 -1.53125 -0.765625 -2.34375q-0.75 -0.8125 -2.03125 -0.8125q-1.328125 0 -2.109375 0.859375q-0.78125 0.84375 -0.78125 2.4375l0 5.640625l-1.703125 0l0 -10.21875l1.703125 0l0 1.46875q0.5 -0.796875 1.34375 -1.21875q0.84375 -0.4375 1.875 -0.4375q1.296875 0 2.28125 0.578125q0.984375 0.578125 1.46875 1.6875q0.4375 -1.078125 1.421875 -1.671875q0.984375 -0.59375 2.203125 -0.59375zm8.622192 2.078125q0.515625 -0.90625 1.515625 -1.484375q1.015625 -0.578125 2.296875 -0.578125q1.390625 0 2.484375 0.65625q1.109375 0.65625 1.734375 1.84375q0.640625 1.171875 0.640625 2.734375q0 1.5625 -0.640625 2.78125q-0.625 1.203125 -1.734375 1.875q-1.109375 0.671875 -2.484375 0.671875q-1.3125 0 -2.3125 -0.578125q-1.0 -0.578125 -1.5 -1.484375l0 1.890625l-1.703125 0l0 -13.8125l1.703125 0l0 5.484375zm6.9375 3.171875q0 -1.15625 -0.46875 -2.0q-0.46875 -0.859375 -1.265625 -1.3125q-0.78125 -0.453125 -1.734375 -0.453125q-0.9375 0 -1.734375 0.46875q-0.796875 0.453125 -1.265625 1.328125q-0.46875 0.859375 -0.46875 2.0q0 1.15625 0.46875 2.03125q0.46875 0.859375 1.265625 1.3125q0.796875 0.453125 1.734375 0.453125q0.953125 0 1.734375 -0.453125q0.796875 -0.453125 1.265625 -1.3125q0.46875 -0.875 0.46875 -2.0625zm5.6741333 -8.65625l0 13.8125l-1.703125 0l0 -13.8125l1.703125 0zm11.69873 3.59375l-6.171875 15.03125l-1.75 0l2.015625 -4.921875l-4.125 -10.109375l1.890625 0l3.203125 8.28125l3.171875 -8.28125l1.765625 0z" fill-rule="nonzero"/></g></svg>