<svg version="1.1" viewBox="0.0 0.0 1256.5564304461943 628.7480314960629" fill="none" stroke="none" stroke-linecap="square" stroke-miterlimit="10" xmlns:xlink="http://www.w3.org/1999/xlink" xmlns="http://www.w3.org/2000/svg"><clipPath id="p.0"><path d="m0 0l1256.5564 0l0 628.74805l-1256.5564 0l0 -628.74805z" clip-rule="nonzero"/></clipPath><g clip-path="url(#p.0)"><path fill="#000000" fill-opacity="0.0" d="m0 0l1256.5564 0l0 628.74805l-1256.5564 0z" fill-rule="evenodd"/><path fill="#07154b" d="m31.164042 12.724409l1200.6929 0l0 596.31494l-1200.6929 0z" fill-rule="evenodd"/><path fill="#000000" fill-opacity="0.0" d="m631.5105 12.724409l0 596.31494" fill-rule="evenodd"/><path stroke="#ffffff" stroke-width="1.0" stroke-linejoin="round" stroke-linecap="butt" stroke-dasharray="1.0,3.0" d="m631.5105 12.724409l0 596.31494" fill-rule="evenodd"/><path fill="#000000" fill-opacity="0.0" d="m61.489258 292.39908l0 0c0 -3.2760925 2.6557922 -5.931885 5.931877 -5.931885l106.0575 0c1.5732269 0 3.0820312 0.6249695 4.1944733 1.7373962c1.112442 1.1124573 1.7374115 2.6212463 1.7374115 4.1944885l0 23.726776c0 3.2760925 -2.6557922 5.931885 -5.931885 5.931885l-106.0575 0c-3.276085 0 -5.931877 -2.6557922 -5.931877 -5.931885z" fill-rule="evenodd"/><path stroke="#8d3aed" stroke-width="1.0" stroke-linejoin="round" stroke-linecap="butt" d="m61.489258 292.39908l0 0c0 -3.2760925 2.6557922 -5.931885 5.931877 -5.931885l106.0575 0c1.5732269 0 3.0820312 0.6249695 4.1944733 1.7373962c1.112442 1.1124573 1.7374115 2.6212463 1.7374115 4.1944885l0 23.726776c0 3.2760925 -2.6557922 5.931885 -5.931885 5.931885l-106.0575 0c-3.276085 0 -5.931877 -2.6557922 -5.931877 -5.931885z" fill-rule="evenodd"/><path fill="#ffffff" d="m82.4207 308.78247l-3.4375 -3.8125l0 3.8125l-1.09375 0l0 -8.359375l1.09375 0l0 3.875l3.453125 -3.875l1.390625 0l-3.796875 4.1875l3.828125 4.171875l-1.4375 0zm3.2192993 -7.640625q-0.3125 0 -0.53125 -0.21875q-0.203125 -0.21875 -0.203125 -0.53125q0 -0.3125 0.203125 -0.515625q0.21875 -0.21875 0.53125 -0.21875q0.296875 0 0.5 0.21875q0.21875 0.203125 0.21875 0.515625q0 0.3125 -0.21875 0.53125q-0.203125 0.21875 -0.5 0.21875zm0.53125 1.0625l0 6.578125l-1.09375 0l0 -6.578125l1.09375 0zm1.4520264 3.265625q0 -1.0 0.40625 -1.765625q0.40625 -0.765625 1.125 -1.1875q0.71875 -0.421875 1.59375 -0.421875q0.859375 0 1.484375 0.375q0.640625 0.375 0.953125 0.9375l0 -1.203125l1.109375 0l0 6.578125l-1.109375 0l0 -1.21875q-0.3125 0.578125 -0.96875 0.953125q-0.640625 0.375 -1.484375 0.375q-0.875 0 -1.59375 -0.421875q-0.703125 -0.4375 -1.109375 -1.21875q-0.40625 -0.78125 -0.40625 -1.78125zm5.5625 0.015625q0 -0.75 -0.296875 -1.296875q-0.296875 -0.546875 -0.8125 -0.84375q-0.5 -0.296875 -1.109375 -0.296875q-0.625 0 -1.125 0.296875q-0.5 0.28125 -0.8125 0.828125q-0.296875 0.546875 -0.296875 1.296875q0 0.75 0.296875 1.3125q0.3125 0.5625 0.8125 0.859375q0.5 0.28125 1.125 0.28125q0.609375 0 1.109375 -0.28125q0.515625 -0.296875 0.8125 -0.859375q0.296875 -0.5625 0.296875 -1.296875zm6.1589355 -3.40625q1.203125 0 1.9375 0.734375q0.75 0.71875 0.75 2.09375l0 3.875l-1.078125 0l0 -3.71875q0 -0.984375 -0.5 -1.5q-0.484375 -0.53125 -1.328125 -0.53125q-0.875 0 -1.390625 0.546875q-0.5 0.53125 -0.5 1.5625l0 3.640625l-1.09375 0l0 -6.578125l1.09375 0l0 0.9375q0.328125 -0.5 0.875 -0.78125q0.5625 -0.28125 1.234375 -0.28125zm4.6488037 -1.65625l1.203125 0l-1.140625 2.71875l-0.765625 0l0.703125 -2.71875zm4.7842712 8.46875q-0.75 0 -1.359375 -0.25q-0.59375 -0.265625 -0.953125 -0.71875q-0.34375 -0.46875 -0.375 -1.078125l1.125 0q0.046875 0.5 0.453125 0.8125q0.421875 0.3125 1.09375 0.3125q0.625 0 0.984375 -0.28125q0.359375 -0.28125 0.359375 -0.6875q0 -0.4375 -0.390625 -0.640625q-0.375 -0.21875 -1.171875 -0.421875q-0.734375 -0.1875 -1.203125 -0.390625q-0.453125 -0.203125 -0.78125 -0.59375q-0.328125 -0.390625 -0.328125 -1.015625q0 -0.515625 0.296875 -0.921875q0.296875 -0.421875 0.84375 -0.671875q0.5625 -0.25 1.265625 -0.25q1.09375 0 1.765625 0.5625q0.671875 0.546875 0.71875 1.5l-1.09375 0q-0.03125 -0.515625 -0.421875 -0.828125q-0.375 -0.3125 -1.0 -0.3125q-0.59375 0 -0.953125 0.265625q-0.34375 0.25 -0.34375 0.65625q0 0.3125 0.203125 0.53125q0.21875 0.203125 0.53125 0.328125q0.328125 0.125 0.890625 0.28125q0.703125 0.203125 1.140625 0.390625q0.453125 0.1875 0.765625 0.5625q0.328125 0.359375 0.34375 0.96875q0 0.53125 -0.3125 0.96875q-0.296875 0.421875 -0.84375 0.671875q-0.546875 0.25 -1.25 0.25zm11.327438 -4.421875q0.453125 0.078125 0.828125 0.375q0.390625 0.296875 0.609375 0.75q0.21875 0.4375 0.21875 0.9375q0 0.640625 -0.328125 1.15625q-0.3125 0.5 -0.9375 0.796875q-0.609375 0.296875 -1.453125 0.296875l-3.125 0l0 -8.359375l3.0 0q0.859375 0 1.453125 0.28125q0.59375 0.28125 0.890625 0.765625q0.3125 0.46875 0.3125 1.078125q0 0.734375 -0.40625 1.21875q-0.40625 0.484375 -1.0625 0.703125zm-3.09375 -0.4375l1.84375 0q0.765625 0 1.171875 -0.359375q0.421875 -0.359375 0.421875 -1.0q0 -0.640625 -0.421875 -1.0q-0.40625 -0.359375 -1.203125 -0.359375l-1.8125 0l0 2.71875zm1.9375 3.84375q0.8125 0 1.265625 -0.375q0.453125 -0.390625 0.453125 -1.078125q0 -0.6875 -0.484375 -1.09375q-0.46875 -0.40625 -1.28125 -0.40625l-1.890625 0l0 2.953125l1.9375 0zm3.9185486 -2.40625q0 -1.0 0.40625 -1.765625q0.40625 -0.765625 1.125 -1.1875q0.71875 -0.421875 1.59375 -0.421875q0.859375 0 1.484375 0.375q0.640625 0.375 0.953125 0.9375l0 -1.203125l1.109375 0l0 6.578125l-1.109375 0l0 -1.21875q-0.3125 0.578125 -0.96875 0.953125q-0.640625 0.375 -1.484375 0.375q-0.875 0 -1.59375 -0.421875q-0.703125 -0.4375 -1.109375 -1.21875q-0.40625 -0.78125 -0.40625 -1.78125zm5.5625 0.015625q0 -0.75 -0.296875 -1.296875q-0.296875 -0.546875 -0.8125 -0.84375q-0.5 -0.296875 -1.109375 -0.296875q-0.625 0 -1.125 0.296875q-0.5 0.28125 -0.8125 0.828125q-0.296875 0.546875 -0.296875 1.296875q0 0.75 0.296875 1.3125q0.3125 0.5625 0.8125 0.859375q0.5 0.28125 1.125 0.28125q0.609375 0 1.109375 -0.28125q0.515625 -0.296875 0.8125 -0.859375q0.296875 -0.5625 0.296875 -1.296875zm4.0495605 -5.578125l0 8.875l-1.09375 0l0 -8.875l1.09375 0zm1.4520264 5.5625q0 -1.0 0.40625 -1.765625q0.40625 -0.765625 1.125 -1.1875q0.71875 -0.421875 1.59375 -0.421875q0.859375 0 1.484375 0.375q0.640625 0.375 0.953125 0.9375l0 -1.203125l1.109375 0l0 6.578125l-1.109375 0l0 -1.21875q-0.3125 0.578125 -0.96875 0.953125q-0.640625 0.375 -1.484375 0.375q-0.875 0 -1.59375 -0.421875q-0.703125 -0.4375 -1.109375 -1.21875q-0.40625 -0.78125 -0.40625 -1.78125zm5.5625 0.015625q0 -0.75 -0.296875 -1.296875q-0.296875 -0.546875 -0.8125 -0.84375q-0.5 -0.296875 -1.109375 -0.296875q-0.625 0 -1.125 0.296875q-0.5 0.28125 -0.8125 0.828125q-0.296875 0.546875 -0.296875 1.296875q0 0.75 0.296875 1.3125q0.3125 0.5625 0.8125 0.859375q0.5 0.28125 1.125 0.28125q0.609375 0 1.109375 -0.28125q0.515625 -0.296875 0.8125 -0.859375q0.296875 -0.5625 0.296875 -1.296875zm6.1589355 -3.40625q1.203125 0 1.9375 0.734375q0.75 0.71875 0.75 2.09375l0 3.875l-1.078125 0l0 -3.71875q0 -0.984375 -0.5 -1.5q-0.484375 -0.53125 -1.328125 -0.53125q-0.875 0 -1.390625 0.546875q-0.5 0.53125 -0.5 1.5625l0 3.640625l-1.09375 0l0 -6.578125l1.09375 0l0 0.9375q0.328125 -0.5 0.875 -0.78125q0.5625 -0.28125 1.234375 -0.28125zm4.0706787 3.40625q0 -1.015625 0.40625 -1.78125q0.40625 -0.765625 1.125 -1.1875q0.734375 -0.421875 1.671875 -0.421875q1.21875 0 2.0 0.59375q0.78125 0.578125 1.03125 1.625l-1.171875 0q-0.171875 -0.59375 -0.65625 -0.9375q-0.484375 -0.359375 -1.203125 -0.359375q-0.9375 0 -1.515625 0.65625q-0.578125 0.640625 -0.578125 1.8125q0 1.1875 0.578125 1.84375q0.578125 0.640625 1.515625 0.640625q0.71875 0 1.203125 -0.328125q0.484375 -0.34375 0.65625 -0.96875l1.171875 0q-0.265625 1.0 -1.0625 1.609375q-0.78125 0.609375 -1.96875 0.609375q-0.9375 0 -1.671875 -0.421875q-0.71875 -0.421875 -1.125 -1.1875q-0.40625 -0.765625 -0.40625 -1.796875zm13.690308 -0.25q0 0.3125 -0.03125 0.671875l-5.265625 0q0.0625 0.96875 0.671875 1.515625q0.609375 0.546875 1.46875 0.546875q0.703125 0 1.171875 -0.328125q0.484375 -0.328125 0.671875 -0.890625l1.1875 0q-0.265625 0.953125 -1.0625 1.546875q-0.796875 0.59375 -1.96875 0.59375q-0.9375 0 -1.671875 -0.421875q-0.734375 -0.421875 -1.15625 -1.1875q-0.421875 -0.78125 -0.421875 -1.796875q0 -1.015625 0.40625 -1.78125q0.40625 -0.78125 1.140625 -1.1875q0.75 -0.421875 1.703125 -0.421875q0.9375 0 1.65625 0.40625q0.71875 0.40625 1.109375 1.125q0.390625 0.71875 0.390625 1.609375zm-1.125 -0.21875q0 -0.625 -0.28125 -1.078125q-0.265625 -0.453125 -0.75 -0.6875q-0.46875 -0.234375 -1.046875 -0.234375q-0.828125 0 -1.40625 0.53125q-0.578125 0.53125 -0.671875 1.46875l4.15625 0z" fill-rule="nonzero"/><path fill="#000000" fill-opacity="0.0" d="m279.25592 421.5384l0 0c0 -9.515137 7.7135315 -17.228668 17.228668 -17.228668l283.9678 0c4.569336 0 8.951538 1.815155 12.182556 5.0461426c3.231018 3.231018 5.0461426 7.6131897 5.0461426 12.182526l0 68.91272c0 9.515137 -7.713562 17.228668 -17.228699 17.228668l-283.9678 0c-9.515137 0 -17.228668 -7.7135315 -17.228668 -17.228668z" fill-rule="evenodd"/><path stroke="#8d3aed" stroke-width="1.0" stroke-linejoin="round" stroke-linecap="butt" d="m279.25592 421.5384l0 0c0 -9.515137 7.7135315 -17.228668 17.228668 -17.228668l283.9678 0c4.569336 0 8.951538 1.815155 12.182556 5.0461426c3.231018 3.231018 5.0461426 7.6131897 5.0461426 12.182526l0 68.91272c0 9.515137 -7.713562 17.228668 -17.228699 17.228668l-283.9678 0c-9.515137 0 -17.228668 -7.7135315 -17.228668 -17.228668z" fill-rule="evenodd"/><path fill="#ffffff" d="m374.99036 446.21725q3.34375 0 5.78125 1.25q2.453125 1.234375 3.75 3.5625q1.3125 2.3125 1.3125 5.453125q0 3.140625 -1.3125 5.4375q-1.296875 2.296875 -3.75 3.515625q-2.4375 1.21875 -5.78125 1.21875l-6.359375 0l0 -20.4375l6.359375 0zm0 18.234375q3.953125 0 6.03125 -2.09375q2.09375 -2.09375 2.09375 -5.875q0 -3.8125 -2.109375 -5.953125q-2.09375 -2.140625 -6.015625 -2.140625l-3.703125 0l0 16.0625l3.703125 0zm13.37558 -5.890625q0 -2.46875 0.984375 -4.328125q1.0 -1.859375 2.75 -2.875q1.75 -1.03125 3.890625 -1.03125q2.109375 0 3.65625 0.90625q1.5625 0.90625 2.328125 2.28125l0 -2.9375l2.6875 0l0 16.078125l-2.6875 0l0 -2.984375q-0.796875 1.40625 -2.375 2.328125q-1.5625 0.921875 -3.640625 0.921875q-2.140625 0 -3.875 -1.046875q-1.734375 -1.0625 -2.734375 -2.96875q-0.984375 -1.90625 -0.984375 -4.34375zm13.609375 0.03125q0 -1.828125 -0.734375 -3.171875q-0.734375 -1.34375 -1.984375 -2.0625q-1.25 -0.71875 -2.734375 -0.71875q-1.5 0 -2.734375 0.703125q-1.234375 0.703125 -1.96875 2.0625q-0.734375 1.34375 -0.734375 3.15625q0 1.84375 0.734375 3.21875q0.734375 1.359375 1.96875 2.078125q1.234375 0.71875 2.734375 0.71875q1.484375 0 2.734375 -0.71875q1.25 -0.71875 1.984375 -2.078125q0.734375 -1.375 0.734375 -3.1875zm10.466431 -5.8125l0 9.46875q0 1.1875 0.5 1.671875q0.5 0.46875 1.734375 0.46875l1.953125 0l0 2.265625l-2.40625 0q-2.21875 0 -3.34375 -1.015625q-1.109375 -1.03125 -1.109375 -3.390625l0 -9.46875l-2.078125 0l0 -2.203125l2.078125 0l0 -4.046875l2.671875 0l0 4.046875l4.1875 0l0 2.203125l-4.1875 0zm6.425415 5.78125q0 -2.46875 0.984375 -4.328125q1.0 -1.859375 2.75 -2.875q1.75 -1.03125 3.890625 -1.03125q2.109375 0 3.65625 0.90625q1.5625 0.90625 2.328125 2.28125l0 -2.9375l2.6875 0l0 16.078125l-2.6875 0l0 -2.984375q-0.796875 1.40625 -2.375 2.328125q-1.5625 0.921875 -3.640625 0.921875q-2.140625 0 -3.875 -1.046875q-1.734375 -1.0625 -2.734375 -2.96875q-0.984375 -1.90625 -0.984375 -4.34375zm13.609375 0.03125q0 -1.828125 -0.734375 -3.171875q-0.734375 -1.34375 -1.984375 -2.0625q-1.25 -0.71875 -2.734375 -0.71875q-1.5 0 -2.734375 0.703125q-1.234375 0.703125 -1.96875 2.0625q-0.734375 1.34375 -0.734375 3.15625q0 1.84375 0.734375 3.21875q0.734375 1.359375 1.96875 2.078125q1.234375 0.71875 2.734375 0.71875q1.484375 0 2.734375 -0.71875q1.25 -0.71875 1.984375 -2.078125q0.734375 -1.375 0.734375 -3.1875zm9.872681 -5.015625q0.828125 -1.4375 2.40625 -2.34375q1.59375 -0.90625 3.609375 -0.90625q2.171875 0 3.90625 1.03125q1.734375 1.015625 2.71875 2.875q1.0 1.859375 1.0 4.328125q0 2.4375 -1.0 4.34375q-0.984375 1.90625 -2.734375 2.96875q-1.75 1.046875 -3.890625 1.046875q-2.078125 0 -3.65625 -0.90625q-1.5625 -0.90625 -2.359375 -2.328125l0 2.96875l-2.65625 0l0 -21.703125l2.65625 0l0 8.625zm10.921875 4.984375q0 -1.8125 -0.734375 -3.15625q-0.734375 -1.359375 -1.984375 -2.0625q-1.25 -0.703125 -2.75 -0.703125q-1.453125 0 -2.703125 0.71875q-1.25 0.71875 -2.0 2.078125q-0.75 1.359375 -0.75 3.15625q0 1.8125 0.75 3.1875q0.75 1.359375 2.0 2.078125q1.25 0.71875 2.703125 0.71875q1.5 0 2.75 -0.71875q1.25 -0.71875 1.984375 -2.078125q0.734375 -1.375 0.734375 -3.21875zm5.2476807 0q0 -2.46875 0.984375 -4.328125q1.0 -1.859375 2.75 -2.875q1.75 -1.03125 3.890625 -1.03125q2.109375 0 3.65625 0.90625q1.5625 0.90625 2.328125 2.28125l0 -2.9375l2.6875 0l0 16.078125l-2.6875 0l0 -2.984375q-0.796875 1.40625 -2.375 2.328125q-1.5625 0.921875 -3.640625 0.921875q-2.140625 0 -3.875 -1.046875q-1.734375 -1.0625 -2.734375 -2.96875q-0.984375 -1.90625 -0.984375 -4.34375zm13.609375 0.03125q0 -1.828125 -0.734375 -3.171875q-0.734375 -1.34375 -1.984375 -2.0625q-1.25 -0.71875 -2.734375 -0.71875q-1.5 0 -2.734375 0.703125q-1.234375 0.703125 -1.96875 2.0625q-0.734375 1.34375 -0.734375 3.15625q0 1.84375 0.734375 3.21875q0.734375 1.359375 1.96875 2.078125q1.234375 0.71875 2.734375 0.71875q1.484375 0 2.734375 -0.71875q1.25 -0.71875 1.984375 -2.078125q0.734375 -1.375 0.734375 -3.1875zm12.903931 8.328125q-1.859375 0 -3.328125 -0.625q-1.453125 -0.640625 -2.3125 -1.765625q-0.84375 -1.125 -0.9375 -2.59375l2.765625 0q0.109375 1.203125 1.125 1.96875q1.015625 0.75 2.65625 0.75q1.515625 0 2.390625 -0.671875q0.890625 -0.671875 0.890625 -1.703125q0 -1.046875 -0.9375 -1.5625q-0.9375 -0.515625 -2.90625 -1.015625q-1.78125 -0.46875 -2.921875 -0.953125q-1.125 -0.484375 -1.9375 -1.4375q-0.796875 -0.953125 -0.796875 -2.5q0 -1.234375 0.734375 -2.265625q0.734375 -1.03125 2.078125 -1.625q1.34375 -0.59375 3.078125 -0.59375q2.671875 0 4.3125 1.34375q1.640625 1.34375 1.765625 3.6875l-2.671875 0q-0.09375 -1.25 -1.015625 -2.015625q-0.921875 -0.765625 -2.46875 -0.765625q-1.4375 0 -2.296875 0.625q-0.84375 0.609375 -0.84375 1.609375q0 0.78125 0.5 1.296875q0.515625 0.515625 1.296875 0.828125q0.78125 0.296875 2.15625 0.6875q1.734375 0.46875 2.8125 0.921875q1.09375 0.453125 1.859375 1.359375q0.78125 0.90625 0.8125 2.375q0 1.328125 -0.734375 2.390625q-0.734375 1.046875 -2.078125 1.65625q-1.328125 0.59375 -3.046875 0.59375zm24.278015 -8.921875q0 0.765625 -0.09375 1.625l-12.84375 0q0.15625 2.375 1.625 3.703125q1.484375 1.328125 3.59375 1.328125q1.734375 0 2.890625 -0.796875q1.15625 -0.8125 1.625 -2.15625l2.875 0q-0.640625 2.3125 -2.578125 3.765625q-1.9375 1.453125 -4.8125 1.453125q-2.28125 0 -4.09375 -1.015625q-1.796875 -1.03125 -2.828125 -2.921875q-1.015625 -1.90625 -1.015625 -4.390625q0 -2.5 0.984375 -4.375q1.0 -1.875 2.796875 -2.875q1.8125 -1.015625 4.15625 -1.015625q2.296875 0 4.046875 1.0q1.765625 0.984375 2.71875 2.734375q0.953125 1.75 0.953125 3.9375zm-2.75 -0.546875q0 -1.53125 -0.6875 -2.625q-0.671875 -1.109375 -1.828125 -1.671875q-1.15625 -0.578125 -2.5625 -0.578125q-2.03125 0 -3.453125 1.296875q-1.421875 1.28125 -1.625 3.578125l10.15625 0z" fill-rule="nonzero"/><path fill="#000000" fill-opacity="0.0" d="m271.99606 110.57021l0 0c0 -9.515144 7.713562 -17.228691 17.228699 -17.228691l298.48752 0c4.569336 0 8.951477 1.8151627 12.182495 5.046173c3.231018 3.2310028 5.0461426 7.6131897 5.0461426 12.182518l0 68.9127c0 9.515152 -7.713501 17.228699 -17.228638 17.228699l-298.48752 0c-9.515137 0 -17.228699 -7.7135468 -17.228699 -17.228699z" fill-rule="evenodd"/><path stroke="#8d3aed" stroke-width="1.0" stroke-linejoin="round" stroke-linecap="butt" d="m271.99606 110.57021l0 0c0 -9.515144 7.713562 -17.228691 17.228699 -17.228691l298.48752 0c4.569336 0 8.951477 1.8151627 12.182495 5.046173c3.231018 3.2310028 5.0461426 7.6131897 5.0461426 12.182518l0 68.9127c0 9.515152 -7.713501 17.228699 -17.228638 17.228699l-298.48752 0c-9.515137 0 -17.228699 -7.7135468 -17.228699 -17.228699z" fill-rule="evenodd"/><path fill="#ffffff" d="m410.86353 138.28906l0 1.484375l-3.8125 0l0 12.453125l-1.8125 0l0 -12.453125l-3.8125 0l0 -1.484375l9.4375 0zm7.9606323 13.9375l-2.609375 -4.078125l-2.5 4.078125l-1.890625 0l3.53125 -5.4375l-3.53125 -5.515625l2.046875 0l2.609375 4.046875l2.484375 -4.046875l1.890625 0l-3.515625 5.40625l3.53125 5.546875l-2.046875 0zm11.454987 -8.09375l0 1.53125l-7.984375 0l0 -1.53125l7.984375 0zm5.238739 -0.84375q0.546875 -0.9375 1.609375 -1.5625q1.078125 -0.640625 2.484375 -0.640625q1.46875 0 2.65625 0.703125q1.1875 0.703125 1.859375 1.96875q0.6875 1.265625 0.6875 2.953125q0 1.65625 -0.6875 2.953125q-0.671875 1.296875 -1.859375 2.03125q-1.1875 0.71875 -2.65625 0.71875q-1.390625 0 -2.46875 -0.625q-1.0625 -0.640625 -1.625 -1.578125l0 7.21875l-1.8125 0l0 -16.15625l1.8125 0l0 2.015625zm7.4375 3.421875q0 -1.25 -0.5 -2.15625q-0.5 -0.921875 -1.359375 -1.40625q-0.84375 -0.484375 -1.859375 -0.484375q-1.0 0 -1.859375 0.5q-0.84375 0.484375 -1.359375 1.421875q-0.5 0.921875 -0.5 2.140625q0 1.234375 0.5 2.171875q0.515625 0.921875 1.359375 1.421875q0.859375 0.484375 1.859375 0.484375q1.015625 0 1.859375 -0.484375q0.859375 -0.5 1.359375 -1.421875q0.5 -0.9375 0.5 -2.1875zm9.035614 5.703125q-1.53125 0 -2.78125 -0.703125q-1.25 -0.703125 -1.96875 -1.984375q-0.703125 -1.296875 -0.703125 -3.0q0 -1.6875 0.71875 -2.96875q0.734375 -1.296875 2.0 -1.984375q1.265625 -0.6875 2.828125 -0.6875q1.546875 0 2.8125 0.6875q1.265625 0.6875 1.984375 1.96875q0.734375 1.28125 0.734375 2.984375q0 1.703125 -0.75 3.0q-0.75 1.28125 -2.03125 1.984375q-1.28125 0.703125 -2.84375 0.703125zm0 -1.609375q0.984375 0 1.84375 -0.453125q0.859375 -0.46875 1.390625 -1.390625q0.53125 -0.921875 0.53125 -2.234375q0 -1.3125 -0.515625 -2.234375q-0.515625 -0.921875 -1.359375 -1.375q-0.84375 -0.453125 -1.828125 -0.453125q-1.0 0 -1.828125 0.453125q-0.828125 0.453125 -1.328125 1.375q-0.5 0.921875 -0.5 2.234375q0 1.34375 0.484375 2.265625q0.5 0.921875 1.3125 1.375q0.828125 0.4375 1.796875 0.4375zm12.799988 1.609375q-1.53125 0 -2.78125 -0.703125q-1.25 -0.703125 -1.96875 -1.984375q-0.703125 -1.296875 -0.703125 -3.0q0 -1.6875 0.71875 -2.96875q0.734375 -1.296875 2.0 -1.984375q1.265625 -0.6875 2.828125 -0.6875q1.546875 0 2.8125 0.6875q1.265625 0.6875 1.984375 1.96875q0.734375 1.28125 0.734375 2.984375q0 1.703125 -0.75 3.0q-0.75 1.28125 -2.03125 1.984375q-1.28125 0.703125 -2.84375 0.703125zm0 -1.609375q0.984375 0 1.84375 -0.453125q0.859375 -0.46875 1.390625 -1.390625q0.53125 -0.921875 0.53125 -2.234375q0 -1.3125 -0.515625 -2.234375q-0.515625 -0.921875 -1.359375 -1.375q-0.84375 -0.453125 -1.828125 -0.453125q-1.0 0 -1.828125 0.453125q-0.828125 0.453125 -1.328125 1.375q-0.5 0.921875 -0.5 2.234375q0 1.34375 0.484375 2.265625q0.5 0.921875 1.3125 1.375q0.828125 0.4375 1.796875 0.4375zm9.846863 -13.375l0 14.796875l-1.8125 0l0 -14.796875l1.8125 0z" fill-rule="nonzero"/><path fill="#000000" fill-opacity="0.0" d="m61.489223 333.52505l0 0c0 -3.2760925 2.6557884 -5.931885 5.9318733 -5.931885l106.05751 0c1.5732269 0 3.0820312 0.6249695 4.1944733 1.7374268c1.112442 1.1124268 1.7373962 2.6212158 1.7373962 4.194458l0 23.726807c0 3.276062 -2.6557922 5.9318542 -5.9318695 5.9318542l-106.05751 0c-3.276085 0 -5.9318733 -2.6557922 -5.9318733 -5.9318542z" fill-rule="evenodd"/><path stroke="#8d3aed" stroke-width="1.0" stroke-linejoin="round" stroke-linecap="butt" d="m61.489223 333.52505l0 0c0 -3.2760925 2.6557884 -5.931885 5.9318733 -5.931885l106.05751 0c1.5732269 0 3.0820312 0.6249695 4.1944733 1.7374268c1.112442 1.1124268 1.7373962 2.6212158 1.7373962 4.194458l0 23.726807c0 3.276062 -2.6557922 5.9318542 -5.9318695 5.9318542l-106.05751 0c-3.276085 0 -5.9318733 -2.6557922 -5.9318733 -5.9318542z" fill-rule="evenodd"/><path fill="#ffffff" d="m97.72338 341.54907l-3.15625 8.359375l-1.265625 0l-3.15625 -8.359375l1.15625 0l2.640625 7.203125l2.625 -7.203125l1.15625 0zm0.78393555 5.046875q0 -1.0 0.40625 -1.765625q0.40625 -0.765625 1.125 -1.1875q0.71875 -0.421875 1.59375 -0.421875q0.859375 0 1.484375 0.375q0.640625 0.375 0.953125 0.9375l0 -1.203125l1.109375 0l0 6.578125l-1.109375 0l0 -1.21875q-0.3125 0.578125 -0.96875 0.953125q-0.640625 0.375 -1.484375 0.375q-0.875 0 -1.59375 -0.421875q-0.703125 -0.4375 -1.109375 -1.21875q-0.40625 -0.78125 -0.40625 -1.78125zm5.5625 0.015625q0 -0.75 -0.296875 -1.296875q-0.296875 -0.546875 -0.8125 -0.84375q-0.5 -0.296875 -1.109375 -0.296875q-0.625 0 -1.125 0.296875q-0.5 0.28125 -0.8125 0.828125q-0.296875 0.546875 -0.296875 1.296875q0 0.75 0.296875 1.3125q0.3125 0.5625 0.8125 0.859375q0.5 0.28125 1.125 0.28125q0.609375 0 1.109375 -0.28125q0.515625 -0.296875 0.8125 -0.859375q0.296875 -0.5625 0.296875 -1.296875zm4.0495605 -5.578125l0 8.875l-1.09375 0l0 -8.875l1.09375 0zm2.4207764 1.234375q-0.3125 0 -0.53125 -0.21875q-0.203125 -0.21875 -0.203125 -0.53125q0 -0.3125 0.203125 -0.515625q0.21875 -0.21875 0.53125 -0.21875q0.296875 0 0.5 0.21875q0.21875 0.203125 0.21875 0.515625q0 0.3125 -0.21875 0.53125q-0.203125 0.21875 -0.5 0.21875zm0.53125 1.0625l0 6.578125l-1.09375 0l0 -6.578125l1.09375 0zm1.4520264 3.265625q0 -1.0 0.40625 -1.765625q0.40625 -0.765625 1.125 -1.1875q0.71875 -0.421875 1.59375 -0.421875q0.78125 0 1.4375 0.359375q0.65625 0.359375 1.0 0.921875l0 -3.46875l1.109375 0l0 8.875l-1.109375 0l0 -1.234375q-0.3125 0.59375 -0.953125 0.96875q-0.640625 0.375 -1.484375 0.375q-0.875 0 -1.59375 -0.421875q-0.71875 -0.4375 -1.125 -1.21875q-0.40625 -0.78125 -0.40625 -1.78125zm5.5625 0.015625q0 -0.75 -0.296875 -1.296875q-0.296875 -0.546875 -0.8125 -0.84375q-0.5 -0.296875 -1.109375 -0.296875q-0.625 0 -1.125 0.296875q-0.5 0.28125 -0.8125 0.828125q-0.296875 0.546875 -0.296875 1.296875q0 0.75 0.296875 1.3125q0.3125 0.5625 0.8125 0.859375q0.5 0.28125 1.125 0.28125q0.609375 0 1.109375 -0.28125q0.515625 -0.296875 0.8125 -0.859375q0.296875 -0.5625 0.296875 -1.296875zm2.5495605 -0.015625q0 -1.0 0.40625 -1.765625q0.40625 -0.765625 1.125 -1.1875q0.71875 -0.421875 1.59375 -0.421875q0.859375 0 1.484375 0.375q0.640625 0.375 0.953125 0.9375l0 -1.203125l1.109375 0l0 6.578125l-1.109375 0l0 -1.21875q-0.3125 0.578125 -0.96875 0.953125q-0.640625 0.375 -1.484375 0.375q-0.875 0 -1.59375 -0.421875q-0.703125 -0.4375 -1.109375 -1.21875q-0.40625 -0.78125 -0.40625 -1.78125zm5.5625 0.015625q0 -0.75 -0.296875 -1.296875q-0.296875 -0.546875 -0.8125 -0.84375q-0.5 -0.296875 -1.109375 -0.296875q-0.625 0 -1.125 0.296875q-0.5 0.28125 -0.8125 0.828125q-0.296875 0.546875 -0.296875 1.296875q0 0.75 0.296875 1.3125q0.3125 0.5625 0.8125 0.859375q0.5 0.28125 1.125 0.28125q0.609375 0 1.109375 -0.28125q0.515625 -0.296875 0.8125 -0.859375q0.296875 -0.5625 0.296875 -1.296875zm4.283943 -2.375l0 3.875q0 0.484375 0.203125 0.6875q0.203125 0.1875 0.71875 0.1875l0.796875 0l0 0.921875l-0.984375 0q-0.90625 0 -1.375 -0.421875q-0.453125 -0.421875 -0.453125 -1.375l0 -3.875l-0.84375 0l0 -0.90625l0.84375 0l0 -1.65625l1.09375 0l0 1.65625l1.71875 0l0 0.90625l-1.71875 0zm5.9149017 5.78125q-0.921875 0 -1.671875 -0.421875q-0.75 -0.421875 -1.1875 -1.1875q-0.421875 -0.78125 -0.421875 -1.796875q0 -1.015625 0.4375 -1.78125q0.4375 -0.78125 1.1875 -1.1875q0.765625 -0.421875 1.703125 -0.421875q0.9375 0 1.6875 0.421875q0.75 0.40625 1.1875 1.1875q0.4375 0.765625 0.4375 1.78125q0 1.015625 -0.453125 1.796875q-0.4375 0.765625 -1.203125 1.1875q-0.765625 0.421875 -1.703125 0.421875zm0 -0.96875q0.578125 0 1.09375 -0.265625q0.515625 -0.28125 0.828125 -0.828125q0.328125 -0.5625 0.328125 -1.34375q0 -0.796875 -0.3125 -1.34375q-0.3125 -0.5625 -0.8125 -0.828125q-0.5 -0.265625 -1.09375 -0.265625q-0.59375 0 -1.09375 0.265625q-0.5 0.265625 -0.8125 0.828125q-0.296875 0.546875 -0.296875 1.34375q0 0.796875 0.296875 1.359375q0.296875 0.546875 0.78125 0.8125q0.5 0.265625 1.09375 0.265625zm5.8988037 -4.65625q0.28125 -0.5625 0.8125 -0.875q0.546875 -0.3125 1.3125 -0.3125l0 1.140625l-0.28125 0q-1.84375 0 -1.84375 1.984375l0 3.578125l-1.09375 0l0 -6.578125l1.09375 0l0 1.0625zm5.7104034 5.625q-0.75 0 -1.359375 -0.25q-0.59375 -0.265625 -0.953125 -0.71875q-0.34375 -0.46875 -0.375 -1.078125l1.125 0q0.046875 0.5 0.453125 0.8125q0.421875 0.3125 1.09375 0.3125q0.625 0 0.984375 -0.28125q0.359375 -0.28125 0.359375 -0.6875q0 -0.4375 -0.390625 -0.640625q-0.375 -0.21875 -1.171875 -0.421875q-0.734375 -0.1875 -1.203125 -0.390625q-0.453125 -0.203125 -0.78125 -0.59375q-0.328125 -0.390625 -0.328125 -1.015625q0 -0.515625 0.296875 -0.921875q0.296875 -0.421875 0.84375 -0.671875q0.5625 -0.25 1.265625 -0.25q1.09375 0 1.765625 0.5625q0.671875 0.546875 0.71875 1.5l-1.09375 0q-0.03125 -0.515625 -0.421875 -0.828125q-0.375 -0.3125 -1.0 -0.3125q-0.59375 0 -0.953125 0.265625q-0.34375 0.25 -0.34375 0.65625q0 0.3125 0.203125 0.53125q0.21875 0.203125 0.53125 0.328125q0.328125 0.125 0.890625 0.28125q0.703125 0.203125 1.140625 0.390625q0.453125 0.1875 0.765625 0.5625q0.328125 0.359375 0.34375 0.96875q0 0.53125 -0.3125 0.96875q-0.296875 0.421875 -0.84375 0.671875q-0.546875 0.25 -1.25 0.25z" fill-rule="nonzero"/><path fill="#000000" fill-opacity="0.0" d="m61.489223 374.65103l0 0c0 -3.2760925 2.6557884 -5.931885 5.9318733 -5.931885l106.05751 0c1.5732269 0 3.0820312 0.6249695 4.1944733 1.7374268c1.112442 1.1124268 1.7373962 2.6212463 1.7373962 4.194458l0 23.726807c0 3.2760925 -2.6557922 5.931885 -5.9318695 5.931885l-106.05751 0c-3.276085 0 -5.9318733 -2.6557922 -5.9318733 -5.931885z" fill-rule="evenodd"/><path stroke="#8d3aed" stroke-width="1.0" stroke-linejoin="round" stroke-linecap="butt" d="m61.489223 374.65103l0 0c0 -3.2760925 2.6557884 -5.931885 5.9318733 -5.931885l106.05751 0c1.5732269 0 3.0820312 0.6249695 4.1944733 1.7374268c1.112442 1.1124268 1.7373962 2.6212463 1.7373962 4.194458l0 23.726807c0 3.2760925 -2.6557922 5.931885 -5.9318695 5.931885l-106.05751 0c-3.276085 0 -5.9318733 -2.6557922 -5.9318733 -5.931885z" fill-rule="evenodd"/><path fill="#ffffff" d="m99.4038 384.11255q-0.828125 0 -1.484375 -0.28125q-0.65625 -0.296875 -1.03125 -0.8125q-0.359375 -0.53125 -0.375 -1.21875l1.15625 0q0.0625 0.59375 0.484375 1.0q0.4375 0.390625 1.25 0.390625q0.78125 0 1.21875 -0.390625q0.453125 -0.390625 0.453125 -1.0q0 -0.484375 -0.265625 -0.78125q-0.25 -0.296875 -0.65625 -0.453125q-0.390625 -0.15625 -1.0625 -0.328125q-0.828125 -0.21875 -1.328125 -0.4375q-0.5 -0.21875 -0.859375 -0.671875q-0.34375 -0.46875 -0.34375 -1.25q0 -0.6875 0.34375 -1.203125q0.34375 -0.53125 0.96875 -0.8125q0.640625 -0.296875 1.453125 -0.296875q1.1875 0 1.9375 0.59375q0.75 0.578125 0.84375 1.546875l-1.203125 0q-0.0625 -0.46875 -0.515625 -0.828125q-0.4375 -0.375 -1.171875 -0.375q-0.671875 0 -1.109375 0.359375q-0.4375 0.34375 -0.4375 0.984375q0 0.453125 0.25 0.75q0.265625 0.28125 0.640625 0.4375q0.390625 0.140625 1.0625 0.328125q0.828125 0.234375 1.328125 0.453125q0.515625 0.21875 0.875 0.6875q0.359375 0.453125 0.359375 1.25q0 0.609375 -0.328125 1.15625q-0.3125 0.53125 -0.953125 0.875q-0.640625 0.328125 -1.5 0.328125zm7.653427 -6.78125q0.75 0 1.34375 0.328125q0.59375 0.3125 0.9375 0.953125q0.34375 0.640625 0.34375 1.546875l0 3.875l-1.078125 0l0 -3.71875q0 -0.984375 -0.5 -1.5q-0.484375 -0.53125 -1.328125 -0.53125q-0.875 0 -1.390625 0.546875q-0.5 0.53125 -0.5 1.5625l0 3.640625l-1.09375 0l0 -8.875l1.09375 0l0 3.234375q0.328125 -0.5 0.890625 -0.78125q0.578125 -0.28125 1.28125 -0.28125zm4.0081787 3.390625q0 -1.0 0.40625 -1.765625q0.40625 -0.765625 1.125 -1.1875q0.71875 -0.421875 1.59375 -0.421875q0.859375 0 1.484375 0.375q0.640625 0.375 0.953125 0.9375l0 -1.203125l1.109375 0l0 6.578125l-1.109375 0l0 -1.21875q-0.3125 0.578125 -0.96875 0.953125q-0.640625 0.375 -1.484375 0.375q-0.875 0 -1.59375 -0.421875q-0.703125 -0.4375 -1.109375 -1.21875q-0.40625 -0.78125 -0.40625 -1.78125zm5.5625 0.015625q0 -0.75 -0.296875 -1.296875q-0.296875 -0.546875 -0.8125 -0.84375q-0.5 -0.296875 -1.109375 -0.296875q-0.625 0 -1.125 0.296875q-0.5 0.28125 -0.8125 0.828125q-0.296875 0.546875 -0.296875 1.296875q0 0.75 0.296875 1.3125q0.3125 0.5625 0.8125 0.859375q0.5 0.28125 1.125 0.28125q0.609375 0 1.109375 -0.28125q0.515625 -0.296875 0.8125 -0.859375q0.296875 -0.5625 0.296875 -1.296875zm11.721443 -3.28125l-2.0625076 6.578125l-1.125 0l-1.578125 -5.21875l-1.578125 5.21875l-1.140625 0l-2.0625 -6.578125l1.125 0l1.5 5.515625l1.640625 -5.515625l1.109375 0l1.59375 5.53125l1.5 -5.53125l1.0781326 0zm4.2775726 -0.125q1.203125 0 1.9375 0.734375q0.75 0.71875 0.75 2.09375l0 3.875l-1.078125 0l0 -3.71875q0 -0.984375 -0.5 -1.5q-0.484375 -0.53125 -1.328125 -0.53125q-0.875 0 -1.390625 0.546875q-0.5 0.53125 -0.5 1.5625l0 3.640625l-1.09375 0l0 -6.578125l1.09375 0l0 0.9375q0.328125 -0.5 0.875 -0.78125q0.5625 -0.28125 1.234375 -0.28125zm4.6488037 -1.65625l1.203125 0l-1.140625 2.71875l-0.765625 0l0.703125 -2.71875zm4.7842712 8.46875q-0.75 0 -1.359375 -0.25q-0.59375 -0.265625 -0.953125 -0.71875q-0.34375 -0.46875 -0.375 -1.078125l1.125 0q0.046875 0.5 0.453125 0.8125q0.421875 0.3125 1.09375 0.3125q0.625 0 0.984375 -0.28125q0.359375 -0.28125 0.359375 -0.6875q0 -0.4375 -0.390625 -0.640625q-0.375 -0.21875 -1.171875 -0.421875q-0.734375 -0.1875 -1.203125 -0.390625q-0.453125 -0.203125 -0.78125 -0.59375q-0.328125 -0.390625 -0.328125 -1.015625q0 -0.515625 0.296875 -0.921875q0.296875 -0.421875 0.84375 -0.671875q0.5625 -0.25 1.265625 -0.25q1.09375 0 1.765625 0.5625q0.671875 0.546875 0.71875 1.5l-1.09375 0q-0.03125 -0.515625 -0.421875 -0.828125q-0.375 -0.3125 -1.0 -0.3125q-0.59375 0 -0.953125 0.265625q-0.34375 0.25 -0.34375 0.65625q0 0.3125 0.203125 0.53125q0.21875 0.203125 0.53125 0.328125q0.328125 0.125 0.890625 0.28125q0.703125 0.203125 1.140625 0.390625q0.453125 0.1875 0.765625 0.5625q0.328125 0.359375 0.34375 0.96875q0 0.53125 -0.3125 0.96875q-0.296875 0.421875 -0.84375 0.671875q-0.546875 0.25 -1.25 0.25z" fill-rule="nonzero"/><path fill="#ffffff" d="m97.61929 392.67505q0.34375 -0.578125 0.984375 -0.953125q0.640625 -0.375 1.46875 -0.375q0.890625 0 1.59375 0.421875q0.71875 0.421875 1.125 1.1875q0.40625 0.765625 0.40625 1.765625q0 1.0 -0.40625 1.78125q-0.40625 0.78125 -1.125 1.21875q-0.703125 0.421875 -1.59375 0.421875q-0.84375 0 -1.484375 -0.375q-0.640625 -0.375 -0.96875 -0.953125l0 1.21875l-1.09375 0l0 -8.875l1.09375 0l0 3.515625zm4.46875 2.046875q0 -0.75 -0.3125 -1.296875q-0.296875 -0.546875 -0.8125 -0.828125q-0.5 -0.296875 -1.109375 -0.296875q-0.609375 0 -1.125 0.296875q-0.5 0.296875 -0.8125 0.859375q-0.296875 0.546875 -0.296875 1.28125q0 0.734375 0.296875 1.296875q0.3125 0.5625 0.8125 0.859375q0.515625 0.28125 1.125 0.28125q0.609375 0 1.109375 -0.28125q0.515625 -0.296875 0.8125 -0.859375q0.3125 -0.5625 0.3125 -1.3125zm2.1433105 0q0 -1.0 0.40625 -1.765625q0.40625 -0.765625 1.125 -1.1875q0.71875 -0.421875 1.59375 -0.421875q0.859375 0 1.484375 0.375q0.640625 0.375 0.953125 0.9375l0 -1.203125l1.109375 0l0 6.578125l-1.109375 0l0 -1.21875q-0.3125 0.578125 -0.96875 0.953125q-0.640625 0.375 -1.484375 0.375q-0.875 0 -1.59375 -0.421875q-0.703125 -0.4375 -1.109375 -1.21875q-0.40625 -0.78125 -0.40625 -1.78125zm5.5625 0.015625q0 -0.75 -0.296875 -1.296875q-0.296875 -0.546875 -0.8125 -0.84375q-0.5 -0.296875 -1.109375 -0.296875q-0.625 0 -1.125 0.296875q-0.5 0.28125 -0.8125 0.828125q-0.296875 0.546875 -0.296875 1.296875q0 0.75 0.296875 1.3125q0.3125 0.5625 0.8125 0.859375q0.5 0.28125 1.125 0.28125q0.609375 0 1.109375 -0.28125q0.515625 -0.296875 0.8125 -0.859375q0.296875 -0.5625 0.296875 -1.296875zm4.0495605 -5.578125l0 8.875l-1.09375 0l0 -8.875l1.09375 0zm1.4520264 5.5625q0 -1.0 0.40625 -1.765625q0.40625 -0.765625 1.125 -1.1875q0.71875 -0.421875 1.59375 -0.421875q0.859375 0 1.484375 0.375q0.640625 0.375 0.953125 0.9375l0 -1.203125l1.109375 0l0 6.578125l-1.109375 0l0 -1.21875q-0.3125 0.578125 -0.96875 0.953125q-0.640625 0.375 -1.484375 0.375q-0.875 0 -1.59375 -0.421875q-0.703125 -0.4375 -1.109375 -1.21875q-0.40625 -0.78125 -0.40625 -1.78125zm5.5625 0.015625q0 -0.75 -0.296875 -1.296875q-0.296875 -0.546875 -0.8125 -0.84375q-0.5 -0.296875 -1.109375 -0.296875q-0.625 0 -1.125 0.296875q-0.5 0.28125 -0.8125 0.828125q-0.296875 0.546875 -0.296875 1.296875q0 0.75 0.296875 1.3125q0.3125 0.5625 0.8125 0.859375q0.5 0.28125 1.125 0.28125q0.609375 0 1.109375 -0.28125q0.515625 -0.296875 0.8125 -0.859375q0.296875 -0.5625 0.296875 -1.296875zm6.1589355 -3.40625q1.203125 0 1.9375 0.734375q0.75 0.71875 0.75 2.09375l0 3.875l-1.078125 0l0 -3.71875q0 -0.984375 -0.5 -1.5q-0.484375 -0.53125 -1.328125 -0.53125q-0.875 0 -1.390625 0.546875q-0.5 0.53125 -0.5 1.5625l0 3.640625l-1.09375 0l0 -6.578125l1.09375 0l0 0.9375q0.328125 -0.5 0.875 -0.78125q0.5625 -0.28125 1.234375 -0.28125zm4.0706787 3.40625q0 -1.015625 0.40625 -1.78125q0.40625 -0.765625 1.125 -1.1875q0.734375 -0.421875 1.671875 -0.421875q1.21875 0 2.0 0.59375q0.78125 0.578125 1.03125 1.625l-1.171875 0q-0.171875 -0.59375 -0.65625 -0.9375q-0.484375 -0.359375 -1.203125 -0.359375q-0.9375 0 -1.515625 0.65625q-0.578125 0.640625 -0.578125 1.8125q0 1.1875 0.578125 1.84375q0.578125 0.640625 1.515625 0.640625q0.71875 0 1.203125 -0.328125q0.484375 -0.34375 0.65625 -0.96875l1.171875 0q-0.265625 1.0 -1.0625 1.609375q-0.78125 0.609375 -1.96875 0.609375q-0.9375 0 -1.671875 -0.421875q-0.71875 -0.421875 -1.125 -1.1875q-0.40625 -0.765625 -0.40625 -1.796875zm13.690308 -0.25q0 0.3125 -0.03125 0.671875l-5.265625 0q0.0625 0.96875 0.671875 1.515625q0.609375 0.546875 1.46875 0.546875q0.703125 0 1.171875 -0.328125q0.484375 -0.328125 0.671875 -0.890625l1.1875 0q-0.265625 0.953125 -1.0625 1.546875q-0.796875 0.59375 -1.96875 0.59375q-0.9375 0 -1.671875 -0.421875q-0.734375 -0.421875 -1.15625 -1.1875q-0.421875 -0.78125 -0.421875 -1.796875q0 -1.015625 0.40625 -1.78125q0.40625 -0.78125 1.140625 -1.1875q0.75 -0.421875 1.703125 -0.421875q0.9375 0 1.65625 0.40625q0.71875 0.40625 1.109375 1.125q0.390625 0.71875 0.390625 1.609375zm-1.125 -0.21875q0 -0.625 -0.28125 -1.078125q-0.265625 -0.453125 -0.75 -0.6875q-0.46875 -0.234375 -1.046875 -0.234375q-0.828125 0 -1.40625 0.53125q-0.578125 0.53125 -0.671875 1.46875l4.15625 0z" fill-rule="nonzero"/><path fill="#000000" fill-opacity="0.0" d="m61.489223 490.08673l0 0c0 -3.2760925 2.6557884 -5.931885 5.9318733 -5.931885l106.05751 0c1.5732269 0 3.0820312 0.6249695 4.1944733 1.7374268c1.112442 1.1124268 1.7373962 2.6212158 1.7373962 4.194458l0 23.726807c0 3.276062 -2.6557922 5.931885 -5.9318695 5.931885l-106.05751 0c-3.276085 0 -5.9318733 -2.6558228 -5.9318733 -5.931885z" fill-rule="evenodd"/><path stroke="#8d3aed" stroke-width="1.0" stroke-linejoin="round" stroke-linecap="butt" d="m61.489223 490.08673l0 0c0 -3.2760925 2.6557884 -5.931885 5.9318733 -5.931885l106.05751 0c1.5732269 0 3.0820312 0.6249695 4.1944733 1.7374268c1.112442 1.1124268 1.7373962 2.6212158 1.7373962 4.194458l0 23.726807c0 3.276062 -2.6557922 5.931885 -5.9318695 5.931885l-106.05751 0c-3.276085 0 -5.9318733 -2.6558228 -5.9318733 -5.931885z" fill-rule="evenodd"/><path fill="#ffffff" d="m83.97893 502.15762q0.453125 0.078125 0.828125 0.375q0.390625 0.296875 0.609375 0.75q0.21875 0.4375 0.21875 0.9375q0 0.640625 -0.328125 1.15625q-0.3125 0.5 -0.9375 0.796875q-0.609375 0.296875 -1.453125 0.296875l-3.125 0l0 -8.359375l3.0 0q0.859375 0 1.453125 0.28125q0.59375 0.28125 0.890625 0.765625q0.3125 0.46875 0.3125 1.078125q0 0.734375 -0.40625 1.21875q-0.40625 0.484375 -1.0625 0.703125zm-3.09375 -0.4375l1.84375 0q0.765625 0 1.171875 -0.359375q0.421875 -0.359375 0.421875 -1.0q0 -0.640625 -0.421875 -1.0q-0.40625 -0.359375 -1.203125 -0.359375l-1.8125 0l0 2.71875zm1.9375 3.84375q0.8125 0 1.265625 -0.375q0.453125 -0.390625 0.453125 -1.078125q0 -0.6875 -0.484375 -1.09375q-0.46875 -0.40625 -1.28125 -0.40625l-1.890625 0l0 2.953125l1.9375 0zm5.4185486 -7.96875l0 8.875l-1.09375 0l0 -8.875l1.09375 0zm4.7332764 8.984375q-0.921875 0 -1.671875 -0.421875q-0.75 -0.421875 -1.1875 -1.1875q-0.421875 -0.78125 -0.421875 -1.796875q0 -1.015625 0.4375 -1.78125q0.4375 -0.78125 1.1875 -1.1875q0.765625 -0.421875 1.703125 -0.421875q0.9375 0 1.6875 0.421875q0.75 0.40625 1.1875 1.1875q0.4375 0.765625 0.4375 1.78125q0 1.015625 -0.453125 1.796875q-0.4375 0.765625 -1.203125 1.1875q-0.765625 0.421875 -1.703125 0.421875zm0 -0.96875q0.578125 0 1.09375 -0.265625q0.515625 -0.28125 0.828125 -0.828125q0.328125 -0.5625 0.328125 -1.34375q0 -0.796875 -0.3125 -1.34375q-0.3125 -0.5625 -0.8125 -0.828125q-0.5 -0.265625 -1.09375 -0.265625q-0.59375 0 -1.09375 0.265625q-0.5 0.265625 -0.8125 0.828125q-0.296875 0.546875 -0.296875 1.34375q0 0.796875 0.296875 1.359375q0.296875 0.546875 0.78125 0.8125q0.5 0.265625 1.09375 0.265625zm4.3988037 -2.4375q0 -1.015625 0.40625 -1.78125q0.40625 -0.765625 1.125 -1.1875q0.734375 -0.421875 1.671875 -0.421875q1.21875 0 2.0 0.59375q0.78125 0.578125 1.03125 1.625l-1.171875 0q-0.171875 -0.59375 -0.65625 -0.9375q-0.484375 -0.359375 -1.203125 -0.359375q-0.9375 0 -1.515625 0.65625q-0.578125 0.640625 -0.578125 1.8125q0 1.1875 0.578125 1.84375q0.578125 0.640625 1.515625 0.640625q0.71875 0 1.203125 -0.328125q0.484375 -0.34375 0.65625 -0.96875l1.171875 0q-0.265625 1.0 -1.0625 1.609375q-0.78125 0.609375 -1.96875 0.609375q-0.9375 0 -1.671875 -0.421875q-0.71875 -0.421875 -1.125 -1.1875q-0.40625 -0.765625 -0.40625 -1.796875zm11.362183 3.296875l-2.578125 -2.90625l0 2.90625l-1.09375 0l0 -8.875l1.09375 0l0 5.21875l2.53125 -2.921875l1.53125 0l-3.109375 3.28125l3.109375 3.296875l-1.484375 0zm12.290314 0l-1.09375 0l-4.390625 -6.65625l0 6.65625l-1.09375 0l0 -8.375l1.09375 0l4.390625 6.640625l0 -6.640625l1.09375 0l0 8.375zm7.6860657 -6.578125l0 6.578125l-1.09375 0l0 -0.96875q-0.296875 0.5 -0.859375 0.78125q-0.5625 0.28125 -1.234375 0.28125q-0.765625 0 -1.375 -0.3125q-0.609375 -0.328125 -0.96875 -0.953125q-0.359375 -0.640625 -0.359375 -1.546875l0 -3.859375l1.078125 0l0 3.703125q0 0.984375 0.484375 1.5q0.5 0.515625 1.359375 0.515625q0.875 0 1.375 -0.53125q0.5 -0.546875 0.5 -1.578125l0 -3.609375l1.09375 0zm9.758179 -0.125q0.765625 0 1.359375 0.328125q0.609375 0.3125 0.953125 0.953125q0.359375 0.640625 0.359375 1.546875l0 3.875l-1.078125 0l0 -3.71875q0 -0.984375 -0.5 -1.5q-0.484375 -0.53125 -1.3125 -0.53125q-0.84375 0 -1.359375 0.546875q-0.5 0.546875 -0.5 1.578125l0 3.625l-1.078125 0l0 -3.71875q0 -0.984375 -0.484375 -1.5q-0.484375 -0.53125 -1.3125 -0.53125q-0.84375 0 -1.359375 0.546875q-0.5 0.546875 -0.5 1.578125l0 3.625l-1.09375 0l0 -6.578125l1.09375 0l0 0.953125q0.328125 -0.515625 0.875 -0.796875q0.546875 -0.28125 1.203125 -0.28125q0.828125 0 1.453125 0.375q0.640625 0.375 0.953125 1.09375q0.28125 -0.6875 0.90625 -1.078125q0.640625 -0.390625 1.421875 -0.390625zm5.547592 1.34375q0.34375 -0.578125 0.984375 -0.953125q0.640625 -0.375 1.46875 -0.375q0.890625 0 1.59375 0.421875q0.71875 0.421875 1.125 1.1875q0.40625 0.765625 0.40625 1.765625q0 1.0 -0.40625 1.78125q-0.40625 0.78125 -1.125 1.21875q-0.703125 0.421875 -1.59375 0.421875q-0.84375 0 -1.484375 -0.375q-0.640625 -0.375 -0.96875 -0.953125l0 1.21875l-1.09375 0l0 -8.875l1.09375 0l0 3.515625zm4.46875 2.046875q0 -0.75 -0.3125 -1.296875q-0.296875 -0.546875 -0.8125 -0.828125q-0.5 -0.296875 -1.109375 -0.296875q-0.609375 0 -1.125 0.296875q-0.5 0.296875 -0.8125 0.859375q-0.296875 0.546875 -0.296875 1.28125q0 0.734375 0.296875 1.296875q0.3125 0.5625 0.8125 0.859375q0.515625 0.28125 1.125 0.28125q0.609375 0 1.109375 -0.28125q0.515625 -0.296875 0.8125 -0.859375q0.3125 -0.5625 0.3125 -1.3125zm8.549561 -0.234375q0 0.3125 -0.03125 0.671875l-5.265625 0q0.0625 0.96875 0.671875 1.515625q0.609375 0.546875 1.46875 0.546875q0.703125 0 1.171875 -0.328125q0.484375 -0.328125 0.671875 -0.890625l1.1875 0q-0.265625 0.953125 -1.0625 1.546875q-0.796875 0.59375 -1.96875 0.59375q-0.9375 0 -1.671875 -0.421875q-0.734375 -0.421875 -1.15625 -1.1875q-0.421875 -0.78125 -0.421875 -1.796875q0 -1.015625 0.40625 -1.78125q0.40625 -0.78125 1.140625 -1.1875q0.75 -0.421875 1.703125 -0.421875q0.9375 0 1.65625 0.40625q0.71875 0.40625 1.109375 1.125q0.390625 0.71875 0.390625 1.609375zm-1.125 -0.21875q0 -0.625 -0.28125 -1.078125q-0.265625 -0.453125 -0.75 -0.6875q-0.46875 -0.234375 -1.046875 -0.234375q-0.828125 0 -1.40625 0.53125q-0.578125 0.53125 -0.671875 1.46875l4.15625 0zm3.6587982 -1.75q0.28125 -0.5625 0.8125 -0.875q0.546875 -0.3125 1.3125 -0.3125l0 1.140625l-0.28125 0q-1.84375 0 -1.84375 1.984375l0 3.578125l-1.09375 0l0 -6.578125l1.09375 0l0 1.0625z" fill-rule="nonzero"/><path fill="#000000" fill-opacity="0.0" d="m61.489223 531.2127l0 0c0 -3.276062 2.6557884 -5.931885 5.9318733 -5.931885l106.05751 0c1.5732269 0 3.0820312 0.625 4.1944733 1.7374268c1.112442 1.1124268 1.7373962 2.6212158 1.7373962 4.194458l0 23.726807c0 3.276062 -2.6557922 5.931885 -5.9318695 5.931885l-106.05751 0c-3.276085 0 -5.9318733 -2.6558228 -5.9318733 -5.931885z" fill-rule="evenodd"/><path stroke="#8d3aed" stroke-width="1.0" stroke-linejoin="round" stroke-linecap="butt" d="m61.489223 531.2127l0 0c0 -3.276062 2.6557884 -5.931885 5.9318733 -5.931885l106.05751 0c1.5732269 0 3.0820312 0.625 4.1944733 1.7374268c1.112442 1.1124268 1.7373962 2.6212158 1.7373962 4.194458l0 23.726807c0 3.276062 -2.6557922 5.931885 -5.9318695 5.931885l-106.05751 0c-3.276085 0 -5.9318733 -2.6558228 -5.9318733 -5.931885z" fill-rule="evenodd"/><path fill="#000000" fill-opacity="0.0" d="m61.489502 424.43326l0 0c0 -5.464966 4.430237 -9.895203 9.89521 -9.895203l98.13084 0c2.6243744 0 5.141266 1.0425415 6.9969788 2.8982544c1.8557129 1.8557129 2.8982391 4.372589 2.8982391 6.9969482l0 39.57968c0 5.464966 -4.430237 9.895203 -9.895218 9.895203l-98.13084 0l0 0c-5.4649734 0 -9.89521 -4.430237 -9.89521 -9.895203z" fill-rule="evenodd"/><path stroke="#8d3aed" stroke-width="1.0" stroke-linejoin="round" stroke-linecap="butt" d="m61.489502 424.43326l0 0c0 -5.464966 4.430237 -9.895203 9.89521 -9.895203l98.13084 0c2.6243744 0 5.141266 1.0425415 6.9969788 2.8982544c1.8557129 1.8557129 2.8982391 4.372589 2.8982391 6.9969482l0 39.57968c0 5.464966 -4.430237 9.895203 -9.895218 9.895203l-98.13084 0l0 0c-5.4649734 0 -9.89521 -4.430237 -9.89521 -9.895203z" fill-rule="evenodd"/><path fill="#000000" fill-opacity="0.0" d="m76.75781 436.143l87.38463 0l0 18.000122l-87.38463 0l0 -18.000122z" fill-rule="nonzero"/><path fill="#ffffff" d="m81.80469 448.7431l-1.765625 -3.1875l-0.484375 0l0 3.1875l-2.046875 0l0 -8.421875l3.4375 0q1.0 0 1.703125 0.34375q0.703125 0.34375 1.046875 0.953125q0.34375 0.609375 0.34375 1.359375q0 0.828125 -0.46875 1.5q-0.46875 0.65625 -1.40625 0.921875l1.953125 3.34375l-2.3125 0zm-2.25 -4.625l1.265625 0q0.5625 0 0.84375 -0.28125q0.296875 -0.28125 0.296875 -0.78125q0 -0.484375 -0.296875 -0.75q-0.28125 -0.28125 -0.84375 -0.28125l-1.265625 0l0 2.09375zm12.386551 -2.078125l0 6.703125l-2.0625 0l0 -0.90625q-0.3125 0.4375 -0.84375 0.71875q-0.53125 0.265625 -1.171875 0.265625q-0.765625 0 -1.359375 -0.34375q-0.59375 -0.34375 -0.921875 -0.984375q-0.3125 -0.65625 -0.3125 -1.53125l0 -3.921875l2.03125 0l0 3.640625q0 0.671875 0.34375 1.046875q0.359375 0.375 0.953125 0.375q0.59375 0 0.9375 -0.375q0.34375 -0.375 0.34375 -1.046875l0 -3.640625l2.0625 0zm5.5568085 -0.0625q1.171875 0 1.875 0.765625q0.703125 0.75 0.703125 2.09375l0 3.90625l-2.046875 0l0 -3.640625q0 -0.671875 -0.34375 -1.03125q-0.34375 -0.375 -0.9375 -0.375q-0.59375 0 -0.9375 0.375q-0.34375 0.359375 -0.34375 1.03125l0 3.640625l-2.046875 0l0 -6.703125l2.046875 0l0 0.890625q0.3125 -0.4375 0.828125 -0.6875q0.53125 -0.265625 1.203125 -0.265625zm7.7286835 5.03125l0 1.734375l-1.03125 0q-1.125 0 -1.75 -0.546875q-0.625 -0.546875 -0.625 -1.78125l0 -2.65625l-0.8125 0l0 -1.71875l0.8125 0l0 -1.625l2.0625 0l0 1.625l1.34375 0l0 1.71875l-1.34375 0l0 2.6875q0 0.296875 0.140625 0.4375q0.140625 0.125 0.484375 0.125l0.71875 0zm2.1845398 -5.65625q-0.546875 0 -0.890625 -0.3125q-0.34375 -0.328125 -0.34375 -0.796875q0 -0.46875 0.34375 -0.78125q0.34375 -0.328125 0.890625 -0.328125q0.515625 0 0.859375 0.328125q0.34375 0.3125 0.34375 0.78125q0 0.46875 -0.34375 0.796875q-0.34375 0.3125 -0.859375 0.3125zm1.015625 0.6875l0 6.703125l-2.046875 0l0 -6.703125l2.046875 0zm10.024399 -0.0625q1.25 0 1.984375 0.765625q0.75 0.75 0.75 2.09375l0 3.90625l-2.046875 0l0 -3.640625q0 -0.640625 -0.34375 -0.984375q-0.34375 -0.359375 -0.9375 -0.359375q-0.59375 0 -0.9375 0.359375q-0.34375 0.34375 -0.34375 0.984375l0 3.640625l-2.046875 0l0 -3.640625q0 -0.640625 -0.34375 -0.984375q-0.328125 -0.359375 -0.9375 -0.359375q-0.59375 0 -0.9375 0.359375q-0.34375 0.34375 -0.34375 0.984375l0 3.640625l-2.046875 0l0 -6.703125l2.046875 0l0 0.84375q0.3125 -0.421875 0.8125 -0.65625q0.5 -0.25 1.140625 -0.25q0.765625 0 1.359375 0.328125q0.59375 0.3125 0.921875 0.921875q0.34375 -0.5625 0.9375 -0.90625q0.609375 -0.34375 1.3125 -0.34375zm10.489334 3.3125q0 0.28125 -0.046875 0.59375l-4.640625 0q0.046875 0.625 0.390625 0.953125q0.359375 0.328125 0.875 0.328125q0.78125 0 1.078125 -0.640625l2.1875 0q-0.171875 0.65625 -0.609375 1.1875q-0.4375 0.53125 -1.109375 0.828125q-0.65625 0.296875 -1.46875 0.296875q-0.984375 0 -1.75 -0.421875q-0.765625 -0.421875 -1.203125 -1.1875q-0.421875 -0.78125 -0.421875 -1.828125q0 -1.046875 0.421875 -1.828125q0.421875 -0.78125 1.1875 -1.203125q0.765625 -0.421875 1.765625 -0.421875q0.96875 0 1.71875 0.421875q0.765625 0.40625 1.1875 1.15625q0.4375 0.75 0.4375 1.765625zm-2.109375 -0.546875q0 -0.53125 -0.359375 -0.828125q-0.359375 -0.3125 -0.890625 -0.3125q-0.515625 0 -0.875 0.296875q-0.359375 0.296875 -0.4375 0.84375l2.5625 0zm5.373581 -0.21875q0 -1.25 0.53125 -2.21875q0.546875 -0.984375 1.515625 -1.53125q0.96875 -0.546875 2.1875 -0.546875q1.5 0 2.5625 0.796875q1.078125 0.78125 1.4375 2.15625l-2.25 0q-0.25 -0.53125 -0.71875 -0.796875q-0.453125 -0.28125 -1.046875 -0.28125q-0.953125 0 -1.546875 0.65625q-0.578125 0.65625 -0.578125 1.765625q0 1.09375 0.578125 1.765625q0.59375 0.65625 1.546875 0.65625q0.59375 0 1.046875 -0.28125q0.46875 -0.28125 0.71875 -0.796875l2.25 0q-0.359375 1.359375 -1.4375 2.15625q-1.0625 0.78125 -2.5625 0.78125q-1.21875 0 -2.1875 -0.546875q-0.96875 -0.546875 -1.515625 -1.515625q-0.53125 -0.96875 -0.53125 -2.21875zm12.550308 4.3125q-0.984375 0 -1.78125 -0.421875q-0.78125 -0.421875 -1.234375 -1.1875q-0.4375 -0.78125 -0.4375 -1.828125q0 -1.03125 0.453125 -1.8125q0.453125 -0.796875 1.234375 -1.21875q0.796875 -0.421875 1.78125 -0.421875q0.984375 0 1.78125 0.421875q0.796875 0.421875 1.25 1.21875q0.453125 0.78125 0.453125 1.8125q0 1.03125 -0.46875 1.8125q-0.453125 0.78125 -1.25 1.203125q-0.796875 0.421875 -1.78125 0.421875zm0 -1.78125q0.578125 0 0.984375 -0.421875q0.421875 -0.4375 0.421875 -1.234375q0 -0.8125 -0.40625 -1.234375q-0.390625 -0.4375 -0.984375 -0.4375q-0.59375 0 -1.0 0.4375q-0.390625 0.421875 -0.390625 1.234375q0 0.796875 0.390625 1.234375q0.390625 0.421875 0.984375 0.421875zm4.190933 -1.671875q0 -1.03125 0.375 -1.8125q0.390625 -0.78125 1.0625 -1.203125q0.671875 -0.421875 1.5 -0.421875q0.671875 0 1.21875 0.28125q0.546875 0.28125 0.859375 0.75l0 -3.109375l2.046875 0l0 8.875l-2.046875 0l0 -0.953125q-0.296875 0.46875 -0.828125 0.765625q-0.53125 0.28125 -1.25 0.28125q-0.828125 0 -1.5 -0.421875q-0.671875 -0.421875 -1.0625 -1.203125q-0.375 -0.796875 -0.375 -1.828125zm5.015625 0.015625q0 -0.765625 -0.4375 -1.203125q-0.421875 -0.453125 -1.03125 -0.453125q-0.609375 0 -1.046875 0.4375q-0.421875 0.4375 -0.421875 1.203125q0 0.765625 0.421875 1.21875q0.4375 0.453125 1.046875 0.453125q0.609375 0 1.03125 -0.4375q0.4375 -0.453125 0.4375 -1.21875zm9.851181 -0.109375q0 0.28125 -0.046875 0.59375l-4.640625 0q0.046875 0.625 0.390625 0.953125q0.359375 0.328125 0.875 0.328125q0.78125 0 1.078125 -0.640625l2.1875 0q-0.171875 0.65625 -0.609375 1.1875q-0.4375 0.53125 -1.109375 0.828125q-0.65625 0.296875 -1.46875 0.296875q-0.984375 0 -1.75 -0.421875q-0.765625 -0.421875 -1.203125 -1.1875q-0.421875 -0.78125 -0.421875 -1.828125q0 -1.046875 0.421875 -1.828125q0.421875 -0.78125 1.1875 -1.203125q0.765625 -0.421875 1.765625 -0.421875q0.96875 0 1.71875 0.421875q0.765625 0.40625 1.1875 1.15625q0.4375 0.75 0.4375 1.765625zm-2.109375 -0.546875q0 -0.53125 -0.359375 -0.828125q-0.359375 -0.3125 -0.890625 -0.3125q-0.515625 0 -0.875 0.296875q-0.359375 0.296875 -0.4375 0.84375l2.5625 0z" fill-rule="nonzero"/><path fill="#010000" fill-opacity="0.0" d="m164.14244 436.143l0 0l0 18.000122l0 0l0 -18.000122z" fill-rule="nonzero"/><path fill="#ffffff" d="m76.75781 449.5231l87.38463 0l0 1.0799866l-87.38463 0l0 -1.0799866z" fill-rule="nonzero"/><path fill="#000000" fill-opacity="0.0" d="m320.07874 267.51743l0 0c0 -10.147156 8.225922 -18.373062 18.373077 -18.373062l177.61606 0c4.872864 0 9.546082 1.9357147 12.991699 5.3813477c3.4456177 3.4456024 5.3813477 8.118881 5.3813477 12.9917145l0 73.49008c0 10.147156 -8.225891 18.373077 -18.373047 18.373077l-177.61606 0l0 0c-10.147156 0 -18.373077 -8.225922 -18.373077 -18.373077z" fill-rule="evenodd"/><path stroke="#8d3aed" stroke-width="1.0" stroke-linejoin="round" stroke-linecap="butt" d="m320.07874 267.51743l0 0c0 -10.147156 8.225922 -18.373062 18.373077 -18.373062l177.61606 0c4.872864 0 9.546082 1.9357147 12.991699 5.3813477c3.4456177 3.4456024 5.3813477 8.118881 5.3813477 12.9917145l0 73.49008c0 10.147156 -8.225891 18.373077 -18.373047 18.373077l-177.61606 0l0 0c-10.147156 0 -18.373077 -8.225922 -18.373077 -18.373077z" fill-rule="evenodd"/><path fill="#ffffff" d="m369.2524 297.52496l-4.046875 13.9375l-2.03125 0l-3.25 -11.21875l-3.359375 11.21875l-2.015625 0.015625l-3.90625 -13.953125l1.953125 0l3.03125 11.8125l3.359375 -11.8125l2.046875 0l3.203125 11.78125l3.046875 -11.78125l1.96875 0zm1.316864 8.421875q0 -1.6875 0.671875 -2.953125q0.6875 -1.265625 1.875 -1.96875q1.1875 -0.703125 2.65625 -0.703125q1.4375 0 2.5 0.625q1.0625 0.609375 1.578125 1.5625l0 -2.0l1.84375 0l0 10.953125l-1.84375 0l0 -2.046875q-0.546875 0.96875 -1.625 1.609375q-1.0625 0.625 -2.46875 0.625q-1.46875 0 -2.65625 -0.71875q-1.171875 -0.734375 -1.859375 -2.03125q-0.671875 -1.296875 -0.671875 -2.953125zm9.28125 0.015625q0 -1.234375 -0.5 -2.15625q-0.5 -0.921875 -1.359375 -1.40625q-0.84375 -0.5 -1.859375 -0.5q-1.015625 0 -1.859375 0.484375q-0.84375 0.484375 -1.34375 1.40625q-0.5 0.90625 -0.5 2.15625q0 1.25 0.5 2.1875q0.5 0.921875 1.34375 1.421875q0.84375 0.484375 1.859375 0.484375q1.015625 0 1.859375 -0.484375q0.859375 -0.5 1.359375 -1.421875q0.5 -0.9375 0.5 -2.171875zm8.801239 5.6875q-1.265625 0 -2.265625 -0.4375q-1.0 -0.4375 -1.578125 -1.203125q-0.578125 -0.765625 -0.640625 -1.765625l1.875 0q0.09375 0.8125 0.78125 1.34375q0.6875 0.515625 1.8125 0.515625q1.03125 0 1.625 -0.453125q0.609375 -0.46875 0.609375 -1.171875q0 -0.71875 -0.640625 -1.0625q-0.640625 -0.359375 -1.984375 -0.6875q-1.21875 -0.328125 -1.984375 -0.65625q-0.765625 -0.328125 -1.328125 -0.96875q-0.546875 -0.65625 -0.546875 -1.71875q0 -0.84375 0.5 -1.53125q0.5 -0.703125 1.421875 -1.109375q0.921875 -0.421875 2.109375 -0.421875q1.8125 0 2.921875 0.921875q1.125 0.921875 1.203125 2.515625l-1.8125 0q-0.0625 -0.859375 -0.6875 -1.375q-0.625 -0.515625 -1.6875 -0.515625q-0.984375 0 -1.5625 0.421875q-0.578125 0.40625 -0.578125 1.09375q0 0.53125 0.34375 0.890625q0.359375 0.34375 0.875 0.5625q0.53125 0.203125 1.484375 0.46875q1.171875 0.3125 1.90625 0.625q0.75 0.3125 1.28125 0.9375q0.53125 0.609375 0.546875 1.609375q0 0.90625 -0.5 1.625q-0.5 0.71875 -1.421875 1.140625q-0.90625 0.40625 -2.078125 0.40625zm19.736847 -11.34375q1.28125 0 2.28125 0.53125q1.0 0.53125 1.578125 1.59375q0.578125 1.046875 0.578125 2.578125l0 6.453125l-1.796875 0l0 -6.203125q0 -1.640625 -0.8125 -2.5q-0.8125 -0.875 -2.1875 -0.875q-1.421875 0 -2.265625 0.90625q-0.828125 0.90625 -0.828125 2.625l0 6.046875l-1.8125 0l0 -6.203125q0 -1.640625 -0.8125 -2.5q-0.796875 -0.875 -2.1875 -0.875q-1.40625 0 -2.25 0.90625q-0.84375 0.90625 -0.84375 2.625l0 6.046875l-1.8125 0l0 -10.953125l1.8125 0l0 1.578125q0.546875 -0.859375 1.453125 -1.3125q0.90625 -0.46875 2.0 -0.46875q1.390625 0 2.4375 0.625q1.0625 0.609375 1.59375 1.8125q0.453125 -1.15625 1.515625 -1.796875q1.0625 -0.640625 2.359375 -0.640625zm14.580597 -1.296875l0 4.65625l5.078125 0l0 1.5l-5.078125 0l0 4.796875l5.6875 0l0 1.5l-7.5 0l0 -13.953125l7.5 0l0 1.5l-5.6875 0zm14.16626 12.453125l-2.609375 -4.078125l-2.5 4.078125l-1.890625 0l3.53125 -5.4375l-3.53125 -5.515625l2.046875 0l2.609375 4.046875l2.484375 -4.046875l1.890625 0l-3.515625 5.40625l3.53125 5.546875l-2.046875 0zm13.861237 -5.90625q0 0.53125 -0.0625 1.109375l-8.765625 0q0.09375 1.609375 1.109375 2.53125q1.015625 0.90625 2.453125 0.90625q1.171875 0 1.96875 -0.546875q0.796875 -0.546875 1.109375 -1.46875l1.953125 0q-0.4375 1.578125 -1.765625 2.578125q-1.3125 0.984375 -3.265625 0.984375q-1.5625 0 -2.796875 -0.703125q-1.21875 -0.703125 -1.921875 -1.984375q-0.703125 -1.296875 -0.703125 -3.0q0 -1.703125 0.671875 -2.984375q0.6875 -1.28125 1.921875 -1.96875q1.234375 -0.6875 2.828125 -0.6875q1.5625 0 2.75 0.6875q1.203125 0.671875 1.859375 1.859375q0.65625 1.1875 0.65625 2.6875zm-1.890625 -0.375q0 -1.03125 -0.46875 -1.78125q-0.453125 -0.75 -1.25 -1.140625q-0.78125 -0.390625 -1.734375 -0.390625q-1.390625 0 -2.359375 0.875q-0.96875 0.875 -1.109375 2.4375l6.921875 0zm3.603119 0.78125q0 -1.703125 0.671875 -2.96875q0.6875 -1.265625 1.890625 -1.96875q1.21875 -0.703125 2.78125 -0.703125q2.015625 0 3.328125 0.984375q1.3125 0.96875 1.734375 2.71875l-1.96875 0q-0.28125 -1.0 -1.09375 -1.578125q-0.796875 -0.578125 -2.0 -0.578125q-1.5625 0 -2.53125 1.078125q-0.953125 1.0625 -0.953125 3.015625q0 1.984375 0.953125 3.0625q0.96875 1.078125 2.53125 1.078125q1.203125 0 2.0 -0.5625q0.796875 -0.5625 1.09375 -1.59375l1.96875 0q-0.453125 1.671875 -1.765625 2.6875q-1.3125 1.015625 -3.296875 1.015625q-1.5625 0 -2.78125 -0.703125q-1.203125 -0.703125 -1.890625 -1.984375q-0.671875 -1.28125 -0.671875 -3.0zm22.546234 -5.453125l0 10.953125l-1.828125 0l0 -1.625q-0.515625 0.84375 -1.453125 1.3125q-0.921875 0.46875 -2.046875 0.46875q-1.28125 0 -2.296875 -0.53125q-1.015625 -0.53125 -1.609375 -1.578125q-0.59375 -1.0625 -0.59375 -2.59375l0 -6.40625l1.796875 0l0 6.171875q0 1.625 0.8125 2.5q0.828125 0.859375 2.25 0.859375q1.46875 0 2.296875 -0.890625q0.84375 -0.90625 0.84375 -2.625l0 -6.015625l1.828125 0zm5.299988 1.5l0 6.453125q0 0.796875 0.328125 1.125q0.34375 0.328125 1.1875 0.328125l1.34375 0l0 1.546875l-1.640625 0q-1.53125 0 -2.296875 -0.703125q-0.75 -0.703125 -0.75 -2.296875l0 -6.453125l-1.421875 0l0 -1.5l1.421875 0l0 -2.765625l1.828125 0l0 2.765625l2.859375 0l0 1.5l-2.859375 0zm9.826874 9.640625q-1.53125 0 -2.78125 -0.703125q-1.25 -0.703125 -1.96875 -1.984375q-0.703125 -1.296875 -0.703125 -3.0q0 -1.6875 0.71875 -2.96875q0.734375 -1.296875 2.0 -1.984375q1.265625 -0.6875 2.828125 -0.6875q1.546875 0 2.8125 0.6875q1.265625 0.6875 1.984375 1.96875q0.734375 1.28125 0.734375 2.984375q0 1.703125 -0.75 3.0q-0.75 1.28125 -2.03125 1.984375q-1.28125 0.703125 -2.84375 0.703125zm0 -1.609375q0.984375 0 1.84375 -0.453125q0.859375 -0.46875 1.390625 -1.390625q0.53125 -0.921875 0.53125 -2.234375q0 -1.3125 -0.515625 -2.234375q-0.515625 -0.921875 -1.359375 -1.375q-0.84375 -0.453125 -1.828125 -0.453125q-1.0 0 -1.828125 0.453125q-0.828125 0.453125 -1.328125 1.375q-0.5 0.921875 -0.5 2.234375q0 1.34375 0.484375 2.265625q0.5 0.921875 1.3125 1.375q0.828125 0.4375 1.796875 0.4375zm9.846863 -7.765625q0.484375 -0.9375 1.375 -1.453125q0.890625 -0.515625 2.171875 -0.515625l0 1.875l-0.484375 0q-3.0625 0 -3.0625 3.328125l0 5.953125l-1.8125 0l0 -10.953125l1.8125 0l0 1.765625z" fill-rule="nonzero"/><path fill="#8d3aed" d="m50.39486 29.81609l554.4882 0l0 42.01575l-554.4882 0z" fill-rule="evenodd"/><path stroke="#8d3aed" stroke-width="1.0" stroke-linejoin="round" stroke-linecap="butt" d="m50.39486 29.81609l554.4882 0l0 42.01575l-554.4882 0z" fill-rule="evenodd"/><path fill="#ffffff" d="m271.46893 50.220463q0 -1.890625 0.859375 -3.40625q0.859375 -1.53125 2.34375 -2.390625q1.484375 -0.859375 3.296875 -0.859375q2.125 0 3.703125 1.03125q1.59375 1.015625 2.328125 2.90625l-2.046875 0q-0.53125 -1.171875 -1.546875 -1.796875q-1.015625 -0.640625 -2.4375 -0.640625q-1.359375 0 -2.453125 0.640625q-1.078125 0.625 -1.703125 1.796875q-0.609375 1.15625 -0.609375 2.71875q0 1.546875 0.609375 2.71875q0.625 1.171875 1.703125 1.8125q1.09375 0.625 2.453125 0.625q1.421875 0 2.4375 -0.625q1.015625 -0.625 1.546875 -1.796875l2.046875 0q-0.734375 1.859375 -2.328125 2.875q-1.578125 1.015625 -3.703125 1.015625q-1.8125 0 -3.296875 -0.84375q-1.484375 -0.84375 -2.34375 -2.359375q-0.859375 -1.515625 -0.859375 -3.421875zm16.746399 -7.296875l0 13.8125l-1.703125 0l0 -13.8125l1.703125 0zm3.7612915 1.921875q-0.484375 0 -0.828125 -0.328125q-0.328125 -0.34375 -0.328125 -0.828125q0 -0.484375 0.328125 -0.8125q0.34375 -0.34375 0.828125 -0.34375q0.46875 0 0.796875 0.34375q0.328125 0.328125 0.328125 0.8125q0 0.484375 -0.328125 0.828125q-0.328125 0.328125 -0.796875 0.328125zm0.828125 1.671875l0 10.21875l-1.703125 0l0 -10.21875l1.703125 0zm12.214447 4.71875q0 0.484375 -0.0625 1.015625l-8.171875 0q0.09375 1.515625 1.03125 2.375q0.953125 0.84375 2.296875 0.84375q1.09375 0 1.828125 -0.515625q0.75 -0.515625 1.046875 -1.375l1.828125 0q-0.40625 1.484375 -1.640625 2.40625q-1.234375 0.921875 -3.0625 0.921875q-1.453125 0 -2.609375 -0.65625q-1.140625 -0.65625 -1.796875 -1.859375q-0.65625 -1.203125 -0.65625 -2.78125q0 -1.59375 0.640625 -2.78125q0.640625 -1.203125 1.78125 -1.84375q1.140625 -0.640625 2.640625 -0.640625q1.453125 0 2.5625 0.640625q1.125 0.625 1.734375 1.734375q0.609375 1.109375 0.609375 2.515625zm-1.75 -0.359375q0 -0.96875 -0.4375 -1.671875q-0.421875 -0.703125 -1.171875 -1.0625q-0.734375 -0.359375 -1.625 -0.359375q-1.28125 0 -2.1875 0.828125q-0.90625 0.8125 -1.03125 2.265625l6.453125 0zm8.973145 -4.546875q1.859375 0 3.015625 1.125q1.15625 1.125 1.15625 3.25l0 6.03125l-1.671875 0l0 -5.78125q0 -1.53125 -0.765625 -2.34375q-0.765625 -0.8125 -2.09375 -0.8125q-1.34375 0 -2.140625 0.84375q-0.78125 0.84375 -0.78125 2.4375l0 5.65625l-1.703125 0l0 -10.21875l1.703125 0l0 1.453125q0.5 -0.78125 1.359375 -1.203125q0.875 -0.4375 1.921875 -0.4375zm9.018127 1.578125l0 6.03125q0 0.75 0.3125 1.0625q0.328125 0.296875 1.109375 0.296875l1.25 0l0 1.4375l-1.53125 0q-1.40625 0 -2.125 -0.65625q-0.703125 -0.65625 -0.703125 -2.140625l0 -6.03125l-1.328125 0l0 -1.390625l1.328125 0l0 -2.578125l1.6875 0l0 2.578125l2.671875 0l0 1.390625l-2.671875 0zm16.803345 1.265625l0 1.4375l-7.4375 0l0 -1.4375l7.4375 0zm15.010803 7.5625l-3.09375 -5.3125l-2.046875 0l0 5.3125l-1.703125 0l0 -13.0l4.203125 0q1.46875 0 2.484375 0.5q1.015625 0.5 1.515625 1.359375q0.515625 0.859375 0.515625 1.96875q0 1.34375 -0.78125 2.375q-0.78125 1.015625 -2.328125 1.34375l3.265625 5.453125l-2.03125 0zm-5.140625 -6.671875l2.5 0q1.375 0 2.0625 -0.6875q0.6875 -0.6875 0.6875 -1.8125q0 -1.15625 -0.6875 -1.796875q-0.671875 -0.640625 -2.0625 -0.640625l-2.5 0l0 4.9375zm18.702393 -3.546875l0 10.21875l-1.6875 0l0 -1.515625q-0.484375 0.78125 -1.359375 1.234375q-0.875 0.4375 -1.90625 0.4375q-1.203125 0 -2.15625 -0.5q-0.953125 -0.5 -1.5 -1.484375q-0.546875 -0.984375 -0.546875 -2.40625l0 -5.984375l1.671875 0l0 5.765625q0 1.5 0.765625 2.3125q0.765625 0.8125 2.09375 0.8125q1.359375 0 2.140625 -0.828125q0.796875 -0.84375 0.796875 -2.453125l0 -5.609375l1.6875 0zm6.5025024 10.390625q-1.1875 0 -2.125 -0.40625q-0.921875 -0.40625 -1.46875 -1.125q-0.53125 -0.71875 -0.59375 -1.640625l1.75 0q0.078125 0.765625 0.71875 1.25q0.65625 0.484375 1.6875 0.484375q0.96875 0 1.53125 -0.421875q0.5625 -0.4375 0.5625 -1.09375q0 -0.671875 -0.59375 -1.0q-0.59375 -0.328125 -1.84375 -0.640625q-1.140625 -0.296875 -1.859375 -0.59375q-0.71875 -0.3125 -1.234375 -0.921875q-0.515625 -0.609375 -0.515625 -1.59375q0 -0.796875 0.46875 -1.4375q0.46875 -0.65625 1.328125 -1.03125q0.859375 -0.390625 1.953125 -0.390625q1.703125 0 2.75 0.859375q1.046875 0.859375 1.109375 2.34375l-1.6875 0q-0.0625 -0.796875 -0.65625 -1.28125q-0.578125 -0.484375 -1.5625 -0.484375q-0.921875 0 -1.46875 0.390625q-0.53125 0.390625 -0.53125 1.03125q0 0.5 0.328125 0.828125q0.328125 0.328125 0.8125 0.53125q0.5 0.1875 1.375 0.421875q1.109375 0.296875 1.796875 0.59375q0.6875 0.28125 1.171875 0.859375q0.5 0.578125 0.515625 1.515625q0 0.84375 -0.46875 1.515625q-0.453125 0.671875 -1.3125 1.0625q-0.84375 0.375 -1.9375 0.375zm8.176056 -9.0l0 6.03125q0 0.75 0.3125 1.0625q0.328125 0.296875 1.109375 0.296875l1.25 0l0 1.4375l-1.53125 0q-1.40625 0 -2.125 -0.65625q-0.703125 -0.65625 -0.703125 -2.140625l0 -6.03125l-1.328125 0l0 -1.390625l1.328125 0l0 -2.578125l1.6875 0l0 2.578125l2.671875 0l0 1.390625l-2.671875 0z" fill-rule="nonzero"/><path fill="#000000" fill-opacity="0.0" d="m49.08005 104.82195l0 0c0 -11.245956 9.116653 -20.36261 20.362614 -20.36261l160.34564 0c5.4005127 0 10.579819 2.14534 14.398544 5.9640656c3.8187408 3.8187332 5.964081 8.998047 5.964081 14.398544l0 81.448006c0 11.245956 -9.116653 20.36261 -20.362625 20.36261l-160.34564 0c-11.24596 0 -20.362614 -9.116653 -20.362614 -20.36261z" fill-rule="evenodd"/><path stroke="#8d3aed" stroke-width="1.0" stroke-linejoin="round" stroke-linecap="butt" d="m49.08005 104.82195l0 0c0 -11.245956 9.116653 -20.36261 20.362614 -20.36261l160.34564 0c5.4005127 0 10.579819 2.14534 14.398544 5.9640656c3.8187408 3.8187332 5.964081 8.998047 5.964081 14.398544l0 81.448006c0 11.245956 -9.116653 20.36261 -20.362625 20.36261l-160.34564 0c-11.24596 0 -20.362614 -9.116653 -20.362614 -20.36261z" fill-rule="evenodd"/><path fill="#ffffff" d="m117.75606 150.62595l-1.328125 0l-5.359375 -8.140625l0 8.140625l-1.34375 0l0 -10.234375l1.34375 0l5.359375 8.125l0 -8.125l1.328125 0l0 10.234375zm9.60025 -4.328125q0 0.390625 -0.046875 0.8125l-6.40625 0q0.0625 1.1875 0.796875 1.859375q0.75 0.65625 1.8125 0.65625q0.859375 0 1.4375 -0.390625q0.578125 -0.40625 0.8125 -1.09375l1.4375 0q-0.328125 1.171875 -1.296875 1.890625q-0.96875 0.71875 -2.390625 0.71875q-1.15625 0 -2.0625 -0.5q-0.890625 -0.515625 -1.40625 -1.453125q-0.515625 -0.953125 -0.515625 -2.203125q0 -1.25 0.5 -2.1875q0.5 -0.9375 1.390625 -1.4375q0.90625 -0.5 2.09375 -0.5q1.140625 0 2.015625 0.5q0.875 0.484375 1.34375 1.359375q0.484375 0.875 0.484375 1.96875zm-1.375 -0.28125q0 -0.75 -0.34375 -1.296875q-0.328125 -0.5625 -0.90625 -0.84375q-0.578125 -0.28125 -1.28125 -0.28125q-1.015625 0 -1.734375 0.640625q-0.703125 0.640625 -0.796875 1.78125l5.0625 0zm4.758789 -2.328125l0 4.734375q0 0.59375 0.25 0.84375q0.25 0.234375 0.875 0.234375l0.96875 0l0 1.125l-1.1875 0q-1.125 0 -1.6875 -0.515625q-0.546875 -0.515625 -0.546875 -1.6875l0 -4.734375l-1.046875 0l0 -1.09375l1.046875 0l0 -2.015625l1.328125 0l0 2.015625l2.09375 0l0 1.09375l-2.09375 0zm14.413025 -1.09375l-2.5 8.03125l-1.390625 0l-1.921875 -6.375l-1.9375 6.375l-1.375 0l-2.53125 -8.03125l1.359375 0l1.859375 6.734375l1.984375 -6.734375l1.359375 0l1.953125 6.75l1.828125 -6.75l1.3125 0zm4.815048 8.15625q-1.125 0 -2.046875 -0.5q-0.90625 -0.515625 -1.4375 -1.453125q-0.515625 -0.953125 -0.515625 -2.203125q0 -1.234375 0.53125 -2.171875q0.546875 -0.953125 1.46875 -1.453125q0.921875 -0.5 2.0625 -0.5q1.140625 0 2.0625 0.5q0.9375 0.5 1.46875 1.4375q0.53125 0.9375 0.53125 2.1875q0 1.25 -0.546875 2.203125q-0.546875 0.9375 -1.484375 1.453125q-0.9375 0.5 -2.09375 0.5zm0 -1.171875q0.71875 0 1.34375 -0.328125q0.640625 -0.34375 1.03125 -1.015625q0.390625 -0.671875 0.390625 -1.640625q0 -0.96875 -0.390625 -1.640625q-0.375 -0.671875 -1.0 -1.0q-0.609375 -0.328125 -1.328125 -0.328125q-0.734375 0 -1.34375 0.328125q-0.609375 0.328125 -0.96875 1.0q-0.359375 0.671875 -0.359375 1.640625q0 0.984375 0.359375 1.65625q0.359375 0.671875 0.953125 1.0q0.59375 0.328125 1.3125 0.328125zm7.2237854 -5.6875q0.34375 -0.6875 1.0 -1.0625q0.65625 -0.375 1.59375 -0.375l0 1.375l-0.359375 0q-2.234375 0 -2.234375 2.421875l0 4.375l-1.34375 0l0 -8.03125l1.34375 0l0 1.296875zm8.607422 6.734375l-3.140625 -3.546875l0 3.546875l-1.34375 0l0 -10.84375l1.34375 0l0 6.375l3.09375 -3.5625l1.859375 0l-3.78125 4.0l3.796875 4.03125l-1.828125 0zm3.7511292 -9.34375q-0.375 0 -0.640625 -0.25q-0.265625 -0.265625 -0.265625 -0.65625q0 -0.375 0.265625 -0.640625q0.265625 -0.265625 0.640625 -0.265625q0.375 0 0.625 0.265625q0.265625 0.265625 0.265625 0.640625q0 0.390625 -0.265625 0.65625q-0.25 0.25 -0.625 0.25zm0.65625 1.3125l0 8.03125l-1.34375 0l0 -8.03125l1.34375 0zm6.1835785 -0.140625q1.453125 0 2.359375 0.890625q0.921875 0.875 0.921875 2.546875l0 4.734375l-1.328125 0l0 -4.546875q0 -1.203125 -0.609375 -1.828125q-0.59375 -0.640625 -1.625 -0.640625q-1.0625 0 -1.6875 0.65625q-0.609375 0.65625 -0.609375 1.921875l0 4.4375l-1.34375 0l0 -8.03125l1.34375 0l0 1.140625q0.390625 -0.609375 1.0625 -0.9375q0.6875 -0.34375 1.515625 -0.34375zm8.77066 0.015625q1.046875 0 1.828125 0.453125q0.78125 0.453125 1.171875 1.140625l0 -1.46875l1.34375 0l0 8.203125q0 1.109375 -0.46875 1.953125q-0.46875 0.859375 -1.34375 1.34375q-0.875 0.484375 -2.03125 0.484375q-1.578125 0 -2.640625 -0.75q-1.046875 -0.734375 -1.234375 -2.03125l1.3125 0q0.21875 0.734375 0.90625 1.171875q0.6875 0.453125 1.65625 0.453125q1.09375 0 1.796875 -0.6875q0.703125 -0.6875 0.703125 -1.9375l0 -1.6875q-0.40625 0.703125 -1.1875 1.171875q-0.765625 0.46875 -1.8125 0.46875q-1.0625 0 -1.9375 -0.515625q-0.875 -0.53125 -1.375 -1.484375q-0.5 -0.953125 -0.5 -2.171875q0 -1.234375 0.5 -2.15625q0.5 -0.9375 1.375 -1.4375q0.875 -0.515625 1.9375 -0.515625zm3.0 4.125q0 -0.90625 -0.375 -1.578125q-0.359375 -0.671875 -0.984375 -1.03125q-0.625 -0.359375 -1.375 -0.359375q-0.75 0 -1.375 0.359375q-0.609375 0.34375 -0.96875 1.015625q-0.359375 0.671875 -0.359375 1.578125q0 0.921875 0.359375 1.609375q0.359375 0.671875 0.96875 1.03125q0.625 0.359375 1.375 0.359375q0.75 0 1.375 -0.359375q0.625 -0.359375 0.984375 -1.03125q0.375 -0.6875 0.375 -1.59375z" fill-rule="nonzero"/><path fill="#000000" fill-opacity="0.0" d="m42.2769 280.66666l150.77165 0l0 42.015747l-150.77165 0z" fill-rule="evenodd"/><path fill="#000000" fill-opacity="0.0" d="m279.25592 455.99475l-49.92227 0l0 -11.779541l-49.920258 0" fill-rule="evenodd"/><path stroke="#ffffff" stroke-width="1.0" stroke-linejoin="round" stroke-linecap="butt" d="m279.25592 455.99475l-49.922287 0l0 -11.779541l-46.493164 0" fill-rule="evenodd"/><path fill="#ffffff" stroke="#ffffff" stroke-width="1.0" stroke-linecap="butt" d="m182.84047 444.2152l1.124588 -1.1245728l-3.0897675 1.1245728l3.0897675 1.1246033z" fill-rule="evenodd"/><path fill="#000000" fill-opacity="0.0" d="m279.25592 455.99475l-24.999954 0l0 -151.71652l65.81883 0" fill-rule="evenodd"/><path stroke="#ffffff" stroke-width="1.0" stroke-linejoin="round" stroke-linecap="butt" d="m279.25592 455.99475l-24.999954 0l0 -151.71652l62.39174 0" fill-rule="evenodd"/><path fill="#ffffff" stroke="#ffffff" stroke-width="1.0" stroke-linecap="butt" d="m316.6477 304.27823l-1.1245728 1.1245728l3.0897827 -1.1245728l-3.0897827 -1.1246033z" fill-rule="evenodd"/><path fill="#000000" fill-opacity="0.0" d="m648.6312 171.26402l0 0c0 -43.035583 34.887268 -77.92281 77.92285 -77.92281l394.4535 0c20.666504 0 40.48645 8.209702 55.099854 22.823067c14.613281 14.613358 22.822998 34.433334 22.822998 55.099747l0 311.68195c0 43.035553 -34.887207 77.92282 -77.92285 77.92282l-394.4535 0l0 0c-43.035583 0 -77.92285 -34.887268 -77.92285 -77.92282z" fill-rule="evenodd"/><path stroke="#c27ba0" stroke-width="1.0" stroke-linejoin="round" stroke-linecap="butt" d="m648.6312 171.26402l0 0c0 -43.035583 34.887268 -77.92281 77.92285 -77.92281l394.4535 0c20.666504 0 40.48645 8.209702 55.099854 22.823067c14.613281 14.613358 22.822998 34.433334 22.822998 55.099747l0 311.68195c0 43.035553 -34.887207 77.92282 -77.92285 77.92282l-394.4535 0l0 0c-43.035583 0 -77.92285 -34.887268 -77.92285 -77.92282z" fill-rule="evenodd"/><path fill="#ffffff" d="m797.7735 320.3675l-4.046875 13.9375l-2.03125 0l-3.25 -11.21875l-3.359375 11.21875l-2.015625 0.015625l-3.90625 -13.953125l1.953125 0l3.03125 11.8125l3.359375 -11.8125l2.046875 0l3.203125 11.78125l3.046875 -11.78125l1.96875 0zm1.3168335 8.421875q0 -1.6875 0.671875 -2.953125q0.6875 -1.265625 1.875 -1.96875q1.1875 -0.703125 2.65625 -0.703125q1.4375 0 2.5 0.625q1.0625 0.609375 1.578125 1.5625l0 -2.0l1.84375 0l0 10.953125l-1.84375 0l0 -2.046875q-0.546875 0.96875 -1.625 1.609375q-1.0625 0.625 -2.46875 0.625q-1.46875 0 -2.65625 -0.71875q-1.171875 -0.734375 -1.859375 -2.03125q-0.671875 -1.296875 -0.671875 -2.953125zm9.28125 0.015625q0 -1.234375 -0.5 -2.15625q-0.5 -0.921875 -1.359375 -1.40625q-0.84375 -0.5 -1.859375 -0.5q-1.015625 0 -1.859375 0.484375q-0.84375 0.484375 -1.34375 1.40625q-0.5 0.90625 -0.5 2.15625q0 1.25 0.5 2.1875q0.5 0.921875 1.34375 1.421875q0.84375 0.484375 1.859375 0.484375q1.015625 0 1.859375 -0.484375q0.859375 -0.5 1.359375 -1.421875q0.5 -0.9375 0.5 -2.171875zm8.80127 5.6875q-1.265625 0 -2.265625 -0.4375q-1.0 -0.4375 -1.578125 -1.203125q-0.578125 -0.765625 -0.640625 -1.765625l1.875 0q0.09375 0.8125 0.78125 1.34375q0.6875 0.515625 1.8125 0.515625q1.03125 0 1.625 -0.453125q0.609375 -0.46875 0.609375 -1.171875q0 -0.71875 -0.640625 -1.0625q-0.640625 -0.359375 -1.984375 -0.6875q-1.21875 -0.328125 -1.984375 -0.65625q-0.765625 -0.328125 -1.328125 -0.96875q-0.546875 -0.65625 -0.546875 -1.71875q0 -0.84375 0.5 -1.53125q0.5 -0.703125 1.421875 -1.109375q0.921875 -0.421875 2.109375 -0.421875q1.8125 0 2.921875 0.921875q1.125 0.921875 1.203125 2.515625l-1.8125 0q-0.0625 -0.859375 -0.6875 -1.375q-0.625 -0.515625 -1.6875 -0.515625q-0.984375 0 -1.5625 0.421875q-0.578125 0.40625 -0.578125 1.09375q0 0.53125 0.34375 0.890625q0.359375 0.34375 0.875 0.5625q0.53125 0.203125 1.484375 0.46875q1.171875 0.3125 1.90625 0.625q0.75 0.3125 1.28125 0.9375q0.53125 0.609375 0.546875 1.609375q0 0.90625 -0.5 1.625q-0.5 0.71875 -1.421875 1.140625q-0.90625 0.40625 -2.078125 0.40625zm19.736816 -11.34375q1.28125 0 2.28125 0.53125q1.0 0.53125 1.578125 1.59375q0.578125 1.046875 0.578125 2.578125l0 6.453125l-1.796875 0l0 -6.203125q0 -1.640625 -0.8125 -2.5q-0.8125 -0.875 -2.1875 -0.875q-1.421875 0 -2.265625 0.90625q-0.828125 0.90625 -0.828125 2.625l0 6.046875l-1.8125 0l0 -6.203125q0 -1.640625 -0.8125 -2.5q-0.796875 -0.875 -2.1875 -0.875q-1.40625 0 -2.25 0.90625q-0.84375 0.90625 -0.84375 2.625l0 6.046875l-1.8125 0l0 -10.953125l1.8125 0l0 1.578125q0.546875 -0.859375 1.453125 -1.3125q0.90625 -0.46875 2.0 -0.46875q1.390625 0 2.4375 0.625q1.0625 0.609375 1.59375 1.8125q0.453125 -1.15625 1.515625 -1.796875q1.0625 -0.640625 2.359375 -0.640625zm20.096252 11.15625l-3.3125 -5.703125l-2.203125 0l0 5.703125l-1.8125 0l0 -13.9375l4.5 0q1.578125 0 2.65625 0.546875q1.09375 0.53125 1.625 1.453125q0.546875 0.921875 0.546875 2.09375q0 1.4375 -0.828125 2.546875q-0.828125 1.09375 -2.484375 1.453125l3.5 5.84375l-2.1875 0zm-5.515625 -7.15625l2.6875 0q1.46875 0 2.203125 -0.734375q0.75 -0.734375 0.75 -1.953125q0 -1.234375 -0.734375 -1.90625q-0.71875 -0.6875 -2.21875 -0.6875l-2.6875 0l0 5.28125zm20.066223 -3.796875l0 10.953125l-1.828125 0l0 -1.625q-0.515625 0.84375 -1.453125 1.3125q-0.921875 0.46875 -2.046875 0.46875q-1.28125 0 -2.296875 -0.53125q-1.015625 -0.53125 -1.609375 -1.578125q-0.59375 -1.0625 -0.59375 -2.59375l0 -6.40625l1.796875 0l0 6.171875q0 1.625 0.8125 2.5q0.828125 0.859375 2.25 0.859375q1.46875 0 2.296875 -0.890625q0.84375 -0.90625 0.84375 -2.625l0 -6.015625l1.828125 0zm8.409363 -0.203125q2.0 0 3.234375 1.21875q1.25 1.203125 1.25 3.484375l0 6.453125l-1.796875 0l0 -6.203125q0 -1.640625 -0.828125 -2.5q-0.8125 -0.875 -2.234375 -0.875q-1.4375 0 -2.296875 0.90625q-0.84375 0.890625 -0.84375 2.609375l0 6.0625l-1.8125 0l0 -10.953125l1.8125 0l0 1.546875q0.546875 -0.828125 1.46875 -1.28125q0.9375 -0.46875 2.046875 -0.46875zm9.690613 1.703125l0 6.453125q0 0.796875 0.328125 1.125q0.34375 0.328125 1.1875 0.328125l1.34375 0l0 1.546875l-1.640625 0q-1.53125 0 -2.296875 -0.703125q-0.75 -0.703125 -0.75 -2.296875l0 -6.453125l-1.421875 0l0 -1.5l1.421875 0l0 -2.765625l1.828125 0l0 2.765625l2.859375 0l0 1.5l-2.859375 0zm5.9987793 -3.28125q-0.53125 0 -0.890625 -0.359375q-0.359375 -0.359375 -0.359375 -0.890625q0 -0.515625 0.359375 -0.875q0.359375 -0.359375 0.890625 -0.359375q0.5 0 0.84375 0.359375q0.359375 0.359375 0.359375 0.875q0 0.53125 -0.359375 0.890625q-0.34375 0.359375 -0.84375 0.359375zm0.875 1.78125l0 10.953125l-1.8125 0l0 -10.953125l1.8125 0zm16.279358 -0.203125q1.28125 0 2.28125 0.53125q1.0 0.53125 1.578125 1.59375q0.578125 1.046875 0.578125 2.578125l0 6.453125l-1.796875 0l0 -6.203125q0 -1.640625 -0.8125 -2.5q-0.8125 -0.875 -2.1875 -0.875q-1.421875 0 -2.265625 0.90625q-0.828125 0.90625 -0.828125 2.625l0 6.046875l-1.8125 0l0 -6.203125q0 -1.640625 -0.8125 -2.5q-0.796875 -0.875 -2.1875 -0.875q-1.40625 0 -2.25 0.90625q-0.84375 0.90625 -0.84375 2.625l0 6.046875l-1.8125 0l0 -10.953125l1.8125 0l0 1.578125q0.546875 -0.859375 1.453125 -1.3125q0.90625 -0.46875 2.0 -0.46875q1.390625 0 2.4375 0.625q1.0625 0.609375 1.59375 1.8125q0.453125 -1.15625 1.515625 -1.796875q1.0625 -0.640625 2.359375 -0.640625zm17.4281 5.25q0 0.53125 -0.0625 1.109375l-8.765625 0q0.09375 1.609375 1.109375 2.53125q1.015625 0.90625 2.453125 0.90625q1.171875 0 1.96875 -0.546875q0.796875 -0.546875 1.109375 -1.46875l1.953125 0q-0.4375 1.578125 -1.765625 2.578125q-1.3125 0.984375 -3.265625 0.984375q-1.5625 0 -2.796875 -0.703125q-1.21875 -0.703125 -1.921875 -1.984375q-0.703125 -1.296875 -0.703125 -3.0q0 -1.703125 0.671875 -2.984375q0.6875 -1.28125 1.921875 -1.96875q1.234375 -0.6875 2.828125 -0.6875q1.5625 0 2.75 0.6875q1.203125 0.671875 1.859375 1.859375q0.65625 1.1875 0.65625 2.6875zm-1.890625 -0.375q0 -1.03125 -0.46875 -1.78125q-0.453125 -0.75 -1.25 -1.140625q-0.78125 -0.390625 -1.734375 -0.390625q-1.390625 0 -2.359375 0.875q-0.96875 0.875 -1.109375 2.4375l6.921875 0zm17.505615 -7.65625l0 1.484375l-6.0625 0l0 4.6875l4.921875 0l0 1.484375l-4.921875 0l0 6.28125l-1.8125 0l0 -13.9375l7.875 0zm6.970581 14.125q-1.53125 0 -2.78125 -0.703125q-1.25 -0.703125 -1.96875 -1.984375q-0.703125 -1.296875 -0.703125 -3.0q0 -1.6875 0.71875 -2.96875q0.734375 -1.296875 2.0 -1.984375q1.265625 -0.6875 2.828125 -0.6875q1.546875 0 2.8125 0.6875q1.265625 0.6875 1.984375 1.96875q0.734375 1.28125 0.734375 2.984375q0 1.703125 -0.75 3.0q-0.75 1.28125 -2.03125 1.984375q-1.28125 0.703125 -2.84375 0.703125zm0 -1.609375q0.984375 0 1.84375 -0.453125q0.859375 -0.46875 1.390625 -1.390625q0.53125 -0.921875 0.53125 -2.234375q0 -1.3125 -0.515625 -2.234375q-0.515625 -0.921875 -1.359375 -1.375q-0.84375 -0.453125 -1.828125 -0.453125q-1.0 0 -1.828125 0.453125q-0.828125 0.453125 -1.328125 1.375q-0.5 0.921875 -0.5 2.234375q0 1.34375 0.484375 2.265625q0.5 0.921875 1.3125 1.375q0.828125 0.4375 1.796875 0.4375zm9.846863 -7.765625q0.484375 -0.9375 1.375 -1.453125q0.890625 -0.515625 2.171875 -0.515625l0 1.875l-0.484375 0q-3.0625 0 -3.0625 3.328125l0 5.953125l-1.8125 0l0 -10.953125l1.8125 0l0 1.765625zm19.565613 -4.75l0 1.484375l-3.8125 0l0 12.453125l-1.8125 0l0 -12.453125l-3.8125 0l0 -1.484375l9.4375 0zm7.6793823 2.78125q1.234375 0 2.234375 0.53125q1.0 0.53125 1.5625 1.59375q0.578125 1.046875 0.578125 2.578125l0 6.453125l-1.796875 0l0 -6.203125q0 -1.640625 -0.828125 -2.5q-0.8125 -0.875 -2.234375 -0.875q-1.4375 0 -2.296875 0.90625q-0.84375 0.890625 -0.84375 2.609375l0 6.0625l-1.8125 0l0 -14.796875l1.8125 0l0 5.390625q0.546875 -0.828125 1.484375 -1.28125q0.953125 -0.46875 2.140625 -0.46875zm8.299988 -1.578125q-0.53125 0 -0.890625 -0.359375q-0.359375 -0.359375 -0.359375 -0.890625q0 -0.515625 0.359375 -0.875q0.359375 -0.359375 0.890625 -0.359375q0.5 0 0.84375 0.359375q0.359375 0.359375 0.359375 0.875q0 0.53125 -0.359375 0.890625q-0.34375 0.359375 -0.84375 0.359375zm0.875 1.78125l0 10.953125l-1.8125 0l0 -10.953125l1.8125 0zm6.982483 11.140625q-1.265625 0 -2.265625 -0.4375q-1.0 -0.4375 -1.578125 -1.203125q-0.578125 -0.765625 -0.640625 -1.765625l1.875 0q0.09375 0.8125 0.78125 1.34375q0.6875 0.515625 1.8125 0.515625q1.03125 0 1.625 -0.453125q0.609375 -0.46875 0.609375 -1.171875q0 -0.71875 -0.640625 -1.0625q-0.640625 -0.359375 -1.984375 -0.6875q-1.21875 -0.328125 -1.984375 -0.65625q-0.765625 -0.328125 -1.328125 -0.96875q-0.546875 -0.65625 -0.546875 -1.71875q0 -0.84375 0.5 -1.53125q0.5 -0.703125 1.421875 -1.109375q0.921875 -0.421875 2.109375 -0.421875q1.8125 0 2.921875 0.921875q1.125 0.921875 1.203125 2.515625l-1.8125 0q-0.0625 -0.859375 -0.6875 -1.375q-0.625 -0.515625 -1.6875 -0.515625q-0.984375 0 -1.5625 0.421875q-0.578125 0.40625 -0.578125 1.09375q0 0.53125 0.34375 0.890625q0.359375 0.34375 0.875 0.5625q0.53125 0.203125 1.484375 0.46875q1.171875 0.3125 1.90625 0.625q0.75 0.3125 1.28125 0.9375q0.53125 0.609375 0.546875 1.609375q0 0.90625 -0.5 1.625q-0.5 0.71875 -1.421875 1.140625q-0.90625 0.40625 -2.078125 0.40625zm18.87378 -7.375q0.765625 0.125 1.390625 0.625q0.640625 0.5 1.0 1.25q0.375 0.734375 0.375 1.578125q0 1.046875 -0.546875 1.90625q-0.53125 0.84375 -1.5625 1.34375q-1.03125 0.484375 -2.4375 0.484375l-5.1875 0l0 -13.9375l5.0 0q1.40625 0 2.40625 0.46875q1.0 0.46875 1.5 1.265625q0.5 0.796875 0.5 1.796875q0 1.25 -0.671875 2.0625q-0.65625 0.796875 -1.765625 1.15625zm-5.15625 -0.734375l3.0625 0q1.28125 0 1.96875 -0.59375q0.703125 -0.609375 0.703125 -1.671875q0 -1.046875 -0.703125 -1.640625q-0.6875 -0.609375 -2.015625 -0.609375l-3.015625 0l0 4.515625zm3.21875 6.421875q1.359375 0 2.109375 -0.640625q0.765625 -0.640625 0.765625 -1.78125q0 -1.15625 -0.796875 -1.828125q-0.796875 -0.671875 -2.140625 -0.671875l-3.15625 0l0 4.921875l3.21875 0zm9.04126 -13.296875l0 14.796875l-1.8125 0l0 -14.796875l1.8125 0zm7.873047 14.984375q-1.53125 0 -2.78125 -0.703125q-1.25 -0.703125 -1.96875 -1.984375q-0.703125 -1.296875 -0.703125 -3.0q0 -1.6875 0.71875 -2.96875q0.734375 -1.296875 2.0 -1.984375q1.265625 -0.6875 2.828125 -0.6875q1.546875 0 2.8125 0.6875q1.265625 0.6875 1.984375 1.96875q0.734375 1.28125 0.734375 2.984375q0 1.703125 -0.75 3.0q-0.75 1.28125 -2.03125 1.984375q-1.28125 0.703125 -2.84375 0.703125zm0 -1.609375q0.984375 0 1.84375 -0.453125q0.859375 -0.46875 1.390625 -1.390625q0.53125 -0.921875 0.53125 -2.234375q0 -1.3125 -0.515625 -2.234375q-0.515625 -0.921875 -1.359375 -1.375q-0.84375 -0.453125 -1.828125 -0.453125q-1.0 0 -1.828125 0.453125q-0.828125 0.453125 -1.328125 1.375q-0.5 0.921875 -0.5 2.234375q0 1.34375 0.484375 2.265625q0.5 0.921875 1.3125 1.375q0.828125 0.4375 1.796875 0.4375zm7.346924 -4.078125q0 -1.703125 0.671875 -2.96875q0.6875 -1.265625 1.890625 -1.96875q1.21875 -0.703125 2.78125 -0.703125q2.015625 0 3.328125 0.984375q1.3125 0.96875 1.734375 2.71875l-1.96875 0q-0.28125 -1.0 -1.09375 -1.578125q-0.796875 -0.578125 -2.0 -0.578125q-1.5625 0 -2.53125 1.078125q-0.953125 1.0625 -0.953125 3.015625q0 1.984375 0.953125 3.0625q0.96875 1.078125 2.53125 1.078125q1.203125 0 2.0 -0.5625q0.796875 -0.5625 1.09375 -1.59375l1.96875 0q-0.453125 1.671875 -1.765625 2.6875q-1.3125 1.015625 -3.296875 1.015625q-1.5625 0 -2.78125 -0.703125q-1.203125 -0.703125 -1.890625 -1.984375q-0.671875 -1.28125 -0.671875 -3.0zm18.93689 5.5l-4.296875 -4.84375l0 4.84375l-1.8125 0l0 -14.796875l1.8125 0l0 8.703125l4.21875 -4.859375l2.546875 0l-5.171875 5.453125l5.1875 5.5l-2.484375 0z" fill-rule="nonzero"/><path fill="#000000" fill-opacity="0.0" d="m534.4409 304.26248l57.09552 0l0 22.834625l57.109253 0" fill-rule="evenodd"/><path stroke="#ffffff" stroke-width="1.0" stroke-linejoin="round" stroke-linecap="butt" d="m534.4409 304.26248l57.09552 0l0 22.834625l53.68213 0" fill-rule="evenodd"/><path fill="#ffffff" stroke="#ffffff" stroke-width="1.0" stroke-linecap="butt" d="m645.21857 327.0971l-1.1245728 1.1246033l3.0897827 -1.1246033l-3.0897827 -1.1245728z" fill-rule="evenodd"/><path fill="#bb8ba6" d="m720.6942 29.816273l406.17322 0l0 42.01575l-406.17322 0z" fill-rule="evenodd"/><path stroke="#bb8ba6" stroke-width="1.0" stroke-linejoin="round" stroke-linecap="butt" d="m720.6942 29.816273l406.17322 0l0 42.01575l-406.17322 0z" fill-rule="evenodd"/><path fill="#ffffff" d="m816.7851 56.73627l-3.09375 -5.3125l-2.046875 0l0 5.3125l-1.703125 0l0 -13.0l4.203125 0q1.46875 0 2.484375 0.5q1.015625 0.5 1.515625 1.359375q0.515625 0.859375 0.515625 1.96875q0 1.34375 -0.78125 2.375q-0.78125 1.015625 -2.328125 1.34375l3.265625 5.453125l-2.03125 0zm-5.140625 -6.671875l2.5 0q1.375 0 2.0625 -0.6875q0.6875 -0.6875 0.6875 -1.8125q0 -1.15625 -0.6875 -1.796875q-0.671875 -0.640625 -2.0625 -0.640625l-2.5 0l0 4.9375zm18.702393 -3.546875l0 10.21875l-1.6875 0l0 -1.515625q-0.484375 0.78125 -1.359375 1.234375q-0.875 0.4375 -1.90625 0.4375q-1.203125 0 -2.15625 -0.5q-0.953125 -0.5 -1.5 -1.484375q-0.546875 -0.984375 -0.546875 -2.40625l0 -5.984375l1.671875 0l0 5.765625q0 1.5 0.765625 2.3125q0.765625 0.8125 2.09375 0.8125q1.359375 0 2.140625 -0.828125q0.796875 -0.84375 0.796875 -2.453125l0 -5.609375l1.6875 0zm7.8618774 -0.1875q1.859375 0 3.015625 1.125q1.15625 1.125 1.15625 3.25l0 6.03125l-1.671875 0l0 -5.78125q0 -1.53125 -0.765625 -2.34375q-0.765625 -0.8125 -2.09375 -0.8125q-1.34375 0 -2.140625 0.84375q-0.78125 0.84375 -0.78125 2.4375l0 5.65625l-1.703125 0l0 -10.21875l1.703125 0l0 1.453125q0.5 -0.78125 1.359375 -1.203125q0.875 -0.4375 1.921875 -0.4375zm9.018127 1.578125l0 6.03125q0 0.75 0.3125 1.0625q0.328125 0.296875 1.109375 0.296875l1.25 0l0 1.4375l-1.53125 0q-1.40625 0 -2.125 -0.65625q-0.703125 -0.65625 -0.703125 -2.140625l0 -6.03125l-1.328125 0l0 -1.390625l1.328125 0l0 -2.578125l1.6875 0l0 2.578125l2.671875 0l0 1.390625l-2.671875 0zm5.6033325 -3.0625q-0.484375 0 -0.828125 -0.328125q-0.328125 -0.34375 -0.328125 -0.828125q0 -0.484375 0.328125 -0.8125q0.34375 -0.34375 0.828125 -0.34375q0.46875 0 0.796875 0.34375q0.328125 0.328125 0.328125 0.8125q0 0.484375 -0.328125 0.828125q-0.328125 0.328125 -0.796875 0.328125zm0.828125 1.671875l0 10.21875l-1.703125 0l0 -10.21875l1.703125 0zm15.183228 -0.1875q1.1875 0 2.125 0.5q0.9375 0.484375 1.46875 1.484375q0.546875 0.984375 0.546875 2.390625l0 6.03125l-1.6875 0l0 -5.78125q0 -1.53125 -0.75 -2.34375q-0.75 -0.8125 -2.046875 -0.8125q-1.3125 0 -2.109375 0.859375q-0.78125 0.84375 -0.78125 2.4375l0 5.640625l-1.671875 0l0 -5.78125q0 -1.53125 -0.765625 -2.34375q-0.75 -0.8125 -2.03125 -0.8125q-1.328125 0 -2.109375 0.859375q-0.78125 0.84375 -0.78125 2.4375l0 5.640625l-1.703125 0l0 -10.21875l1.703125 0l0 1.46875q0.5 -0.796875 1.34375 -1.21875q0.84375 -0.4375 1.875 -0.4375q1.296875 0 2.28125 0.578125q0.984375 0.578125 1.46875 1.6875q0.4375 -1.078125 1.421875 -1.671875q0.984375 -0.59375 2.203125 -0.59375zm16.247192 4.90625q0 0.484375 -0.0625 1.015625l-8.171875 0q0.09375 1.515625 1.03125 2.375q0.953125 0.84375 2.296875 0.84375q1.09375 0 1.828125 -0.515625q0.75 -0.515625 1.046875 -1.375l1.828125 0q-0.40625 1.484375 -1.640625 2.40625q-1.234375 0.921875 -3.0625 0.921875q-1.453125 0 -2.609375 -0.65625q-1.140625 -0.65625 -1.796875 -1.859375q-0.65625 -1.203125 -0.65625 -2.78125q0 -1.59375 0.640625 -2.78125q0.640625 -1.203125 1.78125 -1.84375q1.140625 -0.640625 2.640625 -0.640625q1.453125 0 2.5625 0.640625q1.125 0.625 1.734375 1.734375q0.609375 1.109375 0.609375 2.515625zm-1.75 -0.359375q0 -0.96875 -0.4375 -1.671875q-0.421875 -0.703125 -1.171875 -1.0625q-0.734375 -0.359375 -1.625 -0.359375q-1.28125 0 -2.1875 0.828125q-0.90625 0.8125 -1.03125 2.265625l6.453125 0zm16.06372 -1.703125l0 1.4375l-7.4375 0l0 -1.4375l7.4375 0zm24.510803 -5.4375l-3.765625 13.0l-1.90625 0l-3.03125 -10.46875l-3.125 10.46875l-1.890625 0.015625l-3.640625 -13.015625l1.8125 0l2.84375 11.015625l3.125 -11.015625l1.90625 0l2.984375 10.984375l2.859375 -10.984375l1.828125 0zm11.192871 7.5q0 0.484375 -0.0625 1.015625l-8.171875 0q0.09375 1.515625 1.03125 2.375q0.953125 0.84375 2.296875 0.84375q1.09375 0 1.828125 -0.515625q0.75 -0.515625 1.046875 -1.375l1.828125 0q-0.40625 1.484375 -1.640625 2.40625q-1.234375 0.921875 -3.0625 0.921875q-1.453125 0 -2.609375 -0.65625q-1.140625 -0.65625 -1.796875 -1.859375q-0.65625 -1.203125 -0.65625 -2.78125q0 -1.59375 0.640625 -2.78125q0.640625 -1.203125 1.78125 -1.84375q1.140625 -0.640625 2.640625 -0.640625q1.453125 0 2.5625 0.640625q1.125 0.625 1.734375 1.734375q0.609375 1.109375 0.609375 2.515625zm-1.75 -0.359375q0 -0.96875 -0.4375 -1.671875q-0.421875 -0.703125 -1.171875 -1.0625q-0.734375 -0.359375 -1.625 -0.359375q-1.28125 0 -2.1875 0.828125q-0.90625 0.8125 -1.03125 2.265625l6.453125 0zm5.6918945 -2.46875q0.515625 -0.90625 1.515625 -1.484375q1.015625 -0.578125 2.296875 -0.578125q1.390625 0 2.484375 0.65625q1.109375 0.65625 1.734375 1.84375q0.640625 1.171875 0.640625 2.734375q0 1.5625 -0.640625 2.78125q-0.625 1.203125 -1.734375 1.875q-1.109375 0.671875 -2.484375 0.671875q-1.3125 0 -2.3125 -0.578125q-1.0 -0.578125 -1.5 -1.484375l0 1.890625l-1.703125 0l0 -13.8125l1.703125 0l0 5.484375zm6.9375 3.171875q0 -1.15625 -0.46875 -2.0q-0.46875 -0.859375 -1.265625 -1.3125q-0.78125 -0.453125 -1.734375 -0.453125q-0.9375 0 -1.734375 0.46875q-0.796875 0.453125 -1.265625 1.328125q-0.46875 0.859375 -0.46875 2.0q0 1.15625 0.46875 2.03125q0.46875 0.859375 1.265625 1.3125q0.796875 0.453125 1.734375 0.453125q0.953125 0 1.734375 -0.453125q0.796875 -0.453125 1.265625 -1.3125q0.46875 -0.875 0.46875 -2.0625zm11.658508 2.265625l-5.671875 0l-1.046875 2.890625l-1.796875 0l4.703125 -12.921875l1.96875 0l4.671875 12.921875l-1.78125 0l-1.046875 -2.890625zm-0.484375 -1.375l-2.359375 -6.578125l-2.34375 6.578125l4.703125 0zm8.996155 4.4375q-1.1875 0 -2.125 -0.40625q-0.921875 -0.40625 -1.46875 -1.125q-0.53125 -0.71875 -0.59375 -1.640625l1.75 0q0.078125 0.765625 0.71875 1.25q0.65625 0.484375 1.6875 0.484375q0.96875 0 1.53125 -0.421875q0.5625 -0.4375 0.5625 -1.09375q0 -0.671875 -0.59375 -1.0q-0.59375 -0.328125 -1.84375 -0.640625q-1.140625 -0.296875 -1.859375 -0.59375q-0.71875 -0.3125 -1.234375 -0.921875q-0.515625 -0.609375 -0.515625 -1.59375q0 -0.796875 0.46875 -1.4375q0.46875 -0.65625 1.328125 -1.03125q0.859375 -0.390625 1.953125 -0.390625q1.703125 0 2.75 0.859375q1.046875 0.859375 1.109375 2.34375l-1.6875 0q-0.0625 -0.796875 -0.65625 -1.28125q-0.578125 -0.484375 -1.5625 -0.484375q-0.921875 0 -1.46875 0.390625q-0.53125 0.390625 -0.53125 1.03125q0 0.5 0.328125 0.828125q0.328125 0.328125 0.8125 0.53125q0.5 0.1875 1.375 0.421875q1.109375 0.296875 1.796875 0.59375q0.6875 0.28125 1.171875 0.859375q0.5 0.578125 0.515625 1.515625q0 0.84375 -0.46875 1.515625q-0.453125 0.671875 -1.3125 1.0625q-0.84375 0.375 -1.9375 0.375zm9.738586 0q-1.1875 0 -2.125 -0.40625q-0.921875 -0.40625 -1.46875 -1.125q-0.53125 -0.71875 -0.59375 -1.640625l1.75 0q0.078125 0.765625 0.71875 1.25q0.65625 0.484375 1.6875 0.484375q0.96875 0 1.53125 -0.421875q0.5625 -0.4375 0.5625 -1.09375q0 -0.671875 -0.59375 -1.0q-0.59375 -0.328125 -1.84375 -0.640625q-1.140625 -0.296875 -1.859375 -0.59375q-0.71875 -0.3125 -1.234375 -0.921875q-0.515625 -0.609375 -0.515625 -1.59375q0 -0.796875 0.46875 -1.4375q0.46875 -0.65625 1.328125 -1.03125q0.859375 -0.390625 1.953125 -0.390625q1.703125 0 2.75 0.859375q1.046875 0.859375 1.109375 2.34375l-1.6875 0q-0.0625 -0.796875 -0.65625 -1.28125q-0.578125 -0.484375 -1.5625 -0.484375q-0.921875 0 -1.46875 0.390625q-0.53125 0.390625 -0.53125 1.03125q0 0.5 0.328125 0.828125q0.328125 0.328125 0.8125 0.53125q0.5 0.1875 1.375 0.421875q1.109375 0.296875 1.796875 0.59375q0.6875 0.28125 1.171875 0.859375q0.5 0.578125 0.515625 1.515625q0 0.84375 -0.46875 1.515625q-0.453125 0.671875 -1.3125 1.0625q-0.84375 0.375 -1.9375 0.375zm15.441711 -5.671875q0 0.484375 -0.0625 1.015625l-8.171875 0q0.09375 1.515625 1.03125 2.375q0.953125 0.84375 2.296875 0.84375q1.09375 0 1.828125 -0.515625q0.75 -0.515625 1.046875 -1.375l1.828125 0q-0.40625 1.484375 -1.640625 2.40625q-1.234375 0.921875 -3.0625 0.921875q-1.453125 0 -2.609375 -0.65625q-1.140625 -0.65625 -1.796875 -1.859375q-0.65625 -1.203125 -0.65625 -2.78125q0 -1.59375 0.640625 -2.78125q0.640625 -1.203125 1.78125 -1.84375q1.140625 -0.640625 2.640625 -0.640625q1.453125 0 2.5625 0.640625q1.125 0.625 1.734375 1.734375q0.609375 1.109375 0.609375 2.515625zm-1.75 -0.359375q0 -0.96875 -0.4375 -1.671875q-0.421875 -0.703125 -1.171875 -1.0625q-0.734375 -0.359375 -1.625 -0.359375q-1.28125 0 -2.1875 0.828125q-0.90625 0.8125 -1.03125 2.265625l6.453125 0zm16.285645 -4.546875q1.1875 0 2.125 0.5q0.9375 0.484375 1.46875 1.484375q0.546875 0.984375 0.546875 2.390625l0 6.03125l-1.6875 0l0 -5.78125q0 -1.53125 -0.75 -2.34375q-0.75 -0.8125 -2.046875 -0.8125q-1.3125 0 -2.109375 0.859375q-0.78125 0.84375 -0.78125 2.4375l0 5.640625l-1.671875 0l0 -5.78125q0 -1.53125 -0.765625 -2.34375q-0.75 -0.8125 -2.03125 -0.8125q-1.328125 0 -2.109375 0.859375q-0.78125 0.84375 -0.78125 2.4375l0 5.640625l-1.703125 0l0 -10.21875l1.703125 0l0 1.46875q0.5 -0.796875 1.34375 -1.21875q0.84375 -0.4375 1.875 -0.4375q1.296875 0 2.28125 0.578125q0.984375 0.578125 1.46875 1.6875q0.4375 -1.078125 1.421875 -1.671875q0.984375 -0.59375 2.203125 -0.59375zm8.622192 2.078125q0.515625 -0.90625 1.515625 -1.484375q1.015625 -0.578125 2.296875 -0.578125q1.390625 0 2.484375 0.65625q1.109375 0.65625 1.734375 1.84375q0.640625 1.171875 0.640625 2.734375q0 1.5625 -0.640625 2.78125q-0.625 1.203125 -1.734375 1.875q-1.109375 0.671875 -2.484375 0.671875q-1.3125 0 -2.3125 -0.578125q-1.0 -0.578125 -1.5 -1.484375l0 1.890625l-1.703125 0l0 -13.8125l1.703125 0l0 5.484375zm6.9375 3.171875q0 -1.15625 -0.46875 -2.0q-0.46875 -0.859375 -1.265625 -1.3125q-0.78125 -0.453125 -1.734375 -0.453125q-0.9375 0 -1.734375 0.46875q-0.796875 0.453125 -1.265625 1.328125q-0.46875 0.859375 -0.46875 2.0q0 1.15625 0.46875 2.03125q0.46875 0.859375 1.265625 1.3125q0.796875 0.453125 1.734375 0.453125q0.953125 0 1.734375 -0.453125q0.796875 -0.453125 1.265625 -1.3125q0.46875 -0.875 0.46875 -2.0625zm5.6741333 -8.65625l0 13.8125l-1.703125 0l0 -13.8125l1.703125 0zm11.69873 3.59375l-6.171875 15.03125l-1.75 0l2.015625 -4.921875l-4.125 -10.109375l1.890625 0l3.203125 8.28125l3.171875 -8.28125l1.765625 0z" fill-rule="nonzero"/><path fill="#000000" fill-opacity="0.0" d="m923.7808 560.8688l0 24.999634l-694.3259 0l0 -141.62958l-50.05197 0" fill-rule="evenodd"/><path stroke="#ffffff" stroke-width="1.0" stroke-linejoin="round" stroke-linecap="butt" d="m923.7808 560.8688l0 24.999634l-694.3259 0l0 -141.62958l-50.05197 0" fill-rule="evenodd"/></g></svg>