<?xml version="1.0" encoding="UTF-8" standalone="no"?>
<!DOCTYPE svg PUBLIC "-//W3C//DTD SVG 1.1//EN"
 "http://www.w3.org/Graphics/SVG/1.1/DTD/svg11.dtd">
<!-- Generated by graphviz version 3.0.0 (20220226.1711)
 -->
<!-- Title: n=13 Pages: 1 -->
<svg width="1291pt" height="493pt"
  xmlns="http://www.w3.org/2000/svg" xmlns:xlink="http://www.w3.org/1999/xlink">
<g id="graph0" class="graph" transform="scale(1.38889 1.38889) rotate(0) translate(4 351)">
<title>n=13</title>
<polygon fill="white" stroke="transparent" points="-4,4 -4,-351 925.49,-351 925.49,4 -4,4"/>
<text text-anchor="middle" x="460.74" y="-7.8" font-family="Times,serif" font-size="14.00">n=13</text>
<!-- 22 -->
<g id="22" class="node">
<title>22</title>
<polygon fill="none" stroke="lightblue" points="895.43,-23.05 897.2,-23.15 898.96,-23.3 900.69,-23.49 902.39,-23.74 904.05,-24.03 905.67,-24.36 907.23,-24.75 908.73,-25.18 910.17,-25.65 911.54,-26.16 912.84,-26.71 914.06,-27.31 915.2,-27.94 916.25,-28.61 917.22,-29.31 918.09,-30.04 918.87,-30.8 919.56,-31.59 920.15,-32.41 920.65,-33.25 921.05,-34.11 921.36,-34.99 921.58,-35.89 921.7,-36.8 921.73,-37.72 921.68,-38.65 921.54,-39.59 921.31,-40.53 921.01,-41.47 920.63,-42.41 920.18,-43.35 919.66,-44.28 919.08,-45.2 918.43,-46.11 917.72,-47.01 916.97,-47.89 916.16,-48.75 915.3,-49.59 914.41,-50.41 913.48,-51.2 912.51,-51.96 911.51,-52.69 910.48,-53.39 909.43,-54.06 908.35,-54.69 907.26,-55.29 906.15,-55.84 905.02,-56.35 903.89,-56.82 902.74,-57.25 901.58,-57.64 900.42,-57.97 899.24,-58.26 898.07,-58.51 896.89,-58.7 895.71,-58.85 894.52,-58.95 893.34,-59 892.15,-59 890.96,-58.95 889.78,-58.85 888.6,-58.7 887.42,-58.51 886.24,-58.26 885.07,-57.97 883.91,-57.64 882.75,-57.25 881.6,-56.82 880.46,-56.35 879.34,-55.84 878.23,-55.29 877.13,-54.69 876.06,-54.06 875.01,-53.39 873.98,-52.69 872.98,-51.96 872.01,-51.2 871.08,-50.41 870.18,-49.59 869.33,-48.75 868.52,-47.89 867.76,-47.01 867.06,-46.11 866.41,-45.2 865.83,-44.28 865.3,-43.35 864.85,-42.41 864.47,-41.47 864.17,-40.53 863.95,-39.59 863.81,-38.65 863.75,-37.72 863.79,-36.8 863.91,-35.89 864.13,-34.99 864.43,-34.11 864.84,-33.25 865.34,-32.41 865.93,-31.59 866.62,-30.8 867.4,-30.04 868.27,-29.31 869.24,-28.61 870.29,-27.94 871.43,-27.31 872.65,-26.71 873.94,-26.16 875.31,-25.65 876.75,-25.18 878.26,-24.75 879.82,-24.36 881.44,-24.03 883.1,-23.74 884.79,-23.49 886.53,-23.3 888.28,-23.15 890.06,-23.05 891.85,-23 893.64,-23 895.43,-23.05"/>
<text text-anchor="middle" x="892.74" y="-37.3" font-family="Times,serif" font-size="14.00">13</text>
</g>
<!-- 19 -->
<g id="19" class="node">
<title>19</title>
<polygon fill="none" stroke="lightblue" points="823.43,-23.05 825.2,-23.15 826.96,-23.3 828.69,-23.49 830.39,-23.74 832.05,-24.03 833.67,-24.36 835.23,-24.75 836.73,-25.18 838.17,-25.65 839.54,-26.16 840.84,-26.71 842.06,-27.31 843.2,-27.94 844.25,-28.61 845.22,-29.31 846.09,-30.04 846.87,-30.8 847.56,-31.59 848.15,-32.41 848.65,-33.25 849.05,-34.11 849.36,-34.99 849.58,-35.89 849.7,-36.8 849.73,-37.72 849.68,-38.65 849.54,-39.59 849.31,-40.53 849.01,-41.47 848.63,-42.41 848.18,-43.35 847.66,-44.28 847.08,-45.2 846.43,-46.11 845.72,-47.01 844.97,-47.89 844.16,-48.75 843.3,-49.59 842.41,-50.41 841.48,-51.2 840.51,-51.96 839.51,-52.69 838.48,-53.39 837.43,-54.06 836.35,-54.69 835.26,-55.29 834.15,-55.84 833.02,-56.35 831.89,-56.82 830.74,-57.25 829.58,-57.64 828.42,-57.97 827.24,-58.26 826.07,-58.51 824.89,-58.7 823.71,-58.85 822.52,-58.95 821.34,-59 820.15,-59 818.96,-58.95 817.78,-58.85 816.6,-58.7 815.42,-58.51 814.24,-58.26 813.07,-57.97 811.91,-57.64 810.75,-57.25 809.6,-56.82 808.46,-56.35 807.34,-55.84 806.23,-55.29 805.13,-54.69 804.06,-54.06 803.01,-53.39 801.98,-52.69 800.98,-51.96 800.01,-51.2 799.08,-50.41 798.18,-49.59 797.33,-48.75 796.52,-47.89 795.76,-47.01 795.06,-46.11 794.41,-45.2 793.83,-44.28 793.3,-43.35 792.85,-42.41 792.47,-41.47 792.17,-40.53 791.95,-39.59 791.81,-38.65 791.75,-37.72 791.79,-36.8 791.91,-35.89 792.13,-34.99 792.43,-34.11 792.84,-33.25 793.34,-32.41 793.93,-31.59 794.62,-30.8 795.4,-30.04 796.27,-29.31 797.24,-28.61 798.29,-27.94 799.43,-27.31 800.65,-26.71 801.94,-26.16 803.31,-25.65 804.75,-25.18 806.26,-24.75 807.82,-24.36 809.44,-24.03 811.1,-23.74 812.79,-23.49 814.53,-23.3 816.28,-23.15 818.06,-23.05 819.85,-23 821.64,-23 823.43,-23.05"/>
<text text-anchor="middle" x="820.74" y="-37.3" font-family="Times,serif" font-size="14.00">12</text>
</g>
<!-- 18 -->
<g id="18" class="node">
<title>18</title>
<polygon fill="none" stroke="lightblue" points="751.43,-23.05 753.2,-23.15 754.96,-23.3 756.69,-23.49 758.39,-23.74 760.05,-24.03 761.67,-24.36 763.23,-24.75 764.73,-25.18 766.17,-25.65 767.54,-26.16 768.84,-26.71 770.06,-27.31 771.2,-27.94 772.25,-28.61 773.22,-29.31 774.09,-30.04 774.87,-30.8 775.56,-31.59 776.15,-32.41 776.65,-33.25 777.05,-34.11 777.36,-34.99 777.58,-35.89 777.7,-36.8 777.73,-37.72 777.68,-38.65 777.54,-39.59 777.31,-40.53 777.01,-41.47 776.63,-42.41 776.18,-43.35 775.66,-44.28 775.08,-45.2 774.43,-46.11 773.72,-47.01 772.97,-47.89 772.16,-48.75 771.3,-49.59 770.41,-50.41 769.48,-51.2 768.51,-51.96 767.51,-52.69 766.48,-53.39 765.43,-54.06 764.35,-54.69 763.26,-55.29 762.15,-55.84 761.02,-56.35 759.89,-56.82 758.74,-57.25 757.58,-57.64 756.42,-57.97 755.24,-58.26 754.07,-58.51 752.89,-58.7 751.71,-58.85 750.52,-58.95 749.34,-59 748.15,-59 746.96,-58.95 745.78,-58.85 744.6,-58.7 743.42,-58.51 742.24,-58.26 741.07,-57.97 739.91,-57.64 738.75,-57.25 737.6,-56.82 736.46,-56.35 735.34,-55.84 734.23,-55.29 733.13,-54.69 732.06,-54.06 731.01,-53.39 729.98,-52.69 728.98,-51.96 728.01,-51.2 727.08,-50.41 726.18,-49.59 725.33,-48.75 724.52,-47.89 723.76,-47.01 723.06,-46.11 722.41,-45.2 721.83,-44.28 721.3,-43.35 720.85,-42.41 720.47,-41.47 720.17,-40.53 719.95,-39.59 719.81,-38.65 719.75,-37.72 719.79,-36.8 719.91,-35.89 720.13,-34.99 720.43,-34.11 720.84,-33.25 721.34,-32.41 721.93,-31.59 722.62,-30.8 723.4,-30.04 724.27,-29.31 725.24,-28.61 726.29,-27.94 727.43,-27.31 728.65,-26.71 729.94,-26.16 731.31,-25.65 732.75,-25.18 734.26,-24.75 735.82,-24.36 737.44,-24.03 739.1,-23.74 740.79,-23.49 742.53,-23.3 744.28,-23.15 746.06,-23.05 747.85,-23 749.64,-23 751.43,-23.05"/>
<text text-anchor="middle" x="748.74" y="-37.3" font-family="Times,serif" font-size="14.00">11</text>
</g>
<!-- 20 -->
<g id="20" class="node">
<title>20</title>
<polygon fill="none" stroke="grey" points="789.3,-95.05 792.32,-95.15 795.31,-95.3 798.26,-95.49 801.15,-95.74 803.97,-96.03 806.71,-96.36 809.37,-96.75 811.93,-97.18 814.37,-97.65 816.71,-98.16 818.91,-98.71 820.99,-99.31 822.92,-99.94 824.71,-100.61 826.35,-101.31 827.83,-102.04 829.16,-102.8 830.33,-103.59 831.34,-104.41 832.19,-105.25 832.87,-106.11 833.4,-106.99 833.76,-107.89 833.97,-108.8 834.03,-109.72 833.94,-110.65 833.7,-111.59 833.32,-112.53 832.8,-113.47 832.16,-114.41 831.39,-115.35 830.51,-116.28 829.51,-117.2 828.41,-118.11 827.21,-119.01 825.93,-119.89 824.55,-120.75 823.1,-121.59 821.58,-122.41 819.99,-123.2 818.34,-123.96 816.65,-124.69 814.9,-125.39 813.11,-126.06 811.28,-126.69 809.42,-127.29 807.53,-127.84 805.62,-128.35 803.69,-128.82 801.73,-129.25 799.77,-129.64 797.79,-129.97 795.8,-130.26 793.8,-130.51 791.79,-130.7 789.78,-130.85 787.77,-130.95 785.75,-131 783.74,-131 781.72,-130.95 779.71,-130.85 777.7,-130.7 775.69,-130.51 773.69,-130.26 771.7,-129.97 769.72,-129.64 767.75,-129.25 765.8,-128.82 763.87,-128.35 761.95,-127.84 760.06,-127.29 758.2,-126.69 756.38,-126.06 754.59,-125.39 752.84,-124.69 751.14,-123.96 749.5,-123.2 747.91,-122.41 746.39,-121.59 744.93,-120.75 743.56,-119.89 742.27,-119.01 741.07,-118.11 739.97,-117.2 738.98,-116.28 738.09,-115.35 737.33,-114.41 736.68,-113.47 736.17,-112.53 735.79,-111.59 735.55,-110.65 735.46,-109.72 735.51,-108.8 735.72,-107.89 736.09,-106.99 736.61,-106.11 737.3,-105.25 738.15,-104.41 739.15,-103.59 740.32,-102.8 741.65,-102.04 743.14,-101.31 744.78,-100.61 746.57,-99.94 748.5,-99.31 750.57,-98.71 752.78,-98.16 755.11,-97.65 757.56,-97.18 760.12,-96.75 762.77,-96.36 765.52,-96.03 768.34,-95.74 771.23,-95.49 774.17,-95.3 777.16,-95.15 780.18,-95.05 783.22,-95 786.27,-95 789.3,-95.05"/>
<text text-anchor="middle" x="784.74" y="-109.3" font-family="Times,serif" font-size="14.00">#{11..12}</text>
</g>
<!-- 20&#45;&#45;19 -->
<g id="edge24" class="edge">
<title>20&#45;&#45;19</title>
<path fill="none" stroke="black" d="M793.64,-95.2C799.31,-83.88 806.6,-69.29 812.19,-58.1"/>
</g>
<!-- 20&#45;&#45;18 -->
<g id="edge23" class="edge">
<title>20&#45;&#45;18</title>
<path fill="none" stroke="black" d="M775.84,-95.2C770.18,-83.88 762.89,-69.29 757.29,-58.1"/>
</g>
<!-- 16 -->
<g id="16" class="node">
<title>16</title>
<polygon fill="none" stroke="lightblue" points="679.43,-23.05 681.2,-23.15 682.96,-23.3 684.69,-23.49 686.39,-23.74 688.05,-24.03 689.67,-24.36 691.23,-24.75 692.73,-25.18 694.17,-25.65 695.54,-26.16 696.84,-26.71 698.06,-27.31 699.2,-27.94 700.25,-28.61 701.22,-29.31 702.09,-30.04 702.87,-30.8 703.56,-31.59 704.15,-32.41 704.65,-33.25 705.05,-34.11 705.36,-34.99 705.58,-35.89 705.7,-36.8 705.73,-37.72 705.68,-38.65 705.54,-39.59 705.31,-40.53 705.01,-41.47 704.63,-42.41 704.18,-43.35 703.66,-44.28 703.08,-45.2 702.43,-46.11 701.72,-47.01 700.97,-47.89 700.16,-48.75 699.3,-49.59 698.41,-50.41 697.48,-51.2 696.51,-51.96 695.51,-52.69 694.48,-53.39 693.43,-54.06 692.35,-54.69 691.26,-55.29 690.15,-55.84 689.02,-56.35 687.89,-56.82 686.74,-57.25 685.58,-57.64 684.42,-57.97 683.24,-58.26 682.07,-58.51 680.89,-58.7 679.71,-58.85 678.52,-58.95 677.34,-59 676.15,-59 674.96,-58.95 673.78,-58.85 672.6,-58.7 671.42,-58.51 670.24,-58.26 669.07,-57.97 667.91,-57.64 666.75,-57.25 665.6,-56.82 664.46,-56.35 663.34,-55.84 662.23,-55.29 661.13,-54.69 660.06,-54.06 659.01,-53.39 657.98,-52.69 656.98,-51.96 656.01,-51.2 655.08,-50.41 654.18,-49.59 653.33,-48.75 652.52,-47.89 651.76,-47.01 651.06,-46.11 650.41,-45.2 649.83,-44.28 649.3,-43.35 648.85,-42.41 648.47,-41.47 648.17,-40.53 647.95,-39.59 647.81,-38.65 647.75,-37.72 647.79,-36.8 647.91,-35.89 648.13,-34.99 648.43,-34.11 648.84,-33.25 649.34,-32.41 649.93,-31.59 650.62,-30.8 651.4,-30.04 652.27,-29.31 653.24,-28.61 654.29,-27.94 655.43,-27.31 656.65,-26.71 657.94,-26.16 659.31,-25.65 660.75,-25.18 662.26,-24.75 663.82,-24.36 665.44,-24.03 667.1,-23.74 668.79,-23.49 670.53,-23.3 672.28,-23.15 674.06,-23.05 675.85,-23 677.64,-23 679.43,-23.05"/>
<text text-anchor="middle" x="676.74" y="-37.3" font-family="Times,serif" font-size="14.00">10</text>
</g>
<!-- 15 -->
<g id="15" class="node">
<title>15</title>
<polygon fill="none" stroke="lightblue" points="607.43,-23.05 609.2,-23.15 610.96,-23.3 612.69,-23.49 614.39,-23.74 616.05,-24.03 617.67,-24.36 619.23,-24.75 620.73,-25.18 622.17,-25.65 623.54,-26.16 624.84,-26.71 626.06,-27.31 627.2,-27.94 628.25,-28.61 629.22,-29.31 630.09,-30.04 630.87,-30.8 631.56,-31.59 632.15,-32.41 632.65,-33.25 633.05,-34.11 633.36,-34.99 633.58,-35.89 633.7,-36.8 633.73,-37.72 633.68,-38.65 633.54,-39.59 633.31,-40.53 633.01,-41.47 632.63,-42.41 632.18,-43.35 631.66,-44.28 631.08,-45.2 630.43,-46.11 629.72,-47.01 628.97,-47.89 628.16,-48.75 627.3,-49.59 626.41,-50.41 625.48,-51.2 624.51,-51.96 623.51,-52.69 622.48,-53.39 621.43,-54.06 620.35,-54.69 619.26,-55.29 618.15,-55.84 617.02,-56.35 615.89,-56.82 614.74,-57.25 613.58,-57.64 612.42,-57.97 611.24,-58.26 610.07,-58.51 608.89,-58.7 607.71,-58.85 606.52,-58.95 605.34,-59 604.15,-59 602.96,-58.95 601.78,-58.85 600.6,-58.7 599.42,-58.51 598.24,-58.26 597.07,-57.97 595.91,-57.64 594.75,-57.25 593.6,-56.82 592.46,-56.35 591.34,-55.84 590.23,-55.29 589.13,-54.69 588.06,-54.06 587.01,-53.39 585.98,-52.69 584.98,-51.96 584.01,-51.2 583.08,-50.41 582.18,-49.59 581.33,-48.75 580.52,-47.89 579.76,-47.01 579.06,-46.11 578.41,-45.2 577.83,-44.28 577.3,-43.35 576.85,-42.41 576.47,-41.47 576.17,-40.53 575.95,-39.59 575.81,-38.65 575.75,-37.72 575.79,-36.8 575.91,-35.89 576.13,-34.99 576.43,-34.11 576.84,-33.25 577.34,-32.41 577.93,-31.59 578.62,-30.8 579.4,-30.04 580.27,-29.31 581.24,-28.61 582.29,-27.94 583.43,-27.31 584.65,-26.71 585.94,-26.16 587.31,-25.65 588.75,-25.18 590.26,-24.75 591.82,-24.36 593.44,-24.03 595.1,-23.74 596.79,-23.49 598.53,-23.3 600.28,-23.15 602.06,-23.05 603.85,-23 605.64,-23 607.43,-23.05"/>
<text text-anchor="middle" x="604.74" y="-37.3" font-family="Times,serif" font-size="14.00">9</text>
</g>
<!-- 17 -->
<g id="17" class="node">
<title>17</title>
<polygon fill="none" stroke="grey" points="644.91,-95.05 647.66,-95.15 650.39,-95.3 653.08,-95.49 655.71,-95.74 658.29,-96.03 660.79,-96.36 663.22,-96.75 665.55,-97.18 667.79,-97.65 669.91,-98.16 671.93,-98.71 673.82,-99.31 675.58,-99.94 677.22,-100.61 678.71,-101.31 680.07,-102.04 681.28,-102.8 682.35,-103.59 683.27,-104.41 684.04,-105.25 684.67,-106.11 685.15,-106.99 685.48,-107.89 685.67,-108.8 685.72,-109.72 685.64,-110.65 685.42,-111.59 685.07,-112.53 684.61,-113.47 684.02,-114.41 683.32,-115.35 682.51,-116.28 681.6,-117.2 680.6,-118.11 679.5,-119.01 678.33,-119.89 677.07,-120.75 675.75,-121.59 674.36,-122.41 672.91,-123.2 671.41,-123.96 669.86,-124.69 668.26,-125.39 666.63,-126.06 664.96,-126.69 663.27,-127.29 661.54,-127.84 659.8,-128.35 658.03,-128.82 656.25,-129.25 654.45,-129.64 652.65,-129.97 650.83,-130.26 649.01,-130.51 647.18,-130.7 645.34,-130.85 643.5,-130.95 641.66,-131 639.82,-131 637.98,-130.95 636.15,-130.85 634.31,-130.7 632.48,-130.51 630.66,-130.26 628.84,-129.97 627.03,-129.64 625.24,-129.25 623.46,-128.82 621.69,-128.35 619.94,-127.84 618.22,-127.29 616.52,-126.69 614.86,-126.06 613.22,-125.39 611.63,-124.69 610.08,-123.96 608.58,-123.2 607.13,-122.41 605.74,-121.59 604.41,-120.75 603.16,-119.89 601.98,-119.01 600.89,-118.11 599.89,-117.2 598.98,-116.28 598.17,-115.35 597.47,-114.41 596.88,-113.47 596.41,-112.53 596.07,-111.59 595.85,-110.65 595.76,-109.72 595.82,-108.8 596.01,-107.89 596.34,-106.99 596.82,-106.11 597.45,-105.25 598.22,-104.41 599.14,-103.59 600.2,-102.8 601.42,-102.04 602.77,-101.31 604.27,-100.61 605.9,-99.94 607.67,-99.31 609.56,-98.71 611.57,-98.16 613.7,-97.65 615.94,-97.18 618.27,-96.75 620.69,-96.36 623.2,-96.03 625.77,-95.74 628.41,-95.49 631.1,-95.3 633.83,-95.15 636.58,-95.05 639.35,-95 642.13,-95 644.91,-95.05"/>
<text text-anchor="middle" x="640.74" y="-109.3" font-family="Times,serif" font-size="14.00">#{9..10}</text>
</g>
<!-- 17&#45;&#45;16 -->
<g id="edge22" class="edge">
<title>17&#45;&#45;16</title>
<path fill="none" stroke="black" d="M649.64,-95.2C655.31,-83.88 662.6,-69.29 668.19,-58.1"/>
</g>
<!-- 17&#45;&#45;15 -->
<g id="edge21" class="edge">
<title>17&#45;&#45;15</title>
<path fill="none" stroke="black" d="M631.84,-95.2C626.18,-83.88 618.89,-69.29 613.29,-58.1"/>
</g>
<!-- 21 -->
<g id="21" class="node">
<title>21</title>
<polygon fill="none" stroke="red" points="716.91,-167.05 719.66,-167.15 722.39,-167.3 725.08,-167.49 727.71,-167.74 730.29,-168.03 732.79,-168.36 735.22,-168.75 737.55,-169.18 739.79,-169.65 741.91,-170.16 743.93,-170.71 745.82,-171.31 747.58,-171.94 749.22,-172.61 750.71,-173.31 752.07,-174.04 753.28,-174.8 754.35,-175.59 755.27,-176.41 756.04,-177.25 756.67,-178.11 757.15,-178.99 757.48,-179.89 757.67,-180.8 757.72,-181.72 757.64,-182.65 757.42,-183.59 757.07,-184.53 756.61,-185.47 756.02,-186.41 755.32,-187.35 754.51,-188.28 753.6,-189.2 752.6,-190.11 751.5,-191.01 750.33,-191.89 749.07,-192.75 747.75,-193.59 746.36,-194.41 744.91,-195.2 743.41,-195.96 741.86,-196.69 740.26,-197.39 738.63,-198.06 736.96,-198.69 735.27,-199.29 733.54,-199.84 731.8,-200.35 730.03,-200.82 728.25,-201.25 726.45,-201.64 724.65,-201.97 722.83,-202.26 721.01,-202.51 719.18,-202.7 717.34,-202.85 715.5,-202.95 713.66,-203 711.82,-203 709.98,-202.95 708.15,-202.85 706.31,-202.7 704.48,-202.51 702.66,-202.26 700.84,-201.97 699.03,-201.64 697.24,-201.25 695.46,-200.82 693.69,-200.35 691.94,-199.84 690.22,-199.29 688.52,-198.69 686.86,-198.06 685.22,-197.39 683.63,-196.69 682.08,-195.96 680.58,-195.2 679.13,-194.41 677.74,-193.59 676.41,-192.75 675.16,-191.89 673.98,-191.01 672.89,-190.11 671.89,-189.2 670.98,-188.28 670.17,-187.35 669.47,-186.41 668.88,-185.47 668.41,-184.53 668.07,-183.59 667.85,-182.65 667.76,-181.72 667.82,-180.8 668.01,-179.89 668.34,-178.99 668.82,-178.11 669.45,-177.25 670.22,-176.41 671.14,-175.59 672.2,-174.8 673.42,-174.04 674.77,-173.31 676.27,-172.61 677.9,-171.94 679.67,-171.31 681.56,-170.71 683.57,-170.16 685.7,-169.65 687.94,-169.18 690.27,-168.75 692.69,-168.36 695.2,-168.03 697.77,-167.74 700.41,-167.49 703.1,-167.3 705.83,-167.15 708.58,-167.05 711.35,-167 714.13,-167 716.91,-167.05"/>
<text text-anchor="middle" x="712.74" y="-181.3" font-family="Times,serif" font-size="14.00">#{9..12}</text>
</g>
<!-- 21&#45;&#45;20 -->
<g id="edge20" class="edge">
<title>21&#45;&#45;20</title>
<path fill="none" stroke="black" d="M729.81,-167.94C741.45,-156.29 756.79,-140.95 768.3,-129.44"/>
</g>
<!-- 21&#45;&#45;17 -->
<g id="edge19" class="edge">
<title>21&#45;&#45;17</title>
<path fill="none" stroke="black" d="M695.68,-167.94C684.04,-156.29 668.7,-140.95 657.19,-129.44"/>
</g>
<!-- 23 -->
<g id="23" class="node">
<title>23</title>
<polygon fill="none" stroke="green" points="806.91,-239.05 809.66,-239.15 812.39,-239.3 815.08,-239.49 817.71,-239.74 820.29,-240.03 822.79,-240.36 825.22,-240.75 827.55,-241.18 829.79,-241.65 831.91,-242.16 833.93,-242.71 835.82,-243.31 837.58,-243.94 839.22,-244.61 840.71,-245.31 842.07,-246.04 843.28,-246.8 844.35,-247.59 845.27,-248.41 846.04,-249.25 846.67,-250.11 847.15,-250.99 847.48,-251.89 847.67,-252.8 847.72,-253.72 847.64,-254.65 847.42,-255.59 847.07,-256.53 846.61,-257.47 846.02,-258.41 845.32,-259.35 844.51,-260.28 843.6,-261.2 842.6,-262.11 841.5,-263.01 840.33,-263.89 839.07,-264.75 837.75,-265.59 836.36,-266.41 834.91,-267.2 833.41,-267.96 831.86,-268.69 830.26,-269.39 828.63,-270.06 826.96,-270.69 825.27,-271.29 823.54,-271.84 821.8,-272.35 820.03,-272.82 818.25,-273.25 816.45,-273.64 814.65,-273.97 812.83,-274.26 811.01,-274.51 809.18,-274.7 807.34,-274.85 805.5,-274.95 803.66,-275 801.82,-275 799.98,-274.95 798.15,-274.85 796.31,-274.7 794.48,-274.51 792.66,-274.26 790.84,-273.97 789.03,-273.64 787.24,-273.25 785.46,-272.82 783.69,-272.35 781.94,-271.84 780.22,-271.29 778.52,-270.69 776.86,-270.06 775.22,-269.39 773.63,-268.69 772.08,-267.96 770.58,-267.2 769.13,-266.41 767.74,-265.59 766.41,-264.75 765.16,-263.89 763.98,-263.01 762.89,-262.11 761.89,-261.2 760.98,-260.28 760.17,-259.35 759.47,-258.41 758.88,-257.47 758.41,-256.53 758.07,-255.59 757.85,-254.65 757.76,-253.72 757.82,-252.8 758.01,-251.89 758.34,-250.99 758.82,-250.11 759.45,-249.25 760.22,-248.41 761.14,-247.59 762.2,-246.8 763.42,-246.04 764.77,-245.31 766.27,-244.61 767.9,-243.94 769.67,-243.31 771.56,-242.71 773.57,-242.16 775.7,-241.65 777.94,-241.18 780.27,-240.75 782.69,-240.36 785.2,-240.03 787.77,-239.74 790.41,-239.49 793.1,-239.3 795.83,-239.15 798.58,-239.05 801.35,-239 804.13,-239 806.91,-239.05"/>
<text text-anchor="middle" x="802.74" y="-253.3" font-family="Times,serif" font-size="14.00">#{9..13}</text>
</g>
<!-- 23&#45;&#45;22 -->
<g id="edge18" class="edge">
<title>23&#45;&#45;22</title>
<path fill="none" stroke="black" d="M810.26,-238.96C827.33,-197.99 868.82,-98.42 885.56,-58.24"/>
</g>
<!-- 23&#45;&#45;21 -->
<g id="edge17" class="edge">
<title>23&#45;&#45;21</title>
<path fill="none" stroke="black" d="M781.87,-240.3C766.81,-228.25 746.63,-212.11 731.97,-200.38"/>
</g>
<!-- 11 -->
<g id="11" class="node">
<title>11</title>
<polygon fill="none" stroke="lightblue" points="535.43,-23.05 537.2,-23.15 538.96,-23.3 540.69,-23.49 542.39,-23.74 544.05,-24.03 545.67,-24.36 547.23,-24.75 548.73,-25.18 550.17,-25.65 551.54,-26.16 552.84,-26.71 554.06,-27.31 555.2,-27.94 556.25,-28.61 557.22,-29.31 558.09,-30.04 558.87,-30.8 559.56,-31.59 560.15,-32.41 560.65,-33.25 561.05,-34.11 561.36,-34.99 561.58,-35.89 561.7,-36.8 561.73,-37.72 561.68,-38.65 561.54,-39.59 561.31,-40.53 561.01,-41.47 560.63,-42.41 560.18,-43.35 559.66,-44.28 559.08,-45.2 558.43,-46.11 557.72,-47.01 556.97,-47.89 556.16,-48.75 555.3,-49.59 554.41,-50.41 553.48,-51.2 552.51,-51.96 551.51,-52.69 550.48,-53.39 549.43,-54.06 548.35,-54.69 547.26,-55.29 546.15,-55.84 545.02,-56.35 543.89,-56.82 542.74,-57.25 541.58,-57.64 540.42,-57.97 539.24,-58.26 538.07,-58.51 536.89,-58.7 535.71,-58.85 534.52,-58.95 533.34,-59 532.15,-59 530.96,-58.95 529.78,-58.85 528.6,-58.7 527.42,-58.51 526.24,-58.26 525.07,-57.97 523.91,-57.64 522.75,-57.25 521.6,-56.82 520.46,-56.35 519.34,-55.84 518.23,-55.29 517.13,-54.69 516.06,-54.06 515.01,-53.39 513.98,-52.69 512.98,-51.96 512.01,-51.2 511.08,-50.41 510.18,-49.59 509.33,-48.75 508.52,-47.89 507.76,-47.01 507.06,-46.11 506.41,-45.2 505.83,-44.28 505.3,-43.35 504.85,-42.41 504.47,-41.47 504.17,-40.53 503.95,-39.59 503.81,-38.65 503.75,-37.72 503.79,-36.8 503.91,-35.89 504.13,-34.99 504.43,-34.11 504.84,-33.25 505.34,-32.41 505.93,-31.59 506.62,-30.8 507.4,-30.04 508.27,-29.31 509.24,-28.61 510.29,-27.94 511.43,-27.31 512.65,-26.71 513.94,-26.16 515.31,-25.65 516.75,-25.18 518.26,-24.75 519.82,-24.36 521.44,-24.03 523.1,-23.74 524.79,-23.49 526.53,-23.3 528.28,-23.15 530.06,-23.05 531.85,-23 533.64,-23 535.43,-23.05"/>
<text text-anchor="middle" x="532.74" y="-37.3" font-family="Times,serif" font-size="14.00">8</text>
</g>
<!-- 10 -->
<g id="10" class="node">
<title>10</title>
<polygon fill="none" stroke="lightblue" points="463.43,-23.05 465.2,-23.15 466.96,-23.3 468.69,-23.49 470.39,-23.74 472.05,-24.03 473.67,-24.36 475.23,-24.75 476.73,-25.18 478.17,-25.65 479.54,-26.16 480.84,-26.71 482.06,-27.31 483.2,-27.94 484.25,-28.61 485.22,-29.31 486.09,-30.04 486.87,-30.8 487.56,-31.59 488.15,-32.41 488.65,-33.25 489.05,-34.11 489.36,-34.99 489.58,-35.89 489.7,-36.8 489.73,-37.72 489.68,-38.65 489.54,-39.59 489.31,-40.53 489.01,-41.47 488.63,-42.41 488.18,-43.35 487.66,-44.28 487.08,-45.2 486.43,-46.11 485.72,-47.01 484.97,-47.89 484.16,-48.75 483.3,-49.59 482.41,-50.41 481.48,-51.2 480.51,-51.96 479.51,-52.69 478.48,-53.39 477.43,-54.06 476.35,-54.69 475.26,-55.29 474.15,-55.84 473.02,-56.35 471.89,-56.82 470.74,-57.25 469.58,-57.64 468.42,-57.97 467.24,-58.26 466.07,-58.51 464.89,-58.7 463.71,-58.85 462.52,-58.95 461.34,-59 460.15,-59 458.96,-58.95 457.78,-58.85 456.6,-58.7 455.42,-58.51 454.24,-58.26 453.07,-57.97 451.91,-57.64 450.75,-57.25 449.6,-56.82 448.46,-56.35 447.34,-55.84 446.23,-55.29 445.13,-54.69 444.06,-54.06 443.01,-53.39 441.98,-52.69 440.98,-51.96 440.01,-51.2 439.08,-50.41 438.18,-49.59 437.33,-48.75 436.52,-47.89 435.76,-47.01 435.06,-46.11 434.41,-45.2 433.83,-44.28 433.3,-43.35 432.85,-42.41 432.47,-41.47 432.17,-40.53 431.95,-39.59 431.81,-38.65 431.75,-37.72 431.79,-36.8 431.91,-35.89 432.13,-34.99 432.43,-34.11 432.84,-33.25 433.34,-32.41 433.93,-31.59 434.62,-30.8 435.4,-30.04 436.27,-29.31 437.24,-28.61 438.29,-27.94 439.43,-27.31 440.65,-26.71 441.94,-26.16 443.31,-25.65 444.75,-25.18 446.26,-24.75 447.82,-24.36 449.44,-24.03 451.1,-23.74 452.79,-23.49 454.53,-23.3 456.28,-23.15 458.06,-23.05 459.85,-23 461.64,-23 463.43,-23.05"/>
<text text-anchor="middle" x="460.74" y="-37.3" font-family="Times,serif" font-size="14.00">7</text>
</g>
<!-- 12 -->
<g id="12" class="node">
<title>12</title>
<polygon fill="none" stroke="grey" points="500.47,-95.05 502.94,-95.15 505.38,-95.3 507.79,-95.49 510.15,-95.74 512.46,-96.03 514.7,-96.36 516.87,-96.75 518.96,-97.18 520.97,-97.65 522.87,-98.16 524.68,-98.71 526.37,-99.31 527.95,-99.94 529.41,-100.61 530.75,-101.31 531.97,-102.04 533.06,-102.8 534.01,-103.59 534.84,-104.41 535.53,-105.25 536.09,-106.11 536.52,-106.99 536.82,-107.89 536.99,-108.8 537.03,-109.72 536.96,-110.65 536.76,-111.59 536.45,-112.53 536.03,-113.47 535.51,-114.41 534.88,-115.35 534.15,-116.28 533.34,-117.2 532.44,-118.11 531.46,-119.01 530.41,-119.89 529.29,-120.75 528.1,-121.59 526.86,-122.41 525.56,-123.2 524.21,-123.96 522.82,-124.69 521.39,-125.39 519.93,-126.06 518.44,-126.69 516.92,-127.29 515.37,-127.84 513.81,-128.35 512.23,-128.82 510.63,-129.25 509.02,-129.64 507.41,-129.97 505.78,-130.26 504.14,-130.51 502.5,-130.7 500.86,-130.85 499.22,-130.95 497.57,-131 495.92,-131 494.27,-130.95 492.63,-130.85 490.98,-130.7 489.34,-130.51 487.71,-130.26 486.08,-129.97 484.46,-129.64 482.85,-129.25 481.26,-128.82 479.68,-128.35 478.11,-127.84 476.57,-127.29 475.05,-126.69 473.56,-126.06 472.09,-125.39 470.66,-124.69 469.27,-123.96 467.93,-123.2 466.63,-122.41 465.39,-121.59 464.2,-120.75 463.08,-119.89 462.02,-119.01 461.05,-118.11 460.15,-117.2 459.33,-116.28 458.61,-115.35 457.98,-114.41 457.45,-113.47 457.03,-112.53 456.72,-111.59 456.53,-110.65 456.45,-109.72 456.5,-108.8 456.67,-107.89 456.97,-106.99 457.4,-106.11 457.96,-105.25 458.65,-104.41 459.48,-103.59 460.43,-102.8 461.52,-102.04 462.73,-101.31 464.07,-100.61 465.53,-99.94 467.12,-99.31 468.81,-98.71 470.61,-98.16 472.52,-97.65 474.52,-97.18 476.61,-96.75 478.78,-96.36 481.03,-96.03 483.33,-95.74 485.7,-95.49 488.1,-95.3 490.55,-95.15 493.02,-95.05 495.5,-95 497.99,-95 500.47,-95.05"/>
<text text-anchor="middle" x="496.74" y="-109.3" font-family="Times,serif" font-size="14.00">#{7..8}</text>
</g>
<!-- 12&#45;&#45;11 -->
<g id="edge16" class="edge">
<title>12&#45;&#45;11</title>
<path fill="none" stroke="black" d="M505.64,-95.2C511.31,-83.88 518.6,-69.29 524.19,-58.1"/>
</g>
<!-- 12&#45;&#45;10 -->
<g id="edge15" class="edge">
<title>12&#45;&#45;10</title>
<path fill="none" stroke="black" d="M487.84,-95.2C482.18,-83.88 474.89,-69.29 469.29,-58.1"/>
</g>
<!-- 8 -->
<g id="8" class="node">
<title>8</title>
<polygon fill="none" stroke="lightblue" points="391.43,-23.05 393.2,-23.15 394.96,-23.3 396.69,-23.49 398.39,-23.74 400.05,-24.03 401.67,-24.36 403.23,-24.75 404.73,-25.18 406.17,-25.65 407.54,-26.16 408.84,-26.71 410.06,-27.31 411.2,-27.94 412.25,-28.61 413.22,-29.31 414.09,-30.04 414.87,-30.8 415.56,-31.59 416.15,-32.41 416.65,-33.25 417.05,-34.11 417.36,-34.99 417.58,-35.89 417.7,-36.8 417.73,-37.72 417.68,-38.65 417.54,-39.59 417.31,-40.53 417.01,-41.47 416.63,-42.41 416.18,-43.35 415.66,-44.28 415.08,-45.2 414.43,-46.11 413.72,-47.01 412.97,-47.89 412.16,-48.75 411.3,-49.59 410.41,-50.41 409.48,-51.2 408.51,-51.96 407.51,-52.69 406.48,-53.39 405.43,-54.06 404.35,-54.69 403.26,-55.29 402.15,-55.84 401.02,-56.35 399.89,-56.82 398.74,-57.25 397.58,-57.64 396.42,-57.97 395.24,-58.26 394.07,-58.51 392.89,-58.7 391.71,-58.85 390.52,-58.95 389.34,-59 388.15,-59 386.96,-58.95 385.78,-58.85 384.6,-58.7 383.42,-58.51 382.24,-58.26 381.07,-57.97 379.91,-57.64 378.75,-57.25 377.6,-56.82 376.46,-56.35 375.34,-55.84 374.23,-55.29 373.13,-54.69 372.06,-54.06 371.01,-53.39 369.98,-52.69 368.98,-51.96 368.01,-51.2 367.08,-50.41 366.18,-49.59 365.33,-48.75 364.52,-47.89 363.76,-47.01 363.06,-46.11 362.41,-45.2 361.83,-44.28 361.3,-43.35 360.85,-42.41 360.47,-41.47 360.17,-40.53 359.95,-39.59 359.81,-38.65 359.75,-37.72 359.79,-36.8 359.91,-35.89 360.13,-34.99 360.43,-34.11 360.84,-33.25 361.34,-32.41 361.93,-31.59 362.62,-30.8 363.4,-30.04 364.27,-29.31 365.24,-28.61 366.29,-27.94 367.43,-27.31 368.65,-26.71 369.94,-26.16 371.31,-25.65 372.75,-25.18 374.26,-24.75 375.82,-24.36 377.44,-24.03 379.1,-23.74 380.79,-23.49 382.53,-23.3 384.28,-23.15 386.06,-23.05 387.85,-23 389.64,-23 391.43,-23.05"/>
<text text-anchor="middle" x="388.74" y="-37.3" font-family="Times,serif" font-size="14.00">6</text>
</g>
<!-- 7 -->
<g id="7" class="node">
<title>7</title>
<polygon fill="none" stroke="lightblue" points="319.43,-23.05 321.2,-23.15 322.96,-23.3 324.69,-23.49 326.39,-23.74 328.05,-24.03 329.67,-24.36 331.23,-24.75 332.73,-25.18 334.17,-25.65 335.54,-26.16 336.84,-26.71 338.06,-27.31 339.2,-27.94 340.25,-28.61 341.22,-29.31 342.09,-30.04 342.87,-30.8 343.56,-31.59 344.15,-32.41 344.65,-33.25 345.05,-34.11 345.36,-34.99 345.58,-35.89 345.7,-36.8 345.73,-37.72 345.68,-38.65 345.54,-39.59 345.31,-40.53 345.01,-41.47 344.63,-42.41 344.18,-43.35 343.66,-44.28 343.08,-45.2 342.43,-46.11 341.72,-47.01 340.97,-47.89 340.16,-48.75 339.3,-49.59 338.41,-50.41 337.48,-51.2 336.51,-51.96 335.51,-52.69 334.48,-53.39 333.43,-54.06 332.35,-54.69 331.26,-55.29 330.15,-55.84 329.02,-56.35 327.89,-56.82 326.74,-57.25 325.58,-57.64 324.42,-57.97 323.24,-58.26 322.07,-58.51 320.89,-58.7 319.71,-58.85 318.52,-58.95 317.34,-59 316.15,-59 314.96,-58.95 313.78,-58.85 312.6,-58.7 311.42,-58.51 310.24,-58.26 309.07,-57.97 307.91,-57.64 306.75,-57.25 305.6,-56.82 304.46,-56.35 303.34,-55.84 302.23,-55.29 301.13,-54.69 300.06,-54.06 299.01,-53.39 297.98,-52.69 296.98,-51.96 296.01,-51.2 295.08,-50.41 294.18,-49.59 293.33,-48.75 292.52,-47.89 291.76,-47.01 291.06,-46.11 290.41,-45.2 289.83,-44.28 289.3,-43.35 288.85,-42.41 288.47,-41.47 288.17,-40.53 287.95,-39.59 287.81,-38.65 287.75,-37.72 287.79,-36.8 287.91,-35.89 288.13,-34.99 288.43,-34.11 288.84,-33.25 289.34,-32.41 289.93,-31.59 290.62,-30.8 291.4,-30.04 292.27,-29.31 293.24,-28.61 294.29,-27.94 295.43,-27.31 296.65,-26.71 297.94,-26.16 299.31,-25.65 300.75,-25.18 302.26,-24.75 303.82,-24.36 305.44,-24.03 307.1,-23.74 308.79,-23.49 310.53,-23.3 312.28,-23.15 314.06,-23.05 315.85,-23 317.64,-23 319.43,-23.05"/>
<text text-anchor="middle" x="316.74" y="-37.3" font-family="Times,serif" font-size="14.00">5</text>
</g>
<!-- 9 -->
<g id="9" class="node">
<title>9</title>
<polygon fill="none" stroke="grey" points="356.47,-95.05 358.94,-95.15 361.38,-95.3 363.79,-95.49 366.15,-95.74 368.46,-96.03 370.7,-96.36 372.87,-96.75 374.96,-97.18 376.97,-97.65 378.87,-98.16 380.68,-98.71 382.37,-99.31 383.95,-99.94 385.41,-100.61 386.75,-101.31 387.97,-102.04 389.06,-102.8 390.01,-103.59 390.84,-104.41 391.53,-105.25 392.09,-106.11 392.52,-106.99 392.82,-107.89 392.99,-108.8 393.03,-109.72 392.96,-110.65 392.76,-111.59 392.45,-112.53 392.03,-113.47 391.51,-114.41 390.88,-115.35 390.15,-116.28 389.34,-117.2 388.44,-118.11 387.46,-119.01 386.41,-119.89 385.29,-120.75 384.1,-121.59 382.86,-122.41 381.56,-123.2 380.21,-123.96 378.82,-124.69 377.39,-125.39 375.93,-126.06 374.44,-126.69 372.92,-127.29 371.37,-127.84 369.81,-128.35 368.23,-128.82 366.63,-129.25 365.02,-129.64 363.41,-129.97 361.78,-130.26 360.14,-130.51 358.5,-130.7 356.86,-130.85 355.22,-130.95 353.57,-131 351.92,-131 350.27,-130.95 348.63,-130.85 346.98,-130.7 345.34,-130.51 343.71,-130.26 342.08,-129.97 340.46,-129.64 338.85,-129.25 337.26,-128.82 335.68,-128.35 334.11,-127.84 332.57,-127.29 331.05,-126.69 329.56,-126.06 328.09,-125.39 326.66,-124.69 325.27,-123.96 323.93,-123.2 322.63,-122.41 321.39,-121.59 320.2,-120.75 319.08,-119.89 318.02,-119.01 317.05,-118.11 316.15,-117.2 315.33,-116.28 314.61,-115.35 313.98,-114.41 313.45,-113.47 313.03,-112.53 312.72,-111.59 312.53,-110.65 312.45,-109.72 312.5,-108.8 312.67,-107.89 312.97,-106.99 313.4,-106.11 313.96,-105.25 314.65,-104.41 315.48,-103.59 316.43,-102.8 317.52,-102.04 318.73,-101.31 320.07,-100.61 321.53,-99.94 323.12,-99.31 324.81,-98.71 326.61,-98.16 328.52,-97.65 330.52,-97.18 332.61,-96.75 334.78,-96.36 337.03,-96.03 339.33,-95.74 341.7,-95.49 344.1,-95.3 346.55,-95.15 349.02,-95.05 351.5,-95 353.99,-95 356.47,-95.05"/>
<text text-anchor="middle" x="352.74" y="-109.3" font-family="Times,serif" font-size="14.00">#{5..6}</text>
</g>
<!-- 9&#45;&#45;8 -->
<g id="edge14" class="edge">
<title>9&#45;&#45;8</title>
<path fill="none" stroke="black" d="M361.64,-95.2C367.31,-83.88 374.6,-69.29 380.19,-58.1"/>
</g>
<!-- 9&#45;&#45;7 -->
<g id="edge13" class="edge">
<title>9&#45;&#45;7</title>
<path fill="none" stroke="black" d="M343.84,-95.2C338.18,-83.88 330.89,-69.29 325.29,-58.1"/>
</g>
<!-- 13 -->
<g id="13" class="node">
<title>13</title>
<polygon fill="none" stroke="grey" points="428.47,-167.05 430.94,-167.15 433.38,-167.3 435.79,-167.49 438.15,-167.74 440.46,-168.03 442.7,-168.36 444.87,-168.75 446.96,-169.18 448.97,-169.65 450.87,-170.16 452.68,-170.71 454.37,-171.31 455.95,-171.94 457.41,-172.61 458.75,-173.31 459.97,-174.04 461.06,-174.8 462.01,-175.59 462.84,-176.41 463.53,-177.25 464.09,-178.11 464.52,-178.99 464.82,-179.89 464.99,-180.8 465.03,-181.72 464.96,-182.65 464.76,-183.59 464.45,-184.53 464.03,-185.47 463.51,-186.41 462.88,-187.35 462.15,-188.28 461.34,-189.2 460.44,-190.11 459.46,-191.01 458.41,-191.89 457.29,-192.75 456.1,-193.59 454.86,-194.41 453.56,-195.2 452.21,-195.96 450.82,-196.69 449.39,-197.39 447.93,-198.06 446.44,-198.69 444.92,-199.29 443.37,-199.84 441.81,-200.35 440.23,-200.82 438.63,-201.25 437.02,-201.64 435.41,-201.97 433.78,-202.26 432.14,-202.51 430.5,-202.7 428.86,-202.85 427.22,-202.95 425.57,-203 423.92,-203 422.27,-202.95 420.63,-202.85 418.98,-202.7 417.34,-202.51 415.71,-202.26 414.08,-201.97 412.46,-201.64 410.85,-201.25 409.26,-200.82 407.68,-200.35 406.11,-199.84 404.57,-199.29 403.05,-198.69 401.56,-198.06 400.09,-197.39 398.66,-196.69 397.27,-195.96 395.93,-195.2 394.63,-194.41 393.39,-193.59 392.2,-192.75 391.08,-191.89 390.02,-191.01 389.05,-190.11 388.15,-189.2 387.33,-188.28 386.61,-187.35 385.98,-186.41 385.45,-185.47 385.03,-184.53 384.72,-183.59 384.53,-182.65 384.45,-181.72 384.5,-180.8 384.67,-179.89 384.97,-178.99 385.4,-178.11 385.96,-177.25 386.65,-176.41 387.48,-175.59 388.43,-174.8 389.52,-174.04 390.73,-173.31 392.07,-172.61 393.53,-171.94 395.12,-171.31 396.81,-170.71 398.61,-170.16 400.52,-169.65 402.52,-169.18 404.61,-168.75 406.78,-168.36 409.03,-168.03 411.33,-167.74 413.7,-167.49 416.1,-167.3 418.55,-167.15 421.02,-167.05 423.5,-167 425.99,-167 428.47,-167.05"/>
<text text-anchor="middle" x="424.74" y="-181.3" font-family="Times,serif" font-size="14.00">#{5..8}</text>
</g>
<!-- 13&#45;&#45;12 -->
<g id="edge12" class="edge">
<title>13&#45;&#45;12</title>
<path fill="none" stroke="black" d="M441.81,-167.94C453.62,-156.13 469.23,-140.52 480.79,-128.95"/>
</g>
<!-- 13&#45;&#45;9 -->
<g id="edge11" class="edge">
<title>13&#45;&#45;9</title>
<path fill="none" stroke="black" d="M407.68,-167.94C395.87,-156.13 380.26,-140.52 368.7,-128.95"/>
</g>
<!-- 4 -->
<g id="4" class="node">
<title>4</title>
<polygon fill="none" stroke="lightblue" points="247.43,-23.05 249.2,-23.15 250.96,-23.3 252.69,-23.49 254.39,-23.74 256.05,-24.03 257.67,-24.36 259.23,-24.75 260.73,-25.18 262.17,-25.65 263.54,-26.16 264.84,-26.71 266.06,-27.31 267.2,-27.94 268.25,-28.61 269.22,-29.31 270.09,-30.04 270.87,-30.8 271.56,-31.59 272.15,-32.41 272.65,-33.25 273.05,-34.11 273.36,-34.99 273.58,-35.89 273.7,-36.8 273.73,-37.72 273.68,-38.65 273.54,-39.59 273.31,-40.53 273.01,-41.47 272.63,-42.41 272.18,-43.35 271.66,-44.28 271.08,-45.2 270.43,-46.11 269.72,-47.01 268.97,-47.89 268.16,-48.75 267.3,-49.59 266.41,-50.41 265.48,-51.2 264.51,-51.96 263.51,-52.69 262.48,-53.39 261.43,-54.06 260.35,-54.69 259.26,-55.29 258.15,-55.84 257.02,-56.35 255.89,-56.82 254.74,-57.25 253.58,-57.64 252.42,-57.97 251.24,-58.26 250.07,-58.51 248.89,-58.7 247.71,-58.85 246.52,-58.95 245.34,-59 244.15,-59 242.96,-58.95 241.78,-58.85 240.6,-58.7 239.42,-58.51 238.24,-58.26 237.07,-57.97 235.91,-57.64 234.75,-57.25 233.6,-56.82 232.46,-56.35 231.34,-55.84 230.23,-55.29 229.13,-54.69 228.06,-54.06 227.01,-53.39 225.98,-52.69 224.98,-51.96 224.01,-51.2 223.08,-50.41 222.18,-49.59 221.33,-48.75 220.52,-47.89 219.76,-47.01 219.06,-46.11 218.41,-45.2 217.83,-44.28 217.3,-43.35 216.85,-42.41 216.47,-41.47 216.17,-40.53 215.95,-39.59 215.81,-38.65 215.75,-37.72 215.79,-36.8 215.91,-35.89 216.13,-34.99 216.43,-34.11 216.84,-33.25 217.34,-32.41 217.93,-31.59 218.62,-30.8 219.4,-30.04 220.27,-29.31 221.24,-28.61 222.29,-27.94 223.43,-27.31 224.65,-26.71 225.94,-26.16 227.31,-25.65 228.75,-25.18 230.26,-24.75 231.82,-24.36 233.44,-24.03 235.1,-23.74 236.79,-23.49 238.53,-23.3 240.28,-23.15 242.06,-23.05 243.85,-23 245.64,-23 247.43,-23.05"/>
<text text-anchor="middle" x="244.74" y="-37.3" font-family="Times,serif" font-size="14.00">4</text>
</g>
<!-- 3 -->
<g id="3" class="node">
<title>3</title>
<polygon fill="none" stroke="lightblue" points="175.43,-23.05 177.2,-23.15 178.96,-23.3 180.69,-23.49 182.39,-23.74 184.05,-24.03 185.67,-24.36 187.23,-24.75 188.73,-25.18 190.17,-25.65 191.54,-26.16 192.84,-26.71 194.06,-27.31 195.2,-27.94 196.25,-28.61 197.22,-29.31 198.09,-30.04 198.87,-30.8 199.56,-31.59 200.15,-32.41 200.65,-33.25 201.05,-34.11 201.36,-34.99 201.58,-35.89 201.7,-36.8 201.73,-37.72 201.68,-38.65 201.54,-39.59 201.31,-40.53 201.01,-41.47 200.63,-42.41 200.18,-43.35 199.66,-44.28 199.08,-45.2 198.43,-46.11 197.72,-47.01 196.97,-47.89 196.16,-48.75 195.3,-49.59 194.41,-50.41 193.48,-51.2 192.51,-51.96 191.51,-52.69 190.48,-53.39 189.43,-54.06 188.35,-54.69 187.26,-55.29 186.15,-55.84 185.02,-56.35 183.89,-56.82 182.74,-57.25 181.58,-57.64 180.42,-57.97 179.24,-58.26 178.07,-58.51 176.89,-58.7 175.71,-58.85 174.52,-58.95 173.34,-59 172.15,-59 170.96,-58.95 169.78,-58.85 168.6,-58.7 167.42,-58.51 166.24,-58.26 165.07,-57.97 163.91,-57.64 162.75,-57.25 161.6,-56.82 160.46,-56.35 159.34,-55.84 158.23,-55.29 157.13,-54.69 156.06,-54.06 155.01,-53.39 153.98,-52.69 152.98,-51.96 152.01,-51.2 151.08,-50.41 150.18,-49.59 149.33,-48.75 148.52,-47.89 147.76,-47.01 147.06,-46.11 146.41,-45.2 145.83,-44.28 145.3,-43.35 144.85,-42.41 144.47,-41.47 144.17,-40.53 143.95,-39.59 143.81,-38.65 143.75,-37.72 143.79,-36.8 143.91,-35.89 144.13,-34.99 144.43,-34.11 144.84,-33.25 145.34,-32.41 145.93,-31.59 146.62,-30.8 147.4,-30.04 148.27,-29.31 149.24,-28.61 150.29,-27.94 151.43,-27.31 152.65,-26.71 153.94,-26.16 155.31,-25.65 156.75,-25.18 158.26,-24.75 159.82,-24.36 161.44,-24.03 163.1,-23.74 164.79,-23.49 166.53,-23.3 168.28,-23.15 170.06,-23.05 171.85,-23 173.64,-23 175.43,-23.05"/>
<text text-anchor="middle" x="172.74" y="-37.3" font-family="Times,serif" font-size="14.00">3</text>
</g>
<!-- 5 -->
<g id="5" class="node">
<title>5</title>
<polygon fill="none" stroke="grey" points="212.47,-95.05 214.94,-95.15 217.38,-95.3 219.79,-95.49 222.15,-95.74 224.46,-96.03 226.7,-96.36 228.87,-96.75 230.96,-97.18 232.97,-97.65 234.87,-98.16 236.68,-98.71 238.37,-99.31 239.95,-99.94 241.41,-100.61 242.75,-101.31 243.97,-102.04 245.06,-102.8 246.01,-103.59 246.84,-104.41 247.53,-105.25 248.09,-106.11 248.52,-106.99 248.82,-107.89 248.99,-108.8 249.03,-109.72 248.96,-110.65 248.76,-111.59 248.45,-112.53 248.03,-113.47 247.51,-114.41 246.88,-115.35 246.16,-116.28 245.34,-117.2 244.44,-118.11 243.46,-119.01 242.41,-119.89 241.29,-120.75 240.1,-121.59 238.86,-122.41 237.56,-123.2 236.21,-123.96 234.82,-124.69 233.39,-125.39 231.93,-126.06 230.44,-126.69 228.92,-127.29 227.37,-127.84 225.81,-128.35 224.23,-128.82 222.63,-129.25 221.02,-129.64 219.41,-129.97 217.78,-130.26 216.14,-130.51 214.5,-130.7 212.86,-130.85 211.22,-130.95 209.57,-131 207.92,-131 206.27,-130.95 204.63,-130.85 202.98,-130.7 201.34,-130.51 199.71,-130.26 198.08,-129.97 196.46,-129.64 194.85,-129.25 193.26,-128.82 191.68,-128.35 190.11,-127.84 188.57,-127.29 187.05,-126.69 185.56,-126.06 184.09,-125.39 182.66,-124.69 181.27,-123.96 179.93,-123.2 178.63,-122.41 177.39,-121.59 176.2,-120.75 175.08,-119.89 174.02,-119.01 173.05,-118.11 172.15,-117.2 171.33,-116.28 170.61,-115.35 169.98,-114.41 169.45,-113.47 169.03,-112.53 168.72,-111.59 168.53,-110.65 168.45,-109.72 168.5,-108.8 168.67,-107.89 168.97,-106.99 169.4,-106.11 169.96,-105.25 170.65,-104.41 171.48,-103.59 172.43,-102.8 173.52,-102.04 174.73,-101.31 176.07,-100.61 177.53,-99.94 179.12,-99.31 180.81,-98.71 182.61,-98.16 184.52,-97.65 186.52,-97.18 188.61,-96.75 190.78,-96.36 193.03,-96.03 195.33,-95.74 197.7,-95.49 200.1,-95.3 202.55,-95.15 205.02,-95.05 207.5,-95 209.99,-95 212.47,-95.05"/>
<text text-anchor="middle" x="208.74" y="-109.3" font-family="Times,serif" font-size="14.00">#{3..4}</text>
</g>
<!-- 5&#45;&#45;4 -->
<g id="edge10" class="edge">
<title>5&#45;&#45;4</title>
<path fill="none" stroke="black" d="M217.64,-95.2C223.31,-83.88 230.6,-69.29 236.19,-58.1"/>
</g>
<!-- 5&#45;&#45;3 -->
<g id="edge9" class="edge">
<title>5&#45;&#45;3</title>
<path fill="none" stroke="black" d="M199.84,-95.2C194.18,-83.88 186.89,-69.29 181.29,-58.1"/>
</g>
<!-- 1 -->
<g id="1" class="node">
<title>1</title>
<polygon fill="none" stroke="lightblue" points="103.43,-23.05 105.2,-23.15 106.96,-23.3 108.69,-23.49 110.39,-23.74 112.05,-24.03 113.67,-24.36 115.23,-24.75 116.73,-25.18 118.17,-25.65 119.54,-26.16 120.84,-26.71 122.06,-27.31 123.2,-27.94 124.25,-28.61 125.22,-29.31 126.09,-30.04 126.87,-30.8 127.56,-31.59 128.15,-32.41 128.65,-33.25 129.05,-34.11 129.36,-34.99 129.58,-35.89 129.7,-36.8 129.73,-37.72 129.68,-38.65 129.54,-39.59 129.31,-40.53 129.01,-41.47 128.63,-42.41 128.18,-43.35 127.66,-44.28 127.08,-45.2 126.43,-46.11 125.72,-47.01 124.97,-47.89 124.16,-48.75 123.3,-49.59 122.41,-50.41 121.48,-51.2 120.51,-51.96 119.51,-52.69 118.48,-53.39 117.43,-54.06 116.35,-54.69 115.26,-55.29 114.15,-55.84 113.02,-56.35 111.89,-56.82 110.74,-57.25 109.58,-57.64 108.42,-57.97 107.24,-58.26 106.07,-58.51 104.89,-58.7 103.71,-58.85 102.52,-58.95 101.34,-59 100.15,-59 98.96,-58.95 97.78,-58.85 96.6,-58.7 95.42,-58.51 94.24,-58.26 93.07,-57.97 91.91,-57.64 90.75,-57.25 89.6,-56.82 88.46,-56.35 87.34,-55.84 86.23,-55.29 85.13,-54.69 84.06,-54.06 83.01,-53.39 81.98,-52.69 80.98,-51.96 80.01,-51.2 79.08,-50.41 78.18,-49.59 77.33,-48.75 76.52,-47.89 75.76,-47.01 75.06,-46.11 74.41,-45.2 73.83,-44.28 73.3,-43.35 72.85,-42.41 72.47,-41.47 72.17,-40.53 71.95,-39.59 71.81,-38.65 71.75,-37.72 71.79,-36.8 71.91,-35.89 72.13,-34.99 72.43,-34.11 72.84,-33.25 73.34,-32.41 73.93,-31.59 74.62,-30.8 75.4,-30.04 76.27,-29.31 77.24,-28.61 78.29,-27.94 79.43,-27.31 80.65,-26.71 81.94,-26.16 83.31,-25.65 84.75,-25.18 86.26,-24.75 87.82,-24.36 89.44,-24.03 91.1,-23.74 92.79,-23.49 94.53,-23.3 96.28,-23.15 98.06,-23.05 99.85,-23 101.64,-23 103.43,-23.05"/>
<text text-anchor="middle" x="100.74" y="-37.3" font-family="Times,serif" font-size="14.00">2</text>
</g>
<!-- 0 -->
<g id="0" class="node">
<title>0</title>
<polygon fill="none" stroke="lightblue" points="31.43,-23.05 33.2,-23.15 34.96,-23.3 36.69,-23.49 38.39,-23.74 40.05,-24.03 41.67,-24.36 43.23,-24.75 44.73,-25.18 46.17,-25.65 47.54,-26.16 48.84,-26.71 50.06,-27.31 51.2,-27.94 52.25,-28.61 53.22,-29.31 54.09,-30.04 54.87,-30.8 55.56,-31.59 56.15,-32.41 56.65,-33.25 57.05,-34.11 57.36,-34.99 57.58,-35.89 57.7,-36.8 57.73,-37.72 57.68,-38.65 57.54,-39.59 57.31,-40.53 57.01,-41.47 56.63,-42.41 56.18,-43.35 55.66,-44.28 55.08,-45.2 54.43,-46.11 53.72,-47.01 52.97,-47.89 52.16,-48.75 51.3,-49.59 50.41,-50.41 49.48,-51.2 48.51,-51.96 47.51,-52.69 46.48,-53.39 45.43,-54.06 44.35,-54.69 43.26,-55.29 42.15,-55.84 41.02,-56.35 39.89,-56.82 38.74,-57.25 37.58,-57.64 36.42,-57.97 35.24,-58.26 34.07,-58.51 32.89,-58.7 31.71,-58.85 30.52,-58.95 29.34,-59 28.15,-59 26.96,-58.95 25.78,-58.85 24.6,-58.7 23.42,-58.51 22.24,-58.26 21.07,-57.97 19.91,-57.64 18.75,-57.25 17.6,-56.82 16.46,-56.35 15.34,-55.84 14.23,-55.29 13.13,-54.69 12.06,-54.06 11.01,-53.39 9.98,-52.69 8.98,-51.96 8.01,-51.2 7.08,-50.41 6.18,-49.59 5.33,-48.75 4.52,-47.89 3.76,-47.01 3.06,-46.11 2.41,-45.2 1.83,-44.28 1.3,-43.35 0.85,-42.41 0.47,-41.47 0.17,-40.53 -0.05,-39.59 -0.19,-38.65 -0.25,-37.72 -0.21,-36.8 -0.09,-35.89 0.13,-34.99 0.43,-34.11 0.84,-33.25 1.34,-32.41 1.93,-31.59 2.62,-30.8 3.4,-30.04 4.27,-29.31 5.24,-28.61 6.29,-27.94 7.43,-27.31 8.65,-26.71 9.94,-26.16 11.31,-25.65 12.75,-25.18 14.26,-24.75 15.82,-24.36 17.44,-24.03 19.1,-23.74 20.79,-23.49 22.53,-23.3 24.28,-23.15 26.06,-23.05 27.85,-23 29.64,-23 31.43,-23.05"/>
<text text-anchor="middle" x="28.74" y="-37.3" font-family="Times,serif" font-size="14.00">1</text>
</g>
<!-- 2 -->
<g id="2" class="node">
<title>2</title>
<polygon fill="none" stroke="grey" points="68.47,-95.05 70.94,-95.15 73.38,-95.3 75.79,-95.49 78.15,-95.74 80.46,-96.03 82.7,-96.36 84.87,-96.75 86.96,-97.18 88.97,-97.65 90.87,-98.16 92.68,-98.71 94.37,-99.31 95.95,-99.94 97.41,-100.61 98.75,-101.31 99.97,-102.04 101.06,-102.8 102.01,-103.59 102.84,-104.41 103.53,-105.25 104.09,-106.11 104.52,-106.99 104.82,-107.89 104.99,-108.8 105.03,-109.72 104.96,-110.65 104.76,-111.59 104.45,-112.53 104.03,-113.47 103.51,-114.41 102.88,-115.35 102.16,-116.28 101.34,-117.2 100.44,-118.11 99.46,-119.01 98.41,-119.89 97.29,-120.75 96.1,-121.59 94.86,-122.41 93.56,-123.2 92.21,-123.96 90.82,-124.69 89.39,-125.39 87.93,-126.06 86.44,-126.69 84.92,-127.29 83.37,-127.84 81.81,-128.35 80.23,-128.82 78.63,-129.25 77.02,-129.64 75.41,-129.97 73.78,-130.26 72.14,-130.51 70.5,-130.7 68.86,-130.85 67.22,-130.95 65.57,-131 63.92,-131 62.27,-130.95 60.63,-130.85 58.98,-130.7 57.34,-130.51 55.71,-130.26 54.08,-129.97 52.46,-129.64 50.85,-129.25 49.26,-128.82 47.68,-128.35 46.11,-127.84 44.57,-127.29 43.05,-126.69 41.56,-126.06 40.09,-125.39 38.66,-124.69 37.27,-123.96 35.93,-123.2 34.63,-122.41 33.39,-121.59 32.2,-120.75 31.08,-119.89 30.02,-119.01 29.05,-118.11 28.15,-117.2 27.33,-116.28 26.61,-115.35 25.98,-114.41 25.45,-113.47 25.03,-112.53 24.72,-111.59 24.53,-110.65 24.45,-109.72 24.5,-108.8 24.67,-107.89 24.97,-106.99 25.4,-106.11 25.96,-105.25 26.65,-104.41 27.48,-103.59 28.43,-102.8 29.52,-102.04 30.73,-101.31 32.07,-100.61 33.53,-99.94 35.12,-99.31 36.81,-98.71 38.61,-98.16 40.52,-97.65 42.52,-97.18 44.61,-96.75 46.78,-96.36 49.03,-96.03 51.33,-95.74 53.7,-95.49 56.1,-95.3 58.55,-95.15 61.02,-95.05 63.5,-95 65.99,-95 68.47,-95.05"/>
<text text-anchor="middle" x="64.74" y="-109.3" font-family="Times,serif" font-size="14.00">#{1..2}</text>
</g>
<!-- 2&#45;&#45;1 -->
<g id="edge8" class="edge">
<title>2&#45;&#45;1</title>
<path fill="none" stroke="black" d="M73.64,-95.2C79.31,-83.88 86.6,-69.29 92.19,-58.1"/>
</g>
<!-- 2&#45;&#45;0 -->
<g id="edge7" class="edge">
<title>2&#45;&#45;0</title>
<path fill="none" stroke="black" d="M55.84,-95.2C50.18,-83.88 42.89,-69.29 37.29,-58.1"/>
</g>
<!-- 6 -->
<g id="6" class="node">
<title>6</title>
<polygon fill="none" stroke="grey" points="140.47,-167.05 142.94,-167.15 145.38,-167.3 147.79,-167.49 150.15,-167.74 152.46,-168.03 154.7,-168.36 156.87,-168.75 158.96,-169.18 160.97,-169.65 162.87,-170.16 164.68,-170.71 166.37,-171.31 167.95,-171.94 169.41,-172.61 170.75,-173.31 171.97,-174.04 173.06,-174.8 174.01,-175.59 174.84,-176.41 175.53,-177.25 176.09,-178.11 176.52,-178.99 176.82,-179.89 176.99,-180.8 177.03,-181.72 176.96,-182.65 176.76,-183.59 176.45,-184.53 176.03,-185.47 175.51,-186.41 174.88,-187.35 174.16,-188.28 173.34,-189.2 172.44,-190.11 171.46,-191.01 170.41,-191.89 169.29,-192.75 168.1,-193.59 166.86,-194.41 165.56,-195.2 164.21,-195.96 162.82,-196.69 161.39,-197.39 159.93,-198.06 158.44,-198.69 156.92,-199.29 155.37,-199.84 153.81,-200.35 152.23,-200.82 150.63,-201.25 149.02,-201.64 147.41,-201.97 145.78,-202.26 144.14,-202.51 142.5,-202.7 140.86,-202.85 139.22,-202.95 137.57,-203 135.92,-203 134.27,-202.95 132.63,-202.85 130.98,-202.7 129.34,-202.51 127.71,-202.26 126.08,-201.97 124.46,-201.64 122.85,-201.25 121.26,-200.82 119.68,-200.35 118.11,-199.84 116.57,-199.29 115.05,-198.69 113.56,-198.06 112.09,-197.39 110.66,-196.69 109.27,-195.96 107.93,-195.2 106.63,-194.41 105.39,-193.59 104.2,-192.75 103.08,-191.89 102.02,-191.01 101.05,-190.11 100.15,-189.2 99.33,-188.28 98.61,-187.35 97.98,-186.41 97.45,-185.47 97.03,-184.53 96.72,-183.59 96.53,-182.65 96.45,-181.72 96.5,-180.8 96.67,-179.89 96.97,-178.99 97.4,-178.11 97.96,-177.25 98.65,-176.41 99.48,-175.59 100.43,-174.8 101.52,-174.04 102.73,-173.31 104.07,-172.61 105.53,-171.94 107.12,-171.31 108.81,-170.71 110.61,-170.16 112.52,-169.65 114.52,-169.18 116.61,-168.75 118.78,-168.36 121.03,-168.03 123.33,-167.74 125.7,-167.49 128.1,-167.3 130.55,-167.15 133.02,-167.05 135.5,-167 137.99,-167 140.47,-167.05"/>
<text text-anchor="middle" x="136.74" y="-181.3" font-family="Times,serif" font-size="14.00">#{1..4}</text>
</g>
<!-- 6&#45;&#45;5 -->
<g id="edge6" class="edge">
<title>6&#45;&#45;5</title>
<path fill="none" stroke="black" d="M153.81,-167.94C165.62,-156.13 181.23,-140.52 192.79,-128.95"/>
</g>
<!-- 6&#45;&#45;2 -->
<g id="edge5" class="edge">
<title>6&#45;&#45;2</title>
<path fill="none" stroke="black" d="M119.68,-167.94C107.87,-156.13 92.26,-140.52 80.7,-128.95"/>
</g>
<!-- 14 -->
<g id="14" class="node">
<title>14</title>
<polygon fill="none" stroke="red" points="284.47,-239.05 286.94,-239.15 289.38,-239.3 291.79,-239.49 294.15,-239.74 296.46,-240.03 298.7,-240.36 300.87,-240.75 302.96,-241.18 304.97,-241.65 306.87,-242.16 308.68,-242.71 310.37,-243.31 311.95,-243.94 313.41,-244.61 314.75,-245.31 315.97,-246.04 317.06,-246.8 318.01,-247.59 318.84,-248.41 319.53,-249.25 320.09,-250.11 320.52,-250.99 320.82,-251.89 320.99,-252.8 321.03,-253.72 320.96,-254.65 320.76,-255.59 320.45,-256.53 320.03,-257.47 319.51,-258.41 318.88,-259.35 318.16,-260.28 317.34,-261.2 316.44,-262.11 315.46,-263.01 314.41,-263.89 313.29,-264.75 312.1,-265.59 310.86,-266.41 309.56,-267.2 308.21,-267.96 306.82,-268.69 305.39,-269.39 303.93,-270.06 302.44,-270.69 300.92,-271.29 299.37,-271.84 297.81,-272.35 296.23,-272.82 294.63,-273.25 293.02,-273.64 291.41,-273.97 289.78,-274.26 288.14,-274.51 286.5,-274.7 284.86,-274.85 283.22,-274.95 281.57,-275 279.92,-275 278.27,-274.95 276.63,-274.85 274.98,-274.7 273.34,-274.51 271.71,-274.26 270.08,-273.97 268.46,-273.64 266.85,-273.25 265.26,-272.82 263.68,-272.35 262.11,-271.84 260.57,-271.29 259.05,-270.69 257.56,-270.06 256.09,-269.39 254.66,-268.69 253.27,-267.96 251.93,-267.2 250.63,-266.41 249.39,-265.59 248.2,-264.75 247.08,-263.89 246.02,-263.01 245.05,-262.11 244.15,-261.2 243.33,-260.28 242.61,-259.35 241.98,-258.41 241.45,-257.47 241.03,-256.53 240.72,-255.59 240.53,-254.65 240.45,-253.72 240.5,-252.8 240.67,-251.89 240.97,-250.99 241.4,-250.11 241.96,-249.25 242.65,-248.41 243.48,-247.59 244.43,-246.8 245.52,-246.04 246.73,-245.31 248.07,-244.61 249.53,-243.94 251.12,-243.31 252.81,-242.71 254.61,-242.16 256.52,-241.65 258.52,-241.18 260.61,-240.75 262.78,-240.36 265.03,-240.03 267.33,-239.74 269.7,-239.49 272.1,-239.3 274.55,-239.15 277.02,-239.05 279.5,-239 281.99,-239 284.47,-239.05"/>
<text text-anchor="middle" x="280.74" y="-253.3" font-family="Times,serif" font-size="14.00">#{1..8}</text>
</g>
<!-- 14&#45;&#45;13 -->
<g id="edge4" class="edge">
<title>14&#45;&#45;13</title>
<path fill="none" stroke="black" d="M309.19,-242.78C335.59,-229.58 374.48,-210.13 399.72,-197.51"/>
</g>
<!-- 14&#45;&#45;6 -->
<g id="edge3" class="edge">
<title>14&#45;&#45;6</title>
<path fill="none" stroke="black" d="M252.29,-242.78C225.9,-229.58 187,-210.13 161.77,-197.51"/>
</g>
<!-- 24 -->
<g id="24" class="node">
<title>24</title>
<polygon fill="none" stroke="green" points="545.91,-311.05 548.66,-311.15 551.39,-311.3 554.08,-311.49 556.71,-311.74 559.29,-312.03 561.79,-312.36 564.22,-312.75 566.55,-313.18 568.79,-313.65 570.91,-314.16 572.93,-314.71 574.82,-315.31 576.58,-315.94 578.22,-316.61 579.71,-317.31 581.07,-318.04 582.28,-318.8 583.35,-319.59 584.27,-320.41 585.04,-321.25 585.67,-322.11 586.15,-322.99 586.48,-323.89 586.67,-324.8 586.72,-325.72 586.64,-326.65 586.42,-327.59 586.07,-328.53 585.6,-329.47 585.02,-330.41 584.32,-331.35 583.51,-332.28 582.6,-333.2 581.6,-334.11 580.5,-335.01 579.33,-335.89 578.07,-336.75 576.75,-337.59 575.36,-338.41 573.91,-339.2 572.41,-339.96 570.86,-340.69 569.26,-341.39 567.63,-342.06 565.96,-342.69 564.27,-343.29 562.54,-343.84 560.8,-344.35 559.03,-344.82 557.25,-345.25 555.45,-345.64 553.65,-345.97 551.83,-346.26 550.01,-346.51 548.18,-346.7 546.34,-346.85 544.5,-346.95 542.66,-347 540.82,-347 538.98,-346.95 537.15,-346.85 535.31,-346.7 533.48,-346.51 531.66,-346.26 529.84,-345.97 528.03,-345.64 526.24,-345.25 524.46,-344.82 522.69,-344.35 520.94,-343.84 519.22,-343.29 517.52,-342.69 515.86,-342.06 514.22,-341.39 512.63,-340.69 511.08,-339.96 509.58,-339.2 508.13,-338.41 506.74,-337.59 505.41,-336.75 504.16,-335.89 502.98,-335.01 501.89,-334.11 500.89,-333.2 499.98,-332.28 499.17,-331.35 498.47,-330.41 497.88,-329.47 497.41,-328.53 497.07,-327.59 496.85,-326.65 496.76,-325.72 496.82,-324.8 497.01,-323.89 497.34,-322.99 497.82,-322.11 498.45,-321.25 499.22,-320.41 500.14,-319.59 501.2,-318.8 502.42,-318.04 503.77,-317.31 505.27,-316.61 506.9,-315.94 508.67,-315.31 510.56,-314.71 512.57,-314.16 514.7,-313.65 516.94,-313.18 519.27,-312.75 521.69,-312.36 524.2,-312.03 526.77,-311.74 529.41,-311.49 532.1,-311.3 534.83,-311.15 537.58,-311.05 540.35,-311 543.13,-311 545.91,-311.05"/>
<text text-anchor="middle" x="541.74" y="-325.3" font-family="Times,serif" font-size="14.00">#{1..13}</text>
</g>
<!-- 24&#45;&#45;23 -->
<g id="edge2" class="edge">
<title>24&#45;&#45;23</title>
<path fill="none" stroke="black" d="M581.38,-318.06C632.44,-303.98 720.32,-279.74 768.57,-266.43"/>
</g>
<!-- 24&#45;&#45;14 -->
<g id="edge1" class="edge">
<title>24&#45;&#45;14</title>
<path fill="none" stroke="black" d="M502.1,-318.06C450.05,-303.71 359.72,-278.79 312.13,-265.66"/>
</g>
</g>
</svg>
