<svg xmlns="http://www.w3.org/2000/svg" version="1.1" width="197" height="248">
<path d="M 2.878906 13.319336 L 2.878906 6.412109 L 6.729980 6.412109 L 6.729980 7.335938 L 3.738281 7.335938 L 3.738281 13.319336 Z " fill="rgb(0, 0, 0)" fill-opacity="1.000000" />
<path d="M 2.878906 26.319336 L 2.878906 12.300781 L 3.738281 12.300781 L 3.738281 26.319336 Z " fill="rgb(0, 0, 0)" fill-opacity="1.000000" />
<path d="M 2.878906 39.319336 L 2.878906 25.300781 L 3.738281 25.300781 L 3.738281 39.319336 Z " fill="rgb(0, 0, 0)" fill-opacity="1.000000" />
<path d="M 2.878906 52.319336 L 2.878906 38.300781 L 3.738281 38.300781 L 3.738281 52.319336 Z " fill="rgb(0, 0, 0)" fill-opacity="1.000000" />
<path d="M 2.878906 65.319336 L 2.878906 51.300781 L 3.738281 51.300781 L 3.738281 65.319336 Z " fill="rgb(0, 0, 0)" fill-opacity="1.000000" />
<path d="M 2.878906 78.319336 L 2.878906 64.300781 L 3.738281 64.300781 L 3.738281 78.319336 Z " fill="rgb(0, 0, 0)" fill-opacity="1.000000" />
<path d="M 2.878906 91.319336 L 2.878906 77.300781 L 3.738281 77.300781 L 3.738281 91.319336 Z " fill="rgb(0, 0, 0)" fill-opacity="1.000000" />
<path d="M 2.878906 104.319336 L 2.878906 90.300781 L 3.738281 90.300781 L 3.738281 104.319336 Z " fill="rgb(0, 0, 0)" fill-opacity="1.000000" />
<path d="M 2.878906 117.319336 L 2.878906 103.300781 L 3.738281 103.300781 L 3.738281 117.319336 Z " fill="rgb(0, 0, 0)" fill-opacity="1.000000" />
<path d="M 2.878906 130.319336 L 2.878906 116.300781 L 3.738281 116.300781 L 3.738281 130.319336 Z " fill="rgb(0, 0, 0)" fill-opacity="1.000000" />
<path d="M 2.878906 143.319336 L 2.878906 129.300781 L 3.738281 129.300781 L 3.738281 143.319336 Z " fill="rgb(0, 0, 0)" fill-opacity="1.000000" />
<path d="M 2.878906 156.319336 L 2.878906 142.300781 L 3.738281 142.300781 L 3.738281 156.319336 Z " fill="rgb(0, 0, 0)" fill-opacity="1.000000" />
<path d="M 2.878906 169.319336 L 2.878906 155.300781 L 3.738281 155.300781 L 3.738281 169.319336 Z " fill="rgb(0, 0, 0)" fill-opacity="1.000000" />
<path d="M 2.878906 182.319336 L 2.878906 168.300781 L 3.738281 168.300781 L 3.738281 182.319336 Z " fill="rgb(0, 0, 0)" fill-opacity="1.000000" />
<path d="M 2.878906 195.319336 L 2.878906 181.300781 L 3.738281 181.300781 L 3.738281 195.319336 Z " fill="rgb(0, 0, 0)" fill-opacity="1.000000" />
<path d="M 2.878906 208.319336 L 2.878906 194.300781 L 3.738281 194.300781 L 3.738281 208.319336 Z " fill="rgb(0, 0, 0)" fill-opacity="1.000000" />
<path d="M 2.878906 221.319336 L 2.878906 207.300781 L 3.738281 207.300781 L 3.738281 221.319336 Z " fill="rgb(0, 0, 0)" fill-opacity="1.000000" />
<path d="M 2.878906 234.319336 L 2.878906 220.300781 L 3.738281 220.300781 L 3.738281 234.319336 Z " fill="rgb(0, 0, 0)" fill-opacity="1.000000" />
<path d="M 2.878906 241.335938 L 2.878906 233.300781 L 3.738281 233.300781 L 3.738281 240.412109 L 6.729980 240.412109 L 6.729980 241.335938 Z " fill="rgb(0, 0, 0)" fill-opacity="1.000000" />
<path d="M 6.892578 241.335938 L 6.892578 240.412109 L 13.729980 240.412109 L 13.729980 241.335938 Z " fill="rgb(0, 0, 0)" fill-opacity="1.000000" />
<path d="M 13.892578 241.335938 L 13.892578 240.412109 L 20.729980 240.412109 L 20.729980 241.335938 Z " fill="rgb(0, 0, 0)" fill-opacity="1.000000" />
<path d="M 20.892578 241.335938 L 20.892578 240.412109 L 27.729980 240.412109 L 27.729980 241.335938 Z " fill="rgb(0, 0, 0)" fill-opacity="1.000000" />
<path d="M 27.892578 241.335938 L 27.892578 240.412109 L 34.729980 240.412109 L 34.729980 241.335938 Z " fill="rgb(0, 0, 0)" fill-opacity="1.000000" />
<path d="M 34.892578 241.335938 L 34.892578 240.412109 L 41.729980 240.412109 L 41.729980 241.335938 Z " fill="rgb(0, 0, 0)" fill-opacity="1.000000" />
<path d="M 41.892578 241.335938 L 41.892578 240.412109 L 48.729980 240.412109 L 48.729980 241.335938 Z " fill="rgb(0, 0, 0)" fill-opacity="1.000000" />
<path d="M 48.892578 241.335938 L 48.892578 240.412109 L 55.729980 240.412109 L 55.729980 241.335938 Z " fill="rgb(0, 0, 0)" fill-opacity="1.000000" />
<path d="M 55.892578 241.335938 L 55.892578 240.412109 L 62.729980 240.412109 L 62.729980 241.335938 Z " fill="rgb(0, 0, 0)" fill-opacity="1.000000" />
<path d="M 62.892578 241.335938 L 62.892578 240.412109 L 69.729980 240.412109 L 69.729980 241.335938 Z " fill="rgb(0, 0, 0)" fill-opacity="1.000000" />
<path d="M 69.892578 241.335938 L 69.892578 240.412109 L 76.729980 240.412109 L 76.729980 241.335938 Z " fill="rgb(0, 0, 0)" fill-opacity="1.000000" />
<path d="M 76.892578 241.335938 L 76.892578 240.412109 L 83.729980 240.412109 L 83.729980 241.335938 Z " fill="rgb(0, 0, 0)" fill-opacity="1.000000" />
<path d="M 83.892578 241.335938 L 83.892578 240.412109 L 90.729980 240.412109 L 90.729980 241.335938 Z " fill="rgb(0, 0, 0)" fill-opacity="1.000000" />
<path d="M 90.892578 241.335938 L 90.892578 240.412109 L 97.729980 240.412109 L 97.729980 241.335938 Z " fill="rgb(0, 0, 0)" fill-opacity="1.000000" />
<path d="M 97.892578 241.335938 L 97.892578 240.412109 L 104.729980 240.412109 L 104.729980 241.335938 Z " fill="rgb(0, 0, 0)" fill-opacity="1.000000" />
<path d="M 104.892578 241.335938 L 104.892578 240.412109 L 111.729980 240.412109 L 111.729980 241.335938 Z " fill="rgb(0, 0, 0)" fill-opacity="1.000000" />
<path d="M 111.892578 241.335938 L 111.892578 240.412109 L 118.729980 240.412109 L 118.729980 241.335938 Z " fill="rgb(0, 0, 0)" fill-opacity="1.000000" />
<path d="M 118.892578 241.335938 L 118.892578 240.412109 L 125.729980 240.412109 L 125.729980 241.335938 Z " fill="rgb(0, 0, 0)" fill-opacity="1.000000" />
<path d="M 125.892578 241.335938 L 125.892578 240.412109 L 132.729980 240.412109 L 132.729980 241.335938 Z " fill="rgb(0, 0, 0)" fill-opacity="1.000000" />
<path d="M 132.892578 241.335938 L 132.892578 240.412109 L 139.729980 240.412109 L 139.729980 241.335938 Z " fill="rgb(0, 0, 0)" fill-opacity="1.000000" />
<path d="M 139.892578 241.335938 L 139.892578 240.412109 L 146.729980 240.412109 L 146.729980 241.335938 Z " fill="rgb(0, 0, 0)" fill-opacity="1.000000" />
<path d="M 146.892578 241.335938 L 146.892578 240.412109 L 153.729980 240.412109 L 153.729980 241.335938 Z " fill="rgb(0, 0, 0)" fill-opacity="1.000000" />
<path d="M 153.892578 241.335938 L 153.892578 240.412109 L 160.729980 240.412109 L 160.729980 241.335938 Z " fill="rgb(0, 0, 0)" fill-opacity="1.000000" />
<path d="M 160.892578 241.335938 L 160.892578 240.412109 L 167.729980 240.412109 L 167.729980 241.335938 Z " fill="rgb(0, 0, 0)" fill-opacity="1.000000" />
<path d="M 167.892578 241.335938 L 167.892578 240.412109 L 174.729980 240.412109 L 174.729980 241.335938 Z " fill="rgb(0, 0, 0)" fill-opacity="1.000000" />
<path d="M 174.892578 241.335938 L 174.892578 240.412109 L 181.729980 240.412109 L 181.729980 241.335938 Z " fill="rgb(0, 0, 0)" fill-opacity="1.000000" />
<path d="M 181.892578 241.335938 L 181.892578 240.412109 L 188.729980 240.412109 L 188.729980 241.335938 Z " fill="rgb(0, 0, 0)" fill-opacity="1.000000" />
<path d="M 188.892578 241.335938 L 188.892578 240.412109 L 191.878906 240.412109 L 191.878906 233.300781 L 192.738281 233.300781 L 192.738281 241.335938 Z " fill="rgb(0, 0, 0)" fill-opacity="1.000000" />
<path d="M 45.297852 67.276367 L 45.297852 68.984375 L 47.542969 68.984375 L 47.542969 69.752441 L 45.297852 69.752441 L 45.297852 73.018066 Q 45.297852 73.684082 45.550293 73.947266 Q 45.802734 74.210449 46.431152 74.210449 L 47.542969 74.210449 L 47.542969 75.000000 L 46.334473 75.000000 Q 45.222656 75.000000 44.766113 74.554199 Q 44.309570 74.108398 44.309570 73.018066 L 44.309570 69.752441 L 42.703613 69.752441 L 42.703613 68.984375 L 44.309570 68.984375 L 44.309570 67.276367 Z " fill="rgb(0, 0, 0)" fill-opacity="1.000000" />
<path d="M 52.297852 184.276367 L 52.297852 185.984375 L 54.542969 185.984375 L 54.542969 186.752441 L 52.297852 186.752441 L 52.297852 190.018066 Q 52.297852 190.684082 52.550293 190.947266 Q 52.802734 191.210449 53.431152 191.210449 L 54.542969 191.210449 L 54.542969 192.000000 L 53.334473 192.000000 Q 52.222656 192.000000 51.766113 191.554199 Q 51.309570 191.108398 51.309570 190.018066 L 51.309570 186.752441 L 49.703613 186.752441 L 49.703613 185.984375 L 51.309570 185.984375 L 51.309570 184.276367 Z " fill="rgb(0, 0, 0)" fill-opacity="1.000000" />
<path d="M 59.770508 201.976074 L 59.442871 201.976074 Q 58.578125 201.976074 58.140381 202.279541 Q 57.702637 202.583008 57.702637 203.184570 Q 57.702637 203.727051 58.030273 204.027832 Q 58.357910 204.328613 58.937988 204.328613 Q 59.754395 204.328613 60.221680 203.761963 Q 60.688965 203.195312 60.694336 202.196289 L 60.694336 201.976074 Z M 61.687988 201.567871 L 61.687988 205.000000 L 60.694336 205.000000 L 60.694336 204.108398 Q 60.377441 204.645508 59.896729 204.900635 Q 59.416016 205.155762 58.728516 205.155762 Q 57.810059 205.155762 57.262207 204.637451 Q 56.714355 204.119141 56.714355 203.249023 Q 56.714355 202.244629 57.388428 201.723633 Q 58.062500 201.202637 59.367676 201.202637 L 60.694336 201.202637 L 60.694336 201.046875 Q 60.688965 200.327148 60.329102 200.002197 Q 59.969238 199.677246 59.179688 199.677246 Q 58.674805 199.677246 58.159180 199.822266 Q 57.643555 199.967285 57.154785 200.246582 L 57.154785 199.258301 Q 57.702637 199.048828 58.204834 198.944092 Q 58.707031 198.839355 59.179688 198.839355 Q 59.926270 198.839355 60.455322 199.059570 Q 60.984375 199.279785 61.312012 199.720215 Q 61.516113 199.988770 61.602051 200.383545 Q 61.687988 200.778320 61.687988 201.567871 Z " fill="rgb(0, 0, 0)" fill-opacity="1.000000" />
<path d="M 191.878906 221.319336 L 191.878906 207.300781 L 192.738281 207.300781 L 192.738281 221.319336 Z " fill="rgb(0, 0, 0)" fill-opacity="1.000000" />
<path d="M 191.878906 234.319336 L 191.878906 220.300781 L 192.738281 220.300781 L 192.738281 234.319336 Z " fill="rgb(0, 0, 0)" fill-opacity="1.000000" />
<path d="M 66.861816 202.824707 Q 66.861816 203.490723 67.106201 203.829102 Q 67.350586 204.167480 67.828613 204.167480 L 68.983398 204.167480 L 68.983398 205.000000 L 67.731934 205.000000 Q 66.845703 205.000000 66.359619 204.433350 Q 65.873535 203.866699 65.873535 202.824707 L 65.873535 197.383789 L 64.289062 197.383789 L 64.289062 196.610352 L 66.861816 196.610352 Z " fill="rgb(0, 0, 0)" fill-opacity="1.000000" />
<path d="M 73.861816 202.824707 Q 73.861816 203.490723 74.106201 203.829102 Q 74.350586 204.167480 74.828613 204.167480 L 75.983398 204.167480 L 75.983398 205.000000 L 74.731934 205.000000 Q 73.845703 205.000000 73.359619 204.433350 Q 72.873535 203.866699 72.873535 202.824707 L 72.873535 197.383789 L 71.289062 197.383789 L 71.289062 196.610352 L 73.861816 196.610352 Z " fill="rgb(0, 0, 0)" fill-opacity="1.000000" />
<path d="M 80.308594 199.677246 Q 79.556641 199.677246 79.169922 200.262695 Q 78.783203 200.848145 78.783203 201.997559 Q 78.783203 203.141602 79.169922 203.729736 Q 79.556641 204.317871 80.308594 204.317871 Q 81.065918 204.317871 81.452637 203.729736 Q 81.839355 203.141602 81.839355 201.997559 Q 81.839355 200.848145 81.452637 200.262695 Q 81.065918 199.677246 80.308594 199.677246 Z M 80.308594 198.839355 Q 81.560059 198.839355 82.223389 199.650391 Q 82.886719 200.461426 82.886719 201.997559 Q 82.886719 203.539062 82.226074 204.347412 Q 81.565430 205.155762 80.308594 205.155762 Q 79.057129 205.155762 78.396484 204.347412 Q 77.735840 203.539062 77.735840 201.997559 Q 77.735840 200.461426 78.396484 199.650391 Q 79.057129 198.839355 80.308594 198.839355 Z " fill="rgb(0, 0, 0)" fill-opacity="1.000000" />
<path d="M 84.000000 198.984375 L 84.977539 198.984375 L 86.024902 203.845215 L 86.884277 200.740723 L 87.727539 200.740723 L 88.597656 203.845215 L 89.645020 198.984375 L 90.622559 198.984375 L 89.215332 205.000000 L 88.270020 205.000000 L 87.308594 201.702148 L 86.352539 205.000000 L 85.407227 205.000000 Z " fill="rgb(0, 0, 0)" fill-opacity="1.000000" />
<path d="M 94.770508 201.976074 L 94.442871 201.976074 Q 93.578125 201.976074 93.140381 202.279541 Q 92.702637 202.583008 92.702637 203.184570 Q 92.702637 203.727051 93.030273 204.027832 Q 93.357910 204.328613 93.937988 204.328613 Q 94.754395 204.328613 95.221680 203.761963 Q 95.688965 203.195312 95.694336 202.196289 L 95.694336 201.976074 Z M 96.687988 201.567871 L 96.687988 205.000000 L 95.694336 205.000000 L 95.694336 204.108398 Q 95.377441 204.645508 94.896729 204.900635 Q 94.416016 205.155762 93.728516 205.155762 Q 92.810059 205.155762 92.262207 204.637451 Q 91.714355 204.119141 91.714355 203.249023 Q 91.714355 202.244629 92.388428 201.723633 Q 93.062500 201.202637 94.367676 201.202637 L 95.694336 201.202637 L 95.694336 201.046875 Q 95.688965 200.327148 95.329102 200.002197 Q 94.969238 199.677246 94.179688 199.677246 Q 93.674805 199.677246 93.159180 199.822266 Q 92.643555 199.967285 92.154785 200.246582 L 92.154785 199.258301 Q 92.702637 199.048828 93.204834 198.944092 Q 93.707031 198.839355 94.179688 198.839355 Q 94.926270 198.839355 95.455322 199.059570 Q 95.984375 199.279785 96.312012 199.720215 Q 96.516113 199.988770 96.602051 200.383545 Q 96.687988 200.778320 96.687988 201.567871 Z " fill="rgb(0, 0, 0)" fill-opacity="1.000000" />
<path d="M 103.645020 201.272461 L 103.645020 205.000000 L 102.651367 205.000000 L 102.651367 201.272461 Q 102.651367 200.461426 102.366699 200.080078 Q 102.082031 199.698730 101.475098 199.698730 Q 100.782227 199.698730 100.408936 200.190186 Q 100.035645 200.681641 100.035645 201.600098 L 100.035645 205.000000 L 99.047363 205.000000 L 99.047363 198.984375 L 100.035645 198.984375 L 100.035645 199.886719 Q 100.298828 199.371094 100.750000 199.105225 Q 101.201172 198.839355 101.818848 198.839355 Q 102.737305 198.839355 103.191162 199.443604 Q 103.645020 200.047852 103.645020 201.272461 Z " fill="rgb(0, 0, 0)" fill-opacity="1.000000" />
<path d="M 110.698730 204.693848 Q 110.301270 204.924805 109.879639 205.040283 Q 109.458008 205.155762 109.017578 205.155762 Q 107.621094 205.155762 106.834229 204.317871 Q 106.047363 203.479980 106.047363 201.997559 Q 106.047363 200.515137 106.834229 199.677246 Q 107.621094 198.839355 109.017578 198.839355 Q 109.452637 198.839355 109.866211 198.952148 Q 110.279785 199.064941 110.698730 199.301270 L 110.698730 200.337891 Q 110.306641 199.988770 109.911865 199.833008 Q 109.517090 199.677246 109.017578 199.677246 Q 108.088379 199.677246 107.588867 200.278809 Q 107.089355 200.880371 107.089355 201.997559 Q 107.089355 203.109375 107.591553 203.713623 Q 108.093750 204.317871 109.017578 204.317871 Q 109.533203 204.317871 109.941406 204.159424 Q 110.349609 204.000977 110.698730 203.667969 Z " fill="rgb(0, 0, 0)" fill-opacity="1.000000" />
<path d="M 118.015625 201.498047 L 118.015625 201.981445 L 113.734863 201.981445 L 113.734863 202.013672 Q 113.691895 203.243652 114.204834 203.780762 Q 114.717773 204.317871 115.652344 204.317871 Q 116.125000 204.317871 116.640625 204.167480 Q 117.156250 204.017090 117.741699 203.710938 L 117.741699 204.693848 Q 117.177734 204.924805 116.654053 205.040283 Q 116.130371 205.155762 115.641602 205.155762 Q 114.239746 205.155762 113.450195 204.315186 Q 112.660645 203.474609 112.660645 201.997559 Q 112.660645 200.558105 113.434082 199.698730 Q 114.207520 198.839355 115.496582 198.839355 Q 116.645996 198.839355 117.309326 199.618164 Q 117.972656 200.396973 118.015625 201.498047 Z M 117.027344 201.208008 Q 116.962891 200.584961 116.573486 200.131104 Q 116.184082 199.677246 115.453613 199.677246 Q 114.739258 199.677246 114.277344 200.149902 Q 113.815430 200.622559 113.772461 201.213379 Z " fill="rgb(0, 0, 0)" fill-opacity="1.000000" />
<path d="M 123.592285 196.116211 Q 122.877930 197.340820 122.526123 198.557373 Q 122.174316 199.773926 122.174316 201.009277 Q 122.174316 202.239258 122.526123 203.458496 Q 122.877930 204.677734 123.592285 205.913086 L 122.732910 205.913086 Q 121.921875 204.634766 121.524414 203.423584 Q 121.126953 202.212402 121.126953 201.009277 Q 121.126953 199.811523 121.524414 198.597656 Q 121.921875 197.383789 122.732910 196.116211 Z " fill="rgb(0, 0, 0)" fill-opacity="1.000000" />
<path d="M 127.869141 196.116211 L 128.728516 196.116211 Q 129.539551 197.383789 129.937012 198.597656 Q 130.334473 199.811523 130.334473 201.009277 Q 130.334473 202.217773 129.937012 203.431641 Q 129.539551 204.645508 128.728516 205.913086 L 127.869141 205.913086 Q 128.583496 204.666992 128.935303 203.447754 Q 129.287109 202.228516 129.287109 201.009277 Q 129.287109 199.784668 128.935303 198.565430 Q 128.583496 197.346191 127.869141 196.116211 Z " fill="rgb(0, 0, 0)" fill-opacity="1.000000" />
<path d="M 191.878906 208.319336 L 191.878906 194.300781 L 192.738281 194.300781 L 192.738281 208.319336 Z " fill="rgb(0, 0, 0)" fill-opacity="1.000000" />
<path d="M 59.308594 186.677246 Q 58.556641 186.677246 58.169922 187.262695 Q 57.783203 187.848145 57.783203 188.997559 Q 57.783203 190.141602 58.169922 190.729736 Q 58.556641 191.317871 59.308594 191.317871 Q 60.065918 191.317871 60.452637 190.729736 Q 60.839355 190.141602 60.839355 188.997559 Q 60.839355 187.848145 60.452637 187.262695 Q 60.065918 186.677246 59.308594 186.677246 Z M 59.308594 185.839355 Q 60.560059 185.839355 61.223389 186.650391 Q 61.886719 187.461426 61.886719 188.997559 Q 61.886719 190.539062 61.226074 191.347412 Q 60.565430 192.155762 59.308594 192.155762 Q 58.057129 192.155762 57.396484 191.347412 Q 56.735840 190.539062 56.735840 188.997559 Q 56.735840 187.461426 57.396484 186.650391 Q 58.057129 185.839355 59.308594 185.839355 Z " fill="rgb(0, 0, 0)" fill-opacity="1.000000" />
<path d="M 66.297852 184.276367 L 66.297852 185.984375 L 68.542969 185.984375 L 68.542969 186.752441 L 66.297852 186.752441 L 66.297852 190.018066 Q 66.297852 190.684082 66.550293 190.947266 Q 66.802734 191.210449 67.431152 191.210449 L 68.542969 191.210449 L 68.542969 192.000000 L 67.334473 192.000000 Q 66.222656 192.000000 65.766113 191.554199 Q 65.309570 191.108398 65.309570 190.018066 L 65.309570 186.752441 L 63.703613 186.752441 L 63.703613 185.984375 L 65.309570 185.984375 L 65.309570 184.276367 Z " fill="rgb(0, 0, 0)" fill-opacity="1.000000" />
<path d="M 73.770508 188.976074 L 73.442871 188.976074 Q 72.578125 188.976074 72.140381 189.279541 Q 71.702637 189.583008 71.702637 190.184570 Q 71.702637 190.727051 72.030273 191.027832 Q 72.357910 191.328613 72.937988 191.328613 Q 73.754395 191.328613 74.221680 190.761963 Q 74.688965 190.195312 74.694336 189.196289 L 74.694336 188.976074 Z M 75.687988 188.567871 L 75.687988 192.000000 L 74.694336 192.000000 L 74.694336 191.108398 Q 74.377441 191.645508 73.896729 191.900635 Q 73.416016 192.155762 72.728516 192.155762 Q 71.810059 192.155762 71.262207 191.637451 Q 70.714355 191.119141 70.714355 190.249023 Q 70.714355 189.244629 71.388428 188.723633 Q 72.062500 188.202637 73.367676 188.202637 L 74.694336 188.202637 L 74.694336 188.046875 Q 74.688965 187.327148 74.329102 187.002197 Q 73.969238 186.677246 73.179688 186.677246 Q 72.674805 186.677246 72.159180 186.822266 Q 71.643555 186.967285 71.154785 187.246582 L 71.154785 186.258301 Q 71.702637 186.048828 72.204834 185.944092 Q 72.707031 185.839355 73.179688 185.839355 Q 73.926270 185.839355 74.455322 186.059570 Q 74.984375 186.279785 75.312012 186.720215 Q 75.516113 186.988770 75.602051 187.383545 Q 75.687988 187.778320 75.687988 188.567871 Z " fill="rgb(0, 0, 0)" fill-opacity="1.000000" />
<path d="M 80.861816 189.824707 Q 80.861816 190.490723 81.106201 190.829102 Q 81.350586 191.167480 81.828613 191.167480 L 82.983398 191.167480 L 82.983398 192.000000 L 81.731934 192.000000 Q 80.845703 192.000000 80.359619 191.433350 Q 79.873535 190.866699 79.873535 189.824707 L 79.873535 184.383789 L 78.289062 184.383789 L 78.289062 183.610352 L 80.861816 183.610352 Z " fill="rgb(0, 0, 0)" fill-opacity="1.000000" />
<path d="M 90.574219 193.020508 L 90.574219 193.933594 L 84.000000 193.933594 L 84.000000 193.020508 Z " fill="rgb(0, 0, 0)" fill-opacity="1.000000" />
<path d="M 96.226074 186.193848 L 96.226074 187.160645 Q 95.801758 186.913574 95.372070 186.790039 Q 94.942383 186.666504 94.496582 186.666504 Q 93.825195 186.666504 93.494873 186.884033 Q 93.164551 187.101562 93.164551 187.547363 Q 93.164551 187.950195 93.411621 188.148926 Q 93.658691 188.347656 94.641602 188.535645 L 95.039062 188.610840 Q 95.774902 188.750488 96.153564 189.169434 Q 96.532227 189.588379 96.532227 190.259766 Q 96.532227 191.151367 95.898438 191.653564 Q 95.264648 192.155762 94.136719 192.155762 Q 93.690918 192.155762 93.202148 192.061768 Q 92.713379 191.967773 92.144043 191.779785 L 92.144043 190.759277 Q 92.697266 191.043945 93.202148 191.186279 Q 93.707031 191.328613 94.158203 191.328613 Q 94.813477 191.328613 95.173340 191.062744 Q 95.533203 190.796875 95.533203 190.318848 Q 95.533203 189.631348 94.217285 189.368164 L 94.174316 189.357422 L 93.803711 189.282227 Q 92.949707 189.115723 92.557617 188.720947 Q 92.165527 188.326172 92.165527 187.644043 Q 92.165527 186.779297 92.750977 186.309326 Q 93.336426 185.839355 94.421387 185.839355 Q 94.904785 185.839355 95.350586 185.927979 Q 95.796387 186.016602 96.226074 186.193848 Z " fill="rgb(0, 0, 0)" fill-opacity="1.000000" />
<path d="M 99.047363 189.722656 L 99.047363 185.995117 L 100.035645 185.995117 L 100.035645 189.722656 Q 100.035645 190.533691 100.322998 190.915039 Q 100.610352 191.296387 101.211914 191.296387 Q 101.910156 191.296387 102.280762 190.804932 Q 102.651367 190.313477 102.651367 189.395020 L 102.651367 185.995117 L 103.645020 185.995117 L 103.645020 192.000000 L 102.651367 192.000000 L 102.651367 191.097656 Q 102.388184 191.618652 101.934326 191.887207 Q 101.480469 192.155762 100.873535 192.155762 Q 99.949707 192.155762 99.498535 191.551514 Q 99.047363 190.947266 99.047363 189.722656 Z " fill="rgb(0, 0, 0)" fill-opacity="1.000000" />
<path d="M 107.014160 191.242676 L 107.014160 194.288086 L 106.020508 194.288086 L 106.020508 185.984375 L 107.014160 185.984375 L 107.014160 186.752441 Q 107.261230 186.306641 107.672119 186.072998 Q 108.083008 185.839355 108.620117 185.839355 Q 109.710449 185.839355 110.330811 186.682617 Q 110.951172 187.525879 110.951172 189.019043 Q 110.951172 190.485352 110.328125 191.320557 Q 109.705078 192.155762 108.620117 192.155762 Q 108.072266 192.155762 107.661377 191.922119 Q 107.250488 191.688477 107.014160 191.242676 Z M 109.914551 188.997559 Q 109.914551 187.848145 109.552002 187.262695 Q 109.189453 186.677246 108.475098 186.677246 Q 107.755371 186.677246 107.384766 187.265381 Q 107.014160 187.853516 107.014160 188.997559 Q 107.014160 190.136230 107.384766 190.727051 Q 107.755371 191.317871 108.475098 191.317871 Q 109.189453 191.317871 109.552002 190.732422 Q 109.914551 190.146973 109.914551 188.997559 Z " fill="rgb(0, 0, 0)" fill-opacity="1.000000" />
<path d="M 114.014160 191.242676 L 114.014160 194.288086 L 113.020508 194.288086 L 113.020508 185.984375 L 114.014160 185.984375 L 114.014160 186.752441 Q 114.261230 186.306641 114.672119 186.072998 Q 115.083008 185.839355 115.620117 185.839355 Q 116.710449 185.839355 117.330811 186.682617 Q 117.951172 187.525879 117.951172 189.019043 Q 117.951172 190.485352 117.328125 191.320557 Q 116.705078 192.155762 115.620117 192.155762 Q 115.072266 192.155762 114.661377 191.922119 Q 114.250488 191.688477 114.014160 191.242676 Z M 116.914551 188.997559 Q 116.914551 187.848145 116.552002 187.262695 Q 116.189453 186.677246 115.475098 186.677246 Q 114.755371 186.677246 114.384766 187.265381 Q 114.014160 187.853516 114.014160 188.997559 Q 114.014160 190.136230 114.384766 190.727051 Q 114.755371 191.317871 115.475098 191.317871 Q 116.189453 191.317871 116.552002 190.732422 Q 116.914551 190.146973 116.914551 188.997559 Z " fill="rgb(0, 0, 0)" fill-opacity="1.000000" />
<path d="M 122.861816 189.824707 Q 122.861816 190.490723 123.106201 190.829102 Q 123.350586 191.167480 123.828613 191.167480 L 124.983398 191.167480 L 124.983398 192.000000 L 123.731934 192.000000 Q 122.845703 192.000000 122.359619 191.433350 Q 121.873535 190.866699 121.873535 189.824707 L 121.873535 184.383789 L 120.289062 184.383789 L 120.289062 183.610352 L 122.861816 183.610352 Z " fill="rgb(0, 0, 0)" fill-opacity="1.000000" />
<path d="M 130.608398 190.066406 Q 130.361328 190.694824 129.979980 191.720703 Q 129.448242 193.138672 129.265625 193.450195 Q 129.018555 193.869141 128.647949 194.078613 Q 128.277344 194.288086 127.783203 194.288086 L 126.988281 194.288086 L 126.988281 193.460938 L 127.573730 193.460938 Q 128.008789 193.460938 128.255859 193.208496 Q 128.502930 192.956055 128.884277 191.903320 L 126.558594 185.984375 L 127.605957 185.984375 L 129.389160 190.689453 L 131.145508 185.984375 L 132.192871 185.984375 Z " fill="rgb(0, 0, 0)" fill-opacity="1.000000" />
<path d="M 137.592285 183.116211 Q 136.877930 184.340820 136.526123 185.557373 Q 136.174316 186.773926 136.174316 188.009277 Q 136.174316 189.239258 136.526123 190.458496 Q 136.877930 191.677734 137.592285 192.913086 L 136.732910 192.913086 Q 135.921875 191.634766 135.524414 190.423584 Q 135.126953 189.212402 135.126953 188.009277 Q 135.126953 186.811523 135.524414 185.597656 Q 135.921875 184.383789 136.732910 183.116211 Z " fill="rgb(0, 0, 0)" fill-opacity="1.000000" />
<path d="M 141.869141 183.116211 L 142.728516 183.116211 Q 143.539551 184.383789 143.937012 185.597656 Q 144.334473 186.811523 144.334473 188.009277 Q 144.334473 189.217773 143.937012 190.431641 Q 143.539551 191.645508 142.728516 192.913086 L 141.869141 192.913086 Q 142.583496 191.666992 142.935303 190.447754 Q 143.287109 189.228516 143.287109 188.009277 Q 143.287109 186.784668 142.935303 185.565430 Q 142.583496 184.346191 141.869141 183.116211 Z " fill="rgb(0, 0, 0)" fill-opacity="1.000000" />
<path d="M 191.878906 195.319336 L 191.878906 181.300781 L 192.738281 181.300781 L 192.738281 195.319336 Z " fill="rgb(0, 0, 0)" fill-opacity="1.000000" />
<path d="M 60.930664 175.997559 Q 60.930664 174.848145 60.565430 174.262695 Q 60.200195 173.677246 59.485840 173.677246 Q 58.766113 173.677246 58.395508 174.265381 Q 58.024902 174.853516 58.024902 175.997559 Q 58.024902 177.136230 58.395508 177.727051 Q 58.766113 178.317871 59.485840 178.317871 Q 60.200195 178.317871 60.565430 177.732422 Q 60.930664 177.146973 60.930664 175.997559 Z M 58.024902 173.752441 Q 58.261230 173.312012 58.677490 173.075684 Q 59.093750 172.839355 59.641602 172.839355 Q 60.726562 172.839355 61.349609 173.674561 Q 61.972656 174.509766 61.972656 175.976074 Q 61.972656 177.463867 61.346924 178.309814 Q 60.721191 179.155762 59.630859 179.155762 Q 59.093750 179.155762 58.682861 178.922119 Q 58.271973 178.688477 58.024902 178.242676 L 58.024902 179.000000 L 57.036621 179.000000 L 57.036621 170.642578 L 58.024902 170.642578 Z " fill="rgb(0, 0, 0)" fill-opacity="1.000000" />
<path d="M 66.770508 175.976074 L 66.442871 175.976074 Q 65.578125 175.976074 65.140381 176.279541 Q 64.702637 176.583008 64.702637 177.184570 Q 64.702637 177.727051 65.030273 178.027832 Q 65.357910 178.328613 65.937988 178.328613 Q 66.754395 178.328613 67.221680 177.761963 Q 67.688965 177.195312 67.694336 176.196289 L 67.694336 175.976074 Z M 68.687988 175.567871 L 68.687988 179.000000 L 67.694336 179.000000 L 67.694336 178.108398 Q 67.377441 178.645508 66.896729 178.900635 Q 66.416016 179.155762 65.728516 179.155762 Q 64.810059 179.155762 64.262207 178.637451 Q 63.714355 178.119141 63.714355 177.249023 Q 63.714355 176.244629 64.388428 175.723633 Q 65.062500 175.202637 66.367676 175.202637 L 67.694336 175.202637 L 67.694336 175.046875 Q 67.688965 174.327148 67.329102 174.002197 Q 66.969238 173.677246 66.179688 173.677246 Q 65.674805 173.677246 65.159180 173.822266 Q 64.643555 173.967285 64.154785 174.246582 L 64.154785 173.258301 Q 64.702637 173.048828 65.204834 172.944092 Q 65.707031 172.839355 66.179688 172.839355 Q 66.926270 172.839355 67.455322 173.059570 Q 67.984375 173.279785 68.312012 173.720215 Q 68.516113 173.988770 68.602051 174.383545 Q 68.687988 174.778320 68.687988 175.567871 Z " fill="rgb(0, 0, 0)" fill-opacity="1.000000" />
<path d="M 73.861816 176.824707 Q 73.861816 177.490723 74.106201 177.829102 Q 74.350586 178.167480 74.828613 178.167480 L 75.983398 178.167480 L 75.983398 179.000000 L 74.731934 179.000000 Q 73.845703 179.000000 73.359619 178.433350 Q 72.873535 177.866699 72.873535 176.824707 L 72.873535 171.383789 L 71.289062 171.383789 L 71.289062 170.610352 L 73.861816 170.610352 Z " fill="rgb(0, 0, 0)" fill-opacity="1.000000" />
<path d="M 80.770508 175.976074 L 80.442871 175.976074 Q 79.578125 175.976074 79.140381 176.279541 Q 78.702637 176.583008 78.702637 177.184570 Q 78.702637 177.727051 79.030273 178.027832 Q 79.357910 178.328613 79.937988 178.328613 Q 80.754395 178.328613 81.221680 177.761963 Q 81.688965 177.195312 81.694336 176.196289 L 81.694336 175.976074 Z M 82.687988 175.567871 L 82.687988 179.000000 L 81.694336 179.000000 L 81.694336 178.108398 Q 81.377441 178.645508 80.896729 178.900635 Q 80.416016 179.155762 79.728516 179.155762 Q 78.810059 179.155762 78.262207 178.637451 Q 77.714355 178.119141 77.714355 177.249023 Q 77.714355 176.244629 78.388428 175.723633 Q 79.062500 175.202637 80.367676 175.202637 L 81.694336 175.202637 L 81.694336 175.046875 Q 81.688965 174.327148 81.329102 174.002197 Q 80.969238 173.677246 80.179688 173.677246 Q 79.674805 173.677246 79.159180 173.822266 Q 78.643555 173.967285 78.154785 174.246582 L 78.154785 173.258301 Q 78.702637 173.048828 79.204834 172.944092 Q 79.707031 172.839355 80.179688 172.839355 Q 80.926270 172.839355 81.455322 173.059570 Q 81.984375 173.279785 82.312012 173.720215 Q 82.516113 173.988770 82.602051 174.383545 Q 82.687988 174.778320 82.687988 175.567871 Z " fill="rgb(0, 0, 0)" fill-opacity="1.000000" />
<path d="M 89.645020 175.272461 L 89.645020 179.000000 L 88.651367 179.000000 L 88.651367 175.272461 Q 88.651367 174.461426 88.366699 174.080078 Q 88.082031 173.698730 87.475098 173.698730 Q 86.782227 173.698730 86.408936 174.190186 Q 86.035645 174.681641 86.035645 175.600098 L 86.035645 179.000000 L 85.047363 179.000000 L 85.047363 172.984375 L 86.035645 172.984375 L 86.035645 173.886719 Q 86.298828 173.371094 86.750000 173.105225 Q 87.201172 172.839355 87.818848 172.839355 Q 88.737305 172.839355 89.191162 173.443604 Q 89.645020 174.047852 89.645020 175.272461 Z " fill="rgb(0, 0, 0)" fill-opacity="1.000000" />
<path d="M 96.698730 178.693848 Q 96.301270 178.924805 95.879639 179.040283 Q 95.458008 179.155762 95.017578 179.155762 Q 93.621094 179.155762 92.834229 178.317871 Q 92.047363 177.479980 92.047363 175.997559 Q 92.047363 174.515137 92.834229 173.677246 Q 93.621094 172.839355 95.017578 172.839355 Q 95.452637 172.839355 95.866211 172.952148 Q 96.279785 173.064941 96.698730 173.301270 L 96.698730 174.337891 Q 96.306641 173.988770 95.911865 173.833008 Q 95.517090 173.677246 95.017578 173.677246 Q 94.088379 173.677246 93.588867 174.278809 Q 93.089355 174.880371 93.089355 175.997559 Q 93.089355 177.109375 93.591553 177.713623 Q 94.093750 178.317871 95.017578 178.317871 Q 95.533203 178.317871 95.941406 178.159424 Q 96.349609 178.000977 96.698730 177.667969 Z " fill="rgb(0, 0, 0)" fill-opacity="1.000000" />
<path d="M 104.015625 175.498047 L 104.015625 175.981445 L 99.734863 175.981445 L 99.734863 176.013672 Q 99.691895 177.243652 100.204834 177.780762 Q 100.717773 178.317871 101.652344 178.317871 Q 102.125000 178.317871 102.640625 178.167480 Q 103.156250 178.017090 103.741699 177.710938 L 103.741699 178.693848 Q 103.177734 178.924805 102.654053 179.040283 Q 102.130371 179.155762 101.641602 179.155762 Q 100.239746 179.155762 99.450195 178.315186 Q 98.660645 177.474609 98.660645 175.997559 Q 98.660645 174.558105 99.434082 173.698730 Q 100.207520 172.839355 101.496582 172.839355 Q 102.645996 172.839355 103.309326 173.618164 Q 103.972656 174.396973 104.015625 175.498047 Z M 103.027344 175.208008 Q 102.962891 174.584961 102.573486 174.131104 Q 102.184082 173.677246 101.453613 173.677246 Q 100.739258 173.677246 100.277344 174.149902 Q 99.815430 174.622559 99.772461 175.213379 Z " fill="rgb(0, 0, 0)" fill-opacity="1.000000" />
<path d="M 111.574219 180.020508 L 111.574219 180.933594 L 105.000000 180.933594 L 105.000000 180.020508 Z " fill="rgb(0, 0, 0)" fill-opacity="1.000000" />
<path d="M 115.308594 173.677246 Q 114.556641 173.677246 114.169922 174.262695 Q 113.783203 174.848145 113.783203 175.997559 Q 113.783203 177.141602 114.169922 177.729736 Q 114.556641 178.317871 115.308594 178.317871 Q 116.065918 178.317871 116.452637 177.729736 Q 116.839355 177.141602 116.839355 175.997559 Q 116.839355 174.848145 116.452637 174.262695 Q 116.065918 173.677246 115.308594 173.677246 Z M 115.308594 172.839355 Q 116.560059 172.839355 117.223389 173.650391 Q 117.886719 174.461426 117.886719 175.997559 Q 117.886719 177.539062 117.226074 178.347412 Q 116.565430 179.155762 115.308594 179.155762 Q 114.057129 179.155762 113.396484 178.347412 Q 112.735840 177.539062 112.735840 175.997559 Q 112.735840 174.461426 113.396484 173.650391 Q 114.057129 172.839355 115.308594 172.839355 Z " fill="rgb(0, 0, 0)" fill-opacity="1.000000" />
<path d="M 124.709473 170.642578 L 124.709473 171.464355 L 123.586914 171.464355 Q 123.055176 171.464355 122.848389 171.681885 Q 122.641602 171.899414 122.641602 172.452637 L 122.641602 172.984375 L 124.709473 172.984375 L 124.709473 173.752441 L 122.641602 173.752441 L 122.641602 179.000000 L 121.653320 179.000000 L 121.653320 173.752441 L 120.047363 173.752441 L 120.047363 172.984375 L 121.653320 172.984375 L 121.653320 172.565430 Q 121.653320 171.577148 122.107178 171.109863 Q 122.561035 170.642578 123.522461 170.642578 Z " fill="rgb(0, 0, 0)" fill-opacity="1.000000" />
<path d="M 130.592285 170.116211 Q 129.877930 171.340820 129.526123 172.557373 Q 129.174316 173.773926 129.174316 175.009277 Q 129.174316 176.239258 129.526123 177.458496 Q 129.877930 178.677734 130.592285 179.913086 L 129.732910 179.913086 Q 128.921875 178.634766 128.524414 177.423584 Q 128.126953 176.212402 128.126953 175.009277 Q 128.126953 173.811523 128.524414 172.597656 Q 128.921875 171.383789 129.732910 170.116211 Z " fill="rgb(0, 0, 0)" fill-opacity="1.000000" />
<path d="M 134.869141 170.116211 L 135.728516 170.116211 Q 136.539551 171.383789 136.937012 172.597656 Q 137.334473 173.811523 137.334473 175.009277 Q 137.334473 176.217773 136.937012 177.431641 Q 136.539551 178.645508 135.728516 179.913086 L 134.869141 179.913086 Q 135.583496 178.666992 135.935303 177.447754 Q 136.287109 176.228516 136.287109 175.009277 Q 136.287109 173.784668 135.935303 172.565430 Q 135.583496 171.346191 134.869141 170.116211 Z " fill="rgb(0, 0, 0)" fill-opacity="1.000000" />
<path d="M 191.878906 182.319336 L 191.878906 168.300781 L 192.738281 168.300781 L 192.738281 182.319336 Z " fill="rgb(0, 0, 0)" fill-opacity="1.000000" />
<path d="M 191.878906 91.319336 L 191.878906 77.300781 L 192.738281 77.300781 L 192.738281 91.319336 Z " fill="rgb(0, 0, 0)" fill-opacity="1.000000" />
<path d="M 191.878906 104.319336 L 191.878906 90.300781 L 192.738281 90.300781 L 192.738281 104.319336 Z " fill="rgb(0, 0, 0)" fill-opacity="1.000000" />
<path d="M 191.878906 117.319336 L 191.878906 103.300781 L 192.738281 103.300781 L 192.738281 117.319336 Z " fill="rgb(0, 0, 0)" fill-opacity="1.000000" />
<path d="M 191.878906 130.319336 L 191.878906 116.300781 L 192.738281 116.300781 L 192.738281 130.319336 Z " fill="rgb(0, 0, 0)" fill-opacity="1.000000" />
<path d="M 191.878906 143.319336 L 191.878906 129.300781 L 192.738281 129.300781 L 192.738281 143.319336 Z " fill="rgb(0, 0, 0)" fill-opacity="1.000000" />
<path d="M 191.878906 156.319336 L 191.878906 142.300781 L 192.738281 142.300781 L 192.738281 156.319336 Z " fill="rgb(0, 0, 0)" fill-opacity="1.000000" />
<path d="M 191.878906 169.319336 L 191.878906 155.300781 L 192.738281 155.300781 L 192.738281 169.319336 Z " fill="rgb(0, 0, 0)" fill-opacity="1.000000" />
<path d="M 55.203613 70.225098 Q 54.886719 69.978027 54.559082 69.865234 Q 54.231445 69.752441 53.839355 69.752441 Q 52.915527 69.752441 52.426758 70.332520 Q 51.937988 70.912598 51.937988 72.008301 L 51.937988 75.000000 L 50.944336 75.000000 L 50.944336 68.984375 L 51.937988 68.984375 L 51.937988 70.160645 Q 52.185059 69.521484 52.697998 69.180420 Q 53.210938 68.839355 53.914551 68.839355 Q 54.279785 68.839355 54.596680 68.930664 Q 54.913574 69.021973 55.203613 69.215332 Z " fill="rgb(0, 0, 0)" fill-opacity="1.000000" />
<path d="M 59.770508 71.976074 L 59.442871 71.976074 Q 58.578125 71.976074 58.140381 72.279541 Q 57.702637 72.583008 57.702637 73.184570 Q 57.702637 73.727051 58.030273 74.027832 Q 58.357910 74.328613 58.937988 74.328613 Q 59.754395 74.328613 60.221680 73.761963 Q 60.688965 73.195312 60.694336 72.196289 L 60.694336 71.976074 Z M 61.687988 71.567871 L 61.687988 75.000000 L 60.694336 75.000000 L 60.694336 74.108398 Q 60.377441 74.645508 59.896729 74.900635 Q 59.416016 75.155762 58.728516 75.155762 Q 57.810059 75.155762 57.262207 74.637451 Q 56.714355 74.119141 56.714355 73.249023 Q 56.714355 72.244629 57.388428 71.723633 Q 58.062500 71.202637 59.367676 71.202637 L 60.694336 71.202637 L 60.694336 71.046875 Q 60.688965 70.327148 60.329102 70.002197 Q 59.969238 69.677246 59.179688 69.677246 Q 58.674805 69.677246 58.159180 69.822266 Q 57.643555 69.967285 57.154785 70.246582 L 57.154785 69.258301 Q 57.702637 69.048828 58.204834 68.944092 Q 58.707031 68.839355 59.179688 68.839355 Q 59.926270 68.839355 60.455322 69.059570 Q 60.984375 69.279785 61.312012 69.720215 Q 61.516113 69.988770 61.602051 70.383545 Q 61.687988 70.778320 61.687988 71.567871 Z " fill="rgb(0, 0, 0)" fill-opacity="1.000000" />
<path d="M 68.645020 71.272461 L 68.645020 75.000000 L 67.651367 75.000000 L 67.651367 71.272461 Q 67.651367 70.461426 67.366699 70.080078 Q 67.082031 69.698730 66.475098 69.698730 Q 65.782227 69.698730 65.408936 70.190186 Q 65.035645 70.681641 65.035645 71.600098 L 65.035645 75.000000 L 64.047363 75.000000 L 64.047363 68.984375 L 65.035645 68.984375 L 65.035645 69.886719 Q 65.298828 69.371094 65.750000 69.105225 Q 66.201172 68.839355 66.818848 68.839355 Q 67.737305 68.839355 68.191162 69.443604 Q 68.645020 70.047852 68.645020 71.272461 Z " fill="rgb(0, 0, 0)" fill-opacity="1.000000" />
<path d="M 75.226074 69.193848 L 75.226074 70.160645 Q 74.801758 69.913574 74.372070 69.790039 Q 73.942383 69.666504 73.496582 69.666504 Q 72.825195 69.666504 72.494873 69.884033 Q 72.164551 70.101562 72.164551 70.547363 Q 72.164551 70.950195 72.411621 71.148926 Q 72.658691 71.347656 73.641602 71.535645 L 74.039062 71.610840 Q 74.774902 71.750488 75.153564 72.169434 Q 75.532227 72.588379 75.532227 73.259766 Q 75.532227 74.151367 74.898438 74.653564 Q 74.264648 75.155762 73.136719 75.155762 Q 72.690918 75.155762 72.202148 75.061768 Q 71.713379 74.967773 71.144043 74.779785 L 71.144043 73.759277 Q 71.697266 74.043945 72.202148 74.186279 Q 72.707031 74.328613 73.158203 74.328613 Q 73.813477 74.328613 74.173340 74.062744 Q 74.533203 73.796875 74.533203 73.318848 Q 74.533203 72.631348 73.217285 72.368164 L 73.174316 72.357422 L 72.803711 72.282227 Q 71.949707 72.115723 71.557617 71.720947 Q 71.165527 71.326172 71.165527 70.644043 Q 71.165527 69.779297 71.750977 69.309326 Q 72.336426 68.839355 73.421387 68.839355 Q 73.904785 68.839355 74.350586 68.927979 Q 74.796387 69.016602 75.226074 69.193848 Z " fill="rgb(0, 0, 0)" fill-opacity="1.000000" />
<path d="M 82.709473 66.642578 L 82.709473 67.464355 L 81.586914 67.464355 Q 81.055176 67.464355 80.848389 67.681885 Q 80.641602 67.899414 80.641602 68.452637 L 80.641602 68.984375 L 82.709473 68.984375 L 82.709473 69.752441 L 80.641602 69.752441 L 80.641602 75.000000 L 79.653320 75.000000 L 79.653320 69.752441 L 78.047363 69.752441 L 78.047363 68.984375 L 79.653320 68.984375 L 79.653320 68.565430 Q 79.653320 67.577148 80.107178 67.109863 Q 80.561035 66.642578 81.522461 66.642578 Z " fill="rgb(0, 0, 0)" fill-opacity="1.000000" />
<path d="M 90.015625 71.498047 L 90.015625 71.981445 L 85.734863 71.981445 L 85.734863 72.013672 Q 85.691895 73.243652 86.204834 73.780762 Q 86.717773 74.317871 87.652344 74.317871 Q 88.125000 74.317871 88.640625 74.167480 Q 89.156250 74.017090 89.741699 73.710938 L 89.741699 74.693848 Q 89.177734 74.924805 88.654053 75.040283 Q 88.130371 75.155762 87.641602 75.155762 Q 86.239746 75.155762 85.450195 74.315186 Q 84.660645 73.474609 84.660645 71.997559 Q 84.660645 70.558105 85.434082 69.698730 Q 86.207520 68.839355 87.496582 68.839355 Q 88.645996 68.839355 89.309326 69.618164 Q 89.972656 70.396973 90.015625 71.498047 Z M 89.027344 71.208008 Q 88.962891 70.584961 88.573486 70.131104 Q 88.184082 69.677246 87.453613 69.677246 Q 86.739258 69.677246 86.277344 70.149902 Q 85.815430 70.622559 85.772461 71.213379 Z " fill="rgb(0, 0, 0)" fill-opacity="1.000000" />
<path d="M 97.203613 70.225098 Q 96.886719 69.978027 96.559082 69.865234 Q 96.231445 69.752441 95.839355 69.752441 Q 94.915527 69.752441 94.426758 70.332520 Q 93.937988 70.912598 93.937988 72.008301 L 93.937988 75.000000 L 92.944336 75.000000 L 92.944336 68.984375 L 93.937988 68.984375 L 93.937988 70.160645 Q 94.185059 69.521484 94.697998 69.180420 Q 95.210938 68.839355 95.914551 68.839355 Q 96.279785 68.839355 96.596680 68.930664 Q 96.913574 69.021973 97.203613 69.215332 Z " fill="rgb(0, 0, 0)" fill-opacity="1.000000" />
<path d="M 104.574219 76.020508 L 104.574219 76.933594 L 98.000000 76.933594 L 98.000000 76.020508 Z " fill="rgb(0, 0, 0)" fill-opacity="1.000000" />
<path d="M 110.709473 66.642578 L 110.709473 67.464355 L 109.586914 67.464355 Q 109.055176 67.464355 108.848389 67.681885 Q 108.641602 67.899414 108.641602 68.452637 L 108.641602 68.984375 L 110.709473 68.984375 L 110.709473 69.752441 L 108.641602 69.752441 L 108.641602 75.000000 L 107.653320 75.000000 L 107.653320 69.752441 L 106.047363 69.752441 L 106.047363 68.984375 L 107.653320 68.984375 L 107.653320 68.565430 Q 107.653320 67.577148 108.107178 67.109863 Q 108.561035 66.642578 109.522461 66.642578 Z " fill="rgb(0, 0, 0)" fill-opacity="1.000000" />
<path d="M 118.203613 70.225098 Q 117.886719 69.978027 117.559082 69.865234 Q 117.231445 69.752441 116.839355 69.752441 Q 115.915527 69.752441 115.426758 70.332520 Q 114.937988 70.912598 114.937988 72.008301 L 114.937988 75.000000 L 113.944336 75.000000 L 113.944336 68.984375 L 114.937988 68.984375 L 114.937988 70.160645 Q 115.185059 69.521484 115.697998 69.180420 Q 116.210938 68.839355 116.914551 68.839355 Q 117.279785 68.839355 117.596680 68.930664 Q 117.913574 69.021973 118.203613 69.215332 Z " fill="rgb(0, 0, 0)" fill-opacity="1.000000" />
<path d="M 122.308594 69.677246 Q 121.556641 69.677246 121.169922 70.262695 Q 120.783203 70.848145 120.783203 71.997559 Q 120.783203 73.141602 121.169922 73.729736 Q 121.556641 74.317871 122.308594 74.317871 Q 123.065918 74.317871 123.452637 73.729736 Q 123.839355 73.141602 123.839355 71.997559 Q 123.839355 70.848145 123.452637 70.262695 Q 123.065918 69.677246 122.308594 69.677246 Z M 122.308594 68.839355 Q 123.560059 68.839355 124.223389 69.650391 Q 124.886719 70.461426 124.886719 71.997559 Q 124.886719 73.539062 124.226074 74.347412 Q 123.565430 75.155762 122.308594 75.155762 Q 121.057129 75.155762 120.396484 74.347412 Q 119.735840 73.539062 119.735840 71.997559 Q 119.735840 70.461426 120.396484 69.650391 Q 121.057129 68.839355 122.308594 68.839355 Z " fill="rgb(0, 0, 0)" fill-opacity="1.000000" />
<path d="M 129.630859 69.596680 Q 129.813477 69.209961 130.095459 69.024658 Q 130.377441 68.839355 130.774902 68.839355 Q 131.500000 68.839355 131.798096 69.400635 Q 132.096191 69.961914 132.096191 71.514160 L 132.096191 75.000000 L 131.193848 75.000000 L 131.193848 71.557129 Q 131.193848 70.284180 131.051514 69.975342 Q 130.909180 69.666504 130.533203 69.666504 Q 130.103516 69.666504 129.945068 69.996826 Q 129.786621 70.327148 129.786621 71.557129 L 129.786621 75.000000 L 128.884277 75.000000 L 128.884277 71.557129 Q 128.884277 70.268066 128.731201 69.967285 Q 128.578125 69.666504 128.180664 69.666504 Q 127.788574 69.666504 127.635498 69.996826 Q 127.482422 70.327148 127.482422 71.557129 L 127.482422 75.000000 L 126.585449 75.000000 L 126.585449 68.984375 L 127.482422 68.984375 L 127.482422 69.500000 Q 127.659668 69.177734 127.925537 69.008545 Q 128.191406 68.839355 128.529785 68.839355 Q 128.937988 68.839355 129.209229 69.027344 Q 129.480469 69.215332 129.630859 69.596680 Z " fill="rgb(0, 0, 0)" fill-opacity="1.000000" />
<path d="M 137.592285 66.116211 Q 136.877930 67.340820 136.526123 68.557373 Q 136.174316 69.773926 136.174316 71.009277 Q 136.174316 72.239258 136.526123 73.458496 Q 136.877930 74.677734 137.592285 75.913086 L 136.732910 75.913086 Q 135.921875 74.634766 135.524414 73.423584 Q 135.126953 72.212402 135.126953 71.009277 Q 135.126953 69.811523 135.524414 68.597656 Q 135.921875 67.383789 136.732910 66.116211 Z " fill="rgb(0, 0, 0)" fill-opacity="1.000000" />
<path d="M 141.869141 66.116211 L 142.728516 66.116211 Q 143.539551 67.383789 143.937012 68.597656 Q 144.334473 69.811523 144.334473 71.009277 Q 144.334473 72.217773 143.937012 73.431641 Q 143.539551 74.645508 142.728516 75.913086 L 141.869141 75.913086 Q 142.583496 74.666992 142.935303 73.447754 Q 143.287109 72.228516 143.287109 71.009277 Q 143.287109 69.784668 142.935303 68.565430 Q 142.583496 67.346191 141.869141 66.116211 Z " fill="rgb(0, 0, 0)" fill-opacity="1.000000" />
<path d="M 191.878906 78.319336 L 191.878906 64.300781 L 192.738281 64.300781 L 192.738281 78.319336 Z " fill="rgb(0, 0, 0)" fill-opacity="1.000000" />
<path d="M 66.297852 41.276367 L 66.297852 42.984375 L 68.542969 42.984375 L 68.542969 43.752441 L 66.297852 43.752441 L 66.297852 47.018066 Q 66.297852 47.684082 66.550293 47.947266 Q 66.802734 48.210449 67.431152 48.210449 L 68.542969 48.210449 L 68.542969 49.000000 L 67.334473 49.000000 Q 66.222656 49.000000 65.766113 48.554199 Q 65.309570 48.108398 65.309570 47.018066 L 65.309570 43.752441 L 63.703613 43.752441 L 63.703613 42.984375 L 65.309570 42.984375 L 65.309570 41.276367 Z " fill="rgb(0, 0, 0)" fill-opacity="1.000000" />
<path d="M 66.770508 58.976074 L 66.442871 58.976074 Q 65.578125 58.976074 65.140381 59.279541 Q 64.702637 59.583008 64.702637 60.184570 Q 64.702637 60.727051 65.030273 61.027832 Q 65.357910 61.328613 65.937988 61.328613 Q 66.754395 61.328613 67.221680 60.761963 Q 67.688965 60.195312 67.694336 59.196289 L 67.694336 58.976074 Z M 68.687988 58.567871 L 68.687988 62.000000 L 67.694336 62.000000 L 67.694336 61.108398 Q 67.377441 61.645508 66.896729 61.900635 Q 66.416016 62.155762 65.728516 62.155762 Q 64.810059 62.155762 64.262207 61.637451 Q 63.714355 61.119141 63.714355 60.249023 Q 63.714355 59.244629 64.388428 58.723633 Q 65.062500 58.202637 66.367676 58.202637 L 67.694336 58.202637 L 67.694336 58.046875 Q 67.688965 57.327148 67.329102 57.002197 Q 66.969238 56.677246 66.179688 56.677246 Q 65.674805 56.677246 65.159180 56.822266 Q 64.643555 56.967285 64.154785 57.246582 L 64.154785 56.258301 Q 64.702637 56.048828 65.204834 55.944092 Q 65.707031 55.839355 66.179688 55.839355 Q 66.926270 55.839355 67.455322 56.059570 Q 67.984375 56.279785 68.312012 56.720215 Q 68.516113 56.988770 68.602051 57.383545 Q 68.687988 57.778320 68.687988 58.567871 Z " fill="rgb(0, 0, 0)" fill-opacity="1.000000" />
<path d="M 72.014160 61.242676 L 72.014160 64.288086 L 71.020508 64.288086 L 71.020508 55.984375 L 72.014160 55.984375 L 72.014160 56.752441 Q 72.261230 56.306641 72.672119 56.072998 Q 73.083008 55.839355 73.620117 55.839355 Q 74.710449 55.839355 75.330811 56.682617 Q 75.951172 57.525879 75.951172 59.019043 Q 75.951172 60.485352 75.328125 61.320557 Q 74.705078 62.155762 73.620117 62.155762 Q 73.072266 62.155762 72.661377 61.922119 Q 72.250488 61.688477 72.014160 61.242676 Z M 74.914551 58.997559 Q 74.914551 57.848145 74.552002 57.262695 Q 74.189453 56.677246 73.475098 56.677246 Q 72.755371 56.677246 72.384766 57.265381 Q 72.014160 57.853516 72.014160 58.997559 Q 72.014160 60.136230 72.384766 60.727051 Q 72.755371 61.317871 73.475098 61.317871 Q 74.189453 61.317871 74.552002 60.732422 Q 74.914551 60.146973 74.914551 58.997559 Z " fill="rgb(0, 0, 0)" fill-opacity="1.000000" />
<path d="M 79.014160 61.242676 L 79.014160 64.288086 L 78.020508 64.288086 L 78.020508 55.984375 L 79.014160 55.984375 L 79.014160 56.752441 Q 79.261230 56.306641 79.672119 56.072998 Q 80.083008 55.839355 80.620117 55.839355 Q 81.710449 55.839355 82.330811 56.682617 Q 82.951172 57.525879 82.951172 59.019043 Q 82.951172 60.485352 82.328125 61.320557 Q 81.705078 62.155762 80.620117 62.155762 Q 80.072266 62.155762 79.661377 61.922119 Q 79.250488 61.688477 79.014160 61.242676 Z M 81.914551 58.997559 Q 81.914551 57.848145 81.552002 57.262695 Q 81.189453 56.677246 80.475098 56.677246 Q 79.755371 56.677246 79.384766 57.265381 Q 79.014160 57.853516 79.014160 58.997559 Q 79.014160 60.136230 79.384766 60.727051 Q 79.755371 61.317871 80.475098 61.317871 Q 81.189453 61.317871 81.552002 60.732422 Q 81.914551 60.146973 81.914551 58.997559 Z " fill="rgb(0, 0, 0)" fill-opacity="1.000000" />
<path d="M 90.203613 57.225098 Q 89.886719 56.978027 89.559082 56.865234 Q 89.231445 56.752441 88.839355 56.752441 Q 87.915527 56.752441 87.426758 57.332520 Q 86.937988 57.912598 86.937988 59.008301 L 86.937988 62.000000 L 85.944336 62.000000 L 85.944336 55.984375 L 86.937988 55.984375 L 86.937988 57.160645 Q 87.185059 56.521484 87.697998 56.180420 Q 88.210938 55.839355 88.914551 55.839355 Q 89.279785 55.839355 89.596680 55.930664 Q 89.913574 56.021973 90.203613 56.215332 Z " fill="rgb(0, 0, 0)" fill-opacity="1.000000" />
<path d="M 94.308594 56.677246 Q 93.556641 56.677246 93.169922 57.262695 Q 92.783203 57.848145 92.783203 58.997559 Q 92.783203 60.141602 93.169922 60.729736 Q 93.556641 61.317871 94.308594 61.317871 Q 95.065918 61.317871 95.452637 60.729736 Q 95.839355 60.141602 95.839355 58.997559 Q 95.839355 57.848145 95.452637 57.262695 Q 95.065918 56.677246 94.308594 56.677246 Z M 94.308594 55.839355 Q 95.560059 55.839355 96.223389 56.650391 Q 96.886719 57.461426 96.886719 58.997559 Q 96.886719 60.539062 96.226074 61.347412 Q 95.565430 62.155762 94.308594 62.155762 Q 93.057129 62.155762 92.396484 61.347412 Q 91.735840 60.539062 91.735840 58.997559 Q 91.735840 57.461426 92.396484 56.650391 Q 93.057129 55.839355 94.308594 55.839355 Z " fill="rgb(0, 0, 0)" fill-opacity="1.000000" />
<path d="M 98.537109 55.984375 L 99.562988 55.984375 L 101.308594 61.033203 L 103.059570 55.984375 L 104.085449 55.984375 L 101.947754 62.000000 L 100.674805 62.000000 Z " fill="rgb(0, 0, 0)" fill-opacity="1.000000" />
<path d="M 111.015625 58.498047 L 111.015625 58.981445 L 106.734863 58.981445 L 106.734863 59.013672 Q 106.691895 60.243652 107.204834 60.780762 Q 107.717773 61.317871 108.652344 61.317871 Q 109.125000 61.317871 109.640625 61.167480 Q 110.156250 61.017090 110.741699 60.710938 L 110.741699 61.693848 Q 110.177734 61.924805 109.654053 62.040283 Q 109.130371 62.155762 108.641602 62.155762 Q 107.239746 62.155762 106.450195 61.315186 Q 105.660645 60.474609 105.660645 58.997559 Q 105.660645 57.558105 106.434082 56.698730 Q 107.207520 55.839355 108.496582 55.839355 Q 109.645996 55.839355 110.309326 56.618164 Q 110.972656 57.396973 111.015625 58.498047 Z M 110.027344 58.208008 Q 109.962891 57.584961 109.573486 57.131104 Q 109.184082 56.677246 108.453613 56.677246 Q 107.739258 56.677246 107.277344 57.149902 Q 106.815430 57.622559 106.772461 58.213379 Z " fill="rgb(0, 0, 0)" fill-opacity="1.000000" />
<path d="M 116.592285 53.116211 Q 115.877930 54.340820 115.526123 55.557373 Q 115.174316 56.773926 115.174316 58.009277 Q 115.174316 59.239258 115.526123 60.458496 Q 115.877930 61.677734 116.592285 62.913086 L 115.732910 62.913086 Q 114.921875 61.634766 114.524414 60.423584 Q 114.126953 59.212402 114.126953 58.009277 Q 114.126953 56.811523 114.524414 55.597656 Q 114.921875 54.383789 115.732910 53.116211 Z " fill="rgb(0, 0, 0)" fill-opacity="1.000000" />
<path d="M 120.869141 53.116211 L 121.728516 53.116211 Q 122.539551 54.383789 122.937012 55.597656 Q 123.334473 56.811523 123.334473 58.009277 Q 123.334473 59.217773 122.937012 60.431641 Q 122.539551 61.645508 121.728516 62.913086 L 120.869141 62.913086 Q 121.583496 61.666992 121.935303 60.447754 Q 122.287109 59.228516 122.287109 58.009277 Q 122.287109 56.784668 121.935303 55.565430 Q 121.583496 54.346191 120.869141 53.116211 Z " fill="rgb(0, 0, 0)" fill-opacity="1.000000" />
<path d="M 191.878906 65.319336 L 191.878906 51.300781 L 192.738281 51.300781 L 192.738281 65.319336 Z " fill="rgb(0, 0, 0)" fill-opacity="1.000000" />
<path d="M 76.203613 44.225098 Q 75.886719 43.978027 75.559082 43.865234 Q 75.231445 43.752441 74.839355 43.752441 Q 73.915527 43.752441 73.426758 44.332520 Q 72.937988 44.912598 72.937988 46.008301 L 72.937988 49.000000 L 71.944336 49.000000 L 71.944336 42.984375 L 72.937988 42.984375 L 72.937988 44.160645 Q 73.185059 43.521484 73.697998 43.180420 Q 74.210938 42.839355 74.914551 42.839355 Q 75.279785 42.839355 75.596680 42.930664 Q 75.913574 43.021973 76.203613 43.215332 Z " fill="rgb(0, 0, 0)" fill-opacity="1.000000" />
<path d="M 80.770508 45.976074 L 80.442871 45.976074 Q 79.578125 45.976074 79.140381 46.279541 Q 78.702637 46.583008 78.702637 47.184570 Q 78.702637 47.727051 79.030273 48.027832 Q 79.357910 48.328613 79.937988 48.328613 Q 80.754395 48.328613 81.221680 47.761963 Q 81.688965 47.195312 81.694336 46.196289 L 81.694336 45.976074 Z M 82.687988 45.567871 L 82.687988 49.000000 L 81.694336 49.000000 L 81.694336 48.108398 Q 81.377441 48.645508 80.896729 48.900635 Q 80.416016 49.155762 79.728516 49.155762 Q 78.810059 49.155762 78.262207 48.637451 Q 77.714355 48.119141 77.714355 47.249023 Q 77.714355 46.244629 78.388428 45.723633 Q 79.062500 45.202637 80.367676 45.202637 L 81.694336 45.202637 L 81.694336 45.046875 Q 81.688965 44.327148 81.329102 44.002197 Q 80.969238 43.677246 80.179688 43.677246 Q 79.674805 43.677246 79.159180 43.822266 Q 78.643555 43.967285 78.154785 44.246582 L 78.154785 43.258301 Q 78.702637 43.048828 79.204834 42.944092 Q 79.707031 42.839355 80.179688 42.839355 Q 80.926270 42.839355 81.455322 43.059570 Q 81.984375 43.279785 82.312012 43.720215 Q 82.516113 43.988770 82.602051 44.383545 Q 82.687988 44.778320 82.687988 45.567871 Z " fill="rgb(0, 0, 0)" fill-opacity="1.000000" />
<path d="M 89.645020 45.272461 L 89.645020 49.000000 L 88.651367 49.000000 L 88.651367 45.272461 Q 88.651367 44.461426 88.366699 44.080078 Q 88.082031 43.698730 87.475098 43.698730 Q 86.782227 43.698730 86.408936 44.190186 Q 86.035645 44.681641 86.035645 45.600098 L 86.035645 49.000000 L 85.047363 49.000000 L 85.047363 42.984375 L 86.035645 42.984375 L 86.035645 43.886719 Q 86.298828 43.371094 86.750000 43.105225 Q 87.201172 42.839355 87.818848 42.839355 Q 88.737305 42.839355 89.191162 43.443604 Q 89.645020 44.047852 89.645020 45.272461 Z " fill="rgb(0, 0, 0)" fill-opacity="1.000000" />
<path d="M 96.226074 43.193848 L 96.226074 44.160645 Q 95.801758 43.913574 95.372070 43.790039 Q 94.942383 43.666504 94.496582 43.666504 Q 93.825195 43.666504 93.494873 43.884033 Q 93.164551 44.101562 93.164551 44.547363 Q 93.164551 44.950195 93.411621 45.148926 Q 93.658691 45.347656 94.641602 45.535645 L 95.039062 45.610840 Q 95.774902 45.750488 96.153564 46.169434 Q 96.532227 46.588379 96.532227 47.259766 Q 96.532227 48.151367 95.898438 48.653564 Q 95.264648 49.155762 94.136719 49.155762 Q 93.690918 49.155762 93.202148 49.061768 Q 92.713379 48.967773 92.144043 48.779785 L 92.144043 47.759277 Q 92.697266 48.043945 93.202148 48.186279 Q 93.707031 48.328613 94.158203 48.328613 Q 94.813477 48.328613 95.173340 48.062744 Q 95.533203 47.796875 95.533203 47.318848 Q 95.533203 46.631348 94.217285 46.368164 L 94.174316 46.357422 L 93.803711 46.282227 Q 92.949707 46.115723 92.557617 45.720947 Q 92.165527 45.326172 92.165527 44.644043 Q 92.165527 43.779297 92.750977 43.309326 Q 93.336426 42.839355 94.421387 42.839355 Q 94.904785 42.839355 95.350586 42.927979 Q 95.796387 43.016602 96.226074 43.193848 Z " fill="rgb(0, 0, 0)" fill-opacity="1.000000" />
<path d="M 103.709473 40.642578 L 103.709473 41.464355 L 102.586914 41.464355 Q 102.055176 41.464355 101.848389 41.681885 Q 101.641602 41.899414 101.641602 42.452637 L 101.641602 42.984375 L 103.709473 42.984375 L 103.709473 43.752441 L 101.641602 43.752441 L 101.641602 49.000000 L 100.653320 49.000000 L 100.653320 43.752441 L 99.047363 43.752441 L 99.047363 42.984375 L 100.653320 42.984375 L 100.653320 42.565430 Q 100.653320 41.577148 101.107178 41.109863 Q 101.561035 40.642578 102.522461 40.642578 Z " fill="rgb(0, 0, 0)" fill-opacity="1.000000" />
<path d="M 111.015625 45.498047 L 111.015625 45.981445 L 106.734863 45.981445 L 106.734863 46.013672 Q 106.691895 47.243652 107.204834 47.780762 Q 107.717773 48.317871 108.652344 48.317871 Q 109.125000 48.317871 109.640625 48.167480 Q 110.156250 48.017090 110.741699 47.710938 L 110.741699 48.693848 Q 110.177734 48.924805 109.654053 49.040283 Q 109.130371 49.155762 108.641602 49.155762 Q 107.239746 49.155762 106.450195 48.315186 Q 105.660645 47.474609 105.660645 45.997559 Q 105.660645 44.558105 106.434082 43.698730 Q 107.207520 42.839355 108.496582 42.839355 Q 109.645996 42.839355 110.309326 43.618164 Q 110.972656 44.396973 111.015625 45.498047 Z M 110.027344 45.208008 Q 109.962891 44.584961 109.573486 44.131104 Q 109.184082 43.677246 108.453613 43.677246 Q 107.739258 43.677246 107.277344 44.149902 Q 106.815430 44.622559 106.772461 45.213379 Z " fill="rgb(0, 0, 0)" fill-opacity="1.000000" />
<path d="M 118.203613 44.225098 Q 117.886719 43.978027 117.559082 43.865234 Q 117.231445 43.752441 116.839355 43.752441 Q 115.915527 43.752441 115.426758 44.332520 Q 114.937988 44.912598 114.937988 46.008301 L 114.937988 49.000000 L 113.944336 49.000000 L 113.944336 42.984375 L 114.937988 42.984375 L 114.937988 44.160645 Q 115.185059 43.521484 115.697998 43.180420 Q 116.210938 42.839355 116.914551 42.839355 Q 117.279785 42.839355 117.596680 42.930664 Q 117.913574 43.021973 118.203613 43.215332 Z " fill="rgb(0, 0, 0)" fill-opacity="1.000000" />
<path d="M 123.592285 40.116211 Q 122.877930 41.340820 122.526123 42.557373 Q 122.174316 43.773926 122.174316 45.009277 Q 122.174316 46.239258 122.526123 47.458496 Q 122.877930 48.677734 123.592285 49.913086 L 122.732910 49.913086 Q 121.921875 48.634766 121.524414 47.423584 Q 121.126953 46.212402 121.126953 45.009277 Q 121.126953 43.811523 121.524414 42.597656 Q 121.921875 41.383789 122.732910 40.116211 Z " fill="rgb(0, 0, 0)" fill-opacity="1.000000" />
<path d="M 127.869141 40.116211 L 128.728516 40.116211 Q 129.539551 41.383789 129.937012 42.597656 Q 130.334473 43.811523 130.334473 45.009277 Q 130.334473 46.217773 129.937012 47.431641 Q 129.539551 48.645508 128.728516 49.913086 L 127.869141 49.913086 Q 128.583496 48.666992 128.935303 47.447754 Q 129.287109 46.228516 129.287109 45.009277 Q 129.287109 43.784668 128.935303 42.565430 Q 128.583496 41.346191 127.869141 40.116211 Z " fill="rgb(0, 0, 0)" fill-opacity="1.000000" />
<path d="M 191.878906 52.319336 L 191.878906 38.300781 L 192.738281 38.300781 L 192.738281 52.319336 Z " fill="rgb(0, 0, 0)" fill-opacity="1.000000" />
<path d="M 191.878906 26.319336 L 191.878906 12.300781 L 192.738281 12.300781 L 192.738281 26.319336 Z " fill="rgb(0, 0, 0)" fill-opacity="1.000000" />
<path d="M 191.878906 39.319336 L 191.878906 25.300781 L 192.738281 25.300781 L 192.738281 39.319336 Z " fill="rgb(0, 0, 0)" fill-opacity="1.000000" />
<path d="M 6.892578 7.335938 L 6.892578 6.412109 L 13.729980 6.412109 L 13.729980 7.335938 Z " fill="rgb(0, 0, 0)" fill-opacity="1.000000" />
<path d="M 13.892578 7.335938 L 13.892578 6.412109 L 20.729980 6.412109 L 20.729980 7.335938 Z " fill="rgb(0, 0, 0)" fill-opacity="1.000000" />
<path d="M 20.892578 7.335938 L 20.892578 6.412109 L 27.729980 6.412109 L 27.729980 7.335938 Z " fill="rgb(0, 0, 0)" fill-opacity="1.000000" />
<path d="M 27.892578 7.335938 L 27.892578 6.412109 L 34.729980 6.412109 L 34.729980 7.335938 Z " fill="rgb(0, 0, 0)" fill-opacity="1.000000" />
<path d="M 34.892578 7.335938 L 34.892578 6.412109 L 41.729980 6.412109 L 41.729980 7.335938 Z " fill="rgb(0, 0, 0)" fill-opacity="1.000000" />
<path d="M 41.892578 7.335938 L 41.892578 6.412109 L 48.729980 6.412109 L 48.729980 7.335938 Z " fill="rgb(0, 0, 0)" fill-opacity="1.000000" />
<path d="M 48.892578 7.335938 L 48.892578 6.412109 L 55.729980 6.412109 L 55.729980 7.335938 Z " fill="rgb(0, 0, 0)" fill-opacity="1.000000" />
<path d="M 55.892578 7.335938 L 55.892578 6.412109 L 62.729980 6.412109 L 62.729980 7.335938 Z " fill="rgb(0, 0, 0)" fill-opacity="1.000000" />
<path d="M 64.058105 1.980957 L 68.816895 1.980957 L 68.816895 2.894043 L 65.143066 2.894043 L 65.143066 5.053223 L 68.655762 5.053223 L 68.655762 5.966309 L 65.143066 5.966309 L 65.143066 9.086914 L 68.918945 9.086914 L 68.918945 10.000000 L 64.058105 10.000000 Z " fill="rgb(0, 0, 0)" fill-opacity="1.000000" />
<path d="M 74.082031 6.213379 Q 74.500977 6.320801 74.796387 6.618896 Q 75.091797 6.916992 75.532227 7.808594 L 76.622559 10.000000 L 75.457031 10.000000 L 74.500977 7.975098 Q 74.087402 7.110352 73.757080 6.860596 Q 73.426758 6.610840 72.895020 6.610840 L 71.858398 6.610840 L 71.858398 10.000000 L 70.768066 10.000000 L 70.768066 1.980957 L 73.002441 1.980957 Q 74.323730 1.980957 75.027344 2.577148 Q 75.730957 3.173340 75.730957 4.301270 Q 75.730957 5.096191 75.298584 5.598389 Q 74.866211 6.100586 74.082031 6.213379 Z M 71.858398 2.872559 L 71.858398 5.719238 L 73.045410 5.719238 Q 73.824219 5.719238 74.205566 5.370117 Q 74.586914 5.020996 74.586914 4.301270 Q 74.586914 3.608398 74.181396 3.240479 Q 73.775879 2.872559 73.002441 2.872559 Z " fill="rgb(0, 0, 0)" fill-opacity="1.000000" />
<path d="M 82.763184 9.715332 Q 82.349609 9.935547 81.914551 10.045654 Q 81.479492 10.155762 80.990723 10.155762 Q 79.449219 10.155762 78.597900 9.065430 Q 77.746582 7.975098 77.746582 5.998535 Q 77.746582 4.032715 78.603271 2.934326 Q 79.459961 1.835938 80.990723 1.835938 Q 81.479492 1.835938 81.914551 1.946045 Q 82.349609 2.056152 82.763184 2.276367 L 82.763184 3.388184 Q 82.365723 3.060547 81.909180 2.888672 Q 81.452637 2.716797 80.990723 2.716797 Q 79.932617 2.716797 79.406250 3.533203 Q 78.879883 4.349609 78.879883 5.998535 Q 78.879883 7.642090 79.406250 8.458496 Q 79.932617 9.274902 80.990723 9.274902 Q 81.463379 9.274902 81.917236 9.103027 Q 82.371094 8.931152 82.763184 8.603516 Z " fill="rgb(0, 0, 0)" fill-opacity="1.000000" />
<path d="M 86.003418 9.086914 L 89.687988 9.086914 L 89.687988 10.000000 L 84.816406 10.000000 L 84.816406 9.086914 Q 85.820801 8.028809 86.572754 7.217773 Q 87.324707 6.406738 87.609375 6.073730 Q 88.146484 5.418457 88.334473 5.012939 Q 88.522461 4.607422 88.522461 4.183105 Q 88.522461 3.511719 88.127686 3.130371 Q 87.732910 2.749023 87.045410 2.749023 Q 86.556641 2.749023 86.019531 2.926270 Q 85.482422 3.103516 84.880859 3.463379 L 84.880859 2.367676 Q 85.434082 2.104492 85.968506 1.970215 Q 86.502930 1.835938 87.023926 1.835938 Q 88.200195 1.835938 88.917236 2.461670 Q 89.634277 3.087402 89.634277 4.102539 Q 89.634277 4.618164 89.395264 5.133789 Q 89.156250 5.649414 88.619141 6.272461 Q 88.318359 6.621582 87.746338 7.239258 Q 87.174316 7.856934 86.003418 9.086914 Z " fill="rgb(0, 0, 0)" fill-opacity="1.000000" />
<path d="M 94.308594 1.862793 Q 95.592285 1.862793 96.250244 2.910156 Q 96.908203 3.957520 96.908203 6.009277 Q 96.908203 8.061035 96.250244 9.108398 Q 95.592285 10.155762 94.308594 10.155762 Q 93.024902 10.155762 92.369629 9.108398 Q 91.714355 8.061035 91.714355 6.009277 Q 91.714355 3.957520 92.369629 2.910156 Q 93.024902 1.862793 94.308594 1.862793 Z M 94.308594 9.296387 Q 95.071289 9.296387 95.444580 8.485352 Q 95.817871 7.674316 95.817871 6.009277 Q 95.817871 5.123047 95.710449 4.408691 L 93.153809 8.410156 Q 93.556641 9.296387 94.308594 9.296387 Z M 94.308594 2.722168 Q 93.551270 2.722168 93.177979 3.533203 Q 92.804688 4.344238 92.804688 6.009277 Q 92.804688 6.766602 92.906738 7.427246 L 95.409668 3.436523 Q 95.001465 2.722168 94.308594 2.722168 Z " fill="rgb(0, 0, 0)" fill-opacity="1.000000" />
<path d="M 100.089355 7.830078 L 101.979980 7.830078 L 101.979980 10.000000 L 100.089355 10.000000 Z " fill="rgb(0, 0, 0)" fill-opacity="1.000000" />
<path d="M 105.000000 3.984375 L 105.977539 3.984375 L 107.024902 8.845215 L 107.884277 5.740723 L 108.727539 5.740723 L 109.597656 8.845215 L 110.645020 3.984375 L 111.622559 3.984375 L 110.215332 10.000000 L 109.270020 10.000000 L 108.308594 6.702148 L 107.352539 10.000000 L 106.407227 10.000000 Z " fill="rgb(0, 0, 0)" fill-opacity="1.000000" />
<path d="M 115.770508 6.976074 L 115.442871 6.976074 Q 114.578125 6.976074 114.140381 7.279541 Q 113.702637 7.583008 113.702637 8.184570 Q 113.702637 8.727051 114.030273 9.027832 Q 114.357910 9.328613 114.937988 9.328613 Q 115.754395 9.328613 116.221680 8.761963 Q 116.688965 8.195312 116.694336 7.196289 L 116.694336 6.976074 Z M 117.687988 6.567871 L 117.687988 10.000000 L 116.694336 10.000000 L 116.694336 9.108398 Q 116.377441 9.645508 115.896729 9.900635 Q 115.416016 10.155762 114.728516 10.155762 Q 113.810059 10.155762 113.262207 9.637451 Q 112.714355 9.119141 112.714355 8.249023 Q 112.714355 7.244629 113.388428 6.723633 Q 114.062500 6.202637 115.367676 6.202637 L 116.694336 6.202637 L 116.694336 6.046875 Q 116.688965 5.327148 116.329102 5.002197 Q 115.969238 4.677246 115.179688 4.677246 Q 114.674805 4.677246 114.159180 4.822266 Q 113.643555 4.967285 113.154785 5.246582 L 113.154785 4.258301 Q 113.702637 4.048828 114.204834 3.944092 Q 114.707031 3.839355 115.179688 3.839355 Q 115.926270 3.839355 116.455322 4.059570 Q 116.984375 4.279785 117.312012 4.720215 Q 117.516113 4.988770 117.602051 5.383545 Q 117.687988 5.778320 117.687988 6.567871 Z " fill="rgb(0, 0, 0)" fill-opacity="1.000000" />
<path d="M 124.226074 4.193848 L 124.226074 5.160645 Q 123.801758 4.913574 123.372070 4.790039 Q 122.942383 4.666504 122.496582 4.666504 Q 121.825195 4.666504 121.494873 4.884033 Q 121.164551 5.101562 121.164551 5.547363 Q 121.164551 5.950195 121.411621 6.148926 Q 121.658691 6.347656 122.641602 6.535645 L 123.039062 6.610840 Q 123.774902 6.750488 124.153564 7.169434 Q 124.532227 7.588379 124.532227 8.259766 Q 124.532227 9.151367 123.898438 9.653564 Q 123.264648 10.155762 122.136719 10.155762 Q 121.690918 10.155762 121.202148 10.061768 Q 120.713379 9.967773 120.144043 9.779785 L 120.144043 8.759277 Q 120.697266 9.043945 121.202148 9.186279 Q 121.707031 9.328613 122.158203 9.328613 Q 122.813477 9.328613 123.173340 9.062744 Q 123.533203 8.796875 123.533203 8.318848 Q 123.533203 7.631348 122.217285 7.368164 L 122.174316 7.357422 L 121.803711 7.282227 Q 120.949707 7.115723 120.557617 6.720947 Q 120.165527 6.326172 120.165527 5.644043 Q 120.165527 4.779297 120.750977 4.309326 Q 121.336426 3.839355 122.421387 3.839355 Q 122.904785 3.839355 123.350586 3.927979 Q 123.796387 4.016602 124.226074 4.193848 Z " fill="rgb(0, 0, 0)" fill-opacity="1.000000" />
<path d="M 129.630859 4.596680 Q 129.813477 4.209961 130.095459 4.024658 Q 130.377441 3.839355 130.774902 3.839355 Q 131.500000 3.839355 131.798096 4.400635 Q 132.096191 4.961914 132.096191 6.514160 L 132.096191 10.000000 L 131.193848 10.000000 L 131.193848 6.557129 Q 131.193848 5.284180 131.051514 4.975342 Q 130.909180 4.666504 130.533203 4.666504 Q 130.103516 4.666504 129.945068 4.996826 Q 129.786621 5.327148 129.786621 6.557129 L 129.786621 10.000000 L 128.884277 10.000000 L 128.884277 6.557129 Q 128.884277 5.268066 128.731201 4.967285 Q 128.578125 4.666504 128.180664 4.666504 Q 127.788574 4.666504 127.635498 4.996826 Q 127.482422 5.327148 127.482422 6.557129 L 127.482422 10.000000 L 126.585449 10.000000 L 126.585449 3.984375 L 127.482422 3.984375 L 127.482422 4.500000 Q 127.659668 4.177734 127.925537 4.008545 Q 128.191406 3.839355 128.529785 3.839355 Q 128.937988 3.839355 129.209229 4.027344 Q 129.480469 4.215332 129.630859 4.596680 Z " fill="rgb(0, 0, 0)" fill-opacity="1.000000" />
<path d="M 132.892578 7.335938 L 132.892578 6.412109 L 139.729980 6.412109 L 139.729980 7.335938 Z " fill="rgb(0, 0, 0)" fill-opacity="1.000000" />
<path d="M 139.892578 7.335938 L 139.892578 6.412109 L 146.729980 6.412109 L 146.729980 7.335938 Z " fill="rgb(0, 0, 0)" fill-opacity="1.000000" />
<path d="M 146.892578 7.335938 L 146.892578 6.412109 L 153.729980 6.412109 L 153.729980 7.335938 Z " fill="rgb(0, 0, 0)" fill-opacity="1.000000" />
<path d="M 153.892578 7.335938 L 153.892578 6.412109 L 160.729980 6.412109 L 160.729980 7.335938 Z " fill="rgb(0, 0, 0)" fill-opacity="1.000000" />
<path d="M 160.892578 7.335938 L 160.892578 6.412109 L 167.729980 6.412109 L 167.729980 7.335938 Z " fill="rgb(0, 0, 0)" fill-opacity="1.000000" />
<path d="M 167.892578 7.335938 L 167.892578 6.412109 L 174.729980 6.412109 L 174.729980 7.335938 Z " fill="rgb(0, 0, 0)" fill-opacity="1.000000" />
<path d="M 174.892578 7.335938 L 174.892578 6.412109 L 181.729980 6.412109 L 181.729980 7.335938 Z " fill="rgb(0, 0, 0)" fill-opacity="1.000000" />
<path d="M 181.892578 7.335938 L 181.892578 6.412109 L 188.729980 6.412109 L 188.729980 7.335938 Z " fill="rgb(0, 0, 0)" fill-opacity="1.000000" />
<path d="M 191.878906 13.319336 L 191.878906 7.335938 L 188.892578 7.335938 L 188.892578 6.412109 L 192.738281 6.412109 L 192.738281 13.319336 Z " fill="rgb(0, 0, 0)" fill-opacity="1.000000" />
</svg>