<svg width="245" height="102" viewBox="0 0 245 102" fill="none" xmlns="http://www.w3.org/2000/svg">
<path d="M14.8929 0.380596C18.2109 0.380596 20.7311 1.10373 22.4534 2.55C24.1757 3.99627 25.0368 6.12761 25.0368 8.94403C25.0368 11.6082 24.163 13.6507 22.4154 15.0716C20.6931 16.4672 18.1856 17.1649 14.8929 17.1649H10.1819V25.5H2.4315V0.380596H14.8929ZM13.6392 11.6843C14.8803 11.6843 15.7921 11.456 16.3746 10.9993C16.9572 10.5425 17.2485 9.83209 17.2485 8.86791C17.2485 7.90373 16.9572 7.19328 16.3746 6.73657C15.7921 6.27985 14.8803 6.05149 13.6392 6.05149H10.1819V11.6843H13.6392Z" fill="white"/>
<path d="M40.2138 0C44.1397 0 47.2044 1.14179 49.4079 3.42537C51.6115 5.68358 52.7133 8.85522 52.7133 12.9403C52.7133 17.0254 51.6115 20.2097 49.4079 22.4933C47.2044 24.7515 44.1397 25.8806 40.2138 25.8806C37.6304 25.8806 35.3888 25.3731 33.4892 24.3582C31.6149 23.3433 30.1712 21.859 29.1581 19.9052C28.145 17.9515 27.6384 15.6299 27.6384 12.9403C27.6384 10.2507 28.145 7.9291 29.1581 5.97537C30.1712 4.02164 31.6149 2.53731 33.4892 1.52239C35.3888 0.507462 37.6304 0 40.2138 0ZM40.2138 5.93731C38.6688 5.93731 37.5164 6.5209 36.7565 7.68806C35.9967 8.82985 35.6168 10.5806 35.6168 12.9403C35.6168 15.3 35.9967 17.0634 36.7565 18.2306C37.5164 19.3724 38.6688 19.9433 40.2138 19.9433C41.7589 19.9433 42.8986 19.3724 43.6331 18.2306C44.393 17.0888 44.7729 15.3254 44.7729 12.9403C44.7729 10.5552 44.393 8.79179 43.6331 7.65C42.8986 6.50821 41.7589 5.93731 40.2138 5.93731Z" fill="white"/>
<path d="M76.1316 19.6769V25.5H56.4516V0.380596H64.202V19.6769H76.1316Z" fill="white"/>
<path d="M89.6764 15.4522L87.1309 18.7254V25.5H79.3805V0.380596H87.1309V10.6187L94.8053 0.380596H103.202L95.1853 10.4664L103.809 25.5H95.0333L89.6764 15.4522Z" fill="white"/>
<path d="M120.604 20.2858H112.968L111.524 25.5H103.774L112.208 0.380596H121.516L129.988 25.5H122.01L120.604 20.2858ZM119.274 15.2619L117.907 10.2761L116.843 6.16567H116.767L115.741 10.2381L114.335 15.2619H119.274Z" fill="white"/>
<path d="M143.688 0.380596C147.588 0.380596 150.564 1.47164 152.616 3.65373C154.693 5.81045 155.731 8.90597 155.731 12.9403C155.731 16.9746 154.693 20.0828 152.616 22.2649C150.564 24.4216 147.588 25.5 143.688 25.5H132.176V0.380596H143.688ZM142.738 19.8291C144.562 19.8291 145.853 19.2836 146.613 18.1925C147.373 17.0761 147.753 15.3254 147.753 12.9403C147.753 10.5552 147.373 8.81717 146.613 7.72612C145.853 6.6097 144.562 6.05149 142.738 6.05149H139.927V19.8291H142.738Z" fill="white"/>
<path d="M171.035 0C174.96 0 178.025 1.14179 180.229 3.42537C182.432 5.68358 183.534 8.85522 183.534 12.9403C183.534 17.0254 182.432 20.2097 180.229 22.4933C178.025 24.7515 174.96 25.8806 171.035 25.8806C168.451 25.8806 166.21 25.3731 164.31 24.3582C162.436 23.3433 160.992 21.859 159.979 19.9052C158.966 17.9515 158.459 15.6299 158.459 12.9403C158.459 10.2507 158.966 7.9291 159.979 5.97537C160.992 4.02164 162.436 2.53731 164.31 1.52239C166.21 0.507462 168.451 0 171.035 0ZM171.035 5.93731C169.49 5.93731 168.337 6.5209 167.577 7.68806C166.817 8.82985 166.438 10.5806 166.438 12.9403C166.438 15.3 166.817 17.0634 167.577 18.2306C168.337 19.3724 169.49 19.9433 171.035 19.9433C172.58 19.9433 173.719 19.3724 174.454 18.2306C175.214 17.0888 175.594 15.3254 175.594 12.9403C175.594 10.5552 175.214 8.79179 174.454 7.65C173.719 6.50821 172.58 5.93731 171.035 5.93731Z" fill="white"/>
<path d="M208.498 6.20373H200.519V25.5H192.769V6.20373H184.715V0.380596H208.498V6.20373Z" fill="white"/>
<path d="M2.4315 38.4403H15.7668C21.9215 38.4657 24.9989 40.7112 24.9989 45.1769C24.9989 46.6993 24.5429 47.9679 23.6311 48.9828C22.7193 49.9978 21.3769 50.6321 19.604 50.8858V50.9239C21.6049 51.1776 23.1119 51.8246 24.125 52.8649C25.1382 53.9052 25.6447 55.2373 25.6447 56.8612C25.6447 59.0687 24.8849 60.7433 23.3652 61.8851C21.8455 63.0015 19.5786 63.5597 16.5646 63.5597H2.4315V38.4403ZM14.1331 48.4119C16.0834 48.4119 17.0585 47.6634 17.0585 46.1664C17.0585 44.6694 16.0834 43.9209 14.1331 43.9209H9.87797V48.4119H14.1331ZM14.779 58.3075C16.7292 58.3075 17.7044 57.5463 17.7044 56.0239C17.7044 54.5269 16.7292 53.7784 14.779 53.7784H9.87797V58.3075H14.779Z" fill="white"/>
<path d="M48.4908 57.7366V63.5597H28.8108V38.4403H36.5612V57.7366H48.4908Z" fill="white"/>
<path d="M62.6233 38.0597C66.5491 38.0597 69.6139 39.2015 71.8174 41.4851C74.0209 43.7433 75.1227 46.9149 75.1227 51C75.1227 55.0851 74.0209 58.2694 71.8174 60.553C69.6139 62.8112 66.5491 63.9403 62.6233 63.9403C60.0398 63.9403 57.7983 63.4328 55.8987 62.4179C54.0244 61.403 52.5807 59.9187 51.5676 57.9649C50.5544 56.0112 50.0479 53.6896 50.0479 51C50.0479 48.3104 50.5544 45.9888 51.5676 44.0351C52.5807 42.0813 54.0244 40.597 55.8987 39.5821C57.7983 38.5672 60.0398 38.0597 62.6233 38.0597ZM62.6233 43.997C61.0783 43.997 59.9258 44.5806 59.166 45.7478C58.4062 46.8896 58.0262 48.6403 58.0262 51C58.0262 53.3597 58.4062 55.1231 59.166 56.2903C59.9258 57.4321 61.0783 58.003 62.6233 58.003C64.1683 58.003 65.3081 57.4321 66.0426 56.2903C66.8024 55.1485 67.1824 53.3851 67.1824 51C67.1824 48.6149 66.8024 46.8515 66.0426 45.7097C65.3081 44.5679 64.1683 43.997 62.6233 43.997Z" fill="white"/>
<path d="M101.77 56.1C101.087 58.7896 99.7568 60.7687 97.7812 62.0373C95.8309 63.306 93.3994 63.9403 90.4867 63.9403C87.9032 63.9403 85.6617 63.4328 83.7621 62.4179C81.8878 61.403 80.4441 59.9187 79.431 57.9649C78.4178 56.0112 77.9113 53.6896 77.9113 51C77.9113 48.3104 78.4178 46.0015 79.431 44.0731C80.4441 42.1194 81.8878 40.6351 83.7621 39.6202C85.6364 38.5799 87.8652 38.0597 90.4487 38.0597C93.2855 38.0597 95.7043 38.6687 97.7052 39.8866C99.7061 41.0791 100.985 42.8933 101.542 45.3291L94.8178 48.0313C94.5392 46.4836 94.0833 45.4306 93.4501 44.8724C92.8169 44.2888 91.8924 43.997 90.6767 43.997C89.1316 43.997 87.9412 44.5806 87.1054 45.7478C86.2949 46.9149 85.8896 48.6657 85.8896 51C85.8896 55.6687 87.46 58.003 90.6007 58.003C91.8671 58.003 92.8296 57.7112 93.4881 57.1276C94.1719 56.5187 94.6278 55.5545 94.8558 54.2351L101.77 56.1Z" fill="white"/>
<path d="M114.943 53.5119L112.397 56.7851V63.5597H104.647V38.4403H112.397V48.6784L120.072 38.4403H128.468L120.452 48.5261L129.076 63.5597H120.3L114.943 53.5119Z" fill="white"/>
<path d="M151.821 56.1C151.137 58.7896 149.807 60.7687 147.831 62.0373C145.881 63.306 143.45 63.9403 140.537 63.9403C137.953 63.9403 135.712 63.4328 133.812 62.4179C131.938 61.403 130.494 59.9187 129.481 57.9649C128.468 56.0112 127.962 53.6896 127.962 51C127.962 48.3104 128.468 46.0015 129.481 44.0731C130.494 42.1194 131.938 40.6351 133.812 39.6202C135.687 38.5799 137.915 38.0597 140.499 38.0597C143.336 38.0597 145.755 38.6687 147.755 39.8866C149.756 41.0791 151.035 42.8933 151.593 45.3291L144.868 48.0313C144.589 46.4836 144.134 45.4306 143.5 44.8724C142.867 44.2888 141.943 43.997 140.727 43.997C139.182 43.997 137.991 44.5806 137.156 45.7478C136.345 46.9149 135.94 48.6657 135.94 51C135.94 55.6687 137.51 58.003 140.651 58.003C141.917 58.003 142.88 57.7112 143.538 57.1276C144.222 56.5187 144.678 55.5545 144.906 54.2351L151.821 56.1Z" fill="white"/>
<path d="M178.366 38.4403V63.5597H170.578V53.8164H162.447V63.5597H154.697V38.4403H162.447V47.9933H170.578V38.4403H178.366Z" fill="white"/>
<path d="M197.405 58.3455H189.768L188.325 63.5597H180.574L189.008 38.4403H198.317L206.789 63.5597H198.81L197.405 58.3455ZM196.075 53.3216L194.707 48.3358L193.643 44.2254H193.567L192.542 48.2978L191.136 53.3216H196.075Z" fill="white"/>
<path d="M216.727 63.5597H208.977V38.4403H216.727V63.5597Z" fill="white"/>
<path d="M245 63.5597H236.49L229.651 51.1142L228.055 47.6888H227.98L228.131 52.6746V63.5597H221.369V38.4403H229.841L236.68 50.8858L238.313 54.3112H238.351L238.199 49.3254V38.4403H245V63.5597Z" fill="white"/>
<path d="M16.8305 96.4052H9.19411L7.7504 101.619H0L8.43427 76.5H17.7423L26.2146 101.619H18.2362L16.8305 96.4052ZM15.5008 91.3813L14.1331 86.3955L13.0693 82.2851H12.9933L11.9675 86.3575L10.5618 91.3813H15.5008Z" fill="white"/>
<path d="M50.3474 94.1597C49.6635 96.8493 48.3338 98.8284 46.3582 100.097C44.4079 101.366 41.9764 102 39.0637 102C36.4802 102 34.2387 101.493 32.3391 100.478C30.4648 99.4627 29.0211 97.9784 28.008 96.0246C26.9948 94.0709 26.4883 91.7493 26.4883 89.0597C26.4883 86.3701 26.9948 84.0612 28.008 82.1328C29.0211 80.1791 30.4648 78.6948 32.3391 77.6799C34.2133 76.6396 36.4422 76.1194 39.0257 76.1194C41.8624 76.1194 44.2813 76.7284 46.2822 77.9463C48.2831 79.1388 49.5622 80.953 50.1194 83.3888L43.3948 86.091C43.1162 84.5433 42.6603 83.4903 42.0271 82.9321C41.3939 82.3485 40.4694 82.0567 39.2536 82.0567C37.7086 82.0567 36.5182 82.6403 35.6824 83.8075C34.8719 84.9746 34.4666 86.7254 34.4666 89.0597C34.4666 93.7284 36.037 96.0627 39.1777 96.0627C40.4441 96.0627 41.4065 95.7709 42.0651 95.1873C42.7489 94.5784 43.2048 93.6142 43.4328 92.2948L50.3474 94.1597Z" fill="white"/>
<path d="M67.6228 96.4052H59.9864L58.5427 101.619H50.7923L59.2265 76.5H68.5346L77.0069 101.619H69.0285L67.6228 96.4052ZM66.2931 91.3813L64.9254 86.3955L63.8616 82.2851H63.7856L62.7598 86.3575L61.3541 91.3813H66.2931Z" fill="white"/>
<path d="M90.7066 76.5C94.6072 76.5 97.5832 77.591 99.6348 79.7731C101.712 81.9299 102.75 85.0254 102.75 89.0597C102.75 93.094 101.712 96.2022 99.6348 98.3843C97.5832 100.541 94.6072 101.619 90.7066 101.619H79.195V76.5H90.7066ZM89.7568 95.9485C91.5805 95.9485 92.8722 95.403 93.632 94.3119C94.3919 93.1955 94.7718 91.4448 94.7718 89.0597C94.7718 86.6746 94.3919 84.9366 93.632 83.8455C92.8722 82.7291 91.5805 82.1709 89.7568 82.1709H86.9454V95.9485H89.7568Z" fill="white"/>
<path d="M127.133 95.7963V101.619H106.428V76.5H126.64V82.3231H114.178V86.3955H124.132V91.8H114.178V95.7963H127.133Z" fill="white"/>
<path d="M161.02 101.619H154.181V91.5716L154.333 83.4649H154.257L148.748 101.619H142.518L137.085 83.4649H136.971L137.123 91.5716V101.619H130.284V76.5H141.226L144.607 88.4127L145.861 93.3985H145.937L147.191 88.4127L150.572 76.5H161.02V101.619Z" fill="white"/>
<path d="M180.232 92.7134V101.619H172.444V92.7134L163.629 76.5H171.494L174.533 82.7799L176.395 87.1567L178.218 82.7799L181.296 76.5H189.008L180.232 92.7134Z" fill="white"/>
</svg>
