<?xml version="1.0" encoding="UTF-8" standalone="no"?>
<svg
   version="1.1"
   viewBox="0 0 816 313"
   fill="none"
   stroke="none"
   stroke-linecap="square"
   stroke-miterlimit="10"
   id="svg107"
   sodipodi:docname="build-artifacts.svg"
   width="816"
   height="313"
   inkscape:version="1.2 (dc2aedaf03, 2022-05-15)"
   xmlns:inkscape="http://www.inkscape.org/namespaces/inkscape"
   xmlns:sodipodi="http://sodipodi.sourceforge.net/DTD/sodipodi-0.dtd"
   xmlns="http://www.w3.org/2000/svg"
   xmlns:svg="http://www.w3.org/2000/svg">
  <defs
     id="defs111" />
  <sodipodi:namedview
     id="namedview109"
     pagecolor="#ffffff"
     bordercolor="#666666"
     borderopacity="1.0"
     inkscape:showpageshadow="2"
     inkscape:pageopacity="0.0"
     inkscape:pagecheckerboard="0"
     inkscape:deskcolor="#d1d1d1"
     showgrid="false"
     inkscape:zoom="0.70677083"
     inkscape:cx="481.76861"
     inkscape:cy="270.24318"
     inkscape:window-width="1918"
     inkscape:window-height="1055"
     inkscape:window-x="0"
     inkscape:window-y="23"
     inkscape:window-maximized="1"
     inkscape:current-layer="g105" />
  <clipPath
     id="g12719af3af2_0_235.0">
    <path
       d="M 0,0 H 960 V 540 H 0 Z"
       clip-rule="nonzero"
       id="path2" />
  </clipPath>
  <g
     clip-path="url(#g12719af3af2_0_235.0)"
     id="g105">
    <path
       fill="#000000"
       fill-opacity="0"
       d="M 0,85.22935 H 323.1496 V 132.0955 H 0 Z"
       fill-rule="evenodd"
       id="path69" />
    <path
       fill="#ffffff"
       d="m 12.73438,102.09873 v 5.71875 q 0.890625,-0.95313 1.703125,-1.34375 0.8125,-0.39063 1.8125,-0.39063 1.09375,0 1.84375,0.375 0.765625,0.375 1.265625,1.17188 0.515625,0.79687 0.515625,1.67187 v 5.76563 h 1.046875 q 0.328125,0 0.46875,0.125 0.140625,0.125 0.140625,0.32812 0,0.20313 -0.140625,0.34375 -0.140625,0.125 -0.46875,0.125 h -3.03125 q -0.34375,0 -0.484375,-0.125 -0.140625,-0.14062 -0.140625,-0.34375 0,-0.20312 0.140625,-0.32812 0.140625,-0.125 0.484375,-0.125 h 1.046875 v -5.70313 q 0,-1.01562 -0.734375,-1.6875 -0.71875,-0.67187 -2.015625,-0.67187 -1.015625,0 -1.734375,0.5 -0.515625,0.35937 -1.71875,1.67187 v 5.89063 h 1.0625 q 0.328125,0 0.46875,0.125 0.140625,0.125 0.140625,0.32812 0,0.20313 -0.140625,0.34375 -0.140625,0.125 -0.46875,0.125 h -3.03125 q -0.34375,0 -0.484375,-0.125 -0.140625,-0.14062 -0.140625,-0.34375 0,-0.20312 0.140625,-0.32812 0.140625,-0.125 0.484375,-0.125 h 1.046875 v -12.01563 h -1.25 q -0.328125,0 -0.484375,-0.125 -0.140625,-0.14062 -0.140625,-0.35937 0,-0.20313 0.140625,-0.32813 0.15625,-0.14062 0.484375,-0.14062 z m 21.689713,9.32812 h -9.46875 q 0.234375,1.79688 1.5,2.90625 1.28125,1.09375 3.140625,1.09375 1.046875,0 2.1875,-0.34375 1.140625,-0.34375 1.859375,-0.90625 0.203125,-0.17187 0.359375,-0.17187 0.171875,0 0.296875,0.14062 0.140625,0.14063 0.140625,0.32813 0,0.1875 -0.171875,0.35937 -0.53125,0.5625 -1.890625,1.04688 -1.34375,0.46875 -2.78125,0.46875 -2.390625,0 -3.984375,-1.5625 -1.59375,-1.5625 -1.59375,-3.78125 0,-2.03125 1.484375,-3.46875 1.5,-1.45313 3.71875,-1.45313 2.28125,0 3.75,1.48438 1.46875,1.48437 1.453125,3.85937 z m -0.9375,-0.95312 q -0.28125,-1.53125 -1.46875,-2.48438 -1.171875,-0.96875 -2.796875,-0.96875 -1.625,0 -2.796875,0.95313 -1.171875,0.95312 -1.453125,2.5 z m 9.970963,-8.375 v 12.96875 h 3.65625 q 0.34375,0 0.484375,0.125 0.140625,0.125 0.140625,0.32812 0,0.20313 -0.140625,0.34375 -0.140625,0.125 -0.484375,0.125 h -8.234375 q -0.328125,0 -0.484375,-0.125 -0.140625,-0.14062 -0.140625,-0.34375 0,-0.20312 0.140625,-0.32812 0.15625,-0.125 0.484375,-0.125 h 3.65625 v -12.01563 h -2.6875 q -0.328125,0 -0.484375,-0.125 -0.140625,-0.14062 -0.140625,-0.35937 0,-0.20313 0.140625,-0.32813 0.140625,-0.14062 0.484375,-0.14062 z m 13.595963,0 v 12.96875 h 3.65625 q 0.34375,0 0.484375,0.125 0.140625,0.125 0.140625,0.32812 0,0.20313 -0.140625,0.34375 -0.140625,0.125 -0.484375,0.125 h -8.234375 q -0.328125,0 -0.484375,-0.125 -0.140625,-0.14062 -0.140625,-0.34375 0,-0.20312 0.140625,-0.32812 0.15625,-0.125 0.484375,-0.125 h 3.65625 v -12.01563 h -2.6875 q -0.328125,0 -0.484375,-0.125 -0.140625,-0.14062 -0.140625,-0.35937 0,-0.20313 0.140625,-0.32813 0.140625,-0.14062 0.484375,-0.14062 z m 18.314713,9.125 q 0,2.125 -1.515625,3.625 -1.515625,1.5 -3.671875,1.5 -2.15625,0 -3.671875,-1.5 -1.515625,-1.51563 -1.515625,-3.625 0,-2.125 1.515625,-3.625 1.515625,-1.51563 3.671875,-1.51563 2.15625,0 3.671875,1.5 1.515625,1.5 1.515625,3.64063 z m -0.9375,0 q 0,-1.75 -1.25,-2.96875 -1.234375,-1.23438 -3,-1.23438 -1.78125,0 -3.03125,1.23438 -1.234375,1.23437 -1.234375,2.96875 0,1.71875 1.234375,2.96875 1.25,1.23437 3.03125,1.23437 1.765625,0 3,-1.23437 1.25,-1.23438 1.25,-2.96875 z m 14.080338,-2.29688 v 1.32813 h -9.46875 v -1.32813 z m 12.06471,7.0625 -1.156247,0.0156 -2.046875,-5.98438 -2.03125,5.98438 -1.140625,-0.0156 -1.9375,-8.64062 h -0.453125 q -0.328125,0 -0.46875,-0.125 -0.140625,-0.14063 -0.140625,-0.34375 0,-0.20313 0.140625,-0.32813 0.140625,-0.14062 0.46875,-0.14062 h 2.5625 q 0.328125,0 0.46875,0.14062 0.140625,0.125 0.140625,0.32813 0,0.20312 -0.140625,0.34375 -0.140625,0.125 -0.46875,0.125 h -1.1875 l 1.65625,7.375 1.96875,-5.89063 h 1.109375 l 2.03125,5.89063 1.593747,-7.375 h -1.17187 q -0.34375,0 -0.500002,-0.125 -0.140625,-0.14063 -0.140625,-0.34375 0,-0.20313 0.140625,-0.32813 0.156252,-0.14062 0.500002,-0.14062 h 2.53125 q 0.34375,0 0.48437,0.14062 0.15625,0.125 0.15625,0.32813 0,0.20312 -0.15625,0.34375 -0.14062,0.125 -0.48437,0.125 h -0.4375 z m 15.58034,-4.76562 q 0,2.125 -1.51562,3.625 -1.51563,1.5 -3.67188,1.5 -2.15625,0 -3.67187,-1.5 -1.51563,-1.51563 -1.51563,-3.625 0,-2.125 1.51563,-3.625 1.51562,-1.51563 3.67187,-1.51563 2.15625,0 3.67188,1.5 1.51562,1.5 1.51562,3.64063 z m -0.9375,0 q 0,-1.75 -1.25,-2.96875 -1.23437,-1.23438 -3,-1.23438 -1.78125,0 -3.03125,1.23438 -1.23437,1.23437 -1.23437,2.96875 0,1.71875 1.23437,2.96875 1.25,1.23437 3.03125,1.23437 1.76563,0 3,-1.23437 1.25,-1.23438 1.25,-2.96875 z m 8.23659,-4.8125 v 2.34375 q 1.8125,-1.64063 2.70312,-2.10938 0.90625,-0.46875 1.67188,-0.46875 0.82812,0 1.54687,0.5625 0.71875,0.5625 0.71875,0.84375 0,0.20313 -0.14062,0.34375 -0.14063,0.14063 -0.34375,0.14063 -0.125,0 -0.20313,-0.0312 -0.0625,-0.0469 -0.28125,-0.25 -0.39062,-0.39063 -0.67187,-0.53125 -0.28125,-0.15625 -0.5625,-0.15625 -0.60938,0 -1.46875,0.5 -0.85938,0.48437 -2.96875,2.375 v 5.09375 h 4.10937 q 0.34375,0 0.48438,0.125 0.15625,0.125 0.15625,0.32812 0,0.20313 -0.15625,0.34375 -0.14063,0.125 -0.48438,0.125 h -7.28125 q -0.34375,0 -0.48437,-0.125 -0.14063,-0.125 -0.14063,-0.32812 0,-0.1875 0.14063,-0.3125 0.14062,-0.125 0.48437,-0.125 h 2.23438 v -7.75 h -1.70313 q -0.34375,0 -0.48437,-0.125 -0.14063,-0.14063 -0.14063,-0.34375 0,-0.20313 0.14063,-0.32813 0.14062,-0.14062 0.48437,-0.14062 z m 15.17409,-4.3125 v 12.96875 h 3.65625 q 0.34375,0 0.48437,0.125 0.14063,0.125 0.14063,0.32812 0,0.20313 -0.14063,0.34375 -0.14062,0.125 -0.48437,0.125 h -8.23438 q -0.32812,0 -0.48437,-0.125 -0.14063,-0.14062 -0.14063,-0.34375 0,-0.20312 0.14063,-0.32812 0.15625,-0.125 0.48437,-0.125 h 3.65625 v -12.01563 h -2.6875 q -0.32812,0 -0.48437,-0.125 -0.14063,-0.14062 -0.14063,-0.35937 0,-0.20313 0.14063,-0.32813 0.14062,-0.14062 0.48437,-0.14062 z m 17.67409,0 v 12.96875 h 1.25 q 0.34375,0 0.48437,0.125 0.14063,0.125 0.14063,0.32812 0,0.20313 -0.14063,0.34375 -0.14062,0.125 -0.48437,0.125 h -2.1875 v -1.84375 q -1.60938,2.20313 -4.09375,2.20313 -1.26563,0 -2.42188,-0.65625 -1.15625,-0.67188 -1.82812,-1.90625 -0.67188,-1.25 -0.67188,-2.5625 0,-1.32813 0.67188,-2.5625 0.67187,-1.23438 1.82812,-1.90625 1.15625,-0.67188 2.42188,-0.67188 2.4375,0 4.09375,2.20313 v -5.23438 h -1.23438 q -0.34375,0 -0.48437,-0.125 -0.14063,-0.14062 -0.14063,-0.35937 0,-0.20313 0.14063,-0.32813 0.14062,-0.14062 0.48437,-0.14062 z m -0.9375,9.125 q 0,-1.76563 -1.20313,-2.98438 -1.1875,-1.21875 -2.82812,-1.21875 -1.65625,0 -2.85938,1.21875 -1.1875,1.21875 -1.1875,2.98438 0,1.75 1.1875,2.98437 1.20313,1.21875 2.85938,1.21875 1.64062,0 2.82812,-1.21875 1.20313,-1.23437 1.20313,-2.98437 z m 9.79908,2.09375 h 0.39063 q 0.625,0 1.06248,0.4375 0.4375,0.4375 0.4375,1.0625 0,0.64062 -0.45312,1.07812 -0.43749,0.42188 -1.04686,0.42188 h -0.39063 q -0.625,0 -1.07812,-0.4375 -0.4375,-0.4375 -0.4375,-1.04688 0,-0.64062 0.45312,-1.07812 0.45313,-0.4375 1.0625,-0.4375 z m 17.65847,-5.96875 v -0.3125 q 0,-0.34375 0.125,-0.48438 0.14062,-0.14062 0.34375,-0.14062 0.20312,0 0.32812,0.14062 0.14063,0.14063 0.14063,0.48438 v 2.10937 q 0,0.34375 -0.14063,0.48438 -0.125,0.14062 -0.32812,0.14062 -0.1875,0 -0.3125,-0.125 -0.125,-0.125 -0.15625,-0.42187 -0.0625,-0.79688 -1.03125,-1.5 -0.96875,-0.70313 -2.60938,-0.70313 -2.0625,0 -3.14062,1.29688 -1.0625,1.28125 -1.0625,2.95312 0,1.8125 1.17187,2.98438 1.1875,1.17187 3.0625,1.17187 1.09375,0 2.21875,-0.39062 1.125,-0.40625 2.03125,-1.29688 0.21875,-0.21875 0.40625,-0.21875 0.1875,0 0.3125,0.125 0.125,0.125 0.125,0.3125 0,0.48438 -1.10937,1.21875 -1.8125,1.17188 -4.01563,1.17188 -2.25,0 -3.70312,-1.42188 -1.4375,-1.4375 -1.4375,-3.64062 0,-2.25 1.46875,-3.71875 1.48437,-1.48438 3.73437,-1.48438 2.125,0 3.57813,1.26563 z m 14.90844,3.875 q 0,2.125 -1.51562,3.625 -1.51563,1.5 -3.67188,1.5 -2.15625,0 -3.67187,-1.5 -1.51563,-1.51563 -1.51563,-3.625 0,-2.125 1.51563,-3.625 1.51562,-1.51563 3.67187,-1.51563 2.15625,0 3.67188,1.5 1.51562,1.5 1.51562,3.64063 z m -0.9375,0 q 0,-1.75 -1.25,-2.96875 -1.23437,-1.23438 -3,-1.23438 -1.78125,0 -3.03125,1.23438 -1.23437,1.23437 -1.23437,2.96875 0,1.71875 1.23437,2.96875 1.25,1.23437 3.03125,1.23437 1.76563,0 3,-1.23437 1.25,-1.23438 1.25,-2.96875 z m 6.34598,-4.8125 v 1.40625 q 0.96875,-0.98438 1.75,-1.35938 0.79688,-0.375 1.78125,-0.375 1.0625,0 1.9375,0.45313 0.60938,0.32812 1.10938,1.09375 0.51562,0.76562 0.51562,1.57812 v 5.85938 h 0.78125 q 0.32813,0 0.46875,0.125 0.15625,0.125 0.15625,0.32812 0,0.20313 -0.15625,0.34375 -0.14062,0.125 -0.46875,0.125 h -2.48437 q -0.34375,0 -0.5,-0.125 -0.14063,-0.14062 -0.14063,-0.34375 0,-0.20312 0.14063,-0.32812 0.15625,-0.125 0.5,-0.125 h 0.76562 v -5.70313 q 0,-0.98437 -0.71875,-1.65625 -0.71875,-0.6875 -1.92187,-0.6875 -0.92188,0 -1.59375,0.375 -0.67188,0.35938 -1.92188,1.82813 v 5.84375 h 1.04688 q 0.32812,0 0.46875,0.125 0.15625,0.125 0.15625,0.32812 0,0.20313 -0.15625,0.34375 -0.14063,0.125 -0.46875,0.125 h -3.03125 q -0.32813,0 -0.48438,-0.125 -0.14062,-0.14062 -0.14062,-0.34375 0,-0.20312 0.14062,-0.32812 0.15625,-0.125 0.48438,-0.125 h 1.04687 v -7.71875 h -0.78125 q -0.32812,0 -0.48437,-0.125 -0.14063,-0.14063 -0.14063,-0.34375 0,-0.20313 0.14063,-0.32813 0.15625,-0.14062 0.48437,-0.14062 z m 14.6897,0 h 5.04687 q 0.32813,0 0.46875,0.14062 0.14063,0.125 0.14063,0.32813 0,0.20312 -0.14063,0.34375 -0.14062,0.125 -0.46875,0.125 h -5.04687 v 6.1875 q 0,0.8125 0.64062,1.35937 0.65625,0.53125 1.90625,0.53125 0.9375,0 2.03125,-0.28125 1.09375,-0.28125 1.70313,-0.64062 0.21875,-0.14063 0.35937,-0.14063 0.1875,0 0.3125,0.14063 0.14063,0.14062 0.14063,0.32812 0,0.15625 -0.14063,0.29688 -0.35937,0.375 -1.73437,0.79687 -1.35938,0.42188 -2.60938,0.42188 -1.625,0 -2.59375,-0.75 -0.95312,-0.76563 -0.95312,-2.0625 v -6.1875 h -1.71875 q -0.32813,0 -0.48438,-0.125 -0.14062,-0.14063 -0.14062,-0.34375 0,-0.20313 0.14062,-0.32813 0.15625,-0.14062 0.48438,-0.14062 h 1.71875 v -2.75 q 0,-0.32813 0.125,-0.46875 0.14062,-0.14063 0.32812,-0.14063 0.21875,0 0.34375,0.14063 0.14063,0.14062 0.14063,0.46875 z m 14.39285,0 v 2.34375 q 1.8125,-1.64063 2.70313,-2.10938 0.90625,-0.46875 1.67187,-0.46875 0.82813,0 1.54688,0.5625 0.71875,0.5625 0.71875,0.84375 0,0.20313 -0.14063,0.34375 -0.14062,0.14063 -0.34375,0.14063 -0.125,0 -0.20312,-0.0312 -0.0625,-0.0469 -0.28125,-0.25 -0.39063,-0.39063 -0.67188,-0.53125 -0.28125,-0.15625 -0.5625,-0.15625 -0.60937,0 -1.46875,0.5 -0.85937,0.48437 -2.96875,2.375 v 5.09375 h 4.10938 q 0.34375,0 0.48437,0.125 0.15625,0.125 0.15625,0.32812 0,0.20313 -0.15625,0.34375 -0.14062,0.125 -0.48437,0.125 h -7.28125 q -0.34375,0 -0.48438,-0.125 -0.14062,-0.125 -0.14062,-0.32812 0,-0.1875 0.14062,-0.3125 0.14063,-0.125 0.48438,-0.125 h 2.23437 v -7.75 h -1.70312 q -0.34375,0 -0.48438,-0.125 -0.14062,-0.14063 -0.14062,-0.34375 0,-0.20313 0.14062,-0.32813 0.14063,-0.14062 0.48438,-0.14062 z m 17.3772,9.57812 v -1.34375 q -2.03125,1.70313 -4.32813,1.70313 -1.67187,0 -2.60937,-0.84375 -0.9375,-0.84375 -0.9375,-2.07813 0,-1.34375 1.23437,-2.34375 1.25,-1.01562 3.625,-1.01562 0.64063,0 1.39063,0.0937 0.75,0.0781 1.625,0.25 v -1.5 q 0,-0.76563 -0.71875,-1.32813 -0.70313,-0.5625 -2.10938,-0.5625 -1.09375,0 -3.04687,0.625 -0.35938,0.10938 -0.45313,0.10938 -0.17187,0 -0.3125,-0.125 -0.125,-0.14063 -0.125,-0.32813 0,-0.20312 0.125,-0.3125 0.14063,-0.15625 1.25,-0.45312 1.71875,-0.45313 2.60938,-0.45313 1.75,0 2.73437,0.875 0.98438,0.85938 0.98438,1.95313 v 6.15625 h 1.25 q 0.32812,0 0.46875,0.125 0.15625,0.125 0.15625,0.32812 0,0.20313 -0.15625,0.34375 -0.14063,0.125 -0.46875,0.125 z m 0,-4.625 q -0.65625,-0.1875 -1.39063,-0.26562 -0.71875,-0.0937 -1.53125,-0.0937 -2.01562,0 -3.15625,0.875 -0.875,0.64062 -0.875,1.54687 0,0.84375 0.65625,1.42188 0.67188,0.57812 1.92188,0.57812 1.21875,0 2.25,-0.48437 1.03125,-0.48438 2.125,-1.53125 z m 14.7991,-4.01562 v -0.3125 q 0,-0.34375 0.125,-0.48438 0.14063,-0.14062 0.34375,-0.14062 0.20313,0 0.32813,0.14062 0.14062,0.14063 0.14062,0.48438 v 2.10937 q 0,0.34375 -0.14062,0.48438 -0.125,0.14062 -0.32813,0.14062 -0.1875,0 -0.3125,-0.125 -0.125,-0.125 -0.15625,-0.42187 -0.0625,-0.79688 -1.03125,-1.5 -0.96875,-0.70313 -2.60937,-0.70313 -2.0625,0 -3.14063,1.29688 -1.0625,1.28125 -1.0625,2.95312 0,1.8125 1.17188,2.98438 1.1875,1.17187 3.0625,1.17187 1.09375,0 2.21875,-0.39062 1.125,-0.40625 2.03125,-1.29688 0.21875,-0.21875 0.40625,-0.21875 0.1875,0 0.3125,0.125 0.125,0.125 0.125,0.3125 0,0.48438 -1.10938,1.21875 -1.8125,1.17188 -4.01562,1.17188 -2.25,0 -3.70313,-1.42188 -1.4375,-1.4375 -1.4375,-3.64062 0,-2.25 1.46875,-3.71875 1.48438,-1.48438 3.73438,-1.48438 2.125,0 3.57812,1.26563 z m 7.81473,-0.9375 h 5.04687 q 0.32813,0 0.46875,0.14062 0.14063,0.125 0.14063,0.32813 0,0.20312 -0.14063,0.34375 -0.14062,0.125 -0.46875,0.125 h -5.04687 v 6.1875 q 0,0.8125 0.64062,1.35937 0.65625,0.53125 1.90625,0.53125 0.9375,0 2.03125,-0.28125 1.09375,-0.28125 1.70313,-0.64062 0.21875,-0.14063 0.35937,-0.14063 0.1875,0 0.3125,0.14063 0.14063,0.14062 0.14063,0.32812 0,0.15625 -0.14063,0.29688 -0.35937,0.375 -1.73437,0.79687 -1.35938,0.42188 -2.60938,0.42188 -1.625,0 -2.59375,-0.75 -0.95312,-0.76563 -0.95312,-2.0625 v -6.1875 h -1.71875 q -0.32813,0 -0.48438,-0.125 -0.14062,-0.14063 -0.14062,-0.34375 0,-0.20313 0.14062,-0.32813 0.15625,-0.14062 0.48438,-0.14062 h 1.71875 v -2.75 q 0,-0.32813 0.125,-0.46875 0.14062,-0.14063 0.32812,-0.14063 0.21875,0 0.34375,0.14063 0.14063,0.14062 0.14063,0.46875 z"
       fill-rule="nonzero"
       id="path71" />
    <path
       fill="#000000"
       fill-opacity="0"
       d="M 315.92914,85.22935 H 570.51181 V 132.0955 H 315.92914 Z"
       fill-rule="evenodd"
       id="path73" />
    <path
       fill="#ffffff"
       d="m 328.66352,102.09873 v 5.71875 q 0.89062,-0.95313 1.70312,-1.34375 0.8125,-0.39063 1.8125,-0.39063 1.09375,0 1.84375,0.375 0.76563,0.375 1.26563,1.17188 0.51562,0.79687 0.51562,1.67187 v 5.76563 h 1.04688 q 0.32812,0 0.46875,0.125 0.14062,0.125 0.14062,0.32812 0,0.20313 -0.14062,0.34375 -0.14063,0.125 -0.46875,0.125 h -3.03125 q -0.34375,0 -0.48438,-0.125 -0.14062,-0.14062 -0.14062,-0.34375 0,-0.20312 0.14062,-0.32812 0.14063,-0.125 0.48438,-0.125 h 1.04687 v -5.70313 q 0,-1.01562 -0.73437,-1.6875 -0.71875,-0.67187 -2.01563,-0.67187 -1.01562,0 -1.73437,0.5 -0.51563,0.35937 -1.71875,1.67187 v 5.89063 h 1.0625 q 0.32812,0 0.46875,0.125 0.14062,0.125 0.14062,0.32812 0,0.20313 -0.14062,0.34375 -0.14063,0.125 -0.46875,0.125 h -3.03125 q -0.34375,0 -0.48438,-0.125 -0.14062,-0.14062 -0.14062,-0.34375 0,-0.20312 0.14062,-0.32812 0.14063,-0.125 0.48438,-0.125 h 1.04687 v -12.01563 h -1.25 q -0.32812,0 -0.48437,-0.125 -0.14063,-0.14062 -0.14063,-0.35937 0,-0.20313 0.14063,-0.32813 0.15625,-0.14062 0.48437,-0.14062 z m 21.6897,9.32812 h -9.46875 q 0.23437,1.79688 1.5,2.90625 1.28125,1.09375 3.14062,1.09375 1.04688,0 2.1875,-0.34375 1.14063,-0.34375 1.85938,-0.90625 0.20312,-0.17187 0.35937,-0.17187 0.17188,0 0.29688,0.14062 0.14062,0.14063 0.14062,0.32813 0,0.1875 -0.17187,0.35937 -0.53125,0.5625 -1.89063,1.04688 -1.34375,0.46875 -2.78125,0.46875 -2.39062,0 -3.98437,-1.5625 -1.59375,-1.5625 -1.59375,-3.78125 0,-2.03125 1.48437,-3.46875 1.5,-1.45313 3.71875,-1.45313 2.28125,0 3.75,1.48438 1.46875,1.48437 1.45313,3.85937 z m -0.9375,-0.95312 q -0.28125,-1.53125 -1.46875,-2.48438 -1.17188,-0.96875 -2.79688,-0.96875 -1.625,0 -2.79687,0.95313 -1.17188,0.95312 -1.45313,2.5 z m 9.97098,-8.375 v 12.96875 h 3.65625 q 0.34375,0 0.48437,0.125 0.14063,0.125 0.14063,0.32812 0,0.20313 -0.14063,0.34375 -0.14062,0.125 -0.48437,0.125 h -8.23438 q -0.32812,0 -0.48437,-0.125 -0.14063,-0.14062 -0.14063,-0.34375 0,-0.20312 0.14063,-0.32812 0.15625,-0.125 0.48437,-0.125 h 3.65625 v -12.01563 h -2.6875 q -0.32812,0 -0.48437,-0.125 -0.14063,-0.14062 -0.14063,-0.35937 0,-0.20313 0.14063,-0.32813 0.14062,-0.14062 0.48437,-0.14062 z m 13.59594,0 v 12.96875 h 3.65625 q 0.34375,0 0.48438,0.125 0.14062,0.125 0.14062,0.32812 0,0.20313 -0.14062,0.34375 -0.14063,0.125 -0.48438,0.125 h -8.23437 q -0.32813,0 -0.48438,-0.125 -0.14062,-0.14062 -0.14062,-0.34375 0,-0.20312 0.14062,-0.32812 0.15625,-0.125 0.48438,-0.125 h 3.65625 v -12.01563 h -2.6875 q -0.32813,0 -0.48438,-0.125 -0.14062,-0.14062 -0.14062,-0.35937 0,-0.20313 0.14062,-0.32813 0.14063,-0.14062 0.48438,-0.14062 z m 18.31473,9.125 q 0,2.125 -1.51562,3.625 -1.51563,1.5 -3.67188,1.5 -2.15625,0 -3.67187,-1.5 -1.51563,-1.51563 -1.51563,-3.625 0,-2.125 1.51563,-3.625 1.51562,-1.51563 3.67187,-1.51563 2.15625,0 3.67188,1.5 1.51562,1.5 1.51562,3.64063 z m -0.9375,0 q 0,-1.75 -1.25,-2.96875 -1.23437,-1.23438 -3,-1.23438 -1.78125,0 -3.03125,1.23438 -1.23437,1.23437 -1.23437,2.96875 0,1.71875 1.23437,2.96875 1.25,1.23437 3.03125,1.23437 1.76563,0 3,-1.23437 1.25,-1.23438 1.25,-2.96875 z m 14.08032,-2.29688 v 1.32813 h -9.46875 v -1.32813 z m 12.06473,7.0625 -1.15625,0.0156 -2.04687,-5.98438 -2.03125,5.98438 -1.14063,-0.0156 -1.9375,-8.64062 h -0.45312 q -0.32813,0 -0.46875,-0.125 -0.14063,-0.14063 -0.14063,-0.34375 0,-0.20313 0.14063,-0.32813 0.14062,-0.14062 0.46875,-0.14062 h 2.5625 q 0.32812,0 0.46875,0.14062 0.14062,0.125 0.14062,0.32813 0,0.20312 -0.14062,0.34375 -0.14063,0.125 -0.46875,0.125 h -1.1875 l 1.65625,7.375 1.96875,-5.89063 h 1.10937 l 2.03125,5.89063 1.59375,-7.375 h -1.17187 q -0.34375,0 -0.5,-0.125 -0.14063,-0.14063 -0.14063,-0.34375 0,-0.20313 0.14063,-0.32813 0.15625,-0.14062 0.5,-0.14062 h 2.53125 q 0.34375,0 0.48437,0.14062 0.15625,0.125 0.15625,0.32813 0,0.20312 -0.15625,0.34375 -0.14062,0.125 -0.48437,0.125 h -0.4375 z m 15.58032,-4.76562 q 0,2.125 -1.51562,3.625 -1.51563,1.5 -3.67188,1.5 -2.15625,0 -3.67187,-1.5 -1.51563,-1.51563 -1.51563,-3.625 0,-2.125 1.51563,-3.625 1.51562,-1.51563 3.67187,-1.51563 2.15625,0 3.67188,1.5 1.51562,1.5 1.51562,3.64063 z m -0.9375,0 q 0,-1.75 -1.25,-2.96875 -1.23437,-1.23438 -3,-1.23438 -1.78125,0 -3.03125,1.23438 -1.23437,1.23437 -1.23437,2.96875 0,1.71875 1.23437,2.96875 1.25,1.23437 3.03125,1.23437 1.76563,0 3,-1.23437 1.25,-1.23438 1.25,-2.96875 z m 8.23657,-4.8125 v 2.34375 q 1.8125,-1.64063 2.70313,-2.10938 0.90625,-0.46875 1.67187,-0.46875 0.82813,0 1.54688,0.5625 0.71875,0.5625 0.71875,0.84375 0,0.20313 -0.14063,0.34375 -0.14062,0.14063 -0.34375,0.14063 -0.125,0 -0.20312,-0.0312 -0.0625,-0.0469 -0.28125,-0.25 -0.39063,-0.39063 -0.67188,-0.53125 -0.28125,-0.15625 -0.5625,-0.15625 -0.60937,0 -1.46875,0.5 -0.85937,0.48437 -2.96875,2.375 v 5.09375 h 4.10938 q 0.34375,0 0.48437,0.125 0.15625,0.125 0.15625,0.32812 0,0.20313 -0.15625,0.34375 -0.14062,0.125 -0.48437,0.125 h -7.28125 q -0.34375,0 -0.48438,-0.125 -0.14062,-0.125 -0.14062,-0.32812 0,-0.1875 0.14062,-0.3125 0.14063,-0.125 0.48438,-0.125 h 2.23437 v -7.75 h -1.70312 q -0.34375,0 -0.48438,-0.125 -0.14062,-0.14063 -0.14062,-0.34375 0,-0.20313 0.14062,-0.32813 0.14063,-0.14062 0.48438,-0.14062 z m 15.17414,-4.3125 v 12.96875 h 3.65625 q 0.34375,0 0.48437,0.125 0.14063,0.125 0.14063,0.32812 0,0.20313 -0.14063,0.34375 -0.14062,0.125 -0.48437,0.125 h -8.23438 q -0.32812,0 -0.48437,-0.125 -0.14063,-0.14062 -0.14063,-0.34375 0,-0.20312 0.14063,-0.32812 0.15625,-0.125 0.48437,-0.125 h 3.65625 v -12.01563 h -2.6875 q -0.32812,0 -0.48437,-0.125 -0.14063,-0.14062 -0.14063,-0.35937 0,-0.20313 0.14063,-0.32813 0.14062,-0.14062 0.48437,-0.14062 z m 17.67407,0 v 12.96875 h 1.25 q 0.34375,0 0.48437,0.125 0.14063,0.125 0.14063,0.32812 0,0.20313 -0.14063,0.34375 -0.14062,0.125 -0.48437,0.125 h -2.1875 v -1.84375 q -1.60938,2.20313 -4.09375,2.20313 -1.26563,0 -2.42188,-0.65625 -1.15625,-0.67188 -1.82812,-1.90625 -0.67188,-1.25 -0.67188,-2.5625 0,-1.32813 0.67188,-2.5625 0.67187,-1.23438 1.82812,-1.90625 1.15625,-0.67188 2.42188,-0.67188 2.4375,0 4.09375,2.20313 v -5.23438 h -1.23438 q -0.34375,0 -0.48437,-0.125 -0.14063,-0.14062 -0.14063,-0.35937 0,-0.20313 0.14063,-0.32813 0.14062,-0.14062 0.48437,-0.14062 z m -0.9375,9.125 q 0,-1.76563 -1.20313,-2.98438 -1.1875,-1.21875 -2.82812,-1.21875 -1.65625,0 -2.85938,1.21875 -1.1875,1.21875 -1.1875,2.98438 0,1.75 1.1875,2.98437 1.20313,1.21875 2.85938,1.21875 1.64062,0 2.82812,-1.21875 1.20313,-1.23437 1.20313,-2.98437 z m 9.79907,2.09375 h 0.39063 q 0.625,0 1.0625,0.4375 0.4375,0.4375 0.4375,1.0625 0,0.64062 -0.45313,1.07812 -0.4375,0.42188 -1.04687,0.42188 h -0.39063 q -0.625,0 -1.07812,-0.4375 -0.4375,-0.4375 -0.4375,-1.04688 0,-0.64062 0.45312,-1.07812 0.45313,-0.4375 1.0625,-0.4375 z m 16.98657,2.67187 -1.15625,0.0156 -2.04687,-5.98438 -2.03125,5.98438 -1.14063,-0.0156 -1.9375,-8.64062 h -0.45312 q -0.32813,0 -0.46875,-0.125 -0.14063,-0.14063 -0.14063,-0.34375 0,-0.20313 0.14063,-0.32813 0.14062,-0.14062 0.46875,-0.14062 h 2.5625 q 0.32812,0 0.46875,0.14062 0.14062,0.125 0.14062,0.32813 0,0.20312 -0.14062,0.34375 -0.14063,0.125 -0.46875,0.125 h -1.1875 l 1.65625,7.375 1.96875,-5.89063 h 1.10937 l 2.03125,5.89063 1.59375,-7.375 h -1.17187 q -0.34375,0 -0.5,-0.125 -0.14063,-0.14063 -0.14063,-0.34375 0,-0.20313 0.14063,-0.32813 0.15625,-0.14062 0.5,-0.14062 h 2.53125 q 0.34375,0 0.48437,0.14062 0.15625,0.125 0.15625,0.32813 0,0.20312 -0.15625,0.34375 -0.14062,0.125 -0.48437,0.125 h -0.4375 z m 13.06476,0 v -1.34375 q -2.03125,1.70313 -4.32812,1.70313 -1.67188,0 -2.60938,-0.84375 -0.9375,-0.84375 -0.9375,-2.07813 0,-1.34375 1.23438,-2.34375 1.25,-1.01562 3.625,-1.01562 0.64062,0 1.39062,0.0937 0.75,0.0781 1.625,0.25 v -1.5 q 0,-0.76563 -0.71875,-1.32813 -0.70312,-0.5625 -2.10937,-0.5625 -1.09375,0 -3.04688,0.625 -0.35937,0.10938 -0.45312,0.10938 -0.17188,0 -0.3125,-0.125 -0.125,-0.14063 -0.125,-0.32813 0,-0.20312 0.125,-0.3125 0.14062,-0.15625 1.25,-0.45312 1.71875,-0.45313 2.60937,-0.45313 1.75,0 2.73438,0.875 0.98437,0.85938 0.98437,1.95313 v 6.15625 h 1.25 q 0.32813,0 0.46875,0.125 0.15625,0.125 0.15625,0.32812 0,0.20313 -0.15625,0.34375 -0.14062,0.125 -0.46875,0.125 z m 0,-4.625 q -0.65625,-0.1875 -1.39062,-0.26562 -0.71875,-0.0937 -1.53125,-0.0937 -2.01563,0 -3.15625,0.875 -0.875,0.64062 -0.875,1.54687 0,0.84375 0.65625,1.42188 0.67187,0.57812 1.92187,0.57812 1.21875,0 2.25,-0.48437 1.03125,-0.48438 2.125,-1.53125 z m 14.0022,-4.34375 q 0,-0.32812 0.125,-0.46875 0.14062,-0.14062 0.32812,-0.14062 0.21875,0 0.34375,0.14062 0.14063,0.14063 0.14063,0.48438 v 1.59375 q 0,0.32812 -0.14063,0.48437 -0.125,0.14063 -0.34375,0.14063 -0.1875,0 -0.3125,-0.125 -0.125,-0.125 -0.14062,-0.39063 -0.0781,-0.67187 -0.6875,-1.10937 -0.90625,-0.60938 -2.40625,-0.60938 -1.5625,0 -2.42188,0.625 -0.65625,0.48438 -0.65625,1.0625 0,0.67188 0.78125,1.10938 0.53125,0.3125 2.01563,0.46875 1.9375,0.21875 2.6875,0.48437 1.0625,0.39063 1.59375,1.07813 0.53125,0.67187 0.53125,1.46875 0,1.1875 -1.14063,2.10937 -1.14062,0.92188 -3.34375,0.92188 -2.20312,0 -3.60937,-1.10938 0,0.375 -0.0469,0.48438 -0.0469,0.10937 -0.17187,0.1875 -0.10938,0.0781 -0.25,0.0781 -0.1875,0 -0.32813,-0.14062 -0.125,-0.14063 -0.125,-0.48438 v -1.90625 q 0,-0.32812 0.125,-0.46875 0.125,-0.15625 0.32813,-0.15625 0.20312,0 0.34375,0.14063 0.14062,0.14062 0.14062,0.375 0,0.5 0.25,0.84375 0.39063,0.53125 1.23438,0.89062 0.84375,0.34375 2.07812,0.34375 1.8125,0 2.6875,-0.67187 0.89063,-0.67188 0.89063,-1.4375 0,-0.85938 -0.89063,-1.375 -0.90625,-0.51563 -2.64062,-0.6875 -1.73438,-0.1875 -2.48438,-0.46875 -0.75,-0.29688 -1.17187,-0.875 -0.42188,-0.57813 -0.42188,-1.23438 0,-1.1875 1.17188,-1.89062 1.17187,-0.70313 2.79687,-0.70313 1.92188,0 3.14063,0.9375 z m 6.28345,-0.60937 v 0.9375 q 1.1875,-1.26563 2.375,-1.26563 0.73437,0 1.26562,0.375 0.54688,0.375 0.90625,1.15625 0.625,-0.78125 1.25,-1.15625 0.64063,-0.375 1.28125,-0.375 1.01563,0 1.60938,0.64063 0.78125,0.84375 0.78125,1.84375 v 6.5 h 0.79687 q 0.32813,0 0.46875,0.125 0.14063,0.125 0.14063,0.32812 0,0.20313 -0.14063,0.34375 -0.14062,0.125 -0.46875,0.125 h -1.71875 v -7.32812 q 0,-0.71875 -0.4375,-1.17188 -0.42187,-0.46875 -0.98437,-0.46875 -0.51563,0 -1.07813,0.39063 -0.5625,0.375 -1.28125,1.48437 v 6.17188 h 0.76563 q 0.34375,0 0.48437,0.125 0.14063,0.125 0.14063,0.32812 0,0.20313 -0.14063,0.34375 -0.14062,0.125 -0.48437,0.125 h -1.70313 v -7.26562 q 0,-0.75 -0.4375,-1.21875 -0.4375,-0.48438 -0.98437,-0.48438 -0.5,0 -0.98438,0.3125 -0.67187,0.45313 -1.42187,1.5625 v 6.17188 h 0.79687 q 0.32813,0 0.46875,0.125 0.14063,0.125 0.14063,0.32812 0,0.20313 -0.14063,0.34375 -0.14062,0.125 -0.46875,0.125 h -2.5 q -0.34375,0 -0.48437,-0.125 -0.14063,-0.14062 -0.14063,-0.34375 0,-0.20312 0.14063,-0.32812 0.14062,-0.125 0.48437,-0.125 h 0.78125 v -7.71875 h -0.78125 q -0.34375,0 -0.48437,-0.125 -0.14063,-0.14063 -0.14063,-0.34375 0,-0.20313 0.14063,-0.32813 0.14062,-0.14062 0.48437,-0.14062 z"
       fill-rule="nonzero"
       id="path75" />
    <path
       fill="#000000"
       fill-opacity="0"
       d="M 599.85826,85.22935 H 815.19688 V 132.0955 H 599.85826 Z"
       fill-rule="evenodd"
       id="path77" />
    <path
       fill="#ffffff"
       d="m 611.42076,106.41123 v 0.9375 q 1.1875,-1.26563 2.375,-1.26563 0.73437,0 1.26562,0.375 0.54688,0.375 0.90625,1.15625 0.625,-0.78125 1.25,-1.15625 0.64063,-0.375 1.28125,-0.375 1.01563,0 1.60938,0.64063 0.78125,0.84375 0.78125,1.84375 v 6.5 h 0.79687 q 0.32813,0 0.46875,0.125 0.14063,0.125 0.14063,0.32812 0,0.20313 -0.14063,0.34375 -0.14062,0.125 -0.46875,0.125 h -1.71875 v -7.32812 q 0,-0.71875 -0.4375,-1.17188 -0.42187,-0.46875 -0.98437,-0.46875 -0.51563,0 -1.07813,0.39063 -0.5625,0.375 -1.28125,1.48437 v 6.17188 h 0.76563 q 0.34375,0 0.48437,0.125 0.14063,0.125 0.14063,0.32812 0,0.20313 -0.14063,0.34375 -0.14062,0.125 -0.48437,0.125 h -1.70313 v -7.26562 q 0,-0.75 -0.4375,-1.21875 -0.4375,-0.48438 -0.98437,-0.48438 -0.5,0 -0.98438,0.3125 -0.67187,0.45313 -1.42187,1.5625 v 6.17188 h 0.79687 q 0.32813,0 0.46875,0.125 0.14063,0.125 0.14063,0.32812 0,0.20313 -0.14063,0.34375 -0.14062,0.125 -0.46875,0.125 h -2.5 q -0.34375,0 -0.48437,-0.125 -0.14063,-0.14062 -0.14063,-0.34375 0,-0.20312 0.14063,-0.32812 0.14062,-0.125 0.48437,-0.125 h 0.78125 v -7.71875 h -0.78125 q -0.34375,0 -0.48437,-0.125 -0.14063,-0.14063 -0.14063,-0.34375 0,-0.20313 0.14063,-0.32813 0.14062,-0.14062 0.48437,-0.14062 z m 22.86163,5.01562 h -9.46875 q 0.23438,1.79688 1.5,2.90625 1.28125,1.09375 3.14063,1.09375 1.04687,0 2.1875,-0.34375 1.14062,-0.34375 1.85937,-0.90625 0.20313,-0.17187 0.35938,-0.17187 0.17187,0 0.29687,0.14062 0.14063,0.14063 0.14063,0.32813 0,0.1875 -0.17188,0.35937 -0.53125,0.5625 -1.89062,1.04688 -1.34375,0.46875 -2.78125,0.46875 -2.39063,0 -3.98438,-1.5625 -1.59375,-1.5625 -1.59375,-3.78125 0,-2.03125 1.48438,-3.46875 1.5,-1.45313 3.71875,-1.45313 2.28125,0 3.75,1.48438 1.46875,1.48437 1.45312,3.85937 z m -0.9375,-0.95312 q -0.28125,-1.53125 -1.46875,-2.48438 -1.17187,-0.96875 -2.79687,-0.96875 -1.625,0 -2.79688,0.95313 -1.17187,0.95312 -1.45312,2.5 z m 7.59595,-4.0625 h 5.04688 q 0.32812,0 0.46875,0.14062 0.14062,0.125 0.14062,0.32813 0,0.20312 -0.14062,0.34375 -0.14063,0.125 -0.46875,0.125 h -5.04688 v 6.1875 q 0,0.8125 0.64063,1.35937 0.65625,0.53125 1.90625,0.53125 0.9375,0 2.03125,-0.28125 1.09375,-0.28125 1.70312,-0.64062 0.21875,-0.14063 0.35938,-0.14063 0.1875,0 0.3125,0.14063 0.14062,0.14062 0.14062,0.32812 0,0.15625 -0.14062,0.29688 -0.35938,0.375 -1.73438,0.79687 -1.35937,0.42188 -2.60937,0.42188 -1.625,0 -2.59375,-0.75 -0.95313,-0.76563 -0.95313,-2.0625 v -6.1875 h -1.71875 q -0.32812,0 -0.48437,-0.125 -0.14063,-0.14063 -0.14063,-0.34375 0,-0.20313 0.14063,-0.32813 0.15625,-0.14062 0.48437,-0.14062 h 1.71875 v -2.75 q 0,-0.32813 0.125,-0.46875 0.14063,-0.14063 0.32813,-0.14063 0.21875,0 0.34375,0.14063 0.14062,0.14062 0.14062,0.46875 z m 18.17407,9.57812 v -1.34375 q -2.03125,1.70313 -4.32812,1.70313 -1.67188,0 -2.60938,-0.84375 -0.9375,-0.84375 -0.9375,-2.07813 0,-1.34375 1.23438,-2.34375 1.25,-1.01562 3.625,-1.01562 0.64062,0 1.39062,0.0937 0.75,0.0781 1.625,0.25 v -1.5 q 0,-0.76563 -0.71875,-1.32813 -0.70312,-0.5625 -2.10937,-0.5625 -1.09375,0 -3.04688,0.625 -0.35937,0.10938 -0.45312,0.10938 -0.17188,0 -0.3125,-0.125 -0.125,-0.14063 -0.125,-0.32813 0,-0.20312 0.125,-0.3125 0.14062,-0.15625 1.25,-0.45312 1.71875,-0.45313 2.60937,-0.45313 1.75,0 2.73438,0.875 0.98437,0.85938 0.98437,1.95313 v 6.15625 h 1.25 q 0.32813,0 0.46875,0.125 0.15625,0.125 0.15625,0.32812 0,0.20313 -0.15625,0.34375 -0.14062,0.125 -0.46875,0.125 z m 0,-4.625 q -0.65625,-0.1875 -1.39062,-0.26562 -0.71875,-0.0937 -1.53125,-0.0937 -2.01563,0 -3.15625,0.875 -0.875,0.64062 -0.875,1.54687 0,0.84375 0.65625,1.42188 0.67187,0.57812 1.92187,0.57812 1.21875,0 2.25,-0.48437 1.03125,-0.48438 2.125,-1.53125 z m 15.47095,-9.26562 v 12.96875 h 1.25 q 0.34375,0 0.48437,0.125 0.14063,0.125 0.14063,0.32812 0,0.20313 -0.14063,0.34375 -0.14062,0.125 -0.48437,0.125 h -2.1875 v -1.84375 q -1.60938,2.20313 -4.09375,2.20313 -1.26563,0 -2.42188,-0.65625 -1.15625,-0.67188 -1.82812,-1.90625 -0.67188,-1.25 -0.67188,-2.5625 0,-1.32813 0.67188,-2.5625 0.67187,-1.23438 1.82812,-1.90625 1.15625,-0.67188 2.42188,-0.67188 2.4375,0 4.09375,2.20313 v -5.23438 h -1.23438 q -0.34375,0 -0.48437,-0.125 -0.14063,-0.14062 -0.14063,-0.35937 0,-0.20313 0.14063,-0.32813 0.14062,-0.14062 0.48437,-0.14062 z m -0.9375,9.125 q 0,-1.76563 -1.20313,-2.98438 -1.1875,-1.21875 -2.82812,-1.21875 -1.65625,0 -2.85938,1.21875 -1.1875,1.21875 -1.1875,2.98438 0,1.75 1.1875,2.98437 1.20313,1.21875 2.85938,1.21875 1.64062,0 2.82812,-1.21875 1.20313,-1.23437 1.20313,-2.98437 z m 12.65851,4.76562 v -1.34375 q -2.03125,1.70313 -4.32813,1.70313 -1.67187,0 -2.60937,-0.84375 -0.9375,-0.84375 -0.9375,-2.07813 0,-1.34375 1.23437,-2.34375 1.25,-1.01562 3.625,-1.01562 0.64063,0 1.39063,0.0937 0.75,0.0781 1.625,0.25 v -1.5 q 0,-0.76563 -0.71875,-1.32813 -0.70313,-0.5625 -2.10938,-0.5625 -1.09375,0 -3.04687,0.625 -0.35938,0.10938 -0.45313,0.10938 -0.17187,0 -0.3125,-0.125 -0.125,-0.14063 -0.125,-0.32813 0,-0.20312 0.125,-0.3125 0.14063,-0.15625 1.25,-0.45312 1.71875,-0.45313 2.60938,-0.45313 1.75,0 2.73437,0.875 0.98438,0.85938 0.98438,1.95313 v 6.15625 h 1.25 q 0.32812,0 0.46875,0.125 0.15625,0.125 0.15625,0.32812 0,0.20313 -0.15625,0.34375 -0.14063,0.125 -0.46875,0.125 z m 0,-4.625 q -0.65625,-0.1875 -1.39063,-0.26562 -0.71875,-0.0937 -1.53125,-0.0937 -2.01562,0 -3.15625,0.875 -0.875,0.64062 -0.875,1.54687 0,0.84375 0.65625,1.42188 0.67188,0.57812 1.92188,0.57812 1.21875,0 2.25,-0.48437 1.03125,-0.48438 2.125,-1.53125 z m 9.01782,-4.95312 h 5.04687 q 0.32813,0 0.46875,0.14062 0.14063,0.125 0.14063,0.32813 0,0.20312 -0.14063,0.34375 -0.14062,0.125 -0.46875,0.125 h -5.04687 v 6.1875 q 0,0.8125 0.64062,1.35937 0.65625,0.53125 1.90625,0.53125 0.9375,0 2.03125,-0.28125 1.09375,-0.28125 1.70313,-0.64062 0.21875,-0.14063 0.35937,-0.14063 0.1875,0 0.3125,0.14063 0.14063,0.14062 0.14063,0.32812 0,0.15625 -0.14063,0.29688 -0.35937,0.375 -1.73437,0.79687 -1.35938,0.42188 -2.60938,0.42188 -1.625,0 -2.59375,-0.75 -0.95312,-0.76563 -0.95312,-2.0625 v -6.1875 h -1.71875 q -0.32813,0 -0.48438,-0.125 -0.14062,-0.14063 -0.14062,-0.34375 0,-0.20313 0.14062,-0.32813 0.15625,-0.14062 0.48438,-0.14062 h 1.71875 v -2.75 q 0,-0.32813 0.125,-0.46875 0.14062,-0.14063 0.32812,-0.14063 0.21875,0 0.34375,0.14063 0.14063,0.14062 0.14063,0.46875 z m 18.17407,9.57812 v -1.34375 q -2.03125,1.70313 -4.32812,1.70313 -1.67188,0 -2.60938,-0.84375 -0.9375,-0.84375 -0.9375,-2.07813 0,-1.34375 1.23438,-2.34375 1.25,-1.01562 3.625,-1.01562 0.64062,0 1.39062,0.0937 0.75,0.0781 1.625,0.25 v -1.5 q 0,-0.76563 -0.71875,-1.32813 -0.70312,-0.5625 -2.10937,-0.5625 -1.09375,0 -3.04688,0.625 -0.35937,0.10938 -0.45312,0.10938 -0.17188,0 -0.3125,-0.125 -0.125,-0.14063 -0.125,-0.32813 0,-0.20312 0.125,-0.3125 0.14062,-0.15625 1.25,-0.45312 1.71875,-0.45313 2.60937,-0.45313 1.75,0 2.73438,0.875 0.98437,0.85938 0.98437,1.95313 v 6.15625 h 1.25 q 0.32813,0 0.46875,0.125 0.15625,0.125 0.15625,0.32812 0,0.20313 -0.15625,0.34375 -0.14062,0.125 -0.46875,0.125 z m 0,-4.625 q -0.65625,-0.1875 -1.39062,-0.26562 -0.71875,-0.0937 -1.53125,-0.0937 -2.01563,0 -3.15625,0.875 -0.875,0.64062 -0.875,1.54687 0,0.84375 0.65625,1.42188 0.67187,0.57812 1.92187,0.57812 1.21875,0 2.25,-0.48437 1.03125,-0.48438 2.125,-1.53125 z m 10.73657,1.95313 h 0.39063 q 0.625,0 1.0625,0.4375 0.4375,0.4375 0.4375,1.0625 0,0.64062 -0.45313,1.07812 -0.4375,0.42188 -1.04687,0.42188 h -0.39063 q -0.625,0 -1.07812,-0.4375 -0.4375,-0.4375 -0.4375,-1.04688 0,-0.64062 0.45312,-1.07812 0.45313,-0.4375 1.0625,-0.4375 z m 15.11164,-11.67188 v 2.39063 h -1.35938 v -2.39063 z m 0.0625,5.70313 h -5.51563 q -0.34375,0 -0.48437,-0.125 -0.14063,-0.14063 -0.14063,-0.34375 0,-0.20313 0.14063,-0.32813 0.14062,-0.14062 0.48437,-0.14062 h 6.4375 v 10.23437 q 0,1.1875 -0.48437,1.96875 -0.48438,0.79688 -1.45313,1.29688 -0.67187,0.34375 -1.60937,0.34375 h -2.95313 q -0.32812,0 -0.48437,-0.125 -0.14063,-0.125 -0.14063,-0.32813 0,-0.21875 0.14063,-0.35937 0.15625,-0.125 0.48437,-0.125 l 2.9375,0.0156 q 1.17188,0 1.90625,-0.78125 0.73438,-0.76562 0.73438,-1.90625 z m 15.28344,-0.32813 q 0,-0.32812 0.125,-0.46875 0.14063,-0.14062 0.32813,-0.14062 0.21875,0 0.34375,0.14062 0.14062,0.14063 0.14062,0.48438 v 1.59375 q 0,0.32812 -0.14062,0.48437 -0.125,0.14063 -0.34375,0.14063 -0.1875,0 -0.3125,-0.125 -0.125,-0.125 -0.14063,-0.39063 -0.0781,-0.67187 -0.6875,-1.10937 -0.90625,-0.60938 -2.40625,-0.60938 -1.5625,0 -2.42187,0.625 -0.65625,0.48438 -0.65625,1.0625 0,0.67188 0.78125,1.10938 0.53125,0.3125 2.01562,0.46875 1.9375,0.21875 2.6875,0.48437 1.0625,0.39063 1.59375,1.07813 0.53125,0.67187 0.53125,1.46875 0,1.1875 -1.14062,2.10937 -1.14063,0.92188 -3.34375,0.92188 -2.20313,0 -3.60938,-1.10938 0,0.375 -0.0469,0.48438 -0.0469,0.10937 -0.17188,0.1875 -0.10937,0.0781 -0.25,0.0781 -0.1875,0 -0.32812,-0.14062 -0.125,-0.14063 -0.125,-0.48438 v -1.90625 q 0,-0.32812 0.125,-0.46875 0.125,-0.15625 0.32812,-0.15625 0.20313,0 0.34375,0.14063 0.14063,0.14062 0.14063,0.375 0,0.5 0.25,0.84375 0.39062,0.53125 1.23437,0.89062 0.84375,0.34375 2.07813,0.34375 1.8125,0 2.6875,-0.67187 0.89062,-0.67188 0.89062,-1.4375 0,-0.85938 -0.89062,-1.375 -0.90625,-0.51563 -2.64063,-0.6875 -1.73437,-0.1875 -2.48437,-0.46875 -0.75,-0.29688 -1.17188,-0.875 -0.42187,-0.57813 -0.42187,-1.23438 0,-1.1875 1.17187,-1.89062 1.17188,-0.70313 2.79688,-0.70313 1.92187,0 3.14062,0.9375 z m 15.70533,4.20313 q 0,2.125 -1.51563,3.625 -1.51562,1.5 -3.67187,1.5 -2.15625,0 -3.67188,-1.5 -1.51562,-1.51563 -1.51562,-3.625 0,-2.125 1.51562,-3.625 1.51563,-1.51563 3.67188,-1.51563 2.15625,0 3.67187,1.5 1.51563,1.5 1.51563,3.64063 z m -0.9375,0 q 0,-1.75 -1.25,-2.96875 -1.23438,-1.23438 -3,-1.23438 -1.78125,0 -3.03125,1.23438 -1.23438,1.23437 -1.23438,2.96875 0,1.71875 1.23438,2.96875 1.25,1.23437 3.03125,1.23437 1.76562,0 3,-1.23437 1.25,-1.23438 1.25,-2.96875 z m 6.34594,-4.8125 v 1.40625 q 0.96875,-0.98438 1.75,-1.35938 0.79688,-0.375 1.78125,-0.375 1.0625,0 1.9375,0.45313 0.60938,0.32812 1.10938,1.09375 0.51562,0.76562 0.51562,1.57812 v 5.85938 h 0.78125 q 0.32813,0 0.46875,0.125 0.15625,0.125 0.15625,0.32812 0,0.20313 -0.15625,0.34375 -0.14062,0.125 -0.46875,0.125 h -2.48437 q -0.34375,0 -0.5,-0.125 -0.14063,-0.14062 -0.14063,-0.34375 0,-0.20312 0.14063,-0.32812 0.15625,-0.125 0.5,-0.125 h 0.76562 v -5.70313 q 0,-0.98437 -0.71875,-1.65625 -0.71875,-0.6875 -1.92187,-0.6875 -0.92188,0 -1.59375,0.375 -0.67188,0.35938 -1.92188,1.82813 v 5.84375 h 1.04688 q 0.32812,0 0.46875,0.125 0.15625,0.125 0.15625,0.32812 0,0.20313 -0.15625,0.34375 -0.14063,0.125 -0.46875,0.125 h -3.03125 q -0.32813,0 -0.48438,-0.125 -0.14062,-0.14062 -0.14062,-0.34375 0,-0.20312 0.14062,-0.32812 0.15625,-0.125 0.48438,-0.125 h 1.04687 v -7.71875 h -0.78125 q -0.32812,0 -0.48437,-0.125 -0.14063,-0.14063 -0.14063,-0.34375 0,-0.20313 0.14063,-0.32813 0.15625,-0.14062 0.48437,-0.14062 z"
       fill-rule="nonzero"
       id="path79" />
    <path
       fill="#bc83fb"
       d="m 77.58267,211.35113 h 52.34647 v -19.41836 h -17.44883 l 34.89763,-34.89763 34.89763,34.89763 h -17.4488 v 19.41836 h 52.34645 v 100.7706 H 77.582667 Z"
       fill-rule="evenodd"
       id="path81" />
    <path
       stroke="#303030"
       stroke-width="1"
       stroke-linejoin="round"
       stroke-linecap="butt"
       d="m 77.58267,211.35113 h 52.34647 v -19.41836 h -17.44883 l 34.89763,-34.89763 34.89763,34.89763 h -17.4488 v 19.41836 h 52.34645 v 100.7706 H 77.582667 Z"
       fill-rule="evenodd"
       id="path83" />
    <path
       fill="#000000"
       fill-opacity="0"
       d="m 78.40421,236.60467 h 139.59055 v 42.01575 H 78.40421 Z"
       fill-rule="evenodd"
       id="path85" />
    <path
       fill="#ffffff"
       d="m 96.01905,263.52467 v -13.26562 h 4.07812 q 1.75,0 3.125,0.79687 1.39063,0.78125 2.15625,2.23438 0.78125,1.45312 0.78125,3.29687 v 0.60938 q 0,1.85937 -0.76562,3.29687 -0.76563,1.4375 -2.15625,2.23438 -1.375,0.78125 -3.10938,0.79687 z m 2.734375,-11.04687 v 8.84375 h 1.312495 q 1.60938,0 2.45313,-1.04688 0.84375,-1.04687 0.85937,-2.98437 v -0.70313 q 0,-2.03125 -0.84375,-3.0625 -0.82812,-1.04687 -2.4375,-1.04687 z m 13.749745,11.23437 q -2.17188,0 -3.53125,-1.32812 -1.35938,-1.34375 -1.35938,-3.54688 v -0.26562 q 0,-1.48438 0.5625,-2.64063 0.57813,-1.17187 1.625,-1.79687 1.0625,-0.64063 2.40625,-0.64063 2.03125,0 3.1875,1.28125 1.15625,1.26563 1.15625,3.60938 v 1.0625 h -6.26562 q 0.125,0.96875 0.76562,1.5625 0.64063,0.57812 1.625,0.57812 1.51563,0 2.375,-1.10937 l 1.29688,1.45312 q -0.59375,0.84375 -1.60938,1.3125 -1,0.46875 -2.23437,0.46875 z m -0.29688,-8.09375 q -0.78125,0 -1.28125,0.53125 -0.48437,0.53125 -0.60937,1.51563 h 3.65625 v -0.21875 q -0.0156,-0.875 -0.48438,-1.34375 -0.45312,-0.48438 -1.28125,-0.48438 z m 9.41886,4.6875 1.82812,-6.64062 h 2.75 l -3.32812,9.85937 h -2.51563 l -3.3125,-9.85937 h 2.75 z m 10.15359,3.40625 q -2.17188,0 -3.53125,-1.32812 -1.35937,-1.34375 -1.35937,-3.54688 v -0.26562 q 0,-1.48438 0.5625,-2.64063 0.57812,-1.17187 1.62499,-1.79687 1.0625,-0.64063 2.40625,-0.64063 2.03125,0 3.1875,1.28125 1.15625,1.26563 1.15625,3.60938 v 1.0625 h -6.26562 q 0.125,0.96875 0.76562,1.5625 0.64063,0.57812 1.625,0.57812 1.51563,0 2.375,-1.10937 l 1.29688,1.45312 q -0.59375,0.84375 -1.60938,1.3125 -1,0.46875 -2.23437,0.46875 z m -0.29688,-8.09375 q -0.78125,0 -1.28125,0.53125 -0.48437,0.53125 -0.60937,1.51563 h 3.65625 v -0.21875 q -0.0156,-0.875 -0.48438,-1.34375 -0.45312,-0.48438 -1.28125,-0.48438 z m 8.63109,7.90625 h -2.65625 v -14 h 2.65625 z m 1.74333,-5.01562 q 0,-1.46875 0.56252,-2.60938 0.57813,-1.15625 1.64063,-1.78125 1.0625,-0.625 2.45312,-0.625 2,0 3.26563,1.21875 1.26562,1.21875 1.40625,3.3125 l 0.0156,0.67188 q 0,2.26562 -1.26562,3.64062 -1.26563,1.375 -3.40625,1.375 -2.125,0 -3.40625,-1.35937 -1.26565,-1.375 -1.26565,-3.73438 z m 2.64065,0.1875 q 0,1.40625 0.53125,2.15625 0.53125,0.73437 1.51562,0.73437 0.95313,0 1.48438,-0.73437 0.54687,-0.73438 0.54687,-2.34375 0,-1.375 -0.54687,-2.125 -0.53125,-0.76563 -1.51563,-0.76563 -0.95312,0 -1.48437,0.75 -0.53125,0.75 -0.53125,2.32813 z m 17.20504,-0.0156 q 0,2.28125 -1.04687,3.65625 -1.03125,1.375 -2.78125,1.375 -1.5,0 -2.42188,-1.04687 v 4.65625 h -2.625 v -13.65625 h 2.4375 l 0.0937,0.96875 q 0.95313,-1.14063 2.5,-1.14063 1.8125,0 2.82813,1.34375 1.01562,1.34375 1.01562,3.71875 z m -2.64062,-0.1875 q 0,-1.375 -0.48438,-2.10937 -0.48437,-0.75 -1.42187,-0.75 -1.23438,0 -1.70313,0.9375 v 4.03125 q 0.48438,0.98437 1.71875,0.98437 1.89063,0 1.89063,-3.09375 z m 8.80011,5.21875 q -2.17186,0 -3.53124,-1.32812 -1.35937,-1.34375 -1.35937,-3.54688 v -0.26562 q 0,-1.48438 0.5625,-2.64063 0.57812,-1.17187 1.625,-1.79687 1.0625,-0.64063 2.40623,-0.64063 2.03125,0 3.1875,1.28125 1.15625,1.26563 1.15625,3.60938 v 1.0625 h -6.26561 q 0.125,0.96875 0.76563,1.5625 0.64061,0.57812 1.62498,0.57812 1.51563,0 2.375,-1.10937 l 1.29688,1.45312 q -0.59375,0.84375 -1.60938,1.3125 -1,0.46875 -2.23437,0.46875 z m -0.29688,-8.09375 q -0.78125,0 -1.28123,0.53125 -0.48438,0.53125 -0.60938,1.51563 h 3.65624 v -0.21875 q -0.0156,-0.875 -0.48438,-1.34375 -0.45312,-0.48438 -1.28125,-0.48438 z m 11.38111,0.51563 q -0.53125,-0.0625 -0.9375,-0.0625 -1.5,0 -1.96875,1 v 6.45312 h -2.625 v -9.85937 h 2.48437 l 0.0781,1.17187 q 0.78125,-1.34375 2.1875,-1.34375 0.4375,0 0.82812,0.10938 z m 16.12249,-5.875 v 8.73437 q 0,2.1875 -1.35937,3.45313 -1.35938,1.26562 -3.71875,1.26562 -2.32813,0 -3.70313,-1.23437 -1.35937,-1.23438 -1.375,-3.375 v -8.84375 h 2.73438 v 8.75 q 0,1.3125 0.60937,1.90625 0.625,0.59375 1.73438,0.59375 2.29687,0 2.34375,-2.42188 v -8.82812 z m 5.15461,13.26562 h -2.73438 v -13.26562 h 2.73438 z"
       fill-rule="nonzero"
       id="path87" />
    <path
       fill="#bc83fb"
       d="m 365.58266,211.35113 h 52.34647 V 191.93277 H 400.4803 l 34.89765,-34.89763 34.89764,34.89763 h -17.44885 v 19.41836 h 52.3465 v 100.7706 H 365.58266 Z"
       fill-rule="evenodd"
       id="path89" />
    <path
       stroke="#303030"
       stroke-width="1"
       stroke-linejoin="round"
       stroke-linecap="butt"
       d="m 365.58266,211.35113 h 52.34647 V 191.93277 H 400.4803 l 34.89765,-34.89763 34.89764,34.89763 h -17.44885 v 19.41836 h 52.3465 v 100.7706 H 365.58266 Z"
       fill-rule="evenodd"
       id="path91" />
    <path
       fill="#000000"
       fill-opacity="0"
       d="m 366.40421,236.60467 h 139.59052 v 42.01575 H 366.40421 Z"
       fill-rule="evenodd"
       id="path93" />
    <path
       fill="#ffffff"
       d="m 399.89521,258.50905 q 0,-1.46875 0.5625,-2.60938 0.57813,-1.15625 1.64063,-1.78125 1.0625,-0.625 2.45312,-0.625 2,0 3.26563,1.21875 1.26562,1.21875 1.40625,3.3125 l 0.0156,0.67188 q 0,2.26562 -1.26562,3.64062 -1.26563,1.375 -3.40625,1.375 -2.125,0 -3.40625,-1.35937 -1.26563,-1.375 -1.26563,-3.73438 z m 2.64063,0.1875 q 0,1.40625 0.53125,2.15625 0.53125,0.73437 1.51562,0.73437 0.95313,0 1.48438,-0.73437 0.54687,-0.73438 0.54687,-2.34375 0,-1.375 -0.54687,-2.125 -0.53125,-0.76563 -1.51563,-0.76563 -0.95312,0 -1.48437,0.75 -0.53125,0.75 -0.53125,2.32813 z m 10.75192,-5.03125 0.0781,1.14062 q 1.0625,-1.3125 2.82813,-1.3125 1.57812,0 2.34375,0.92188 0.76562,0.90625 0.78125,2.73437 v 6.375 h -2.64063 v -6.29687 q 0,-0.84375 -0.35937,-1.21875 -0.35938,-0.375 -1.21875,-0.375 -1.10938,0 -1.65625,0.9375 v 6.95312 h -2.64063 v -9.85937 z m 13.13611,5.23437 h -5.125 v -2.10937 h 5.125 z m 6.21728,2.6875 q 0.73438,0 1.1875,-0.39062 0.45313,-0.40625 0.46875,-1.07813 h 2.46875 q 0,1 -0.54687,1.84375 -0.53125,0.82813 -1.46875,1.29688 -0.9375,0.45312 -2.0625,0.45312 -2.10938,0 -3.34375,-1.34375 -1.21875,-1.34375 -1.21875,-3.71875 v -0.17187 q 0,-2.28125 1.21875,-3.625 1.21875,-1.35938 3.32812,-1.35938 1.84375,0 2.95313,1.04688 1.125,1.04687 1.14062,2.79687 h -2.46875 q -0.0156,-0.76562 -0.46875,-1.23437 -0.45312,-0.48438 -1.20312,-0.48438 -0.92188,0 -1.39063,0.67188 -0.46875,0.67187 -0.46875,2.17187 v 0.26563 q 0,1.53125 0.45313,2.20312 0.46875,0.65625 1.42187,0.65625 z m 8.19769,-6.84375 q 1.04688,-1.25 2.64063,-1.25 3.20312,0 3.25,3.71875 v 6.3125 h -2.64063 v -6.23437 q 0,-0.85938 -0.35937,-1.25 -0.35938,-0.40625 -1.21875,-0.40625 -1.15625,0 -1.67188,0.89062 v 7 h -2.625 v -14 h 2.625 z m 13.58014,8.78125 q -0.17187,-0.35937 -0.26562,-0.89062 -0.95313,1.07812 -2.48438,1.07812 -1.45312,0 -2.40625,-0.84375 -0.9375,-0.84375 -0.9375,-2.10937 0,-1.57813 1.15625,-2.40625 1.15625,-0.84375 3.35938,-0.84375 h 1.20312 v -0.57813 q 0,-0.67187 -0.35937,-1.07812 -0.34375,-0.42188 -1.09375,-0.42188 -0.65625,0 -1.04688,0.32813 -0.375,0.3125 -0.375,0.875 h -2.625 q 0,-0.85938 0.51563,-1.57813 0.53125,-0.73437 1.5,-1.14062 0.96875,-0.42188 2.17187,-0.42188 1.8125,0 2.875,0.92188 1.07813,0.90625 1.07813,2.5625 v 4.26562 q 0.0156,1.40625 0.39062,2.125 v 0.15625 z m -2.17187,-1.82812 q 0.57812,0 1.0625,-0.25 0.5,-0.26563 0.73437,-0.70313 v -1.70312 h -0.98437 q -1.96875,0 -2.09375,1.375 l -0.0156,0.15625 q 0,0.48437 0.34375,0.8125 0.34375,0.3125 0.95313,0.3125 z m 9.25219,1.82812 h -2.65625 v -9.85937 h 2.65625 z m -2.79687,-12.40625 q 0,-0.59375 0.39062,-0.96875 0.39063,-0.39062 1.07813,-0.39062 0.67187,0 1.0625,0.39062 0.40625,0.375 0.40625,0.96875 0,0.59375 -0.40625,0.98438 -0.39063,0.375 -1.0625,0.375 -0.67188,0 -1.07813,-0.375 -0.39062,-0.39063 -0.39062,-0.98438 z m 7.38397,2.54688 0.0781,1.14062 q 1.0625,-1.3125 2.82812,-1.3125 1.57813,0 2.34375,0.92188 0.76563,0.90625 0.78125,2.73437 v 6.375 H 469.477 v -6.29687 q 0,-0.84375 -0.35938,-1.21875 -0.35937,-0.375 -1.21875,-0.375 -1.10937,0 -1.65625,0.9375 v 6.95312 H 463.602 v -9.85937 z"
       fill-rule="nonzero"
       id="path95" />
    <path
       fill="#bc83fb"
       d="m 621.58266,211.35113 h 52.34644 v -19.41836 h -17.4488 l 34.89765,-34.89763 34.89764,34.89763 h -17.44885 v 19.41836 h 52.3465 v 100.7706 H 621.58266 Z"
       fill-rule="evenodd"
       id="path97" />
    <path
       stroke="#303030"
       stroke-width="1"
       stroke-linejoin="round"
       stroke-linecap="butt"
       d="m 621.58266,211.35113 h 52.34644 v -19.41836 h -17.4488 l 34.89765,-34.89763 34.89764,34.89763 h -17.44885 v 19.41836 h 52.3465 v 100.7706 H 621.58266 Z"
       fill-rule="evenodd"
       id="path99" />
    <path
       fill="#000000"
       fill-opacity="0"
       d="m 622.40421,236.60467 h 139.59052 v 42.01575 H 622.40421 Z"
       fill-rule="evenodd"
       id="path101" />
    <path
       fill="#ffffff"
       d="m 671.82022,263.52467 v -13.26562 h 4.07812 q 1.75,0 3.125,0.79687 1.39063,0.78125 2.15625,2.23438 0.78125,1.45312 0.78125,3.29687 v 0.60938 q 0,1.85937 -0.76562,3.29687 -0.76563,1.4375 -2.15625,2.23438 -1.375,0.78125 -3.10938,0.79687 z m 2.73437,-11.04687 v 8.84375 h 1.3125 q 1.60938,0 2.45313,-1.04688 0.84375,-1.04687 0.85937,-2.98437 v -0.70313 q 0,-2.03125 -0.84375,-3.0625 -0.82812,-1.04687 -2.4375,-1.04687 z m 14.92164,11.04687 q -0.17188,-0.35937 -0.26563,-0.89062 -0.95312,1.07812 -2.48437,1.07812 -1.45313,0 -2.40625,-0.84375 -0.9375,-0.84375 -0.9375,-2.10937 0,-1.57813 1.15625,-2.40625 1.15625,-0.84375 3.35937,-0.84375 h 1.20313 v -0.57813 q 0,-0.67187 -0.35938,-1.07812 -0.34375,-0.42188 -1.09375,-0.42188 -0.65625,0 -1.04687,0.32813 -0.375,0.3125 -0.375,0.875 h -2.625 q 0,-0.85938 0.51562,-1.57813 0.53125,-0.73437 1.5,-1.14062 0.96875,-0.42188 2.17188,-0.42188 1.8125,0 2.875,0.92188 1.07812,0.90625 1.07812,2.5625 v 4.26562 q 0.0156,1.40625 0.39063,2.125 v 0.15625 z m -2.17188,-1.82812 q 0.57813,0 1.0625,-0.25 0.5,-0.26563 0.73438,-0.70313 v -1.70312 h -0.98438 q -1.96875,0 -2.09375,1.375 l -0.0156,0.15625 q 0,0.48437 0.34375,0.8125 0.34375,0.3125 0.95312,0.3125 z m 15.34601,-3.01563 q 0,2.28125 -1.04688,3.65625 -1.03125,1.375 -2.78125,1.375 -1.5,0 -2.42187,-1.04687 v 4.65625 h -2.625 V 253.6653 h 2.4375 l 0.0937,0.96875 q 0.95312,-1.14063 2.5,-1.14063 1.8125,0 2.82812,1.34375 1.01563,1.34375 1.01563,3.71875 z m -2.64063,-0.1875 q 0,-1.375 -0.48437,-2.10937 -0.48438,-0.75 -1.42188,-0.75 -1.23437,0 -1.70312,0.9375 v 4.03125 q 0.48437,0.98437 1.71875,0.98437 1.89062,0 1.89062,-3.09375 z m 13.14386,0.1875 q 0,2.28125 -1.04687,3.65625 -1.03125,1.375 -2.78125,1.375 -1.5,0 -2.42188,-1.04687 v 4.65625 h -2.625 V 253.6653 h 2.4375 l 0.0937,0.96875 q 0.95313,-1.14063 2.5,-1.14063 1.8125,0 2.82813,1.34375 1.01562,1.34375 1.01562,3.71875 z m -2.64062,-0.1875 q 0,-1.375 -0.48438,-2.10937 -0.48437,-0.75 -1.42187,-0.75 -1.23438,0 -1.70313,0.9375 v 4.03125 q 0.48438,0.98437 1.71875,0.98437 1.89063,0 1.89063,-3.09375 z"
       fill-rule="nonzero"
       id="path103" />
    <path
       fill="#ffffff"
       d="m 257.68514,5.70312 v -0.3125 q 0,-0.34375 0.125,-0.48437 0.14062,-0.14063 0.34375,-0.14063 0.20312,0 0.32812,0.14063 0.14063,0.14062 0.14063,0.48437 V 7.5 q 0,0.34375 -0.14063,0.48437 -0.125,0.14063 -0.32812,0.14063 -0.1875,0 -0.3125,-0.125 -0.125,-0.125 -0.15625,-0.42188 -0.0625,-0.79687 -1.03125,-1.5 -0.96875,-0.70312 -2.60938,-0.70312 -2.0625,0 -3.14062,1.29687 -1.0625,1.28125 -1.0625,2.95313 0,1.8125 1.17187,2.98437 1.1875,1.17188 3.0625,1.17188 1.09375,0 2.21875,-0.39063 1.125,-0.40625 2.03125,-1.29687 0.21875,-0.21875 0.40625,-0.21875 0.1875,0 0.3125,0.125 0.125,0.125 0.125,0.3125 0,0.48437 -1.10937,1.21875 -1.8125,1.17187 -4.01563,1.17187 -2.25,0 -3.70312,-1.42187 -1.4375,-1.4375 -1.4375,-3.64063 0,-2.25 1.46875,-3.71875 1.48437,-1.48437 3.73437,-1.48437 2.125,0 3.57813,1.26562 z m 12.39285,8.64063 V 13 q -2.03125,1.70312 -4.32812,1.70312 -1.67188,0 -2.60938,-0.84375 -0.9375,-0.84375 -0.9375,-2.07812 0,-1.34375 1.23438,-2.34375 1.25,-1.01563 3.625,-1.01563 0.64062,0 1.39062,0.0937 0.75,0.0781 1.625,0.25 v -1.5 q 0,-0.76562 -0.71875,-1.32812 -0.70312,-0.5625 -2.10937,-0.5625 -1.09375,0 -3.04688,0.625 -0.35937,0.10937 -0.45312,0.10937 -0.17188,0 -0.3125,-0.125 -0.125,-0.14062 -0.125,-0.32812 0,-0.20313 0.125,-0.3125 0.14062,-0.15625 1.25,-0.45313 1.71875,-0.45312 2.60937,-0.45312 1.75,0 2.73438,0.875 0.98437,0.85937 0.98437,1.95312 v 6.15625 h 1.25 q 0.32813,0 0.46875,0.125 0.15625,0.125 0.15625,0.32813 0,0.20312 -0.15625,0.34375 -0.14062,0.125 -0.46875,0.125 z m 0,-4.625 q -0.65625,-0.1875 -1.39062,-0.26563 -0.71875,-0.0937 -1.53125,-0.0937 -2.01563,0 -3.15625,0.875 -0.875,0.64063 -0.875,1.54688 0,0.84375 0.65625,1.42187 0.67187,0.57813 1.92187,0.57813 1.21875,0 2.25,-0.48438 1.03125,-0.48437 2.125,-1.53125 z m 9.8147,-4.95313 V 7.10937 Q 281.70519,5.46875 282.59581,5 q 0.90625,-0.46875 1.67188,-0.46875 0.82812,0 1.54687,0.5625 0.71875,0.5625 0.71875,0.84375 0,0.20312 -0.14062,0.34375 -0.14063,0.14062 -0.34375,0.14062 -0.125,0 -0.20313,-0.0312 -0.0625,-0.0469 -0.28125,-0.25 -0.39062,-0.39062 -0.67187,-0.53125 -0.28125,-0.15625 -0.5625,-0.15625 -0.60938,0 -1.46875,0.5 -0.85938,0.48438 -2.96875,2.375 v 5.09375 h 4.10937 q 0.34375,0 0.48438,0.125 0.15625,0.125 0.15625,0.32813 0,0.20312 -0.15625,0.34375 -0.14063,0.125 -0.48438,0.125 h -7.28125 q -0.34375,0 -0.48437,-0.125 -0.14063,-0.125 -0.14063,-0.32813 0,-0.1875 0.14063,-0.3125 0.14062,-0.125 0.48437,-0.125 h 2.23438 v -7.75 h -1.70313 q -0.34375,0 -0.48437,-0.125 -0.14063,-0.14062 -0.14063,-0.34375 0,-0.20312 0.14063,-0.32812 0.14062,-0.14063 0.48437,-0.14063 z m 17.83032,1.70313 V 4.76562 h 2.1875 q 0.32813,0 0.46875,0.14063 0.14063,0.125 0.14063,0.32812 0,0.20313 -0.14063,0.34375 -0.14062,0.125 -0.46875,0.125 h -1.25 v 9.28125 q 0,0.9375 -0.40625,1.65625 -0.26562,0.48438 -0.89062,1 -0.60938,0.53125 -1.125,0.75 -0.5,0.21875 -1.35938,0.21875 h -2.625 q -0.34375,0 -0.48437,-0.125 -0.14063,-0.125 -0.14063,-0.32812 0,-0.21875 0.14063,-0.35938 0.14062,-0.125 0.48437,-0.125 l 2.65625,0.0156 q 0.82813,0 1.48438,-0.42188 0.65625,-0.42187 1.09375,-1.23437 0.23437,-0.45313 0.23437,-1.17188 v -2.79687 q -1.48437,2.04687 -3.84375,2.04687 -1.92187,0 -3.3125,-1.42187 -1.375,-1.42188 -1.375,-3.42188 0,-2 1.375,-3.40625 1.39063,-1.42187 3.3125,-1.42187 2.35938,0 3.84375,2.03125 z m 0,2.79687 q 0,-1.64062 -1.125,-2.76562 -1.125,-1.125 -2.67187,-1.125 -1.5625,0 -2.6875,1.14062 -1.10938,1.125 -1.10938,2.75 0,1.64063 1.10938,2.78125 1.125,1.125 2.6875,1.125 1.54687,0 2.67187,-1.125 1.125,-1.14062 1.125,-2.78125 z m 15.65848,0.3125 q 0,2.125 -1.51562,3.625 -1.51563,1.5 -3.67188,1.5 -2.15625,0 -3.67187,-1.5 -1.51563,-1.51562 -1.51563,-3.625 0,-2.125 1.51563,-3.625 1.51562,-1.51562 3.67187,-1.51562 2.15625,0 3.67188,1.5 1.51562,1.5 1.51562,3.64062 z m -0.9375,0 q 0,-1.75 -1.25,-2.96875 -1.23437,-1.23437 -3,-1.23437 -1.78125,0 -3.03125,1.23437 -1.23437,1.23438 -1.23437,2.96875 0,1.71875 1.23437,2.96875 1.25,1.23438 3.03125,1.23438 1.76563,0 3,-1.23438 1.25,-1.23437 1.25,-2.96875 z m 14.08035,-2.29687 v 1.32812 h -9.46875 V 7.28125 Z m 12.73658,-1.57813 v -0.3125 q 0,-0.34375 0.125,-0.48437 0.14062,-0.14063 0.34375,-0.14063 0.20312,0 0.32812,0.14063 0.14063,0.14062 0.14063,0.48437 V 7.5 q 0,0.34375 -0.14063,0.48437 -0.125,0.14063 -0.32812,0.14063 -0.1875,0 -0.3125,-0.125 -0.125,-0.125 -0.15625,-0.42188 -0.0625,-0.79687 -1.03125,-1.5 -0.96875,-0.70312 -2.60938,-0.70312 -2.0625,0 -3.14062,1.29687 -1.0625,1.28125 -1.0625,2.95313 0,1.8125 1.17187,2.98437 1.1875,1.17188 3.0625,1.17188 1.09375,0 2.21875,-0.39063 1.125,-0.40625 2.03125,-1.29687 0.21875,-0.21875 0.40625,-0.21875 0.1875,0 0.3125,0.125 0.125,0.125 0.125,0.3125 0,0.48437 -1.10937,1.21875 -1.8125,1.17187 -4.01563,1.17187 -2.25,0 -3.70312,-1.42187 -1.4375,-1.4375 -1.4375,-3.64063 0,-2.25 1.46875,-3.71875 1.48437,-1.48437 3.73437,-1.48437 2.125,0 3.57813,1.26562 z m 14.90844,3.875 q 0,2.125 -1.51562,3.625 -1.51563,1.5 -3.67188,1.5 -2.15625,0 -3.67187,-1.5 -1.51563,-1.51562 -1.51563,-3.625 0,-2.125 1.51563,-3.625 1.51562,-1.51562 3.67187,-1.51562 2.15625,0 3.67188,1.5 1.51562,1.5 1.51562,3.64062 z m -0.9375,0 q 0,-1.75 -1.25,-2.96875 -1.23437,-1.23437 -3,-1.23437 -1.78125,0 -3.03125,1.23437 -1.23437,1.23438 -1.23437,2.96875 0,1.71875 1.23437,2.96875 1.25,1.23438 3.03125,1.23438 1.76563,0 3,-1.23438 1.25,-1.23437 1.25,-2.96875 z m 6.34598,-4.8125 v 1.40625 q 0.96875,-0.98437 1.75,-1.35937 0.79688,-0.375 1.78125,-0.375 1.0625,0 1.9375,0.45312 0.60938,0.32813 1.10938,1.09375 0.51562,0.76563 0.51562,1.57813 v 5.85937 h 0.78125 q 0.32813,0 0.46875,0.125 0.15625,0.125 0.15625,0.32813 0,0.20312 -0.15625,0.34375 -0.14062,0.125 -0.46875,0.125 h -2.48437 q -0.34375,0 -0.5,-0.125 -0.14063,-0.14063 -0.14063,-0.34375 0,-0.20313 0.14063,-0.32813 0.15625,-0.125 0.5,-0.125 h 0.76562 V 7.71875 q 0,-0.98438 -0.71875,-1.65625 -0.71875,-0.6875 -1.92187,-0.6875 -0.92188,0 -1.59375,0.375 -0.67188,0.35937 -1.92188,1.82812 v 5.84375 h 1.04688 q 0.32812,0 0.46875,0.125 0.15625,0.125 0.15625,0.32813 0,0.20312 -0.15625,0.34375 -0.14063,0.125 -0.46875,0.125 h -3.03125 q -0.32813,0 -0.48438,-0.125 -0.14062,-0.14063 -0.14062,-0.34375 0,-0.20313 0.14062,-0.32813 0.15625,-0.125 0.48438,-0.125 h 1.04687 V 5.70312 h -0.78125 q -0.32812,0 -0.48437,-0.125 -0.14063,-0.14062 -0.14063,-0.34375 0,-0.20312 0.14063,-0.32812 0.15625,-0.14063 0.48437,-0.14063 z m 14.68973,0 h 5.04687 q 0.32813,0 0.46875,0.14063 0.14063,0.125 0.14063,0.32812 0,0.20313 -0.14063,0.34375 -0.14062,0.125 -0.46875,0.125 h -5.04687 v 6.1875 q 0,0.8125 0.64062,1.35938 0.65625,0.53125 1.90625,0.53125 0.9375,0 2.03125,-0.28125 1.09375,-0.28125 1.70313,-0.64063 0.21875,-0.14062 0.35937,-0.14062 0.1875,0 0.3125,0.14062 0.14063,0.14063 0.14063,0.32813 0,0.15625 -0.14063,0.29687 -0.35937,0.375 -1.73437,0.79688 -1.35938,0.42187 -2.60938,0.42187 -1.625,0 -2.59375,-0.75 -0.95312,-0.76562 -0.95312,-2.0625 v -6.1875 h -1.71875 q -0.32813,0 -0.48438,-0.125 -0.14062,-0.14062 -0.14062,-0.34375 0,-0.20312 0.14062,-0.32812 0.15625,-0.14063 0.48438,-0.14063 h 1.71875 v -2.75 q 0,-0.32812 0.125,-0.46875 0.14062,-0.14062 0.32812,-0.14062 0.21875,0 0.34375,0.14062 0.14063,0.14063 0.14063,0.46875 z m 14.39282,0 V 7.10937 Q 390.47289,5.46875 391.36352,5 q 0.90625,-0.46875 1.67187,-0.46875 0.82813,0 1.54688,0.5625 0.71875,0.5625 0.71875,0.84375 0,0.20312 -0.14063,0.34375 -0.14062,0.14062 -0.34375,0.14062 -0.125,0 -0.20312,-0.0312 -0.0625,-0.0469 -0.28125,-0.25 -0.39063,-0.39062 -0.67188,-0.53125 -0.28125,-0.15625 -0.5625,-0.15625 -0.60937,0 -1.46875,0.5 -0.85937,0.48438 -2.96875,2.375 v 5.09375 h 4.10938 q 0.34375,0 0.48437,0.125 0.15625,0.125 0.15625,0.32813 0,0.20312 -0.15625,0.34375 -0.14062,0.125 -0.48437,0.125 h -7.28125 q -0.34375,0 -0.48438,-0.125 -0.14062,-0.125 -0.14062,-0.32813 0,-0.1875 0.14062,-0.3125 0.14063,-0.125 0.48438,-0.125 h 2.23437 v -7.75 h -1.70312 q -0.34375,0 -0.48438,-0.125 -0.14062,-0.14062 -0.14062,-0.34375 0,-0.20312 0.14062,-0.32812 0.14063,-0.14063 0.48438,-0.14063 z m 17.3772,9.57813 V 13 q -2.03125,1.70312 -4.32813,1.70312 -1.67187,0 -2.60937,-0.84375 -0.9375,-0.84375 -0.9375,-2.07812 0,-1.34375 1.23437,-2.34375 1.25,-1.01563 3.625,-1.01563 0.64063,0 1.39063,0.0937 0.75,0.0781 1.625,0.25 v -1.5 q 0,-0.76562 -0.71875,-1.32812 -0.70313,-0.5625 -2.10938,-0.5625 -1.09375,0 -3.04687,0.625 -0.35938,0.10937 -0.45313,0.10937 -0.17187,0 -0.3125,-0.125 -0.125,-0.14062 -0.125,-0.32812 0,-0.20313 0.125,-0.3125 0.14063,-0.15625 1.25,-0.45313 1.71875,-0.45312 2.60938,-0.45312 1.75,0 2.73437,0.875 0.98438,0.85937 0.98438,1.95312 v 6.15625 h 1.25 q 0.32812,0 0.46875,0.125 0.15625,0.125 0.15625,0.32813 0,0.20312 -0.15625,0.34375 -0.14063,0.125 -0.46875,0.125 z m 0,-4.625 q -0.65625,-0.1875 -1.39063,-0.26563 -0.71875,-0.0937 -1.53125,-0.0937 -2.01562,0 -3.15625,0.875 -0.875,0.64063 -0.875,1.54688 0,0.84375 0.65625,1.42187 0.67188,0.57813 1.92188,0.57813 1.21875,0 2.25,-0.48438 1.03125,-0.48437 2.125,-1.53125 z m 14.7991,-4.01563 v -0.3125 q 0,-0.34375 0.125,-0.48437 0.14063,-0.14063 0.34375,-0.14063 0.20313,0 0.32813,0.14063 0.14062,0.14062 0.14062,0.48437 V 7.5 q 0,0.34375 -0.14062,0.48437 -0.125,0.14063 -0.32813,0.14063 -0.1875,0 -0.3125,-0.125 -0.125,-0.125 -0.15625,-0.42188 -0.0625,-0.79687 -1.03125,-1.5 -0.96875,-0.70312 -2.60937,-0.70312 -2.0625,0 -3.14063,1.29687 -1.0625,1.28125 -1.0625,2.95313 0,1.8125 1.17188,2.98437 1.1875,1.17188 3.0625,1.17188 1.09375,0 2.21875,-0.39063 1.125,-0.40625 2.03125,-1.29687 0.21875,-0.21875 0.40625,-0.21875 0.1875,0 0.3125,0.125 0.125,0.125 0.125,0.3125 0,0.48437 -1.10938,1.21875 -1.8125,1.17187 -4.01562,1.17187 -2.25,0 -3.70313,-1.42187 -1.4375,-1.4375 -1.4375,-3.64063 0,-2.25 1.46875,-3.71875 1.48438,-1.48437 3.73438,-1.48437 2.125,0 3.57812,1.26562 z m 7.8147,-0.9375 h 5.04687 q 0.32813,0 0.46875,0.14063 0.14063,0.125 0.14063,0.32812 0,0.20313 -0.14063,0.34375 -0.14062,0.125 -0.46875,0.125 h -5.04687 v 6.1875 q 0,0.8125 0.64062,1.35938 0.65625,0.53125 1.90625,0.53125 0.9375,0 2.03125,-0.28125 1.09375,-0.28125 1.70313,-0.64063 0.21875,-0.14062 0.35937,-0.14062 0.1875,0 0.3125,0.14062 0.14063,0.14063 0.14063,0.32813 0,0.15625 -0.14063,0.29687 -0.35937,0.375 -1.73437,0.79688 -1.35938,0.42187 -2.60938,0.42187 -1.625,0 -2.59375,-0.75 -0.95312,-0.76562 -0.95312,-2.0625 v -6.1875 h -1.71875 q -0.32813,0 -0.48438,-0.125 -0.14062,-0.14062 -0.14062,-0.34375 0,-0.20312 0.14062,-0.32812 0.15625,-0.14063 0.48438,-0.14063 h 1.71875 v -2.75 q 0,-0.32812 0.125,-0.46875 0.14062,-0.14062 0.32812,-0.14062 0.21875,0 0.34375,0.14062 0.14063,0.14063 0.14063,0.46875 z m 35.42627,3.5625 h -12.67188 q -0.32812,0 -0.46875,-0.125 -0.15625,-0.14062 -0.15625,-0.34375 0,-0.20312 0.15625,-0.32812 0.14063,-0.14063 0.46875,-0.14063 h 12.67188 q 0.34375,0 0.48437,0.14063 0.14063,0.125 0.14063,0.32812 0,0.20313 -0.14063,0.34375 -0.14062,0.125 -0.48437,0.125 z m 3.76788,-7.875 V 6.625 q 1.6875,-2.1875 4.0625,-2.1875 2.03125,0 3.48438,1.48437 1.45312,1.46875 1.45312,3.60938 0,2.17187 -1.46875,3.67187 -1.46875,1.5 -3.46875,1.5 -2.4375,0 -4.0625,-2.1875 v 1.82813 h -2.17187 q -0.34375,0 -0.48438,-0.125 -0.14062,-0.14063 -0.14062,-0.34375 0,-0.20313 0.14062,-0.32813 0.14063,-0.125 0.48438,-0.125 h 1.25 V 1.40625 h -1.25 q -0.34375,0 -0.48438,-0.125 -0.14062,-0.14063 -0.14062,-0.35938 0,-0.20312 0.14062,-0.32812 0.14063,-0.14063 0.48438,-0.14063 z m 8.0625,9.125 q 0,-1.76562 -1.20312,-2.98437 -1.20313,-1.21875 -2.82813,-1.21875 -1.60937,0 -2.8125,1.21875 -1.20312,1.21875 -1.20312,2.98437 0,1.75 1.20312,2.98438 1.20313,1.21875 2.8125,1.21875 1.625,0 2.82813,-1.21875 1.20312,-1.23438 1.20312,-2.98438 z m 12.22095,4.76563 v -1.35938 q -1.90625,1.71875 -4.125,1.71875 -1.35938,0 -2.0625,-0.73437 Q 481.01961,13 481.01961,11.70312 v -6 h -1.25 q -0.32812,0 -0.48437,-0.125 -0.14063,-0.14062 -0.14063,-0.34375 0,-0.20312 0.14063,-0.32812 0.15625,-0.14063 0.48437,-0.14063 h 2.1875 v 6.9375 q 0,0.90625 0.5625,1.5 0.57813,0.57813 1.4375,0.57813 2.28125,0 4.17188,-2.07813 v -6 h -1.71875 q -0.32813,0 -0.48438,-0.125 -0.14062,-0.14062 -0.14062,-0.34375 0,-0.20312 0.14062,-0.32812 0.15625,-0.14063 0.48438,-0.14063 h 2.64062 v 8.65625 h 0.78125 q 0.34375,0 0.48438,0.125 0.14062,0.125 0.14062,0.32813 0,0.20312 -0.14062,0.34375 -0.14063,0.125 -0.48438,0.125 z M 498.99056,0 v 2.39062 h -1.35938 V 0 Z m 0.0469,4.76562 v 8.65625 h 3.64063 q 0.34375,0 0.48437,0.125 0.15625,0.125 0.15625,0.32813 0,0.20312 -0.15625,0.34375 -0.14062,0.125 -0.48437,0.125 h -8.23438 q -0.32812,0 -0.46875,-0.125 -0.14062,-0.14063 -0.14062,-0.34375 0,-0.20313 0.14062,-0.32813 0.14063,-0.125 0.46875,-0.125 h 3.65625 V 5.70312 h -2.70312 q -0.34375,0 -0.5,-0.125 -0.14063,-0.14062 -0.14063,-0.34375 0,-0.20312 0.14063,-0.32812 0.15625,-0.14063 0.5,-0.14063 z m 13.5647,-4.3125 v 12.96875 h 3.65625 q 0.34375,0 0.48438,0.125 0.14062,0.125 0.14062,0.32813 0,0.20312 -0.14062,0.34375 -0.14063,0.125 -0.48438,0.125 h -8.23437 q -0.32813,0 -0.48438,-0.125 -0.14062,-0.14063 -0.14062,-0.34375 0,-0.20313 0.14062,-0.32813 0.15625,-0.125 0.48438,-0.125 h 3.65625 V 1.40625 h -2.6875 q -0.32813,0 -0.48438,-0.125 -0.14062,-0.14063 -0.14062,-0.35938 0,-0.20312 0.14062,-0.32812 0.14063,-0.14063 0.48438,-0.14063 z m 17.67407,0 v 12.96875 h 1.25 q 0.34375,0 0.48438,0.125 0.14062,0.125 0.14062,0.32813 0,0.20312 -0.14062,0.34375 -0.14063,0.125 -0.48438,0.125 h -2.1875 V 12.5 q -1.60937,2.20312 -4.09375,2.20312 -1.26562,0 -2.42187,-0.65625 -1.15625,-0.67187 -1.82813,-1.90625 -0.67187,-1.25 -0.67187,-2.5625 0,-1.32812 0.67187,-2.5625 0.67188,-1.23437 1.82813,-1.90625 1.15625,-0.67187 2.42187,-0.67187 2.4375,0 4.09375,2.20312 V 1.40625 h -1.23437 q -0.34375,0 -0.48438,-0.125 -0.14062,-0.14063 -0.14062,-0.35938 0,-0.20312 0.14062,-0.32812 0.14063,-0.14063 0.48438,-0.14063 z m -0.9375,9.125 q 0,-1.76562 -1.20312,-2.98437 -1.1875,-1.21875 -2.82813,-1.21875 -1.65625,0 -2.85937,1.21875 -1.1875,1.21875 -1.1875,2.98437 0,1.75 1.1875,2.98438 1.20312,1.21875 2.85937,1.21875 1.64063,0 2.82813,-1.21875 1.20312,-1.23438 1.20312,-2.98438 z"
       fill-rule="nonzero"
       id="path67" />
  </g>
</svg>
