<?xml version="1.0" encoding="UTF-8" standalone="no"?>
<svg
   version="1.1"
   viewBox="0 0 612 358"
   fill="none"
   stroke="none"
   stroke-linecap="square"
   stroke-miterlimit="10"
   id="svg121"
   sodipodi:docname="rpc.svg"
   width="612"
   height="358"
   inkscape:version="1.2 (dc2aedaf03, 2022-05-15)"
   xmlns:inkscape="http://www.inkscape.org/namespaces/inkscape"
   xmlns:sodipodi="http://sodipodi.sourceforge.net/DTD/sodipodi-0.dtd"
   xmlns="http://www.w3.org/2000/svg"
   xmlns:svg="http://www.w3.org/2000/svg">
  <defs
     id="defs125" />
  <sodipodi:namedview
     id="namedview123"
     pagecolor="#ffffff"
     bordercolor="#666666"
     borderopacity="1.0"
     inkscape:showpageshadow="2"
     inkscape:pageopacity="0.0"
     inkscape:pagecheckerboard="0"
     inkscape:deskcolor="#d1d1d1"
     showgrid="false"
     inkscape:zoom="1.4135417"
     inkscape:cx="269.53574"
     inkscape:cy="270.24318"
     inkscape:window-width="1918"
     inkscape:window-height="1055"
     inkscape:window-x="0"
     inkscape:window-y="23"
     inkscape:window-maximized="1"
     inkscape:current-layer="g119" />
  <clipPath
     id="g128e1b6a8d6_0_40.0">
    <path
       d="M 0,0 H 960 V 540 H 0 Z"
       clip-rule="nonzero"
       id="path2" />
  </clipPath>
  <g
     clip-path="url(#g128e1b6a8d6_0_40.0)"
     id="g119">
    <path
       fill="#000000"
       fill-opacity="0"
       d="M 166.15487,0 H 440.64303 V 43.62204 H 166.15487 Z"
       fill-rule="evenodd"
       id="path77" />
    <path
       fill="#ffffff"
       d="m 192.16163,27.37187 v -9.78125 h -0.6875 q -0.29688,0 -0.42188,-0.10938 -0.125,-0.10937 -0.125,-0.29687 0,-0.1875 0.125,-0.29688 0.125,-0.10937 0.42188,-0.10937 h 4.40625 q 1.04687,0 1.89062,0.4375 0.85938,0.42187 1.3125,0.96875 0.76563,0.92187 1.17188,1.95312 0.28125,0.75 0.28125,1.78125 v 1.14063 q 0,1.25 -0.5625,2.4375 -0.54688,1.17187 -1.85938,2.0625 -0.95312,0.64062 -2.23437,0.64062 h -4.40625 q -0.29688,0 -0.42188,-0.10937 -0.125,-0.125 -0.125,-0.29688 0,-0.1875 0.125,-0.29687 0.125,-0.125 0.42188,-0.125 z m 0.82812,0 h 2.96875 q 1.04688,0 1.9375,-0.67188 0.90625,-0.67187 1.35938,-1.60937 0.45312,-0.9375 0.45312,-1.85938 v -1.48437 q 0,-0.76563 -0.23437,-1.35938 -0.35938,-0.875 -1,-1.65625 -0.35938,-0.42187 -1.04688,-0.78125 -0.67187,-0.35937 -1.46875,-0.35937 h -2.96875 z m 16.75196,0.82812 v -1.1875 q -1.78125,1.51563 -3.8125,1.51563 -1.48438,0 -2.3125,-0.75 -0.82813,-0.75 -0.82813,-1.82813 0,-1.20312 1.09375,-2.07812 1.09375,-0.89063 3.1875,-0.89063 0.57813,0 1.23438,0.0781 0.67187,0.0625 1.4375,0.21875 v -1.32813 q 0,-0.67187 -0.625,-1.17187 -0.625,-0.5 -1.875,-0.5 -0.95313,0 -2.6875,0.5625 -0.3125,0.0937 -0.39063,0.0937 -0.15625,0 -0.28125,-0.10938 -0.10937,-0.125 -0.10937,-0.29687 0,-0.17188 0.0937,-0.26563 0.14062,-0.15625 1.10937,-0.40625 1.53125,-0.40625 2.3125,-0.40625 1.54688,0 2.40625,0.76563 0.875,0.76562 0.875,1.73437 v 5.42188 h 1.09375 q 0.3125,0 0.4375,0.125 0.125,0.10937 0.125,0.29687 0,0.17188 -0.125,0.29688 -0.125,0.10937 -0.4375,0.10937 z m 0,-4.07812 q -0.57813,-0.17188 -1.21875,-0.25 -0.64063,-0.0781 -1.35938,-0.0781 -1.78125,0 -2.79687,0.76563 -0.75,0.57812 -0.75,1.39062 0,0.73438 0.57812,1.25 0.57813,0.5 1.6875,0.5 1.0625,0 1.96875,-0.42187 0.92188,-0.42188 1.89063,-1.35938 z m 6.54883,-4.375 v 1.48437 q 0.73437,-0.89062 1.57812,-1.32812 0.84375,-0.45313 1.98438,-0.45313 1.20312,0 2.23437,0.5625 1.03125,0.5625 1.57813,1.57813 0.5625,1.01562 0.5625,2.125 0,1.76562 -1.26563,3.03125 -1.25,1.25 -3.10937,1.25 -2.1875,0 -3.5625,-1.79688 v 4.95313 h 2 q 0.29687,0 0.42187,0.10937 0.125,0.10938 0.125,0.29688 0,0.17187 -0.125,0.28125 -0.125,0.125 -0.42187,0.125 h -3.92188 q -0.29687,0 -0.42187,-0.10938 -0.125,-0.10937 -0.125,-0.29687 0,-0.1875 0.125,-0.29688 0.125,-0.10937 0.42187,-0.10937 h 1.10938 V 20.57499 h -1.10938 q -0.29687,0 -0.42187,-0.10937 -0.125,-0.125 -0.125,-0.3125 0,-0.17188 0.125,-0.28125 0.125,-0.125 0.42187,-0.125 z m 7.10937,3.96875 q 0,-1.42188 -1.03125,-2.42188 -1.03125,-1.01562 -2.51562,-1.01562 -1.48438,0 -2.53125,1.01562 -1.03125,1.01563 -1.03125,2.42188 0,1.42187 1.03125,2.4375 1.04687,1.01562 2.53125,1.01562 1.48437,0 2.51562,-1.01562 1.03125,-1.01563 1.03125,-2.4375 z m 4.89258,-3.96875 v 1.48437 q 0.73437,-0.89062 1.57812,-1.32812 0.84375,-0.45313 1.98438,-0.45313 1.20312,0 2.23437,0.5625 1.03125,0.5625 1.57813,1.57813 0.5625,1.01562 0.5625,2.125 0,1.76562 -1.26563,3.03125 -1.25,1.25 -3.10937,1.25 -2.1875,0 -3.5625,-1.79688 v 4.95313 h 2 q 0.29687,0 0.42187,0.10937 0.125,0.10938 0.125,0.29688 0,0.17187 -0.125,0.28125 -0.125,0.125 -0.42187,0.125 h -3.92188 q -0.29687,0 -0.42187,-0.10938 -0.125,-0.10937 -0.125,-0.29687 0,-0.1875 0.125,-0.29688 0.125,-0.10937 0.42187,-0.10937 h 1.10938 V 20.57499 h -1.10938 q -0.29687,0 -0.42187,-0.10937 -0.125,-0.125 -0.125,-0.3125 0,-0.17188 0.125,-0.28125 0.125,-0.125 0.42187,-0.125 z m 7.10937,3.96875 q 0,-1.42188 -1.03125,-2.42188 -1.03125,-1.01562 -2.51562,-1.01562 -1.48438,0 -2.53125,1.01562 -1.03125,1.01563 -1.03125,2.42188 0,1.42187 1.03125,2.4375 1.04687,1.01562 2.53125,1.01562 1.48437,0 2.51562,-1.01562 1.03125,-1.01563 1.03125,-2.4375 z m 23.67579,-8.375 -6.59375,14.15625 q -0.17188,0.35937 -0.4375,0.35937 -0.17188,0 -0.29688,-0.125 -0.10937,-0.125 -0.10937,-0.26562 0,-0.125 0.0937,-0.32813 l 6.59375,-14.14062 q 0.10937,-0.21875 0.20312,-0.28125 0.0937,-0.0781 0.23438,-0.0781 0.17187,0 0.28125,0.125 0.125,0.10938 0.125,0.26563 0,0.10937 -0.0937,0.3125 z m 17.09765,12.03125 v -9.78125 h -0.6875 q -0.29687,0 -0.42187,-0.10938 -0.125,-0.10937 -0.125,-0.29687 0,-0.1875 0.125,-0.29688 0.125,-0.10937 0.42187,-0.10937 h 4.40625 q 1.04688,0 1.89063,0.4375 0.85937,0.42187 1.3125,0.96875 0.76562,0.92187 1.17187,1.95312 0.28125,0.75 0.28125,1.78125 v 1.14063 q 0,1.25 -0.5625,2.4375 -0.54687,1.17187 -1.85937,2.0625 -0.95313,0.64062 -2.23438,0.64062 h -4.40625 q -0.29687,0 -0.42187,-0.10937 -0.125,-0.125 -0.125,-0.29688 0,-0.1875 0.125,-0.29687 0.125,-0.125 0.42187,-0.125 z m 0.82813,0 h 2.96875 q 1.04687,0 1.9375,-0.67188 0.90625,-0.67187 1.35937,-1.60937 0.45313,-0.9375 0.45313,-1.85938 v -1.48437 q 0,-0.76563 -0.23438,-1.35938 -0.35937,-0.875 -1,-1.65625 -0.35937,-0.42187 -1.04687,-0.78125 -0.67188,-0.35937 -1.46875,-0.35937 h -2.96875 z m 18.83007,-3.20313 h -8.35937 q 0.21875,1.59375 1.32812,2.5625 1.125,0.96875 2.78125,0.96875 0.90625,0 1.90625,-0.29687 1.01563,-0.3125 1.65625,-0.8125 0.1875,-0.14063 0.3125,-0.14063 0.15625,0 0.26563,0.125 0.125,0.125 0.125,0.28125 0,0.17188 -0.15625,0.32813 -0.46875,0.48437 -1.67188,0.92187 -1.1875,0.42188 -2.4375,0.42188 -2.10937,0 -3.53125,-1.375 -1.40625,-1.39063 -1.40625,-3.35938 0,-1.78125 1.3125,-3.0625 1.32813,-1.28125 3.28125,-1.28125 2.01563,0 3.3125,1.3125 1.29688,1.3125 1.28125,3.40625 z m -0.82812,-0.82812 q -0.25,-1.35938 -1.29688,-2.20313 -1.03125,-0.85937 -2.46875,-0.85937 -1.42187,0 -2.46875,0.84375 -1.03125,0.84375 -1.28125,2.21875 z m 9.11133,4.85937 h -1.39063 l -3.35937,-7.625 h -0.84375 q -0.29688,0 -0.42188,-0.10937 -0.125,-0.125 -0.125,-0.3125 0,-0.17188 0.125,-0.28125 0.125,-0.125 0.42188,-0.125 h 3.07812 q 0.29688,0 0.42188,0.125 0.125,0.10937 0.125,0.29687 0,0.17188 -0.125,0.29688 -0.125,0.10937 -0.42188,0.10937 h -1.35937 l 3,6.79688 h 0.375 l 2.9375,-6.79688 h -1.35938 q -0.29687,0 -0.42187,-0.10937 -0.125,-0.125 -0.125,-0.3125 0,-0.17188 0.125,-0.28125 0.125,-0.125 0.42187,-0.125 h 3.07813 q 0.3125,0 0.42187,0.125 0.125,0.10937 0.125,0.29687 0,0.17188 -0.125,0.29688 -0.10937,0.10937 -0.42187,0.10937 h -0.82813 z m 15.7207,-4.03125 h -8.35937 q 0.21875,1.59375 1.32812,2.5625 1.125,0.96875 2.78125,0.96875 0.90625,0 1.90625,-0.29687 1.01563,-0.3125 1.65625,-0.8125 0.1875,-0.14063 0.3125,-0.14063 0.15625,0 0.26563,0.125 0.125,0.125 0.125,0.28125 0,0.17188 -0.15625,0.32813 -0.46875,0.48437 -1.67188,0.92187 -1.1875,0.42188 -2.4375,0.42188 -2.10937,0 -3.53125,-1.375 -1.40625,-1.39063 -1.40625,-3.35938 0,-1.78125 1.3125,-3.0625 1.32813,-1.28125 3.28125,-1.28125 2.01563,0 3.3125,1.3125 1.29688,1.3125 1.28125,3.40625 z m -0.82812,-0.82812 q -0.25,-1.35938 -1.29688,-2.20313 -1.03125,-0.85937 -2.46875,-0.85937 -1.42187,0 -2.46875,0.84375 -1.03125,0.84375 -1.28125,2.21875 z m 8.81445,-7.39063 v 11.42188 h 3.21875 q 0.29687,0 0.42187,0.125 0.14063,0.10937 0.14063,0.29687 0,0.17188 -0.14063,0.29688 -0.125,0.10937 -0.42187,0.10937 h -7.26563 q -0.29687,0 -0.42187,-0.10937 -0.125,-0.125 -0.125,-0.29688 0,-0.1875 0.125,-0.29687 0.125,-0.125 0.42187,-0.125 h 3.21875 V 16.77812 h -2.35937 q -0.29688,0 -0.4375,-0.10938 -0.125,-0.125 -0.125,-0.3125 0,-0.17187 0.125,-0.28125 0.14062,-0.125 0.4375,-0.125 z m 16.17383,8.04688 q 0,1.875 -1.34375,3.20312 -1.34375,1.32813 -3.25,1.32813 -1.90625,0 -3.25,-1.32813 -1.32813,-1.34375 -1.32813,-3.20312 0,-1.875 1.32813,-3.20313 1.34375,-1.34375 3.25,-1.34375 1.90625,0 3.25,1.32813 1.34375,1.32812 1.34375,3.21875 z m -0.84375,0 q 0,-1.54688 -1.09375,-2.625 -1.09375,-1.09375 -2.65625,-1.09375 -1.5625,0 -2.67188,1.09375 -1.09375,1.07812 -1.09375,2.625 0,1.51562 1.09375,2.60937 1.10938,1.09375 2.67188,1.09375 1.5625,0 2.65625,-1.07812 1.09375,-1.09375 1.09375,-2.625 z m 5.1582,-4.25 v 1.48437 q 0.73437,-0.89062 1.57812,-1.32812 0.84375,-0.45313 1.98438,-0.45313 1.20312,0 2.23437,0.5625 1.03125,0.5625 1.57813,1.57813 0.5625,1.01562 0.5625,2.125 0,1.76562 -1.26563,3.03125 -1.25,1.25 -3.10937,1.25 -2.1875,0 -3.5625,-1.79688 v 4.95313 h 2 q 0.29687,0 0.42187,0.10937 0.125,0.10938 0.125,0.29688 0,0.17187 -0.125,0.28125 -0.125,0.125 -0.42187,0.125 h -3.92188 q -0.29687,0 -0.42187,-0.10938 -0.125,-0.10937 -0.125,-0.29687 0,-0.1875 0.125,-0.29688 0.125,-0.10937 0.42187,-0.10937 h 1.10938 V 20.57499 h -1.10938 q -0.29687,0 -0.42187,-0.10937 -0.125,-0.125 -0.125,-0.3125 0,-0.17188 0.125,-0.28125 0.125,-0.125 0.42187,-0.125 z m 7.10937,3.96875 q 0,-1.42188 -1.03125,-2.42188 -1.03125,-1.01562 -2.51562,-1.01562 -1.48438,0 -2.53125,1.01562 -1.03125,1.01563 -1.03125,2.42188 0,1.42187 1.03125,2.4375 1.04687,1.01562 2.53125,1.01562 1.48437,0 2.51562,-1.01562 1.03125,-1.01563 1.03125,-2.4375 z m 12.42383,0.45312 h -8.35937 q 0.21875,1.59375 1.32812,2.5625 1.125,0.96875 2.78125,0.96875 0.90625,0 1.90625,-0.29687 1.01563,-0.3125 1.65625,-0.8125 0.1875,-0.14063 0.3125,-0.14063 0.15625,0 0.26563,0.125 0.125,0.125 0.125,0.28125 0,0.17188 -0.15625,0.32813 -0.46875,0.48437 -1.67188,0.92187 -1.1875,0.42188 -2.4375,0.42188 -2.10937,0 -3.53125,-1.375 -1.40625,-1.39063 -1.40625,-3.35938 0,-1.78125 1.3125,-3.0625 1.32813,-1.28125 3.28125,-1.28125 2.01563,0 3.3125,1.3125 1.29688,1.3125 1.28125,3.40625 z m -0.82812,-0.82812 q -0.25,-1.35938 -1.29688,-2.20313 -1.03125,-0.85937 -2.46875,-0.85937 -1.42187,0 -2.46875,0.84375 -1.03125,0.84375 -1.28125,2.21875 z m 7.4082,-3.59375 v 2.0625 q 1.60937,-1.4375 2.40625,-1.84375 0.79687,-0.42188 1.46875,-0.42188 0.73437,0 1.35937,0.5 0.625,0.48438 0.625,0.73438 0,0.1875 -0.125,0.3125 -0.10937,0.10937 -0.29687,0.10937 -0.0937,0 -0.17188,-0.0312 -0.0625,-0.0312 -0.25,-0.21875 -0.34375,-0.34375 -0.59375,-0.46875 -0.25,-0.125 -0.5,-0.125 -0.53125,0 -1.29687,0.4375 -0.75,0.42188 -2.625,2.09375 v 4.48438 h 3.64062 q 0.29688,0 0.42188,0.125 0.125,0.10937 0.125,0.29687 0,0.17188 -0.125,0.29688 -0.125,0.10937 -0.42188,0.10937 h -6.4375 q -0.29687,0 -0.42187,-0.10937 -0.125,-0.10938 -0.125,-0.29688 0,-0.15625 0.125,-0.26562 0.125,-0.125 0.42187,-0.125 h 1.98438 v -6.82813 h -1.51563 q -0.29687,0 -0.42187,-0.10937 -0.125,-0.125 -0.125,-0.3125 0,-0.17188 0.125,-0.28125 0.125,-0.125 0.42187,-0.125 z m 28.95703,-2.15625 v 6.85937 q 0,1.73438 -1.15625,2.90625 -1.14062,1.17188 -2.78125,1.17188 -1.09375,0 -1.9375,-0.48438 -0.84375,-0.48437 -1.45312,-1.45312 -0.59375,-0.96875 -0.59375,-2.14063 v -6.85937 h -0.6875 q -0.29688,0 -0.42188,-0.10938 -0.125,-0.10937 -0.125,-0.29687 0,-0.1875 0.14063,-0.3125 0.10937,-0.0937 0.40625,-0.0937 h 3.03125 q 0.28125,0 0.40625,0.10937 0.14062,0.10938 0.14062,0.29688 0,0.1875 -0.14062,0.29687 -0.125,0.10938 -0.40625,0.10938 h -1.51563 v 6.85937 q 0,1.35938 0.92188,2.3125 0.9375,0.9375 2.20312,0.9375 0.8125,0 1.46875,-0.35937 0.67188,-0.375 1.17188,-1.14063 0.51562,-0.78125 0.51562,-1.75 v -6.85942 h -1.51562 q -0.29688,0 -0.42188,-0.10938 -0.125,-0.10937 -0.125,-0.29687 0,-0.1875 0.125,-0.29688 0.125,-0.10937 0.42188,-0.10937 h 3.03125 q 0.28125,0 0.40625,0.10937 0.14062,0.10938 0.14062,0.29688 0,0.1875 -0.14062,0.29687 -0.125,0.10938 -0.40625,0.10938 z m 8.45508,0 v 9.78125 h 2.8125 q 0.28125,0 0.40625,0.125 0.14062,0.10937 0.14062,0.29687 0,0.17188 -0.14062,0.29688 -0.125,0.10937 -0.40625,0.10937 h -6.45313 q -0.29687,0 -0.42187,-0.10937 -0.125,-0.125 -0.125,-0.29688 0,-0.1875 0.125,-0.29687 0.125,-0.125 0.42187,-0.125 h 2.8125 v -9.78125 h -2.8125 q -0.29687,0 -0.42187,-0.10938 -0.125,-0.10937 -0.125,-0.29687 0,-0.1875 0.125,-0.29688 0.125,-0.10937 0.42187,-0.10937 h 6.45313 q 0.28125,0 0.40625,0.10937 0.14062,0.10938 0.14062,0.29688 0,0.1875 -0.14062,0.29687 -0.125,0.10938 -0.40625,0.10938 z"
       fill-rule="nonzero"
       id="path79" />
    <path
       fill="#adadad"
       d="M 2,181.46719 H 609.0866 V 355.23095 H 2 Z"
       fill-rule="evenodd"
       id="path81" />
    <path
       stroke="#18ffb2"
       stroke-width="4"
       stroke-linejoin="round"
       stroke-linecap="butt"
       d="M 2,181.46719 H 609.0866 V 355.23095 H 2 Z"
       fill-rule="evenodd"
       id="path83" />
    <path
       fill="#adadad"
       d="m 171.97115,131.48032 h 280.8819 v 93.98425 h -280.8819 z"
       fill-rule="evenodd"
       id="path85" />
    <path
       stroke="#18ffb2"
       stroke-width="4"
       stroke-linejoin="round"
       stroke-linecap="butt"
       d="m 171.97115,131.48032 h 280.8819 v 93.98425 h -280.8819 z"
       fill-rule="evenodd"
       id="path87" />
    <path
       fill="#000000"
       fill-opacity="0"
       d="m 171.97115,157.46457 h 280.8819 v 43.62204 h -280.8819 z"
       fill-rule="evenodd"
       id="path89" />
    <path
       fill="#212121"
       d="m 243.72851,180.5708 v 4.26563 h 1.51563 q 0.29687,0 0.42187,0.125 0.14063,0.10937 0.14063,0.29687 0,0.17188 -0.14063,0.29688 -0.125,0.10937 -0.42187,0.10937 h -3.4375 q -0.29688,0 -0.42188,-0.10937 -0.125,-0.125 -0.125,-0.29688 0,-0.1875 0.125,-0.29687 0.125,-0.125 0.42188,-0.125 h 1.10937 v -9.78125 h -1.10937 q -0.29688,0 -0.42188,-0.10938 -0.125,-0.10937 -0.125,-0.29687 0,-0.1875 0.125,-0.29688 0.125,-0.10937 0.42188,-0.10937 h 4.96875 q 1.53125,0 2.57812,0.96875 1.04688,0.96875 1.04688,2.1875 0,0.875 -0.65625,1.65625 -0.64063,0.78125 -2.17188,1.29687 0.89063,0.60938 1.51563,1.375 0.625,0.75 2,3.10938 h 0.625 q 0.29687,0 0.42187,0.125 0.125,0.10937 0.125,0.29687 0,0.17188 -0.125,0.29688 -0.125,0.10937 -0.42187,0.10937 h -1.09375 q -1.53125,-2.71875 -2.375,-3.64062 -0.82813,-0.9375 -1.90625,-1.45313 z m 0,-0.82812 h 2.23438 q 1.07812,0 1.95312,-0.39063 0.875,-0.39062 1.26563,-0.90625 0.40625,-0.53125 0.40625,-1.07812 0,-0.82813 -0.82813,-1.5625 -0.82812,-0.75 -2.01562,-0.75 h -3.01563 z m 12.89258,1.23437 v 3.85938 h 2.8125 q 0.29687,0 0.42187,0.125 0.125,0.10937 0.125,0.29687 0,0.17188 -0.125,0.29688 -0.125,0.10937 -0.42187,0.10937 h -4.73438 q -0.29687,0 -0.42187,-0.10937 -0.125,-0.125 -0.125,-0.29688 0,-0.1875 0.125,-0.29687 0.125,-0.125 0.42187,-0.125 h 1.10938 v -9.78125 h -1.10938 q -0.29687,0 -0.42187,-0.10938 -0.125,-0.10937 -0.125,-0.29687 0,-0.1875 0.125,-0.29688 0.125,-0.10937 0.42187,-0.10937 h 4.76563 q 1.6875,0 2.75,1 1.07812,0.98437 1.07812,2.32812 0,0.78125 -0.34375,1.42188 -0.34375,0.64062 -0.84375,1 -0.73437,0.54687 -1.51562,0.79687 -0.5625,0.1875 -1.40625,0.1875 z m 0,-0.82812 h 2.625 q 0.90625,0 1.70312,-0.39063 0.79688,-0.40625 1.15625,-0.98437 0.35938,-0.59375 0.35938,-1.20313 0,-0.96875 -0.82813,-1.73437 -0.82812,-0.78125 -2.09375,-0.78125 h -2.92187 z m 17.39258,-4.78125 v -0.57813 q 0,-0.29687 0.10937,-0.42187 0.10938,-0.125 0.29688,-0.125 0.1875,0 0.29687,0.125 0.125,0.125 0.125,0.42187 v 2.26563 q 0,0.3125 -0.125,0.4375 -0.10937,0.125 -0.29687,0.125 -0.15625,0 -0.28125,-0.10938 -0.10938,-0.125 -0.125,-0.39062 -0.0469,-0.8125 -0.89063,-1.45313 -1.125,-0.875 -2.57812,-0.875 -0.9375,0 -1.78125,0.42188 -0.625,0.3125 -1,0.75 -0.64063,0.75 -1.03125,1.6875 -0.26563,0.6875 -0.26563,1.54687 v 1.42188 q 0,1.84375 1.32813,3.20312 1.32812,1.34375 3.07812,1.34375 1.0625,0 1.89063,-0.45312 0.84375,-0.46875 1.625,-1.39063 0.15625,-0.20312 0.375,-0.20312 0.17187,0 0.28125,0.10937 0.10937,0.10938 0.10937,0.26563 0,0.23437 -0.42187,0.6875 -0.8125,0.89062 -1.8125,1.35937 -1,0.45313 -2.01563,0.45313 -0.89062,0 -1.8125,-0.34375 -0.70312,-0.26563 -1.17187,-0.60938 -0.45313,-0.35937 -1.125,-1.1875 -0.65625,-0.84375 -0.90625,-1.54687 -0.25,-0.71875 -0.25,-1.5625 v -1.67188 q 0,-1.20312 0.65625,-2.46875 0.65625,-1.26562 1.78125,-1.9375 1.125,-0.6875 2.4375,-0.6875 2.03125,0 3.5,1.39063 z m 17.72265,4.78125 v 4.6875 h 6.3125 v -2.42188 q 0,-0.28125 0.10938,-0.40625 0.10937,-0.14062 0.29687,-0.14062 0.1875,0 0.29688,0.14062 0.10937,0.125 0.10937,0.40625 v 3.25 h -9.04687 q -0.29688,0 -0.42188,-0.10937 -0.125,-0.125 -0.125,-0.29688 0,-0.1875 0.125,-0.29687 0.125,-0.125 0.42188,-0.125 h 1.10937 v -9.78125 h -1.10937 q -0.29688,0 -0.42188,-0.10938 -0.125,-0.10937 -0.125,-0.29687 0,-0.1875 0.125,-0.29688 0.125,-0.10937 0.42188,-0.10937 h 8.625 v 2.8125 q 0,0.29687 -0.10938,0.42187 -0.10937,0.125 -0.29687,0.125 -0.1875,0 -0.3125,-0.125 -0.10938,-0.125 -0.10938,-0.42187 v -2 h -5.875 v 4.26562 h 2.9375 v -0.92187 q 0,-0.29688 0.10938,-0.42188 0.125,-0.125 0.3125,-0.125 0.17187,0 0.28125,0.125 0.125,0.125 0.125,0.42188 v 2.67187 q 0,0.29688 -0.125,0.42188 -0.10938,0.125 -0.28125,0.125 -0.1875,0 -0.3125,-0.125 -0.10938,-0.125 -0.10938,-0.42188 v -0.92187 z m 12.01758,-2.9375 v 1.23437 q 0.85938,-0.875 1.54688,-1.20312 0.70312,-0.32813 1.57812,-0.32813 0.9375,0 1.70313,0.40625 0.54687,0.28125 0.98437,0.96875 0.45313,0.67188 0.45313,1.39063 v 5.15625 h 0.6875 q 0.29687,0 0.42187,0.125 0.125,0.10937 0.125,0.29687 0,0.17188 -0.125,0.29688 -0.125,0.10937 -0.42187,0.10937 h -2.1875 q -0.3125,0 -0.4375,-0.10937 -0.125,-0.125 -0.125,-0.29688 0,-0.1875 0.125,-0.29687 0.125,-0.125 0.4375,-0.125 h 0.6875 v -5.01563 q 0,-0.875 -0.64063,-1.46875 -0.64062,-0.60937 -1.70312,-0.60937 -0.8125,0 -1.40625,0.32812 -0.59375,0.32813 -1.70313,1.625 v 5.14063 h 0.9375 q 0.29688,0 0.42188,0.125 0.125,0.10937 0.125,0.29687 0,0.17188 -0.125,0.29688 -0.125,0.10937 -0.42188,0.10937 h -2.67187 q -0.29688,0 -0.42188,-0.10937 -0.125,-0.125 -0.125,-0.29688 0,-0.1875 0.125,-0.29687 0.125,-0.125 0.42188,-0.125 h 0.92187 v -6.79688 h -0.6875 q -0.29687,0 -0.42187,-0.10937 -0.125,-0.125 -0.125,-0.3125 0,-0.17188 0.125,-0.28125 0.125,-0.125 0.42187,-0.125 z m 18.67383,-3.79688 v 11.42188 h 1.09375 q 0.3125,0 0.4375,0.125 0.125,0.10937 0.125,0.29687 0,0.17188 -0.125,0.29688 -0.125,0.10937 -0.4375,0.10937 h -1.92188 v -1.625 q -1.42187,1.95313 -3.625,1.95313 -1.10937,0 -2.14062,-0.59375 -1.01563,-0.59375 -1.60938,-1.6875 -0.57812,-1.09375 -0.57812,-2.25 0,-1.17188 0.57812,-2.26563 0.59375,-1.09375 1.60938,-1.6875 1.03125,-0.59375 2.15625,-0.59375 2.14062,0 3.60937,1.95313 v -4.625 h -1.09375 q -0.29687,0 -0.42187,-0.10938 -0.125,-0.125 -0.125,-0.3125 0,-0.17187 0.125,-0.28125 0.125,-0.125 0.42187,-0.125 z m -0.82813,8.04688 q 0,-1.5625 -1.0625,-2.64063 -1.04687,-1.07812 -2.5,-1.07812 -1.46875,0 -2.53125,1.07812 -1.04687,1.07813 -1.04687,2.64063 0,1.54687 1.04687,2.625 1.0625,1.07812 2.53125,1.07812 1.45313,0 2.5,-1.07812 1.0625,-1.07813 1.0625,-2.625 z m 5.72068,-4.25 v 1.48437 q 0.73437,-0.89062 1.57812,-1.32812 0.84375,-0.45313 1.98438,-0.45313 1.20312,0 2.23437,0.5625 1.03125,0.5625 1.57813,1.57813 0.5625,1.01562 0.5625,2.125 0,1.76562 -1.26563,3.03125 -1.25,1.25 -3.10937,1.25 -2.1875,0 -3.5625,-1.79688 v 4.95313 h 2 q 0.29687,0 0.42187,0.10937 0.125,0.10938 0.125,0.29688 0,0.17187 -0.125,0.28125 -0.125,0.125 -0.42187,0.125 h -3.92188 q -0.29687,0 -0.42187,-0.10938 -0.125,-0.10937 -0.125,-0.29687 0,-0.1875 0.125,-0.29688 0.125,-0.10937 0.42187,-0.10937 h 1.10938 v -10.57813 h -1.10938 q -0.29687,0 -0.42187,-0.10937 -0.125,-0.125 -0.125,-0.3125 0,-0.17188 0.125,-0.28125 0.125,-0.125 0.42187,-0.125 z m 7.10937,3.96875 q 0,-1.42188 -1.03125,-2.42188 -1.03125,-1.01562 -2.51562,-1.01562 -1.48438,0 -2.53125,1.01562 -1.03125,1.01563 -1.03125,2.42188 0,1.42187 1.03125,2.4375 1.04687,1.01562 2.53125,1.01562 1.48437,0 2.51562,-1.01562 1.03125,-1.01563 1.03125,-2.4375 z m 12.58008,0.28125 q 0,1.875 -1.34375,3.20312 -1.34375,1.32813 -3.25,1.32813 -1.90625,0 -3.25,-1.32813 -1.32813,-1.34375 -1.32813,-3.20312 0,-1.875 1.32813,-3.20313 1.34375,-1.34375 3.25,-1.34375 1.90625,0 3.25,1.32813 1.34375,1.32812 1.34375,3.21875 z m -0.84375,0 q 0,-1.54688 -1.09375,-2.625 -1.09375,-1.09375 -2.65625,-1.09375 -1.5625,0 -2.67188,1.09375 -1.09375,1.07812 -1.09375,2.625 0,1.51562 1.09375,2.60937 1.10938,1.09375 2.67188,1.09375 1.5625,0 2.65625,-1.07812 1.09375,-1.09375 1.09375,-2.625 z m 8.6582,-8.46875 v 2.125 h -1.20312 v -2.125 z m 0.0312,4.21875 v 7.625 h 3.21875 q 0.3125,0 0.4375,0.125 0.125,0.10937 0.125,0.29687 0,0.17188 -0.125,0.29688 -0.125,0.10937 -0.4375,0.10937 h -7.26562 q -0.29688,0 -0.42188,-0.10937 -0.125,-0.125 -0.125,-0.29688 0,-0.1875 0.125,-0.29687 0.125,-0.125 0.42188,-0.125 h 3.21875 v -6.79688 h -2.39063 q -0.28125,0 -0.42187,-0.10937 -0.125,-0.125 -0.125,-0.29688 0,-0.1875 0.125,-0.29687 0.125,-0.125 0.42187,-0.125 z m 8.9082,0 v 1.23437 q 0.85938,-0.875 1.54688,-1.20312 0.70312,-0.32813 1.57812,-0.32813 0.9375,0 1.70313,0.40625 0.54687,0.28125 0.98437,0.96875 0.45313,0.67188 0.45313,1.39063 v 5.15625 h 0.6875 q 0.29687,0 0.42187,0.125 0.125,0.10937 0.125,0.29687 0,0.17188 -0.125,0.29688 -0.125,0.10937 -0.42187,0.10937 h -2.1875 q -0.3125,0 -0.4375,-0.10937 -0.125,-0.125 -0.125,-0.29688 0,-0.1875 0.125,-0.29687 0.125,-0.125 0.4375,-0.125 h 0.6875 v -5.01563 q 0,-0.875 -0.64063,-1.46875 -0.64062,-0.60937 -1.70312,-0.60937 -0.8125,0 -1.40625,0.32812 -0.59375,0.32813 -1.70313,1.625 v 5.14063 h 0.9375 q 0.29688,0 0.42188,0.125 0.125,0.10937 0.125,0.29687 0,0.17188 -0.125,0.29688 -0.125,0.10937 -0.42188,0.10937 h -2.67187 q -0.29688,0 -0.42188,-0.10937 -0.125,-0.125 -0.125,-0.29688 0,-0.1875 0.125,-0.29687 0.125,-0.125 0.42188,-0.125 h 0.92187 v -6.79688 h -0.6875 q -0.29687,0 -0.42187,-0.10937 -0.125,-0.125 -0.125,-0.3125 0,-0.17188 0.125,-0.28125 0.125,-0.125 0.42187,-0.125 z m 12.97071,0 h 4.45312 q 0.29688,0 0.42188,0.125 0.125,0.10937 0.125,0.29687 0,0.17188 -0.125,0.29688 -0.125,0.10937 -0.42188,0.10937 h -4.45312 v 5.45313 q 0,0.71875 0.5625,1.20312 0.57812,0.46875 1.6875,0.46875 0.82812,0 1.79687,-0.25 0.96875,-0.25 1.5,-0.5625 0.20313,-0.125 0.32813,-0.125 0.15625,0 0.26562,0.125 0.125,0.125 0.125,0.28125 0,0.15625 -0.125,0.28125 -0.3125,0.3125 -1.53125,0.70313 -1.20312,0.375 -2.29687,0.375 -1.4375,0 -2.29688,-0.67188 -0.84375,-0.6875 -0.84375,-1.82812 v -5.45313 h -1.51562 q -0.28125,0 -0.42188,-0.10937 -0.125,-0.125 -0.125,-0.3125 0,-0.17188 0.125,-0.28125 0.14063,-0.125 0.42188,-0.125 h 1.51562 v -2.42188 q 0,-0.29687 0.10938,-0.42187 0.125,-0.125 0.29687,-0.125 0.1875,0 0.29688,0.125 0.125,0.125 0.125,0.42187 z"
       fill-rule="nonzero"
       id="path91" />
    <path
       fill="#000000"
       fill-opacity="0"
       d="m 35.97113,237.46457 h 546.1102 v 43.62204 H 35.97113 Z"
       fill-rule="evenodd"
       id="path93" />
    <path
       fill="#212121"
       d="m 119.93153,255.05518 v -0.26562 q 0,-0.29688 0.10938,-0.42188 0.10937,-0.125 0.29687,-0.125 0.1875,0 0.29688,0.125 0.10937,0.125 0.10937,0.42188 v 2.07812 q 0,0.29688 -0.10937,0.42188 -0.10938,0.125 -0.29688,0.125 -0.17187,0 -0.28125,-0.10938 -0.10937,-0.125 -0.125,-0.375 -0.0469,-0.82812 -0.84375,-1.48437 -0.79687,-0.65625 -2.09375,-0.65625 -1.34375,0 -2.15625,0.70312 -0.79687,0.70313 -0.79687,1.64063 0,0.5 0.21875,0.90625 0.23437,0.39062 0.59375,0.64062 0.375,0.25 0.84375,0.40625 0.46875,0.14063 1.46875,0.3125 1.67187,0.26563 2.3125,0.54688 0.84375,0.39062 1.28125,1.0625 0.4375,0.67187 0.4375,1.59375 0,1.40625 -1.125,2.40625 -1.125,0.98437 -3.03125,0.98437 -2.14063,0 -3.42188,-1.34375 v 0.46875 q 0,0.29688 -0.10937,0.42188 -0.10938,0.125 -0.29688,0.125 -0.17187,0 -0.29687,-0.125 -0.10938,-0.125 -0.10938,-0.42188 v -2.26562 q 0,-0.29688 0.10938,-0.42188 0.10937,-0.14062 0.29687,-0.14062 0.17188,0 0.28125,0.125 0.125,0.10937 0.125,0.375 0.0469,0.90625 0.95313,1.64062 0.92187,0.73438 2.46875,0.73438 1.54687,0 2.4375,-0.76563 0.89062,-0.78125 0.89062,-1.82812 0,-0.64063 -0.34375,-1.14063 -0.34375,-0.51562 -1.01562,-0.8125 -0.46875,-0.20312 -1.95313,-0.45312 -2.03125,-0.34375 -2.9375,-1.04688 -0.89062,-0.70312 -0.89062,-2 0,-1.28125 1.01562,-2.20312 1.03125,-0.9375 2.73438,-0.9375 1.71875,0 2.95312,1.07812 z m 11.87695,10.60938 v -1.20313 q -1.6875,1.53125 -3.64062,1.53125 -1.20313,0 -1.82813,-0.65625 -0.79687,-0.85937 -0.79687,-2 v -5.29687 h -1.10938 q -0.29687,0 -0.42187,-0.10938 -0.125,-0.125 -0.125,-0.3125 0,-0.17187 0.125,-0.28125 0.125,-0.125 0.42187,-0.125 h 1.92188 v 6.125 q 0,0.79688 0.5,1.3125 0.51562,0.51563 1.28125,0.51563 2,0 3.67187,-1.82813 v -5.29687 h -1.51562 q -0.29688,0 -0.42188,-0.10938 -0.125,-0.125 -0.125,-0.3125 0,-0.17187 0.125,-0.28125 0.125,-0.125 0.42188,-0.125 h 2.32812 v 7.625 h 0.70313 q 0.28125,0 0.40625,0.125 0.14062,0.10938 0.14062,0.29688 0,0.17187 -0.14062,0.29687 -0.125,0.10938 -0.40625,0.10938 z m 6.09571,-12.25 v 5.4375 q 1.48437,-1.9375 3.59375,-1.9375 1.79687,0 3.0625,1.3125 1.28125,1.29687 1.28125,3.1875 0,1.92187 -1.29688,3.25 -1.28125,1.32812 -3.04687,1.32812 -2.15625,0 -3.59375,-1.9375 v 1.60938 h -1.92188 q -0.29687,0 -0.42187,-0.10938 -0.125,-0.125 -0.125,-0.29687 0,-0.1875 0.125,-0.29688 0.125,-0.125 0.42187,-0.125 h 1.10938 v -10.59375 h -1.10938 q -0.29687,0 -0.42187,-0.10937 -0.125,-0.125 -0.125,-0.3125 0,-0.17188 0.125,-0.28125 0.125,-0.125 0.42187,-0.125 z m 7.125,8.04687 q 0,-1.5625 -1.0625,-2.64062 -1.0625,-1.07813 -2.5,-1.07813 -1.42188,0 -2.48438,1.07813 -1.0625,1.07812 -1.0625,2.64062 0,1.54688 1.0625,2.625 1.0625,1.07813 2.48438,1.07813 1.4375,0 2.5,-1.07813 1.0625,-1.07812 1.0625,-2.625 z m 10.68945,-3.71875 q 0,-0.28125 0.10937,-0.40625 0.125,-0.125 0.29688,-0.125 0.1875,0 0.29687,0.125 0.125,0.125 0.125,0.42188 v 1.40625 q 0,0.29687 -0.125,0.42187 -0.10937,0.125 -0.29687,0.125 -0.17188,0 -0.28125,-0.0937 -0.10938,-0.10937 -0.125,-0.35937 -0.0625,-0.59375 -0.60938,-0.96875 -0.79687,-0.54688 -2.125,-0.54688 -1.375,0 -2.14062,0.5625 -0.57813,0.42188 -0.57813,0.9375 0,0.57813 0.6875,0.96875 0.46875,0.28125 1.78125,0.42188 1.70313,0.1875 2.375,0.42187 0.9375,0.34375 1.40625,0.95313 0.46875,0.59375 0.46875,1.29687 0,1.04688 -1.01562,1.875 -1,0.8125 -2.9375,0.8125 -1.95313,0 -3.1875,-1 0,0.34375 -0.0469,0.4375 -0.0312,0.0937 -0.14062,0.17188 -0.0937,0.0625 -0.21875,0.0625 -0.1875,0 -0.3125,-0.125 -0.10938,-0.125 -0.10938,-0.42188 v -1.6875 q 0,-0.29687 0.10938,-0.42187 0.125,-0.125 0.3125,-0.125 0.17187,0 0.29687,0.125 0.125,0.10937 0.125,0.32812 0,0.4375 0.21875,0.75 0.34375,0.46875 1.07813,0.78125 0.75,0.29688 1.84375,0.29688 1.59375,0 2.375,-0.59375 0.78125,-0.59375 0.78125,-1.26563 0,-0.75 -0.78125,-1.21875 -0.8125,-0.45312 -2.34375,-0.60937 -1.51563,-0.15625 -2.1875,-0.40625 -0.65625,-0.26563 -1.03125,-0.76563 -0.375,-0.51562 -0.375,-1.09375 0,-1.0625 1.03125,-1.67187 1.04687,-0.625 2.48437,-0.625 1.6875,0 2.76563,0.82812 z m 7.5957,-0.53125 h 4.45313 q 0.29687,0 0.42187,0.125 0.125,0.10938 0.125,0.29688 0,0.17187 -0.125,0.29687 -0.125,0.10938 -0.42187,0.10938 h -4.45313 v 5.45312 q 0,0.71875 0.5625,1.20313 0.57813,0.46875 1.6875,0.46875 0.82813,0 1.79688,-0.25 0.96875,-0.25 1.5,-0.5625 0.20312,-0.125 0.32812,-0.125 0.15625,0 0.26563,0.125 0.125,0.125 0.125,0.28125 0,0.15625 -0.125,0.28125 -0.3125,0.3125 -1.53125,0.70312 -1.20313,0.375 -2.29688,0.375 -1.4375,0 -2.29687,-0.67187 -0.84375,-0.6875 -0.84375,-1.82813 v -5.45312 h -1.51563 q -0.28125,0 -0.42187,-0.10938 -0.125,-0.125 -0.125,-0.3125 0,-0.17187 0.125,-0.28125 0.14062,-0.125 0.42187,-0.125 h 1.51563 v -2.42187 q 0,-0.29688 0.10937,-0.42188 0.125,-0.125 0.29688,-0.125 0.1875,0 0.29687,0.125 0.125,0.125 0.125,0.42188 z m 12.70508,0 v 2.0625 q 1.60938,-1.4375 2.40625,-1.84375 0.79688,-0.42187 1.46875,-0.42187 0.73438,0 1.35938,0.5 0.625,0.48437 0.625,0.73437 0,0.1875 -0.125,0.3125 -0.10938,0.10938 -0.29688,0.10938 -0.0937,0 -0.17187,-0.0312 -0.0625,-0.0312 -0.25,-0.21875 -0.34375,-0.34375 -0.59375,-0.46875 -0.25,-0.125 -0.5,-0.125 -0.53125,0 -1.29688,0.4375 -0.75,0.42187 -2.625,2.09375 v 4.48437 h 3.64063 q 0.29687,0 0.42187,0.125 0.125,0.10938 0.125,0.29688 0,0.17187 -0.125,0.29687 -0.125,0.10938 -0.42187,0.10938 h -6.4375 q -0.29688,0 -0.42188,-0.10938 -0.125,-0.10937 -0.125,-0.29687 0,-0.15625 0.125,-0.26563 0.125,-0.125 0.42188,-0.125 h 1.98437 v -6.82812 h -1.51562 q -0.29688,0 -0.42188,-0.10938 -0.125,-0.125 -0.125,-0.3125 0,-0.17187 0.125,-0.28125 0.125,-0.125 0.42188,-0.125 z m 15.3457,8.45313 v -1.1875 q -1.78125,1.51562 -3.8125,1.51562 -1.48437,0 -2.3125,-0.75 -0.82812,-0.75 -0.82812,-1.82812 0,-1.20313 1.09375,-2.07813 1.09375,-0.89062 3.1875,-0.89062 0.57812,0 1.23437,0.0781 0.67188,0.0625 1.4375,0.21875 v -1.32812 q 0,-0.67188 -0.625,-1.17188 -0.625,-0.5 -1.875,-0.5 -0.95312,0 -2.6875,0.5625 -0.3125,0.0937 -0.39062,0.0937 -0.15625,0 -0.28125,-0.10937 -0.10938,-0.125 -0.10938,-0.29688 0,-0.17187 0.0937,-0.26562 0.14063,-0.15625 1.10938,-0.40625 1.53125,-0.40625 2.3125,-0.40625 1.54687,0 2.40625,0.76562 0.875,0.76563 0.875,1.73438 v 5.42187 h 1.09375 q 0.3125,0 0.4375,0.125 0.125,0.10938 0.125,0.29688 0,0.17187 -0.125,0.29687 -0.125,0.10938 -0.4375,0.10938 z m 0,-4.07813 q -0.57812,-0.17187 -1.21875,-0.25 -0.64062,-0.0781 -1.35937,-0.0781 -1.78125,0 -2.79688,0.76562 -0.75,0.57813 -0.75,1.39063 0,0.73437 0.57813,1.25 0.57812,0.5 1.6875,0.5 1.0625,0 1.96875,-0.42188 0.92187,-0.42187 1.89062,-1.35937 z m 7.95508,-4.375 h 4.45313 q 0.29687,0 0.42187,0.125 0.125,0.10938 0.125,0.29688 0,0.17187 -0.125,0.29687 -0.125,0.10938 -0.42187,0.10938 h -4.45313 v 5.45312 q 0,0.71875 0.5625,1.20313 0.57813,0.46875 1.6875,0.46875 0.82813,0 1.79688,-0.25 0.96875,-0.25 1.5,-0.5625 0.20312,-0.125 0.32812,-0.125 0.15625,0 0.26563,0.125 0.125,0.125 0.125,0.28125 0,0.15625 -0.125,0.28125 -0.3125,0.3125 -1.53125,0.70312 -1.20313,0.375 -2.29688,0.375 -1.4375,0 -2.29687,-0.67187 -0.84375,-0.6875 -0.84375,-1.82813 v -5.45312 h -1.51563 q -0.28125,0 -0.42187,-0.10938 -0.125,-0.125 -0.125,-0.3125 0,-0.17187 0.125,-0.28125 0.14062,-0.125 0.42187,-0.125 h 1.51563 v -2.42187 q 0,-0.29688 0.10937,-0.42188 0.125,-0.125 0.29688,-0.125 0.1875,0 0.29687,0.125 0.125,0.125 0.125,0.42188 z m 18.12695,4.42188 h -8.35937 q 0.21875,1.59375 1.32812,2.5625 1.125,0.96875 2.78125,0.96875 0.90625,0 1.90625,-0.29688 1.01563,-0.3125 1.65625,-0.8125 0.1875,-0.14062 0.3125,-0.14062 0.15625,0 0.26563,0.125 0.125,0.125 0.125,0.28125 0,0.17187 -0.15625,0.32812 -0.46875,0.48438 -1.67188,0.92188 -1.1875,0.42187 -2.4375,0.42187 -2.10937,0 -3.53125,-1.375 -1.40625,-1.39062 -1.40625,-3.35937 0,-1.78125 1.3125,-3.0625 1.32813,-1.28125 3.28125,-1.28125 2.01563,0 3.3125,1.3125 1.29688,1.3125 1.28125,3.40625 z m -0.82812,-0.82813 q -0.25,-1.35937 -1.29688,-2.20312 -1.03125,-0.85938 -2.46875,-0.85938 -1.42187,0 -2.46875,0.84375 -1.03125,0.84375 -1.28125,2.21875 z m 24.41016,4.85938 h -1.04688 l -6.04687,-10.21875 v 9.39062 h 1.51562 q 0.29688,0 0.42188,0.125 0.125,0.10938 0.125,0.29688 0,0.17187 -0.125,0.29687 -0.125,0.10938 -0.42188,0.10938 h -3.01562 q -0.3125,0 -0.4375,-0.10938 -0.125,-0.125 -0.125,-0.29687 0,-0.1875 0.125,-0.29688 0.125,-0.125 0.4375,-0.125 h 0.67187 v -9.78125 h -1.09375 q -0.29687,0 -0.42187,-0.10937 -0.125,-0.10938 -0.125,-0.29688 0,-0.1875 0.125,-0.29687 0.125,-0.10938 0.42187,-0.10938 h 2.14063 l 6.0625,10.23438 v -9.42188 h -1.51563 q -0.29687,0 -0.42187,-0.10937 -0.125,-0.10938 -0.125,-0.29688 0,-0.1875 0.125,-0.29687 0.125,-0.10938 0.42187,-0.10938 h 3.03125 q 0.28125,0 0.40625,0.10938 0.14063,0.10937 0.14063,0.29687 0,0.1875 -0.14063,0.29688 -0.125,0.10937 -0.40625,0.10937 h -0.70312 z m 12.58007,-4.20313 q 0,1.875 -1.34375,3.20313 -1.34375,1.32812 -3.25,1.32812 -1.90625,0 -3.25,-1.32812 -1.32812,-1.34375 -1.32812,-3.20313 0,-1.875 1.32812,-3.20312 1.34375,-1.34375 3.25,-1.34375 1.90625,0 3.25,1.32812 1.34375,1.32813 1.34375,3.21875 z m -0.84375,0 q 0,-1.54687 -1.09375,-2.625 -1.09375,-1.09375 -2.65625,-1.09375 -1.5625,0 -2.67187,1.09375 -1.09375,1.07813 -1.09375,2.625 0,1.51563 1.09375,2.60938 1.10937,1.09375 2.67187,1.09375 1.5625,0 2.65625,-1.07813 1.09375,-1.09375 1.09375,-2.625 z m 12.26758,-8.04687 v 11.42187 h 1.09375 q 0.3125,0 0.4375,0.125 0.125,0.10938 0.125,0.29688 0,0.17187 -0.125,0.29687 -0.125,0.10938 -0.4375,0.10938 h -1.92187 v -1.625 q -1.42188,1.95312 -3.625,1.95312 -1.10938,0 -2.14063,-0.59375 -1.01562,-0.59375 -1.60937,-1.6875 -0.57813,-1.09375 -0.57813,-2.25 0,-1.17187 0.57813,-2.26562 0.59375,-1.09375 1.60937,-1.6875 1.03125,-0.59375 2.15625,-0.59375 2.14063,0 3.60938,1.95312 v -4.625 h -1.09375 q -0.29688,0 -0.42188,-0.10937 -0.125,-0.125 -0.125,-0.3125 0,-0.17188 0.125,-0.28125 0.125,-0.125 0.42188,-0.125 z m -0.82812,8.04687 q 0,-1.5625 -1.0625,-2.64062 -1.04688,-1.07813 -2.5,-1.07813 -1.46875,0 -2.53125,1.07813 -1.04688,1.07812 -1.04688,2.64062 0,1.54688 1.04688,2.625 1.0625,1.07813 2.53125,1.07813 1.45312,0 2.5,-1.07813 1.0625,-1.07812 1.0625,-2.625 z m 13.25195,0.17188 h -8.35938 q 0.21875,1.59375 1.32813,2.5625 1.125,0.96875 2.78125,0.96875 0.90625,0 1.90625,-0.29688 1.01562,-0.3125 1.65625,-0.8125 0.1875,-0.14062 0.3125,-0.14062 0.15625,0 0.26562,0.125 0.125,0.125 0.125,0.28125 0,0.17187 -0.15625,0.32812 -0.46875,0.48438 -1.67187,0.92188 -1.1875,0.42187 -2.4375,0.42187 -2.10938,0 -3.53125,-1.375 -1.40625,-1.39062 -1.40625,-3.35937 0,-1.78125 1.3125,-3.0625 1.32812,-1.28125 3.28125,-1.28125 2.01562,0 3.3125,1.3125 1.29687,1.3125 1.28125,3.40625 z m -0.82813,-0.82813 q -0.25,-1.35937 -1.29687,-2.20312 -1.03125,-0.85938 -2.46875,-0.85938 -1.42188,0 -2.46875,0.84375 -1.03125,0.84375 -1.28125,2.21875 z m 20.81641,-0.4375 v 4.09375 q 0,0.29688 -0.125,0.42188 -0.10937,0.125 -0.29687,0.125 -0.17188,0 -0.29688,-0.125 -0.10937,-0.125 -0.10937,-0.42188 v -4.09375 h -3.64063 q -0.29687,0 -0.42187,-0.10937 -0.125,-0.125 -0.125,-0.3125 0,-0.1875 0.125,-0.29688 0.125,-0.10937 0.42187,-0.10937 h 3.64063 v -4.07813 q 0,-0.29687 0.10937,-0.42187 0.125,-0.125 0.29688,-0.125 0.1875,0 0.29687,0.125 0.125,0.125 0.125,0.42187 v 4.07813 h 3.625 q 0.29688,0 0.42188,0.10937 0.125,0.10938 0.125,0.29688 0,0.1875 -0.125,0.3125 -0.125,0.10937 -0.42188,0.10937 z m 20.48828,-3.15625 v 1.48438 q 0.73438,-0.89063 1.57813,-1.32813 0.84375,-0.45312 1.98437,-0.45312 1.20313,0 2.23438,0.5625 1.03125,0.5625 1.57812,1.57812 0.5625,1.01563 0.5625,2.125 0,1.76563 -1.26562,3.03125 -1.25,1.25 -3.10938,1.25 -2.1875,0 -3.5625,-1.79687 v 4.95312 h 2 q 0.29688,0 0.42188,0.10938 0.125,0.10937 0.125,0.29687 0,0.17188 -0.125,0.28125 -0.125,0.125 -0.42188,0.125 h -3.92187 q -0.29688,0 -0.42188,-0.10937 -0.125,-0.10938 -0.125,-0.29688 0,-0.1875 0.125,-0.29687 0.125,-0.10938 0.42188,-0.10938 h 1.10937 v -10.57812 h -1.10937 q -0.29688,0 -0.42188,-0.10938 -0.125,-0.125 -0.125,-0.3125 0,-0.17187 0.125,-0.28125 0.125,-0.125 0.42188,-0.125 z m 7.10938,3.96875 q 0,-1.42187 -1.03125,-2.42187 -1.03125,-1.01563 -2.51563,-1.01563 -1.48437,0 -2.53125,1.01563 -1.03125,1.01562 -1.03125,2.42187 0,1.42188 1.03125,2.4375 1.04688,1.01563 2.53125,1.01563 1.48438,0 2.51563,-1.01563 1.03125,-1.01562 1.03125,-2.4375 z m 10.3457,4.48438 v -1.1875 q -1.78125,1.51562 -3.8125,1.51562 -1.48438,0 -2.3125,-0.75 -0.82813,-0.75 -0.82813,-1.82812 0,-1.20313 1.09375,-2.07813 1.09375,-0.89062 3.1875,-0.89062 0.57813,0 1.23438,0.0781 0.67187,0.0625 1.4375,0.21875 v -1.32812 q 0,-0.67188 -0.625,-1.17188 -0.625,-0.5 -1.875,-0.5 -0.95313,0 -2.6875,0.5625 -0.3125,0.0937 -0.39063,0.0937 -0.15625,0 -0.28125,-0.10937 -0.10937,-0.125 -0.10937,-0.29688 0,-0.17187 0.0937,-0.26562 0.14062,-0.15625 1.10937,-0.40625 1.53125,-0.40625 2.3125,-0.40625 1.54688,0 2.40625,0.76562 0.875,0.76563 0.875,1.73438 v 5.42187 h 1.09375 q 0.3125,0 0.4375,0.125 0.125,0.10938 0.125,0.29688 0,0.17187 -0.125,0.29687 -0.125,0.10938 -0.4375,0.10938 z m 0,-4.07813 q -0.57813,-0.17187 -1.21875,-0.25 -0.64063,-0.0781 -1.35938,-0.0781 -1.78125,0 -2.79687,0.76562 -0.75,0.57813 -0.75,1.39063 0,0.73437 0.57812,1.25 0.57813,0.5 1.6875,0.5 1.0625,0 1.96875,-0.42188 0.92188,-0.42187 1.89063,-1.35937 z m 10.06445,-8.17187 v 11.42187 h 3.21875 q 0.29688,0 0.42188,0.125 0.14062,0.10938 0.14062,0.29688 0,0.17187 -0.14062,0.29687 -0.125,0.10938 -0.42188,0.10938 h -7.26562 q -0.29688,0 -0.42188,-0.10938 -0.125,-0.125 -0.125,-0.29687 0,-0.1875 0.125,-0.29688 0.125,-0.125 0.42188,-0.125 h 3.21875 v -10.59375 h -2.35938 q -0.29687,0 -0.4375,-0.10937 -0.125,-0.125 -0.125,-0.3125 0,-0.17188 0.125,-0.28125 0.14063,-0.125 0.4375,-0.125 z m 12.00196,0 v 11.42187 h 3.21875 q 0.29687,0 0.42187,0.125 0.14063,0.10938 0.14063,0.29688 0,0.17187 -0.14063,0.29687 -0.125,0.10938 -0.42187,0.10938 h -7.26563 q -0.29687,0 -0.42187,-0.10938 -0.125,-0.125 -0.125,-0.29687 0,-0.1875 0.125,-0.29688 0.125,-0.125 0.42187,-0.125 h 3.21875 v -10.59375 h -2.35937 q -0.29688,0 -0.4375,-0.10937 -0.125,-0.125 -0.125,-0.3125 0,-0.17188 0.125,-0.28125 0.14062,-0.125 0.4375,-0.125 z m 16.01757,8.21875 h -8.35937 q 0.21875,1.59375 1.32812,2.5625 1.125,0.96875 2.78125,0.96875 0.90625,0 1.90625,-0.29688 1.01563,-0.3125 1.65625,-0.8125 0.1875,-0.14062 0.3125,-0.14062 0.15625,0 0.26563,0.125 0.125,0.125 0.125,0.28125 0,0.17187 -0.15625,0.32812 -0.46875,0.48438 -1.67188,0.92188 -1.1875,0.42187 -2.4375,0.42187 -2.10937,0 -3.53125,-1.375 -1.40625,-1.39062 -1.40625,-3.35937 0,-1.78125 1.3125,-3.0625 1.32813,-1.28125 3.28125,-1.28125 2.01563,0 3.3125,1.3125 1.29688,1.3125 1.28125,3.40625 z m -0.82812,-0.82813 q -0.25,-1.35937 -1.29688,-2.20312 -1.03125,-0.85938 -2.46875,-0.85938 -1.42187,0 -2.46875,0.84375 -1.03125,0.84375 -1.28125,2.21875 z m 6.70508,-3.59375 h 4.45312 q 0.29688,0 0.42188,0.125 0.125,0.10938 0.125,0.29688 0,0.17187 -0.125,0.29687 -0.125,0.10938 -0.42188,0.10938 h -4.45312 v 5.45312 q 0,0.71875 0.5625,1.20313 0.57812,0.46875 1.6875,0.46875 0.82812,0 1.79687,-0.25 0.96875,-0.25 1.5,-0.5625 0.20313,-0.125 0.32813,-0.125 0.15625,0 0.26562,0.125 0.125,0.125 0.125,0.28125 0,0.15625 -0.125,0.28125 -0.3125,0.3125 -1.53125,0.70312 -1.20312,0.375 -2.29687,0.375 -1.4375,0 -2.29688,-0.67187 -0.84375,-0.6875 -0.84375,-1.82813 v -5.45312 h -1.51562 q -0.28125,0 -0.42188,-0.10938 -0.125,-0.125 -0.125,-0.3125 0,-0.17187 0.125,-0.28125 0.14063,-0.125 0.42188,-0.125 h 1.51562 v -2.42187 q 0,-0.29688 0.10938,-0.42188 0.125,-0.125 0.29687,-0.125 0.1875,0 0.29688,0.125 0.125,0.125 0.125,0.42188 z m 17.87695,2.21875 v 1.17188 h -8.375 v -1.17188 z m 11.23633,-1.39062 v -0.28125 q 0,-0.29688 0.10937,-0.42188 0.125,-0.125 0.29688,-0.125 0.1875,0 0.29687,0.125 0.125,0.125 0.125,0.42188 v 1.85937 q 0,0.29688 -0.125,0.4375 -0.10937,0.125 -0.29687,0.125 -0.15625,0 -0.28125,-0.10937 -0.10938,-0.125 -0.125,-0.39063 -0.0625,-0.6875 -0.92188,-1.3125 -0.84375,-0.625 -2.28125,-0.625 -1.82812,0 -2.78125,1.14063 -0.95312,1.14062 -0.95312,2.625 0,1.59375 1.04687,2.625 1.04688,1.03125 2.70313,1.03125 0.96875,0 1.95312,-0.34375 1,-0.35938 1.79688,-1.14063 0.20312,-0.1875 0.35937,-0.1875 0.17188,0 0.28125,0.10938 0.10938,0.10937 0.10938,0.28125 0,0.40625 -0.98438,1.0625 -1.59375,1.04687 -3.54687,1.04687 -1.98438,0 -3.26563,-1.26562 -1.26562,-1.26563 -1.26562,-3.21875 0,-1.98438 1.29687,-3.28125 1.3125,-1.3125 3.29688,-1.3125 1.875,0 3.15625,1.125 z m 13.17382,3.42187 q 0,1.875 -1.34375,3.20313 -1.34375,1.32812 -3.25,1.32812 -1.90625,0 -3.25,-1.32812 -1.32812,-1.34375 -1.32812,-3.20313 0,-1.875 1.32812,-3.20312 1.34375,-1.34375 3.25,-1.34375 1.90625,0 3.25,1.32812 1.34375,1.32813 1.34375,3.21875 z m -0.84375,0 q 0,-1.54687 -1.09375,-2.625 -1.09375,-1.09375 -2.65625,-1.09375 -1.5625,0 -2.67187,1.09375 -1.09375,1.07813 -1.09375,2.625 0,1.51563 1.09375,2.60938 1.10937,1.09375 2.67187,1.09375 1.5625,0 2.65625,-1.07813 1.09375,-1.09375 1.09375,-2.625 z m 5.59571,-4.25 v 1.23438 q 0.85937,-0.875 1.54687,-1.20313 0.70313,-0.32812 1.57813,-0.32812 0.9375,0 1.70312,0.40625 0.54688,0.28125 0.98438,0.96875 0.45312,0.67187 0.45312,1.39062 v 5.15625 h 0.6875 q 0.29688,0 0.42188,0.125 0.125,0.10938 0.125,0.29688 0,0.17187 -0.125,0.29687 -0.125,0.10938 -0.42188,0.10938 h -2.1875 q -0.3125,0 -0.4375,-0.10938 -0.125,-0.125 -0.125,-0.29687 0,-0.1875 0.125,-0.29688 0.125,-0.125 0.4375,-0.125 h 0.6875 v -5.01562 q 0,-0.875 -0.64062,-1.46875 -0.64063,-0.60938 -1.70313,-0.60938 -0.8125,0 -1.40625,0.32813 -0.59375,0.32812 -1.70312,1.625 v 5.14062 h 0.9375 q 0.29687,0 0.42187,0.125 0.125,0.10938 0.125,0.29688 0,0.17187 -0.125,0.29687 -0.125,0.10938 -0.42187,0.10938 h -2.67188 q -0.29687,0 -0.42187,-0.10938 -0.125,-0.125 -0.125,-0.29687 0,-0.1875 0.125,-0.29688 0.125,-0.125 0.42187,-0.125 h 0.92188 v -6.79687 h -0.6875 q -0.29688,0 -0.42188,-0.10938 -0.125,-0.125 -0.125,-0.3125 0,-0.17187 0.125,-0.28125 0.125,-0.125 0.42188,-0.125 z m 12.9707,0 h 4.45313 q 0.29687,0 0.42187,0.125 0.125,0.10938 0.125,0.29688 0,0.17187 -0.125,0.29687 -0.125,0.10938 -0.42187,0.10938 h -4.45313 v 5.45312 q 0,0.71875 0.5625,1.20313 0.57813,0.46875 1.6875,0.46875 0.82813,0 1.79688,-0.25 0.96875,-0.25 1.5,-0.5625 0.20312,-0.125 0.32812,-0.125 0.15625,0 0.26563,0.125 0.125,0.125 0.125,0.28125 0,0.15625 -0.125,0.28125 -0.3125,0.3125 -1.53125,0.70312 -1.20313,0.375 -2.29688,0.375 -1.4375,0 -2.29687,-0.67187 -0.84375,-0.6875 -0.84375,-1.82813 v -5.45312 h -1.51563 q -0.28125,0 -0.42187,-0.10938 -0.125,-0.125 -0.125,-0.3125 0,-0.17187 0.125,-0.28125 0.14062,-0.125 0.42187,-0.125 h 1.51563 v -2.42187 q 0,-0.29688 0.10937,-0.42188 0.125,-0.125 0.29688,-0.125 0.1875,0 0.29687,0.125 0.125,0.125 0.125,0.42188 z m 12.70508,0 v 2.0625 q 1.60937,-1.4375 2.40625,-1.84375 0.79687,-0.42187 1.46875,-0.42187 0.73437,0 1.35937,0.5 0.625,0.48437 0.625,0.73437 0,0.1875 -0.125,0.3125 -0.10937,0.10938 -0.29687,0.10938 -0.0937,0 -0.17188,-0.0312 -0.0625,-0.0312 -0.25,-0.21875 -0.34375,-0.34375 -0.59375,-0.46875 -0.25,-0.125 -0.5,-0.125 -0.53125,0 -1.29687,0.4375 -0.75,0.42187 -2.625,2.09375 v 4.48437 h 3.64062 q 0.29688,0 0.42188,0.125 0.125,0.10938 0.125,0.29688 0,0.17187 -0.125,0.29687 -0.125,0.10938 -0.42188,0.10938 h -6.4375 q -0.29687,0 -0.42187,-0.10938 -0.125,-0.10937 -0.125,-0.29687 0,-0.15625 0.125,-0.26563 0.125,-0.125 0.42187,-0.125 h 1.98438 v -6.82812 h -1.51563 q -0.29687,0 -0.42187,-0.10938 -0.125,-0.125 -0.125,-0.3125 0,-0.17187 0.125,-0.28125 0.125,-0.125 0.42187,-0.125 z m 15.3457,8.45313 v -1.1875 q -1.78125,1.51562 -3.8125,1.51562 -1.48437,0 -2.3125,-0.75 -0.82812,-0.75 -0.82812,-1.82812 0,-1.20313 1.09375,-2.07813 1.09375,-0.89062 3.1875,-0.89062 0.57812,0 1.23437,0.0781 0.67188,0.0625 1.4375,0.21875 v -1.32812 q 0,-0.67188 -0.625,-1.17188 -0.625,-0.5 -1.875,-0.5 -0.95312,0 -2.6875,0.5625 -0.3125,0.0937 -0.39062,0.0937 -0.15625,0 -0.28125,-0.10937 -0.10938,-0.125 -0.10938,-0.29688 0,-0.17187 0.0937,-0.26562 0.14063,-0.15625 1.10938,-0.40625 1.53125,-0.40625 2.3125,-0.40625 1.54687,0 2.40625,0.76562 0.875,0.76563 0.875,1.73438 v 5.42187 h 1.09375 q 0.3125,0 0.4375,0.125 0.125,0.10938 0.125,0.29688 0,0.17187 -0.125,0.29687 -0.125,0.10938 -0.4375,0.10938 z m 0,-4.07813 q -0.57812,-0.17187 -1.21875,-0.25 -0.64062,-0.0781 -1.35937,-0.0781 -1.78125,0 -2.79688,0.76562 -0.75,0.57813 -0.75,1.39063 0,0.73437 0.57813,1.25 0.57812,0.5 1.6875,0.5 1.0625,0 1.96875,-0.42188 0.92187,-0.42187 1.89062,-1.35937 z m 13.06445,-3.54687 v -0.28125 q 0,-0.29688 0.10938,-0.42188 0.125,-0.125 0.29687,-0.125 0.1875,0 0.29688,0.125 0.125,0.125 0.125,0.42188 v 1.85937 q 0,0.29688 -0.125,0.4375 -0.10938,0.125 -0.29688,0.125 -0.15625,0 -0.28125,-0.10937 -0.10937,-0.125 -0.125,-0.39063 -0.0625,-0.6875 -0.92187,-1.3125 -0.84375,-0.625 -2.28125,-0.625 -1.82813,0 -2.78125,1.14063 -0.95313,1.14062 -0.95313,2.625 0,1.59375 1.04688,2.625 1.04687,1.03125 2.70312,1.03125 0.96875,0 1.95313,-0.34375 1,-0.35938 1.79687,-1.14063 0.20313,-0.1875 0.35938,-0.1875 0.17187,0 0.28125,0.10938 0.10937,0.10937 0.10937,0.28125 0,0.40625 -0.98437,1.0625 -1.59375,1.04687 -3.54688,1.04687 -1.98437,0 -3.26562,-1.26562 -1.26563,-1.26563 -1.26563,-3.21875 0,-1.98438 1.29688,-3.28125 1.3125,-1.3125 3.29687,-1.3125 1.875,0 3.15625,1.125 z m 6.89258,-0.82813 h 4.45313 q 0.29687,0 0.42187,0.125 0.125,0.10938 0.125,0.29688 0,0.17187 -0.125,0.29687 -0.125,0.10938 -0.42187,0.10938 h -4.45313 v 5.45312 q 0,0.71875 0.5625,1.20313 0.57813,0.46875 1.6875,0.46875 0.82813,0 1.79688,-0.25 0.96875,-0.25 1.5,-0.5625 0.20312,-0.125 0.32812,-0.125 0.15625,0 0.26563,0.125 0.125,0.125 0.125,0.28125 0,0.15625 -0.125,0.28125 -0.3125,0.3125 -1.53125,0.70312 -1.20313,0.375 -2.29688,0.375 -1.4375,0 -2.29687,-0.67187 -0.84375,-0.6875 -0.84375,-1.82813 v -5.45312 h -1.51563 q -0.28125,0 -0.42187,-0.10938 -0.125,-0.125 -0.125,-0.3125 0,-0.17187 0.125,-0.28125 0.14062,-0.125 0.42187,-0.125 h 1.51563 v -2.42187 q 0,-0.29688 0.10937,-0.42188 0.125,-0.125 0.29688,-0.125 0.1875,0 0.29687,0.125 0.125,0.125 0.125,0.42188 z m 16.40821,0.53125 q 0,-0.28125 0.10937,-0.40625 0.125,-0.125 0.29688,-0.125 0.1875,0 0.29687,0.125 0.125,0.125 0.125,0.42188 v 1.40625 q 0,0.29687 -0.125,0.42187 -0.10937,0.125 -0.29687,0.125 -0.17188,0 -0.28125,-0.0937 -0.10938,-0.10937 -0.125,-0.35937 -0.0625,-0.59375 -0.60938,-0.96875 -0.79687,-0.54688 -2.125,-0.54688 -1.375,0 -2.14062,0.5625 -0.57813,0.42188 -0.57813,0.9375 0,0.57813 0.6875,0.96875 0.46875,0.28125 1.78125,0.42188 1.70313,0.1875 2.375,0.42187 0.9375,0.34375 1.40625,0.95313 0.46875,0.59375 0.46875,1.29687 0,1.04688 -1.01562,1.875 -1,0.8125 -2.9375,0.8125 -1.95313,0 -3.1875,-1 0,0.34375 -0.0469,0.4375 -0.0312,0.0937 -0.14062,0.17188 -0.0937,0.0625 -0.21875,0.0625 -0.1875,0 -0.3125,-0.125 -0.10938,-0.125 -0.10938,-0.42188 v -1.6875 q 0,-0.29687 0.10938,-0.42187 0.125,-0.125 0.3125,-0.125 0.17187,0 0.29687,0.125 0.125,0.10937 0.125,0.32812 0,0.4375 0.21875,0.75 0.34375,0.46875 1.07813,0.78125 0.75,0.29688 1.84375,0.29688 1.59375,0 2.375,-0.59375 0.78125,-0.59375 0.78125,-1.26563 0,-0.75 -0.78125,-1.21875 -0.8125,-0.45312 -2.34375,-0.60937 -1.51563,-0.15625 -2.1875,-0.40625 -0.65625,-0.26563 -1.03125,-0.76563 -0.375,-0.51562 -0.375,-1.09375 0,-1.0625 1.03125,-1.67187 1.04687,-0.625 2.48437,-0.625 1.6875,0 2.76563,0.82812 z"
       fill-rule="nonzero"
       id="path95" />
    <path
       fill="#adadad"
       d="m 290.2231,69.59055 18.80316,-18.80315 18.80316,18.80315 h -9.40161 v 27.08662 h 9.40161 L 309.02626,115.48032 290.2231,96.67717 h 9.40158 V 69.59055 Z"
       fill-rule="evenodd"
       id="path97" />
    <path
       stroke="#303030"
       stroke-width="1"
       stroke-linejoin="round"
       stroke-linecap="butt"
       d="m 290.2231,69.59055 18.80316,-18.80315 18.80316,18.80315 h -9.40161 v 27.08662 h 9.40161 L 309.02626,115.48032 290.2231,96.67717 h 9.40158 V 69.59055 Z"
       fill-rule="evenodd"
       id="path99" />
    <path
       fill="#000000"
       fill-opacity="0"
       d="M 334.15487,56 H 608.64303 V 99.62204 H 334.15487 Z"
       fill-rule="evenodd"
       id="path101" />
    <path
       fill="#ffffff"
       d="m 345.93613,83.37187 v -9.78125 h -0.6875 q -0.29687,0 -0.42187,-0.10938 -0.125,-0.10937 -0.125,-0.29687 0,-0.1875 0.125,-0.29688 0.125,-0.10937 0.42187,-0.10937 h 4.40625 q 1.04688,0 1.89063,0.4375 0.85937,0.42187 1.3125,0.96875 0.76562,0.92187 1.17187,1.95312 0.28125,0.75 0.28125,1.78125 v 1.14063 q 0,1.25 -0.5625,2.4375 -0.54687,1.17187 -1.85937,2.0625 -0.95313,0.64062 -2.23438,0.64062 h -4.40625 q -0.29687,0 -0.42187,-0.10937 -0.125,-0.125 -0.125,-0.29688 0,-0.1875 0.125,-0.29687 0.125,-0.125 0.42187,-0.125 z m 0.82813,0 h 2.96875 q 1.04687,0 1.9375,-0.67188 0.90625,-0.67187 1.35937,-1.60937 0.45313,-0.9375 0.45313,-1.85938 v -1.48437 q 0,-0.76563 -0.23438,-1.35938 -0.35937,-0.875 -1,-1.65625 -0.35937,-0.42187 -1.04687,-0.78125 -0.67188,-0.35937 -1.46875,-0.35937 h -2.96875 z m 13.4082,-7.625 v 2.0625 q 1.60937,-1.4375 2.40625,-1.84375 0.79687,-0.42188 1.46875,-0.42188 0.73437,0 1.35937,0.5 0.625,0.48438 0.625,0.73438 0,0.1875 -0.125,0.3125 -0.10937,0.10937 -0.29687,0.10937 -0.0937,0 -0.17188,-0.0312 -0.0625,-0.0312 -0.25,-0.21875 -0.34375,-0.34375 -0.59375,-0.46875 -0.25,-0.125 -0.5,-0.125 -0.53125,0 -1.29687,0.4375 -0.75,0.42188 -2.625,2.09375 v 4.48438 h 3.64062 q 0.29688,0 0.42188,0.125 0.125,0.10937 0.125,0.29687 0,0.17188 -0.125,0.29688 -0.125,0.10937 -0.42188,0.10937 h -6.4375 q -0.29687,0 -0.42187,-0.10937 -0.125,-0.10938 -0.125,-0.29688 0,-0.15625 0.125,-0.26562 0.125,-0.125 0.42187,-0.125 h 1.98438 v -6.82813 h -1.51563 q -0.29687,0 -0.42187,-0.10937 -0.125,-0.125 -0.125,-0.3125 0,-0.17188 0.125,-0.28125 0.125,-0.125 0.42187,-0.125 z m 13.04883,8.45312 -3.8125,-7.625 h -0.25 q -0.29688,0 -0.42188,-0.10937 -0.125,-0.125 -0.125,-0.29688 0,-0.14062 0.0625,-0.23437 0.0625,-0.10938 0.15625,-0.14063 0.10938,-0.0469 0.32813,-0.0469 h 2.25 q 0.29687,0 0.42187,0.125 0.125,0.10937 0.125,0.29687 0,0.17188 -0.125,0.29688 -0.125,0.10937 -0.42187,0.10937 h -1.10938 l 3.35938,6.71875 3.29687,-6.71875 h -1.10937 q -0.28125,0 -0.42188,-0.10937 -0.125,-0.125 -0.125,-0.3125 0,-0.17188 0.125,-0.28125 0.14063,-0.125 0.42188,-0.125 h 2.23437 q 0.3125,0 0.4375,0.125 0.125,0.10937 0.125,0.29687 0,0.125 -0.0781,0.23438 -0.0781,0.0937 -0.17188,0.14062 -0.0937,0.0312 -0.54687,0.0312 l -5.20313,10.57813 h 1.28125 q 0.29688,0 0.42188,0.10937 0.125,0.10938 0.125,0.29688 0,0.17187 -0.125,0.28125 -0.125,0.125 -0.42188,0.125 h -4.71875 q -0.29687,0 -0.42187,-0.10938 -0.125,-0.10937 -0.125,-0.29687 0,-0.1875 0.125,-0.29688 0.125,-0.10937 0.42187,-0.10937 h 2.5625 z m 16.12695,-6.23437 v 1.17187 h -8.375 v -1.17187 z m 5.14258,1.14062 v 4.26563 h 1.51562 q 0.29688,0 0.42188,0.125 0.14062,0.10937 0.14062,0.29687 0,0.17188 -0.14062,0.29688 -0.125,0.10937 -0.42188,0.10937 h -3.4375 q -0.29687,0 -0.42187,-0.10937 -0.125,-0.125 -0.125,-0.29688 0,-0.1875 0.125,-0.29687 0.125,-0.125 0.42187,-0.125 h 1.10938 v -9.78125 h -1.10938 q -0.29687,0 -0.42187,-0.10938 -0.125,-0.10937 -0.125,-0.29687 0,-0.1875 0.125,-0.29688 0.125,-0.10937 0.42187,-0.10937 h 4.96875 q 1.53125,0 2.57813,0.96875 1.04687,0.96875 1.04687,2.1875 0,0.875 -0.65625,1.65625 -0.64062,0.78125 -2.17187,1.29687 0.89062,0.60938 1.51562,1.375 0.625,0.75 2,3.10938 h 0.625 q 0.29688,0 0.42188,0.125 0.125,0.10937 0.125,0.29687 0,0.17188 -0.125,0.29688 -0.125,0.10937 -0.42188,0.10937 h -1.09375 q -1.53125,-2.71875 -2.375,-3.64062 -0.82812,-0.9375 -1.90625,-1.45313 z m 0,-0.82812 h 2.23437 q 1.07813,0 1.95313,-0.39063 0.875,-0.39062 1.26562,-0.90625 0.40625,-0.53125 0.40625,-1.07812 0,-0.82813 -0.82812,-1.5625 -0.82813,-0.75 -2.01563,-0.75 h -3.01562 z m 17.48632,5.92187 v -1.20312 q -1.6875,1.53125 -3.64062,1.53125 -1.20313,0 -1.82813,-0.65625 -0.79687,-0.85938 -0.79687,-2 v -5.29688 h -1.10938 q -0.29687,0 -0.42187,-0.10937 -0.125,-0.125 -0.125,-0.3125 0,-0.17188 0.125,-0.28125 0.125,-0.125 0.42187,-0.125 h 1.92188 v 6.125 q 0,0.79687 0.5,1.3125 0.51562,0.51562 1.28125,0.51562 2,0 3.67187,-1.82812 v -5.29688 h -1.51562 q -0.29688,0 -0.42188,-0.10937 -0.125,-0.125 -0.125,-0.3125 0,-0.17188 0.125,-0.28125 0.125,-0.125 0.42188,-0.125 h 2.32812 v 7.625 h 0.70313 q 0.28125,0 0.40625,0.125 0.14062,0.10937 0.14062,0.29687 0,0.17188 -0.14062,0.29688 -0.125,0.10937 -0.40625,0.10937 z m 6.53321,-8.45312 v 1.23437 q 0.85937,-0.875 1.54687,-1.20312 0.70313,-0.32813 1.57813,-0.32813 0.9375,0 1.70312,0.40625 0.54688,0.28125 0.98438,0.96875 0.45312,0.67188 0.45312,1.39063 v 5.15625 h 0.6875 q 0.29688,0 0.42188,0.125 0.125,0.10937 0.125,0.29687 0,0.17188 -0.125,0.29688 -0.125,0.10937 -0.42188,0.10937 h -2.1875 q -0.3125,0 -0.4375,-0.10937 -0.125,-0.125 -0.125,-0.29688 0,-0.1875 0.125,-0.29687 0.125,-0.125 0.4375,-0.125 h 0.6875 v -5.01563 q 0,-0.875 -0.64062,-1.46875 -0.64063,-0.60937 -1.70313,-0.60937 -0.8125,0 -1.40625,0.32812 -0.59375,0.32813 -1.70312,1.625 v 5.14063 h 0.9375 q 0.29687,0 0.42187,0.125 0.125,0.10937 0.125,0.29687 0,0.17188 -0.125,0.29688 -0.125,0.10937 -0.42187,0.10937 h -2.67188 q -0.29687,0 -0.42187,-0.10937 -0.125,-0.125 -0.125,-0.29688 0,-0.1875 0.125,-0.29687 0.125,-0.125 0.42187,-0.125 h 0.92188 v -6.79688 h -0.6875 q -0.29688,0 -0.42188,-0.10937 -0.125,-0.125 -0.125,-0.3125 0,-0.17188 0.125,-0.28125 0.125,-0.125 0.42188,-0.125 z"
       fill-rule="nonzero"
       id="path103" />
    <path
       fill="#000000"
       fill-opacity="0"
       d="m 35.97113,285.46457 h 546.1102 v 67.87402 H 35.97113 Z"
       fill-rule="evenodd"
       id="path105" />
    <path
       fill="#212121"
       d="m 160.45595,306.03955 v 6.79688 h 3.60938 q 0.29687,0 0.42187,0.125 0.125,0.10937 0.125,0.29687 0,0.17188 -0.125,0.29688 -0.125,0.10937 -0.42187,0.10937 h -6.42188 q -0.28125,0 -0.42187,-0.10937 -0.125,-0.125 -0.125,-0.29688 0,-0.1875 0.125,-0.29687 0.14062,-0.125 0.42187,-0.125 h 1.98438 v -6.79688 h -1.76563 q -0.29687,0 -0.42187,-0.10937 -0.125,-0.125 -0.125,-0.3125 0,-0.17188 0.125,-0.28125 0.125,-0.125 0.42187,-0.125 h 1.76563 v -1.25 q 0,-1.03125 0.84375,-1.78125 0.84375,-0.76563 2.23437,-0.76563 1.15625,0 2.46875,0.20313 0.5,0.0781 0.59375,0.1875 0.10938,0.10937 0.10938,0.28125 0,0.1875 -0.125,0.29687 -0.10938,0.10938 -0.29688,0.10938 -0.0781,0 -0.26562,-0.0312 -1.46875,-0.21875 -2.48438,-0.21875 -1.07812,0 -1.67187,0.53125 -0.57813,0.51562 -0.57813,1.1875 v 1.25 h 3.84375 q 0.29688,0 0.42188,0.125 0.125,0.10937 0.125,0.29687 0,0.17188 -0.125,0.29688 -0.125,0.10937 -0.42188,0.10937 z m 9.89258,-0.82812 v 1.23437 q 0.85937,-0.875 1.54687,-1.20312 0.70313,-0.32813 1.57813,-0.32813 0.9375,0 1.70312,0.40625 0.54688,0.28125 0.98438,0.96875 0.45312,0.67188 0.45312,1.39063 v 5.15625 h 0.6875 q 0.29688,0 0.42188,0.125 0.125,0.10937 0.125,0.29687 0,0.17188 -0.125,0.29688 -0.125,0.10937 -0.42188,0.10937 h -2.1875 q -0.3125,0 -0.4375,-0.10937 -0.125,-0.125 -0.125,-0.29688 0,-0.1875 0.125,-0.29687 0.125,-0.125 0.4375,-0.125 h 0.6875 v -5.01563 q 0,-0.875 -0.64062,-1.46875 -0.64063,-0.60937 -1.70313,-0.60937 -0.8125,0 -1.40625,0.32812 -0.59375,0.32813 -1.70312,1.625 v 5.14063 h 0.9375 q 0.29687,0 0.42187,0.125 0.125,0.10937 0.125,0.29687 0,0.17188 -0.125,0.29688 -0.125,0.10937 -0.42187,0.10937 h -2.67188 q -0.29687,0 -0.42187,-0.10937 -0.125,-0.125 -0.125,-0.29688 0,-0.1875 0.125,-0.29687 0.125,-0.125 0.42187,-0.125 h 0.92188 v -6.79688 h -0.6875 q -0.29688,0 -0.42188,-0.10937 -0.125,-0.125 -0.125,-0.3125 0,-0.17188 0.125,-0.28125 0.125,-0.125 0.42188,-0.125 z m 26.11328,0.82812 v 6.79688 h 3.60937 q 0.29688,0 0.42188,0.125 0.125,0.10937 0.125,0.29687 0,0.17188 -0.125,0.29688 -0.125,0.10937 -0.42188,0.10937 h -6.42187 q -0.28125,0 -0.42188,-0.10937 -0.125,-0.125 -0.125,-0.29688 0,-0.1875 0.125,-0.29687 0.14063,-0.125 0.42188,-0.125 h 1.98437 v -6.79688 h -1.76562 q -0.29688,0 -0.42188,-0.10937 -0.125,-0.125 -0.125,-0.3125 0,-0.17188 0.125,-0.28125 0.125,-0.125 0.42188,-0.125 h 1.76562 v -1.25 q 0,-1.03125 0.84375,-1.78125 0.84375,-0.76563 2.23438,-0.76563 1.15625,0 2.46875,0.20313 0.5,0.0781 0.59375,0.1875 0.10937,0.10937 0.10937,0.28125 0,0.1875 -0.125,0.29687 -0.10937,0.10938 -0.29687,0.10938 -0.0781,0 -0.26563,-0.0312 -1.46875,-0.21875 -2.48437,-0.21875 -1.07813,0 -1.67188,0.53125 -0.57812,0.51562 -0.57812,1.1875 v 1.25 h 3.84375 q 0.29687,0 0.42187,0.125 0.125,0.10937 0.125,0.29687 0,0.17188 -0.125,0.29688 -0.125,0.10937 -0.42187,0.10937 z m 12.9707,-4.625 v 11.42188 h 3.21875 q 0.29688,0 0.42188,0.125 0.14062,0.10937 0.14062,0.29687 0,0.17188 -0.14062,0.29688 -0.125,0.10937 -0.42188,0.10937 h -7.26562 q -0.29688,0 -0.42188,-0.10937 -0.125,-0.125 -0.125,-0.29688 0,-0.1875 0.125,-0.29687 0.125,-0.125 0.42188,-0.125 h 3.21875 v -10.59375 h -2.35938 q -0.29687,0 -0.4375,-0.10938 -0.125,-0.125 -0.125,-0.3125 0,-0.17187 0.125,-0.28125 0.14063,-0.125 0.4375,-0.125 z m 11.98633,-0.42187 v 2.125 h -1.20312 v -2.125 z m 0.0312,4.21875 v 7.625 h 3.21875 q 0.3125,0 0.4375,0.125 0.125,0.10937 0.125,0.29687 0,0.17188 -0.125,0.29688 -0.125,0.10937 -0.4375,0.10937 h -7.26562 q -0.29688,0 -0.42188,-0.10937 -0.125,-0.125 -0.125,-0.29688 0,-0.1875 0.125,-0.29687 0.125,-0.125 0.42188,-0.125 h 3.21875 v -6.79688 h -2.39063 q -0.28125,0 -0.42187,-0.10937 -0.125,-0.125 -0.125,-0.29688 0,-0.1875 0.125,-0.29687 0.125,-0.125 0.42187,-0.125 z m 8.4707,0 v 1.48437 q 0.73438,-0.89062 1.57813,-1.32812 0.84375,-0.45313 1.98437,-0.45313 1.20313,0 2.23438,0.5625 1.03125,0.5625 1.57812,1.57813 0.5625,1.01562 0.5625,2.125 0,1.76562 -1.26562,3.03125 -1.25,1.25 -3.10938,1.25 -2.1875,0 -3.5625,-1.79688 v 4.95313 h 2 q 0.29688,0 0.42188,0.10937 0.125,0.10938 0.125,0.29688 0,0.17187 -0.125,0.28125 -0.125,0.125 -0.42188,0.125 h -3.92187 q -0.29688,0 -0.42188,-0.10938 -0.125,-0.10937 -0.125,-0.29687 0,-0.1875 0.125,-0.29688 0.125,-0.10937 0.42188,-0.10937 h 1.10937 v -10.57813 h -1.10937 q -0.29688,0 -0.42188,-0.10937 -0.125,-0.125 -0.125,-0.3125 0,-0.17188 0.125,-0.28125 0.125,-0.125 0.42188,-0.125 z m 7.10938,3.96875 q 0,-1.42188 -1.03125,-2.42188 -1.03125,-1.01562 -2.51563,-1.01562 -1.48437,0 -2.53125,1.01562 -1.03125,1.01563 -1.03125,2.42188 0,1.42187 1.03125,2.4375 1.04688,1.01562 2.53125,1.01562 1.48438,0 2.51563,-1.01562 1.03125,-1.01563 1.03125,-2.4375 z m 7.89258,-0.375 q 0,-1.125 0.29687,-2.375 0.29688,-1.26563 1.125,-2.92188 0.82813,-1.65625 1.20313,-2 0.125,-0.0937 0.26562,-0.0937 0.17188,0 0.28125,0.125 0.125,0.10938 0.125,0.26563 0,0.0937 -0.0625,0.21875 -1.07812,1.96875 -1.53125,3.57812 -0.45312,1.59375 -0.45312,3.20313 0,1.60937 0.45312,3.21875 0.45313,1.59375 1.53125,3.5625 0.0625,0.10937 0.0625,0.20312 0,0.17188 -0.125,0.29688 -0.10937,0.125 -0.28125,0.125 -0.14062,0 -0.26562,-0.10938 -0.35938,-0.34375 -1.1875,-1.95312 -0.8125,-1.60938 -1.125,-2.84375 -0.3125,-1.25 -0.3125,-2.5 z m 14.42382,4.85937 -0.625,-0.96875 q -0.89062,1.29688 -2.26562,1.29688 -1.17188,0 -2.0625,-0.92188 -0.89063,-0.9375 -0.89063,-2.28125 0,-1.03125 0.59375,-1.82812 0.60938,-0.8125 1.65625,-1.125 -0.71875,-1.15625 -0.85937,-1.51563 -0.14063,-0.375 -0.14063,-0.76562 0,-0.96875 0.73438,-1.6875 0.73437,-0.73438 1.75,-0.73438 0.32812,0 0.65625,0.10938 0.34375,0.0937 0.67187,0.29687 0.42188,-0.21875 0.51563,-0.21875 0.17187,0 0.29687,0.125 0.125,0.125 0.125,0.29688 0,0.10937 -0.0781,0.21875 -0.0625,0.0937 -0.26563,0.20312 l -0.64062,0.34375 q -0.29688,-0.28125 -0.625,-0.40625 -0.3125,-0.14062 -0.64063,-0.14062 -0.67187,0 -1.1875,0.5 -0.5,0.5 -0.5,1.10937 0,0.64063 0.89063,2.03125 l 2.26562,3.60938 q 0.59375,-1.125 0.9375,-2.59375 h 0.79688 q 0.29687,0 0.42187,0.125 0.125,0.10937 0.125,0.28125 0,0.125 -0.0781,0.23437 -0.0781,0.10938 -0.17188,0.15625 -0.0937,0.0312 -0.46875,0.0312 -0.46875,1.65625 -1.07812,2.5625 l 0.54687,0.82813 h 0.70313 q 0.29687,0 0.42187,0.125 0.125,0.10937 0.125,0.29687 0,0.17188 -0.125,0.29688 -0.125,0.10937 -0.42187,0.10937 z m -3.23437,-5.09375 q -0.82813,0.1875 -1.3125,0.79688 -0.48438,0.59375 -0.48438,1.42187 0,0.98438 0.64063,1.6875 0.65625,0.6875 1.46875,0.6875 1.09375,0 1.8125,-1.23437 z m 9.17383,-3.35937 v 0.82812 q 1.04687,-1.125 2.09375,-1.125 0.64062,0 1.10937,0.34375 0.48438,0.32813 0.8125,1.01563 0.54688,-0.6875 1.10938,-1.01563 0.5625,-0.34375 1.125,-0.34375 0.89062,0 1.42187,0.57813 0.6875,0.73437 0.6875,1.625 v 5.71875 h 0.6875 q 0.29688,0 0.42188,0.125 0.125,0.10937 0.125,0.29687 0,0.17188 -0.125,0.29688 -0.125,0.10937 -0.42188,0.10937 h -1.5 v -6.46875 q 0,-0.625 -0.39062,-1.03125 -0.375,-0.42187 -0.875,-0.42187 -0.45313,0 -0.95313,0.34375 -0.5,0.32812 -1.125,1.3125 v 5.4375 h 0.6875 q 0.28125,0 0.40625,0.125 0.14063,0.10937 0.14063,0.29687 0,0.17188 -0.14063,0.29688 -0.125,0.10937 -0.40625,0.10937 h -1.51562 v -6.42187 q 0,-0.65625 -0.39063,-1.07813 -0.39062,-0.42187 -0.85937,-0.42187 -0.4375,0 -0.875,0.28125 -0.59375,0.40625 -1.25,1.375 v 5.4375 h 0.6875 q 0.29687,0 0.42187,0.125 0.125,0.10937 0.125,0.29687 0,0.17188 -0.125,0.29688 -0.125,0.10937 -0.42187,0.10937 h -2.20313 q -0.29687,0 -0.42187,-0.10937 -0.125,-0.125 -0.125,-0.29688 0,-0.1875 0.125,-0.29687 0.125,-0.125 0.42187,-0.125 h 0.70313 v -6.79688 h -0.70313 q -0.29687,0 -0.42187,-0.10937 -0.125,-0.125 -0.125,-0.3125 0,-0.17188 0.125,-0.28125 0.125,-0.125 0.42187,-0.125 z m 18.54883,8.45312 v -1.20312 q -1.6875,1.53125 -3.64063,1.53125 -1.20312,0 -1.82812,-0.65625 -0.79688,-0.85938 -0.79688,-2 v -5.29688 h -1.10937 q -0.29688,0 -0.42188,-0.10937 -0.125,-0.125 -0.125,-0.3125 0,-0.17188 0.125,-0.28125 0.125,-0.125 0.42188,-0.125 h 1.92187 v 6.125 q 0,0.79687 0.5,1.3125 0.51563,0.51562 1.28125,0.51562 2,0 3.67188,-1.82812 v -5.29688 h -1.51563 q -0.29687,0 -0.42187,-0.10937 -0.125,-0.125 -0.125,-0.3125 0,-0.17188 0.125,-0.28125 0.125,-0.125 0.42187,-0.125 h 2.32813 v 7.625 h 0.70312 q 0.28125,0 0.40625,0.125 0.14063,0.10937 0.14063,0.29687 0,0.17188 -0.14063,0.29688 -0.125,0.10937 -0.40625,0.10937 z m 7.50195,-8.45312 h 4.45312 q 0.29688,0 0.42188,0.125 0.125,0.10937 0.125,0.29687 0,0.17188 -0.125,0.29688 -0.125,0.10937 -0.42188,0.10937 h -4.45312 v 5.45313 q 0,0.71875 0.5625,1.20312 0.57812,0.46875 1.6875,0.46875 0.82812,0 1.79687,-0.25 0.96875,-0.25 1.5,-0.5625 0.20313,-0.125 0.32813,-0.125 0.15625,0 0.26562,0.125 0.125,0.125 0.125,0.28125 0,0.15625 -0.125,0.28125 -0.3125,0.3125 -1.53125,0.70313 -1.20312,0.375 -2.29687,0.375 -1.4375,0 -2.29688,-0.67188 -0.84375,-0.6875 -0.84375,-1.82812 v -5.45313 h -1.51562 q -0.28125,0 -0.42188,-0.10937 -0.125,-0.125 -0.125,-0.3125 0,-0.17188 0.125,-0.28125 0.14063,-0.125 0.42188,-0.125 h 1.51562 v -2.42188 q 0,-0.29687 0.10938,-0.42187 0.125,-0.125 0.29687,-0.125 0.1875,0 0.29688,0.125 0.125,0.125 0.125,0.42187 z m 28.41015,0.53125 q 0,-0.28125 0.10938,-0.40625 0.125,-0.125 0.29687,-0.125 0.1875,0 0.29688,0.125 0.125,0.125 0.125,0.42187 v 1.40625 q 0,0.29688 -0.125,0.42188 -0.10938,0.125 -0.29688,0.125 -0.17187,0 -0.28125,-0.0937 -0.10937,-0.10938 -0.125,-0.35938 -0.0625,-0.59375 -0.60937,-0.96875 -0.79688,-0.54687 -2.125,-0.54687 -1.375,0 -2.14063,0.5625 -0.57812,0.42187 -0.57812,0.9375 0,0.57812 0.6875,0.96875 0.46875,0.28125 1.78125,0.42187 1.70312,0.1875 2.375,0.42188 0.9375,0.34375 1.40625,0.95312 0.46875,0.59375 0.46875,1.29688 0,1.04687 -1.01563,1.875 -1,0.8125 -2.9375,0.8125 -1.95312,0 -3.1875,-1 0,0.34375 -0.0469,0.4375 -0.0312,0.0937 -0.14063,0.17187 -0.0937,0.0625 -0.21875,0.0625 -0.1875,0 -0.3125,-0.125 -0.10937,-0.125 -0.10937,-0.42187 v -1.6875 q 0,-0.29688 0.10937,-0.42188 0.125,-0.125 0.3125,-0.125 0.17188,0 0.29688,0.125 0.125,0.10938 0.125,0.32813 0,0.4375 0.21875,0.75 0.34375,0.46875 1.07812,0.78125 0.75,0.29687 1.84375,0.29687 1.59375,0 2.375,-0.59375 0.78125,-0.59375 0.78125,-1.26562 0,-0.75 -0.78125,-1.21875 -0.8125,-0.45313 -2.34375,-0.60938 -1.51562,-0.15625 -2.1875,-0.40625 -0.65625,-0.26562 -1.03125,-0.76562 -0.375,-0.51563 -0.375,-1.09375 0,-1.0625 1.03125,-1.67188 1.04688,-0.625 2.48438,-0.625 1.6875,0 2.76562,0.82813 z m 13.72071,3.89062 h -8.35938 q 0.21875,1.59375 1.32813,2.5625 1.125,0.96875 2.78125,0.96875 0.90625,0 1.90625,-0.29687 1.01562,-0.3125 1.65625,-0.8125 0.1875,-0.14063 0.3125,-0.14063 0.15625,0 0.26562,0.125 0.125,0.125 0.125,0.28125 0,0.17188 -0.15625,0.32813 -0.46875,0.48437 -1.67187,0.92187 -1.1875,0.42188 -2.4375,0.42188 -2.10938,0 -3.53125,-1.375 -1.40625,-1.39063 -1.40625,-3.35938 0,-1.78125 1.3125,-3.0625 1.32812,-1.28125 3.28125,-1.28125 2.01562,0 3.3125,1.3125 1.29687,1.3125 1.28125,3.40625 z m -0.82813,-0.82812 q -0.25,-1.35938 -1.29687,-2.20313 -1.03125,-0.85937 -2.46875,-0.85937 -1.42188,0 -2.46875,0.84375 -1.03125,0.84375 -1.28125,2.21875 z m 8.81446,-7.39063 v 11.42188 h 3.21875 q 0.29687,0 0.42187,0.125 0.14063,0.10937 0.14063,0.29687 0,0.17188 -0.14063,0.29688 -0.125,0.10937 -0.42187,0.10937 h -7.26563 q -0.29687,0 -0.42187,-0.10937 -0.125,-0.125 -0.125,-0.29688 0,-0.1875 0.125,-0.29687 0.125,-0.125 0.42187,-0.125 h 3.21875 v -10.59375 h -2.35937 q -0.29688,0 -0.4375,-0.10938 -0.125,-0.125 -0.125,-0.3125 0,-0.17187 0.125,-0.28125 0.14062,-0.125 0.4375,-0.125 z m 11.0332,4.625 v 6.79688 h 3.60937 q 0.29688,0 0.42188,0.125 0.125,0.10937 0.125,0.29687 0,0.17188 -0.125,0.29688 -0.125,0.10937 -0.42188,0.10937 h -6.42187 q -0.28125,0 -0.42188,-0.10937 -0.125,-0.125 -0.125,-0.29688 0,-0.1875 0.125,-0.29687 0.14063,-0.125 0.42188,-0.125 h 1.98437 v -6.79688 h -1.76562 q -0.29688,0 -0.42188,-0.10937 -0.125,-0.125 -0.125,-0.3125 0,-0.17188 0.125,-0.28125 0.125,-0.125 0.42188,-0.125 h 1.76562 v -1.25 q 0,-1.03125 0.84375,-1.78125 0.84375,-0.76563 2.23438,-0.76563 1.15625,0 2.46875,0.20313 0.5,0.0781 0.59375,0.1875 0.10937,0.10937 0.10937,0.28125 0,0.1875 -0.125,0.29687 -0.10937,0.10938 -0.29687,0.10938 -0.0781,0 -0.26563,-0.0312 -1.46875,-0.21875 -2.48437,-0.21875 -1.07813,0 -1.67188,0.53125 -0.57812,0.51562 -0.57812,1.1875 v 1.25 h 3.84375 q 0.29687,0 0.42187,0.125 0.125,0.10937 0.125,0.29687 0,0.17188 -0.125,0.29688 -0.125,0.10937 -0.42187,0.10937 z m 12.7832,2.76563 q 0,1.125 -0.29687,2.39062 -0.28125,1.25 -1.10938,2.90625 -0.82812,1.65625 -1.21875,1.98438 -0.10937,0.125 -0.25,0.125 -0.17187,0 -0.29687,-0.125 -0.125,-0.125 -0.125,-0.29688 0,-0.0937 0.0781,-0.20312 1.0625,-1.96875 1.51563,-3.5625 0.46875,-1.60938 0.46875,-3.21875 0,-1.60938 -0.46875,-3.20313 -0.45313,-1.60937 -1.51563,-3.57812 -0.0781,-0.125 -0.0781,-0.21875 0,-0.15625 0.125,-0.26563 0.125,-0.125 0.29687,-0.125 0.14063,0 0.25,0.0937 0.35938,0.34375 1.17188,1.95313 0.82812,1.60937 1.14062,2.85937 0.3125,1.23438 0.3125,2.48438 z"
       fill-rule="nonzero"
       id="path107" />
    <path
       fill="#212121"
       d="m 395.14933,300.0708 q 0.9375,-0.0781 1.71875,0.78125 l 5,5.625 -4.92188,5.46875 q -0.85937,0.9375 -1.64062,0.9375 -0.625,0 -1.17188,-0.46875 -0.625,-0.39062 -0.625,-1.17187 0,-0.78125 0.46875,-1.25 l 1.64063,-1.875 h -9.375 q -0.70313,0 -1.17188,-0.46875 -0.54687,-0.54688 -0.46875,-1.32813 0.0781,-0.625 0.46875,-1.01562 0.46875,-0.46875 1.17188,-0.54688 h 9.375 l -1.5625,-1.71875 q -0.54688,-0.70312 -0.54688,-1.32812 0.0781,-0.625 0.625,-1.17188 0.46875,-0.3125 1.01563,-0.46875 z"
       fill-rule="nonzero"
       id="path109" />
    <path
       fill="#212121"
       d="m 417.94813,301.41455 v 5.4375 q 1.48437,-1.9375 3.59375,-1.9375 1.79687,0 3.0625,1.3125 1.28125,1.29688 1.28125,3.1875 0,1.92188 -1.29688,3.25 -1.28125,1.32813 -3.04687,1.32813 -2.15625,0 -3.59375,-1.9375 v 1.60937 h -1.92188 q -0.29687,0 -0.42187,-0.10937 -0.125,-0.125 -0.125,-0.29688 0,-0.1875 0.125,-0.29687 0.125,-0.125 0.42187,-0.125 h 1.10938 v -10.59375 h -1.10938 q -0.29687,0 -0.42187,-0.10938 -0.125,-0.125 -0.125,-0.3125 0,-0.17187 0.125,-0.28125 0.125,-0.125 0.42187,-0.125 z m 7.125,8.04688 q 0,-1.5625 -1.0625,-2.64063 -1.0625,-1.07812 -2.5,-1.07812 -1.42188,0 -2.48438,1.07812 -1.0625,1.07813 -1.0625,2.64063 0,1.54687 1.0625,2.625 1.0625,1.07812 2.48438,1.07812 1.4375,0 2.5,-1.07812 1.0625,-1.07813 1.0625,-2.625 z m 12.56445,0 q 0,1.875 -1.34375,3.20312 -1.34375,1.32813 -3.25,1.32813 -1.90625,0 -3.25,-1.32813 -1.32812,-1.34375 -1.32812,-3.20312 0,-1.875 1.32812,-3.20313 1.34375,-1.34375 3.25,-1.34375 1.90625,0 3.25,1.32813 1.34375,1.32812 1.34375,3.21875 z m -0.84375,0 q 0,-1.54688 -1.09375,-2.625 -1.09375,-1.09375 -2.65625,-1.09375 -1.5625,0 -2.67187,1.09375 -1.09375,1.07812 -1.09375,2.625 0,1.51562 1.09375,2.60937 1.10937,1.09375 2.67187,1.09375 1.5625,0 2.65625,-1.07812 1.09375,-1.09375 1.09375,-2.625 z m 12.84571,0 q 0,1.875 -1.34375,3.20312 -1.34375,1.32813 -3.25,1.32813 -1.90625,0 -3.25,-1.32813 -1.32813,-1.34375 -1.32813,-3.20312 0,-1.875 1.32813,-3.20313 1.34375,-1.34375 3.25,-1.34375 1.90625,0 3.25,1.32813 1.34375,1.32812 1.34375,3.21875 z m -0.84375,0 q 0,-1.54688 -1.09375,-2.625 -1.09375,-1.09375 -2.65625,-1.09375 -1.5625,0 -2.67188,1.09375 -1.09375,1.07812 -1.09375,2.625 0,1.51562 1.09375,2.60937 1.10938,1.09375 2.67188,1.09375 1.5625,0 2.65625,-1.07812 1.09375,-1.09375 1.09375,-2.625 z m 8.67382,-8.04688 v 11.42188 h 3.21875 q 0.29688,0 0.42188,0.125 0.14062,0.10937 0.14062,0.29687 0,0.17188 -0.14062,0.29688 -0.125,0.10937 -0.42188,0.10937 h -7.26562 q -0.29688,0 -0.42188,-0.10937 -0.125,-0.125 -0.125,-0.29688 0,-0.1875 0.125,-0.29687 0.125,-0.125 0.42188,-0.125 h 3.21875 v -10.59375 h -2.35938 q -0.29687,0 -0.4375,-0.10938 -0.125,-0.125 -0.125,-0.3125 0,-0.17187 0.125,-0.28125 0.14063,-0.125 0.4375,-0.125 z"
       fill-rule="nonzero"
       id="path111" />
    <path
       fill="#212121"
       d="m 190.46083,330.03955 v 6.79688 h 3.60938 q 0.29687,0 0.42187,0.125 0.125,0.10937 0.125,0.29687 0,0.17188 -0.125,0.29688 -0.125,0.10937 -0.42187,0.10937 h -6.42188 q -0.28125,0 -0.42187,-0.10937 -0.125,-0.125 -0.125,-0.29688 0,-0.1875 0.125,-0.29687 0.14062,-0.125 0.42187,-0.125 h 1.98438 v -6.79688 h -1.76563 q -0.29687,0 -0.42187,-0.10937 -0.125,-0.125 -0.125,-0.3125 0,-0.17188 0.125,-0.28125 0.125,-0.125 0.42187,-0.125 h 1.76563 v -1.25 q 0,-1.03125 0.84375,-1.78125 0.84375,-0.76563 2.23437,-0.76563 1.15625,0 2.46875,0.20313 0.5,0.0781 0.59375,0.1875 0.10938,0.10937 0.10938,0.28125 0,0.1875 -0.125,0.29687 -0.10938,0.10938 -0.29688,0.10938 -0.0781,0 -0.26562,-0.0312 -1.46875,-0.21875 -2.48438,-0.21875 -1.07812,0 -1.67187,0.53125 -0.57813,0.51562 -0.57813,1.1875 v 1.25 h 3.84375 q 0.29688,0 0.42188,0.125 0.125,0.10937 0.125,0.29687 0,0.17188 -0.125,0.29688 -0.125,0.10937 -0.42188,0.10937 z m 9.89258,-0.82812 v 1.23437 q 0.85937,-0.875 1.54687,-1.20312 0.70313,-0.32813 1.57813,-0.32813 0.9375,0 1.70312,0.40625 0.54688,0.28125 0.98438,0.96875 0.45312,0.67188 0.45312,1.39063 v 5.15625 h 0.6875 q 0.29688,0 0.42188,0.125 0.125,0.10937 0.125,0.29687 0,0.17188 -0.125,0.29688 -0.125,0.10937 -0.42188,0.10937 h -2.1875 q -0.3125,0 -0.4375,-0.10937 -0.125,-0.125 -0.125,-0.29688 0,-0.1875 0.125,-0.29687 0.125,-0.125 0.4375,-0.125 h 0.6875 v -5.01563 q 0,-0.875 -0.64062,-1.46875 -0.64063,-0.60937 -1.70313,-0.60937 -0.8125,0 -1.40625,0.32812 -0.59375,0.32813 -1.70312,1.625 v 5.14063 h 0.9375 q 0.29687,0 0.42187,0.125 0.125,0.10937 0.125,0.29687 0,0.17188 -0.125,0.29688 -0.125,0.10937 -0.42187,0.10937 h -2.67188 q -0.29687,0 -0.42187,-0.10937 -0.125,-0.125 -0.125,-0.29688 0,-0.1875 0.125,-0.29687 0.125,-0.125 0.42187,-0.125 h 0.92188 v -6.79688 h -0.6875 q -0.29688,0 -0.42188,-0.10937 -0.125,-0.125 -0.125,-0.3125 0,-0.17188 0.125,-0.28125 0.125,-0.125 0.42188,-0.125 z m 29.42578,1.5 v -1.5 h 1.92187 q 0.29688,0 0.42188,0.125 0.125,0.10937 0.125,0.29687 0,0.17188 -0.125,0.29688 -0.125,0.10937 -0.42188,0.10937 h -1.10937 v 8.1875 q 0,0.82813 -0.34375,1.46875 -0.23438,0.4375 -0.78125,0.89063 -0.54688,0.45312 -1,0.64062 -0.45313,0.20313 -1.20313,0.20313 h -2.32812 q -0.28125,0 -0.42188,-0.10938 -0.125,-0.10937 -0.125,-0.29687 0,-0.1875 0.125,-0.3125 0.14063,-0.10938 0.42188,-0.10938 l 2.35937,0.0156 q 0.71875,0 1.29688,-0.375 0.59375,-0.375 0.96875,-1.07813 0.21875,-0.42187 0.21875,-1.04687 v -2.46875 q -1.32813,1.8125 -3.40625,1.8125 -1.6875,0 -2.92188,-1.25 -1.21875,-1.26563 -1.21875,-3.03125 0,-1.76563 1.21875,-3.01563 1.23438,-1.25 2.92188,-1.25 2.07812,0 3.40625,1.79688 z m 0,2.46875 q 0,-1.4375 -1,-2.4375 -0.98438,-1 -2.35938,-1 -1.375,0 -2.375,1 -0.98437,1 -0.98437,2.4375 0,1.45312 0.98437,2.45312 1,1 2.375,1 1.375,0 2.35938,-1 1,-1 1,-2.45312 z m 13.67383,0.45312 h -8.35938 q 0.21875,1.59375 1.32813,2.5625 1.125,0.96875 2.78125,0.96875 0.90625,0 1.90625,-0.29687 1.01562,-0.3125 1.65625,-0.8125 0.1875,-0.14063 0.3125,-0.14063 0.15625,0 0.26562,0.125 0.125,0.125 0.125,0.28125 0,0.17188 -0.15625,0.32813 -0.46875,0.48437 -1.67187,0.92187 -1.1875,0.42188 -2.4375,0.42188 -2.10938,0 -3.53125,-1.375 -1.40625,-1.39063 -1.40625,-3.35938 0,-1.78125 1.3125,-3.0625 1.32812,-1.28125 3.28125,-1.28125 2.01562,0 3.3125,1.3125 1.29687,1.3125 1.28125,3.40625 z m -0.82813,-0.82812 q -0.25,-1.35938 -1.29687,-2.20313 -1.03125,-0.85937 -2.46875,-0.85937 -1.42188,0 -2.46875,0.84375 -1.03125,0.84375 -1.28125,2.21875 z m 6.70508,-3.59375 h 4.45313 q 0.29687,0 0.42187,0.125 0.125,0.10937 0.125,0.29687 0,0.17188 -0.125,0.29688 -0.125,0.10937 -0.42187,0.10937 h -4.45313 v 5.45313 q 0,0.71875 0.5625,1.20312 0.57813,0.46875 1.6875,0.46875 0.82813,0 1.79688,-0.25 0.96875,-0.25 1.5,-0.5625 0.20312,-0.125 0.32812,-0.125 0.15625,0 0.26563,0.125 0.125,0.125 0.125,0.28125 0,0.15625 -0.125,0.28125 -0.3125,0.3125 -1.53125,0.70313 -1.20313,0.375 -2.29688,0.375 -1.4375,0 -2.29687,-0.67188 -0.84375,-0.6875 -0.84375,-1.82812 v -5.45313 h -1.51563 q -0.28125,0 -0.42187,-0.10937 -0.125,-0.125 -0.125,-0.3125 0,-0.17188 0.125,-0.28125 0.14062,-0.125 0.42187,-0.125 h 1.51563 v -2.42188 q 0,-0.29687 0.10937,-0.42187 0.125,-0.125 0.29688,-0.125 0.1875,0 0.29687,0.125 0.125,0.125 0.125,0.42187 z m 13.5957,3.59375 q 0,-1.125 0.29688,-2.375 0.29687,-1.26563 1.125,-2.92188 0.82812,-1.65625 1.20312,-2 0.125,-0.0937 0.26563,-0.0937 0.17187,0 0.28125,0.125 0.125,0.10938 0.125,0.26563 0,0.0937 -0.0625,0.21875 -1.07813,1.96875 -1.53125,3.57812 -0.45313,1.59375 -0.45313,3.20313 0,1.60937 0.45313,3.21875 0.45312,1.59375 1.53125,3.5625 0.0625,0.10937 0.0625,0.20312 0,0.17188 -0.125,0.29688 -0.10938,0.125 -0.28125,0.125 -0.14063,0 -0.26563,-0.10938 -0.35937,-0.34375 -1.1875,-1.95312 -0.8125,-1.60938 -1.125,-2.84375 -0.3125,-1.25 -0.3125,-2.5 z m 14.42383,4.85937 -0.625,-0.96875 q -0.89062,1.29688 -2.26562,1.29688 -1.17188,0 -2.0625,-0.92188 -0.89063,-0.9375 -0.89063,-2.28125 0,-1.03125 0.59375,-1.82812 0.60938,-0.8125 1.65625,-1.125 -0.71875,-1.15625 -0.85937,-1.51563 -0.14063,-0.375 -0.14063,-0.76562 0,-0.96875 0.73438,-1.6875 0.73437,-0.73438 1.75,-0.73438 0.32812,0 0.65625,0.10938 0.34375,0.0937 0.67187,0.29687 0.42188,-0.21875 0.51563,-0.21875 0.17187,0 0.29687,0.125 0.125,0.125 0.125,0.29688 0,0.10937 -0.0781,0.21875 -0.0625,0.0937 -0.26563,0.20312 l -0.64062,0.34375 q -0.29688,-0.28125 -0.625,-0.40625 -0.3125,-0.14062 -0.64063,-0.14062 -0.67187,0 -1.1875,0.5 -0.5,0.5 -0.5,1.10937 0,0.64063 0.89063,2.03125 l 2.26562,3.60938 q 0.59375,-1.125 0.9375,-2.59375 h 0.79688 q 0.29687,0 0.42187,0.125 0.125,0.10937 0.125,0.28125 0,0.125 -0.0781,0.23437 -0.0781,0.10938 -0.17188,0.15625 -0.0937,0.0312 -0.46875,0.0312 -0.46875,1.65625 -1.07812,2.5625 l 0.54687,0.82813 h 0.70313 q 0.29687,0 0.42187,0.125 0.125,0.10937 0.125,0.29687 0,0.17188 -0.125,0.29688 -0.125,0.10937 -0.42187,0.10937 z m -3.23437,-5.09375 q -0.82813,0.1875 -1.3125,0.79688 -0.48438,0.59375 -0.48438,1.42187 0,0.98438 0.64063,1.6875 0.65625,0.6875 1.46875,0.6875 1.09375,0 1.8125,-1.23437 z m 15.62695,-2.82812 q 0,-0.28125 0.10937,-0.40625 0.125,-0.125 0.29688,-0.125 0.1875,0 0.29687,0.125 0.125,0.125 0.125,0.42187 v 1.40625 q 0,0.29688 -0.125,0.42188 -0.10937,0.125 -0.29687,0.125 -0.17188,0 -0.28125,-0.0937 -0.10938,-0.10938 -0.125,-0.35938 -0.0625,-0.59375 -0.60938,-0.96875 -0.79687,-0.54687 -2.125,-0.54687 -1.375,0 -2.14062,0.5625 -0.57813,0.42187 -0.57813,0.9375 0,0.57812 0.6875,0.96875 0.46875,0.28125 1.78125,0.42187 1.70313,0.1875 2.375,0.42188 0.9375,0.34375 1.40625,0.95312 0.46875,0.59375 0.46875,1.29688 0,1.04687 -1.01562,1.875 -1,0.8125 -2.9375,0.8125 -1.95313,0 -3.1875,-1 0,0.34375 -0.0469,0.4375 -0.0312,0.0937 -0.14062,0.17187 -0.0937,0.0625 -0.21875,0.0625 -0.1875,0 -0.3125,-0.125 -0.10938,-0.125 -0.10938,-0.42187 v -1.6875 q 0,-0.29688 0.10938,-0.42188 0.125,-0.125 0.3125,-0.125 0.17187,0 0.29687,0.125 0.125,0.10938 0.125,0.32813 0,0.4375 0.21875,0.75 0.34375,0.46875 1.07813,0.78125 0.75,0.29687 1.84375,0.29687 1.59375,0 2.375,-0.59375 0.78125,-0.59375 0.78125,-1.26562 0,-0.75 -0.78125,-1.21875 -0.8125,-0.45313 -2.34375,-0.60938 -1.51563,-0.15625 -2.1875,-0.40625 -0.65625,-0.26562 -1.03125,-0.76562 -0.375,-0.51563 -0.375,-1.09375 0,-1.0625 1.03125,-1.67188 1.04687,-0.625 2.48437,-0.625 1.6875,0 2.76563,0.82813 z m 13.7207,3.89062 h -8.35937 q 0.21875,1.59375 1.32812,2.5625 1.125,0.96875 2.78125,0.96875 0.90625,0 1.90625,-0.29687 1.01563,-0.3125 1.65625,-0.8125 0.1875,-0.14063 0.3125,-0.14063 0.15625,0 0.26563,0.125 0.125,0.125 0.125,0.28125 0,0.17188 -0.15625,0.32813 -0.46875,0.48437 -1.67188,0.92187 -1.1875,0.42188 -2.4375,0.42188 -2.10937,0 -3.53125,-1.375 -1.40625,-1.39063 -1.40625,-3.35938 0,-1.78125 1.3125,-3.0625 1.32813,-1.28125 3.28125,-1.28125 2.01563,0 3.3125,1.3125 1.29688,1.3125 1.28125,3.40625 z m -0.82812,-0.82812 q -0.25,-1.35938 -1.29688,-2.20313 -1.03125,-0.85937 -2.46875,-0.85937 -1.42187,0 -2.46875,0.84375 -1.03125,0.84375 -1.28125,2.21875 z m 8.81445,-7.39063 v 11.42188 h 3.21875 q 0.29688,0 0.42188,0.125 0.14062,0.10937 0.14062,0.29687 0,0.17188 -0.14062,0.29688 -0.125,0.10937 -0.42188,0.10937 h -7.26562 q -0.29688,0 -0.42188,-0.10937 -0.125,-0.125 -0.125,-0.29688 0,-0.1875 0.125,-0.29687 0.125,-0.125 0.42188,-0.125 h 3.21875 v -10.59375 h -2.35938 q -0.29687,0 -0.4375,-0.10938 -0.125,-0.125 -0.125,-0.3125 0,-0.17187 0.125,-0.28125 0.14063,-0.125 0.4375,-0.125 z m 11.0332,4.625 v 6.79688 h 3.60938 q 0.29687,0 0.42187,0.125 0.125,0.10937 0.125,0.29687 0,0.17188 -0.125,0.29688 -0.125,0.10937 -0.42187,0.10937 h -6.42188 q -0.28125,0 -0.42187,-0.10937 -0.125,-0.125 -0.125,-0.29688 0,-0.1875 0.125,-0.29687 0.14062,-0.125 0.42187,-0.125 h 1.98438 v -6.79688 h -1.76563 q -0.29687,0 -0.42187,-0.10937 -0.125,-0.125 -0.125,-0.3125 0,-0.17188 0.125,-0.28125 0.125,-0.125 0.42187,-0.125 h 1.76563 v -1.25 q 0,-1.03125 0.84375,-1.78125 0.84375,-0.76563 2.23437,-0.76563 1.15625,0 2.46875,0.20313 0.5,0.0781 0.59375,0.1875 0.10938,0.10937 0.10938,0.28125 0,0.1875 -0.125,0.29687 -0.10938,0.10938 -0.29688,0.10938 -0.0781,0 -0.26562,-0.0312 -1.46875,-0.21875 -2.48438,-0.21875 -1.07812,0 -1.67187,0.53125 -0.57813,0.51562 -0.57813,1.1875 v 1.25 h 3.84375 q 0.29688,0 0.42188,0.125 0.125,0.10937 0.125,0.29687 0,0.17188 -0.125,0.29688 -0.125,0.10937 -0.42188,0.10937 z m 12.78321,2.76563 q 0,1.125 -0.29688,2.39062 -0.28125,1.25 -1.10937,2.90625 -0.82813,1.65625 -1.21875,1.98438 -0.10938,0.125 -0.25,0.125 -0.17188,0 -0.29688,-0.125 -0.125,-0.125 -0.125,-0.29688 0,-0.0937 0.0781,-0.20312 1.0625,-1.96875 1.51562,-3.5625 0.46875,-1.60938 0.46875,-3.21875 0,-1.60938 -0.46875,-3.20313 -0.45312,-1.60937 -1.51562,-3.57812 -0.0781,-0.125 -0.0781,-0.21875 0,-0.15625 0.125,-0.26563 0.125,-0.125 0.29688,-0.125 0.14062,0 0.25,0.0937 0.35937,0.34375 1.17187,1.95313 0.82813,1.60937 1.14063,2.85937 0.3125,1.23438 0.3125,2.48438 z"
       fill-rule="nonzero"
       id="path113" />
    <path
       fill="#212121"
       d="m 365.14443,324.0708 q 0.9375,-0.0781 1.71875,0.78125 l 5,5.625 -4.92187,5.46875 q -0.85938,0.9375 -1.64063,0.9375 -0.625,0 -1.17187,-0.46875 -0.625,-0.39062 -0.625,-1.17187 0,-0.78125 0.46875,-1.25 l 1.64062,-1.875 h -9.375 q -0.70312,0 -1.17187,-0.46875 -0.54688,-0.54688 -0.46875,-1.32813 0.0781,-0.625 0.46875,-1.01562 0.46875,-0.46875 1.17187,-0.54688 h 9.375 l -1.5625,-1.71875 q -0.54687,-0.70312 -0.54687,-1.32812 0.0781,-0.625 0.625,-1.17188 0.46875,-0.3125 1.01562,-0.46875 z"
       fill-rule="nonzero"
       id="path115" />
    <path
       fill="#212121"
       d="m 387.94323,325.41455 v 5.4375 q 1.48437,-1.9375 3.59375,-1.9375 1.79687,0 3.0625,1.3125 1.28125,1.29688 1.28125,3.1875 0,1.92188 -1.29688,3.25 -1.28125,1.32813 -3.04687,1.32813 -2.15625,0 -3.59375,-1.9375 v 1.60937 h -1.92188 q -0.29687,0 -0.42187,-0.10937 -0.125,-0.125 -0.125,-0.29688 0,-0.1875 0.125,-0.29687 0.125,-0.125 0.42187,-0.125 h 1.10938 v -10.59375 h -1.10938 q -0.29687,0 -0.42187,-0.10938 -0.125,-0.125 -0.125,-0.3125 0,-0.17187 0.125,-0.28125 0.125,-0.125 0.42187,-0.125 z m 7.125,8.04688 q 0,-1.5625 -1.0625,-2.64063 -1.0625,-1.07812 -2.5,-1.07812 -1.42188,0 -2.48438,1.07812 -1.0625,1.07813 -1.0625,2.64063 0,1.54687 1.0625,2.625 1.0625,1.07812 2.48438,1.07812 1.4375,0 2.5,-1.07812 1.0625,-1.07813 1.0625,-2.625 z m 12.56445,0 q 0,1.875 -1.34375,3.20312 -1.34375,1.32813 -3.25,1.32813 -1.90625,0 -3.25,-1.32813 -1.32812,-1.34375 -1.32812,-3.20312 0,-1.875 1.32812,-3.20313 1.34375,-1.34375 3.25,-1.34375 1.90625,0 3.25,1.32813 1.34375,1.32812 1.34375,3.21875 z m -0.84375,0 q 0,-1.54688 -1.09375,-2.625 -1.09375,-1.09375 -2.65625,-1.09375 -1.5625,0 -2.67187,1.09375 -1.09375,1.07812 -1.09375,2.625 0,1.51562 1.09375,2.60937 1.10937,1.09375 2.67187,1.09375 1.5625,0 2.65625,-1.07812 1.09375,-1.09375 1.09375,-2.625 z m 12.84571,0 q 0,1.875 -1.34375,3.20312 -1.34375,1.32813 -3.25,1.32813 -1.90625,0 -3.25,-1.32813 -1.32813,-1.34375 -1.32813,-3.20312 0,-1.875 1.32813,-3.20313 1.34375,-1.34375 3.25,-1.34375 1.90625,0 3.25,1.32813 1.34375,1.32812 1.34375,3.21875 z m -0.84375,0 q 0,-1.54688 -1.09375,-2.625 -1.09375,-1.09375 -2.65625,-1.09375 -1.5625,0 -2.67188,1.09375 -1.09375,1.07812 -1.09375,2.625 0,1.51562 1.09375,2.60937 1.10938,1.09375 2.67188,1.09375 1.5625,0 2.65625,-1.07812 1.09375,-1.09375 1.09375,-2.625 z m 8.67382,-8.04688 v 11.42188 h 3.21875 q 0.29688,0 0.42188,0.125 0.14062,0.10937 0.14062,0.29687 0,0.17188 -0.14062,0.29688 -0.125,0.10937 -0.42188,0.10937 h -7.26562 q -0.29688,0 -0.42188,-0.10937 -0.125,-0.125 -0.125,-0.29688 0,-0.1875 0.125,-0.29687 0.125,-0.125 0.42188,-0.125 h 3.21875 v -10.59375 h -2.35938 q -0.29687,0 -0.4375,-0.10938 -0.125,-0.125 -0.125,-0.3125 0,-0.17187 0.125,-0.28125 0.14063,-0.125 0.4375,-0.125 z"
       fill-rule="nonzero"
       id="path117" />
  </g>
</svg>
